<?xml version="1.0" encoding="UTF-8"?>
<svg viewBox="0 0 348.29 111.99" xmlns="http://www.w3.org/2000/svg" xmlns:xlink="http://www.w3.org/1999/xlink">
<defs>
<style>.cls-1{fill:url(#a);}.cls-2{fill:url(#h);}.cls-3{fill:url(#g);}.cls-4{fill:url(#f);}.cls-5{fill:url(#e);}.cls-6{fill:url(#d);}.cls-7{fill:url(#c);}.cls-8{fill:url(#b);}</style>
<linearGradient id="a" x1="94.88" x2="94.88" y1="107.39" y2="3.55" gradientUnits="userSpaceOnUse">
<stop stop-color="#2a2727" offset="0"/>
<stop stop-color="#504f4e" offset="1"/>
</linearGradient>
<linearGradient id="h" x1="181.19" x2="181.19" y1="106.74" y2="6.74" xlink:href="#a"/>
<linearGradient id="g" x1="238.26" x2="238.26" y1="106.74" y2="6.74" xlink:href="#a"/>
<linearGradient id="f" x1="307.11" x2="307.11" y1="106.74" y2="6.74" xlink:href="#a"/>
<linearGradient id="e" x1="5.3" x2="64.87" y1="17.59" y2="17.59" gradientUnits="userSpaceOnUse">
<stop stop-color="#ba3b95" offset="0"/>
<stop stop-color="#7b3493" offset="1"/>
</linearGradient>
<linearGradient id="d" x1="5.3" x2="64.87" y1="94.4" y2="94.4" gradientUnits="userSpaceOnUse">
<stop stop-color="#0099d9" offset="0"/>
<stop stop-color="#005791" offset="1"/>
</linearGradient>
<linearGradient id="c" x2="54.19" y1="69.51" y2="69.51" gradientUnits="userSpaceOnUse">
<stop stop-color="#8dc63f" offset="0"/>
<stop stop-color="#71b242" offset=".39"/>
<stop stop-color="#5fa644" offset=".75"/>
<stop stop-color="#58a145" offset="1"/>
</linearGradient>
<linearGradient id="b" x2="54.19" y1="41.79" y2="41.79" gradientUnits="userSpaceOnUse">
<stop stop-color="#ffce06" offset="0"/>
<stop stop-color="#faa21b" offset="1"/>
</linearGradient>
</defs>
<title>Asset 1</title>
<g data-name="Layer 2">
<g data-name="Layer 1">
<path class="cls-1" d="M82.11,22.57q14.33,0,24.11,9.52a31,31,0,0,1,9.78,23,32.63,32.63,0,0,1-7.54,21.21Q98.82,88.23,82.24,88.23a42.14,42.14,0,0,1-6.85-.55l-20,12.65.19.13a51.86,51.86,0,0,0,26.36,6.93,51.61,51.61,0,0,0,36.94-14.88q15.56-14.9,15.55-37.38A49.63,49.63,0,0,0,119.26,18.6q-15.15-15-37-15a51.85,51.85,0,0,0-26.49,6.83l18.64,13A37.14,37.14,0,0,1,82.11,22.57Z"/>
<path class="cls-2" d="M210.76,19.88c-3.24-4.48-8-7.87-14.18-10.09a50.63,50.63,0,0,0-9.68-2.32,79.57,79.57,0,0,0-11.19-.73h-29v100h17.37V68.28a87.4,87.4,0,0,0,25.09-1.74,42.92,42.92,0,0,0,14.13-6A27.72,27.72,0,0,0,212.5,50.4a29.9,29.9,0,0,0,3.18-14A27.56,27.56,0,0,0,210.76,19.88ZM164.06,23H174.4a78,78,0,0,1,8.8.44,26.68,26.68,0,0,1,6.26,1.41,13.19,13.19,0,0,1,6.17,4.35,11.66,11.66,0,0,1,2.05,7.23,15.73,15.73,0,0,1-1.34,6.67,11.53,11.53,0,0,1-4.18,4.71,24.56,24.56,0,0,1-8.27,3.26,62.33,62.33,0,0,1-13.15,1.19c-1.45,0-3,0-4.62-.14-.69,0-1.38-.08-2.06-.14Z"/>
<rect class="cls-3" x="229.58" y="6.74" width="17.37" height="100"/>
<path class="cls-4" d="M330.85,6.74v53c0,6,.13,11.95.37,17.83-3.84-5.83-7.72-11.57-11.6-17.14L281.82,6.74H265.94v100h17.37v-51c0-7.11-.12-13.74-.36-19.81,3.58,5.45,7.46,11.16,11.59,17.08l37.8,53.72h16V6.74Z"/>
<path class="cls-5" d="M17.41,0A12.11,12.11,0,1,0,29.52,12.11,12.11,12.11,0,0,0,17.41,0ZM40.27,11.4a9.65,9.65,0,1,0,9.65,9.65A9.65,9.65,0,0,0,40.27,11.4ZM57.8,21.05a7.07,7.07,0,1,0,7.07,7.06A7.07,7.07,0,0,0,57.8,21.05Z"/>
<path class="cls-6" d="M17.41,87.77A12.11,12.11,0,1,0,29.52,99.88,12.11,12.11,0,0,0,17.41,87.77Zm22.86-6.48a9.65,9.65,0,1,0,9.65,9.65A9.65,9.65,0,0,0,40.27,81.29ZM57.8,76.81a7.07,7.07,0,1,0,7.07,7.06A7.07,7.07,0,0,0,57.8,76.81Z"/>
<path class="cls-7" d="M9.74,59.78a9.74,9.74,0,1,0,9.73,9.73A9.74,9.74,0,0,0,9.74,59.78Zm21.83,0a7.76,7.76,0,1,0,7.76,7.76A7.76,7.76,0,0,0,31.57,59.78Zm16.94,0a5.68,5.68,0,1,0,5.68,5.68A5.68,5.68,0,0,0,48.51,59.78Z"/>
<path class="cls-8" d="M9.74,32.05a9.74,9.74,0,1,0,9.73,9.74A9.74,9.74,0,0,0,9.74,32.05Zm21.83,4a7.76,7.76,0,1,0,7.76,7.75A7.76,7.76,0,0,0,31.57,36Zm16.94,4.15a5.68,5.68,0,1,0,5.68,5.68A5.68,5.68,0,0,0,48.51,40.16Z"/>
</g>
</g>
</svg>
