<?xml version="1.0" standalone="no"?><!DOCTYPE svg PUBLIC "-//W3C//DTD SVG 1.1//EN" "http://www.w3.org/Graphics/SVG/1.1/DTD/svg11.dtd" ><svg version="1.1" xmlns="http://www.w3.org/2000/svg"><defs><font horiz-adv-x="0" id="font"><font-face ascent="750" bbox="-110 -261 1271 1000" cap-height="750" descent="-250" font-family="Apex New Web" font-stretch="normal" font-style="normal" font-weight="600" units-per-em="1000" x-height="500" /><missing-glyph d="M65 750H815V0H65ZM440 422 702 684H178ZM178 66H702L440 328ZM744 118V632L487 375ZM136 632V118L393 375Z" horiz-adv-x="880" /><glyph glyph-name=".null" horiz-adv-x="0" /><glyph d="M-5 0 353 760H403L575 0H498L454 210H166L72 0ZM193 269H442L364 646Z" glyph-name="A" horiz-adv-x="630" unicode="A" /><glyph d="M539 422H901L894 359H543L554 63H892L885 0H489L479 210H192L66 0H-10L458 750H977L969 687H529ZM229 269H478L462 655Z" glyph-name="AE" horiz-adv-x="975" unicode="&#198;" /><glyph d="M-5 0 353 760H403L575 0H498L454 210H166L72 0ZM193 269H442L364 646ZM358 800 420 900H510L408 800Z" glyph-name="Aacute" horiz-adv-x="630" unicode="&#193;" /><glyph d="M-5 0 353 760H403L575 0H498L454 210H166L72 0ZM193 269H442L364 646ZM390 790Q250 790 259 900H310Q308 869 331 857Q354 845 397 845Q440 845 466.5 857Q493 869 498 900H549Q531 790 390 790Z" glyph-name="Abreve" horiz-adv-x="630" unicode="&#258;" /><glyph d="M-5 0 353 760H403L575 0H498L454 210H166L72 0ZM193 269H442L364 646ZM482 800 390 856 284 800H228L355 900H435L538 800Z" glyph-name="Acircumflex" horiz-adv-x="630" unicode="&#194;" /><glyph d="M-5 0 353 760H403L575 0H498L454 210H166L72 0ZM193 269H442L364 646ZM434 850Q434 871 448.5 885.5Q463 900 484 900Q505 900 519.5 885.5Q534 871 534 850Q534 829 519.5 814.5Q505 800 484 800Q463 800 448.5 814.5Q434 829 434 850ZM244 850Q244 871 258.5 885.5Q273 900 294 900Q315 900 329.5 885.5Q344 871 344 850Q344 829 329.5 814.5Q315 800 294 800Q273 800 258.5 814.5Q244 829 244 850Z" glyph-name="Adieresis" horiz-adv-x="630" unicode="&#196;" /><glyph d="M-5 0 353 760H403L575 0H498L454 210H166L72 0ZM193 269H442L364 646ZM358 800 280 900H370L408 800Z" glyph-name="Agrave" horiz-adv-x="630" unicode="&#192;" /><glyph d="M-5 0 353 760H403L575 0H498L454 210H166L72 0ZM193 269H442L364 646ZM256 880H530L522 820H248Z" glyph-name="Amacron" horiz-adv-x="630" unicode="&#256;" /><glyph d="M-5 0 353 760H403L575 0Q522 -27 489 -65Q456 -103 451 -142Q448 -165 458.5 -182Q469 -199 498 -199Q515 -199 530 -196.5Q545 -194 556 -191L550 -239Q536 -244 518 -247Q500 -250 478 -250Q433 -250 408 -225Q383 -200 388 -155Q394 -110 421.5 -70Q449 -30 497 1L454 210H166L72 0ZM193 269H442L364 646Z" glyph-name="Aogonek" horiz-adv-x="630" unicode="&#260;" /><glyph d="M-5 0 353 760H403L575 0H498L454 210H166L72 0ZM193 269H442L364 646ZM389 828Q433 828 436 850Q439 872 395 872Q351 872 348 850Q345 828 389 828ZM401 921Q420 921 436.5 917.5Q453 914 465 906Q477 898 483 884.5Q489 871 486 850Q483 829 474 815.5Q465 802 451 794Q437 786 419.5 782.5Q402 779 383 779Q345 779 319 794Q293 809 298 850Q301 871 310 884.5Q319 898 333 906Q347 914 364.5 917.5Q382 921 401 921Z" glyph-name="Aring" horiz-adv-x="630" unicode="&#197;" /><glyph d="M-5 0 353 760H403L575 0H498L454 210H166L72 0ZM193 269H442L364 646ZM465 849Q482 849 492.5 854Q503 859 509 867Q515 875 517 883.5Q519 892 520 900H576Q573 847 540 818.5Q507 790 453 790Q426 790 408 799.5Q390 809 375 820.5Q360 832 346 841.5Q332 851 313 851Q296 851 285.5 846Q275 841 269 833Q263 825 261 816Q259 807 258 800H202Q204 853 237 881.5Q270 910 324 910Q351 910 369.5 900.5Q388 891 403 879.5Q418 868 432 858.5Q446 849 465 849Z" glyph-name="Atilde" horiz-adv-x="630" unicode="&#195;" /><glyph d="M137 750H374Q440 750 482.5 734.5Q525 719 549 692Q573 665 580 629Q587 593 582 552Q576 503 546.5 460Q517 417 465 396Q496 387 517 368.5Q538 350 550 325Q562 300 565.5 270.5Q569 241 565 211Q560 167 542.5 128.5Q525 90 492 61.5Q459 33 409 16.5Q359 0 289 0H45ZM120 63H305Q358 63 392.5 76Q427 89 448 110Q469 131 478.5 157.5Q488 184 491 211Q501 287 468.5 323Q436 359 344 359H157ZM508 552Q511 577 508.5 601Q506 625 492.5 644Q479 663 451.5 675Q424 687 376 687H197L164 422H351Q393 422 422 433.5Q451 445 469 463Q487 481 496 504.5Q505 528 508 552Z" glyph-name="B" horiz-adv-x="615" unicode="B" /><glyph d="M76 375Q86 455 109 525Q132 595 172.5 647.5Q213 700 273.5 730Q334 760 418 760Q487 760 533.5 749.5Q580 739 609 725L600 658Q576 668 553.5 675.5Q531 683 508.5 688Q486 693 462 695Q438 697 410 697Q348 697 302.5 672Q257 647 225.5 603.5Q194 560 175 501.5Q156 443 148 375Q139 307 143.5 248.5Q148 190 169 146.5Q190 103 229.5 78Q269 53 331 53Q359 53 383.5 55Q408 57 431.5 62Q455 67 479.5 74Q504 81 531 92L523 25Q490 11 441 0.5Q392 -10 323 -10Q239 -10 186 20Q133 50 105.5 102.5Q78 155 72 225Q66 295 76 375Z" glyph-name="C" horiz-adv-x="610" unicode="C" /><glyph d="M76 375Q86 455 109 525Q132 595 172.5 647.5Q213 700 273.5 730Q334 760 418 760Q487 760 533.5 749.5Q580 739 609 725L600 658Q576 668 553.5 675.5Q531 683 508.5 688Q486 693 462 695Q438 697 410 697Q348 697 302.5 672Q257 647 225.5 603.5Q194 560 175 501.5Q156 443 148 375Q139 307 143.5 248.5Q148 190 169 146.5Q190 103 229.5 78Q269 53 331 53Q359 53 383.5 55Q408 57 431.5 62Q455 67 479.5 74Q504 81 531 92L523 25Q490 11 441 0.5Q392 -10 323 -10Q239 -10 186 20Q133 50 105.5 102.5Q78 155 72 225Q66 295 76 375ZM398 800 460 900H550L448 800Z" glyph-name="Cacute" horiz-adv-x="610" unicode="&#262;" /><glyph d="M76 375Q86 455 109 525Q132 595 172.5 647.5Q213 700 273.5 730Q334 760 418 760Q487 760 533.5 749.5Q580 739 609 725L600 658Q576 668 553.5 675.5Q531 683 508.5 688Q486 693 462 695Q438 697 410 697Q348 697 302.5 672Q257 647 225.5 603.5Q194 560 175 501.5Q156 443 148 375Q139 307 143.5 248.5Q148 190 169 146.5Q190 103 229.5 78Q269 53 331 53Q359 53 383.5 55Q408 57 431.5 62Q455 67 479.5 74Q504 81 531 92L523 25Q490 11 441 0.5Q392 -10 323 -10Q239 -10 186 20Q133 50 105.5 102.5Q78 155 72 225Q66 295 76 375ZM336 900 428 844 534 900H590L463 800H383L280 900Z" glyph-name="Ccaron" horiz-adv-x="610" unicode="&#268;" /><glyph d="M76 375Q86 455 109 525Q132 595 172.5 647.5Q213 700 273.5 730Q334 760 418 760Q487 760 533.5 749.5Q580 739 609 725L600 658Q576 668 553.5 675.5Q531 683 508.5 688Q486 693 462 695Q438 697 410 697Q348 697 302.5 672Q257 647 225.5 603.5Q194 560 175 501.5Q156 443 148 375Q139 307 143.5 248.5Q148 190 169 146.5Q190 103 229.5 78Q269 53 331 53Q359 53 383.5 55Q408 57 431.5 62Q455 67 479.5 74Q504 81 531 92L523 25Q492 12 448.5 2.5Q405 -7 344 -9L342 -64Q356 -68 372 -75Q388 -82 400.5 -93Q413 -104 420.5 -121Q428 -138 425 -161Q420 -202 388 -226Q356 -250 303 -250Q262 -250 240.5 -243.5Q219 -237 211 -232L217 -186Q227 -190 239 -193Q250 -195 263 -197Q276 -199 292 -199Q323 -199 342 -190.5Q361 -182 363 -163Q365 -147 359 -136Q353 -125 342 -117.5Q331 -110 315 -106Q299 -102 282 -100L302 -9Q225 -5 176 26.5Q127 58 101.5 109.5Q76 161 71 229.5Q66 298 76 375Z" glyph-name="Ccedilla" horiz-adv-x="610" unicode="&#199;" /><glyph d="M76 375Q86 455 109 525Q132 595 172.5 647.5Q213 700 273.5 730Q334 760 418 760Q487 760 533.5 749.5Q580 739 609 725L600 658Q576 668 553.5 675.5Q531 683 508.5 688Q486 693 462 695Q438 697 410 697Q348 697 302.5 672Q257 647 225.5 603.5Q194 560 175 501.5Q156 443 148 375Q139 307 143.5 248.5Q148 190 169 146.5Q190 103 229.5 78Q269 53 331 53Q359 53 383.5 55Q408 57 431.5 62Q455 67 479.5 74Q504 81 531 92L523 25Q490 11 441 0.5Q392 -10 323 -10Q239 -10 186 20Q133 50 105.5 102.5Q78 155 72 225Q66 295 76 375ZM522 800 430 856 324 800H268L395 900H475L578 800Z" glyph-name="Ccircumflex" horiz-adv-x="610" unicode="&#264;" /><glyph d="M76 375Q86 455 109 525Q132 595 172.5 647.5Q213 700 273.5 730Q334 760 418 760Q487 760 533.5 749.5Q580 739 609 725L600 658Q576 668 553.5 675.5Q531 683 508.5 688Q486 693 462 695Q438 697 410 697Q348 697 302.5 672Q257 647 225.5 603.5Q194 560 175 501.5Q156 443 148 375Q139 307 143.5 248.5Q148 190 169 146.5Q190 103 229.5 78Q269 53 331 53Q359 53 383.5 55Q408 57 431.5 62Q455 67 479.5 74Q504 81 531 92L523 25Q490 11 441 0.5Q392 -10 323 -10Q239 -10 186 20Q133 50 105.5 102.5Q78 155 72 225Q66 295 76 375ZM379 850Q379 871 393.5 885.5Q408 900 429 900Q450 900 464.5 885.5Q479 871 479 850Q479 829 464.5 814.5Q450 800 429 800Q408 800 393.5 814.5Q379 829 379 850Z" glyph-name="Cdotaccent" horiz-adv-x="610" unicode="&#266;" /><glyph d="M45 0 137 750H341Q433 750 490.5 721.5Q548 693 578 642.5Q608 592 614.5 523.5Q621 455 611 375Q601 295 577.5 226.5Q554 158 511.5 107.5Q469 57 405 28.5Q341 0 249 0ZM120 63H260Q327 63 376 86.5Q425 110 458.5 151.5Q492 193 511 250Q530 307 539 375Q547 442 542 499.5Q537 557 514 598.5Q491 640 447.5 663.5Q404 687 337 687H197Z" glyph-name="D" horiz-adv-x="655" unicode="D" /><glyph d="M45 0 137 750H341Q433 750 490.5 721.5Q548 693 578 642.5Q608 592 614.5 523.5Q621 455 611 375Q601 295 577.5 226.5Q554 158 511.5 107.5Q469 57 405 28.5Q341 0 249 0ZM120 63H260Q327 63 376 86.5Q425 110 458.5 151.5Q492 193 511 250Q530 307 539 375Q547 442 542 499.5Q537 557 514 598.5Q491 640 447.5 663.5Q404 687 337 687H197ZM281 900 373 844 479 900H535L408 800H328L225 900Z" glyph-name="Dcaron" horiz-adv-x="655" unicode="&#270;" /><glyph d="M35 415H125L167 750H371Q463 750 520.5 721.5Q578 693 608 642.5Q638 592 644.5 523.5Q651 455 641 375Q631 295 607.5 226.5Q584 158 541.5 107.5Q499 57 435 28.5Q371 0 279 0H75L119 362H29ZM193 415H376L370 362H187L150 63H290Q357 63 406 86.5Q455 110 488.5 151.5Q522 193 541 250Q560 307 569 375Q577 442 572 499.5Q567 557 544 598.5Q521 640 477.5 663.5Q434 687 367 687H227Z" glyph-name="Dcroat" horiz-adv-x="685" unicode="&#272;" /><glyph d="M-5 43 377 760H449L655 43L650 0H-10ZM581 61 404 686 73 61Z" glyph-name="Delta" horiz-adv-x="700" unicode="&#8710;" /><glyph d="M489 359H157L120 63H487L480 0H45L137 750H572L564 687H197L164 422H496Z" glyph-name="E" horiz-adv-x="570" unicode="E" /><glyph d="M489 359H157L120 63H487L480 0H45L137 750H572L564 687H197L164 422H496ZM343 800 405 900H495L393 800Z" glyph-name="Eacute" horiz-adv-x="570" unicode="&#201;" /><glyph d="M489 359H157L120 63H487L480 0H45L137 750H572L564 687H197L164 422H496ZM375 790Q235 790 244 900H295Q293 869 316 857Q339 845 382 845Q425 845 451.5 857Q478 869 483 900H534Q516 790 375 790Z" glyph-name="Ebreve" horiz-adv-x="570" unicode="&#276;" /><glyph d="M489 359H157L120 63H487L480 0H45L137 750H572L564 687H197L164 422H496ZM281 900 373 844 479 900H535L408 800H328L225 900Z" glyph-name="Ecaron" horiz-adv-x="570" unicode="&#282;" /><glyph d="M489 359H157L120 63H487L480 0H45L137 750H572L564 687H197L164 422H496ZM467 800 375 856 269 800H213L340 900H420L523 800Z" glyph-name="Ecircumflex" horiz-adv-x="570" unicode="&#202;" /><glyph d="M489 359H157L120 63H487L480 0H45L137 750H572L564 687H197L164 422H496ZM419 850Q419 871 433.5 885.5Q448 900 469 900Q490 900 504.5 885.5Q519 871 519 850Q519 829 504.5 814.5Q490 800 469 800Q448 800 433.5 814.5Q419 829 419 850ZM229 850Q229 871 243.5 885.5Q258 900 279 900Q300 900 314.5 885.5Q329 871 329 850Q329 829 314.5 814.5Q300 800 279 800Q258 800 243.5 814.5Q229 829 229 850Z" glyph-name="Edieresis" horiz-adv-x="570" unicode="&#203;" /><glyph d="M489 359H157L120 63H487L480 0H45L137 750H572L564 687H197L164 422H496ZM324 850Q324 871 338.5 885.5Q353 900 374 900Q395 900 409.5 885.5Q424 871 424 850Q424 829 409.5 814.5Q395 800 374 800Q353 800 338.5 814.5Q324 829 324 850Z" glyph-name="Edotaccent" horiz-adv-x="570" unicode="&#278;" /><glyph d="M489 359H157L120 63H487L480 0H45L137 750H572L564 687H197L164 422H496ZM343 800 265 900H355L393 800Z" glyph-name="Egrave" horiz-adv-x="570" unicode="&#200;" /><glyph d="M489 359H157L120 63H487L480 0H45L137 750H572L564 687H197L164 422H496ZM241 880H515L507 820H233Z" glyph-name="Emacron" horiz-adv-x="570" unicode="&#274;" /><glyph d="M346 -201Q368 -198 392 -190.5Q416 -183 436 -169.5Q456 -156 470 -136Q484 -116 488 -87L501 22L186 611L113 0H45L137 750H188L516 139L589 750H657L553 -96Q548 -135 527 -165Q506 -195 475.5 -215.5Q445 -236 409 -247Q373 -258 339 -260Z" glyph-name="Eng" horiz-adv-x="670" unicode="&#330;" /><glyph d="M489 359H157L120 63H487L480 0Q427 -27 394 -65Q361 -103 356 -142Q353 -165 363.5 -182Q374 -199 403 -199Q420 -199 435 -196.5Q450 -194 461 -191L455 -239Q441 -244 423 -247Q405 -250 383 -250Q338 -250 313 -225Q288 -200 293 -155Q299 -111 325.5 -71.5Q352 -32 400 0H45L137 750H572L564 687H197L164 422H496Z" glyph-name="Eogonek" horiz-adv-x="570" unicode="&#280;" /><glyph d="M35 415H125L167 750H371Q463 750 520.5 721.5Q578 693 608 642.5Q638 592 644.5 523.5Q651 455 641 375Q631 295 607.5 226.5Q584 158 541.5 107.5Q499 57 435 28.5Q371 0 279 0H75L119 362H29ZM193 415H376L370 362H187L150 63H290Q357 63 406 86.5Q455 110 488.5 151.5Q522 193 541 250Q560 307 569 375Q577 442 572 499.5Q567 557 544 598.5Q521 640 477.5 663.5Q434 687 367 687H227Z" glyph-name="Eth" horiz-adv-x="685" unicode="&#208;" /><glyph d="M66 418 74 484H138Q151 548 172 599Q193 650 226.5 686Q260 722 308 741Q356 760 423 760Q460 760 503.5 753Q547 746 578 732L571 672Q543 682 506 690Q469 698 415 698Q368 698 333.5 683Q299 668 274.5 640Q250 612 234 572.5Q218 533 208 484H487L456 418H196L185 332H415L384 266H181Q179 217 185.5 177.5Q192 138 209.5 110Q227 82 258 67Q289 52 336 52Q390 52 428.5 60Q467 68 498 78L491 18Q473 11 452.5 5.5Q432 0 410.5 -3.5Q389 -7 367.5 -8.5Q346 -10 328 -10Q261 -10 217.5 9Q174 28 149.5 63.5Q125 99 116.5 150Q108 201 111 266H47L55 332H115L126 418Z" glyph-name="Euro" horiz-adv-x="600" unicode="&#8364;" /><glyph d="M479 359H157L113 0H45L137 750H562L554 687H197L164 422H486Z" glyph-name="F" horiz-adv-x="550" unicode="F" /><glyph d="M323 -10Q239 -10 186 20Q133 50 105.5 102.5Q78 155 72 225Q66 295 76 375Q86 455 109 525Q132 595 172.5 647.5Q213 700 273.5 730Q334 760 418 760Q496 760 545 747Q594 734 623 718L614 650Q586 662 562 671Q538 680 514.5 685.5Q491 691 465.5 694Q440 697 410 697Q348 697 302.5 672Q257 647 225.5 603.5Q194 560 175 501.5Q156 443 148 375Q139 307 143.5 248.5Q148 190 169 146.5Q190 103 229.5 78Q269 53 331 53Q352 53 375.5 54Q399 55 421 57.5Q443 60 462.5 64.5Q482 69 496 75L527 331H370L378 394H603L558 31Q517 13 459.5 1.5Q402 -10 323 -10Z" glyph-name="G" horiz-adv-x="660" unicode="G" /><glyph d="M323 -10Q239 -10 186 20Q133 50 105.5 102.5Q78 155 72 225Q66 295 76 375Q86 455 109 525Q132 595 172.5 647.5Q213 700 273.5 730Q334 760 418 760Q496 760 545 747Q594 734 623 718L614 650Q586 662 562 671Q538 680 514.5 685.5Q491 691 465.5 694Q440 697 410 697Q348 697 302.5 672Q257 647 225.5 603.5Q194 560 175 501.5Q156 443 148 375Q139 307 143.5 248.5Q148 190 169 146.5Q190 103 229.5 78Q269 53 331 53Q352 53 375.5 54Q399 55 421 57.5Q443 60 462.5 64.5Q482 69 496 75L527 331H370L378 394H603L558 31Q517 13 459.5 1.5Q402 -10 323 -10ZM430 790Q290 790 299 900H350Q348 869 371 857Q394 845 437 845Q480 845 506.5 857Q533 869 538 900H589Q571 790 430 790Z" glyph-name="Gbreve" horiz-adv-x="660" unicode="&#286;" /><glyph d="M323 -10Q239 -10 186 20Q133 50 105.5 102.5Q78 155 72 225Q66 295 76 375Q86 455 109 525Q132 595 172.5 647.5Q213 700 273.5 730Q334 760 418 760Q496 760 545 747Q594 734 623 718L614 650Q586 662 562 671Q538 680 514.5 685.5Q491 691 465.5 694Q440 697 410 697Q348 697 302.5 672Q257 647 225.5 603.5Q194 560 175 501.5Q156 443 148 375Q139 307 143.5 248.5Q148 190 169 146.5Q190 103 229.5 78Q269 53 331 53Q352 53 375.5 54Q399 55 421 57.5Q443 60 462.5 64.5Q482 69 496 75L527 331H370L378 394H603L558 31Q517 13 459.5 1.5Q402 -10 323 -10ZM522 800 430 856 324 800H268L395 900H475L578 800Z" glyph-name="Gcircumflex" horiz-adv-x="660" unicode="&#284;" /><glyph d="M323 -10Q239 -10 186 20Q133 50 105.5 102.5Q78 155 72 225Q66 295 76 375Q86 455 109 525Q132 595 172.5 647.5Q213 700 273.5 730Q334 760 418 760Q496 760 545 747Q594 734 623 718L614 650Q586 662 562 671Q538 680 514.5 685.5Q491 691 465.5 694Q440 697 410 697Q348 697 302.5 672Q257 647 225.5 603.5Q194 560 175 501.5Q156 443 148 375Q139 307 143.5 248.5Q148 190 169 146.5Q190 103 229.5 78Q269 53 331 53Q352 53 375.5 54Q399 55 421 57.5Q443 60 462.5 64.5Q482 69 496 75L527 331H370L378 394H603L558 31Q517 13 459.5 1.5Q402 -10 323 -10ZM371 -50 279 -250H229L279 -50Z" glyph-name="Gcommaaccent" horiz-adv-x="660" unicode="&#290;" /><glyph d="M323 -10Q239 -10 186 20Q133 50 105.5 102.5Q78 155 72 225Q66 295 76 375Q86 455 109 525Q132 595 172.5 647.5Q213 700 273.5 730Q334 760 418 760Q496 760 545 747Q594 734 623 718L614 650Q586 662 562 671Q538 680 514.5 685.5Q491 691 465.5 694Q440 697 410 697Q348 697 302.5 672Q257 647 225.5 603.5Q194 560 175 501.5Q156 443 148 375Q139 307 143.5 248.5Q148 190 169 146.5Q190 103 229.5 78Q269 53 331 53Q352 53 375.5 54Q399 55 421 57.5Q443 60 462.5 64.5Q482 69 496 75L527 331H370L378 394H603L558 31Q517 13 459.5 1.5Q402 -10 323 -10ZM379 850Q379 871 393.5 885.5Q408 900 429 900Q450 900 464.5 885.5Q479 871 479 850Q479 829 464.5 814.5Q450 800 429 800Q408 800 393.5 814.5Q379 829 379 850Z" glyph-name="Gdotaccent" horiz-adv-x="660" unicode="&#288;" /><glyph d="M487 0 531 359H157L113 0H45L137 750H205L164 422H538L579 750H647L555 0Z" glyph-name="H" horiz-adv-x="660" unicode="H" /><glyph d="M487 0 531 359H157L113 0H45L137 750H205L187 606H561L579 750H647L555 0ZM538 422 553 543H179L164 422Z" glyph-name="Hbar" horiz-adv-x="660" unicode="&#294;" /><glyph d="M487 0 531 359H157L113 0H45L137 750H205L164 422H538L579 750H647L555 0ZM497 800 405 856 299 800H243L370 900H450L553 800Z" glyph-name="Hcircumflex" horiz-adv-x="660" unicode="&#292;" /><glyph d="M65 0 157 750H227L135 0Z" glyph-name="I" horiz-adv-x="260" unicode="I" /><glyph d="M65 0 157 750H227L135 0ZM272 61Q289 56 303.5 54.5Q318 53 341 53Q390 53 422 71Q454 89 460 138L536 750H606L531 140Q522 68 474.5 29Q427 -10 333 -10Q317 -10 298 -8.5Q279 -7 264 -3Z" glyph-name="IJ" horiz-adv-x="646" unicode="&#306;" /><glyph d="M65 0 157 750H227L135 0ZM174 800 236 900H326L224 800Z" glyph-name="Iacute" horiz-adv-x="260" unicode="&#205;" /><glyph d="M65 0 157 750H227L135 0ZM206 790Q66 790 75 900H126Q124 869 147 857Q170 845 213 845Q256 845 282.5 857Q309 869 314 900H365Q347 790 206 790Z" glyph-name="Ibreve" horiz-adv-x="260" unicode="&#300;" /><glyph d="M65 0 157 750H227L135 0ZM298 800 206 856 100 800H44L171 900H251L354 800Z" glyph-name="Icircumflex" horiz-adv-x="260" unicode="&#206;" /><glyph d="M65 0 157 750H227L135 0ZM79 850Q79 871 93.5 885.5Q108 900 129 900Q150 900 164.5 885.5Q179 871 179 850Q179 829 164.5 814.5Q150 800 129 800Q108 800 93.5 814.5Q79 829 79 850ZM229 850Q229 871 243.5 885.5Q258 900 279 900Q300 900 314.5 885.5Q329 871 329 850Q329 829 314.5 814.5Q300 800 279 800Q258 800 243.5 814.5Q229 829 229 850Z" glyph-name="Idieresis" horiz-adv-x="260" unicode="&#207;" /><glyph d="M65 0 157 750H227L135 0ZM155 850Q155 871 169.5 885.5Q184 900 205 900Q226 900 240.5 885.5Q255 871 255 850Q255 829 240.5 814.5Q226 800 205 800Q184 800 169.5 814.5Q155 829 155 850Z" glyph-name="Idotaccent" horiz-adv-x="260" unicode="&#304;" /><glyph d="M65 0 157 750H227L135 0ZM174 800 96 900H186L224 800Z" glyph-name="Igrave" horiz-adv-x="260" unicode="&#204;" /><glyph d="M65 0 157 750H227L135 0ZM72 880H346L338 820H64Z" glyph-name="Imacron" horiz-adv-x="260" unicode="&#298;" /><glyph d="M135 0Q81 -35 58.5 -69Q36 -103 31 -142Q28 -165 38.5 -182Q49 -199 78 -199Q95 -199 110 -196.5Q125 -194 136 -191L130 -239Q116 -244 98 -247Q80 -250 58 -250Q13 -250 -11.5 -225Q-36 -200 -31 -155Q-26 -110 -4.5 -71Q17 -32 65 1L157 750H227L135 0Z" glyph-name="Iogonek" horiz-adv-x="260" unicode="&#302;" /><glyph d="M65 0 157 750H227L135 0ZM281 849Q298 849 308.5 854Q319 859 325 867Q331 875 333 883.5Q335 892 336 900H392Q389 847 356 818.5Q323 790 269 790Q242 790 224 799.5Q206 809 191 820.5Q176 832 162 841.5Q148 851 129 851Q112 851 101.5 846Q91 841 85 833Q79 825 77 816Q75 807 74 800H18Q20 853 53 881.5Q86 910 140 910Q167 910 185.5 900.5Q204 891 219 879.5Q234 868 248 858.5Q262 849 281 849Z" glyph-name="Itilde" horiz-adv-x="260" unicode="&#296;" /><glyph d="M12 61Q29 56 43.5 54.5Q58 53 81 53Q130 53 162 71Q194 89 200 138L276 750H346L271 140Q262 68 214.5 29Q167 -10 73 -10Q57 -10 38 -8.5Q19 -7 4 -3Z" glyph-name="J" horiz-adv-x="379" unicode="J" /><glyph d="M12 61Q29 56 43.5 54.5Q58 53 81 53Q130 53 162 71Q194 89 200 138L276 750H346L271 140Q262 68 214.5 29Q167 -10 73 -10Q57 -10 38 -8.5Q19 -7 4 -3ZM417 800 325 856 219 800H163L290 900H370L473 800Z" glyph-name="Jcircumflex" horiz-adv-x="379" unicode="&#308;" /><glyph d="M222 363 148 288 113 0H45L137 750H205L159 376L518 750H606L272 414L544 0H455Z" glyph-name="K" horiz-adv-x="595" unicode="K" /><glyph d="M222 363 148 288 113 0H45L137 750H205L159 376L518 750H606L272 414L544 0H455ZM317 -50 225 -250H175L225 -50Z" glyph-name="Kcommaaccent" horiz-adv-x="595" unicode="&#310;" /><glyph d="M120 63H467L460 0H45L137 750H205Z" glyph-name="L" horiz-adv-x="530" unicode="L" /><glyph d="M120 63H467L460 0H45L137 750H205ZM153 800 215 900H305L203 800Z" glyph-name="Lacute" horiz-adv-x="530" unicode="&#313;" /><glyph d="M120 63H467L460 0H45L137 750H205ZM380 750 307 550H261L302 750Z" glyph-name="Lcaron" horiz-adv-x="530" unicode="&#317;" /><glyph d="M120 63H467L460 0H45L137 750H205ZM302 -50 210 -250H160L210 -50Z" glyph-name="Lcommaaccent" horiz-adv-x="530" unicode="&#315;" /><glyph d="M120 63H467L460 0H45L137 750H205ZM340 376Q340 397 354.5 411.5Q369 426 390 426Q411 426 425.5 411.5Q440 397 440 376Q440 355 425.5 340.5Q411 326 390 326Q369 326 354.5 340.5Q340 355 340 376Z" glyph-name="Ldot" horiz-adv-x="530" unicode="&#319;" /><glyph d="M188 383 412 510 405 449 180 322 148 63H495L488 0H73L107 280L2 221L9 282L114 341L165 750H233Z" glyph-name="Lslash" horiz-adv-x="560" unicode="&#321;" /><glyph d="M432 115H376L190 661L113 0H45L137 750H229L414 198L735 750H827L735 0H667L752 661Z" glyph-name="M" horiz-adv-x="840" unicode="M" /><glyph d="M514 0 186 611 113 0H45L137 750H188L516 139L589 750H657L565 0Z" glyph-name="N" horiz-adv-x="670" unicode="N" /><glyph d="M514 0 186 611 113 0H45L137 750H188L516 139L589 750H657L565 0ZM378 800 440 900H530L428 800Z" glyph-name="Nacute" horiz-adv-x="670" unicode="&#323;" /><glyph d="M514 0 186 611 113 0H45L137 750H188L516 139L589 750H657L565 0ZM316 900 408 844 514 900H570L443 800H363L260 900Z" glyph-name="Ncaron" horiz-adv-x="670" unicode="&#327;" /><glyph d="M514 0 186 611 113 0H45L137 750H188L516 139L589 750H657L565 0ZM352 -50 260 -250H210L260 -50Z" glyph-name="Ncommaaccent" horiz-adv-x="670" unicode="&#325;" /><glyph d="M514 0 186 611 113 0H45L137 750H188L516 139L589 750H657L565 0ZM485 849Q502 849 512.5 854Q523 859 529 867Q535 875 537 883.5Q539 892 540 900H596Q593 847 560 818.5Q527 790 473 790Q446 790 428 799.5Q410 809 395 820.5Q380 832 366 841.5Q352 851 333 851Q316 851 305.5 846Q295 841 289 833Q283 825 281 816Q279 807 278 800H222Q224 853 257 881.5Q290 910 344 910Q371 910 389.5 900.5Q408 891 423 879.5Q438 868 452 858.5Q466 849 485 849Z" glyph-name="Ntilde" horiz-adv-x="670" unicode="&#209;" /><glyph d="M316 53Q384 53 428 78Q472 103 499.5 146.5Q527 190 541 248.5Q555 307 564 375Q572 442 572 501Q572 560 555.5 603.5Q539 647 501 672Q463 697 395 697Q327 697 283 672Q239 647 212 603.5Q185 560 170.5 501Q156 442 148 375Q139 307 139 248.5Q139 190 155.5 146.5Q172 103 210 78Q248 53 316 53ZM308 -10Q216 -10 165 22.5Q114 55 91 109Q68 163 67.5 232Q67 301 76 375Q85 448 103 517.5Q121 587 157 641Q193 695 252 727.5Q311 760 403 760Q464 760 507 745Q550 730 578 703.5Q606 677 620.5 641Q635 605 640.5 562Q646 519 644 471.5Q642 424 636 375Q627 301 609 232Q591 163 554.5 109Q518 55 459 22.5Q400 -10 308 -10Z" glyph-name="O" horiz-adv-x="680" unicode="O" /><glyph d="M809 359H519L482 63H807L800 0H346Q254 0 196.5 28.5Q139 57 109 107.5Q79 158 72.5 226.5Q66 295 76 375Q86 455 109 523.5Q132 592 174.5 642.5Q217 693 281.5 721.5Q346 750 438 750H892L884 687H559L526 422H816ZM491 687H426Q358 687 309.5 663.5Q261 640 228 598.5Q195 557 175.5 499.5Q156 442 148 375Q139 307 144 250Q149 193 172 151.5Q195 110 238 86.5Q281 63 349 63H414Z" glyph-name="OE" horiz-adv-x="890" unicode="&#338;" /><glyph d="M316 53Q384 53 428 78Q472 103 499.5 146.5Q527 190 541 248.5Q555 307 564 375Q572 442 572 501Q572 560 555.5 603.5Q539 647 501 672Q463 697 395 697Q327 697 283 672Q239 647 212 603.5Q185 560 170.5 501Q156 442 148 375Q139 307 139 248.5Q139 190 155.5 146.5Q172 103 210 78Q248 53 316 53ZM308 -10Q216 -10 165 22.5Q114 55 91 109Q68 163 67.5 232Q67 301 76 375Q85 448 103 517.5Q121 587 157 641Q193 695 252 727.5Q311 760 403 760Q464 760 507 745Q550 730 578 703.5Q606 677 620.5 641Q635 605 640.5 562Q646 519 644 471.5Q642 424 636 375Q627 301 609 232Q591 163 554.5 109Q518 55 459 22.5Q400 -10 308 -10ZM383 800 445 900H535L433 800Z" glyph-name="Oacute" horiz-adv-x="680" unicode="&#211;" /><glyph d="M316 53Q384 53 428 78Q472 103 499.5 146.5Q527 190 541 248.5Q555 307 564 375Q572 442 572 501Q572 560 555.5 603.5Q539 647 501 672Q463 697 395 697Q327 697 283 672Q239 647 212 603.5Q185 560 170.5 501Q156 442 148 375Q139 307 139 248.5Q139 190 155.5 146.5Q172 103 210 78Q248 53 316 53ZM308 -10Q216 -10 165 22.5Q114 55 91 109Q68 163 67.5 232Q67 301 76 375Q85 448 103 517.5Q121 587 157 641Q193 695 252 727.5Q311 760 403 760Q464 760 507 745Q550 730 578 703.5Q606 677 620.5 641Q635 605 640.5 562Q646 519 644 471.5Q642 424 636 375Q627 301 609 232Q591 163 554.5 109Q518 55 459 22.5Q400 -10 308 -10ZM415 790Q275 790 284 900H335Q333 869 356 857Q379 845 422 845Q465 845 491.5 857Q518 869 523 900H574Q556 790 415 790Z" glyph-name="Obreve" horiz-adv-x="680" unicode="&#334;" /><glyph d="M316 53Q384 53 428 78Q472 103 499.5 146.5Q527 190 541 248.5Q555 307 564 375Q572 442 572 501Q572 560 555.5 603.5Q539 647 501 672Q463 697 395 697Q327 697 283 672Q239 647 212 603.5Q185 560 170.5 501Q156 442 148 375Q139 307 139 248.5Q139 190 155.5 146.5Q172 103 210 78Q248 53 316 53ZM308 -10Q216 -10 165 22.5Q114 55 91 109Q68 163 67.5 232Q67 301 76 375Q85 448 103 517.5Q121 587 157 641Q193 695 252 727.5Q311 760 403 760Q464 760 507 745Q550 730 578 703.5Q606 677 620.5 641Q635 605 640.5 562Q646 519 644 471.5Q642 424 636 375Q627 301 609 232Q591 163 554.5 109Q518 55 459 22.5Q400 -10 308 -10ZM507 800 415 856 309 800H253L380 900H460L563 800Z" glyph-name="Ocircumflex" horiz-adv-x="680" unicode="&#212;" /><glyph d="M316 53Q384 53 428 78Q472 103 499.5 146.5Q527 190 541 248.5Q555 307 564 375Q572 442 572 501Q572 560 555.5 603.5Q539 647 501 672Q463 697 395 697Q327 697 283 672Q239 647 212 603.5Q185 560 170.5 501Q156 442 148 375Q139 307 139 248.5Q139 190 155.5 146.5Q172 103 210 78Q248 53 316 53ZM308 -10Q216 -10 165 22.5Q114 55 91 109Q68 163 67.5 232Q67 301 76 375Q85 448 103 517.5Q121 587 157 641Q193 695 252 727.5Q311 760 403 760Q464 760 507 745Q550 730 578 703.5Q606 677 620.5 641Q635 605 640.5 562Q646 519 644 471.5Q642 424 636 375Q627 301 609 232Q591 163 554.5 109Q518 55 459 22.5Q400 -10 308 -10ZM459 850Q459 871 473.5 885.5Q488 900 509 900Q530 900 544.5 885.5Q559 871 559 850Q559 829 544.5 814.5Q530 800 509 800Q488 800 473.5 814.5Q459 829 459 850ZM269 850Q269 871 283.5 885.5Q298 900 319 900Q340 900 354.5 885.5Q369 871 369 850Q369 829 354.5 814.5Q340 800 319 800Q298 800 283.5 814.5Q269 829 269 850Z" glyph-name="Odieresis" horiz-adv-x="680" unicode="&#214;" /><glyph d="M316 53Q384 53 428 78Q472 103 499.5 146.5Q527 190 541 248.5Q555 307 564 375Q572 442 572 501Q572 560 555.5 603.5Q539 647 501 672Q463 697 395 697Q327 697 283 672Q239 647 212 603.5Q185 560 170.5 501Q156 442 148 375Q139 307 139 248.5Q139 190 155.5 146.5Q172 103 210 78Q248 53 316 53ZM308 -10Q216 -10 165 22.5Q114 55 91 109Q68 163 67.5 232Q67 301 76 375Q85 448 103 517.5Q121 587 157 641Q193 695 252 727.5Q311 760 403 760Q464 760 507 745Q550 730 578 703.5Q606 677 620.5 641Q635 605 640.5 562Q646 519 644 471.5Q642 424 636 375Q627 301 609 232Q591 163 554.5 109Q518 55 459 22.5Q400 -10 308 -10ZM383 800 305 900H395L433 800Z" glyph-name="Ograve" horiz-adv-x="680" unicode="&#210;" /><glyph d="M316 53Q384 53 428 78Q472 103 499.5 146.5Q527 190 541 248.5Q555 307 564 375Q572 442 572 501Q572 560 555.5 603.5Q539 647 501 672Q463 697 395 697Q327 697 283 672Q239 647 212 603.5Q185 560 170.5 501Q156 442 148 375Q139 307 139 248.5Q139 190 155.5 146.5Q172 103 210 78Q248 53 316 53ZM308 -10Q216 -10 165 22.5Q114 55 91 109Q68 163 67.5 232Q67 301 76 375Q85 448 103 517.5Q121 587 157 641Q193 695 252 727.5Q311 760 403 760Q464 760 507 745Q550 730 578 703.5Q606 677 620.5 641Q635 605 640.5 562Q646 519 644 471.5Q642 424 636 375Q627 301 609 232Q591 163 554.5 109Q518 55 459 22.5Q400 -10 308 -10ZM443 800 505 900H595L493 800ZM323 800 385 900H475L373 800Z" glyph-name="Ohungarumlaut" horiz-adv-x="680" unicode="&#336;" /><glyph d="M316 53Q384 53 428 78Q472 103 499.5 146.5Q527 190 541 248.5Q555 307 564 375Q572 442 572 501Q572 560 555.5 603.5Q539 647 501 672Q463 697 395 697Q327 697 283 672Q239 647 212 603.5Q185 560 170.5 501Q156 442 148 375Q139 307 139 248.5Q139 190 155.5 146.5Q172 103 210 78Q248 53 316 53ZM308 -10Q216 -10 165 22.5Q114 55 91 109Q68 163 67.5 232Q67 301 76 375Q85 448 103 517.5Q121 587 157 641Q193 695 252 727.5Q311 760 403 760Q464 760 507 745Q550 730 578 703.5Q606 677 620.5 641Q635 605 640.5 562Q646 519 644 471.5Q642 424 636 375Q627 301 609 232Q591 163 554.5 109Q518 55 459 22.5Q400 -10 308 -10ZM281 880H555L547 820H273Z" glyph-name="Omacron" horiz-adv-x="680" unicode="&#332;" /><glyph d="M308 -10Q250 -10 209.5 3Q169 16 141 39L113 0H50L107 78Q89 106 80 140Q71 174 68.5 212Q66 250 68.5 291.5Q71 333 76 375Q85 448 103 517.5Q121 587 157 641Q193 695 252 727.5Q311 760 403 760Q460 760 500.5 746.5Q541 733 570 710L599 750H662L604 671Q622 644 631 610Q640 576 642.5 537.5Q645 499 643 458Q641 417 636 375Q627 301 609 232Q591 163 554.5 109Q518 55 459 22.5Q400 -10 308 -10ZM316 53Q384 53 428 78Q472 103 499.5 146.5Q527 190 541 248.5Q555 307 564 375Q572 443 572 501.5Q572 560 555 604L185 98Q205 76 237 64.5Q269 53 316 53ZM148 375Q139 306 138.5 247.5Q138 189 155 145L526 651Q506 673 474 685Q442 697 395 697Q327 697 283 672Q239 647 212 603.5Q185 560 170.5 501Q156 442 148 375Z" glyph-name="Oslash" horiz-adv-x="660" unicode="&#216;" /><glyph d="M316 53Q384 53 428 78Q472 103 499.5 146.5Q527 190 541 248.5Q555 307 564 375Q572 442 572 501Q572 560 555.5 603.5Q539 647 501 672Q463 697 395 697Q327 697 283 672Q239 647 212 603.5Q185 560 170.5 501Q156 442 148 375Q139 307 139 248.5Q139 190 155.5 146.5Q172 103 210 78Q248 53 316 53ZM308 -10Q216 -10 165 22.5Q114 55 91 109Q68 163 67.5 232Q67 301 76 375Q85 448 103 517.5Q121 587 157 641Q193 695 252 727.5Q311 760 403 760Q464 760 507 745Q550 730 578 703.5Q606 677 620.5 641Q635 605 640.5 562Q646 519 644 471.5Q642 424 636 375Q627 301 609 232Q591 163 554.5 109Q518 55 459 22.5Q400 -10 308 -10ZM490 849Q507 849 517.5 854Q528 859 534 867Q540 875 542 883.5Q544 892 545 900H601Q598 847 565 818.5Q532 790 478 790Q451 790 433 799.5Q415 809 400 820.5Q385 832 371 841.5Q357 851 338 851Q321 851 310.5 846Q300 841 294 833Q288 825 286 816Q284 807 283 800H227Q229 853 262 881.5Q295 910 349 910Q376 910 394.5 900.5Q413 891 428 879.5Q443 868 457 858.5Q471 849 490 849Z" glyph-name="Otilde" horiz-adv-x="680" unicode="&#213;" /><glyph d="M113 0H45L137 750H366Q436 750 481.5 731.5Q527 713 552.5 681.5Q578 650 586 609.5Q594 569 589 525Q584 481 566 440.5Q548 400 514.5 368.5Q481 337 430.5 318.5Q380 300 310 300H149ZM157 363H327Q380 363 414.5 378Q449 393 470.5 417Q492 441 502 469.5Q512 498 515 525Q518 552 515.5 580.5Q513 609 497.5 633Q482 657 451 672Q420 687 367 687H197Z" glyph-name="P" horiz-adv-x="590" unicode="P" /><glyph d="M393 6 673 -52 664 -124 218 0Q158 16 125.5 52.5Q93 89 79 139Q65 189 66.5 249.5Q68 310 76 375Q86 455 104.5 525.5Q123 596 159.5 648Q196 700 254.5 730Q313 760 403 760Q494 760 545.5 730Q597 700 620.5 648Q644 596 645 525.5Q646 455 636 375Q627 305 613.5 243.5Q600 182 573.5 134Q547 86 503.5 53Q460 20 393 7ZM316 53Q384 53 428 78Q472 103 499.5 146.5Q527 190 541 248.5Q555 307 564 375Q572 442 572 501Q572 560 555.5 603.5Q539 647 501 672Q463 697 395 697Q327 697 283 672Q239 647 212 603.5Q185 560 170.5 501Q156 442 148 375Q139 307 139 248.5Q139 190 155.5 146.5Q172 103 210 78Q248 53 316 53Z" glyph-name="Q" horiz-adv-x="680" unicode="Q" /><glyph d="M113 0H45L137 750H372Q442 750 487.5 735Q533 720 558 692.5Q583 665 590 626Q597 587 591 539Q581 464 544.5 412Q508 360 428 340L566 0H487L359 329Q351 328 342.5 328Q334 328 326 328H153ZM161 391H346Q396 391 427.5 403Q459 415 477.5 435Q496 455 504.5 482Q513 509 517 539Q521 569 519 596Q517 623 503 643Q489 663 460.5 675Q432 687 382 687H197Z" glyph-name="R" horiz-adv-x="621" unicode="R" /><glyph d="M113 0H45L137 750H372Q442 750 487.5 735Q533 720 558 692.5Q583 665 590 626Q597 587 591 539Q581 464 544.5 412Q508 360 428 340L566 0H487L359 329Q351 328 342.5 328Q334 328 326 328H153ZM161 391H346Q396 391 427.5 403Q459 415 477.5 435Q496 455 504.5 482Q513 509 517 539Q521 569 519 596Q517 623 503 643Q489 663 460.5 675Q432 687 382 687H197ZM333 800 395 900H485L383 800Z" glyph-name="Racute" horiz-adv-x="621" unicode="&#340;" /><glyph d="M113 0H45L137 750H372Q442 750 487.5 735Q533 720 558 692.5Q583 665 590 626Q597 587 591 539Q581 464 544.5 412Q508 360 428 340L566 0H487L359 329Q351 328 342.5 328Q334 328 326 328H153ZM161 391H346Q396 391 427.5 403Q459 415 477.5 435Q496 455 504.5 482Q513 509 517 539Q521 569 519 596Q517 623 503 643Q489 663 460.5 675Q432 687 382 687H197ZM271 900 363 844 469 900H525L398 800H318L215 900Z" glyph-name="Rcaron" horiz-adv-x="621" unicode="&#344;" /><glyph d="M113 0H45L137 750H372Q442 750 487.5 735Q533 720 558 692.5Q583 665 590 626Q597 587 591 539Q581 464 544.5 412Q508 360 428 340L566 0H487L359 329Q351 328 342.5 328Q334 328 326 328H153ZM161 391H346Q396 391 427.5 403Q459 415 477.5 435Q496 455 504.5 482Q513 509 517 539Q521 569 519 596Q517 623 503 643Q489 663 460.5 675Q432 687 382 687H197ZM327 -50 235 -250H185L235 -50Z" glyph-name="Rcommaaccent" horiz-adv-x="621" unicode="&#342;" /><glyph d="M360 697Q304 697 267.5 685Q231 673 208.5 653Q186 633 175 606.5Q164 580 160 550Q155 510 164 486.5Q173 463 194 449.5Q215 436 247.5 430Q280 424 324 418Q378 411 420.5 399Q463 387 491 365Q519 343 531.5 307Q544 271 537 216Q532 178 515 138Q498 98 463 65Q428 32 372 11Q316 -10 232 -10Q206 -10 177 -6.5Q148 -3 120.5 2.5Q93 8 68.5 15Q44 22 27 30L35 95Q52 89 72 81.5Q92 74 116.5 68Q141 62 171.5 57.5Q202 53 241 53Q299 53 340 66Q381 79 407 101Q433 123 446.5 152.5Q460 182 464 216Q469 256 463 281.5Q457 307 439 322.5Q421 338 390 346Q359 354 313 360Q247 368 202 381Q157 394 130.5 415.5Q104 437 94.5 470Q85 503 91 551Q95 584 109.5 620.5Q124 657 155.5 688Q187 719 238.5 739.5Q290 760 369 760Q438 760 484.5 749.5Q531 739 560 725L551 658Q503 680 459.5 688.5Q416 697 360 697Z" glyph-name="S" horiz-adv-x="595" unicode="S" /><glyph d="M360 697Q304 697 267.5 685Q231 673 208.5 653Q186 633 175 606.5Q164 580 160 550Q155 510 164 486.5Q173 463 194 449.5Q215 436 247.5 430Q280 424 324 418Q378 411 420.5 399Q463 387 491 365Q519 343 531.5 307Q544 271 537 216Q532 178 515 138Q498 98 463 65Q428 32 372 11Q316 -10 232 -10Q206 -10 177 -6.5Q148 -3 120.5 2.5Q93 8 68.5 15Q44 22 27 30L35 95Q52 89 72 81.5Q92 74 116.5 68Q141 62 171.5 57.5Q202 53 241 53Q299 53 340 66Q381 79 407 101Q433 123 446.5 152.5Q460 182 464 216Q469 256 463 281.5Q457 307 439 322.5Q421 338 390 346Q359 354 313 360Q247 368 202 381Q157 394 130.5 415.5Q104 437 94.5 470Q85 503 91 551Q95 584 109.5 620.5Q124 657 155.5 688Q187 719 238.5 739.5Q290 760 369 760Q438 760 484.5 749.5Q531 739 560 725L551 658Q503 680 459.5 688.5Q416 697 360 697ZM349 800 411 900H501L399 800Z" glyph-name="Sacute" horiz-adv-x="595" unicode="&#346;" /><glyph d="M360 697Q304 697 267.5 685Q231 673 208.5 653Q186 633 175 606.5Q164 580 160 550Q155 510 164 486.5Q173 463 194 449.5Q215 436 247.5 430Q280 424 324 418Q378 411 420.5 399Q463 387 491 365Q519 343 531.5 307Q544 271 537 216Q532 178 515 138Q498 98 463 65Q428 32 372 11Q316 -10 232 -10Q206 -10 177 -6.5Q148 -3 120.5 2.5Q93 8 68.5 15Q44 22 27 30L35 95Q52 89 72 81.5Q92 74 116.5 68Q141 62 171.5 57.5Q202 53 241 53Q299 53 340 66Q381 79 407 101Q433 123 446.5 152.5Q460 182 464 216Q469 256 463 281.5Q457 307 439 322.5Q421 338 390 346Q359 354 313 360Q247 368 202 381Q157 394 130.5 415.5Q104 437 94.5 470Q85 503 91 551Q95 584 109.5 620.5Q124 657 155.5 688Q187 719 238.5 739.5Q290 760 369 760Q438 760 484.5 749.5Q531 739 560 725L551 658Q503 680 459.5 688.5Q416 697 360 697ZM601 1000 431 800H351L231 1000H286L398 859L546 1000Z" glyph-name="Scaron" horiz-adv-x="595" unicode="&#352;" /><glyph d="M360 697Q304 697 267.5 685Q231 673 208.5 653Q186 633 175 606.5Q164 580 160 550Q155 510 164 486.5Q173 463 194 449.5Q215 436 247.5 430Q280 424 324 418Q378 411 420.5 399Q463 387 491 365Q519 343 531.5 307Q544 271 537 216Q532 180 517 142Q502 104 471 72.5Q440 41 391 18.5Q342 -4 269 -8L267 -64Q281 -68 297 -75Q313 -82 325.5 -93Q338 -104 345.5 -121Q353 -138 350 -161Q345 -202 313 -226Q281 -250 228 -250Q187 -250 165.5 -243.5Q144 -237 136 -232L142 -186Q152 -190 164 -193Q175 -195 188 -197Q201 -199 217 -199Q248 -199 267 -190.5Q286 -182 288 -163Q290 -147 284 -136Q278 -125 267 -117.5Q256 -110 240 -106Q224 -102 207 -100L227 -10Q201 -10 173 -6.5Q145 -3 118 2.5Q91 8 67 15Q43 22 27 30L35 95Q52 89 72 81.5Q92 74 116.5 68Q141 62 171.5 57.5Q202 53 241 53Q299 53 340 66Q381 79 407 101Q433 123 446.5 152.5Q460 182 464 216Q469 256 463 281.5Q457 307 439 322.5Q421 338 390 346Q359 354 313 360Q247 368 202 381Q157 394 130.5 415.5Q104 437 94.5 470Q85 503 91 551Q95 584 109.5 620.5Q124 657 155.5 688Q187 719 238.5 739.5Q290 760 369 760Q438 760 484.5 749.5Q531 739 560 725L551 658Q503 680 459.5 688.5Q416 697 360 697Z" glyph-name="Scedilla" horiz-adv-x="595" unicode="&#350;" /><glyph d="M360 697Q304 697 267.5 685Q231 673 208.5 653Q186 633 175 606.5Q164 580 160 550Q155 510 164 486.5Q173 463 194 449.5Q215 436 247.5 430Q280 424 324 418Q378 411 420.5 399Q463 387 491 365Q519 343 531.5 307Q544 271 537 216Q532 178 515 138Q498 98 463 65Q428 32 372 11Q316 -10 232 -10Q206 -10 177 -6.5Q148 -3 120.5 2.5Q93 8 68.5 15Q44 22 27 30L35 95Q52 89 72 81.5Q92 74 116.5 68Q141 62 171.5 57.5Q202 53 241 53Q299 53 340 66Q381 79 407 101Q433 123 446.5 152.5Q460 182 464 216Q469 256 463 281.5Q457 307 439 322.5Q421 338 390 346Q359 354 313 360Q247 368 202 381Q157 394 130.5 415.5Q104 437 94.5 470Q85 503 91 551Q95 584 109.5 620.5Q124 657 155.5 688Q187 719 238.5 739.5Q290 760 369 760Q438 760 484.5 749.5Q531 739 560 725L551 658Q503 680 459.5 688.5Q416 697 360 697ZM473 800 381 856 275 800H219L346 900H426L529 800Z" glyph-name="Scircumflex" horiz-adv-x="595" unicode="&#348;" /><glyph d="M360 697Q304 697 267.5 685Q231 673 208.5 653Q186 633 175 606.5Q164 580 160 550Q155 510 164 486.5Q173 463 194 449.5Q215 436 247.5 430Q280 424 324 418Q378 411 420.5 399Q463 387 491 365Q519 343 531.5 307Q544 271 537 216Q532 178 515 138Q498 98 463 65Q428 32 372 11Q316 -10 232 -10Q206 -10 177 -6.5Q148 -3 120.5 2.5Q93 8 68.5 15Q44 22 27 30L35 95Q52 89 72 81.5Q92 74 116.5 68Q141 62 171.5 57.5Q202 53 241 53Q299 53 340 66Q381 79 407 101Q433 123 446.5 152.5Q460 182 464 216Q469 256 463 281.5Q457 307 439 322.5Q421 338 390 346Q359 354 313 360Q247 368 202 381Q157 394 130.5 415.5Q104 437 94.5 470Q85 503 91 551Q95 584 109.5 620.5Q124 657 155.5 688Q187 719 238.5 739.5Q290 760 369 760Q438 760 484.5 749.5Q531 739 560 725L551 658Q503 680 459.5 688.5Q416 697 360 697ZM287 -50 195 -250H145L195 -50Z" glyph-name="Scommaaccent" horiz-adv-x="595" unicode="&#536;" /><glyph d="M368 687 284 0H216L300 687H93L101 750H583L575 687Z" glyph-name="T" horiz-adv-x="560" unicode="T" /><glyph d="M284 0H216L260 360H135L142 421H267L300 687H93L101 750H583L575 687H368L335 421H460L453 360H328Z" glyph-name="Tbar" horiz-adv-x="560" unicode="&#358;" /><glyph d="M368 687 284 0H216L300 687H93L101 750H583L575 687ZM262 900 354 844 460 900H516L389 800H309L206 900Z" glyph-name="Tcaron" horiz-adv-x="560" unicode="&#356;" /><glyph d="M368 687 284 0H216L300 687H93L101 750H583L575 687ZM292 -50 200 -250H150L200 -50Z" glyph-name="Tcommaaccent" horiz-adv-x="560" unicode="&#354;" /><glyph d="M113 0H45L137 750H205L186 600H347Q417 600 463 581.5Q509 563 534.5 531.5Q560 500 568 459.5Q576 419 571 375Q565 331 547 290.5Q529 250 496 218.5Q463 187 412.5 168.5Q362 150 292 150H131ZM139 213H309Q362 213 396.5 228Q431 243 452.5 267Q474 291 484 319.5Q494 348 497 375Q500 402 497 430.5Q494 459 478.5 483Q463 507 432 522Q401 537 348 537H178Z" glyph-name="Thorn" horiz-adv-x="570" unicode="&#222;" /><glyph d="M311 53Q336 53 370.5 58Q405 63 438 82Q471 101 497.5 139.5Q524 178 532 246L594 750H662L598 235Q588 155 553.5 107Q519 59 474.5 33Q430 7 383.5 -1.5Q337 -10 303 -10Q269 -10 224.5 -1.5Q180 7 142 33Q104 59 81 107Q58 155 68 235L132 750H200L138 246Q130 178 146.5 139.5Q163 101 191 82Q219 63 252.5 58Q286 53 311 53Z" glyph-name="U" horiz-adv-x="670" unicode="U" /><glyph d="M311 53Q336 53 370.5 58Q405 63 438 82Q471 101 497.5 139.5Q524 178 532 246L594 750H662L598 235Q588 155 553.5 107Q519 59 474.5 33Q430 7 383.5 -1.5Q337 -10 303 -10Q269 -10 224.5 -1.5Q180 7 142 33Q104 59 81 107Q58 155 68 235L132 750H200L138 246Q130 178 146.5 139.5Q163 101 191 82Q219 63 252.5 58Q286 53 311 53ZM378 800 440 900H530L428 800Z" glyph-name="Uacute" horiz-adv-x="670" unicode="&#218;" /><glyph d="M311 53Q336 53 370.5 58Q405 63 438 82Q471 101 497.5 139.5Q524 178 532 246L594 750H662L598 235Q588 155 553.5 107Q519 59 474.5 33Q430 7 383.5 -1.5Q337 -10 303 -10Q269 -10 224.5 -1.5Q180 7 142 33Q104 59 81 107Q58 155 68 235L132 750H200L138 246Q130 178 146.5 139.5Q163 101 191 82Q219 63 252.5 58Q286 53 311 53ZM410 790Q270 790 279 900H330Q328 869 351 857Q374 845 417 845Q460 845 486.5 857Q513 869 518 900H569Q551 790 410 790Z" glyph-name="Ubreve" horiz-adv-x="670" unicode="&#364;" /><glyph d="M311 53Q336 53 370.5 58Q405 63 438 82Q471 101 497.5 139.5Q524 178 532 246L594 750H662L598 235Q588 155 553.5 107Q519 59 474.5 33Q430 7 383.5 -1.5Q337 -10 303 -10Q269 -10 224.5 -1.5Q180 7 142 33Q104 59 81 107Q58 155 68 235L132 750H200L138 246Q130 178 146.5 139.5Q163 101 191 82Q219 63 252.5 58Q286 53 311 53ZM502 800 410 856 304 800H248L375 900H455L558 800Z" glyph-name="Ucircumflex" horiz-adv-x="670" unicode="&#219;" /><glyph d="M311 53Q336 53 370.5 58Q405 63 438 82Q471 101 497.5 139.5Q524 178 532 246L594 750H662L598 235Q588 155 553.5 107Q519 59 474.5 33Q430 7 383.5 -1.5Q337 -10 303 -10Q269 -10 224.5 -1.5Q180 7 142 33Q104 59 81 107Q58 155 68 235L132 750H200L138 246Q130 178 146.5 139.5Q163 101 191 82Q219 63 252.5 58Q286 53 311 53ZM454 850Q454 871 468.5 885.5Q483 900 504 900Q525 900 539.5 885.5Q554 871 554 850Q554 829 539.5 814.5Q525 800 504 800Q483 800 468.5 814.5Q454 829 454 850ZM264 850Q264 871 278.5 885.5Q293 900 314 900Q335 900 349.5 885.5Q364 871 364 850Q364 829 349.5 814.5Q335 800 314 800Q293 800 278.5 814.5Q264 829 264 850Z" glyph-name="Udieresis" horiz-adv-x="670" unicode="&#220;" /><glyph d="M311 53Q336 53 370.5 58Q405 63 438 82Q471 101 497.5 139.5Q524 178 532 246L594 750H662L598 235Q588 155 553.5 107Q519 59 474.5 33Q430 7 383.5 -1.5Q337 -10 303 -10Q269 -10 224.5 -1.5Q180 7 142 33Q104 59 81 107Q58 155 68 235L132 750H200L138 246Q130 178 146.5 139.5Q163 101 191 82Q219 63 252.5 58Q286 53 311 53ZM378 800 300 900H390L428 800Z" glyph-name="Ugrave" horiz-adv-x="670" unicode="&#217;" /><glyph d="M311 53Q336 53 370.5 58Q405 63 438 82Q471 101 497.5 139.5Q524 178 532 246L594 750H662L598 235Q588 155 553.5 107Q519 59 474.5 33Q430 7 383.5 -1.5Q337 -10 303 -10Q269 -10 224.5 -1.5Q180 7 142 33Q104 59 81 107Q58 155 68 235L132 750H200L138 246Q130 178 146.5 139.5Q163 101 191 82Q219 63 252.5 58Q286 53 311 53ZM438 800 500 900H590L488 800ZM318 800 380 900H470L368 800Z" glyph-name="Uhungarumlaut" horiz-adv-x="670" unicode="&#368;" /><glyph d="M311 53Q336 53 370.5 58Q405 63 438 82Q471 101 497.5 139.5Q524 178 532 246L594 750H662L598 235Q588 155 553.5 107Q519 59 474.5 33Q430 7 383.5 -1.5Q337 -10 303 -10Q269 -10 224.5 -1.5Q180 7 142 33Q104 59 81 107Q58 155 68 235L132 750H200L138 246Q130 178 146.5 139.5Q163 101 191 82Q219 63 252.5 58Q286 53 311 53ZM276 880H550L542 820H268Z" glyph-name="Umacron" horiz-adv-x="670" unicode="&#362;" /><glyph d="M311 53Q336 53 370.5 58Q405 63 438 82Q471 101 497.5 139.5Q524 178 532 246L594 750H662L598 235Q591 176 570 135Q549 94 520 66.5Q491 39 457.5 23Q424 7 391 0Q338 -27 305 -65Q272 -103 267 -142Q264 -165 274.5 -182Q285 -199 314 -199Q331 -199 346 -196.5Q361 -194 372 -191L366 -239Q352 -244 334 -247Q316 -250 294 -250Q249 -250 224 -225Q199 -200 204 -155Q209 -115 232.5 -77.5Q256 -40 297 -10Q274 -9 246.5 -5.5Q219 -2 191.5 8Q164 18 139 35Q114 52 96 79Q78 106 70 144.5Q62 183 68 235L132 750H200L138 246Q130 178 146.5 139.5Q163 101 191 82Q219 63 252.5 58Q286 53 311 53Z" glyph-name="Uogonek" horiz-adv-x="670" unicode="&#370;" /><glyph d="M311 53Q336 53 370.5 58Q405 63 438 82Q471 101 497.5 139.5Q524 178 532 246L594 750H662L598 235Q588 155 553.5 107Q519 59 474.5 33Q430 7 383.5 -1.5Q337 -10 303 -10Q269 -10 224.5 -1.5Q180 7 142 33Q104 59 81 107Q58 155 68 235L132 750H200L138 246Q130 178 146.5 139.5Q163 101 191 82Q219 63 252.5 58Q286 53 311 53ZM409 828Q453 828 456 850Q459 872 415 872Q371 872 368 850Q365 828 409 828ZM421 921Q440 921 456.5 917.5Q473 914 485 906Q497 898 503 884.5Q509 871 506 850Q503 829 494 815.5Q485 802 471 794Q457 786 439.5 782.5Q422 779 403 779Q365 779 339 794Q313 809 318 850Q321 871 330 884.5Q339 898 353 906Q367 914 384.5 917.5Q402 921 421 921Z" glyph-name="Uring" horiz-adv-x="670" unicode="&#366;" /><glyph d="M311 53Q336 53 370.5 58Q405 63 438 82Q471 101 497.5 139.5Q524 178 532 246L594 750H662L598 235Q588 155 553.5 107Q519 59 474.5 33Q430 7 383.5 -1.5Q337 -10 303 -10Q269 -10 224.5 -1.5Q180 7 142 33Q104 59 81 107Q58 155 68 235L132 750H200L138 246Q130 178 146.5 139.5Q163 101 191 82Q219 63 252.5 58Q286 53 311 53ZM485 849Q502 849 512.5 854Q523 859 529 867Q535 875 537 883.5Q539 892 540 900H596Q593 847 560 818.5Q527 790 473 790Q446 790 428 799.5Q410 809 395 820.5Q380 832 366 841.5Q352 851 333 851Q316 851 305.5 846Q295 841 289 833Q283 825 281 816Q279 807 278 800H222Q224 853 257 881.5Q290 910 344 910Q371 910 389.5 900.5Q408 891 423 879.5Q438 868 452 858.5Q466 849 485 849Z" glyph-name="Utilde" horiz-adv-x="670" unicode="&#360;" /><glyph d="M672 750 313 -10H263L92 750H169L302 104L595 750Z" glyph-name="V" horiz-adv-x="640" unicode="V" /><glyph d="M540 750 628 96 840 750H912L654 -10H581L491 660L235 -10H162L92 750H164L214 96L464 750Z" glyph-name="W" horiz-adv-x="880" unicode="W" /><glyph d="M540 750 628 96 840 750H912L654 -10H581L491 660L235 -10H162L92 750H164L214 96L464 750ZM483 800 545 900H635L533 800Z" glyph-name="Wacute" horiz-adv-x="880" unicode="&#7810;" /><glyph d="M540 750 628 96 840 750H912L654 -10H581L491 660L235 -10H162L92 750H164L214 96L464 750ZM607 800 515 856 409 800H353L480 900H560L663 800Z" glyph-name="Wcircumflex" horiz-adv-x="880" unicode="&#372;" /><glyph d="M540 750 628 96 840 750H912L654 -10H581L491 660L235 -10H162L92 750H164L214 96L464 750ZM559 850Q559 871 573.5 885.5Q588 900 609 900Q630 900 644.5 885.5Q659 871 659 850Q659 829 644.5 814.5Q630 800 609 800Q588 800 573.5 814.5Q559 829 559 850ZM369 850Q369 871 383.5 885.5Q398 900 419 900Q440 900 454.5 885.5Q469 871 469 850Q469 829 454.5 814.5Q440 800 419 800Q398 800 383.5 814.5Q369 829 369 850Z" glyph-name="Wdieresis" horiz-adv-x="880" unicode="&#7812;" /><glyph d="M540 750 628 96 840 750H912L654 -10H581L491 660L235 -10H162L92 750H164L214 96L464 750ZM483 800 405 900H495L533 800Z" glyph-name="Wgrave" horiz-adv-x="880" unicode="&#7808;" /><glyph d="M562 750H647L361 380L560 0H472L311 334L68 0H-20L271 380L77 750H162L322 424Z" glyph-name="X" horiz-adv-x="630" unicode="X" /><glyph d="M377 310 339 0H271L309 310L92 750H167L349 365L627 750H702Z" glyph-name="Y" horiz-adv-x="670" unicode="Y" /><glyph d="M377 310 339 0H271L309 310L92 750H167L349 365L627 750H702ZM378 800 440 900H530L428 800Z" glyph-name="Yacute" horiz-adv-x="670" unicode="&#221;" /><glyph d="M377 310 339 0H271L309 310L92 750H167L349 365L627 750H702ZM502 800 410 856 304 800H248L375 900H455L558 800Z" glyph-name="Ycircumflex" horiz-adv-x="670" unicode="&#374;" /><glyph d="M377 310 339 0H271L309 310L92 750H167L349 365L627 750H702ZM454 850Q454 871 468.5 885.5Q483 900 504 900Q525 900 539.5 885.5Q554 871 554 850Q554 829 539.5 814.5Q525 800 504 800Q483 800 468.5 814.5Q454 829 454 850ZM264 850Q264 871 278.5 885.5Q293 900 314 900Q335 900 349.5 885.5Q364 871 364 850Q364 829 349.5 814.5Q335 800 314 800Q293 800 278.5 814.5Q264 829 264 850Z" glyph-name="Ydieresis" horiz-adv-x="670" unicode="&#376;" /><glyph d="M10 0 15 46 521 689 114 687 122 750H617L611 704L105 61L547 63L540 0Z" glyph-name="Z" horiz-adv-x="610" unicode="Z" /><glyph d="M10 0 15 46 521 689 114 687 122 750H617L611 704L105 61L547 63L540 0ZM348 800 410 900H500L398 800Z" glyph-name="Zacute" horiz-adv-x="610" unicode="&#377;" /><glyph d="M10 0 15 46 521 689 114 687 122 750H617L611 704L105 61L547 63L540 0ZM286 900 378 844 484 900H540L413 800H333L230 900Z" glyph-name="Zcaron" horiz-adv-x="610" unicode="&#142;" /><glyph d="M10 0 15 46 521 689 114 687 122 750H617L611 704L105 61L547 63L540 0ZM329 850Q329 871 343.5 885.5Q358 900 379 900Q400 900 414.5 885.5Q429 871 429 850Q429 829 414.5 814.5Q400 800 379 800Q358 800 343.5 814.5Q329 829 329 850Z" glyph-name="Zdotaccent" horiz-adv-x="610" unicode="&#379;" /><glyph d="M440 0H401L391 41Q348 16 308.5 3Q269 -10 228 -10Q168 -10 131 10.5Q94 31 75 66Q56 101 52.5 148.5Q49 196 55 250Q62 304 77 351.5Q92 399 120 434Q148 469 190 489.5Q232 510 292 510Q332 510 371 497Q410 484 442 458L462 500H501ZM236 52Q285 52 316.5 60Q348 68 380 84L421 416Q393 432 363.5 440Q334 448 285 448Q240 448 211 431Q182 414 164.5 386Q147 358 138 322.5Q129 287 125 250Q120 213 120 177.5Q120 142 131 114Q142 86 166.5 69Q191 52 236 52Z" glyph-name="a" horiz-adv-x="535" unicode="a" /><glyph d="M440 0H401L391 41Q348 16 308.5 3Q269 -10 228 -10Q168 -10 131 10.5Q94 31 75 66Q56 101 52.5 148.5Q49 196 55 250Q62 304 77 351.5Q92 399 120 434Q148 469 190 489.5Q232 510 292 510Q332 510 371 497Q410 484 442 458L462 500H501ZM236 52Q285 52 316.5 60Q348 68 380 84L421 416Q393 432 363.5 440Q334 448 285 448Q240 448 211 431Q182 414 164.5 386Q147 358 138 322.5Q129 287 125 250Q120 213 120 177.5Q120 142 131 114Q142 86 166.5 69Q191 52 236 52ZM278 550 353 750H433L328 550Z" glyph-name="aacute" horiz-adv-x="535" unicode="&#225;" /><glyph d="M440 0H401L391 41Q348 16 308.5 3Q269 -10 228 -10Q168 -10 131 10.5Q94 31 75 66Q56 101 52.5 148.5Q49 196 55 250Q62 304 77 351.5Q92 399 120 434Q148 469 190 489.5Q232 510 292 510Q332 510 371 497Q410 484 442 458L462 500H501ZM236 52Q285 52 316.5 60Q348 68 380 84L421 416Q393 432 363.5 440Q334 448 285 448Q240 448 211 431Q182 414 164.5 386Q147 358 138 322.5Q129 287 125 250Q120 213 120 177.5Q120 142 131 114Q142 86 166.5 69Q191 52 236 52ZM303 550Q132 550 153 750H204Q200 716 202.5 690Q205 664 217 646Q229 628 251.5 619Q274 610 310 610Q346 610 371 619Q396 628 412 646Q428 664 437.5 690Q447 716 452 750H503Q473 550 303 550Z" glyph-name="abreve" horiz-adv-x="535" unicode="&#259;" /><glyph d="M440 0H401L391 41Q348 16 308.5 3Q269 -10 228 -10Q168 -10 131 10.5Q94 31 75 66Q56 101 52.5 148.5Q49 196 55 250Q62 304 77 351.5Q92 399 120 434Q148 469 190 489.5Q232 510 292 510Q332 510 371 497Q410 484 442 458L462 500H501ZM236 52Q285 52 316.5 60Q348 68 380 84L421 416Q393 432 363.5 440Q334 448 285 448Q240 448 211 431Q182 414 164.5 386Q147 358 138 322.5Q129 287 125 250Q120 213 120 177.5Q120 142 131 114Q142 86 166.5 69Q191 52 236 52ZM433 550 320 691 173 550H118L288 750H368L488 550Z" glyph-name="acircumflex" horiz-adv-x="535" unicode="&#226;" /><glyph d="M297 550 372 750H452L347 550Z" glyph-name="acute" horiz-adv-x="570" unicode="&#180;" /><glyph d="M328 800 390 900H480L378 800Z" glyph-name="acute.cap" horiz-adv-x="570" unicode="&#58402;" /><glyph d="M440 0H401L391 41Q348 16 308.5 3Q269 -10 228 -10Q168 -10 131 10.5Q94 31 75 66Q56 101 52.5 148.5Q49 196 55 250Q62 304 77 351.5Q92 399 120 434Q148 469 190 489.5Q232 510 292 510Q332 510 371 497Q410 484 442 458L462 500H501ZM236 52Q285 52 316.5 60Q348 68 380 84L421 416Q393 432 363.5 440Q334 448 285 448Q240 448 211 431Q182 414 164.5 386Q147 358 138 322.5Q129 287 125 250Q120 213 120 177.5Q120 142 131 114Q142 86 166.5 69Q191 52 236 52ZM170 650Q170 671 184.5 685.5Q199 700 220 700Q241 700 255.5 685.5Q270 671 270 650Q270 629 255.5 614.5Q241 600 220 600Q199 600 184.5 614.5Q170 629 170 650ZM360 650Q360 671 374.5 685.5Q389 700 410 700Q431 700 445.5 685.5Q460 671 460 650Q460 629 445.5 614.5Q431 600 410 600Q389 600 374.5 614.5Q360 629 360 650Z" glyph-name="adieresis" horiz-adv-x="535" unicode="&#228;" /><glyph d="M226 224Q194 224 172.5 218Q151 212 137.5 201Q124 190 117 174.5Q110 159 108 141Q106 124 109 108Q112 92 123.5 79.5Q135 67 157.5 59.5Q180 52 217 52Q259 52 298 64.5Q337 77 363 97L382 112Q377 137 376 164.5Q375 192 377 223V224ZM593 275Q630 275 654.5 281.5Q679 288 693.5 300Q708 312 715 328Q722 344 724 362Q726 380 723.5 396Q721 412 709 423.5Q697 435 674.5 441.5Q652 448 615 448Q571 448 542.5 433.5Q514 419 496 395Q478 371 468 340Q458 309 453 275ZM558 -10Q498 -10 461 8Q424 26 404 58L370 34Q333 9 289 -0.5Q245 -10 207 -10Q156 -10 121.5 1.5Q87 13 67 33.5Q47 54 40 81.5Q33 109 37 141Q40 170 51 195.5Q62 221 85 240Q108 259 145 270Q182 281 238 281H384L392 343Q399 398 372.5 423Q346 448 274 448Q222 448 182.5 440.5Q143 433 112 423L120 483Q155 497 199.5 503.5Q244 510 281 510Q353 510 393 491.5Q433 473 450 441Q478 473 519.5 491.5Q561 510 622 510Q675 510 709 497Q743 484 762 463Q781 442 787 415.5Q793 389 790 362Q787 335 774.5 309.5Q762 284 737.5 263.5Q713 243 676 230.5Q639 218 586 218H446Q444 185 446.5 155Q449 125 461.5 102Q474 79 499 65.5Q524 52 566 52Q620 52 658 58Q696 64 734 80L727 20Q682 1 638.5 -4.5Q595 -10 558 -10Z" glyph-name="ae" horiz-adv-x="835" unicode="&#230;" /><glyph d="M440 0H401L391 41Q348 16 308.5 3Q269 -10 228 -10Q168 -10 131 10.5Q94 31 75 66Q56 101 52.5 148.5Q49 196 55 250Q62 304 77 351.5Q92 399 120 434Q148 469 190 489.5Q232 510 292 510Q332 510 371 497Q410 484 442 458L462 500H501ZM236 52Q285 52 316.5 60Q348 68 380 84L421 416Q393 432 363.5 440Q334 448 285 448Q240 448 211 431Q182 414 164.5 386Q147 358 138 322.5Q129 287 125 250Q120 213 120 177.5Q120 142 131 114Q142 86 166.5 69Q191 52 236 52ZM278 550 223 750H303L328 550Z" glyph-name="agrave" horiz-adv-x="535" unicode="&#224;" /><glyph d="M440 0H401L391 41Q348 16 308.5 3Q269 -10 228 -10Q168 -10 131 10.5Q94 31 75 66Q56 101 52.5 148.5Q49 196 55 250Q62 304 77 351.5Q92 399 120 434Q148 469 190 489.5Q232 510 292 510Q332 510 371 497Q410 484 442 458L462 500H501ZM236 52Q285 52 316.5 60Q348 68 380 84L421 416Q393 432 363.5 440Q334 448 285 448Q240 448 211 431Q182 414 164.5 386Q147 358 138 322.5Q129 287 125 250Q120 213 120 177.5Q120 142 131 114Q142 86 166.5 69Q191 52 236 52ZM182 680H456L449 620H175Z" glyph-name="amacron" horiz-adv-x="535" unicode="&#257;" /><glyph d="M738 308H636Q639 291 640 273Q641 255 639 235Q632 181 608 135.5Q584 90 543.5 58Q503 26 447 8Q391 -10 319 -10Q248 -10 193.5 11Q139 32 103.5 72Q68 112 53 169.5Q38 227 47 300Q56 373 85 430.5Q114 488 159.5 528Q205 568 264.5 589Q324 610 395 610Q424 610 450 607Q464 645 472 681Q480 717 484 750H554Q544 666 512.5 579Q481 492 428 414.5Q375 337 299 277Q223 217 123 187Q141 121 193.5 86.5Q246 52 327 52Q428 52 492 95.5Q556 139 567 235Q570 256 568 274Q566 292 562 308H456L465 374H747ZM115 252Q174 270 222.5 300.5Q271 331 309.5 370Q348 409 377 454Q406 499 427 546Q417 547 407.5 547.5Q398 548 387 548Q277 548 205.5 484.5Q134 421 119 300Q117 287 116 275Q115 263 115 252Z" glyph-name="ampersand" horiz-adv-x="757" unicode="&amp;" /><glyph d="M440 0Q387 -27 354 -65Q321 -103 316 -142Q313 -165 323.5 -182Q334 -199 363 -199Q380 -199 395 -196.5Q410 -194 421 -191L415 -239Q401 -244 383 -247Q365 -250 343 -250Q298 -250 273 -225Q248 -200 253 -155Q260 -104 296 -57.5Q332 -11 395 21L391 41Q348 16 308.5 3Q269 -10 228 -10Q168 -10 131 10.5Q94 31 75 66Q56 101 52.5 148.5Q49 196 55 250Q62 304 77 351.5Q92 399 120 434Q148 469 190 489.5Q232 510 292 510Q332 510 371 497Q410 484 442 458L462 500H501ZM236 52Q285 52 316.5 60Q348 68 380 84L421 416Q393 432 363.5 440Q334 448 285 448Q240 448 211 431Q182 414 164.5 386Q147 358 138 322.5Q129 287 125 250Q120 213 120 177.5Q120 142 131 114Q142 86 166.5 69Q191 52 236 52Z" glyph-name="aogonek" horiz-adv-x="535" unicode="&#261;" /><glyph d="M361 400Q380 400 397 404.5Q414 409 428.5 415Q443 421 453 428Q463 435 469 440L461 375Q447 363 418.5 352Q390 341 355 341Q317 341 294 352.5Q271 364 252.5 377.5Q234 391 215.5 402.5Q197 414 168 414Q149 414 132 409.5Q115 405 100.5 399Q86 393 76 386Q66 379 60 374L68 439Q82 451 110.5 462Q139 473 174 473Q212 473 235 461.5Q258 450 276.5 436.5Q295 423 313.5 411.5Q332 400 361 400ZM344 268Q363 268 380.5 272.5Q398 277 412 283Q426 289 436.5 296Q447 303 452 308L444 243Q430 231 402 220Q374 209 339 209Q301 209 278 220.5Q255 232 236.5 245.5Q218 259 199.5 270.5Q181 282 152 282Q133 282 116 277.5Q99 273 84.5 267Q70 261 60 254Q50 247 44 242L52 307Q66 319 94 330Q122 341 157 341Q195 341 218 329.5Q241 318 259.5 304.5Q278 291 296.5 279.5Q315 268 344 268Z" glyph-name="approxequal" horiz-adv-x="490" unicode="&#8776;" /><glyph d="M440 0H401L391 41Q348 16 308.5 3Q269 -10 228 -10Q168 -10 131 10.5Q94 31 75 66Q56 101 52.5 148.5Q49 196 55 250Q62 304 77 351.5Q92 399 120 434Q148 469 190 489.5Q232 510 292 510Q332 510 371 497Q410 484 442 458L462 500H501ZM236 52Q285 52 316.5 60Q348 68 380 84L421 416Q393 432 363.5 440Q334 448 285 448Q240 448 211 431Q182 414 164.5 386Q147 358 138 322.5Q129 287 125 250Q120 213 120 177.5Q120 142 131 114Q142 86 166.5 69Q191 52 236 52ZM322 702Q299 702 282 690Q265 678 261 650Q258 622 272 610Q286 598 309 598Q332 598 349 610Q366 622 369 650Q373 678 359 690Q345 702 322 702ZM303 549Q258 549 231.5 573.5Q205 598 211 650Q218 702 250.5 726.5Q283 751 328 751Q373 751 399.5 726.5Q426 702 419 650Q413 598 380.5 573.5Q348 549 303 549Z" glyph-name="aring" horiz-adv-x="535" unicode="&#229;" /><glyph d="M30 375 310 760H376L562 375H489L334 686L103 375Z" glyph-name="asciicircum" horiz-adv-x="560" unicode="^" /><glyph d="M353 334Q372 334 389 338.5Q406 343 420 349Q434 355 444.5 362Q455 369 460 374L452 309Q438 297 410 286Q382 275 347 275Q309 275 286 286.5Q263 298 244.5 311.5Q226 325 207.5 336.5Q189 348 160 348Q141 348 124 343.5Q107 339 92.5 333Q78 327 68 320Q58 313 52 308L60 373Q74 385 102 396Q130 407 165 407Q203 407 226.5 395.5Q250 384 268 370.5Q286 357 305 345.5Q324 334 353 334Z" glyph-name="asciitilde" horiz-adv-x="490" unicode="~" /><glyph d="M254 550 340 445 272 402 219 528ZM205 528 122 400 66 446 176 550ZM203 609 201 750H279L241 609ZM253 601 390 662 403 588 260 564ZM174 564 36 588 69 661 189 601Z" glyph-name="asterisk" horiz-adv-x="355" unicode="*" /><glyph d="M40 250Q65 451 180 543Q295 635 487 635Q680 635 768.5 553.5Q857 472 837 308Q832 270 819 225Q806 180 777.5 141Q749 102 702 76Q655 50 583 50H544L533 87Q495 61 459.5 50.5Q424 40 391 40Q353 40 321.5 52.5Q290 65 268 91Q246 117 236 156.5Q226 196 232 250Q239 304 258.5 343.5Q278 383 306.5 409Q335 435 370 447.5Q405 460 443 460Q475 460 508 449.5Q541 439 573 413L593 450H632L590 107Q635 107 666.5 120Q698 133 720 159.5Q742 186 755 224.5Q768 263 774 313Q783 384 769.5 434Q756 484 719.5 515.5Q683 547 623.5 561.5Q564 576 480 576Q396 576 332 558Q268 540 222 500.5Q176 461 148 399Q120 337 109 250Q98 163 111 101Q124 39 160.5 -0.5Q197 -40 256.5 -58Q316 -76 400 -76Q468 -76 538.5 -65Q609 -54 660 -34L654 -96Q603 -113 533.5 -124Q464 -135 393 -135Q297 -135 225 -112.5Q153 -90 108 -43Q63 4 45.5 76.5Q28 149 40 250ZM409 102Q438 102 464.5 110Q491 118 523 134L551 366Q524 382 499 390Q474 398 445 398Q379 398 345 361.5Q311 325 302 250Q293 175 318 138.5Q343 102 409 102Z" glyph-name="at" horiz-adv-x="870" unicode="@" /><glyph d="M440 0H401L391 41Q348 16 308.5 3Q269 -10 228 -10Q168 -10 131 10.5Q94 31 75 66Q56 101 52.5 148.5Q49 196 55 250Q62 304 77 351.5Q92 399 120 434Q148 469 190 489.5Q232 510 292 510Q332 510 371 497Q410 484 442 458L462 500H501ZM236 52Q285 52 316.5 60Q348 68 380 84L421 416Q393 432 363.5 440Q334 448 285 448Q240 448 211 431Q182 414 164.5 386Q147 358 138 322.5Q129 287 125 250Q120 213 120 177.5Q120 142 131 114Q142 86 166.5 69Q191 52 236 52ZM391 644Q408 644 418 649Q428 654 434 662Q440 670 442.5 678.5Q445 687 446 695H502Q499 642 466 613.5Q433 585 379 585Q348 585 330.5 596Q313 607 299.5 620.5Q286 634 273.5 645Q261 656 240 656Q223 656 212.5 651Q202 646 196 638Q190 630 188 621Q186 612 185 605H129Q131 658 164 686.5Q197 715 251 715Q282 715 300 704Q318 693 331.5 679.5Q345 666 357.5 655Q370 644 391 644Z" glyph-name="atilde" horiz-adv-x="535" unicode="&#227;" /><glyph d="M307 510Q367 510 404.5 489.5Q442 469 461 434Q480 399 483.5 351.5Q487 304 480 250Q474 196 458.5 148.5Q443 101 415.5 66Q388 31 345.5 10.5Q303 -10 243 -10Q202 -10 165.5 3Q129 16 94 41L74 0H35L127 750H197L162 469Q197 490 234.5 500Q272 510 307 510ZM300 448Q251 448 219 440Q187 432 156 416L115 84Q142 68 172 60Q202 52 251 52Q296 52 325 69Q354 86 371 114Q388 142 396.5 177.5Q405 213 410 250Q414 287 414.5 322.5Q415 358 404.5 386Q394 414 369.5 431Q345 448 300 448Z" glyph-name="b" horiz-adv-x="535" unicode="b" /><glyph d="M276 -206 55 816H128L349 -206Z" glyph-name="backslash" horiz-adv-x="390" unicode="\" /><glyph d="M31 -206 157 816H228L102 -206Z" glyph-name="bar" horiz-adv-x="245" unicode="|" /><glyph d="M39 338Q83 338 86 377L108 707Q113 765 147.5 790.5Q182 816 235 816H250L242 750H227Q183 750 180 711L157 381Q155 358 144.5 338.5Q134 319 118 305Q145 275 139 229L80 -101Q77 -120 85.5 -130Q94 -140 117 -140H132L124 -206H109Q83 -206 62 -200Q41 -194 28 -180.5Q15 -167 10 -146.5Q5 -126 10 -97L68 233Q74 269 36 272H21L29 338Z" glyph-name="braceleft" horiz-adv-x="210" unicode="{" /><glyph d="M203 338 195 272H180Q141 269 138 233L116 -97Q111 -155 76.5 -180.5Q42 -206 -11 -206H-26L-18 -140H-3Q41 -140 44 -101L67 229Q69 252 81 273Q93 294 109 305Q96 316 88.5 337Q81 358 85 381L144 711Q147 730 138.5 740Q130 750 107 750H92L100 816H115Q141 816 162 810Q183 804 196 790.5Q209 777 214 756.5Q219 736 214 707L156 377Q153 357 161.5 347.5Q170 338 193 338Z" glyph-name="braceright" horiz-adv-x="210" unicode="}" /><glyph d="M88 -140H152L144 -206H9L135 816H270L262 750H198Z" glyph-name="bracketleft" horiz-adv-x="230" unicode="[" /><glyph d="M156 750H92L100 816H235L109 -206H-26L-18 -140H46Z" glyph-name="bracketright" horiz-adv-x="230" unicode="]" /><glyph d="M322 550Q151 550 172 750H223Q219 716 221.5 690Q224 664 236 646Q248 628 270.5 619Q293 610 329 610Q365 610 390 619Q415 628 431 646Q447 664 456.5 690Q466 716 471 750H522Q492 550 322 550Z" glyph-name="breve" horiz-adv-x="570" unicode="&#728;" /><glyph d="M351 790Q211 790 220 900H271Q269 869 292 857Q315 845 358 845Q401 845 427.5 857Q454 869 459 900H510Q492 790 351 790Z" glyph-name="breve.cap" horiz-adv-x="570" unicode="&#58406;" /><glyph d="M66 375Q66 403 76.5 427.5Q87 452 105.5 470.5Q124 489 148.5 499.5Q173 510 201 510Q229 510 253.5 499.5Q278 489 296.5 470.5Q315 452 325.5 427.5Q336 403 336 375Q336 347 325.5 322.5Q315 298 296.5 279.5Q278 261 253.5 250.5Q229 240 201 240Q173 240 148.5 250.5Q124 261 105.5 279.5Q87 298 76.5 322.5Q66 347 66 375Z" glyph-name="bullet" horiz-adv-x="370" unicode="&#8226;" /><glyph d="M55 250Q62 304 77 351.5Q92 399 120 434Q148 469 191.5 489.5Q235 510 298 510Q335 510 373.5 504.5Q412 499 444 485L437 425Q423 430 408 434Q393 438 376 441Q359 444 338 446Q317 448 290 448Q243 448 213 431Q183 414 165 386Q147 358 138 322.5Q129 287 125 250Q120 213 120 177.5Q120 142 131 114Q142 86 168 69Q194 52 241 52Q294 52 328.5 58.5Q363 65 394 75L386 15Q351 1 311 -4.5Q271 -10 234 -10Q171 -10 132.5 10.5Q94 31 74.5 66Q55 101 52 148.5Q49 196 55 250Z" glyph-name="c" horiz-adv-x="460" unicode="c" /><glyph d="M55 250Q62 304 77 351.5Q92 399 120 434Q148 469 191.5 489.5Q235 510 298 510Q335 510 373.5 504.5Q412 499 444 485L437 425Q423 430 408 434Q393 438 376 441Q359 444 338 446Q317 448 290 448Q243 448 213 431Q183 414 165 386Q147 358 138 322.5Q129 287 125 250Q120 213 120 177.5Q120 142 131 114Q142 86 168 69Q194 52 241 52Q294 52 328.5 58.5Q363 65 394 75L386 15Q351 1 311 -4.5Q271 -10 234 -10Q171 -10 132.5 10.5Q94 31 74.5 66Q55 101 52 148.5Q49 196 55 250ZM279 550 354 750H434L329 550Z" glyph-name="cacute" horiz-adv-x="460" unicode="&#263;" /><glyph d="M532 750 362 550H282L162 750H217L329 609L477 750Z" glyph-name="caron" horiz-adv-x="570" unicode="&#711;" /><glyph d="M266 900 358 844 464 900H520L393 800H313L210 900Z" glyph-name="caron.cap" horiz-adv-x="570" unicode="&#58413;" /><glyph d="M491 750 418 550H372L413 750Z" glyph-name="caronSlovak" horiz-adv-x="570" unicode="&#58387;" /><glyph d="M55 250Q62 304 77 351.5Q92 399 120 434Q148 469 191.5 489.5Q235 510 298 510Q335 510 373.5 504.5Q412 499 444 485L437 425Q423 430 408 434Q393 438 376 441Q359 444 338 446Q317 448 290 448Q243 448 213 431Q183 414 165 386Q147 358 138 322.5Q129 287 125 250Q120 213 120 177.5Q120 142 131 114Q142 86 168 69Q194 52 241 52Q294 52 328.5 58.5Q363 65 394 75L386 15Q351 1 311 -4.5Q271 -10 234 -10Q171 -10 132.5 10.5Q94 31 74.5 66Q55 101 52 148.5Q49 196 55 250ZM514 750 344 550H264L144 750H199L311 609L459 750Z" glyph-name="ccaron" horiz-adv-x="460" unicode="&#269;" /><glyph d="M55 250Q62 304 77 351.5Q92 399 120 434Q148 469 191.5 489.5Q235 510 298 510Q335 510 373.5 504.5Q412 499 444 485L437 425Q423 430 408 434Q393 438 376 441Q359 444 338 446Q317 448 290 448Q243 448 213 431Q183 414 165 386Q147 358 138 322.5Q129 287 125 250Q120 213 120 177.5Q120 142 131 114Q142 86 168 69Q194 52 241 52Q294 52 328.5 58.5Q363 65 394 75L386 15Q354 2 317 -3.5Q280 -9 245 -10L243 -64Q257 -68 273 -75Q289 -82 301.5 -93Q314 -104 321.5 -121Q329 -138 326 -161Q321 -202 289 -226Q257 -250 204 -250Q163 -250 141.5 -243.5Q120 -237 112 -232L118 -186Q128 -190 140 -193Q151 -195 164 -197Q177 -199 193 -199Q224 -199 243 -190.5Q262 -182 264 -163Q266 -147 260 -136Q254 -125 243 -117.5Q232 -110 216 -106Q200 -102 183 -100L204 -8Q151 -3 118.5 19Q86 41 70 75.5Q54 110 51.5 154.5Q49 199 55 250Z" glyph-name="ccedilla" horiz-adv-x="460" unicode="&#231;" /><glyph d="M55 250Q62 304 77 351.5Q92 399 120 434Q148 469 191.5 489.5Q235 510 298 510Q335 510 373.5 504.5Q412 499 444 485L437 425Q423 430 408 434Q393 438 376 441Q359 444 338 446Q317 448 290 448Q243 448 213 431Q183 414 165 386Q147 358 138 322.5Q129 287 125 250Q120 213 120 177.5Q120 142 131 114Q142 86 168 69Q194 52 241 52Q294 52 328.5 58.5Q363 65 394 75L386 15Q351 1 311 -4.5Q271 -10 234 -10Q171 -10 132.5 10.5Q94 31 74.5 66Q55 101 52 148.5Q49 196 55 250ZM434 550 321 691 174 550H119L289 750H369L489 550Z" glyph-name="ccircumflex" horiz-adv-x="460" unicode="&#265;" /><glyph d="M55 250Q62 304 77 351.5Q92 399 120 434Q148 469 191.5 489.5Q235 510 298 510Q335 510 373.5 504.5Q412 499 444 485L437 425Q423 430 408 434Q393 438 376 441Q359 444 338 446Q317 448 290 448Q243 448 213 431Q183 414 165 386Q147 358 138 322.5Q129 287 125 250Q120 213 120 177.5Q120 142 131 114Q142 86 168 69Q194 52 241 52Q294 52 328.5 58.5Q363 65 394 75L386 15Q351 1 311 -4.5Q271 -10 234 -10Q171 -10 132.5 10.5Q94 31 74.5 66Q55 101 52 148.5Q49 196 55 250ZM266 650Q266 671 280.5 685.5Q295 700 316 700Q337 700 351.5 685.5Q366 671 366 650Q366 629 351.5 614.5Q337 600 316 600Q295 600 280.5 614.5Q266 629 266 650Z" glyph-name="cdotaccent" horiz-adv-x="460" unicode="&#267;" /><glyph d="M275 0 272 -64Q286 -68 302 -75Q318 -82 330.5 -93Q343 -104 350.5 -121Q358 -138 355 -161Q350 -202 318 -226Q286 -250 233 -250Q192 -250 170.5 -243.5Q149 -237 141 -232L147 -186Q157 -190 169 -193Q180 -195 193 -197Q206 -199 222 -199Q253 -199 272 -190.5Q291 -182 293 -163Q295 -147 289 -136Q283 -125 272 -117.5Q261 -110 245 -106Q229 -102 212 -100L235 0Z" glyph-name="cedilla" horiz-adv-x="570" unicode="&#184;" /><glyph d="M446 630Q472 626 498 619.5Q524 613 544 605L536 545Q508 555 466 564Q424 573 370 573Q323 573 283.5 560Q244 547 214 521.5Q184 496 165.5 459Q147 422 141 375Q129 280 177.5 228.5Q226 177 321 177Q375 177 419.5 186Q464 195 495 205L487 145Q470 138 447.5 132.5Q425 127 402 123Q379 119 356 117Q333 115 315 115Q307 115 299 115Q291 115 283 116L230 0H155L218 126Q137 149 97.5 211Q58 273 71 375Q78 439 103.5 487.5Q129 536 168.5 569Q208 602 261.5 618.5Q315 635 378 635L432 750H507L446 630Z" glyph-name="cent" horiz-adv-x="600" unicode="&#162;" /><glyph d="M452 550 339 691 192 550H137L307 750H387L507 550Z" glyph-name="circumflex" horiz-adv-x="570" unicode="&#710;" /><glyph d="M452 800 360 856 254 800H198L325 900H405L508 800Z" glyph-name="circumflex.cap" horiz-adv-x="570" unicode="&#58403;" /><glyph d="M19 40Q19 61 33.5 75.5Q48 90 69 90Q90 90 104.5 75.5Q119 61 119 40Q119 19 104.5 4.5Q90 -10 69 -10Q48 -10 33.5 4.5Q19 19 19 40ZM61 375Q61 396 75.5 410.5Q90 425 111 425Q132 425 146.5 410.5Q161 396 161 375Q161 354 146.5 339.5Q132 325 111 325Q90 325 75.5 339.5Q61 354 61 375Z" glyph-name="colon" horiz-adv-x="190" unicode=":" /><glyph d="M118 66 29 -125H-21L28 66Z" glyph-name="comma" horiz-adv-x="190" unicode="," /><glyph d="M295 -50 215 -250H165L215 -50Z" glyph-name="commaaccent" horiz-adv-x="570" unicode="&#58388;" /><glyph d="M356 -50 264 -250H214L264 -50Z" glyph-name="commaaccent.cap" horiz-adv-x="570" /><glyph d="M363 52Q423 52 473 69Q523 86 561 119.5Q599 153 623.5 201.5Q648 250 656 313Q663 375 651 423.5Q639 472 609 505Q579 538 533 555.5Q487 573 427 573Q367 573 317 555.5Q267 538 228.5 505Q190 472 165.5 423.5Q141 375 134 313Q126 250 138.5 201.5Q151 153 181 119.5Q211 86 257 69Q303 52 363 52ZM355 -10Q286 -10 228.5 11.5Q171 33 131 74Q91 115 72.5 175Q54 235 63 313Q72 391 105.5 451Q139 511 189 552Q239 593 302 614Q365 635 434 635Q503 635 560.5 614Q618 593 658.5 552Q699 511 717.5 451Q736 391 727 313Q718 235 684 175Q650 115 600 74Q550 33 487 11.5Q424 -10 355 -10ZM204 313Q211 367 232 404.5Q253 442 282.5 466Q312 490 348 500.5Q384 511 420 511Q457 511 486 506.5Q515 502 546 488L539 428Q525 433 513.5 437Q502 441 488.5 443.5Q475 446 457 447.5Q439 449 412 449Q387 449 364 441.5Q341 434 322.5 418Q304 402 291 376Q278 350 274 313Q269 276 275.5 250Q282 224 296.5 207.5Q311 191 332 183.5Q353 176 378 176Q405 176 423 177.5Q441 179 455.5 181.5Q470 184 483 188Q496 192 511 197L503 137Q468 123 438 118.5Q408 114 371 114Q334 114 300.5 125Q267 136 243.5 159.5Q220 183 208.5 221Q197 259 204 313Z" glyph-name="copyright" horiz-adv-x="774" unicode="&#169;" /><glyph d="M292 510Q327 510 362.5 500Q398 490 427 469L462 750H532L440 0H401L391 41Q348 16 308.5 3Q269 -10 228 -10Q168 -10 131 10.5Q94 31 75 66Q56 101 52.5 148.5Q49 196 55 250Q62 304 77 351.5Q92 399 120 434Q148 469 190 489.5Q232 510 292 510ZM285 448Q240 448 211 431Q182 414 164.5 386Q147 358 138 322.5Q129 287 125 250Q120 213 120 177.5Q120 142 131 114Q142 86 166.5 69Q191 52 236 52Q285 52 316.5 60Q348 68 380 84L421 416Q393 432 363.5 440Q334 448 285 448Z" glyph-name="d" horiz-adv-x="535" unicode="d" /><glyph d="M236 551V301H136L198 551ZM205 609 203 750H281L243 609ZM189 561 46 541 56 619 194 599ZM252 599 396 619 386 541 247 561Z" glyph-name="dagger" horiz-adv-x="360" unicode="&#8224;" /><glyph d="M212 352V102H112L174 352ZM252 599 396 619 386 541 247 561ZM205 609 203 750H281L243 609ZM228 400 371 420 361 342 223 362ZM165 362 21 342 31 420 170 400ZM189 561 46 541 56 619 194 599ZM236 551 237 480 219 410H181L179 480L198 551Z" glyph-name="daggerdbl" horiz-adv-x="360" unicode="&#8225;" /><glyph d="M292 510Q327 510 362.5 500Q398 490 427 469L462 750H532L440 0H401L391 41Q348 16 308.5 3Q269 -10 228 -10Q168 -10 131 10.5Q94 31 75 66Q56 101 52.5 148.5Q49 196 55 250Q62 304 77 351.5Q92 399 120 434Q148 469 190 489.5Q232 510 292 510ZM285 448Q240 448 211 431Q182 414 164.5 386Q147 358 138 322.5Q129 287 125 250Q120 213 120 177.5Q120 142 131 114Q142 86 166.5 69Q191 52 236 52Q285 52 316.5 60Q348 68 380 84L421 416Q393 432 363.5 440Q334 448 285 448ZM676 750 603 550H557L598 750Z" glyph-name="dcaron" horiz-adv-x="555" unicode="&#271;" /><glyph d="M292 510Q360 510 427 469L444 603H309L315 654H450L462 750H532L520 654H610L604 603H514L440 0H401L391 41Q348 16 308.5 3Q269 -10 228 -10Q168 -10 131 10.5Q94 31 75 66Q56 101 52.5 148.5Q49 196 55 250Q62 304 77 351.5Q92 399 120 434Q148 469 190 489.5Q232 510 292 510ZM236 52Q285 52 316.5 60Q348 68 380 84L421 416Q393 432 363.5 440Q334 448 285 448Q240 448 211 431Q182 414 164.5 386Q147 358 138 322.5Q129 287 125 250Q120 213 120 177.5Q120 142 131 114Q142 86 166.5 69Q191 52 236 52Z" glyph-name="dcroat" horiz-adv-x="535" unicode="&#273;" /><glyph d="M198 490Q172 490 148 496.5Q124 503 106.5 518.5Q89 534 80 560Q71 586 76 625Q81 665 96 691Q111 717 132.5 732.5Q154 748 179.5 754Q205 760 231 760Q256 760 280 754Q304 748 321.5 732.5Q339 717 348 691Q357 665 352 625Q347 586 332 560Q317 534 295.5 518.5Q274 503 248.5 496.5Q223 490 198 490ZM224 705Q188 705 164 687Q140 669 135 625Q130 581 149 563Q168 545 204 545Q240 545 264 563Q288 581 293 625Q298 669 279 687Q260 705 224 705Z" glyph-name="degree" horiz-adv-x="336" unicode="&#176;" /><glyph d="M189 650Q189 671 203.5 685.5Q218 700 239 700Q260 700 274.5 685.5Q289 671 289 650Q289 629 274.5 614.5Q260 600 239 600Q218 600 203.5 614.5Q189 629 189 650ZM379 650Q379 671 393.5 685.5Q408 700 429 700Q450 700 464.5 685.5Q479 671 479 650Q479 629 464.5 614.5Q450 600 429 600Q408 600 393.5 614.5Q379 629 379 650Z" glyph-name="dieresis" horiz-adv-x="570" unicode="&#168;" /><glyph d="M404 850Q404 871 418.5 885.5Q433 900 454 900Q475 900 489.5 885.5Q504 871 504 850Q504 829 489.5 814.5Q475 800 454 800Q433 800 418.5 814.5Q404 829 404 850ZM214 850Q214 871 228.5 885.5Q243 900 264 900Q285 900 299.5 885.5Q314 871 314 850Q314 829 299.5 814.5Q285 800 264 800Q243 800 228.5 814.5Q214 829 214 850Z" glyph-name="dieresis.cap" horiz-adv-x="570" unicode="&#58409;" /><glyph d="M460 374 452 308H52L60 374ZM187 181Q187 202 201.5 216.5Q216 231 237 231Q258 231 272.5 216.5Q287 202 287 181Q287 160 272.5 145.5Q258 131 237 131Q216 131 201.5 145.5Q187 160 187 181ZM226 501Q226 522 240.5 536.5Q255 551 276 551Q297 551 311.5 536.5Q326 522 326 501Q326 480 311.5 465.5Q297 451 276 451Q255 451 240.5 465.5Q226 480 226 501Z" glyph-name="divide" horiz-adv-x="490" unicode="&#247;" /><glyph d="M66 -125 117 4Q93 9 71.5 15.5Q50 22 35 30L43 95Q63 87 86.5 79Q110 71 141 64L263 368Q213 377 179 390.5Q145 404 125.5 425.5Q106 447 99.5 477.5Q93 508 99 551Q103 584 116 620.5Q129 657 158.5 688Q188 719 238 739.5Q288 760 367 760Q381 760 394 759.5Q407 759 419 758L466 875H526L476 751Q502 746 522 739.5Q542 733 558 725L549 658Q498 680 452 689L342 416Q392 408 431 396Q470 384 495 361.5Q520 339 530.5 304Q541 269 535 216Q530 178 514.5 138Q499 98 466 65Q433 32 378.5 11Q324 -10 240 -10Q224 -10 207.5 -8.5Q191 -7 174 -5L126 -125ZM467 216Q472 256 466.5 281Q461 306 443.5 321.5Q426 337 395.5 345Q365 353 320 359L198 55Q209 53 222 53Q235 53 249 53Q307 53 347 66Q387 79 412.5 101Q438 123 450.5 152.5Q463 182 467 216ZM358 697Q302 697 266 685Q230 673 208.5 653Q187 633 177 606.5Q167 580 163 550Q158 515 164 492.5Q170 470 186 456.5Q202 443 227 435.5Q252 428 285 423L394 696Q386 696 377 696.5Q368 697 358 697Z" glyph-name="dollar" horiz-adv-x="600" unicode="$" /><glyph d="M284 650Q284 671 298.5 685.5Q313 700 334 700Q355 700 369.5 685.5Q384 671 384 650Q384 629 369.5 614.5Q355 600 334 600Q313 600 298.5 614.5Q284 629 284 650Z" glyph-name="dotaccent" horiz-adv-x="570" unicode="&#729;" /><glyph d="M309 850Q309 871 323.5 885.5Q338 900 359 900Q380 900 394.5 885.5Q409 871 409 850Q409 829 394.5 814.5Q380 800 359 800Q338 800 323.5 814.5Q309 829 309 850Z" glyph-name="dotaccent.cap" horiz-adv-x="570" unicode="&#58408;" /><glyph d="M159 -10Q105 -10 80 15Q55 40 63 100L112 500H180L130 92Q126 66 134.5 56.5Q143 47 166 47L159 -10Z" glyph-name="dotlessi" horiz-adv-x="240" unicode="&#305;" /><glyph d="M-101 -201Q-79 -198 -55.5 -190.5Q-32 -183 -12 -169.5Q8 -156 22 -136Q36 -116 40 -87L112 500H180L107 -96Q102 -135 80.5 -165Q59 -195 28.5 -215.5Q-2 -236 -38 -247Q-74 -258 -108 -260Z" glyph-name="dotlessj" horiz-adv-x="230" unicode="&#567;" /><glyph d="M268 800 190 900H280L318 800ZM388 800 310 900H400L438 800Z" glyph-name="doublegrave.cap" horiz-adv-x="570" unicode="&#58412;" /><glyph d="M268 275Q305 275 329.5 281.5Q354 288 368.5 300Q383 312 390 328Q397 344 399 362Q401 380 398.5 396Q396 412 384 423.5Q372 435 349.5 441.5Q327 448 290 448Q246 448 217.5 433.5Q189 419 171 395Q153 371 143 340Q133 309 128 275ZM121 218Q119 185 121.5 155Q124 125 136.5 102Q149 79 174 65.5Q199 52 241 52Q295 52 333 58Q371 64 409 80L402 20Q357 1 313.5 -4.5Q270 -10 233 -10Q170 -10 131.5 10.5Q93 31 74 66Q55 101 52 148.5Q49 196 55 250Q62 304 77 351.5Q92 399 119.5 434Q147 469 190.5 489.5Q234 510 297 510Q350 510 384 497Q418 484 437 463Q456 442 462 415.5Q468 389 465 362Q462 335 449.5 309.5Q437 284 412.5 263.5Q388 243 351 230.5Q314 218 261 218Z" glyph-name="e" horiz-adv-x="510" unicode="e" /><glyph d="M268 275Q305 275 329.5 281.5Q354 288 368.5 300Q383 312 390 328Q397 344 399 362Q401 380 398.5 396Q396 412 384 423.5Q372 435 349.5 441.5Q327 448 290 448Q246 448 217.5 433.5Q189 419 171 395Q153 371 143 340Q133 309 128 275ZM121 218Q119 185 121.5 155Q124 125 136.5 102Q149 79 174 65.5Q199 52 241 52Q295 52 333 58Q371 64 409 80L402 20Q357 1 313.5 -4.5Q270 -10 233 -10Q170 -10 131.5 10.5Q93 31 74 66Q55 101 52 148.5Q49 196 55 250Q62 304 77 351.5Q92 399 119.5 434Q147 469 190.5 489.5Q234 510 297 510Q350 510 384 497Q418 484 437 463Q456 442 462 415.5Q468 389 465 362Q462 335 449.5 309.5Q437 284 412.5 263.5Q388 243 351 230.5Q314 218 261 218ZM278 550 353 750H433L328 550Z" glyph-name="eacute" horiz-adv-x="510" unicode="&#233;" /><glyph d="M268 275Q305 275 329.5 281.5Q354 288 368.5 300Q383 312 390 328Q397 344 399 362Q401 380 398.5 396Q396 412 384 423.5Q372 435 349.5 441.5Q327 448 290 448Q246 448 217.5 433.5Q189 419 171 395Q153 371 143 340Q133 309 128 275ZM121 218Q119 185 121.5 155Q124 125 136.5 102Q149 79 174 65.5Q199 52 241 52Q295 52 333 58Q371 64 409 80L402 20Q357 1 313.5 -4.5Q270 -10 233 -10Q170 -10 131.5 10.5Q93 31 74 66Q55 101 52 148.5Q49 196 55 250Q62 304 77 351.5Q92 399 119.5 434Q147 469 190.5 489.5Q234 510 297 510Q350 510 384 497Q418 484 437 463Q456 442 462 415.5Q468 389 465 362Q462 335 449.5 309.5Q437 284 412.5 263.5Q388 243 351 230.5Q314 218 261 218ZM303 550Q132 550 153 750H204Q200 716 202.5 690Q205 664 217 646Q229 628 251.5 619Q274 610 310 610Q346 610 371 619Q396 628 412 646Q428 664 437.5 690Q447 716 452 750H503Q473 550 303 550Z" glyph-name="ebreve" horiz-adv-x="510" unicode="&#277;" /><glyph d="M268 275Q305 275 329.5 281.5Q354 288 368.5 300Q383 312 390 328Q397 344 399 362Q401 380 398.5 396Q396 412 384 423.5Q372 435 349.5 441.5Q327 448 290 448Q246 448 217.5 433.5Q189 419 171 395Q153 371 143 340Q133 309 128 275ZM121 218Q119 185 121.5 155Q124 125 136.5 102Q149 79 174 65.5Q199 52 241 52Q295 52 333 58Q371 64 409 80L402 20Q357 1 313.5 -4.5Q270 -10 233 -10Q170 -10 131.5 10.5Q93 31 74 66Q55 101 52 148.5Q49 196 55 250Q62 304 77 351.5Q92 399 119.5 434Q147 469 190.5 489.5Q234 510 297 510Q350 510 384 497Q418 484 437 463Q456 442 462 415.5Q468 389 465 362Q462 335 449.5 309.5Q437 284 412.5 263.5Q388 243 351 230.5Q314 218 261 218ZM513 750 343 550H263L143 750H198L310 609L458 750Z" glyph-name="ecaron" horiz-adv-x="510" unicode="&#283;" /><glyph d="M268 275Q305 275 329.5 281.5Q354 288 368.5 300Q383 312 390 328Q397 344 399 362Q401 380 398.5 396Q396 412 384 423.5Q372 435 349.5 441.5Q327 448 290 448Q246 448 217.5 433.5Q189 419 171 395Q153 371 143 340Q133 309 128 275ZM121 218Q119 185 121.5 155Q124 125 136.5 102Q149 79 174 65.5Q199 52 241 52Q295 52 333 58Q371 64 409 80L402 20Q357 1 313.5 -4.5Q270 -10 233 -10Q170 -10 131.5 10.5Q93 31 74 66Q55 101 52 148.5Q49 196 55 250Q62 304 77 351.5Q92 399 119.5 434Q147 469 190.5 489.5Q234 510 297 510Q350 510 384 497Q418 484 437 463Q456 442 462 415.5Q468 389 465 362Q462 335 449.5 309.5Q437 284 412.5 263.5Q388 243 351 230.5Q314 218 261 218ZM433 550 320 691 173 550H118L288 750H368L488 550Z" glyph-name="ecircumflex" horiz-adv-x="510" unicode="&#234;" /><glyph d="M268 275Q305 275 329.5 281.5Q354 288 368.5 300Q383 312 390 328Q397 344 399 362Q401 380 398.5 396Q396 412 384 423.5Q372 435 349.5 441.5Q327 448 290 448Q246 448 217.5 433.5Q189 419 171 395Q153 371 143 340Q133 309 128 275ZM121 218Q119 185 121.5 155Q124 125 136.5 102Q149 79 174 65.5Q199 52 241 52Q295 52 333 58Q371 64 409 80L402 20Q357 1 313.5 -4.5Q270 -10 233 -10Q170 -10 131.5 10.5Q93 31 74 66Q55 101 52 148.5Q49 196 55 250Q62 304 77 351.5Q92 399 119.5 434Q147 469 190.5 489.5Q234 510 297 510Q350 510 384 497Q418 484 437 463Q456 442 462 415.5Q468 389 465 362Q462 335 449.5 309.5Q437 284 412.5 263.5Q388 243 351 230.5Q314 218 261 218ZM170 650Q170 671 184.5 685.5Q199 700 220 700Q241 700 255.5 685.5Q270 671 270 650Q270 629 255.5 614.5Q241 600 220 600Q199 600 184.5 614.5Q170 629 170 650ZM360 650Q360 671 374.5 685.5Q389 700 410 700Q431 700 445.5 685.5Q460 671 460 650Q460 629 445.5 614.5Q431 600 410 600Q389 600 374.5 614.5Q360 629 360 650Z" glyph-name="edieresis" horiz-adv-x="510" unicode="&#235;" /><glyph d="M268 275Q305 275 329.5 281.5Q354 288 368.5 300Q383 312 390 328Q397 344 399 362Q401 380 398.5 396Q396 412 384 423.5Q372 435 349.5 441.5Q327 448 290 448Q246 448 217.5 433.5Q189 419 171 395Q153 371 143 340Q133 309 128 275ZM121 218Q119 185 121.5 155Q124 125 136.5 102Q149 79 174 65.5Q199 52 241 52Q295 52 333 58Q371 64 409 80L402 20Q357 1 313.5 -4.5Q270 -10 233 -10Q170 -10 131.5 10.5Q93 31 74 66Q55 101 52 148.5Q49 196 55 250Q62 304 77 351.5Q92 399 119.5 434Q147 469 190.5 489.5Q234 510 297 510Q350 510 384 497Q418 484 437 463Q456 442 462 415.5Q468 389 465 362Q462 335 449.5 309.5Q437 284 412.5 263.5Q388 243 351 230.5Q314 218 261 218ZM265 650Q265 671 279.5 685.5Q294 700 315 700Q336 700 350.5 685.5Q365 671 365 650Q365 629 350.5 614.5Q336 600 315 600Q294 600 279.5 614.5Q265 629 265 650Z" glyph-name="edotaccent" horiz-adv-x="510" unicode="&#279;" /><glyph d="M268 275Q305 275 329.5 281.5Q354 288 368.5 300Q383 312 390 328Q397 344 399 362Q401 380 398.5 396Q396 412 384 423.5Q372 435 349.5 441.5Q327 448 290 448Q246 448 217.5 433.5Q189 419 171 395Q153 371 143 340Q133 309 128 275ZM121 218Q119 185 121.5 155Q124 125 136.5 102Q149 79 174 65.5Q199 52 241 52Q295 52 333 58Q371 64 409 80L402 20Q357 1 313.5 -4.5Q270 -10 233 -10Q170 -10 131.5 10.5Q93 31 74 66Q55 101 52 148.5Q49 196 55 250Q62 304 77 351.5Q92 399 119.5 434Q147 469 190.5 489.5Q234 510 297 510Q350 510 384 497Q418 484 437 463Q456 442 462 415.5Q468 389 465 362Q462 335 449.5 309.5Q437 284 412.5 263.5Q388 243 351 230.5Q314 218 261 218ZM278 550 223 750H303L328 550Z" glyph-name="egrave" horiz-adv-x="510" unicode="&#232;" /><glyph d="M268 -10Q198 -10 152 8Q106 26 79.5 56.5Q53 87 45 127Q37 167 42 211Q46 239 57 268Q68 297 86 322Q104 347 130 366.5Q156 386 189 395Q143 418 123 460.5Q103 503 109 552Q114 593 130.5 630.5Q147 668 177.5 697Q208 726 253.5 743Q299 760 363 760Q427 760 468.5 743Q510 726 533 697Q556 668 563 630.5Q570 593 565 552Q559 503 529 460.5Q499 418 447 395Q478 386 499 366.5Q520 347 532 322Q544 297 548 268Q552 239 548 211Q543 167 525 127Q507 87 473 56.5Q439 26 388.5 8Q338 -10 268 -10ZM313 358Q225 358 175.5 322.5Q126 287 116 211Q113 184 118 156Q123 128 140.5 104.5Q158 81 190.5 66.5Q223 52 276 52Q329 52 365.5 66.5Q402 81 425 104.5Q448 128 459.5 156Q471 184 474 211Q484 287 442.5 322.5Q401 358 313 358ZM321 420Q363 420 394 431.5Q425 443 445.5 462Q466 481 477 504.5Q488 528 491 552Q494 577 491 603Q488 629 473.5 650Q459 671 431 684.5Q403 698 355 698Q307 698 275.5 684.5Q244 671 224.5 650Q205 629 195.5 603Q186 577 183 552Q180 528 185.5 504.5Q191 481 207 462Q223 443 251 431.5Q279 420 321 420Z" glyph-name="eight" horiz-adv-x="600" unicode="8" /><glyph d="M74 40Q74 61 88.5 75.5Q103 90 124 90Q145 90 159.5 75.5Q174 61 174 40Q174 19 159.5 4.5Q145 -10 124 -10Q103 -10 88.5 4.5Q74 19 74 40ZM404 40Q404 61 418.5 75.5Q433 90 454 90Q475 90 489.5 75.5Q504 61 504 40Q504 19 489.5 4.5Q475 -10 454 -10Q433 -10 418.5 4.5Q404 19 404 40ZM734 40Q734 61 748.5 75.5Q763 90 784 90Q805 90 819.5 75.5Q834 61 834 40Q834 19 819.5 4.5Q805 -10 784 -10Q763 -10 748.5 4.5Q734 19 734 40Z" glyph-name="ellipsis" horiz-adv-x="960" unicode="&#8230;" /><glyph d="M268 275Q305 275 329.5 281.5Q354 288 368.5 300Q383 312 390 328Q397 344 399 362Q401 380 398.5 396Q396 412 384 423.5Q372 435 349.5 441.5Q327 448 290 448Q246 448 217.5 433.5Q189 419 171 395Q153 371 143 340Q133 309 128 275ZM121 218Q119 185 121.5 155Q124 125 136.5 102Q149 79 174 65.5Q199 52 241 52Q295 52 333 58Q371 64 409 80L402 20Q357 1 313.5 -4.5Q270 -10 233 -10Q170 -10 131.5 10.5Q93 31 74 66Q55 101 52 148.5Q49 196 55 250Q62 304 77 351.5Q92 399 119.5 434Q147 469 190.5 489.5Q234 510 297 510Q350 510 384 497Q418 484 437 463Q456 442 462 415.5Q468 389 465 362Q462 335 449.5 309.5Q437 284 412.5 263.5Q388 243 351 230.5Q314 218 261 218ZM182 680H456L449 620H175Z" glyph-name="emacron" horiz-adv-x="510" unicode="&#275;" /><glyph d="M958 272H48L56 338H966Z" glyph-name="emdash" horiz-adv-x="1000" unicode="&#8212;" /><glyph d="M458 272H48L56 338H466Z" glyph-name="endash" horiz-adv-x="500" unicode="&#8211;" /><glyph d="M295 448Q246 448 215.5 440Q185 432 156 416L105 0H35L96 500H135L145 458Q221 510 302 510Q392 510 427 471Q462 432 454 360L398 -96Q393 -135 371 -165Q349 -195 318 -215.5Q287 -236 250.5 -247Q214 -258 180 -260L187 -201Q209 -198 233 -190.5Q257 -183 277 -169.5Q297 -156 311 -136Q325 -116 329 -87L384 363Q390 412 366 430Q342 448 295 448Z" glyph-name="eng" horiz-adv-x="500" unicode="&#331;" /><glyph d="M268 275Q305 275 329.5 281.5Q354 288 368.5 300Q383 312 390 328Q397 344 399 362Q401 380 398.5 396Q396 412 384 423.5Q372 435 349.5 441.5Q327 448 290 448Q246 448 217.5 433.5Q189 419 171 395Q153 371 143 340Q133 309 128 275ZM402 20Q385 13 369.5 8Q354 3 338 0Q285 -27 252 -65Q219 -103 214 -142Q211 -165 221.5 -182Q232 -199 261 -199Q278 -199 293 -196.5Q308 -194 319 -191L313 -239Q299 -244 281 -247Q263 -250 241 -250Q196 -250 171 -225Q146 -200 151 -155Q156 -115 179.5 -77.5Q203 -40 244 -10H233Q170 -10 131.5 10.5Q93 31 74 66Q55 101 52 148.5Q49 196 55 250Q62 304 77 351.5Q92 399 119.5 434Q147 469 190.5 489.5Q234 510 297 510Q350 510 384 497Q418 484 437 463Q456 442 462 415.5Q468 389 465 362Q462 335 449.5 309.5Q437 284 412.5 263.5Q388 243 351 230.5Q314 218 261 218H121Q119 185 121.5 155Q124 125 136.5 102Q149 79 174 65.5Q199 52 241 52Q295 52 333 58Q371 64 409 80Z" glyph-name="eogonek" horiz-adv-x="510" unicode="&#281;" /><glyph d="M460 374H60L69 440H469ZM444 242H44L52 308H452Z" glyph-name="equal" horiz-adv-x="490" unicode="=" /><glyph d="M479 691 398 652Q421 623 442 584.5Q463 546 477 497Q491 448 496.5 386.5Q502 325 495 250Q488 193 472 145Q456 97 426.5 62.5Q397 28 352 9Q307 -10 243 -10Q179 -10 139 9Q99 28 78 62.5Q57 97 52.5 145Q48 193 55 250Q62 307 78.5 355Q95 403 124 437.5Q153 472 198 491Q243 510 307 510Q338 510 363.5 503Q389 496 410 484Q398 524 378 558Q358 592 334 621L171 543L178 602L297 659Q265 689 232.5 711.5Q200 734 174 750H288Q302 740 322 725.5Q342 711 362 690L487 750ZM425 250Q430 292 429.5 328.5Q429 365 416.5 391.5Q404 418 376.5 433Q349 448 300 448Q250 448 218.5 433Q187 418 168 391.5Q149 365 139.5 328.5Q130 292 125 250Q120 208 120.5 171.5Q121 135 133.5 108.5Q146 82 173.5 67Q201 52 251 52Q300 52 331 67Q362 82 381.5 108.5Q401 135 410.5 171.5Q420 208 425 250Z" glyph-name="eth" horiz-adv-x="550" unicode="&#240;" /><glyph d="M70 210 107 750H207L110 210ZM19 40Q19 61 33.5 75.5Q48 90 69 90Q90 90 104.5 75.5Q119 61 119 40Q119 19 104.5 4.5Q90 -10 69 -10Q48 -10 33.5 4.5Q19 19 19 40Z" glyph-name="exclam" horiz-adv-x="190" unicode="!" /><glyph d="M120 290 84 -250H-16L80 290ZM71 460Q71 481 85.5 495.5Q100 510 121 510Q142 510 156.5 495.5Q171 481 171 460Q171 439 156.5 424.5Q142 410 121 410Q100 410 85.5 424.5Q71 439 71 460Z" glyph-name="exclamdown" horiz-adv-x="190" unicode="&#161;" /><glyph d="M424 690Q410 694 394 696Q378 698 355 698Q306 698 271.5 678.5Q237 659 231 610L218 500H376L369 445H211L126 -250H59L144 445H44L48 476L152 505L164 610Q173 682 221 721Q269 760 363 760Q379 760 398.5 758.5Q418 757 432 753Z" glyph-name="f" horiz-adv-x="375" unicode="f" /><glyph d="M424 690Q410 694 394 696Q378 698 355 698Q306 698 271.5 678.5Q237 659 231 610L218 500H376L369 445H211L126 -250H59L144 445H44L48 476L152 505L164 610Q173 682 221 721Q269 760 363 760Q379 760 398.5 758.5Q418 757 432 753ZM534 -10Q480 -10 455 15Q430 40 438 100L487 500H555L505 92Q501 66 509.5 56.5Q518 47 541 47ZM489 650Q489 671 503.5 685.5Q518 700 539 700Q560 700 574.5 685.5Q589 671 589 650Q589 629 574.5 614.5Q560 600 539 600Q518 600 503.5 614.5Q489 629 489 650Z" glyph-name="fi" horiz-adv-x="615" unicode="&#64257;" /><glyph d="M221 52Q252 52 288.5 58Q325 64 357.5 83.5Q390 103 414.5 138.5Q439 174 446 233Q453 290 439.5 320.5Q426 351 400 365Q374 379 338.5 381Q303 383 267 383H127L172 750H567L559 688H232L202 443Q225 445 251.5 446.5Q278 448 298 448Q343 448 386.5 441.5Q430 435 462.5 412.5Q495 390 511 347.5Q527 305 518 233Q508 152 475 104Q442 56 398 30.5Q354 5 304.5 -2.5Q255 -10 212 -10Q157 -10 116.5 -0.5Q76 9 51 22L59 84Q85 73 124 62.5Q163 52 221 52Z" glyph-name="five" horiz-adv-x="600" unicode="5" /><glyph d="M424 690Q410 694 394 696Q378 698 355 698Q306 698 271.5 678.5Q237 659 231 610L218 500H376L369 445H211L126 -250H59L144 445H44L48 476L152 505L164 610Q173 682 221 721Q269 760 363 760Q379 760 398.5 758.5Q418 757 432 753ZM534 -10Q480 -10 455 15Q430 40 438 100L518 750H586L505 92Q501 66 509.5 56.5Q518 47 541 47Z" glyph-name="fl" horiz-adv-x="615" unicode="&#64258;" /><glyph d="M378 760Q415 760 454 754.5Q493 749 525 735L517 675Q489 685 456 691.5Q423 698 370 698Q321 698 286 672Q251 646 245 595L233 500H471L464 445H226L172 0H105L159 445H59L63 476L167 505L178 595Q187 671 235.5 715.5Q284 760 378 760Z" glyph-name="florin" horiz-adv-x="600" unicode="&#402;" /><glyph d="M447 281H554L546 219H439L413 0H345L371 219H46L52 261L455 760H506ZM379 281 425 642 133 279Z" glyph-name="four" horiz-adv-x="600" unicode="4" /><glyph d="M-110 0 512 750H589L-33 0Z" glyph-name="fraction" horiz-adv-x="447" unicode="&#8260;" /><glyph d="M228 -10Q168 -10 131 10.5Q94 31 75 66Q56 101 52.5 148.5Q49 196 55 250Q62 304 77 351.5Q92 399 120 434Q148 469 190 489.5Q232 510 292 510Q332 510 371 497Q410 484 442 458L462 500H501L435 -40Q429 -87 417 -127Q405 -167 380 -197Q355 -227 312 -244Q269 -261 202 -261Q132 -261 88 -250Q44 -239 12 -221L21 -152Q58 -173 104 -187.5Q150 -202 210 -202Q260 -202 289 -186.5Q318 -171 334 -147Q350 -123 355.5 -94.5Q361 -66 365 -40L373 31Q297 -10 228 -10ZM236 52Q285 52 316.5 60Q348 68 380 84L421 416Q393 432 363.5 440Q334 448 285 448Q240 448 211 431Q182 414 164.5 386Q147 358 138 322.5Q129 287 125 250Q120 213 120 177.5Q120 142 131 114Q142 86 166.5 69Q191 52 236 52Z" glyph-name="g" horiz-adv-x="535" unicode="g" /><glyph d="M228 -10Q168 -10 131 10.5Q94 31 75 66Q56 101 52.5 148.5Q49 196 55 250Q62 304 77 351.5Q92 399 120 434Q148 469 190 489.5Q232 510 292 510Q332 510 371 497Q410 484 442 458L462 500H501L435 -40Q429 -87 417 -127Q405 -167 380 -197Q355 -227 312 -244Q269 -261 202 -261Q132 -261 88 -250Q44 -239 12 -221L21 -152Q58 -173 104 -187.5Q150 -202 210 -202Q260 -202 289 -186.5Q318 -171 334 -147Q350 -123 355.5 -94.5Q361 -66 365 -40L373 31Q297 -10 228 -10ZM236 52Q285 52 316.5 60Q348 68 380 84L421 416Q393 432 363.5 440Q334 448 285 448Q240 448 211 431Q182 414 164.5 386Q147 358 138 322.5Q129 287 125 250Q120 213 120 177.5Q120 142 131 114Q142 86 166.5 69Q191 52 236 52ZM298 550Q127 550 148 750H199Q195 716 197.5 690Q200 664 212 646Q224 628 246.5 619Q269 610 305 610Q341 610 366 619Q391 628 407 646Q423 664 432.5 690Q442 716 447 750H498Q468 550 298 550Z" glyph-name="gbreve" horiz-adv-x="535" unicode="&#287;" /><glyph d="M228 -10Q168 -10 131 10.5Q94 31 75 66Q56 101 52.5 148.5Q49 196 55 250Q62 304 77 351.5Q92 399 120 434Q148 469 190 489.5Q232 510 292 510Q332 510 371 497Q410 484 442 458L462 500H501L435 -40Q429 -87 417 -127Q405 -167 380 -197Q355 -227 312 -244Q269 -261 202 -261Q132 -261 88 -250Q44 -239 12 -221L21 -152Q58 -173 104 -187.5Q150 -202 210 -202Q260 -202 289 -186.5Q318 -171 334 -147Q350 -123 355.5 -94.5Q361 -66 365 -40L373 31Q297 -10 228 -10ZM236 52Q285 52 316.5 60Q348 68 380 84L421 416Q393 432 363.5 440Q334 448 285 448Q240 448 211 431Q182 414 164.5 386Q147 358 138 322.5Q129 287 125 250Q120 213 120 177.5Q120 142 131 114Q142 86 166.5 69Q191 52 236 52ZM428 550 315 691 168 550H113L283 750H363L483 550Z" glyph-name="gcircumflex" horiz-adv-x="535" unicode="&#285;" /><glyph d="M228 -10Q168 -10 131 10.5Q94 31 75 66Q56 101 52.5 148.5Q49 196 55 250Q62 304 77 351.5Q92 399 120 434Q148 469 190 489.5Q232 510 292 510Q332 510 371 497Q410 484 442 458L462 500H501L435 -40Q429 -87 417 -127Q405 -167 380 -197Q355 -227 312 -244Q269 -261 202 -261Q132 -261 88 -250Q44 -239 12 -221L21 -152Q58 -173 104 -187.5Q150 -202 210 -202Q260 -202 289 -186.5Q318 -171 334 -147Q350 -123 355.5 -94.5Q361 -66 365 -40L373 31Q297 -10 228 -10ZM236 52Q285 52 316.5 60Q348 68 380 84L421 416Q393 432 363.5 440Q334 448 285 448Q240 448 211 431Q182 414 164.5 386Q147 358 138 322.5Q129 287 125 250Q120 213 120 177.5Q120 142 131 114Q142 86 166.5 69Q191 52 236 52ZM256 550 337 750H387L336 550Z" glyph-name="gcommaaccent" horiz-adv-x="535" unicode="&#291;" /><glyph d="M228 -10Q168 -10 131 10.5Q94 31 75 66Q56 101 52.5 148.5Q49 196 55 250Q62 304 77 351.5Q92 399 120 434Q148 469 190 489.5Q232 510 292 510Q332 510 371 497Q410 484 442 458L462 500H501L435 -40Q429 -87 417 -127Q405 -167 380 -197Q355 -227 312 -244Q269 -261 202 -261Q132 -261 88 -250Q44 -239 12 -221L21 -152Q58 -173 104 -187.5Q150 -202 210 -202Q260 -202 289 -186.5Q318 -171 334 -147Q350 -123 355.5 -94.5Q361 -66 365 -40L373 31Q297 -10 228 -10ZM236 52Q285 52 316.5 60Q348 68 380 84L421 416Q393 432 363.5 440Q334 448 285 448Q240 448 211 431Q182 414 164.5 386Q147 358 138 322.5Q129 287 125 250Q120 213 120 177.5Q120 142 131 114Q142 86 166.5 69Q191 52 236 52ZM260 650Q260 671 274.5 685.5Q289 700 310 700Q331 700 345.5 685.5Q360 671 360 650Q360 629 345.5 614.5Q331 600 310 600Q289 600 274.5 614.5Q260 629 260 650Z" glyph-name="gdotaccent" horiz-adv-x="535" unicode="&#289;" /><glyph d="M314 -10Q282 -10 250.5 -3.5Q219 3 196 17L203 77Q226 69 254 60.5Q282 52 322 52Q353 52 373 59.5Q393 67 406 79.5Q419 92 425 108Q431 124 433 142Q435 160 433 173Q431 186 422 196.5Q413 207 395.5 215.5Q378 224 351 233Q277 256 253 287.5Q229 319 236 372Q240 407 254.5 429.5Q269 452 288 468.5Q307 485 329 497.5Q351 510 370 525Q389 540 403 559.5Q417 579 421 610Q424 634 417 651Q410 668 396 678.5Q382 689 362 693.5Q342 698 319 698Q296 698 274.5 693.5Q253 689 236.5 678.5Q220 668 209 651Q198 634 195 610L90 -250H23L128 610Q137 682 187 721Q237 760 327 760Q417 760 455.5 721Q494 682 485 610Q480 571 465.5 545.5Q451 520 431.5 502Q412 484 390.5 471Q369 458 350 444.5Q331 431 317.5 414Q304 397 301 372Q299 356 301.5 344.5Q304 333 312 324Q320 315 335 307.5Q350 300 374 292Q411 280 436.5 267Q462 254 477.5 237Q493 220 498.5 197Q504 174 500 143Q497 114 484.5 86.5Q472 59 449.5 37.5Q427 16 393.5 3Q360 -10 314 -10Z" glyph-name="germandbls" horiz-adv-x="538" unicode="&#223;" /><glyph d="M297 550 242 750H322L347 550Z" glyph-name="grave" horiz-adv-x="570" unicode="`" /><glyph d="M328 800 250 900H340L378 800Z" glyph-name="grave.cap" horiz-adv-x="570" unicode="&#58401;" /><glyph d="M89 607 460 374 452 308 24 75 33 148 387 341 80 534Z" glyph-name="greater" horiz-adv-x="490" unicode="&gt;" /><glyph d="M48 275 389 406 80 537 89 607 468 439 460 373 40 205ZM32 145 453 313 444 243 24 75Z" glyph-name="greaterequal" horiz-adv-x="490" unicode="&#8805;" /><glyph d="M44 283 251 423 243 357 104 250 217 143 209 76 36 217ZM234 283 441 423 433 357 294 250 407 143 399 76 226 217Z" glyph-name="guillemotleft" horiz-adv-x="465" unicode="&#171;" /><glyph d="M421 216 214 76 222 142 361 249 248 356 256 423 429 282ZM231 216 24 76 32 142 171 249 58 356 66 423 239 282Z" glyph-name="guillemotright" horiz-adv-x="465" unicode="&#187;" /><glyph d="M44 283 251 423 243 357 104 250 217 143 209 76 36 217Z" glyph-name="guilsinglleft" horiz-adv-x="275" unicode="&#8249;" /><glyph d="M231 216 24 76 32 142 171 249 58 356 66 423 239 282Z" glyph-name="guilsinglright" horiz-adv-x="275" unicode="&#8250;" /><glyph d="M384 363Q390 412 366 430Q342 448 295 448Q246 448 214.5 440Q183 432 154 416L103 0H35L127 750H195L160 469Q195 490 231 500Q267 510 302 510Q392 510 427 471Q462 432 454 360L410 0H340L384 363Z" glyph-name="h" horiz-adv-x="500" unicode="h" /><glyph d="M115 654 127 750H195L183 654H320L314 603H177L160 469Q195 490 231 500Q267 510 302 510Q392 510 427 471Q462 432 454 360L410 0H340L384 363Q390 412 366 430Q342 448 295 448Q246 448 214.5 440Q183 432 154 416L103 0H35L109 603H19L25 654Z" glyph-name="hbar" horiz-adv-x="500" unicode="&#295;" /><glyph d="M384 363Q390 412 366 430Q342 448 295 448Q246 448 214.5 440Q183 432 154 416L103 0H35L127 750H195L160 469Q195 490 231 500Q267 510 302 510Q392 510 427 471Q462 432 454 360L410 0H340L384 363ZM267 800 175 856 69 800H13L140 900H220L323 800Z" glyph-name="hcircumflex" horiz-adv-x="500" unicode="&#293;" /><glyph d="M357 550 432 750H512L407 550ZM237 550 312 750H392L287 550Z" glyph-name="hungarumlaut" horiz-adv-x="570" unicode="&#733;" /><glyph d="M388 800 450 900H540L438 800ZM268 800 330 900H420L318 800Z" glyph-name="hungarumlaut.cap" horiz-adv-x="570" unicode="&#58411;" /><glyph d="M283 272H33L41 338H291Z" glyph-name="hyphen" horiz-adv-x="310" unicode="-" /><glyph d="M159 -10Q105 -10 80 15Q55 40 63 100L112 500H180L130 92Q126 66 134.5 56.5Q143 47 166 47ZM114 650Q114 671 128.5 685.5Q143 700 164 700Q185 700 199.5 685.5Q214 671 214 650Q214 629 199.5 614.5Q185 600 164 600Q143 600 128.5 614.5Q114 629 114 650Z" glyph-name="i" horiz-adv-x="240" unicode="i" /><glyph d="M159 -10Q105 -10 80 15Q55 40 63 100L112 500H180L130 92Q126 66 134.5 56.5Q143 47 166 47L159 -10ZM128 550 203 750H283L178 550Z" glyph-name="iacute" horiz-adv-x="240" unicode="&#237;" /><glyph d="M159 -10Q105 -10 80 15Q55 40 63 100L112 500H180L130 92Q126 66 134.5 56.5Q143 47 166 47L159 -10ZM153 550Q-18 550 3 750H54Q50 716 52.5 690Q55 664 67 646Q79 628 101.5 619Q124 610 160 610Q196 610 221 619Q246 628 262 646Q278 664 287.5 690Q297 716 302 750H353Q323 550 153 550Z" glyph-name="ibreve" horiz-adv-x="240" unicode="&#301;" /><glyph d="M159 -10Q105 -10 80 15Q55 40 63 100L112 500H180L130 92Q126 66 134.5 56.5Q143 47 166 47L159 -10ZM284 550 171 691 24 550H-31L139 750H219L339 550Z" glyph-name="icircumflex" horiz-adv-x="240" unicode="&#238;" /><glyph d="M159 -10Q105 -10 80 15Q55 40 63 100L112 500H180L130 92Q126 66 134.5 56.5Q143 47 166 47ZM39 650Q39 671 53.5 685.5Q68 700 89 700Q110 700 124.5 685.5Q139 671 139 650Q139 629 124.5 614.5Q110 600 89 600Q68 600 53.5 614.5Q39 629 39 650ZM189 650Q189 671 203.5 685.5Q218 700 239 700Q260 700 274.5 685.5Q289 671 289 650Q289 629 274.5 614.5Q260 600 239 600Q218 600 203.5 614.5Q189 629 189 650Z" glyph-name="idieresis" horiz-adv-x="240" unicode="&#239;" /><glyph d="M159 -10Q105 -10 80 15Q55 40 63 100L112 500H180L130 92Q126 66 134.5 56.5Q143 47 166 47L159 -10ZM128 550 73 750H153L178 550Z" glyph-name="igrave" horiz-adv-x="240" unicode="&#236;" /><glyph d="M159 -10Q105 -10 80 15Q55 40 63 100L112 500H180L130 92Q126 66 134.5 56.5Q143 47 166 47ZM114 650Q114 671 128.5 685.5Q143 700 164 700Q185 700 199.5 685.5Q214 671 214 650Q214 629 199.5 614.5Q185 600 164 600Q143 600 128.5 614.5Q114 629 114 650ZM89 -201Q111 -198 134.5 -190.5Q158 -183 178 -169.5Q198 -156 212 -136Q226 -116 230 -87L302 500H370L297 -96Q292 -135 270.5 -165Q249 -195 218.5 -215.5Q188 -236 152 -247Q116 -258 82 -260ZM304 650Q304 671 318.5 685.5Q333 700 354 700Q375 700 389.5 685.5Q404 671 404 650Q404 629 389.5 614.5Q375 600 354 600Q333 600 318.5 614.5Q304 629 304 650Z" glyph-name="ij" horiz-adv-x="420" unicode="&#307;" /><glyph d="M159 -10Q105 -10 80 15Q55 40 63 100L112 500H180L130 92Q126 66 134.5 56.5Q143 47 166 47L159 -10ZM32 680H306L299 620H25Z" glyph-name="imacron" horiz-adv-x="240" unicode="&#299;" /><glyph d="M765 357Q756 280 708 242Q660 204 585 204Q528 204 483 232.5Q438 261 407 303Q365 261 313.5 232.5Q262 204 205 204Q130 204 91 242Q52 280 61 357Q71 434 119 472Q167 510 242 510Q299 510 344.5 481Q390 452 420 410Q462 452 513.5 481Q565 510 622 510Q697 510 736 472Q775 434 765 357ZM696 357Q699 384 694.5 401.5Q690 419 678.5 429.5Q667 440 650.5 444.5Q634 449 615 448Q590 447 566.5 438.5Q543 430 522.5 417.5Q502 405 484.5 389Q467 373 453 357Q463 341 476.5 325Q490 309 507.5 296.5Q525 284 546.5 275.5Q568 267 592 266Q631 264 660.5 284Q690 304 696 357ZM212 266Q237 267 260.5 275.5Q284 284 304.5 296.5Q325 309 342 325Q359 341 373 357Q364 373 350 389Q336 405 319 417.5Q302 430 280.5 438.5Q259 447 235 448Q215 449 197.5 444.5Q180 440 166 429.5Q152 419 142.5 401.5Q133 384 130 357Q124 304 148.5 284Q173 264 212 266Z" glyph-name="infinity" horiz-adv-x="800" unicode="&#8734;" /><glyph d="M-101 -201Q-79 -198 -55.5 -190.5Q-32 -183 -12 -169.5Q8 -156 22 -136Q36 -116 40 -87L125 610Q134 682 182.5 721Q231 760 325 760Q341 760 360.5 758.5Q380 757 394 753L386 690Q372 694 356 696Q340 698 317 698Q268 698 233.5 678.5Q199 659 193 610L107 -96Q102 -135 80.5 -165Q59 -195 28.5 -215.5Q-2 -236 -38 -247Q-74 -258 -108 -260Z" glyph-name="integral" horiz-adv-x="337" unicode="&#8747;" /><glyph d="M366 910Q507 910 498 800H447Q449 831 425.5 843Q402 855 359 855Q316 855 290 843Q264 831 259 800H208Q226 910 366 910Z" glyph-name="invertedbreve.cap" horiz-adv-x="570" unicode="&#58407;" /><glyph d="M159 -10Q139 -20 120.5 -34.5Q102 -49 86.5 -66.5Q71 -84 60.5 -103.5Q50 -123 48 -142Q45 -165 55.5 -182Q66 -199 95 -199Q112 -199 127 -196.5Q142 -194 153 -191L147 -239Q133 -244 115 -247Q97 -250 75 -250Q30 -250 5 -225Q-20 -200 -15 -155Q-9 -110 20.5 -70Q50 -30 99 1Q53 23 63 100L112 500H180L130 92Q126 66 134.5 56.5Q143 47 166 47ZM114 650Q114 671 128.5 685.5Q143 700 164 700Q185 700 199.5 685.5Q214 671 214 650Q214 629 199.5 614.5Q185 600 164 600Q143 600 128.5 614.5Q114 629 114 650Z" glyph-name="iogonek" horiz-adv-x="240" unicode="&#303;" /><glyph d="M159 -10Q105 -10 80 15Q55 40 63 100L112 500H180L130 92Q126 66 134.5 56.5Q143 47 166 47L159 -10ZM241 644Q258 644 268 649Q278 654 284 662Q290 670 292.5 678.5Q295 687 296 695H352Q349 642 316 613.5Q283 585 229 585Q198 585 180.5 596Q163 607 149.5 620.5Q136 634 123.5 645Q111 656 90 656Q73 656 62.5 651Q52 646 46 638Q40 630 38 621Q36 612 35 605H-21Q-19 658 14 686.5Q47 715 101 715Q132 715 150 704Q168 693 181.5 679.5Q195 666 207.5 655Q220 644 241 644Z" glyph-name="itilde" horiz-adv-x="240" unicode="&#297;" /><glyph d="M-101 -201Q-79 -198 -55.5 -190.5Q-32 -183 -12 -169.5Q8 -156 22 -136Q36 -116 40 -87L112 500H180L107 -96Q102 -135 80.5 -165Q59 -195 28.5 -215.5Q-2 -236 -38 -247Q-74 -258 -108 -260ZM114 650Q114 671 128.5 685.5Q143 700 164 700Q185 700 199.5 685.5Q214 671 214 650Q214 629 199.5 614.5Q185 600 164 600Q143 600 128.5 614.5Q114 629 114 650Z" glyph-name="j" horiz-adv-x="230" unicode="j" /><glyph d="M-101 -201Q-79 -198 -55.5 -190.5Q-32 -183 -12 -169.5Q8 -156 22 -136Q36 -116 40 -87L112 500H180L107 -96Q102 -135 80.5 -165Q59 -195 28.5 -215.5Q-2 -236 -38 -247Q-74 -258 -108 -260ZM284 550 171 691 24 550H-31L139 750H219L339 550Z" glyph-name="jcircumflex" horiz-adv-x="230" unicode="&#309;" /><glyph d="M244 294 450 0H363L197 254L126 194L103 0H35L127 750H195L136 276L390 500H484Z" glyph-name="k" horiz-adv-x="500" unicode="k" /><glyph d="M244 294 450 0H363L197 254L126 194L103 0H35L127 750H195L136 276L390 500H484ZM267 -50 187 -250H137L187 -50Z" glyph-name="kcommaaccent" horiz-adv-x="500" unicode="&#311;" /><glyph d="M244 294 450 0H363L197 254L126 194L103 0H35L96 500H164L136 276L390 500H484Z" glyph-name="kgreenlandic" horiz-adv-x="500" unicode="&#312;" /><glyph d="M159 -10Q105 -10 80 15Q55 40 63 100L143 750H211L130 92Q126 66 134.5 56.5Q143 47 166 47L159 -10Z" glyph-name="l" horiz-adv-x="240" unicode="l" /><glyph d="M159 -10Q105 -10 80 15Q55 40 63 100L143 750H211L130 92Q126 66 134.5 56.5Q143 47 166 47L159 -10ZM159 800 234 1000H314L209 800Z" glyph-name="lacute" horiz-adv-x="240" unicode="&#314;" /><glyph d="M159 -10Q105 -10 80 15Q55 40 63 100L143 750H211L130 92Q126 66 134.5 56.5Q143 47 166 47L159 -10ZM356 750 283 550H237L278 750Z" glyph-name="lcaron" horiz-adv-x="260" unicode="&#318;" /><glyph d="M159 -10Q105 -10 80 15Q55 40 63 100L143 750H211L130 92Q126 66 134.5 56.5Q143 47 166 47L159 -10ZM147 -50 67 -250H17L67 -50Z" glyph-name="lcommaaccent" horiz-adv-x="240" unicode="&#316;" /><glyph d="M159 -10Q105 -10 80 15Q55 40 63 100L143 750H211L130 92Q126 66 134.5 56.5Q143 47 166 47L159 -10ZM257 301Q257 322 271.5 336.5Q286 351 307 351Q328 351 342.5 336.5Q357 322 357 301Q357 280 342.5 265.5Q328 251 307 251Q286 251 271.5 265.5Q257 280 257 301Z" glyph-name="ldot" horiz-adv-x="360" unicode="&#320;" /><glyph d="M424 75 52 308 60 374 489 607 480 534 125 341 433 148Z" glyph-name="less" horiz-adv-x="490" unicode="&lt;" /><glyph d="M440 205 60 373 68 439 489 607 480 537 139 406 448 275ZM424 75 44 243 53 313 432 145Z" glyph-name="lessequal" horiz-adv-x="490" unicode="&#8804;" /><glyph d="M439 214 466 436H103L111 500H541L506 214Z" glyph-name="logicalnot" horiz-adv-x="646" unicode="&#172;" /><glyph d="M606 375 397 673 116 375 324 77ZM41 375 408 760 681 375 313 -10Z" glyph-name="lozenge" horiz-adv-x="690" unicode="&#9674;" /><glyph d="M38 352 120 400 163 750H231L193 444L306 510L298 446L185 380L150 92Q146 66 154.5 56.5Q163 47 186 47L179 -10Q125 -10 100 15Q75 40 83 100L112 336L30 288Z" glyph-name="lslash" horiz-adv-x="290" unicode="&#322;" /><glyph d="M669 363Q675 412 651.5 430Q628 448 585 448Q562 448 543 446Q524 444 507.5 439.5Q491 435 475.5 429Q460 423 444 415Q447 391 444 363L400 0H330L374 363Q380 412 356.5 430Q333 448 290 448Q246 448 216.5 440.5Q187 433 156 418L105 0H35L96 500H135L145 459Q184 485 223 497.5Q262 510 297 510Q398 510 430 453Q473 480 513.5 495Q554 510 592 510Q673 510 710.5 472.5Q748 435 739 360L695 0H625Z" glyph-name="m" horiz-adv-x="785" unicode="m" /><glyph d="M201 680H475L468 620H194Z" glyph-name="macron" horiz-adv-x="570" unicode="&#175;" /><glyph d="M226 880H500L492 820H218Z" glyph-name="macron.cap" horiz-adv-x="570" unicode="&#58405;" /><glyph d="M209 341 78 491 131 538 262 388 431 538 472 491 303 341 435 191 382 144 251 294 82 144 41 191Z" glyph-name="multiply" horiz-adv-x="490" unicode="&#215;" /><glyph d="M384 363Q390 412 366 430Q342 448 295 448Q246 448 215.5 440Q185 432 156 416L105 0H35L96 500H135L145 458Q221 510 302 510Q392 510 427 471Q462 432 454 360L410 0H340Z" glyph-name="n" horiz-adv-x="500" unicode="n" /><glyph d="M384 363Q390 412 366 430Q342 448 295 448Q246 448 215.5 440Q185 432 156 416L105 0H35L96 500H135L145 458Q221 510 302 510Q392 510 427 471Q462 432 454 360L410 0H340ZM258 550 333 750H413L308 550Z" glyph-name="nacute" horiz-adv-x="500" unicode="&#324;" /><glyph d="M384 363Q390 412 366 430Q342 448 295 448Q246 448 215.5 440Q185 432 156 416L105 0H35L96 500H135L145 458Q221 510 302 510Q392 510 427 471Q462 432 454 360L410 0H340ZM493 750 323 550H243L123 750H178L290 609L438 750Z" glyph-name="ncaron" horiz-adv-x="500" unicode="&#328;" /><glyph d="M384 363Q390 412 366 430Q342 448 295 448Q246 448 215.5 440Q185 432 156 416L105 0H35L96 500H135L145 458Q221 510 302 510Q392 510 427 471Q462 432 454 360L410 0H340ZM256 -50 176 -250H126L176 -50Z" glyph-name="ncommaaccent" horiz-adv-x="500" unicode="&#326;" /><glyph d="M236 54Q295 54 338.5 78Q382 102 412 144.5Q442 187 460 246Q478 305 487 376Q476 359 458.5 341.5Q441 324 417 310Q393 296 362.5 287Q332 278 295 278Q244 278 208.5 289Q173 300 150 318Q127 336 115 360.5Q103 385 98 411.5Q93 438 94 466Q95 494 98 519Q103 557 116 599.5Q129 642 157.5 677.5Q186 713 233.5 736.5Q281 760 354 760Q435 760 480 734.5Q525 709 544.5 662.5Q564 616 564 550.5Q564 485 554 405Q543 313 521.5 236.5Q500 160 462.5 105Q425 50 367.5 20Q310 -10 228 -10Q155 -10 115 1.5Q75 13 57 24L66 90Q92 76 134 65Q176 54 236 54ZM494 519Q498 549 495.5 580.5Q493 612 478 638.5Q463 665 431.5 681.5Q400 698 346 698Q295 698 262 679.5Q229 661 209.5 634Q190 607 180.5 575.5Q171 544 168 519Q165 493 165.5 462Q166 431 178 404Q190 377 219 358.5Q248 340 302 340Q355 340 390.5 357Q426 374 447.5 400Q469 426 480 458Q491 490 494 519Z" glyph-name="nine" horiz-adv-x="600" unicode="9" /><glyph glyph-name="nonbreakingspace" horiz-adv-x="170" unicode="&#160;" /><glyph glyph-name="nonmarkingreturn" horiz-adv-x="170" /><glyph d="M460 374H60L69 440H274L350 607H428L344 440H469ZM444 242H243L167 75H89L173 242H44L52 308H452Z" glyph-name="notequal" horiz-adv-x="490" unicode="&#8800;" /><glyph d="M384 363Q390 412 366 430Q342 448 295 448Q246 448 215.5 440Q185 432 156 416L105 0H35L96 500H135L145 458Q221 510 302 510Q392 510 427 471Q462 432 454 360L410 0H340ZM381 644Q398 644 408 649Q418 654 424 662Q430 670 432.5 678.5Q435 687 436 695H492Q489 642 456 613.5Q423 585 369 585Q338 585 320.5 596Q303 607 289.5 620.5Q276 634 263.5 645Q251 656 230 656Q213 656 202.5 651Q192 646 186 638Q180 630 178 621Q176 612 175 605H119Q121 658 154 686.5Q187 715 241 715Q272 715 290 704Q308 693 321.5 679.5Q335 666 347.5 655Q360 644 381 644Z" glyph-name="ntilde" horiz-adv-x="500" unicode="&#241;" /><glyph d="M115 250 201 500H95L123 566H223L287 750H351L287 566H444L508 750H572L508 566H599L571 500H486L400 250H506L478 184H377L315 0H251L313 184H156L94 0H30L92 184H2L30 250ZM179 250H336L422 500H265Z" glyph-name="numbersign" horiz-adv-x="570" unicode="#" /><glyph d="M475 250Q468 193 453.5 145Q439 97 411.5 62.5Q384 28 340.5 9Q297 -10 233 -10Q169 -10 130.5 9Q92 28 73 62.5Q54 97 51 145Q48 193 55 250Q62 307 76.5 355Q91 403 119 437.5Q147 472 190 491Q233 510 297 510Q361 510 400 491Q439 472 458 437.5Q477 403 479.5 355Q482 307 475 250ZM405 250Q410 292 411 328.5Q412 365 401.5 391.5Q391 418 365 433Q339 448 290 448Q240 448 210 433Q180 418 163 391.5Q146 365 138 328.5Q130 292 125 250Q120 208 119 171.5Q118 135 128.5 108.5Q139 82 165 67Q191 52 241 52Q290 52 319.5 67Q349 82 366.5 108.5Q384 135 392 171.5Q400 208 405 250Z" glyph-name="o" horiz-adv-x="530" unicode="o" /><glyph d="M475 250Q468 193 453.5 145Q439 97 411.5 62.5Q384 28 340.5 9Q297 -10 233 -10Q169 -10 130.5 9Q92 28 73 62.5Q54 97 51 145Q48 193 55 250Q62 307 76.5 355Q91 403 119 437.5Q147 472 190 491Q233 510 297 510Q361 510 400 491Q439 472 458 437.5Q477 403 479.5 355Q482 307 475 250ZM405 250Q410 292 411 328.5Q412 365 401.5 391.5Q391 418 365 433Q339 448 290 448Q240 448 210 433Q180 418 163 391.5Q146 365 138 328.5Q130 292 125 250Q120 208 119 171.5Q118 135 128.5 108.5Q139 82 165 67Q191 52 241 52Q290 52 319.5 67Q349 82 366.5 108.5Q384 135 392 171.5Q400 208 405 250ZM278 550 353 750H433L328 550Z" glyph-name="oacute" horiz-adv-x="530" unicode="&#243;" /><glyph d="M475 250Q468 193 453.5 145Q439 97 411.5 62.5Q384 28 340.5 9Q297 -10 233 -10Q169 -10 130.5 9Q92 28 73 62.5Q54 97 51 145Q48 193 55 250Q62 307 76.5 355Q91 403 119 437.5Q147 472 190 491Q233 510 297 510Q361 510 400 491Q439 472 458 437.5Q477 403 479.5 355Q482 307 475 250ZM405 250Q410 292 411 328.5Q412 365 401.5 391.5Q391 418 365 433Q339 448 290 448Q240 448 210 433Q180 418 163 391.5Q146 365 138 328.5Q130 292 125 250Q120 208 119 171.5Q118 135 128.5 108.5Q139 82 165 67Q191 52 241 52Q290 52 319.5 67Q349 82 366.5 108.5Q384 135 392 171.5Q400 208 405 250ZM303 550Q132 550 153 750H204Q200 716 202.5 690Q205 664 217 646Q229 628 251.5 619Q274 610 310 610Q346 610 371 619Q396 628 412 646Q428 664 437.5 690Q447 716 452 750H503Q473 550 303 550Z" glyph-name="obreve" horiz-adv-x="530" unicode="&#335;" /><glyph d="M475 250Q468 193 453.5 145Q439 97 411.5 62.5Q384 28 340.5 9Q297 -10 233 -10Q169 -10 130.5 9Q92 28 73 62.5Q54 97 51 145Q48 193 55 250Q62 307 76.5 355Q91 403 119 437.5Q147 472 190 491Q233 510 297 510Q361 510 400 491Q439 472 458 437.5Q477 403 479.5 355Q482 307 475 250ZM405 250Q410 292 411 328.5Q412 365 401.5 391.5Q391 418 365 433Q339 448 290 448Q240 448 210 433Q180 418 163 391.5Q146 365 138 328.5Q130 292 125 250Q120 208 119 171.5Q118 135 128.5 108.5Q139 82 165 67Q191 52 241 52Q290 52 319.5 67Q349 82 366.5 108.5Q384 135 392 171.5Q400 208 405 250ZM433 550 320 691 173 550H118L288 750H368L488 550Z" glyph-name="ocircumflex" horiz-adv-x="530" unicode="&#244;" /><glyph d="M475 250Q468 193 453.5 145Q439 97 411.5 62.5Q384 28 340.5 9Q297 -10 233 -10Q169 -10 130.5 9Q92 28 73 62.5Q54 97 51 145Q48 193 55 250Q62 307 76.5 355Q91 403 119 437.5Q147 472 190 491Q233 510 297 510Q361 510 400 491Q439 472 458 437.5Q477 403 479.5 355Q482 307 475 250ZM405 250Q410 292 411 328.5Q412 365 401.5 391.5Q391 418 365 433Q339 448 290 448Q240 448 210 433Q180 418 163 391.5Q146 365 138 328.5Q130 292 125 250Q120 208 119 171.5Q118 135 128.5 108.5Q139 82 165 67Q191 52 241 52Q290 52 319.5 67Q349 82 366.5 108.5Q384 135 392 171.5Q400 208 405 250ZM170 650Q170 671 184.5 685.5Q199 700 220 700Q241 700 255.5 685.5Q270 671 270 650Q270 629 255.5 614.5Q241 600 220 600Q199 600 184.5 614.5Q170 629 170 650ZM360 650Q360 671 374.5 685.5Q389 700 410 700Q431 700 445.5 685.5Q460 671 460 650Q460 629 445.5 614.5Q431 600 410 600Q389 600 374.5 614.5Q360 629 360 650Z" glyph-name="odieresis" horiz-adv-x="530" unicode="&#246;" /><glyph d="M405 250Q410 292 411 328.5Q412 365 401.5 391.5Q391 418 365 433Q339 448 290 448Q240 448 210 433Q180 418 163 391.5Q146 365 138 328.5Q130 292 125 250Q120 208 119 171.5Q118 135 128.5 108.5Q139 82 165 67Q191 52 241 52Q290 52 319.5 67Q349 82 366.5 108.5Q384 135 392 171.5Q400 208 405 250ZM618 275Q655 275 679.5 281.5Q704 288 718.5 300Q733 312 740 328Q747 344 749 362Q751 380 748.5 396Q746 412 734 423.5Q722 435 699.5 441.5Q677 448 640 448Q596 448 567.5 433.5Q539 419 521 395Q503 371 493 340Q483 309 478 275ZM583 -10Q515 -10 476.5 12.5Q438 35 420 74Q392 34 347.5 12Q303 -10 233 -10Q169 -10 130.5 9Q92 28 73 62.5Q54 97 51 145Q48 193 55 250Q62 307 76.5 355Q91 403 119 437.5Q147 472 190 491Q233 510 297 510Q367 510 406 488Q445 466 463 426Q491 465 535 487.5Q579 510 647 510Q700 510 734 497Q768 484 787 463Q806 442 812 415.5Q818 389 815 362Q812 335 799.5 309.5Q787 284 762.5 263.5Q738 243 701 230.5Q664 218 611 218H471Q469 185 471.5 155Q474 125 486.5 102Q499 79 524 65.5Q549 52 591 52Q645 52 683 58Q721 64 759 80L752 20Q707 1 663.5 -4.5Q620 -10 583 -10Z" glyph-name="oe" horiz-adv-x="860" unicode="&#339;" /><glyph d="M326 0Q273 -27 240 -65Q207 -103 202 -142Q199 -165 209.5 -182Q220 -199 249 -199Q266 -199 281 -196.5Q296 -194 307 -191L301 -239Q287 -244 269 -247Q251 -250 229 -250Q184 -250 159 -225Q134 -200 139 -155Q147 -98 190.5 -48Q234 2 309 34Z" glyph-name="ogonek" horiz-adv-x="570" unicode="&#731;" /><glyph d="M475 250Q468 193 453.5 145Q439 97 411.5 62.5Q384 28 340.5 9Q297 -10 233 -10Q169 -10 130.5 9Q92 28 73 62.5Q54 97 51 145Q48 193 55 250Q62 307 76.5 355Q91 403 119 437.5Q147 472 190 491Q233 510 297 510Q361 510 400 491Q439 472 458 437.5Q477 403 479.5 355Q482 307 475 250ZM405 250Q410 292 411 328.5Q412 365 401.5 391.5Q391 418 365 433Q339 448 290 448Q240 448 210 433Q180 418 163 391.5Q146 365 138 328.5Q130 292 125 250Q120 208 119 171.5Q118 135 128.5 108.5Q139 82 165 67Q191 52 241 52Q290 52 319.5 67Q349 82 366.5 108.5Q384 135 392 171.5Q400 208 405 250ZM278 550 223 750H303L328 550Z" glyph-name="ograve" horiz-adv-x="530" unicode="&#242;" /><glyph d="M475 250Q468 193 453.5 145Q439 97 411.5 62.5Q384 28 340.5 9Q297 -10 233 -10Q169 -10 130.5 9Q92 28 73 62.5Q54 97 51 145Q48 193 55 250Q62 307 76.5 355Q91 403 119 437.5Q147 472 190 491Q233 510 297 510Q361 510 400 491Q439 472 458 437.5Q477 403 479.5 355Q482 307 475 250ZM405 250Q410 292 411 328.5Q412 365 401.5 391.5Q391 418 365 433Q339 448 290 448Q240 448 210 433Q180 418 163 391.5Q146 365 138 328.5Q130 292 125 250Q120 208 119 171.5Q118 135 128.5 108.5Q139 82 165 67Q191 52 241 52Q290 52 319.5 67Q349 82 366.5 108.5Q384 135 392 171.5Q400 208 405 250ZM338 550 413 750H493L388 550ZM218 550 293 750H373L268 550Z" glyph-name="ohungarumlaut" horiz-adv-x="530" unicode="&#337;" /><glyph d="M475 250Q468 193 453.5 145Q439 97 411.5 62.5Q384 28 340.5 9Q297 -10 233 -10Q169 -10 130.5 9Q92 28 73 62.5Q54 97 51 145Q48 193 55 250Q62 307 76.5 355Q91 403 119 437.5Q147 472 190 491Q233 510 297 510Q361 510 400 491Q439 472 458 437.5Q477 403 479.5 355Q482 307 475 250ZM405 250Q410 292 411 328.5Q412 365 401.5 391.5Q391 418 365 433Q339 448 290 448Q240 448 210 433Q180 418 163 391.5Q146 365 138 328.5Q130 292 125 250Q120 208 119 171.5Q118 135 128.5 108.5Q139 82 165 67Q191 52 241 52Q290 52 319.5 67Q349 82 366.5 108.5Q384 135 392 171.5Q400 208 405 250ZM182 680H456L449 620H175Z" glyph-name="omacron" horiz-adv-x="530" unicode="&#333;" /><glyph d="M84 40 251 50 329 688 157 673 160 700 378 760H406L319 50L482 40L478 0H80Z" glyph-name="one" horiz-adv-x="600" unicode="1" /><glyph d="M276 760 224 341H156L199 689L91 686L95 718L245 760ZM180 0 802 750H879L257 0ZM742 0 748 50Q837 104 892 139Q947 174 978 199Q1009 224 1021 243.5Q1033 263 1036 287Q1040 319 1019 337.5Q998 356 941 356Q915 356 881 351Q847 346 804 334L811 395Q824 400 841.5 404.5Q859 409 878 412Q897 415 915 417Q933 419 948 419Q996 419 1027 408.5Q1058 398 1076 380Q1094 362 1099.5 337.5Q1105 313 1102 286Q1098 255 1077.5 227.5Q1057 200 1023.5 173.5Q990 147 945 119.5Q900 92 846 60H1090L1083 0Z" glyph-name="onehalf" horiz-adv-x="1153" unicode="&#189;" /><glyph d="M276 760 224 341H156L199 689L91 686L95 718L245 760ZM180 0 802 750H879L257 0ZM1025 0H960L974 118H741L746 159L1028 419H1076L1046 179H1131L1124 118H1039ZM981 179 999 318 846 179Z" glyph-name="onequarter" horiz-adv-x="1160" unicode="&#188;" /><glyph d="M276 760 224 341H156L199 689L91 686L95 718L245 760Z" glyph-name="onesuperior" horiz-adv-x="290" unicode="&#185;" /><glyph d="M74 563Q85 660 133 710.5Q181 761 272 761Q295 761 324.5 752.5Q354 744 376 727L386 751H428L382 375H340L335 399Q309 382 277.5 373.5Q246 365 223 365Q132 365 97 415.5Q62 466 74 563ZM355 679Q340 690 317 697.5Q294 705 269 705Q212 705 179 671.5Q146 638 137 563Q127 488 152 454.5Q177 421 234 421Q259 421 284 428.5Q309 436 326 447Z" glyph-name="ordfeminine" horiz-adv-x="411" unicode="&#170;" /><glyph d="M74 563Q85 660 131.5 710Q178 760 269 760Q360 760 397 710Q434 660 423 563Q411 466 361 415.5Q311 365 220 365Q129 365 95.5 415.5Q62 466 74 563ZM136 563Q126 488 148 455.5Q170 423 227 423Q286 423 319.5 456.5Q353 490 362 563Q371 636 346 669Q321 702 262 702Q205 702 175 670Q145 638 136 563Z" glyph-name="ordmasculine" horiz-adv-x="419" unicode="&#186;" /><glyph d="M78 54Q55 89 51 138.5Q47 188 55 250Q62 307 76.5 355Q91 403 119 437.5Q147 472 190 491Q233 510 297 510Q338 510 367.5 502Q397 494 418 480L434 500H496L452 445Q475 410 479 360.5Q483 311 475 250Q468 193 453.5 145Q439 97 411.5 62.5Q384 28 340.5 9Q297 -10 233 -10Q192 -10 162.5 -2.5Q133 5 112 19L97 0H35ZM125 250Q120 209 118.5 174.5Q117 140 125 114L375 426Q361 437 340 442.5Q319 448 290 448Q240 448 210 433Q180 418 163 391.5Q146 365 138 328.5Q130 292 125 250ZM405 250Q410 290 411 324.5Q412 359 404 385L154 73Q169 62 190 57Q211 52 241 52Q290 52 319.5 67Q349 82 366.5 108.5Q384 135 392 171.5Q400 208 405 250Z" glyph-name="oslash" horiz-adv-x="530" unicode="&#248;" /><glyph d="M475 250Q468 193 453.5 145Q439 97 411.5 62.5Q384 28 340.5 9Q297 -10 233 -10Q169 -10 130.5 9Q92 28 73 62.5Q54 97 51 145Q48 193 55 250Q62 307 76.5 355Q91 403 119 437.5Q147 472 190 491Q233 510 297 510Q361 510 400 491Q439 472 458 437.5Q477 403 479.5 355Q482 307 475 250ZM405 250Q410 292 411 328.5Q412 365 401.5 391.5Q391 418 365 433Q339 448 290 448Q240 448 210 433Q180 418 163 391.5Q146 365 138 328.5Q130 292 125 250Q120 208 119 171.5Q118 135 128.5 108.5Q139 82 165 67Q191 52 241 52Q290 52 319.5 67Q349 82 366.5 108.5Q384 135 392 171.5Q400 208 405 250ZM391 644Q408 644 418 649Q428 654 434 662Q440 670 442.5 678.5Q445 687 446 695H502Q499 642 466 613.5Q433 585 379 585Q348 585 330.5 596Q313 607 299.5 620.5Q286 634 273.5 645Q261 656 240 656Q223 656 212.5 651Q202 646 196 638Q190 630 188 621Q186 612 185 605H129Q131 658 164 686.5Q197 715 251 715Q282 715 300 704Q318 693 331.5 679.5Q345 666 357.5 655Q370 644 391 644Z" glyph-name="otilde" horiz-adv-x="530" unicode="&#245;" /><glyph d="M243 -10Q208 -10 173 0Q138 10 108 31L74 -250H4L96 500H135L145 459Q187 484 226.5 497Q266 510 307 510Q367 510 404.5 489.5Q442 469 461 434Q480 399 483.5 351.5Q487 304 480 250Q474 196 458.5 148.5Q443 101 415.5 66Q388 31 345.5 10.5Q303 -10 243 -10ZM251 52Q296 52 325 69Q354 86 371 114Q388 142 396.5 177.5Q405 213 410 250Q414 287 414.5 322.5Q415 358 404.5 386Q394 414 369.5 431Q345 448 300 448Q251 448 219 440Q187 432 156 416L115 84Q142 68 172 60Q202 52 251 52Z" glyph-name="p" horiz-adv-x="535" unicode="p" /><glyph d="M453 300H376L340 0H272L308 300H292Q222 300 176.5 318.5Q131 337 105.5 368.5Q80 400 72 440.5Q64 481 69 525Q74 569 92 609.5Q110 650 143.5 681.5Q177 713 227.5 731.5Q278 750 348 750H577L485 0H417ZM143 525Q140 498 142.5 469.5Q145 441 160.5 417Q176 393 207 378Q238 363 291 363H316L356 687H331Q278 687 243.5 672Q209 657 187.5 633Q166 609 156 580.5Q146 552 143 525ZM501 687H424L384 363H461Z" glyph-name="paragraph" horiz-adv-x="590" unicode="&#182;" /><glyph d="M119 -206Q103 -178 87 -130Q71 -82 60.5 -17Q50 48 47.5 129Q45 210 57 305Q69 400 91 481Q113 562 139.5 627Q166 692 194 740Q222 788 245 816H320Q297 788 269 740Q241 692 214 627Q187 562 165 481Q143 400 131 305Q119 210 121.5 129Q124 48 135 -17Q146 -82 162 -130Q178 -178 194 -206Z" glyph-name="parenleft" horiz-adv-x="280" unicode="(" /><glyph d="M-26 -206Q-4 -178 24 -130Q52 -82 79 -17Q106 48 128.5 129Q151 210 163 305Q175 400 172 481Q169 562 158.5 627Q148 692 131.5 740Q115 788 100 816H175Q190 788 206 740Q222 692 233 627Q244 562 246.5 481Q249 400 237 305Q225 210 203 129Q181 48 154 -17Q127 -82 99 -130Q71 -178 49 -206Z" glyph-name="parenright" horiz-adv-x="280" unicode=")" /><glyph d="M475 250Q468 193 453.5 145Q439 97 411.5 62.5Q384 28 340.5 9Q297 -10 233 -10Q169 -10 130.5 9Q92 28 73 62.5Q54 97 51 145Q48 193 55 250Q62 307 76.5 355Q91 403 119 437.5Q147 472 190 491Q233 510 297 510Q342 510 373 497.5Q404 485 424 463Q425 520 418.5 564Q412 608 395 638Q378 668 350 683Q322 698 280 698Q224 698 183.5 689.5Q143 681 122 671L129 731Q148 740 185 750Q222 760 288 760Q364 760 408.5 727.5Q453 695 473 631Q493 567 491.5 471.5Q490 376 475 250ZM405 250Q410 292 411 328.5Q412 365 401.5 391.5Q391 418 365 433Q339 448 290 448Q240 448 210 433Q180 418 163 391.5Q146 365 138 328.5Q130 292 125 250Q120 208 119 171.5Q118 135 128.5 108.5Q139 82 165 67Q191 52 241 52Q290 52 319.5 67Q349 82 366.5 108.5Q384 135 392 171.5Q400 208 405 250Z" glyph-name="partialdiff" horiz-adv-x="530" unicode="&#8706;" /><glyph d="M236 370Q145 370 111 419Q77 468 89 565Q101 662 147 711Q193 760 284 760Q375 760 409 711Q443 662 431 565Q419 468 373 419Q327 370 236 370ZM690 380Q781 380 815 331Q849 282 837 185Q825 88 779 39Q733 -10 642 -10Q551 -10 517 39Q483 88 495 185Q507 282 553 331Q599 380 690 380ZM114 0 736 750H813L191 0ZM683 320Q626 320 597 289.5Q568 259 559 185Q550 111 571.5 80.5Q593 50 650 50Q707 50 735.5 80.5Q764 111 773 185Q782 259 761 289.5Q740 320 683 320ZM243 430Q300 430 329 460.5Q358 491 367 565Q376 639 354.5 669.5Q333 700 276 700Q219 700 190.5 669.5Q162 639 153 565Q144 491 165 460.5Q186 430 243 430Z" glyph-name="percent" horiz-adv-x="895" unicode="%" /><glyph d="M19 40Q19 61 33.5 75.5Q48 90 69 90Q90 90 104.5 75.5Q119 61 119 40Q119 19 104.5 4.5Q90 -10 69 -10Q48 -10 33.5 4.5Q19 19 19 40Z" glyph-name="period" horiz-adv-x="190" unicode="." /><glyph d="M52 305Q52 326 66.5 340.5Q81 355 102 355Q123 355 137.5 340.5Q152 326 152 305Q152 284 137.5 269.5Q123 255 102 255Q81 255 66.5 269.5Q52 284 52 305Z" glyph-name="periodcentered" horiz-adv-x="160" unicode="&#183;" /><glyph d="M236 370Q145 370 111 419Q77 468 89 565Q101 662 147 711Q193 760 284 760Q375 760 409 711Q443 662 431 565Q419 468 373 419Q327 370 236 370ZM690 380Q781 380 815 331Q849 282 837 185Q825 88 779 39Q733 -10 642 -10Q551 -10 517 39Q483 88 495 185Q507 282 553 331Q599 380 690 380ZM1110 380Q1201 380 1235 331Q1269 282 1257 185Q1245 88 1199 39Q1153 -10 1062 -10Q971 -10 937 39Q903 88 915 185Q927 282 973 331Q1019 380 1110 380ZM114 0 736 750H813L191 0ZM243 430Q300 430 329 460.5Q358 491 367 565Q376 639 354.5 669.5Q333 700 276 700Q219 700 190.5 669.5Q162 639 153 565Q144 491 165 460.5Q186 430 243 430ZM1103 320Q1046 320 1017 289.5Q988 259 979 185Q970 111 991.5 80.5Q1013 50 1070 50Q1127 50 1155.5 80.5Q1184 111 1193 185Q1202 259 1181 289.5Q1160 320 1103 320ZM683 320Q626 320 597 289.5Q568 259 559 185Q550 111 571.5 80.5Q593 50 650 50Q707 50 735.5 80.5Q764 111 773 185Q782 259 761 289.5Q740 320 683 320Z" glyph-name="perthousand" horiz-adv-x="1315" unicode="&#8240;" /><glyph d="M199 141 219 308H52L60 374H227L248 541H314L293 374H460L452 308H285L265 141Z" glyph-name="plus" horiz-adv-x="490" unicode="+" /><glyph d="M207 207 227 374H60L69 440H236L256 607H322L302 440H469L460 374H293L273 207ZM24 75 32 141H432L424 75Z" glyph-name="plusminus" horiz-adv-x="490" unicode="&#177;" /><glyph d="M663 689 579 0H508L592 689H256L172 0H101L185 689H89L97 750H767L759 689Z" glyph-name="product" horiz-adv-x="740" unicode="&#8719;" /><glyph d="M228 -10Q168 -10 131 10.5Q94 31 75 66Q56 101 52.5 148.5Q49 196 55 250Q62 304 77 351.5Q92 399 120 434Q148 469 190 489.5Q232 510 292 510Q333 510 369.5 497Q406 484 442 459L462 500H501L409 -250H339L373 31Q338 10 300.5 0Q263 -10 228 -10ZM236 52Q285 52 316.5 60Q348 68 380 84L421 416Q393 432 363.5 440Q334 448 285 448Q240 448 211 431Q182 414 164.5 386Q147 358 138 322.5Q129 287 125 250Q120 213 120 177.5Q120 142 131 114Q142 86 166.5 69Q191 52 236 52Z" glyph-name="q" horiz-adv-x="535" unicode="q" /><glyph d="M235 698Q181 698 141.5 690.5Q102 683 77 675L85 735Q97 740 116.5 744.5Q136 749 158 752.5Q180 756 202 758Q224 760 242 760Q321 760 367 743.5Q413 727 436 699.5Q459 672 463.5 636Q468 600 464 562Q458 515 440.5 483Q423 451 396 428Q369 405 333 388Q297 371 254 354Q225 343 208.5 329.5Q192 316 182.5 298.5Q173 281 169 259.5Q165 238 162 210H125Q123 240 124 268.5Q125 297 137 323Q149 349 174.5 371Q200 393 247 410Q273 419 298 429.5Q323 440 343 456Q363 472 377 497Q391 522 396 561Q400 592 396 617.5Q392 643 375 661Q358 679 324 688.5Q290 698 235 698ZM92 40Q92 61 106.5 75.5Q121 90 142 90Q163 90 177.5 75.5Q192 61 192 40Q192 19 177.5 4.5Q163 -10 142 -10Q121 -10 106.5 4.5Q92 19 92 40Z" glyph-name="question" horiz-adv-x="470" unicode="?" /><glyph d="M235 -198Q289 -198 329 -190.5Q369 -183 393 -175L386 -235Q373 -240 353.5 -244.5Q334 -249 312.5 -252.5Q291 -256 269 -258Q247 -260 229 -260Q150 -260 104 -243.5Q58 -227 34.5 -199.5Q11 -172 6.5 -136Q2 -100 7 -62Q13 -15 30 17Q47 49 74 72Q101 95 136.5 112Q172 129 216 146Q245 157 261.5 170.5Q278 184 287.5 201.5Q297 219 301 240.5Q305 262 308 290H345Q347 260 346 231.5Q345 203 333.5 177Q322 151 296 129Q270 107 224 90Q198 81 173 70.5Q148 60 127.5 44Q107 28 93 3Q79 -22 74 -61Q70 -92 74 -117.5Q78 -143 95 -161Q112 -179 145.5 -188.5Q179 -198 235 -198ZM278 460Q278 481 292.5 495.5Q307 510 328 510Q349 510 363.5 495.5Q378 481 378 460Q378 439 363.5 424.5Q349 410 328 410Q307 410 292.5 424.5Q278 439 278 460Z" glyph-name="questiondown" horiz-adv-x="470" unicode="&#191;" /><glyph d="M107 500V750H207L145 500ZM247 500V750H347L285 500Z" glyph-name="quotedbl" horiz-adv-x="330" unicode="&quot;" /><glyph d="M-28 -175 31 75H126L15 -175ZM121 -175 181 75H276L165 -175Z" glyph-name="quotedblbase" horiz-adv-x="300" unicode="&#8222;" /><glyph d="M329 750 269 500H174L285 750ZM179 750 119 500H24L135 750Z" glyph-name="quotedblleft" horiz-adv-x="300" unicode="&#8220;" /><glyph d="M64 500 124 750H219L108 500ZM214 500 274 750H369L258 500Z" glyph-name="quotedblright" horiz-adv-x="300" unicode="&#8221;" /><glyph d="M179 750 119 500H24L135 750Z" glyph-name="quoteleft" horiz-adv-x="150" unicode="&#8216;" /><glyph d="M64 500 124 750H219L108 500Z" glyph-name="quoteright" horiz-adv-x="150" unicode="&#8217;" /><glyph d="M-28 -175 31 75H126L15 -175Z" glyph-name="quotesinglbase" horiz-adv-x="150" unicode="&#8218;" /><glyph d="M107 500V750H207L145 500Z" glyph-name="quotesingle" horiz-adv-x="190" unicode="&apos;" /><glyph d="M364 440Q340 448 305 448Q254 448 219.5 440Q185 432 156 416L105 0H35L96 500H135L145 458Q183 484 226.5 497Q270 510 312 510Q329 510 343.5 508.5Q358 507 372 505Z" glyph-name="r" horiz-adv-x="363" unicode="r" /><glyph d="M364 440Q340 448 305 448Q254 448 219.5 440Q185 432 156 416L105 0H35L96 500H135L145 458Q183 484 226.5 497Q270 510 312 510Q329 510 343.5 508.5Q358 507 372 505ZM223 550 298 750H378L273 550Z" glyph-name="racute" horiz-adv-x="363" unicode="&#341;" /><glyph d="M797 750 272 -10H191L148 439H43L51 500H215L252 66L715 750Z" glyph-name="radical" horiz-adv-x="740" unicode="&#8730;" /><glyph d="M364 440Q340 448 305 448Q254 448 219.5 440Q185 432 156 416L105 0H35L96 500H135L145 458Q183 484 226.5 497Q270 510 312 510Q329 510 343.5 508.5Q358 507 372 505ZM458 750 288 550H208L88 750H143L255 609L403 750Z" glyph-name="rcaron" horiz-adv-x="363" unicode="&#345;" /><glyph d="M364 440Q340 448 305 448Q254 448 219.5 440Q185 432 156 416L105 0H35L96 500H135L145 458Q183 484 226.5 497Q270 510 312 510Q329 510 343.5 508.5Q358 507 372 505ZM106 -50 26 -250H-24L26 -50Z" glyph-name="rcommaaccent" horiz-adv-x="363" unicode="&#343;" /><glyph d="M220 760Q247 760 271.5 754.5Q296 749 313 734.5Q330 720 337.5 693.5Q345 667 340 625Q335 583 321 557Q307 531 286 516Q265 501 239.5 495.5Q214 490 187 490Q160 490 135.5 495.5Q111 501 94 516Q77 531 69 557Q61 583 66 625Q71 667 85.5 693.5Q100 720 121 734.5Q142 749 167.5 754.5Q193 760 220 760ZM216 728Q194 728 174.5 724.5Q155 721 140 709.5Q125 698 115 678Q105 658 101 625Q97 592 102 572Q107 552 119.5 540.5Q132 529 150.5 525.5Q169 522 191 522Q213 522 232 525.5Q251 529 266 540.5Q281 552 291 572Q301 592 305 625Q309 658 304 678Q299 698 287 709.5Q275 721 256.5 724.5Q238 728 216 728ZM176 604 169 553H137L155 697H219Q247 697 256.5 684Q266 671 263 651Q260 620 237 610L262 553H226L204 604ZM229 651Q231 658 228 662.5Q225 667 213 667H183L179 635H209Q221 635 224.5 639.5Q228 644 229 651Z" glyph-name="registered" horiz-adv-x="314" unicode="&#174;" /><glyph d="M341 702Q318 702 301 690Q284 678 280 650Q277 622 291 610Q305 598 328 598Q351 598 368 610Q385 622 388 650Q392 678 378 690Q364 702 341 702ZM322 549Q277 549 250.5 573.5Q224 598 230 650Q237 702 269.5 726.5Q302 751 347 751Q392 751 418.5 726.5Q445 702 438 650Q432 598 399.5 573.5Q367 549 322 549Z" glyph-name="ring" horiz-adv-x="570" unicode="&#730;" /><glyph d="M356 828Q400 828 403 850Q406 872 362 872Q318 872 315 850Q312 828 356 828ZM368 921Q387 921 403.5 917.5Q420 914 432 906Q444 898 450 884.5Q456 871 453 850Q450 829 441 815.5Q432 802 418 794Q404 786 386.5 782.5Q369 779 350 779Q312 779 286 794Q260 809 265 850Q268 871 277 884.5Q286 898 300 906Q314 914 331.5 917.5Q349 921 368 921Z" glyph-name="ring.cap" horiz-adv-x="570" unicode="&#58410;" /><glyph d="M132 362Q130 345 133 332.5Q136 320 147 311Q158 302 179.5 296Q201 290 237 287Q289 282 322 270.5Q355 259 372.5 241Q390 223 394.5 199Q399 175 395 144Q392 115 378.5 87.5Q365 60 338.5 38Q312 16 272 3Q232 -10 175 -10Q157 -10 136.5 -8Q116 -6 96 -2.5Q76 1 58.5 5.5Q41 10 29 15L37 75Q59 67 94.5 59.5Q130 52 184 52Q223 52 249.5 59.5Q276 67 292.5 80Q309 93 317 109Q325 125 327 143Q329 160 327 174.5Q325 189 314.5 200Q304 211 283 218.5Q262 226 225 229Q171 234 138 245.5Q105 257 88 274.5Q71 292 67 314Q63 336 66 362Q69 389 82 415.5Q95 442 119 463Q143 484 180.5 497Q218 510 271 510Q306 510 343 504.5Q380 499 412 485L405 425Q376 435 344.5 441.5Q313 448 263 448Q226 448 201.5 441.5Q177 435 162.5 423.5Q148 412 141 396Q134 380 132 362Z" glyph-name="s" horiz-adv-x="460" unicode="s" /><glyph d="M132 362Q130 345 133 332.5Q136 320 147 311Q158 302 179.5 296Q201 290 237 287Q289 282 322 270.5Q355 259 372.5 241Q390 223 394.5 199Q399 175 395 144Q392 115 378.5 87.5Q365 60 338.5 38Q312 16 272 3Q232 -10 175 -10Q157 -10 136.5 -8Q116 -6 96 -2.5Q76 1 58.5 5.5Q41 10 29 15L37 75Q59 67 94.5 59.5Q130 52 184 52Q223 52 249.5 59.5Q276 67 292.5 80Q309 93 317 109Q325 125 327 143Q329 160 327 174.5Q325 189 314.5 200Q304 211 283 218.5Q262 226 225 229Q171 234 138 245.5Q105 257 88 274.5Q71 292 67 314Q63 336 66 362Q69 389 82 415.5Q95 442 119 463Q143 484 180.5 497Q218 510 271 510Q306 510 343 504.5Q380 499 412 485L405 425Q376 435 344.5 441.5Q313 448 263 448Q226 448 201.5 441.5Q177 435 162.5 423.5Q148 412 141 396Q134 380 132 362ZM252 550 327 750H407L302 550Z" glyph-name="sacute" horiz-adv-x="460" unicode="&#347;" /><glyph d="M132 362Q130 345 133 332.5Q136 320 147 311Q158 302 179.5 296Q201 290 237 287Q289 282 322 270.5Q355 259 372.5 241Q390 223 394.5 199Q399 175 395 144Q392 115 378.5 87.5Q365 60 338.5 38Q312 16 272 3Q232 -10 175 -10Q157 -10 136.5 -8Q116 -6 96 -2.5Q76 1 58.5 5.5Q41 10 29 15L37 75Q59 67 94.5 59.5Q130 52 184 52Q223 52 249.5 59.5Q276 67 292.5 80Q309 93 317 109Q325 125 327 143Q329 160 327 174.5Q325 189 314.5 200Q304 211 283 218.5Q262 226 225 229Q171 234 138 245.5Q105 257 88 274.5Q71 292 67 314Q63 336 66 362Q69 389 82 415.5Q95 442 119 463Q143 484 180.5 497Q218 510 271 510Q306 510 343 504.5Q380 499 412 485L405 425Q376 435 344.5 441.5Q313 448 263 448Q226 448 201.5 441.5Q177 435 162.5 423.5Q148 412 141 396Q134 380 132 362ZM477 750 307 550H227L107 750H162L274 609L422 750Z" glyph-name="scaron" horiz-adv-x="460" unicode="&#353;" /><glyph d="M132 362Q130 345 133 332.5Q136 320 147 311Q158 302 179.5 296Q201 290 237 287Q289 282 322 270.5Q355 259 372.5 241Q390 223 394.5 199Q399 175 395 144Q392 117 380 90.5Q368 64 344.5 43Q321 22 286 8Q251 -6 201 -9L200 -64Q214 -68 230 -75Q246 -82 258.5 -93Q271 -104 278.5 -121Q286 -138 283 -161Q278 -202 246 -226Q214 -250 161 -250Q120 -250 98.5 -243.5Q77 -237 69 -232L75 -186Q85 -190 97 -193Q108 -195 121 -197Q134 -199 150 -199Q181 -199 200 -190.5Q219 -182 221 -163Q223 -147 217 -136Q211 -125 200 -117.5Q189 -110 173 -106Q157 -102 140 -100L160 -10Q125 -9 87.5 -1.5Q50 6 29 15L37 75Q59 67 94.5 59.5Q130 52 184 52Q223 52 249.5 59.5Q276 67 292.5 80Q309 93 317 109Q325 125 327 143Q329 160 327 174.5Q325 189 314.5 200Q304 211 283 218.5Q262 226 225 229Q171 234 138 245.5Q105 257 88 274.5Q71 292 67 314Q63 336 66 362Q69 389 82 415.5Q95 442 119 463Q143 484 180.5 497Q218 510 271 510Q306 510 343 504.5Q380 499 412 485L405 425Q376 435 344.5 441.5Q313 448 263 448Q226 448 201.5 441.5Q177 435 162.5 423.5Q148 412 141 396Q134 380 132 362Z" glyph-name="scedilla" horiz-adv-x="460" unicode="&#351;" /><glyph d="M132 362Q130 345 133 332.5Q136 320 147 311Q158 302 179.5 296Q201 290 237 287Q289 282 322 270.5Q355 259 372.5 241Q390 223 394.5 199Q399 175 395 144Q392 115 378.5 87.5Q365 60 338.5 38Q312 16 272 3Q232 -10 175 -10Q157 -10 136.5 -8Q116 -6 96 -2.5Q76 1 58.5 5.5Q41 10 29 15L37 75Q59 67 94.5 59.5Q130 52 184 52Q223 52 249.5 59.5Q276 67 292.5 80Q309 93 317 109Q325 125 327 143Q329 160 327 174.5Q325 189 314.5 200Q304 211 283 218.5Q262 226 225 229Q171 234 138 245.5Q105 257 88 274.5Q71 292 67 314Q63 336 66 362Q69 389 82 415.5Q95 442 119 463Q143 484 180.5 497Q218 510 271 510Q306 510 343 504.5Q380 499 412 485L405 425Q376 435 344.5 441.5Q313 448 263 448Q226 448 201.5 441.5Q177 435 162.5 423.5Q148 412 141 396Q134 380 132 362ZM397 550 284 691 137 550H82L252 750H332L452 550Z" glyph-name="scircumflex" horiz-adv-x="460" unicode="&#349;" /><glyph d="M132 362Q130 345 133 332.5Q136 320 147 311Q158 302 179.5 296Q201 290 237 287Q289 282 322 270.5Q355 259 372.5 241Q390 223 394.5 199Q399 175 395 144Q392 115 378.5 87.5Q365 60 338.5 38Q312 16 272 3Q232 -10 175 -10Q157 -10 136.5 -8Q116 -6 96 -2.5Q76 1 58.5 5.5Q41 10 29 15L37 75Q59 67 94.5 59.5Q130 52 184 52Q223 52 249.5 59.5Q276 67 292.5 80Q309 93 317 109Q325 125 327 143Q329 160 327 174.5Q325 189 314.5 200Q304 211 283 218.5Q262 226 225 229Q171 234 138 245.5Q105 257 88 274.5Q71 292 67 314Q63 336 66 362Q69 389 82 415.5Q95 442 119 463Q143 484 180.5 497Q218 510 271 510Q306 510 343 504.5Q380 499 412 485L405 425Q376 435 344.5 441.5Q313 448 263 448Q226 448 201.5 441.5Q177 435 162.5 423.5Q148 412 141 396Q134 380 132 362ZM230 -50 150 -250H100L150 -50Z" glyph-name="scommaaccent" horiz-adv-x="460" unicode="&#537;" /><glyph d="M137 555Q141 588 155.5 624Q170 660 201.5 690Q233 720 285 740Q337 760 416 760Q485 760 531.5 749.5Q578 739 607 725L598 658Q550 680 506.5 688.5Q463 697 407 697Q351 697 314 686Q277 675 254 655.5Q231 636 220 610Q209 584 206 554Q201 516 211 493.5Q221 471 243.5 457Q266 443 299 435Q332 427 374 419Q439 407 481 393Q523 379 546.5 357.5Q570 336 576.5 304.5Q583 273 577 227Q574 206 567 182.5Q560 159 546.5 136.5Q533 114 513 93Q493 72 464 56Q492 15 483 -55Q479 -88 464.5 -124Q450 -160 418.5 -190Q387 -220 335 -240Q283 -260 204 -260Q135 -260 88.5 -249.5Q42 -239 13 -225L21 -158Q45 -169 67.5 -176.5Q90 -184 113 -188.5Q136 -193 160 -195Q184 -197 212 -197Q267 -197 304.5 -186Q342 -175 365 -155.5Q388 -136 399 -110Q410 -84 414 -54Q418 -17 408 6Q398 29 376 43Q354 57 320.5 65Q287 73 245 81Q180 93 138 107Q96 121 72.5 142.5Q49 164 42.5 195Q36 226 42 273Q45 294 52 317.5Q59 341 72.5 363.5Q86 386 106 407Q126 428 155 444Q140 464 136 491.5Q132 519 137 555ZM509 228Q514 267 506.5 289Q499 311 479.5 323.5Q460 336 429 343Q398 350 356 358Q307 366 269 376.5Q231 387 207 401Q160 382 137.5 348Q115 314 110 272Q105 233 112.5 211Q120 189 139.5 176Q159 163 190 156.5Q221 150 263 142Q311 133 349.5 123Q388 113 412 99Q460 118 482 152Q504 186 509 228Z" glyph-name="section" horiz-adv-x="619" unicode="&#167;" /><glyph d="M118 66 29 -125H-21L28 66ZM61 375Q61 396 75.5 410.5Q90 425 111 425Q132 425 146.5 410.5Q161 396 161 375Q161 354 146.5 339.5Q132 325 111 325Q90 325 75.5 339.5Q61 354 61 375Z" glyph-name="semicolon" horiz-adv-x="190" unicode=";" /><glyph d="M85 0 534 688H104L112 750H612L606 702L173 0Z" glyph-name="seven" horiz-adv-x="600" unicode="7" /><glyph d="M395 696Q336 696 292.5 672Q249 648 219 605.5Q189 563 171 503.5Q153 444 144 374Q155 391 172.5 408.5Q190 426 214 440Q238 454 268 463Q298 472 336 472Q413 472 455 448.5Q497 425 516 389.5Q535 354 536 311.5Q537 269 533 231Q528 193 515 150.5Q502 108 473.5 72.5Q445 37 397.5 13.5Q350 -10 277 -10Q196 -10 151 15.5Q106 41 86.5 87.5Q67 134 67 199.5Q67 265 77 345Q88 437 109.5 513.5Q131 590 168.5 644.5Q206 699 263 729.5Q320 760 403 760Q476 760 516 748.5Q556 737 574 726L566 660Q540 674 497.5 685Q455 696 395 696ZM137 231Q133 201 135.5 169.5Q138 138 153 111.5Q168 85 199.5 68.5Q231 52 285 52Q336 52 369 70.5Q402 89 422 116Q442 143 451 174Q460 205 463 231Q466 256 465.5 287.5Q465 319 453 346Q441 373 412 391.5Q383 410 329 410Q276 410 240.5 393Q205 376 183.5 349.5Q162 323 151 291.5Q140 260 137 231Z" glyph-name="six" horiz-adv-x="600" unicode="6" /><glyph d="M-70 -206 402 816H475L2 -206Z" glyph-name="slash" horiz-adv-x="390" unicode="/" /><glyph glyph-name="space" horiz-adv-x="170" unicode=" " /><glyph d="M206 422H485L478 361H199L162 61H531L524 0H5L12 61H92L129 361H49L56 422H136L154 562Q159 605 177 641Q195 677 226.5 703.5Q258 730 303.5 745Q349 760 409 760Q427 760 452.5 757.5Q478 755 504 751Q530 747 553.5 741Q577 735 593 728L586 668Q572 673 551 678Q530 683 505 687.5Q480 692 453.5 695Q427 698 401 698Q315 698 273.5 666.5Q232 635 224 563Z" glyph-name="sterling" horiz-adv-x="600" unicode="&#163;" /><glyph d="M632 750 624 689 209 691 490 409 484 361 107 59 572 61 565 0H10L17 58L423 385L124 692L132 750Z" glyph-name="summation" horiz-adv-x="635" unicode="&#8721;" /><glyph d="M294 -6Q284 -8 271 -9Q258 -10 248 -10Q217 -10 189 -2.5Q161 5 141 21.5Q121 38 110.5 63.5Q100 89 105 126L144 445H44L48 476L152 505L168 640L241 660L221 500H376L369 445H214L176 134Q170 88 191.5 68Q213 48 261 48Q271 48 281 48.5Q291 49 301 50Z" glyph-name="t" horiz-adv-x="375" unicode="t" /><glyph d="M294 -6Q284 -8 271 -9Q258 -10 248 -10Q217 -10 189 -2.5Q161 5 141 21.5Q121 38 110.5 63.5Q100 89 105 126L120 250H20L27 305H127L144 445H44L48 476L152 505L168 640L241 660L221 500H376L369 445H214L197 305H322L315 250H190L176 134Q170 88 191.5 68Q213 48 261 48Q271 48 281 48.5Q291 49 301 50Z" glyph-name="tbar" horiz-adv-x="377" unicode="&#359;" /><glyph d="M294 -6Q284 -8 271 -9Q258 -10 248 -10Q217 -10 189 -2.5Q161 5 141 21.5Q121 38 110.5 63.5Q100 89 105 126L144 445H44L48 476L152 505L168 640L241 660L221 500H376L369 445H214L176 134Q170 88 191.5 68Q213 48 261 48Q271 48 281 48.5Q291 49 301 50ZM397 750 324 550H278L319 750Z" glyph-name="tcaron" horiz-adv-x="375" unicode="&#357;" /><glyph d="M294 -6Q284 -8 271 -9Q258 -10 248 -10Q217 -10 189 -2.5Q161 5 141 21.5Q121 38 110.5 63.5Q100 89 105 126L144 445H44L48 476L152 505L168 640L241 660L221 500H376L369 445H214L176 134Q170 88 191.5 68Q213 48 261 48Q271 48 281 48.5Q291 49 301 50ZM215 -50 135 -250H85L135 -50Z" glyph-name="tcommaaccent" horiz-adv-x="375" unicode="&#355;" /><glyph d="M480 250Q474 196 458.5 148.5Q443 101 415.5 66Q388 31 345.5 10.5Q303 -10 243 -10Q208 -10 173 0Q138 10 108 31L74 -250H4L127 750H197L162 469Q197 490 234.5 500Q272 510 307 510Q367 510 404.5 489.5Q442 469 461 434Q480 399 483.5 351.5Q487 304 480 250ZM300 448Q251 448 219 440Q187 432 156 416L115 84Q142 68 172 60Q202 52 251 52Q296 52 325 69Q354 86 371 114Q388 142 396.5 177.5Q405 213 410 250Q414 287 414.5 322.5Q415 358 404.5 386Q394 414 369.5 431Q345 448 300 448Z" glyph-name="thorn" horiz-adv-x="535" unicode="&#254;" /><glyph d="M234 54Q297 54 338.5 67Q380 80 405.5 101.5Q431 123 443 151.5Q455 180 459 211Q469 290 429 323Q389 356 296 356H160L168 422H304Q346 422 377.5 434Q409 446 430 465.5Q451 485 462.5 509Q474 533 477 558Q480 587 475 612Q470 637 451.5 656Q433 675 397.5 685.5Q362 696 305 696Q279 696 255.5 694Q232 692 209 687.5Q186 683 162.5 675.5Q139 668 112 657L121 725Q153 739 200 749.5Q247 760 312 760Q388 760 437 744.5Q486 729 513 701.5Q540 674 548 637Q556 600 551 558Q548 531 536.5 505.5Q525 480 507.5 458.5Q490 437 467 420Q444 403 419 394Q450 387 473.5 370Q497 353 511.5 328.5Q526 304 531.5 274Q537 244 533 211Q528 166 509.5 125.5Q491 85 455 55Q419 25 362.5 7.5Q306 -10 225 -10Q160 -10 112 0.5Q64 11 35 25L43 93Q91 71 136 62.5Q181 54 234 54Z" glyph-name="three" horiz-adv-x="600" unicode="3" /><glyph d="M217 331Q173 331 128 336.5Q83 342 58 353L65 415Q117 399 156.5 395.5Q196 392 226 392Q286 392 317.5 410Q349 428 353 460Q355 478 352.5 491Q350 504 340.5 511.5Q331 519 314 522.5Q297 526 271 526H154L161 584H277Q322 584 339 599Q356 614 359 643Q363 669 339 683.5Q315 698 261 698Q223 698 189 694Q155 690 105 678L112 739Q140 750 182 755Q224 760 268 760Q439 760 424 643Q420 611 404.5 591Q389 571 372 563Q395 554 410.5 528.5Q426 503 421 459Q414 402 363.5 366.5Q313 331 217 331ZM320 0 942 750H1019L397 0ZM1165 0H1100L1114 118H881L886 159L1168 419H1216L1186 179H1271L1264 118H1179ZM1121 179 1139 318 986 179Z" glyph-name="threequarters" horiz-adv-x="1300" unicode="&#190;" /><glyph d="M217 331Q173 331 128 336.5Q83 342 58 353L65 415Q117 399 156.5 395.5Q196 392 226 392Q286 392 317.5 410Q349 428 353 460Q355 478 352.5 491Q350 504 340.5 511.5Q331 519 314 522.5Q297 526 271 526H154L161 584H277Q322 584 339 599Q356 614 359 643Q363 669 339 683.5Q315 698 261 698Q223 698 189 694Q155 690 105 678L112 739Q140 750 182 755Q224 760 268 760Q439 760 424 643Q420 611 404.5 591Q389 571 372 563Q395 554 410.5 528.5Q426 503 421 459Q414 402 363.5 366.5Q313 331 217 331Z" glyph-name="threesuperior" horiz-adv-x="430" unicode="&#179;" /><glyph d="M410 644Q427 644 437 649Q447 654 453 662Q459 670 461.5 678.5Q464 687 465 695H521Q518 642 485 613.5Q452 585 398 585Q367 585 349.5 596Q332 607 318.5 620.5Q305 634 292.5 645Q280 656 259 656Q242 656 231.5 651Q221 646 215 638Q209 630 207 621Q205 612 204 605H148Q150 658 183 686.5Q216 715 270 715Q301 715 319 704Q337 693 350.5 679.5Q364 666 376.5 655Q389 644 410 644Z" glyph-name="tilde" horiz-adv-x="570" unicode="&#732;" /><glyph d="M435 849Q452 849 462.5 854Q473 859 479 867Q485 875 487 883.5Q489 892 490 900H546Q543 847 510 818.5Q477 790 423 790Q396 790 378 799.5Q360 809 345 820.5Q330 832 316 841.5Q302 851 283 851Q266 851 255.5 846Q245 841 239 833Q233 825 231 816Q229 807 228 800H172Q174 853 207 881.5Q240 910 294 910Q321 910 339.5 900.5Q358 891 373 879.5Q388 868 402 858.5Q416 849 435 849Z" glyph-name="tilde.cap" horiz-adv-x="570" unicode="&#58404;" /><glyph d="M180 712 154 500H110L136 712H56L61 750H265L260 712ZM395 531 341 689 320 500H278L309 750H364L420 581L519 750H573L542 500H500L525 689L433 531Z" glyph-name="trademark" horiz-adv-x="545" unicode="&#8482;" /><glyph d="M510 560Q514 589 510.5 614Q507 639 491 657Q475 675 443 685.5Q411 696 359 696Q333 696 309.5 694Q286 692 263 687.5Q240 683 216.5 675.5Q193 668 166 657L175 725Q207 739 254 749.5Q301 760 366 760Q445 760 490 740.5Q535 721 556.5 691.5Q578 662 581.5 626.5Q585 591 581 560Q575 512 553.5 466.5Q532 421 481 365Q430 309 344 236.5Q258 164 124 63L520 65L513 0H27L33 51Q143 135 220 198.5Q297 262 349 309.5Q401 357 431.5 392.5Q462 428 478.5 456.5Q495 485 501 509.5Q507 534 510 560Z" glyph-name="two" horiz-adv-x="600" unicode="2" /><glyph d="M46 341 53 391Q142 445 197 480Q252 515 283 540Q314 565 326 584.5Q338 604 341 628Q345 660 324 678.5Q303 697 246 697Q220 697 186 692Q152 687 108 675L116 736Q129 741 146.5 745.5Q164 750 182.5 753Q201 756 219.5 758Q238 760 253 760Q301 760 332 749.5Q363 739 380.5 721Q398 703 403.5 678.5Q409 654 406 627Q402 596 382 568.5Q362 541 328.5 514.5Q295 488 250 460.5Q205 433 151 401H395L387 341Z" glyph-name="twosuperior" horiz-adv-x="416" unicode="&#178;" /><glyph d="M116 137Q110 88 134.5 70Q159 52 206 52Q255 52 285 60Q315 68 345 84L396 500H466L405 0H366L356 42Q279 -10 198 -10Q108 -10 73 29Q38 68 47 140L91 500H161Z" glyph-name="u" horiz-adv-x="500" unicode="u" /><glyph d="M116 137Q110 88 134.5 70Q159 52 206 52Q255 52 285 60Q315 68 345 84L396 500H466L405 0H366L356 42Q279 -10 198 -10Q108 -10 73 29Q38 68 47 140L91 500H161ZM260 550 335 750H415L310 550Z" glyph-name="uacute" horiz-adv-x="500" unicode="&#250;" /><glyph d="M116 137Q110 88 134.5 70Q159 52 206 52Q255 52 285 60Q315 68 345 84L396 500H466L405 0H366L356 42Q279 -10 198 -10Q108 -10 73 29Q38 68 47 140L91 500H161ZM285 550Q114 550 135 750H186Q182 716 184.5 690Q187 664 199 646Q211 628 233.5 619Q256 610 292 610Q328 610 353 619Q378 628 394 646Q410 664 419.5 690Q429 716 434 750H485Q455 550 285 550Z" glyph-name="ubreve" horiz-adv-x="500" unicode="&#365;" /><glyph d="M116 137Q110 88 134.5 70Q159 52 206 52Q255 52 285 60Q315 68 345 84L396 500H466L405 0H366L356 42Q279 -10 198 -10Q108 -10 73 29Q38 68 47 140L91 500H161ZM415 550 302 691 155 550H100L270 750H350L470 550Z" glyph-name="ucircumflex" horiz-adv-x="500" unicode="&#251;" /><glyph d="M116 137Q110 88 134.5 70Q159 52 206 52Q255 52 285 60Q315 68 345 84L396 500H466L405 0H366L356 42Q279 -10 198 -10Q108 -10 73 29Q38 68 47 140L91 500H161ZM152 650Q152 671 166.5 685.5Q181 700 202 700Q223 700 237.5 685.5Q252 671 252 650Q252 629 237.5 614.5Q223 600 202 600Q181 600 166.5 614.5Q152 629 152 650ZM342 650Q342 671 356.5 685.5Q371 700 392 700Q413 700 427.5 685.5Q442 671 442 650Q442 629 427.5 614.5Q413 600 392 600Q371 600 356.5 614.5Q342 629 342 650Z" glyph-name="udieresis" horiz-adv-x="500" unicode="&#252;" /><glyph d="M116 137Q110 88 134.5 70Q159 52 206 52Q255 52 285 60Q315 68 345 84L396 500H466L405 0H366L356 42Q279 -10 198 -10Q108 -10 73 29Q38 68 47 140L91 500H161ZM260 550 205 750H285L310 550Z" glyph-name="ugrave" horiz-adv-x="500" unicode="&#249;" /><glyph d="M116 137Q110 88 134.5 70Q159 52 206 52Q255 52 285 60Q315 68 345 84L396 500H466L405 0H366L356 42Q279 -10 198 -10Q108 -10 73 29Q38 68 47 140L91 500H161ZM320 550 395 750H475L370 550ZM200 550 275 750H355L250 550Z" glyph-name="uhungarumlaut" horiz-adv-x="500" unicode="&#369;" /><glyph d="M116 137Q110 88 134.5 70Q159 52 206 52Q255 52 285 60Q315 68 345 84L396 500H466L405 0H366L356 42Q279 -10 198 -10Q108 -10 73 29Q38 68 47 140L91 500H161ZM164 680H438L431 620H157Z" glyph-name="umacron" horiz-adv-x="500" unicode="&#363;" /><glyph d="M-41 -95H238L230 -155H-49Z" glyph-name="underscore" horiz-adv-x="280" unicode="_" /><glyph d="M283 272H33L41 338H291Z" glyph-name="uni00AD" horiz-adv-x="310" unicode="&#173;" /><glyph d="M116 137Q110 88 134.5 70Q159 52 206 52Q255 52 285 60Q315 68 345 84L396 500H466L405 0Q352 -27 319 -65Q286 -103 281 -142Q278 -165 288.5 -182Q299 -199 328 -199Q345 -199 360 -196.5Q375 -194 386 -191L380 -239Q366 -244 348 -247Q330 -250 308 -250Q263 -250 238 -225Q213 -200 218 -155Q225 -104 261 -57.5Q297 -11 360 21L356 42Q279 -10 198 -10Q108 -10 73 29Q38 68 47 140L91 500H161Z" glyph-name="uogonek" horiz-adv-x="500" unicode="&#371;" /><glyph d="M116 137Q110 88 134.5 70Q159 52 206 52Q255 52 285 60Q315 68 345 84L396 500H466L405 0H366L356 42Q279 -10 198 -10Q108 -10 73 29Q38 68 47 140L91 500H161ZM304 702Q281 702 264 690Q247 678 243 650Q240 622 254 610Q268 598 291 598Q314 598 331 610Q348 622 351 650Q355 678 341 690Q327 702 304 702ZM285 549Q240 549 213.5 573.5Q187 598 193 650Q200 702 232.5 726.5Q265 751 310 751Q355 751 381.5 726.5Q408 702 401 650Q395 598 362.5 573.5Q330 549 285 549Z" glyph-name="uring" horiz-adv-x="500" unicode="&#367;" /><glyph d="M116 137Q110 88 134.5 70Q159 52 206 52Q255 52 285 60Q315 68 345 84L396 500H466L405 0H366L356 42Q279 -10 198 -10Q108 -10 73 29Q38 68 47 140L91 500H161ZM373 644Q390 644 400 649Q410 654 416 662Q422 670 424.5 678.5Q427 687 428 695H484Q481 642 448 613.5Q415 585 361 585Q330 585 312.5 596Q295 607 281.5 620.5Q268 634 255.5 645Q243 656 222 656Q205 656 194.5 651Q184 646 178 638Q172 630 170 621Q168 612 167 605H111Q113 658 146 686.5Q179 715 233 715Q264 715 282 704Q300 693 313.5 679.5Q327 666 339.5 655Q352 644 373 644Z" glyph-name="utilde" horiz-adv-x="500" unicode="&#361;" /><glyph d="M128 500 221 90 414 500H491L233 -10H183L51 500Z" glyph-name="v" horiz-adv-x="480" unicode="v" /><glyph d="M711 500 507 -10H455L372 425L181 -10H129L51 500H126L172 108L344 500H418L494 108L636 500Z" glyph-name="w" horiz-adv-x="700" unicode="w" /><glyph d="M711 500 507 -10H455L372 425L181 -10H129L51 500H126L172 108L344 500H418L494 108L636 500ZM362 550 437 750H517L412 550Z" glyph-name="wacute" horiz-adv-x="700" unicode="&#7811;" /><glyph d="M711 500 507 -10H455L372 425L181 -10H129L51 500H126L172 108L344 500H418L494 108L636 500ZM517 550 404 691 257 550H202L372 750H452L572 550Z" glyph-name="wcircumflex" horiz-adv-x="700" unicode="&#373;" /><glyph d="M711 500 507 -10H455L372 425L181 -10H129L51 500H126L172 108L344 500H418L494 108L636 500ZM254 650Q254 671 268.5 685.5Q283 700 304 700Q325 700 339.5 685.5Q354 671 354 650Q354 629 339.5 614.5Q325 600 304 600Q283 600 268.5 614.5Q254 629 254 650ZM444 650Q444 671 458.5 685.5Q473 700 494 700Q515 700 529.5 685.5Q544 671 544 650Q544 629 529.5 614.5Q515 600 494 600Q473 600 458.5 614.5Q444 629 444 650Z" glyph-name="wdieresis" horiz-adv-x="700" unicode="&#7813;" /><glyph d="M711 500 507 -10H455L372 425L181 -10H129L51 500H126L172 108L344 500H418L494 108L636 500ZM362 550 307 750H387L412 550Z" glyph-name="wgrave" horiz-adv-x="700" unicode="&#7809;" /><glyph d="M-10 0 206 257 61 500H144L252 304L408 500H491L286 257L440 0H357L240 210L73 0Z" glyph-name="x" horiz-adv-x="490" unicode="x" /><glyph d="M167 -261Q131 -261 91.5 -254.5Q52 -248 21 -234L28 -174Q57 -184 90.5 -193Q124 -202 175 -202Q225 -202 254 -186.5Q283 -171 299 -147Q315 -123 320.5 -94.5Q326 -66 330 -40L338 31Q271 -10 198 -10Q108 -10 73 29Q38 68 47 140L91 500H161L116 137Q110 88 134.5 70Q159 52 206 52Q255 52 285 60Q315 68 345 84L396 500H466L400 -40Q394 -87 382 -127Q370 -167 345 -197Q320 -227 277 -244Q234 -261 167 -261Z" glyph-name="y" horiz-adv-x="500" unicode="y" /><glyph d="M167 -261Q131 -261 91.5 -254.5Q52 -248 21 -234L28 -174Q57 -184 90.5 -193Q124 -202 175 -202Q225 -202 254 -186.5Q283 -171 299 -147Q315 -123 320.5 -94.5Q326 -66 330 -40L338 31Q271 -10 198 -10Q108 -10 73 29Q38 68 47 140L91 500H161L116 137Q110 88 134.5 70Q159 52 206 52Q255 52 285 60Q315 68 345 84L396 500H466L400 -40Q394 -87 382 -127Q370 -167 345 -197Q320 -227 277 -244Q234 -261 167 -261ZM260 550 335 750H415L310 550Z" glyph-name="yacute" horiz-adv-x="500" unicode="&#253;" /><glyph d="M167 -261Q131 -261 91.5 -254.5Q52 -248 21 -234L28 -174Q57 -184 90.5 -193Q124 -202 175 -202Q225 -202 254 -186.5Q283 -171 299 -147Q315 -123 320.5 -94.5Q326 -66 330 -40L338 31Q271 -10 198 -10Q108 -10 73 29Q38 68 47 140L91 500H161L116 137Q110 88 134.5 70Q159 52 206 52Q255 52 285 60Q315 68 345 84L396 500H466L400 -40Q394 -87 382 -127Q370 -167 345 -197Q320 -227 277 -244Q234 -261 167 -261ZM415 550 302 691 155 550H100L270 750H350L470 550Z" glyph-name="ycircumflex" horiz-adv-x="500" unicode="&#375;" /><glyph d="M167 -261Q131 -261 91.5 -254.5Q52 -248 21 -234L28 -174Q57 -184 90.5 -193Q124 -202 175 -202Q225 -202 254 -186.5Q283 -171 299 -147Q315 -123 320.5 -94.5Q326 -66 330 -40L338 31Q271 -10 198 -10Q108 -10 73 29Q38 68 47 140L91 500H161L116 137Q110 88 134.5 70Q159 52 206 52Q255 52 285 60Q315 68 345 84L396 500H466L400 -40Q394 -87 382 -127Q370 -167 345 -197Q320 -227 277 -244Q234 -261 167 -261ZM152 650Q152 671 166.5 685.5Q181 700 202 700Q223 700 237.5 685.5Q252 671 252 650Q252 629 237.5 614.5Q223 600 202 600Q181 600 166.5 614.5Q152 629 152 650ZM342 650Q342 671 356.5 685.5Q371 700 392 700Q413 700 427.5 685.5Q442 671 442 650Q442 629 427.5 614.5Q413 600 392 600Q371 600 356.5 614.5Q342 629 342 650Z" glyph-name="ydieresis" horiz-adv-x="500" unicode="&#255;" /><glyph d="M72 750H157L299 365L537 750H622L447 484H559L551 418H404L347 332H540L532 266H322L290 0H220L252 266H42L50 332H243L208 418H61L69 484H181Z" glyph-name="yen" horiz-adv-x="600" unicode="&#165;" /><glyph d="M5 0 10 45 352 441H74L81 500H446L440 455L99 59H402L395 0Z" glyph-name="z" horiz-adv-x="455" unicode="z" /><glyph d="M5 0 10 45 352 441H74L81 500H446L440 455L99 59H402L395 0ZM238 550 313 750H393L288 550Z" glyph-name="zacute" horiz-adv-x="450" unicode="&#378;" /><glyph d="M5 0 10 45 352 441H74L81 500H446L440 455L99 59H402L395 0ZM473 750 303 550H223L103 750H158L270 609L418 750Z" glyph-name="zcaron" horiz-adv-x="450" unicode="&#158;" /><glyph d="M5 0 10 45 352 441H74L81 500H446L440 455L99 59H402L395 0ZM225 650Q225 671 239.5 685.5Q254 700 275 700Q296 700 310.5 685.5Q325 671 325 650Q325 629 310.5 614.5Q296 600 275 600Q254 600 239.5 614.5Q225 629 225 650Z" glyph-name="zdotaccent" horiz-adv-x="450" unicode="&#380;" /><glyph d="M546 375Q535 287 520.5 216Q506 145 477 94.5Q448 44 398.5 17Q349 -10 268 -10Q188 -10 145.5 17Q103 44 86 94.5Q69 145 72 216Q75 287 86 375Q96 463 110.5 534Q125 605 154.5 655.5Q184 706 233.5 733Q283 760 363 760Q444 760 486.5 733Q529 706 546 655.5Q563 605 559.5 534Q556 463 546 375ZM476 375Q485 447 489 506.5Q493 566 482.5 608.5Q472 651 442.5 674.5Q413 698 355 698Q296 698 260.5 674.5Q225 651 205 608.5Q185 566 175 506.5Q165 447 156 375Q147 303 142.5 243.5Q138 184 148 141.5Q158 99 187.5 75.5Q217 52 276 52Q334 52 369.5 75.5Q405 99 425.5 141.5Q446 184 456.5 243.5Q467 303 476 375Z" glyph-name="zero" horiz-adv-x="600" unicode="0" /></font>
</defs>
</svg>
