<?xml version="1.0" standalone="no"?><!DOCTYPE svg PUBLIC "-//W3C//DTD SVG 1.1//EN" "http://www.w3.org/Graphics/SVG/1.1/DTD/svg11.dtd" ><svg version="1.1" xmlns="http://www.w3.org/2000/svg"><defs><font horiz-adv-x="0" id="font"><font-face ascent="750" bbox="-113 -255 1266.2816 1000" cap-height="750" descent="-250" font-family="Apex New Web" font-stretch="normal" font-style="normal" font-weight="600" units-per-em="1000" x-height="500" /><missing-glyph d="M65 750H815V0H65ZM440 422 702 684H178ZM178 66H702L440 328ZM744 118V632L487 375ZM136 632V118L393 375Z" horiz-adv-x="880" /><glyph glyph-name=".null" horiz-adv-x="0" /><glyph d="M522 0 471 221H112L8 0H-5L354 755H360L535 0ZM117 233H468L355 735Z" glyph-name="A" horiz-adv-x="590" unicode="A" /><glyph d="M849 384H494L515 12H841L840 0H502L490 221H142L4 0H-11L460 750H932L930 738H474L493 396H850ZM149 233H489L463 735Z" glyph-name="AE" horiz-adv-x="920" unicode="&#198;" /><glyph d="M522 0 471 221H112L8 0H-5L354 755H360L535 0ZM117 233H468L355 735ZM358 800 432 900H445L368 800Z" glyph-name="Aacute" horiz-adv-x="590" unicode="&#193;" /><glyph d="M522 0 471 221H112L8 0H-5L354 755H360L535 0ZM117 233H468L355 735ZM365 790Q329 790 301.5 795.5Q274 801 255.5 813.5Q237 826 228.5 847Q220 868 224 900H234Q229 849 259.5 824.5Q290 800 367 800Q444 800 480.5 824.5Q517 849 524 900H534Q526 837 481.5 813.5Q437 790 365 790Z" glyph-name="Abreve" horiz-adv-x="590" unicode="&#258;" /><glyph d="M522 0 471 221H112L8 0H-5L354 755H360L535 0ZM117 233H468L355 735ZM502 800 374 891 224 800H210L372 900H378L516 800Z" glyph-name="Acircumflex" horiz-adv-x="590" unicode="&#194;" /><glyph d="M522 0 471 221H112L8 0H-5L354 755H360L535 0ZM117 233H468L355 735ZM449 850Q449 856 453.5 860.5Q458 865 464 865Q470 865 474.5 860.5Q479 856 479 850Q479 844 474.5 839.5Q470 835 464 835Q458 835 453.5 839.5Q449 844 449 850ZM259 850Q259 856 263.5 860.5Q268 865 274 865Q280 865 284.5 860.5Q289 856 289 850Q289 844 284.5 839.5Q280 835 274 835Q268 835 263.5 839.5Q259 844 259 850Z" glyph-name="Adieresis" horiz-adv-x="590" unicode="&#196;" /><glyph d="M522 0 471 221H112L8 0H-5L354 755H360L535 0ZM117 233H468L355 735ZM358 800 305 900H318L368 800Z" glyph-name="Agrave" horiz-adv-x="590" unicode="&#192;" /><glyph d="M522 0 471 221H112L8 0H-5L354 755H360L535 0ZM117 233H468L355 735ZM490 845H246L247 855H491Z" glyph-name="Amacron" horiz-adv-x="590" unicode="&#256;" /><glyph d="M535 0Q514 -8 489 -22.5Q464 -37 441.5 -57Q419 -77 403 -103.5Q387 -130 383 -161Q378 -200 393.5 -220Q409 -240 457 -240Q472 -240 485.5 -238Q499 -236 511 -233L510 -243Q499 -246 484.5 -248Q470 -250 450 -250Q413 -250 388.5 -231.5Q364 -213 370 -165Q374 -133 388.5 -106.5Q403 -80 423.5 -59Q444 -38 469 -22.5Q494 -7 520 4L471 221H112L8 0H-5L354 755H360ZM117 233H468L355 735Z" glyph-name="Aogonek" horiz-adv-x="590" unicode="&#260;" /><glyph d="M522 0 471 221H112L8 0H-5L354 755H360L535 0ZM117 233H468L355 735ZM363 774Q342 774 323 777.5Q304 781 291 789.5Q278 798 271.5 812.5Q265 827 268 850Q271 873 281 887.5Q291 902 306 910.5Q321 919 340.5 922.5Q360 926 381 926Q402 926 420.5 922.5Q439 919 452.5 910.5Q466 902 472.5 887.5Q479 873 476 850Q473 827 463 812.5Q453 798 438 789.5Q423 781 403.5 777.5Q384 774 363 774ZM380 916Q362 916 344.5 913.5Q327 911 313 904Q299 897 290 884Q281 871 278 850Q275 829 281.5 816Q288 803 300 796Q312 789 329 786.5Q346 784 364 784Q382 784 399.5 786.5Q417 789 431 796Q445 803 454 816Q463 829 466 850Q469 871 462.5 884Q456 897 444 904Q432 911 415 913.5Q398 916 380 916Z" glyph-name="Aring" horiz-adv-x="590" unicode="&#197;" /><glyph d="M522 0 471 221H112L8 0H-5L354 755H360L535 0ZM117 233H468L355 735ZM524 884Q506 810 437 810Q410 810 394.5 821Q379 832 366 845Q353 858 339 869Q325 880 300 880Q273 880 253 864Q233 848 225 816H214Q232 890 301 890Q328 890 343.5 879Q359 868 371.5 855Q384 842 398.5 831Q413 820 438 820Q465 820 485 836Q505 852 513 884Z" glyph-name="Atilde" horiz-adv-x="590" unicode="&#195;" /><glyph d="M373 391Q467 390 504.5 344.5Q542 299 530 197Q525 155 510 119Q495 83 465 56.5Q435 30 387 15Q339 0 267 0H35L127 750H361Q423 750 462 736.5Q501 723 522 698.5Q543 674 548.5 640.5Q554 607 549 567Q540 493 496.5 445.5Q453 398 373 391ZM48 12H273Q340 12 385.5 27.5Q431 43 458.5 68.5Q486 94 499.5 127.5Q513 161 518 197Q524 251 517 286.5Q510 322 486.5 344Q463 366 423 375Q383 384 323 384H94ZM536 567Q540 601 537 632Q534 663 515.5 686.5Q497 710 459.5 724Q422 738 358 738H137L95 396H324Q380 396 418.5 410Q457 424 482 447.5Q507 471 519.5 502Q532 533 536 567Z" glyph-name="B" horiz-adv-x="571" unicode="B" /><glyph d="M66 375Q77 466 99.5 537Q122 608 161.5 656.5Q201 705 259 730Q317 755 399 755Q464 755 505.5 747.5Q547 740 575 729L574 718Q532 734 491.5 739.5Q451 745 398 745Q249 745 174.5 653Q100 561 78 375Q66 282 72.5 212.5Q79 143 106 97Q133 51 182.5 28Q232 5 307 5Q360 5 402 10.5Q444 16 489 32L488 21Q457 10 414 2.5Q371 -5 306 -5Q224 -5 172 20Q120 45 93 93.5Q66 142 60.5 213Q55 284 66 375Z" glyph-name="C" horiz-adv-x="566" unicode="C" /><glyph d="M66 375Q77 466 99.5 537Q122 608 161.5 656.5Q201 705 259 730Q317 755 399 755Q464 755 505.5 747.5Q547 740 575 729L574 718Q532 734 491.5 739.5Q451 745 398 745Q249 745 174.5 653Q100 561 78 375Q66 282 72.5 212.5Q79 143 106 97Q133 51 182.5 28Q232 5 307 5Q360 5 402 10.5Q444 16 489 32L488 21Q457 10 414 2.5Q371 -5 306 -5Q224 -5 172 20Q120 45 93 93.5Q66 142 60.5 213Q55 284 66 375ZM373 800 447 900H460L383 800Z" glyph-name="Cacute" horiz-adv-x="566" unicode="&#262;" /><glyph d="M66 375Q77 466 99.5 537Q122 608 161.5 656.5Q201 705 259 730Q317 755 399 755Q464 755 505.5 747.5Q547 740 575 729L574 718Q532 734 491.5 739.5Q451 745 398 745Q249 745 174.5 653Q100 561 78 375Q66 282 72.5 212.5Q79 143 106 97Q133 51 182.5 28Q232 5 307 5Q360 5 402 10.5Q444 16 489 32L488 21Q457 10 414 2.5Q371 -5 306 -5Q224 -5 172 20Q120 45 93 93.5Q66 142 60.5 213Q55 284 66 375ZM251 900 379 809 529 900H543L381 800H375L237 900Z" glyph-name="Ccaron" horiz-adv-x="566" unicode="&#268;" /><glyph d="M275 -4Q203 0 157 27.5Q111 55 87 103.5Q63 152 59 220Q55 288 66 375Q77 466 99.5 537Q122 608 161.5 656.5Q201 705 259 730Q317 755 399 755Q464 755 505.5 747.5Q547 740 575 729L574 718Q532 734 491.5 739.5Q451 745 398 745Q249 745 174.5 653Q100 561 78 375Q66 282 72.5 212.5Q79 143 106 97Q133 51 182.5 28Q232 5 307 5Q360 5 402 10.5Q444 16 489 32L488 21Q457 10 414 2.5Q371 -5 306 -5Q300 -5 294 -5Q288 -5 283 -4L277 -67Q317 -77 341.5 -102Q366 -127 361 -168Q358 -191 347.5 -206.5Q337 -222 322 -232Q307 -242 289 -246Q271 -250 253 -250Q227 -250 209 -245.5Q191 -241 179 -236L180 -226Q191 -231 211 -235.5Q231 -240 248 -240Q296 -240 320 -221Q344 -202 349 -168Q354 -130 330 -107Q306 -84 264 -76Z" glyph-name="Ccedilla" horiz-adv-x="566" unicode="&#199;" /><glyph d="M66 375Q77 466 99.5 537Q122 608 161.5 656.5Q201 705 259 730Q317 755 399 755Q464 755 505.5 747.5Q547 740 575 729L574 718Q532 734 491.5 739.5Q451 745 398 745Q249 745 174.5 653Q100 561 78 375Q66 282 72.5 212.5Q79 143 106 97Q133 51 182.5 28Q232 5 307 5Q360 5 402 10.5Q444 16 489 32L488 21Q457 10 414 2.5Q371 -5 306 -5Q224 -5 172 20Q120 45 93 93.5Q66 142 60.5 213Q55 284 66 375ZM517 800 389 891 239 800H225L387 900H393L531 800Z" glyph-name="Ccircumflex" horiz-adv-x="566" unicode="&#264;" /><glyph d="M66 375Q77 466 99.5 537Q122 608 161.5 656.5Q201 705 259 730Q317 755 399 755Q464 755 505.5 747.5Q547 740 575 729L574 718Q532 734 491.5 739.5Q451 745 398 745Q249 745 174.5 653Q100 561 78 375Q66 282 72.5 212.5Q79 143 106 97Q133 51 182.5 28Q232 5 307 5Q360 5 402 10.5Q444 16 489 32L488 21Q457 10 414 2.5Q371 -5 306 -5Q224 -5 172 20Q120 45 93 93.5Q66 142 60.5 213Q55 284 66 375ZM369 850Q369 856 373.5 860.5Q378 865 384 865Q390 865 394.5 860.5Q399 856 399 850Q399 844 394.5 839.5Q390 835 384 835Q378 835 373.5 839.5Q369 844 369 850Z" glyph-name="Cdotaccent" horiz-adv-x="566" unicode="&#266;" /><glyph d="M35 0 127 750H343Q431 750 483 724.5Q535 699 560 650.5Q585 602 587.5 532.5Q590 463 580 375Q569 287 549.5 217.5Q530 148 493 99.5Q456 51 397.5 25.5Q339 0 251 0ZM49 12H244Q327 12 383.5 34Q440 56 476.5 101Q513 146 533.5 214.5Q554 283 566 375Q577 467 573.5 535.5Q570 604 544 649Q518 694 467 716Q416 738 333 738H138Z" glyph-name="D" horiz-adv-x="614" unicode="D" /><glyph d="M35 0 127 750H343Q431 750 483 724.5Q535 699 560 650.5Q585 602 587.5 532.5Q590 463 580 375Q569 287 549.5 217.5Q530 148 493 99.5Q456 51 397.5 25.5Q339 0 251 0ZM49 12H244Q327 12 383.5 34Q440 56 476.5 101Q513 146 533.5 214.5Q554 283 566 375Q577 467 573.5 535.5Q570 604 544 649Q518 694 467 716Q416 738 333 738H138ZM236 900 364 809 514 900H528L366 800H360L222 900Z" glyph-name="Dcaron" horiz-adv-x="614" unicode="&#270;" /><glyph d="M103 0 148 370H40L41 382H149L195 750H411Q499 750 551 724.5Q603 699 628 650.5Q653 602 655.5 532.5Q658 463 648 375Q637 287 617.5 217.5Q598 148 561 99.5Q524 51 465.5 25.5Q407 0 319 0ZM371 370H161L117 12H312Q395 12 451.5 34Q508 56 544.5 101Q581 146 601.5 214.5Q622 283 634 375Q645 467 641.5 535.5Q638 604 612 649Q586 694 535 716Q484 738 401 738H206L162 382H372Z" glyph-name="Dcroat" horiz-adv-x="649" unicode="&#272;" /><glyph d="M-9 9 460 755H474L761 9L760 0H-10ZM466 742 6 11H746Z" glyph-name="Delta" horiz-adv-x="810" unicode="&#8710;" /><glyph d="M452 384H95L49 12H444L443 0H35L127 750H535L533 738H138L96 396H453Z" glyph-name="E" horiz-adv-x="523" unicode="E" /><glyph d="M452 384H95L49 12H444L443 0H35L127 750H535L533 738H138L96 396H453ZM338 800 412 900H425L348 800Z" glyph-name="Eacute" horiz-adv-x="523" unicode="&#201;" /><glyph d="M452 384H95L49 12H444L443 0H35L127 750H535L533 738H138L96 396H453ZM345 790Q309 790 281.5 795.5Q254 801 235.5 813.5Q217 826 208.5 847Q200 868 204 900H214Q209 849 239.5 824.5Q270 800 347 800Q424 800 460.5 824.5Q497 849 504 900H514Q506 837 461.5 813.5Q417 790 345 790Z" glyph-name="Ebreve" horiz-adv-x="523" unicode="&#276;" /><glyph d="M452 384H95L49 12H444L443 0H35L127 750H535L533 738H138L96 396H453ZM216 900 344 809 494 900H508L346 800H340L202 900Z" glyph-name="Ecaron" horiz-adv-x="523" unicode="&#282;" /><glyph d="M452 384H95L49 12H444L443 0H35L127 750H535L533 738H138L96 396H453ZM482 800 354 891 204 800H190L352 900H358L496 800Z" glyph-name="Ecircumflex" horiz-adv-x="523" unicode="&#202;" /><glyph d="M452 384H95L49 12H444L443 0H35L127 750H535L533 738H138L96 396H453ZM429 850Q429 856 433.5 860.5Q438 865 444 865Q450 865 454.5 860.5Q459 856 459 850Q459 844 454.5 839.5Q450 835 444 835Q438 835 433.5 839.5Q429 844 429 850ZM239 850Q239 856 243.5 860.5Q248 865 254 865Q260 865 264.5 860.5Q269 856 269 850Q269 844 264.5 839.5Q260 835 254 835Q248 835 243.5 839.5Q239 844 239 850Z" glyph-name="Edieresis" horiz-adv-x="523" unicode="&#203;" /><glyph d="M452 384H95L49 12H444L443 0H35L127 750H535L533 738H138L96 396H453ZM334 850Q334 856 338.5 860.5Q343 865 349 865Q355 865 359.5 860.5Q364 856 364 850Q364 844 359.5 839.5Q355 835 349 835Q343 835 338.5 839.5Q334 844 334 850Z" glyph-name="Edotaccent" horiz-adv-x="523" unicode="&#278;" /><glyph d="M452 384H95L49 12H444L443 0H35L127 750H535L533 738H138L96 396H453ZM338 800 285 900H298L348 800Z" glyph-name="Egrave" horiz-adv-x="523" unicode="&#200;" /><glyph d="M452 384H95L49 12H444L443 0H35L127 750H535L533 738H138L96 396H453ZM470 845H226L227 855H471Z" glyph-name="Emacron" horiz-adv-x="523" unicode="&#274;" /><glyph d="M517 -127Q509 -189 464.5 -222Q420 -255 347 -255L348 -245Q377 -245 404 -238.5Q431 -232 452 -218Q473 -204 487 -181Q501 -158 505 -125L522 10L135 717L49 0H35L127 750H132L525 33L611 750H625Z" glyph-name="Eng" horiz-adv-x="628" unicode="&#330;" /><glyph d="M452 384H95L49 12H444L443 0Q422 -8 397 -22.5Q372 -37 349.5 -57Q327 -77 311 -103.5Q295 -130 291 -161Q286 -200 301.5 -220Q317 -240 365 -240Q380 -240 393.5 -238Q407 -236 419 -233L418 -243Q407 -246 392.5 -248Q378 -250 358 -250Q321 -250 296.5 -231.5Q272 -213 278 -165Q282 -134 295 -108.5Q308 -83 327.5 -63Q347 -43 370.5 -27Q394 -11 419 0H35L127 750H535L533 738H138L96 396H453Z" glyph-name="Eogonek" horiz-adv-x="523" unicode="&#280;" /><glyph d="M103 0 148 370H40L41 382H149L195 750H411Q499 750 551 724.5Q603 699 628 650.5Q653 602 655.5 532.5Q658 463 648 375Q637 287 617.5 217.5Q598 148 561 99.5Q524 51 465.5 25.5Q407 0 319 0ZM371 370H161L117 12H312Q395 12 451.5 34Q508 56 544.5 101Q581 146 601.5 214.5Q622 283 634 375Q645 467 641.5 535.5Q638 604 612 649Q586 694 535 716Q484 738 401 738H206L162 382H372Z" glyph-name="Eth" horiz-adv-x="649" unicode="&#208;" /><glyph d="M116 375Q119 409 125 440H45L46 452H127Q140 525 162.5 581.5Q185 638 221 676.5Q257 715 309 735Q361 755 434 755Q488 755 526 749Q564 743 591 735L590 725Q552 736 516 740.5Q480 745 433 745Q367 745 318 727Q269 709 233.5 672Q198 635 175.5 580Q153 525 139 452H482L476 440H137Q131 408 128 375Q126 358 124 341.5Q122 325 121 310H406L399 298H120Q116 224 125 169.5Q134 115 160.5 78Q187 41 231.5 23Q276 5 342 5Q389 5 426.5 9.5Q464 14 504 25L502 15Q473 7 434 1Q395 -5 341 -5Q268 -5 221 15Q174 35 147.5 73.5Q121 112 112 168.5Q103 225 108 298H27L29 310H109Q110 326 112 342Q114 358 116 375Z" glyph-name="Euro" horiz-adv-x="600" unicode="&#8364;" /><glyph d="M440 384H94L47 0H35L127 750H523L521 738H137L95 396H441Z" glyph-name="F" horiz-adv-x="491" unicode="F" /><glyph d="M308 5Q335 5 364 7Q393 9 420.5 13.5Q448 18 473 24Q498 30 517 39L556 353H388L389 365H569L528 31Q490 15 436 5Q382 -5 307 -5Q225 -5 173 20Q121 45 93.5 93.5Q66 142 60.5 213Q55 284 66 375Q77 466 99.5 537Q122 608 161.5 656.5Q201 705 259.5 730Q318 755 400 755Q468 755 515 745.5Q562 736 591 723L590 711Q548 729 503.5 737Q459 745 399 745Q250 745 175 653Q100 561 78 375Q66 282 72.5 212.5Q79 143 106.5 97Q134 51 183.5 28Q233 5 308 5Z" glyph-name="G" horiz-adv-x="620" unicode="G" /><glyph d="M308 5Q335 5 364 7Q393 9 420.5 13.5Q448 18 473 24Q498 30 517 39L556 353H388L389 365H569L528 31Q490 15 436 5Q382 -5 307 -5Q225 -5 173 20Q121 45 93.5 93.5Q66 142 60.5 213Q55 284 66 375Q77 466 99.5 537Q122 608 161.5 656.5Q201 705 259.5 730Q318 755 400 755Q468 755 515 745.5Q562 736 591 723L590 711Q548 729 503.5 737Q459 745 399 745Q250 745 175 653Q100 561 78 375Q66 282 72.5 212.5Q79 143 106.5 97Q134 51 183.5 28Q233 5 308 5ZM388 790Q352 790 324.5 795.5Q297 801 278.5 813.5Q260 826 251.5 847Q243 868 247 900H257Q252 849 282.5 824.5Q313 800 390 800Q467 800 503.5 824.5Q540 849 547 900H557Q549 837 504.5 813.5Q460 790 388 790Z" glyph-name="Gbreve" horiz-adv-x="620" unicode="&#286;" /><glyph d="M308 5Q335 5 364 7Q393 9 420.5 13.5Q448 18 473 24Q498 30 517 39L556 353H388L389 365H569L528 31Q490 15 436 5Q382 -5 307 -5Q225 -5 173 20Q121 45 93.5 93.5Q66 142 60.5 213Q55 284 66 375Q77 466 99.5 537Q122 608 161.5 656.5Q201 705 259.5 730Q318 755 400 755Q468 755 515 745.5Q562 736 591 723L590 711Q548 729 503.5 737Q459 745 399 745Q250 745 175 653Q100 561 78 375Q66 282 72.5 212.5Q79 143 106.5 97Q134 51 183.5 28Q233 5 308 5ZM525 800 397 891 247 800H233L395 900H401L539 800Z" glyph-name="Gcircumflex" horiz-adv-x="620" unicode="&#284;" /><glyph d="M308 5Q335 5 364 7Q393 9 420.5 13.5Q448 18 473 24Q498 30 517 39L556 353H388L389 365H569L528 31Q490 15 436 5Q382 -5 307 -5Q225 -5 173 20Q121 45 93.5 93.5Q66 142 60.5 213Q55 284 66 375Q77 466 99.5 537Q122 608 161.5 656.5Q201 705 259.5 730Q318 755 400 755Q468 755 515 745.5Q562 736 591 723L590 711Q548 729 503.5 737Q459 745 399 745Q250 745 175 653Q100 561 78 375Q66 282 72.5 212.5Q79 143 106.5 97Q134 51 183.5 28Q233 5 308 5ZM209 -250 294 -50H310L220 -250Z" glyph-name="Gcommaaccent" horiz-adv-x="620" unicode="&#290;" /><glyph d="M308 5Q335 5 364 7Q393 9 420.5 13.5Q448 18 473 24Q498 30 517 39L556 353H388L389 365H569L528 31Q490 15 436 5Q382 -5 307 -5Q225 -5 173 20Q121 45 93.5 93.5Q66 142 60.5 213Q55 284 66 375Q77 466 99.5 537Q122 608 161.5 656.5Q201 705 259.5 730Q318 755 400 755Q468 755 515 745.5Q562 736 591 723L590 711Q548 729 503.5 737Q459 745 399 745Q250 745 175 653Q100 561 78 375Q66 282 72.5 212.5Q79 143 106.5 97Q134 51 183.5 28Q233 5 308 5ZM377 850Q377 856 381.5 860.5Q386 865 392 865Q398 865 402.5 860.5Q407 856 407 850Q407 844 402.5 839.5Q398 835 392 835Q386 835 381.5 839.5Q377 844 377 850Z" glyph-name="Gdotaccent" horiz-adv-x="620" unicode="&#288;" /><glyph d="M510 0 557 384H95L48 0H35L127 750H140L96 396H558L602 750H615L523 0Z" glyph-name="H" horiz-adv-x="618" unicode="H" /><glyph d="M510 0 557 384H95L48 0H35L127 750H140L119 579H581L602 750H615L523 0ZM558 396 579 567H117L96 396Z" glyph-name="Hbar" horiz-adv-x="618" unicode="&#294;" /><glyph d="M510 0 557 384H95L48 0H35L127 750H140L96 396H558L602 750H615L523 0ZM516 800 388 891 238 800H224L386 900H392L530 800Z" glyph-name="Hcircumflex" horiz-adv-x="618" unicode="&#292;" /><glyph d="M57 0 149 750H161L69 0Z" glyph-name="I" horiz-adv-x="186" unicode="I" /><glyph d="M57 0 149 750H161L69 0ZM181 8Q186 7 199.5 6Q213 5 225 5Q259 5 287 10.5Q315 16 336.5 30Q358 44 371.5 67.5Q385 91 390 126L467 750H480L403 125Q395 59 352 27Q309 -5 224 -5Q215 -5 201 -4Q187 -3 180 -2Z" glyph-name="IJ" horiz-adv-x="505" unicode="&#306;" /><glyph d="M57 0 149 750H161L69 0ZM157 800 231 900H244L167 800Z" glyph-name="Iacute" horiz-adv-x="186" unicode="&#205;" /><glyph d="M57 0 149 750H161L69 0ZM164 790Q128 790 100.5 795.5Q73 801 54.5 813.5Q36 826 27.5 847Q19 868 23 900H33Q28 849 58.5 824.5Q89 800 166 800Q243 800 279.5 824.5Q316 849 323 900H333Q325 837 280.5 813.5Q236 790 164 790Z" glyph-name="Ibreve" horiz-adv-x="186" unicode="&#300;" /><glyph d="M57 0 149 750H161L69 0ZM301 800 173 891 23 800H9L171 900H177L315 800Z" glyph-name="Icircumflex" horiz-adv-x="186" unicode="&#206;" /><glyph d="M57 0 149 750H161L69 0ZM77 850Q77 856 81.5 860.5Q86 865 92 865Q98 865 102.5 860.5Q107 856 107 850Q107 844 102.5 839.5Q98 835 92 835Q86 835 81.5 839.5Q77 844 77 850ZM227 850Q227 856 231.5 860.5Q236 865 242 865Q248 865 252.5 860.5Q257 856 257 850Q257 844 252.5 839.5Q248 835 242 835Q236 835 231.5 839.5Q227 844 227 850Z" glyph-name="Idieresis" horiz-adv-x="186" unicode="&#207;" /><glyph d="M57 0 149 750H161L69 0ZM153 850Q153 856 157.5 860.5Q162 865 168 865Q174 865 178.5 860.5Q183 856 183 850Q183 844 178.5 839.5Q174 835 168 835Q162 835 157.5 839.5Q153 844 153 850Z" glyph-name="Idotaccent" horiz-adv-x="186" unicode="&#304;" /><glyph d="M57 0 149 750H161L69 0ZM157 800 104 900H117L167 800Z" glyph-name="Igrave" horiz-adv-x="186" unicode="&#204;" /><glyph d="M57 0 149 750H161L69 0ZM289 845H45L46 855H290Z" glyph-name="Imacron" horiz-adv-x="186" unicode="&#298;" /><glyph d="M69 0Q55 -8 39 -21.5Q23 -35 8 -54.5Q-7 -74 -18 -99.5Q-29 -125 -33 -156Q-38 -195 -23 -217.5Q-8 -240 40 -240Q55 -240 68.5 -238Q82 -236 94 -233L93 -243Q82 -246 67.5 -248Q53 -250 33 -250Q-4 -250 -27.5 -229Q-51 -208 -45 -160Q-37 -96 -7.5 -57Q22 -18 57 4L149 750H161L69 0Z" glyph-name="Iogonek" horiz-adv-x="186" unicode="&#302;" /><glyph d="M57 0 149 750H161L69 0ZM323 884Q305 810 236 810Q209 810 193.5 821Q178 832 165 845Q152 858 138 869Q124 880 99 880Q72 880 52 864Q32 848 24 816H13Q31 890 100 890Q127 890 142.5 879Q158 868 170.5 855Q183 842 197.5 831Q212 820 237 820Q264 820 284 836Q304 852 312 884Z" glyph-name="Itilde" horiz-adv-x="186" unicode="&#296;" /><glyph d="M-5 8Q0 7 13.5 6Q27 5 39 5Q73 5 101 10.5Q129 16 150.5 30Q172 44 185.5 67.5Q199 91 204 126L281 750H294L217 125Q209 59 166 27Q123 -5 38 -5Q29 -5 15 -4Q1 -3 -6 -2Z" glyph-name="J" horiz-adv-x="319" unicode="J" /><glyph d="M-5 8Q0 7 13.5 6Q27 5 39 5Q73 5 101 10.5Q129 16 150.5 30Q172 44 185.5 67.5Q199 91 204 126L281 750H294L217 125Q209 59 166 27Q123 -5 38 -5Q29 -5 15 -4Q1 -3 -6 -2ZM433 800 305 891 155 800H141L303 900H309L447 800Z" glyph-name="Jcircumflex" horiz-adv-x="319" unicode="&#308;" /><glyph d="M80 294 44 0H35L127 750H136L81 308L521 750H534L204 419L480 0H465L197 412Z" glyph-name="K" horiz-adv-x="525" unicode="K" /><glyph d="M80 294 44 0H35L127 750H136L81 308L521 750H534L204 419L480 0H465L197 412ZM131 -250 216 -50H232L142 -250Z" glyph-name="Kcommaaccent" horiz-adv-x="525" unicode="&#310;" /><glyph d="M48 12H421L420 0H35L127 750H139Z" glyph-name="L" horiz-adv-x="470" unicode="L" /><glyph d="M48 12H421L420 0H35L127 750H139ZM135 800 209 900H222L145 800Z" glyph-name="Lacute" horiz-adv-x="470" unicode="&#313;" /><glyph d="M48 12H421L420 0H35L127 750H139ZM215 550 266 750H280L224 550Z" glyph-name="Lcaron" horiz-adv-x="470" unicode="&#317;" /><glyph d="M48 12H421L420 0H35L127 750H139ZM131 -250 216 -50H232L142 -250Z" glyph-name="Lcommaaccent" horiz-adv-x="470" unicode="&#315;" /><glyph d="M48 12H421L420 0H35L127 750H139ZM322 376Q322 382 326.5 386.5Q331 391 337 391Q343 391 347.5 386.5Q352 382 352 376Q352 370 347.5 365.5Q343 361 337 361Q331 361 326.5 365.5Q322 370 322 376Z" glyph-name="Ldot" horiz-adv-x="470" unicode="&#319;" /><glyph d="M115 326 167 750H179L127 332L415 471L414 458L126 319L88 12H461L460 0H75L113 313L12 265L14 278Z" glyph-name="Lslash" horiz-adv-x="490" unicode="&#321;" /><glyph d="M367 85 134 716 48 0H35L127 750H136L373 107L768 750H777L685 0H672L760 716L373 85Z" glyph-name="M" horiz-adv-x="780" unicode="M" /><glyph d="M528 0 135 717 49 0H35L127 750H132L525 33L611 750H625L533 0Z" glyph-name="N" horiz-adv-x="628" unicode="N" /><glyph d="M528 0 135 717 49 0H35L127 750H132L525 33L611 750H625L533 0ZM377 800 451 900H464L387 800Z" glyph-name="Nacute" horiz-adv-x="628" unicode="&#323;" /><glyph d="M528 0 135 717 49 0H35L127 750H132L525 33L611 750H625L533 0ZM255 900 383 809 533 900H547L385 800H379L241 900Z" glyph-name="Ncaron" horiz-adv-x="628" unicode="&#327;" /><glyph d="M528 0 135 717 49 0H35L127 750H132L525 33L611 750H625L533 0ZM185 -250 270 -50H286L196 -250Z" glyph-name="Ncommaaccent" horiz-adv-x="628" unicode="&#325;" /><glyph d="M528 0 135 717 49 0H35L127 750H132L525 33L611 750H625L533 0ZM543 884Q525 810 456 810Q429 810 413.5 821Q398 832 385 845Q372 858 358 869Q344 880 319 880Q292 880 272 864Q252 848 244 816H233Q251 890 320 890Q347 890 362.5 879Q378 868 390.5 855Q403 842 417.5 831Q432 820 457 820Q484 820 504 836Q524 852 532 884Z" glyph-name="Ntilde" horiz-adv-x="628" unicode="&#209;" /><glyph d="M608 375Q597 289 579.5 219Q562 149 527.5 99.5Q493 50 436 22.5Q379 -5 290 -5Q201 -5 151 22.5Q101 50 78.5 99.5Q56 149 55.5 219Q55 289 66 375Q76 460 94 530.5Q112 601 146.5 650.5Q181 700 237.5 727.5Q294 755 383 755Q472 755 522 727.5Q572 700 594.5 650.5Q617 601 617.5 530.5Q618 460 608 375ZM596 375Q607 464 606 533Q605 602 583 649Q561 696 513 720.5Q465 745 382 745Q299 745 245.5 720.5Q192 696 158 649Q124 602 106.5 533Q89 464 78 375Q67 286 67.5 217Q68 148 90 101Q112 54 160 29.5Q208 5 291 5Q374 5 427.5 29.5Q481 54 515 101Q549 148 567 217Q585 286 596 375Z" glyph-name="O" horiz-adv-x="642" unicode="O" /><glyph d="M823 384H486L440 12H815L814 0H303Q215 0 163 25.5Q111 51 85.5 99.5Q60 148 57.5 217.5Q55 287 66 375Q76 463 96 532.5Q116 602 153 650.5Q190 699 248.5 724.5Q307 750 395 750H906L904 738H529L487 396H824ZM516 738H401Q318 738 261.5 716Q205 694 168.5 649Q132 604 111.5 535.5Q91 467 80 375Q68 283 72 214.5Q76 146 101.5 101Q127 56 178 34Q229 12 312 12H427Z" glyph-name="OE" horiz-adv-x="894" unicode="&#338;" /><glyph d="M608 375Q597 289 579.5 219Q562 149 527.5 99.5Q493 50 436 22.5Q379 -5 290 -5Q201 -5 151 22.5Q101 50 78.5 99.5Q56 149 55.5 219Q55 289 66 375Q76 460 94 530.5Q112 601 146.5 650.5Q181 700 237.5 727.5Q294 755 383 755Q472 755 522 727.5Q572 700 594.5 650.5Q617 601 617.5 530.5Q618 460 608 375ZM596 375Q607 464 606 533Q605 602 583 649Q561 696 513 720.5Q465 745 382 745Q299 745 245.5 720.5Q192 696 158 649Q124 602 106.5 533Q89 464 78 375Q67 286 67.5 217Q68 148 90 101Q112 54 160 29.5Q208 5 291 5Q374 5 427.5 29.5Q481 54 515 101Q549 148 567 217Q585 286 596 375ZM384 800 458 900H471L394 800Z" glyph-name="Oacute" horiz-adv-x="642" unicode="&#211;" /><glyph d="M608 375Q597 289 579.5 219Q562 149 527.5 99.5Q493 50 436 22.5Q379 -5 290 -5Q201 -5 151 22.5Q101 50 78.5 99.5Q56 149 55.5 219Q55 289 66 375Q76 460 94 530.5Q112 601 146.5 650.5Q181 700 237.5 727.5Q294 755 383 755Q472 755 522 727.5Q572 700 594.5 650.5Q617 601 617.5 530.5Q618 460 608 375ZM596 375Q607 464 606 533Q605 602 583 649Q561 696 513 720.5Q465 745 382 745Q299 745 245.5 720.5Q192 696 158 649Q124 602 106.5 533Q89 464 78 375Q67 286 67.5 217Q68 148 90 101Q112 54 160 29.5Q208 5 291 5Q374 5 427.5 29.5Q481 54 515 101Q549 148 567 217Q585 286 596 375ZM391 790Q355 790 327.5 795.5Q300 801 281.5 813.5Q263 826 254.5 847Q246 868 250 900H260Q255 849 285.5 824.5Q316 800 393 800Q470 800 506.5 824.5Q543 849 550 900H560Q552 837 507.5 813.5Q463 790 391 790Z" glyph-name="Obreve" horiz-adv-x="642" unicode="&#334;" /><glyph d="M608 375Q597 289 579.5 219Q562 149 527.5 99.5Q493 50 436 22.5Q379 -5 290 -5Q201 -5 151 22.5Q101 50 78.5 99.5Q56 149 55.5 219Q55 289 66 375Q76 460 94 530.5Q112 601 146.5 650.5Q181 700 237.5 727.5Q294 755 383 755Q472 755 522 727.5Q572 700 594.5 650.5Q617 601 617.5 530.5Q618 460 608 375ZM596 375Q607 464 606 533Q605 602 583 649Q561 696 513 720.5Q465 745 382 745Q299 745 245.5 720.5Q192 696 158 649Q124 602 106.5 533Q89 464 78 375Q67 286 67.5 217Q68 148 90 101Q112 54 160 29.5Q208 5 291 5Q374 5 427.5 29.5Q481 54 515 101Q549 148 567 217Q585 286 596 375ZM528 800 400 891 250 800H236L398 900H404L542 800Z" glyph-name="Ocircumflex" horiz-adv-x="642" unicode="&#212;" /><glyph d="M608 375Q597 289 579.5 219Q562 149 527.5 99.5Q493 50 436 22.5Q379 -5 290 -5Q201 -5 151 22.5Q101 50 78.5 99.5Q56 149 55.5 219Q55 289 66 375Q76 460 94 530.5Q112 601 146.5 650.5Q181 700 237.5 727.5Q294 755 383 755Q472 755 522 727.5Q572 700 594.5 650.5Q617 601 617.5 530.5Q618 460 608 375ZM596 375Q607 464 606 533Q605 602 583 649Q561 696 513 720.5Q465 745 382 745Q299 745 245.5 720.5Q192 696 158 649Q124 602 106.5 533Q89 464 78 375Q67 286 67.5 217Q68 148 90 101Q112 54 160 29.5Q208 5 291 5Q374 5 427.5 29.5Q481 54 515 101Q549 148 567 217Q585 286 596 375ZM475 850Q475 856 479.5 860.5Q484 865 490 865Q496 865 500.5 860.5Q505 856 505 850Q505 844 500.5 839.5Q496 835 490 835Q484 835 479.5 839.5Q475 844 475 850ZM285 850Q285 856 289.5 860.5Q294 865 300 865Q306 865 310.5 860.5Q315 856 315 850Q315 844 310.5 839.5Q306 835 300 835Q294 835 289.5 839.5Q285 844 285 850Z" glyph-name="Odieresis" horiz-adv-x="642" unicode="&#214;" /><glyph d="M608 375Q597 289 579.5 219Q562 149 527.5 99.5Q493 50 436 22.5Q379 -5 290 -5Q201 -5 151 22.5Q101 50 78.5 99.5Q56 149 55.5 219Q55 289 66 375Q76 460 94 530.5Q112 601 146.5 650.5Q181 700 237.5 727.5Q294 755 383 755Q472 755 522 727.5Q572 700 594.5 650.5Q617 601 617.5 530.5Q618 460 608 375ZM596 375Q607 464 606 533Q605 602 583 649Q561 696 513 720.5Q465 745 382 745Q299 745 245.5 720.5Q192 696 158 649Q124 602 106.5 533Q89 464 78 375Q67 286 67.5 217Q68 148 90 101Q112 54 160 29.5Q208 5 291 5Q374 5 427.5 29.5Q481 54 515 101Q549 148 567 217Q585 286 596 375ZM384 800 331 900H344L394 800Z" glyph-name="Ograve" horiz-adv-x="642" unicode="&#210;" /><glyph d="M608 375Q597 289 579.5 219Q562 149 527.5 99.5Q493 50 436 22.5Q379 -5 290 -5Q201 -5 151 22.5Q101 50 78.5 99.5Q56 149 55.5 219Q55 289 66 375Q76 460 94 530.5Q112 601 146.5 650.5Q181 700 237.5 727.5Q294 755 383 755Q472 755 522 727.5Q572 700 594.5 650.5Q617 601 617.5 530.5Q618 460 608 375ZM596 375Q607 464 606 533Q605 602 583 649Q561 696 513 720.5Q465 745 382 745Q299 745 245.5 720.5Q192 696 158 649Q124 602 106.5 533Q89 464 78 375Q67 286 67.5 217Q68 148 90 101Q112 54 160 29.5Q208 5 291 5Q374 5 427.5 29.5Q481 54 515 101Q549 148 567 217Q585 286 596 375ZM424 800 498 900H511L434 800ZM344 800 418 900H431L354 800Z" glyph-name="Ohungarumlaut" horiz-adv-x="642" unicode="&#336;" /><glyph d="M608 375Q597 289 579.5 219Q562 149 527.5 99.5Q493 50 436 22.5Q379 -5 290 -5Q201 -5 151 22.5Q101 50 78.5 99.5Q56 149 55.5 219Q55 289 66 375Q76 460 94 530.5Q112 601 146.5 650.5Q181 700 237.5 727.5Q294 755 383 755Q472 755 522 727.5Q572 700 594.5 650.5Q617 601 617.5 530.5Q618 460 608 375ZM596 375Q607 464 606 533Q605 602 583 649Q561 696 513 720.5Q465 745 382 745Q299 745 245.5 720.5Q192 696 158 649Q124 602 106.5 533Q89 464 78 375Q67 286 67.5 217Q68 148 90 101Q112 54 160 29.5Q208 5 291 5Q374 5 427.5 29.5Q481 54 515 101Q549 148 567 217Q585 286 596 375ZM516 845H272L273 855H517Z" glyph-name="Omacron" horiz-adv-x="642" unicode="&#332;" /><glyph d="M19 0 87 83Q58 134 56 207.5Q54 281 66 375Q76 460 94 530.5Q112 601 146.5 650.5Q181 700 237.5 727.5Q294 755 383 755Q460 755 507 735Q554 715 580 677L641 750H655L585 667Q615 616 617 542.5Q619 469 608 375Q597 289 579.5 219Q562 149 527.5 99.5Q493 50 436 22.5Q379 -5 290 -5Q213 -5 166 15Q119 35 93 73L33 0ZM382 745Q299 745 245.5 720.5Q192 696 158 649Q124 602 106.5 533Q89 464 78 375Q66 281 67.5 210.5Q69 140 95 92L573 668Q548 706 502.5 725.5Q457 745 382 745ZM596 375Q607 469 605.5 539.5Q604 610 578 658L101 82Q124 44 170 24.5Q216 5 291 5Q374 5 427.5 29.5Q481 54 515 101Q549 148 567 217Q585 286 596 375Z" glyph-name="Oslash" horiz-adv-x="642" unicode="&#216;" /><glyph d="M608 375Q597 289 579.5 219Q562 149 527.5 99.5Q493 50 436 22.5Q379 -5 290 -5Q201 -5 151 22.5Q101 50 78.5 99.5Q56 149 55.5 219Q55 289 66 375Q76 460 94 530.5Q112 601 146.5 650.5Q181 700 237.5 727.5Q294 755 383 755Q472 755 522 727.5Q572 700 594.5 650.5Q617 601 617.5 530.5Q618 460 608 375ZM596 375Q607 464 606 533Q605 602 583 649Q561 696 513 720.5Q465 745 382 745Q299 745 245.5 720.5Q192 696 158 649Q124 602 106.5 533Q89 464 78 375Q67 286 67.5 217Q68 148 90 101Q112 54 160 29.5Q208 5 291 5Q374 5 427.5 29.5Q481 54 515 101Q549 148 567 217Q585 286 596 375ZM550 884Q532 810 463 810Q436 810 420.5 821Q405 832 392 845Q379 858 365 869Q351 880 326 880Q299 880 279 864Q259 848 251 816H240Q258 890 327 890Q354 890 369.5 879Q385 868 397.5 855Q410 842 424.5 831Q439 820 464 820Q491 820 511 836Q531 852 539 884Z" glyph-name="Otilde" horiz-adv-x="642" unicode="&#213;" /><glyph d="M47 0H35L127 750H361Q428 750 468.5 732.5Q509 715 530 685.5Q551 656 555.5 617.5Q560 579 555 537Q550 495 536 457Q522 419 494 390Q466 361 421 343.5Q376 326 309 326H87ZM88 337H311Q378 337 421.5 355.5Q465 374 490.5 402.5Q516 431 527.5 466.5Q539 502 543 537Q547 572 544.5 608Q542 644 523.5 673Q505 702 466 720Q427 738 360 738H137Z" glyph-name="P" horiz-adv-x="550" unicode="P" /><glyph d="M608 375Q597 289 579.5 219Q562 149 527.5 99.5Q493 50 436 22.5Q379 -5 290 -5Q284 -5 277.5 -5Q271 -5 266 -4V-5L650 -106L649 -119L201 3Q142 19 110 51Q78 83 65 130.5Q52 178 54.5 239Q57 300 66 375Q76 460 94 530.5Q112 601 146.5 650.5Q181 700 237.5 727.5Q294 755 383 755Q472 755 522 727.5Q572 700 594.5 650.5Q617 601 617.5 530.5Q618 460 608 375ZM596 375Q607 464 606 533Q605 602 583 649Q561 696 513 720.5Q465 745 382 745Q299 745 245.5 720.5Q192 696 158 649Q124 602 106.5 533Q89 464 78 375Q67 285 68 216Q69 147 91.5 100Q114 53 161.5 29Q209 5 291 5Q374 5 427.5 29.5Q481 54 515 101Q549 148 567 217Q585 286 596 375Z" glyph-name="Q" horiz-adv-x="642" unicode="Q" /><glyph d="M48 0H35L127 750H365Q434 750 475 737Q516 724 537 698.5Q558 673 561.5 636.5Q565 600 559 553Q554 510 543 476Q532 442 510.5 417Q489 392 454 376.5Q419 361 366 357L515 0H500L353 356Q344 355 335 355Q326 355 316 355H91ZM328 367Q392 367 432.5 381.5Q473 396 497 421Q521 446 531 480Q541 514 546 553Q551 592 548.5 626Q546 660 528.5 685Q511 710 474 724Q437 738 373 738H138L93 367Z" glyph-name="R" horiz-adv-x="570" unicode="R" /><glyph d="M48 0H35L127 750H365Q434 750 475 737Q516 724 537 698.5Q558 673 561.5 636.5Q565 600 559 553Q554 510 543 476Q532 442 510.5 417Q489 392 454 376.5Q419 361 366 357L515 0H500L353 356Q344 355 335 355Q326 355 316 355H91ZM328 367Q392 367 432.5 381.5Q473 396 497 421Q521 446 531 480Q541 514 546 553Q551 592 548.5 626Q546 660 528.5 685Q511 710 474 724Q437 738 373 738H138L93 367ZM348 800 422 900H435L358 800Z" glyph-name="Racute" horiz-adv-x="570" unicode="&#340;" /><glyph d="M48 0H35L127 750H365Q434 750 475 737Q516 724 537 698.5Q558 673 561.5 636.5Q565 600 559 553Q554 510 543 476Q532 442 510.5 417Q489 392 454 376.5Q419 361 366 357L515 0H500L353 356Q344 355 335 355Q326 355 316 355H91ZM328 367Q392 367 432.5 381.5Q473 396 497 421Q521 446 531 480Q541 514 546 553Q551 592 548.5 626Q546 660 528.5 685Q511 710 474 724Q437 738 373 738H138L93 367ZM226 900 354 809 504 900H518L356 800H350L212 900Z" glyph-name="Rcaron" horiz-adv-x="570" unicode="&#344;" /><glyph d="M48 0H35L127 750H365Q434 750 475 737Q516 724 537 698.5Q558 673 561.5 636.5Q565 600 559 553Q554 510 543 476Q532 442 510.5 417Q489 392 454 376.5Q419 361 366 357L515 0H500L353 356Q344 355 335 355Q326 355 316 355H91ZM328 367Q392 367 432.5 381.5Q473 396 497 421Q521 446 531 480Q541 514 546 553Q551 592 548.5 626Q546 660 528.5 685Q511 710 474 724Q437 738 373 738H138L93 367ZM156 -250 241 -50H257L167 -250Z" glyph-name="Rcommaaccent" horiz-adv-x="570" unicode="&#342;" /><glyph d="M370 755Q435 755 476 745.5Q517 736 546 725L544 713Q502 730 462 737Q422 744 369 744Q300 744 253.5 730Q207 716 177.5 692Q148 668 133.5 635Q119 602 115 565Q109 518 117 488Q125 458 148.5 439.5Q172 421 213 411Q254 401 314 395Q375 389 416 378.5Q457 368 481 346.5Q505 325 512.5 290.5Q520 256 513 202Q508 164 491.5 127Q475 90 440 60.5Q405 31 349.5 13Q294 -5 212 -5Q186 -5 158.5 -2Q131 1 105.5 5.5Q80 10 58 16.5Q36 23 21 29L23 41Q52 28 102.5 17Q153 6 214 6Q287 6 339 21.5Q391 37 425.5 63.5Q460 90 478 125.5Q496 161 501 202Q507 248 501.5 280.5Q496 313 474 334.5Q452 356 411 368Q370 380 305 386Q245 392 204 402.5Q163 413 138.5 433Q114 453 106 485Q98 517 104 566Q108 604 123 638Q138 672 168 698Q198 724 247 739.5Q296 755 370 755Z" glyph-name="S" horiz-adv-x="564" unicode="S" /><glyph d="M370 755Q435 755 476 745.5Q517 736 546 725L544 713Q502 730 462 737Q422 744 369 744Q300 744 253.5 730Q207 716 177.5 692Q148 668 133.5 635Q119 602 115 565Q109 518 117 488Q125 458 148.5 439.5Q172 421 213 411Q254 401 314 395Q375 389 416 378.5Q457 368 481 346.5Q505 325 512.5 290.5Q520 256 513 202Q508 164 491.5 127Q475 90 440 60.5Q405 31 349.5 13Q294 -5 212 -5Q186 -5 158.5 -2Q131 1 105.5 5.5Q80 10 58 16.5Q36 23 21 29L23 41Q52 28 102.5 17Q153 6 214 6Q287 6 339 21.5Q391 37 425.5 63.5Q460 90 478 125.5Q496 161 501 202Q507 248 501.5 280.5Q496 313 474 334.5Q452 356 411 368Q370 380 305 386Q245 392 204 402.5Q163 413 138.5 433Q114 453 106 485Q98 517 104 566Q108 604 123 638Q138 672 168 698Q198 724 247 739.5Q296 755 370 755ZM360 800 434 900H447L370 800Z" glyph-name="Sacute" horiz-adv-x="564" unicode="&#346;" /><glyph d="M370 755Q435 755 476 745.5Q517 736 546 725L544 713Q502 730 462 737Q422 744 369 744Q300 744 253.5 730Q207 716 177.5 692Q148 668 133.5 635Q119 602 115 565Q109 518 117 488Q125 458 148.5 439.5Q172 421 213 411Q254 401 314 395Q375 389 416 378.5Q457 368 481 346.5Q505 325 512.5 290.5Q520 256 513 202Q508 164 491.5 127Q475 90 440 60.5Q405 31 349.5 13Q294 -5 212 -5Q186 -5 158.5 -2Q131 1 105.5 5.5Q80 10 58 16.5Q36 23 21 29L23 41Q52 28 102.5 17Q153 6 214 6Q287 6 339 21.5Q391 37 425.5 63.5Q460 90 478 125.5Q496 161 501 202Q507 248 501.5 280.5Q496 313 474 334.5Q452 356 411 368Q370 380 305 386Q245 392 204 402.5Q163 413 138.5 433Q114 453 106 485Q98 517 104 566Q108 604 123 638Q138 672 168 698Q198 724 247 739.5Q296 755 370 755ZM236 1000 353 811 518 1000H530L357 800H347L224 1000Z" glyph-name="Scaron" horiz-adv-x="564" unicode="&#352;" /><glyph d="M225 -5H212Q186 -5 158.5 -2Q131 1 105.5 5.5Q80 10 58 16.5Q36 23 21 29L23 41Q52 28 102.5 17Q153 6 214 6Q287 6 339 21.5Q391 37 425.5 63.5Q460 90 478 125.5Q496 161 501 202Q507 248 501.5 280.5Q496 313 474 334.5Q452 356 411 368Q370 380 305 386Q245 392 204 402.5Q163 413 138.5 433Q114 453 106 485Q98 517 104 566Q108 604 123 638Q138 672 168 698Q198 724 247 739.5Q296 755 370 755Q435 755 476 745.5Q517 736 546 725L544 713Q502 730 462 737Q422 744 369 744Q300 744 253.5 730Q207 716 177.5 692Q148 668 133.5 635Q119 602 115 565Q109 518 117 488Q125 458 148.5 439.5Q172 421 213 411Q254 401 314 395Q375 389 416 378.5Q457 368 481 346.5Q505 325 512.5 290.5Q520 256 513 202Q508 165 492.5 129Q477 93 444.5 64.5Q412 36 360.5 17Q309 -2 233 -4L227 -67Q267 -77 291.5 -102Q316 -127 311 -168Q308 -191 297.5 -206.5Q287 -222 272 -232Q257 -242 239 -246Q221 -250 203 -250Q177 -250 159 -245.5Q141 -241 129 -236L130 -226Q141 -231 161 -235.5Q181 -240 198 -240Q246 -240 270 -221Q294 -202 299 -168Q304 -130 280 -107Q256 -84 214 -76Z" glyph-name="Scedilla" horiz-adv-x="564" unicode="&#350;" /><glyph d="M370 755Q435 755 476 745.5Q517 736 546 725L544 713Q502 730 462 737Q422 744 369 744Q300 744 253.5 730Q207 716 177.5 692Q148 668 133.5 635Q119 602 115 565Q109 518 117 488Q125 458 148.5 439.5Q172 421 213 411Q254 401 314 395Q375 389 416 378.5Q457 368 481 346.5Q505 325 512.5 290.5Q520 256 513 202Q508 164 491.5 127Q475 90 440 60.5Q405 31 349.5 13Q294 -5 212 -5Q186 -5 158.5 -2Q131 1 105.5 5.5Q80 10 58 16.5Q36 23 21 29L23 41Q52 28 102.5 17Q153 6 214 6Q287 6 339 21.5Q391 37 425.5 63.5Q460 90 478 125.5Q496 161 501 202Q507 248 501.5 280.5Q496 313 474 334.5Q452 356 411 368Q370 380 305 386Q245 392 204 402.5Q163 413 138.5 433Q114 453 106 485Q98 517 104 566Q108 604 123 638Q138 672 168 698Q198 724 247 739.5Q296 755 370 755ZM504 800 376 891 226 800H212L374 900H380L518 800Z" glyph-name="Scircumflex" horiz-adv-x="564" unicode="&#348;" /><glyph d="M370 755Q435 755 476 745.5Q517 736 546 725L544 713Q502 730 462 737Q422 744 369 744Q300 744 253.5 730Q207 716 177.5 692Q148 668 133.5 635Q119 602 115 565Q109 518 117 488Q125 458 148.5 439.5Q172 421 213 411Q254 401 314 395Q375 389 416 378.5Q457 368 481 346.5Q505 325 512.5 290.5Q520 256 513 202Q508 164 491.5 127Q475 90 440 60.5Q405 31 349.5 13Q294 -5 212 -5Q186 -5 158.5 -2Q131 1 105.5 5.5Q80 10 58 16.5Q36 23 21 29L23 41Q52 28 102.5 17Q153 6 214 6Q287 6 339 21.5Q391 37 425.5 63.5Q460 90 478 125.5Q496 161 501 202Q507 248 501.5 280.5Q496 313 474 334.5Q452 356 411 368Q370 380 305 386Q245 392 204 402.5Q163 413 138.5 433Q114 453 106 485Q98 517 104 566Q108 604 123 638Q138 672 168 698Q198 724 247 739.5Q296 755 370 755ZM143 -250 228 -50H244L154 -250Z" glyph-name="Scommaaccent" horiz-adv-x="564" unicode="&#536;" /><glyph d="M321 738 231 0H219L309 738H75L77 750H557L555 738Z" glyph-name="T" horiz-adv-x="510" unicode="T" /><glyph d="M430 385H278L231 0H219L266 385H114L115 395H267L309 738H75L77 750H557L555 738H321L279 395H431Z" glyph-name="Tbar" horiz-adv-x="510" unicode="&#358;" /><glyph d="M321 738 231 0H219L309 738H75L77 750H557L555 738ZM197 900 325 809 475 900H489L327 800H321L183 900Z" glyph-name="Tcaron" horiz-adv-x="510" unicode="&#356;" /><glyph d="M321 738 231 0H219L309 738H75L77 750H557L555 738ZM126 -250 211 -50H227L137 -250Z" glyph-name="Tcommaaccent" horiz-adv-x="510" unicode="&#354;" /><glyph d="M47 0H35L127 750H139L119 588H341Q408 588 448.5 570.5Q489 553 510 523.5Q531 494 536 455.5Q541 417 536 375Q531 333 517 295Q503 257 474.5 228Q446 199 401 181.5Q356 164 289 164H67ZM68 175H291Q358 175 401.5 193.5Q445 212 470.5 240.5Q496 269 507.5 304.5Q519 340 524 375Q528 410 525 446Q522 482 503.5 511Q485 540 446 558Q407 576 340 576H117Z" glyph-name="Thorn" horiz-adv-x="550" unicode="&#222;" /><glyph d="M284 5Q342 5 389 16Q436 27 470 54Q504 81 525.5 127Q547 173 556 243L619 750H630L567 239Q558 162 532 114.5Q506 67 468.5 40.5Q431 14 383.5 4.5Q336 -5 283 -5Q230 -5 185 4.5Q140 14 109 40.5Q78 67 64 114.5Q50 162 59 239L122 750H133L70 243Q61 173 71.5 127Q82 81 110 54Q138 27 181.5 16Q225 5 284 5Z" glyph-name="U" horiz-adv-x="628" unicode="U" /><glyph d="M284 5Q342 5 389 16Q436 27 470 54Q504 81 525.5 127Q547 173 556 243L619 750H630L567 239Q558 162 532 114.5Q506 67 468.5 40.5Q431 14 383.5 4.5Q336 -5 283 -5Q230 -5 185 4.5Q140 14 109 40.5Q78 67 64 114.5Q50 162 59 239L122 750H133L70 243Q61 173 71.5 127Q82 81 110 54Q138 27 181.5 16Q225 5 284 5ZM377 800 451 900H464L387 800Z" glyph-name="Uacute" horiz-adv-x="628" unicode="&#218;" /><glyph d="M284 5Q342 5 389 16Q436 27 470 54Q504 81 525.5 127Q547 173 556 243L619 750H630L567 239Q558 162 532 114.5Q506 67 468.5 40.5Q431 14 383.5 4.5Q336 -5 283 -5Q230 -5 185 4.5Q140 14 109 40.5Q78 67 64 114.5Q50 162 59 239L122 750H133L70 243Q61 173 71.5 127Q82 81 110 54Q138 27 181.5 16Q225 5 284 5ZM384 790Q348 790 320.5 795.5Q293 801 274.5 813.5Q256 826 247.5 847Q239 868 243 900H253Q248 849 278.5 824.5Q309 800 386 800Q463 800 499.5 824.5Q536 849 543 900H553Q545 837 500.5 813.5Q456 790 384 790Z" glyph-name="Ubreve" horiz-adv-x="628" unicode="&#364;" /><glyph d="M284 5Q342 5 389 16Q436 27 470 54Q504 81 525.5 127Q547 173 556 243L619 750H630L567 239Q558 162 532 114.5Q506 67 468.5 40.5Q431 14 383.5 4.5Q336 -5 283 -5Q230 -5 185 4.5Q140 14 109 40.5Q78 67 64 114.5Q50 162 59 239L122 750H133L70 243Q61 173 71.5 127Q82 81 110 54Q138 27 181.5 16Q225 5 284 5ZM521 800 393 891 243 800H229L391 900H397L535 800Z" glyph-name="Ucircumflex" horiz-adv-x="628" unicode="&#219;" /><glyph d="M284 5Q342 5 389 16Q436 27 470 54Q504 81 525.5 127Q547 173 556 243L619 750H630L567 239Q558 162 532 114.5Q506 67 468.5 40.5Q431 14 383.5 4.5Q336 -5 283 -5Q230 -5 185 4.5Q140 14 109 40.5Q78 67 64 114.5Q50 162 59 239L122 750H133L70 243Q61 173 71.5 127Q82 81 110 54Q138 27 181.5 16Q225 5 284 5ZM468 850Q468 856 472.5 860.5Q477 865 483 865Q489 865 493.5 860.5Q498 856 498 850Q498 844 493.5 839.5Q489 835 483 835Q477 835 472.5 839.5Q468 844 468 850ZM278 850Q278 856 282.5 860.5Q287 865 293 865Q299 865 303.5 860.5Q308 856 308 850Q308 844 303.5 839.5Q299 835 293 835Q287 835 282.5 839.5Q278 844 278 850Z" glyph-name="Udieresis" horiz-adv-x="628" unicode="&#220;" /><glyph d="M284 5Q342 5 389 16Q436 27 470 54Q504 81 525.5 127Q547 173 556 243L619 750H630L567 239Q558 162 532 114.5Q506 67 468.5 40.5Q431 14 383.5 4.5Q336 -5 283 -5Q230 -5 185 4.5Q140 14 109 40.5Q78 67 64 114.5Q50 162 59 239L122 750H133L70 243Q61 173 71.5 127Q82 81 110 54Q138 27 181.5 16Q225 5 284 5ZM377 800 324 900H337L387 800Z" glyph-name="Ugrave" horiz-adv-x="628" unicode="&#217;" /><glyph d="M284 5Q342 5 389 16Q436 27 470 54Q504 81 525.5 127Q547 173 556 243L619 750H630L567 239Q558 162 532 114.5Q506 67 468.5 40.5Q431 14 383.5 4.5Q336 -5 283 -5Q230 -5 185 4.5Q140 14 109 40.5Q78 67 64 114.5Q50 162 59 239L122 750H133L70 243Q61 173 71.5 127Q82 81 110 54Q138 27 181.5 16Q225 5 284 5ZM417 800 491 900H504L427 800ZM337 800 411 900H424L347 800Z" glyph-name="Uhungarumlaut" horiz-adv-x="628" unicode="&#368;" /><glyph d="M284 5Q342 5 389 16Q436 27 470 54Q504 81 525.5 127Q547 173 556 243L619 750H630L567 239Q558 162 532 114.5Q506 67 468.5 40.5Q431 14 383.5 4.5Q336 -5 283 -5Q230 -5 185 4.5Q140 14 109 40.5Q78 67 64 114.5Q50 162 59 239L122 750H133L70 243Q61 173 71.5 127Q82 81 110 54Q138 27 181.5 16Q225 5 284 5ZM509 845H265L266 855H510Z" glyph-name="Umacron" horiz-adv-x="628" unicode="&#362;" /><glyph d="M284 5Q342 5 389 16Q436 27 470 54Q504 81 525.5 127Q547 173 556 243L619 750H630L567 239Q559 177 540.5 134Q522 91 494.5 63Q467 35 432.5 20.5Q398 6 359 0Q338 -8 313 -22.5Q288 -37 265.5 -57Q243 -77 227 -103.5Q211 -130 207 -161Q202 -200 217.5 -220Q233 -240 281 -240Q296 -240 309.5 -238Q323 -236 335 -233L334 -243Q323 -246 308.5 -248Q294 -250 274 -250Q237 -250 212.5 -231.5Q188 -213 194 -165Q198 -135 210.5 -110.5Q223 -86 241 -66Q259 -46 281 -30.5Q303 -15 327 -3Q316 -4 305 -4.5Q294 -5 283 -5Q230 -5 185 4.5Q140 14 109 40.5Q78 67 64 114.5Q50 162 59 239L122 750H133L70 243Q61 173 71.5 127Q82 81 110 54Q138 27 181.5 16Q225 5 284 5Z" glyph-name="Uogonek" horiz-adv-x="628" unicode="&#370;" /><glyph d="M284 5Q342 5 389 16Q436 27 470 54Q504 81 525.5 127Q547 173 556 243L619 750H630L567 239Q558 162 532 114.5Q506 67 468.5 40.5Q431 14 383.5 4.5Q336 -5 283 -5Q230 -5 185 4.5Q140 14 109 40.5Q78 67 64 114.5Q50 162 59 239L122 750H133L70 243Q61 173 71.5 127Q82 81 110 54Q138 27 181.5 16Q225 5 284 5ZM382 774Q361 774 342 777.5Q323 781 310 789.5Q297 798 290.5 812.5Q284 827 287 850Q290 873 300 887.5Q310 902 325 910.5Q340 919 359.5 922.5Q379 926 400 926Q421 926 439.5 922.5Q458 919 471.5 910.5Q485 902 491.5 887.5Q498 873 495 850Q492 827 482 812.5Q472 798 457 789.5Q442 781 422.5 777.5Q403 774 382 774ZM399 916Q381 916 363.5 913.5Q346 911 332 904Q318 897 309 884Q300 871 297 850Q294 829 300.5 816Q307 803 319 796Q331 789 348 786.5Q365 784 383 784Q401 784 418.5 786.5Q436 789 450 796Q464 803 473 816Q482 829 485 850Q488 871 481.5 884Q475 897 463 904Q451 911 434 913.5Q417 916 399 916Z" glyph-name="Uring" horiz-adv-x="628" unicode="&#366;" /><glyph d="M284 5Q342 5 389 16Q436 27 470 54Q504 81 525.5 127Q547 173 556 243L619 750H630L567 239Q558 162 532 114.5Q506 67 468.5 40.5Q431 14 383.5 4.5Q336 -5 283 -5Q230 -5 185 4.5Q140 14 109 40.5Q78 67 64 114.5Q50 162 59 239L122 750H133L70 243Q61 173 71.5 127Q82 81 110 54Q138 27 181.5 16Q225 5 284 5ZM543 884Q525 810 456 810Q429 810 413.5 821Q398 832 385 845Q372 858 358 869Q344 880 319 880Q292 880 272 864Q252 848 244 816H233Q251 890 320 890Q347 890 362.5 879Q378 868 390.5 855Q403 842 417.5 831Q432 820 457 820Q484 820 504 836Q524 852 532 884Z" glyph-name="Utilde" horiz-adv-x="628" unicode="&#360;" /><glyph d="M627 750 267 -5H261L87 750H100L266 15L614 750Z" glyph-name="V" horiz-adv-x="590" unicode="V" /><glyph d="M464 750 566 15 821 750H834L569 -5H559L455 732L171 -5H161L82 750H95L168 15L452 750Z" glyph-name="W" horiz-adv-x="792" unicode="W" /><glyph d="M464 750 566 15 821 750H834L569 -5H559L455 732L171 -5H161L82 750H95L168 15L452 750ZM459 800 533 900H546L469 800Z" glyph-name="Wacute" horiz-adv-x="792" unicode="&#7810;" /><glyph d="M464 750 566 15 821 750H834L569 -5H559L455 732L171 -5H161L82 750H95L168 15L452 750ZM603 800 475 891 325 800H311L473 900H479L617 800Z" glyph-name="Wcircumflex" horiz-adv-x="792" unicode="&#372;" /><glyph d="M464 750 566 15 821 750H834L569 -5H559L455 732L171 -5H161L82 750H95L168 15L452 750ZM550 850Q550 856 554.5 860.5Q559 865 565 865Q571 865 575.5 860.5Q580 856 580 850Q580 844 575.5 839.5Q571 835 565 835Q559 835 554.5 839.5Q550 844 550 850ZM360 850Q360 856 364.5 860.5Q369 865 375 865Q381 865 385.5 860.5Q390 856 390 850Q390 844 385.5 839.5Q381 835 375 835Q369 835 364.5 839.5Q360 844 360 850Z" glyph-name="Wdieresis" horiz-adv-x="792" unicode="&#7812;" /><glyph d="M464 750 566 15 821 750H834L569 -5H559L455 732L171 -5H161L82 750H95L168 15L452 750ZM459 800 406 900H419L469 800Z" glyph-name="Wgrave" horiz-adv-x="792" unicode="&#7808;" /><glyph d="M286 370 -1 0H-15L281 379L83 750H97L288 388L569 750H583L293 379L497 0H483Z" glyph-name="X" horiz-adv-x="542" unicode="X" /><glyph d="M306 306 269 0H257L294 306L82 750H96L301 316L614 750H628Z" glyph-name="Y" horiz-adv-x="586" unicode="Y" /><glyph d="M306 306 269 0H257L294 306L82 750H96L301 316L614 750H628ZM356 800 430 900H443L366 800Z" glyph-name="Yacute" horiz-adv-x="586" unicode="&#221;" /><glyph d="M306 306 269 0H257L294 306L82 750H96L301 316L614 750H628ZM500 800 372 891 222 800H208L370 900H376L514 800Z" glyph-name="Ycircumflex" horiz-adv-x="586" unicode="&#374;" /><glyph d="M306 306 269 0H257L294 306L82 750H96L301 316L614 750H628ZM447 850Q447 856 451.5 860.5Q456 865 462 865Q468 865 472.5 860.5Q477 856 477 850Q477 844 472.5 839.5Q468 835 462 835Q456 835 451.5 839.5Q447 844 447 850ZM257 850Q257 856 261.5 860.5Q266 865 272 865Q278 865 282.5 860.5Q287 856 287 850Q287 844 282.5 839.5Q278 835 272 835Q266 835 261.5 839.5Q257 844 257 850Z" glyph-name="Ydieresis" horiz-adv-x="586" unicode="&#376;" /><glyph d="M-5 0 -4 9 564 738H107L109 750H582L580 741L12 12H506L505 0Z" glyph-name="Z" horiz-adv-x="560" unicode="Z" /><glyph d="M-5 0 -4 9 564 738H107L109 750H582L580 741L12 12H506L505 0ZM343 800 417 900H430L353 800Z" glyph-name="Zacute" horiz-adv-x="560" unicode="&#377;" /><glyph d="M-5 0 -4 9 564 738H107L109 750H582L580 741L12 12H506L505 0ZM221 900 349 809 499 900H513L351 800H345L207 900Z" glyph-name="Zcaron" horiz-adv-x="560" unicode="&#142;" /><glyph d="M-5 0 -4 9 564 738H107L109 750H582L580 741L12 12H506L505 0ZM339 850Q339 856 343.5 860.5Q348 865 354 865Q360 865 364.5 860.5Q369 856 369 850Q369 844 364.5 839.5Q360 835 354 835Q348 835 343.5 839.5Q339 844 339 850Z" glyph-name="Zdotaccent" horiz-adv-x="560" unicode="&#379;" /><glyph d="M55 250Q62 303 76.5 349.5Q91 396 118.5 430.5Q146 465 188 485Q230 505 292 505Q352 505 396 490.5Q440 476 472 453L481 500H490L429 0H420L422 47Q384 24 336.5 9.5Q289 -5 229 -5Q167 -5 130 15Q93 35 74 69.5Q55 104 52 150.5Q49 197 55 250ZM67 250Q61 204 62.5 160Q64 116 80.5 81.5Q97 47 132.5 26Q168 5 230 5Q287 5 336.5 20Q386 35 424 58L471 442Q439 465 393 480Q347 495 290 495Q228 495 187.5 474Q147 453 122 418.5Q97 384 85 340Q73 296 67 250Z" glyph-name="a" horiz-adv-x="529" unicode="a" /><glyph d="M55 250Q62 303 76.5 349.5Q91 396 118.5 430.5Q146 465 188 485Q230 505 292 505Q352 505 396 490.5Q440 476 472 453L481 500H490L429 0H420L422 47Q384 24 336.5 9.5Q289 -5 229 -5Q167 -5 130 15Q93 35 74 69.5Q55 104 52 150.5Q49 197 55 250ZM67 250Q61 204 62.5 160Q64 116 80.5 81.5Q97 47 132.5 26Q168 5 230 5Q287 5 336.5 20Q386 35 424 58L471 442Q439 465 393 480Q347 495 290 495Q228 495 187.5 474Q147 453 122 418.5Q97 384 85 340Q73 296 67 250ZM293 550 380 750H393L303 550Z" glyph-name="aacute" horiz-adv-x="529" unicode="&#225;" /><glyph d="M55 250Q62 303 76.5 349.5Q91 396 118.5 430.5Q146 465 188 485Q230 505 292 505Q352 505 396 490.5Q440 476 472 453L481 500H490L429 0H420L422 47Q384 24 336.5 9.5Q289 -5 229 -5Q167 -5 130 15Q93 35 74 69.5Q55 104 52 150.5Q49 197 55 250ZM67 250Q61 204 62.5 160Q64 116 80.5 81.5Q97 47 132.5 26Q168 5 230 5Q287 5 336.5 20Q386 35 424 58L471 442Q439 465 393 480Q347 495 290 495Q228 495 187.5 474Q147 453 122 418.5Q97 384 85 340Q73 296 67 250ZM298 550Q123 550 148 750H158Q153 706 158 670.5Q163 635 179.5 610.5Q196 586 225.5 573Q255 560 299 560Q387 560 431.5 610.5Q476 661 488 750H498Q473 550 298 550Z" glyph-name="abreve" horiz-adv-x="529" unicode="&#259;" /><glyph d="M55 250Q62 303 76.5 349.5Q91 396 118.5 430.5Q146 465 188 485Q230 505 292 505Q352 505 396 490.5Q440 476 472 453L481 500H490L429 0H420L422 47Q384 24 336.5 9.5Q289 -5 229 -5Q167 -5 130 15Q93 35 74 69.5Q55 104 52 150.5Q49 197 55 250ZM67 250Q61 204 62.5 160Q64 116 80.5 81.5Q97 47 132.5 26Q168 5 230 5Q287 5 336.5 20Q386 35 424 58L471 442Q439 465 393 480Q347 495 290 495Q228 495 187.5 474Q147 453 122 418.5Q97 384 85 340Q73 296 67 250ZM439 550 321 739 157 550H145L318 750H328L451 550Z" glyph-name="acircumflex" horiz-adv-x="529" unicode="&#226;" /><glyph d="M307 550 394 750H407L317 550Z" glyph-name="acute" horiz-adv-x="550" unicode="&#180;" /><glyph d="M338 800 412 900H425L348 800Z" glyph-name="acute.cap" horiz-adv-x="550" unicode="&#58402;" /><glyph d="M55 250Q62 303 76.5 349.5Q91 396 118.5 430.5Q146 465 188 485Q230 505 292 505Q352 505 396 490.5Q440 476 472 453L481 500H490L429 0H420L422 47Q384 24 336.5 9.5Q289 -5 229 -5Q167 -5 130 15Q93 35 74 69.5Q55 104 52 150.5Q49 197 55 250ZM67 250Q61 204 62.5 160Q64 116 80.5 81.5Q97 47 132.5 26Q168 5 230 5Q287 5 336.5 20Q386 35 424 58L471 442Q439 465 393 480Q347 495 290 495Q228 495 187.5 474Q147 453 122 418.5Q97 384 85 340Q73 296 67 250ZM200 650Q200 656 204.5 660.5Q209 665 215 665Q221 665 225.5 660.5Q230 656 230 650Q230 644 225.5 639.5Q221 635 215 635Q209 635 204.5 639.5Q200 644 200 650ZM390 650Q390 656 394.5 660.5Q399 665 405 665Q411 665 415.5 660.5Q420 656 420 650Q420 644 415.5 639.5Q411 635 405 635Q399 635 394.5 639.5Q390 644 390 650Z" glyph-name="adieresis" horiz-adv-x="529" unicode="&#228;" /><glyph d="M174 245Q152 245 127.5 242Q103 239 81 227.5Q59 216 43 192.5Q27 169 22 127Q19 103 23.5 80.5Q28 58 44 41.5Q60 25 90.5 15Q121 5 169 5Q220 5 267.5 19.5Q315 34 355 58Q371 68 378 75Q385 82 388 85Q375 117 373.5 157Q372 197 378 245ZM584 255Q630 255 663 264Q696 273 717.5 289Q739 305 750.5 327Q762 349 765 375Q768 401 762 423Q756 445 738 461Q720 477 689.5 486Q659 495 613 495Q553 495 513 476Q473 457 448.5 424Q424 391 411 347.5Q398 304 391 255ZM552 -5Q486 -5 448 16Q410 37 392 75Q387 70 377 62.5Q367 55 353 47Q336 36 314 26.5Q292 17 267 10Q242 3 216 -1Q190 -5 166 -5Q118 -5 86.5 4.5Q55 14 37 31.5Q19 49 13 73.5Q7 98 10 127Q15 165 28.5 190Q42 215 63 229.5Q84 244 112.5 249.5Q141 255 177 255H379L390 350Q395 389 391 416.5Q387 444 370.5 461.5Q354 479 323 487Q292 495 242 495Q195 495 156.5 488Q118 481 95 474L96 484Q112 489 131.5 493Q151 497 171 499.5Q191 502 210 503.5Q229 505 244 505Q297 505 329.5 496Q362 487 379.5 469.5Q397 452 402 425.5Q407 399 404 365Q416 397 434 423Q452 449 477.5 467Q503 485 537 495Q571 505 615 505Q665 505 698 495Q731 485 749.5 468Q768 451 774 427Q780 403 777 375Q773 347 761 323Q749 299 726.5 282Q704 265 668.5 255Q633 245 583 245H390Q384 196 386.5 152.5Q389 109 405.5 76Q422 43 457.5 24Q493 5 553 5Q607 5 645 13.5Q683 22 712 30L711 20Q679 10 635.5 2.5Q592 -5 552 -5Z" glyph-name="ae" horiz-adv-x="820" unicode="&#230;" /><glyph d="M55 250Q62 303 76.5 349.5Q91 396 118.5 430.5Q146 465 188 485Q230 505 292 505Q352 505 396 490.5Q440 476 472 453L481 500H490L429 0H420L422 47Q384 24 336.5 9.5Q289 -5 229 -5Q167 -5 130 15Q93 35 74 69.5Q55 104 52 150.5Q49 197 55 250ZM67 250Q61 204 62.5 160Q64 116 80.5 81.5Q97 47 132.5 26Q168 5 230 5Q287 5 336.5 20Q386 35 424 58L471 442Q439 465 393 480Q347 495 290 495Q228 495 187.5 474Q147 453 122 418.5Q97 384 85 340Q73 296 67 250ZM293 550 253 750H266L303 550Z" glyph-name="agrave" horiz-adv-x="529" unicode="&#224;" /><glyph d="M55 250Q62 303 76.5 349.5Q91 396 118.5 430.5Q146 465 188 485Q230 505 292 505Q352 505 396 490.5Q440 476 472 453L481 500H490L429 0H420L422 47Q384 24 336.5 9.5Q289 -5 229 -5Q167 -5 130 15Q93 35 74 69.5Q55 104 52 150.5Q49 197 55 250ZM67 250Q61 204 62.5 160Q64 116 80.5 81.5Q97 47 132.5 26Q168 5 230 5Q287 5 336.5 20Q386 35 424 58L471 442Q439 465 393 480Q347 495 290 495Q228 495 187.5 474Q147 453 122 418.5Q97 384 85 340Q73 296 67 250ZM432 645H188L189 655H433Z" glyph-name="amacron" horiz-adv-x="529" unicode="&#257;" /><glyph d="M529 750Q517 669 485.5 584Q454 499 398.5 423.5Q343 348 261.5 289Q180 230 68 202Q79 106 142 55.5Q205 5 310 5Q367 5 416 18.5Q465 32 501.5 60Q538 88 561.5 129Q585 170 592 226Q597 261 590.5 290Q584 319 573 335H463L464 347H714L713 335H588Q599 316 604 288.5Q609 261 604 226Q591 118 516.5 56.5Q442 -5 309 -5Q240 -5 188.5 16Q137 37 105 75.5Q73 114 61 169Q49 224 57 293Q74 434 156.5 512.5Q239 591 382 591Q402 591 428 588Q454 585 472 581Q489 623 500 665.5Q511 708 518 750ZM380 581Q317 581 263.5 562.5Q210 544 169.5 507.5Q129 471 103.5 417Q78 363 69 293Q67 272 66 252Q65 232 67 214Q145 233 208 268.5Q271 304 320.5 351.5Q370 399 406.5 455Q443 511 468 570Q453 575 426.5 578Q400 581 380 581Z" glyph-name="ampersand" horiz-adv-x="730" unicode="&amp;" /><glyph d="M55 250Q62 303 76.5 349.5Q91 396 118.5 430.5Q146 465 188 485Q230 505 292 505Q352 505 396 490.5Q440 476 472 453L481 500H490L429 0Q408 -8 383 -22.5Q358 -37 335.5 -57Q313 -77 297 -103.5Q281 -130 277 -161Q272 -200 287.5 -220Q303 -240 351 -240Q366 -240 379.5 -238Q393 -236 405 -233L404 -243Q393 -246 378.5 -248Q364 -250 344 -250Q307 -250 282.5 -231.5Q258 -213 264 -165Q268 -132 283 -105Q298 -78 319.5 -57Q341 -36 367 -20.5Q393 -5 419 6L422 47Q384 24 336.5 9.5Q289 -5 229 -5Q167 -5 130 15Q93 35 74 69.5Q55 104 52 150.5Q49 197 55 250ZM67 250Q61 204 62.5 160Q64 116 80.5 81.5Q97 47 132.5 26Q168 5 230 5Q287 5 336.5 20Q386 35 424 58L471 442Q439 465 393 480Q347 495 290 495Q228 495 187.5 474Q147 453 122 418.5Q97 384 85 340Q73 296 67 250Z" glyph-name="aogonek" horiz-adv-x="529" unicode="&#261;" /><glyph d="M415 384Q453 384 481.5 397Q510 410 521 421L519 407Q505 395 477.5 383.5Q450 372 415 372Q379 372 357 383.5Q335 395 316.5 409Q298 423 278 434.5Q258 446 226 446Q188 446 159.5 433Q131 420 120 409L121 423Q135 435 163 446.5Q191 458 226 458Q262 458 284 446.5Q306 435 324.5 421Q343 407 363 395.5Q383 384 415 384ZM396 235Q434 235 463 248Q492 261 503 272L501 258Q487 246 459.5 234.5Q432 223 397 223Q361 223 339 234.5Q317 246 298.5 260Q280 274 260 285.5Q240 297 208 297Q170 297 141 284Q112 271 101 260L103 274Q117 286 144.5 297.5Q172 309 207 309Q243 309 265 297.5Q287 286 305.5 272Q324 258 344 246.5Q364 235 396 235Z" glyph-name="approxequal" horiz-adv-x="600" unicode="&#8776;" /><glyph d="M55 250Q62 303 76.5 349.5Q91 396 118.5 430.5Q146 465 188 485Q230 505 292 505Q352 505 396 490.5Q440 476 472 453L481 500H490L429 0H420L422 47Q384 24 336.5 9.5Q289 -5 229 -5Q167 -5 130 15Q93 35 74 69.5Q55 104 52 150.5Q49 197 55 250ZM67 250Q61 204 62.5 160Q64 116 80.5 81.5Q97 47 132.5 26Q168 5 230 5Q287 5 336.5 20Q386 35 424 58L471 442Q439 465 393 480Q347 495 290 495Q228 495 187.5 474Q147 453 122 418.5Q97 384 85 340Q73 296 67 250ZM303 559Q348 559 375.5 581.5Q403 604 408 650Q414 696 392 718.5Q370 741 325 741Q280 741 253 718.5Q226 696 220 650Q215 604 236.5 581.5Q258 559 303 559ZM302 549Q251 549 227.5 574.5Q204 600 210 650Q216 700 246 725.5Q276 751 327 751Q430 751 418 650Q412 600 382.5 574.5Q353 549 302 549Z" glyph-name="aring" horiz-adv-x="529" unicode="&#229;" /><glyph d="M475 500 325 736 117 500H106L323 750H331L486 500Z" glyph-name="asciicircum" horiz-adv-x="510" unicode="^" /><glyph d="M351 310Q389 310 417.5 323Q446 336 457 347L455 333Q441 321 413.5 309.5Q386 298 351 298Q315 298 293 309.5Q271 321 252.5 335Q234 349 214 360.5Q194 372 162 372Q124 372 95.5 359Q67 346 56 335L57 349Q71 361 99 372.5Q127 384 162 384Q198 384 220 372.5Q242 361 260.5 347Q279 333 299 321.5Q319 310 351 310Z" glyph-name="asciitilde" horiz-adv-x="490" unicode="~" /><glyph d="M226 624 235 750H253L230 624ZM183 521 101 415 89 426 181 523ZM251 523 319 426 303 415 247 521ZM168 585 50 617 57 634 170 588ZM278 588 401 634 404 617 278 585Z" glyph-name="asterisk" horiz-adv-x="364" unicode="*" /><glyph d="M579 450H588L540 61H573Q626 61 663 78Q700 95 724.5 127.5Q749 160 762.5 207.5Q776 255 784 315Q793 392 786 448.5Q779 505 743.5 542Q708 579 638.5 597Q569 615 454 615Q341 615 266 586.5Q191 558 144.5 508.5Q98 459 74.5 392.5Q51 326 42 250Q33 175 40 109Q47 43 82 -7Q117 -57 187 -86Q257 -115 374 -115Q455 -115 529.5 -106Q604 -97 652 -83L651 -94Q597 -110 525.5 -117.5Q454 -125 373 -125Q254 -125 181.5 -96Q109 -67 72.5 -16.5Q36 34 28 102.5Q20 171 30 250Q40 329 64.5 397.5Q89 466 137.5 516.5Q186 567 263 596Q340 625 455 625Q570 625 641.5 606.5Q713 588 750.5 550Q788 512 797 453.5Q806 395 796 315Q785 226 762 174Q739 122 708 94Q677 66 640 58Q603 50 564 50H530L532 97Q495 74 458 59.5Q421 45 369 45Q319 45 287 60Q255 75 238 102Q221 129 217 166.5Q213 204 219 250Q225 296 238 333.5Q251 371 274.5 398Q298 425 333.5 440Q369 455 419 455Q471 455 504.5 440.5Q538 426 570 403ZM569 392Q537 415 502.5 430Q468 445 418 445Q367 445 333.5 429Q300 413 279 386Q258 359 247 323.5Q236 288 231 250Q226 212 228.5 176.5Q231 141 245.5 114Q260 87 289.5 71Q319 55 370 55Q420 55 458 70Q496 85 534 108Z" glyph-name="at" horiz-adv-x="818" unicode="@" /><glyph d="M55 250Q62 303 76.5 349.5Q91 396 118.5 430.5Q146 465 188 485Q230 505 292 505Q352 505 396 490.5Q440 476 472 453L481 500H490L429 0H420L422 47Q384 24 336.5 9.5Q289 -5 229 -5Q167 -5 130 15Q93 35 74 69.5Q55 104 52 150.5Q49 197 55 250ZM67 250Q61 204 62.5 160Q64 116 80.5 81.5Q97 47 132.5 26Q168 5 230 5Q287 5 336.5 20Q386 35 424 58L471 442Q439 465 393 480Q347 495 290 495Q228 495 187.5 474Q147 453 122 418.5Q97 384 85 340Q73 296 67 250ZM465 684Q447 610 378 610Q351 610 335.5 621Q320 632 307 645Q294 658 280 669Q266 680 241 680Q214 680 194 664Q174 648 166 616H155Q173 690 242 690Q269 690 284.5 679Q300 668 313 655Q326 642 340.5 631Q355 620 380 620Q407 620 426.5 636Q446 652 454 684Z" glyph-name="atilde" horiz-adv-x="529" unicode="&#227;" /><glyph d="M107 453Q145 476 193 490.5Q241 505 301 505Q362 505 399.5 485Q437 465 455.5 430.5Q474 396 477.5 349.5Q481 303 474 250Q468 197 453 150.5Q438 104 411 69.5Q384 35 341.5 15Q299 -5 238 -5Q178 -5 133.5 9.5Q89 24 57 47L49 0H40L132 750H144ZM59 58Q91 35 136.5 20Q182 5 239 5Q301 5 341.5 26Q382 47 407 81.5Q432 116 444 160Q456 204 462 250Q468 296 466 340Q464 384 447.5 418.5Q431 453 396 474Q361 495 299 495Q242 495 193 480Q144 465 106 442Z" glyph-name="b" horiz-adv-x="529" unicode="b" /><glyph d="M290 -200 68 800H81L303 -200Z" glyph-name="backslash" horiz-adv-x="358" unicode="\" /><glyph d="M47 -200 170 800H182L59 -200Z" glyph-name="bar" horiz-adv-x="216" unicode="|" /><glyph d="M76 300Q88 298 97.5 294Q107 290 113.5 281Q120 272 122 257Q124 242 120 218L59 -115Q52 -153 69 -170.5Q86 -188 129 -188H136L135 -200H128Q106 -200 89 -196Q72 -192 60.5 -182.5Q49 -173 45 -156.5Q41 -140 46 -114L106 218Q114 260 99.5 277Q85 294 43 294H36L37 306H44Q86 306 105 323Q124 340 126 382L147 714Q151 765 179 782.5Q207 800 251 800H258L256 788H249Q206 788 185 770.5Q164 753 161 715L140 382Q138 358 132.5 343Q127 328 118.5 319Q110 310 99 306Q88 302 76 300Z" glyph-name="braceleft" horiz-adv-x="230" unicode="{" /><glyph d="M166 300Q155 302 145 306Q135 310 129 319Q123 328 120.5 343Q118 358 122 382L183 715Q191 753 173.5 770.5Q156 788 113 788H106L108 800H115Q137 800 154 796Q171 792 182.5 782.5Q194 773 198 756Q202 739 197 714L136 382Q129 340 143.5 323Q158 306 200 306H207L206 294H199Q157 294 138 277Q119 260 116 218L96 -114Q92 -165 64 -182.5Q36 -200 -8 -200H-15L-14 -188H-7Q36 -188 57.5 -170.5Q79 -153 81 -115L102 218Q104 242 110 257Q116 272 124.5 281Q133 290 143.5 294Q154 298 166 300Z" glyph-name="braceright" horiz-adv-x="230" unicode="}" /><glyph d="M32 -200 155 800H283L281 788H165L45 -188H161L160 -200Z" glyph-name="bracketleft" horiz-adv-x="230" unicode="[" /><glyph d="M-39 -200 -38 -188H77L197 788H81L83 800H211L88 -200Z" glyph-name="bracketright" horiz-adv-x="230" unicode="]" /><glyph d="M312 550Q137 550 162 750H172Q167 706 172 670.5Q177 635 193.5 610.5Q210 586 239.5 573Q269 560 313 560Q401 560 445.5 610.5Q490 661 502 750H512Q487 550 312 550Z" glyph-name="breve" horiz-adv-x="550" unicode="&#728;" /><glyph d="M341 790Q305 790 277.5 795.5Q250 801 231.5 813.5Q213 826 204.5 847Q196 868 200 900H210Q205 849 235.5 824.5Q266 800 343 800Q420 800 456.5 824.5Q493 849 500 900H510Q502 837 457.5 813.5Q413 790 341 790Z" glyph-name="breve.cap" horiz-adv-x="550" unicode="&#58406;" /><glyph d="M85 375Q85 402 95 425.5Q105 449 123 467Q141 485 164.5 495Q188 505 215 505Q242 505 265.5 495Q289 485 307 467Q325 449 335 425.5Q345 402 345 375Q345 348 335 324.5Q325 301 307 283Q289 265 265.5 255Q242 245 215 245Q188 245 164.5 255Q141 265 123 283Q105 301 95 324.5Q85 348 85 375Z" glyph-name="bullet" horiz-adv-x="400" unicode="&#8226;" /><glyph d="M55 250Q62 305 76.5 352Q91 399 118.5 433Q146 467 188 486Q230 505 292 505Q324 505 359 500.5Q394 496 424 486L423 476Q398 483 367 489Q336 495 290 495Q229 495 189 474.5Q149 454 124 420Q99 386 86 342Q73 298 67 250Q61 202 63 158Q65 114 82 80Q99 46 134 25.5Q169 5 230 5Q277 5 308.5 11Q340 17 367 24L366 14Q334 5 297 0Q260 -5 229 -5Q167 -5 130 14Q93 33 74 67Q55 101 51.5 148Q48 195 55 250Z" glyph-name="c" horiz-adv-x="445" unicode="c" /><glyph d="M55 250Q62 305 76.5 352Q91 399 118.5 433Q146 467 188 486Q230 505 292 505Q324 505 359 500.5Q394 496 424 486L423 476Q398 483 367 489Q336 495 290 495Q229 495 189 474.5Q149 454 124 420Q99 386 86 342Q73 298 67 250Q61 202 63 158Q65 114 82 80Q99 46 134 25.5Q169 5 230 5Q277 5 308.5 11Q340 17 367 24L366 14Q334 5 297 0Q260 -5 229 -5Q167 -5 130 14Q93 33 74 67Q55 101 51.5 148Q48 195 55 250ZM288 550 375 750H388L298 550Z" glyph-name="cacute" horiz-adv-x="445" unicode="&#263;" /><glyph d="M196 750 313 561 478 750H490L317 550H307L184 750Z" glyph-name="caron" horiz-adv-x="550" unicode="&#711;" /><glyph d="M216 900 344 809 494 900H508L346 800H340L202 900Z" glyph-name="caron.cap" horiz-adv-x="550" unicode="&#58413;" /><glyph d="M370 550 421 750H435L379 550Z" glyph-name="caronSlovak" horiz-adv-x="550" unicode="&#58387;" /><glyph d="M55 250Q62 305 76.5 352Q91 399 118.5 433Q146 467 188 486Q230 505 292 505Q324 505 359 500.5Q394 496 424 486L423 476Q398 483 367 489Q336 495 290 495Q229 495 189 474.5Q149 454 124 420Q99 386 86 342Q73 298 67 250Q61 202 63 158Q65 114 82 80Q99 46 134 25.5Q169 5 230 5Q277 5 308.5 11Q340 17 367 24L366 14Q334 5 297 0Q260 -5 229 -5Q167 -5 130 14Q93 33 74 67Q55 101 51.5 148Q48 195 55 250ZM177 750 294 561 459 750H471L298 550H288L165 750Z" glyph-name="ccaron" horiz-adv-x="445" unicode="&#269;" /><glyph d="M220 -5Q161 -4 125.5 16Q90 36 72 70Q54 104 51.5 150Q49 196 55 250Q62 305 76.5 352Q91 399 118.5 433Q146 467 188 486Q230 505 292 505Q324 505 359 500.5Q394 496 424 486L423 476Q398 483 367 489Q336 495 290 495Q229 495 189 474.5Q149 454 124 420Q99 386 86 342Q73 298 67 250Q61 202 63 158Q65 114 82 80Q99 46 134 25.5Q169 5 230 5Q277 5 308.5 11Q340 17 367 24L366 14Q334 5 297 0Q260 -5 229 -5H228L222 -67Q262 -77 286.5 -102Q311 -127 306 -168Q303 -191 292.5 -206.5Q282 -222 267 -232Q252 -242 234 -246Q216 -250 198 -250Q172 -250 154 -245.5Q136 -241 124 -236L125 -226Q136 -231 156 -235.5Q176 -240 193 -240Q241 -240 265 -221Q289 -202 294 -168Q299 -130 275 -107Q251 -84 209 -76Z" glyph-name="ccedilla" horiz-adv-x="445" unicode="&#231;" /><glyph d="M55 250Q62 305 76.5 352Q91 399 118.5 433Q146 467 188 486Q230 505 292 505Q324 505 359 500.5Q394 496 424 486L423 476Q398 483 367 489Q336 495 290 495Q229 495 189 474.5Q149 454 124 420Q99 386 86 342Q73 298 67 250Q61 202 63 158Q65 114 82 80Q99 46 134 25.5Q169 5 230 5Q277 5 308.5 11Q340 17 367 24L366 14Q334 5 297 0Q260 -5 229 -5Q167 -5 130 14Q93 33 74 67Q55 101 51.5 148Q48 195 55 250ZM434 550 316 739 152 550H140L313 750H323L446 550Z" glyph-name="ccircumflex" horiz-adv-x="445" unicode="&#265;" /><glyph d="M55 250Q62 305 76.5 352Q91 399 118.5 433Q146 467 188 486Q230 505 292 505Q324 505 359 500.5Q394 496 424 486L423 476Q398 483 367 489Q336 495 290 495Q229 495 189 474.5Q149 454 124 420Q99 386 86 342Q73 298 67 250Q61 202 63 158Q65 114 82 80Q99 46 134 25.5Q169 5 230 5Q277 5 308.5 11Q340 17 367 24L366 14Q334 5 297 0Q260 -5 229 -5Q167 -5 130 14Q93 33 74 67Q55 101 51.5 148Q48 195 55 250ZM290 650Q290 656 294.5 660.5Q299 665 305 665Q311 665 315.5 660.5Q320 656 320 650Q320 644 315.5 639.5Q311 635 305 635Q299 635 294.5 639.5Q290 644 290 650Z" glyph-name="cdotaccent" horiz-adv-x="445" unicode="&#267;" /><glyph d="M241 0H249L242 -67Q282 -77 306.5 -102Q331 -127 326 -168Q323 -191 312.5 -206.5Q302 -222 287 -232Q272 -242 254 -246Q236 -250 218 -250Q192 -250 174 -245.5Q156 -241 144 -236L145 -226Q156 -231 176 -235.5Q196 -240 213 -240Q261 -240 285 -221Q309 -202 314 -168Q319 -130 295 -107Q271 -84 229 -76Z" glyph-name="cedilla" horiz-adv-x="550" unicode="&#184;" /><glyph d="M71 375Q78 433 99 480Q120 527 158 559.5Q196 592 254 609.5Q312 627 393 627Q404 627 415.5 626.5Q427 626 439 625L500 750H512L450 624Q480 620 507 614.5Q534 609 553 602L552 592Q528 600 489 608.5Q450 617 390 617Q313 617 258 600Q203 583 166 551.5Q129 520 109.5 475Q90 430 83 375Q76 320 85 275Q94 230 123 198.5Q152 167 203 150Q254 133 331 133Q391 133 432 141.5Q473 150 499 158L498 148Q466 137 420.5 130Q375 123 332 123Q273 123 230 132L167 0H155L220 134Q125 156 92 218.5Q59 281 71 375Z" glyph-name="cent" horiz-adv-x="600" unicode="&#162;" /><glyph d="M453 550 335 739 171 550H159L332 750H342L465 550Z" glyph-name="circumflex" horiz-adv-x="550" unicode="&#710;" /><glyph d="M482 800 354 891 204 800H190L352 900H358L496 800Z" glyph-name="circumflex.cap" horiz-adv-x="550" unicode="&#58403;" /><glyph d="M46 10Q46 16 50.5 20.5Q55 25 61 25Q67 25 71.5 20.5Q76 16 76 10Q76 4 71.5 -0.5Q67 -5 61 -5Q55 -5 50.5 -0.5Q46 4 46 10ZM91 375Q91 381 95.5 385.5Q100 390 106 390Q112 390 116.5 385.5Q121 381 121 375Q121 369 116.5 364.5Q112 360 106 360Q100 360 95.5 364.5Q91 369 91 375Z" glyph-name="colon" horiz-adv-x="180" unicode=":" /><glyph d="M80 20 27 -125H19L61 20Z" glyph-name="comma" horiz-adv-x="180" unicode="," /><glyph d="M145 -250 230 -50H246L156 -250Z" glyph-name="commaaccent" horiz-adv-x="570" unicode="&#58388;" /><glyph d="M234 -250 319 -50H335L245 -250Z" glyph-name="commaaccent.cap" horiz-adv-x="570" /><glyph d="M51 313Q60 390 91.5 449Q123 508 172 548.5Q221 589 284 610Q347 631 419 631Q491 631 549 610Q607 589 645.5 548.5Q684 508 701 449Q718 390 709 313Q700 236 668.5 177Q637 118 588 77.5Q539 37 476 16Q413 -5 341 -5Q269 -5 211 16Q153 37 114.5 77.5Q76 118 59 177Q42 236 51 313ZM63 313Q54 239 70 182Q86 125 122.5 86Q159 47 215 26.5Q271 6 342 6Q413 6 474 26.5Q535 47 581.5 86Q628 125 658 182Q688 239 697 313Q706 387 690 444Q674 501 637.5 540Q601 579 545 599.5Q489 620 418 620Q347 620 286 599.5Q225 579 178.5 540Q132 501 102 444Q72 387 63 313ZM188 313Q194 364 212.5 400Q231 436 259.5 459Q288 482 325 492.5Q362 503 406 503Q447 503 479.5 496Q512 489 526 484L525 473Q506 478 477.5 485Q449 492 405 492Q364 492 329.5 482.5Q295 473 268 452Q241 431 223.5 397Q206 363 200 313Q194 263 203 229Q212 195 234 174Q256 153 288 143.5Q320 134 361 134Q405 134 435 141Q465 148 485 153L484 142Q468 137 434.5 130Q401 123 360 123Q316 123 281.5 133.5Q247 144 224 167Q201 190 191.5 226Q182 262 188 313Z" glyph-name="copyright" horiz-adv-x="744" unicode="&#169;" /><glyph d="M509 750H521L429 0H420L422 47Q384 24 336.5 9.5Q289 -5 229 -5Q167 -5 130 15Q93 35 74 69.5Q55 104 52 150.5Q49 197 55 250Q62 303 76.5 349.5Q91 396 118.5 430.5Q146 465 188 485Q230 505 292 505Q352 505 396 490.5Q440 476 472 453ZM471 442Q439 465 393 480Q347 495 290 495Q228 495 187.5 474Q147 453 122 418.5Q97 384 85 340Q73 296 67 250Q61 204 62.5 160Q64 116 80.5 81.5Q97 47 132.5 26Q168 5 230 5Q287 5 336.5 20Q386 35 424 58Z" glyph-name="d" horiz-adv-x="529" unicode="d" /><glyph d="M217 551 193 301H175L213 551ZM220 609 231 750H249L224 609ZM248 582 390 589 388 571 247 578ZM189 578 48 571 50 589 190 582Z" glyph-name="dagger" horiz-adv-x="356" unicode="&#8224;" /><glyph d="M180 250 157 0H139L176 250ZM217 551 208 430 187 308H183L192 430L213 551ZM248 582 390 589 388 571 247 578ZM211 281 353 288 351 270 211 277ZM189 578 48 571 50 589 190 582ZM153 277 11 270 13 288 153 281ZM220 609 231 750H249L224 609Z" glyph-name="daggerdbl" horiz-adv-x="356" unicode="&#8225;" /><glyph d="M509 750H521L429 0H420L422 47Q384 24 336.5 9.5Q289 -5 229 -5Q167 -5 130 15Q93 35 74 69.5Q55 104 52 150.5Q49 197 55 250Q62 303 76.5 349.5Q91 396 118.5 430.5Q146 465 188 485Q230 505 292 505Q352 505 396 490.5Q440 476 472 453ZM471 442Q439 465 393 480Q347 495 290 495Q228 495 187.5 474Q147 453 122 418.5Q97 384 85 340Q73 296 67 250Q61 204 62.5 160Q64 116 80.5 81.5Q97 47 132.5 26Q168 5 230 5Q287 5 336.5 20Q386 35 424 58ZM554 550 605 750H619L563 550Z" glyph-name="dcaron" horiz-adv-x="529" unicode="&#271;" /><glyph d="M616 630H506L429 0H420L422 47Q384 24 336.5 9.5Q289 -5 229 -5Q167 -5 130 15Q93 35 74 69.5Q55 104 52 150.5Q49 197 55 250Q62 303 76.5 349.5Q91 396 118.5 430.5Q146 465 188 485Q230 505 292 505Q352 505 396 490.5Q440 476 472 453L494 630H321L322 640H495L509 750H521L507 640H617ZM471 442Q439 465 393 480Q347 495 290 495Q228 495 187.5 474Q147 453 122 418.5Q97 384 85 340Q73 296 67 250Q61 204 62.5 160Q64 116 80.5 81.5Q97 47 132.5 26Q168 5 230 5Q287 5 336.5 20Q386 35 424 58Z" glyph-name="dcroat" horiz-adv-x="529" unicode="&#273;" /><glyph d="M198 495Q174 495 150.5 500Q127 505 110 519Q93 533 84.5 558.5Q76 584 81 625Q86 667 101 692.5Q116 718 136.5 732Q157 746 181.5 750.5Q206 755 230 755Q254 755 277.5 750.5Q301 746 318 732Q335 718 343.5 692.5Q352 667 347 625Q342 584 327.5 558.5Q313 533 292 519Q271 505 246.5 500Q222 495 198 495ZM229 744Q168 744 134.5 716Q101 688 93 625Q85 562 112 534Q139 506 200 506Q261 506 294 534Q327 562 335 625Q343 688 316.5 716Q290 744 229 744Z" glyph-name="degree" horiz-adv-x="336" unicode="&#176;" /><glyph d="M214 650Q214 656 218.5 660.5Q223 665 229 665Q235 665 239.5 660.5Q244 656 244 650Q244 644 239.5 639.5Q235 635 229 635Q223 635 218.5 639.5Q214 644 214 650ZM404 650Q404 656 408.5 660.5Q413 665 419 665Q425 665 429.5 660.5Q434 656 434 650Q434 644 429.5 639.5Q425 635 419 635Q413 635 408.5 639.5Q404 644 404 650Z" glyph-name="dieresis" horiz-adv-x="550" unicode="&#168;" /><glyph d="M429 850Q429 856 433.5 860.5Q438 865 444 865Q450 865 454.5 860.5Q459 856 459 850Q459 844 454.5 839.5Q450 835 444 835Q438 835 433.5 839.5Q429 844 429 850ZM239 850Q239 856 243.5 860.5Q248 865 254 865Q260 865 264.5 860.5Q269 856 269 850Q269 844 264.5 839.5Q260 835 254 835Q248 835 243.5 839.5Q239 844 239 850Z" glyph-name="dieresis.cap" horiz-adv-x="550" unicode="&#58409;" /><glyph d="M511 335H111L112 347H512ZM316 490Q316 496 320.5 500.5Q325 505 331 505Q337 505 341.5 500.5Q346 496 346 490Q346 484 341.5 479.5Q337 475 331 475Q325 475 320.5 479.5Q316 484 316 490ZM307 192Q307 186 302.5 181.5Q298 177 292 177Q286 177 281.5 181.5Q277 186 277 192Q277 198 281.5 202.5Q286 207 292 207Q298 207 302.5 202.5Q307 198 307 192Z" glyph-name="divide" horiz-adv-x="600" unicode="&#247;" /><glyph d="M63 -125 124 5Q98 10 76.5 16Q55 22 41 29L43 41Q58 34 80 27Q102 20 129 15L304 388Q250 394 213 405Q176 416 154 436.5Q132 457 125 488Q118 519 124 566Q128 604 143 638Q158 672 188 698Q218 724 267 739.5Q316 755 390 755Q438 755 473 749L532 875H544L484 748Q510 743 529.5 737Q549 731 566 725L564 713Q542 721 521.5 727Q501 733 479 737L319 396Q323 396 326.5 395.5Q330 395 334 395Q395 389 436 378.5Q477 368 501 346.5Q525 325 532.5 290.5Q540 256 533 202Q528 164 511.5 127Q495 90 460 60.5Q425 31 369.5 13Q314 -5 232 -5Q209 -5 184 -2.5Q159 0 135 4L75 -125ZM325 386Q318 386 315 387L140 14Q161 10 184.5 8Q208 6 234 6Q307 6 359 21.5Q411 37 445.5 63.5Q480 90 498 125.5Q516 161 521 202Q527 248 521.5 280.5Q516 313 494 334.5Q472 356 431 368Q390 380 325 386ZM135 565Q130 521 136.5 492Q143 463 163.5 444Q184 425 219.5 414.5Q255 404 308 398L468 739Q450 741 430.5 742.5Q411 744 389 744Q320 744 273.5 730Q227 716 197.5 692Q168 668 153.5 635Q139 602 135 565Z" glyph-name="dollar" horiz-adv-x="600" unicode="$" /><glyph d="M309 650Q309 656 313.5 660.5Q318 665 324 665Q330 665 334.5 660.5Q339 656 339 650Q339 644 334.5 639.5Q330 635 324 635Q318 635 313.5 639.5Q309 644 309 650Z" glyph-name="dotaccent" horiz-adv-x="550" unicode="&#729;" /><glyph d="M334 850Q334 856 338.5 860.5Q343 865 349 865Q355 865 359.5 860.5Q364 856 364 850Q364 844 359.5 839.5Q355 835 349 835Q343 835 338.5 839.5Q334 844 334 850Z" glyph-name="dotaccent.cap" horiz-adv-x="550" unicode="&#58408;" /><glyph d="M108 -5Q73 -5 61.5 6Q50 17 54 44L110 500H122L66 41Q63 21 72.5 13Q82 5 109 5Z" glyph-name="dotlessi" horiz-adv-x="204" unicode="&#305;" /><glyph d="M56 -127Q48 -189 3.5 -222Q-41 -255 -113 -255L-111 -244Q-82 -244 -55.5 -237.5Q-29 -231 -8.5 -217Q12 -203 26 -180Q40 -157 44 -124L121 500H133Z" glyph-name="dotlessj" horiz-adv-x="181" unicode="&#567;" /><glyph d="M298 800 245 900H258L308 800ZM378 800 325 900H338L388 800Z" glyph-name="doublegrave.cap" horiz-adv-x="550" unicode="&#58412;" /><glyph d="M261 255Q307 255 340 264Q373 273 394.5 289Q416 305 427.5 327Q439 349 442 375Q445 401 439 423Q433 445 415 461Q397 477 366.5 486Q336 495 290 495Q230 495 190 476Q150 457 125.5 424Q101 391 88 347.5Q75 304 68 255ZM67 245Q61 196 63.5 152.5Q66 109 82.5 76Q99 43 134.5 24Q170 5 230 5Q284 5 322 13.5Q360 22 389 30L388 20Q356 10 312.5 2.5Q269 -5 229 -5Q167 -5 130 14Q93 33 74 66.5Q55 100 51.5 147Q48 194 55 250Q62 306 76.5 353Q91 400 118.5 433.5Q146 467 188 486Q230 505 292 505Q342 505 375 495Q408 485 426.5 468Q445 451 451 427Q457 403 454 375Q450 347 438 323Q426 299 403.5 282Q381 265 345.5 255Q310 245 260 245Z" glyph-name="e" horiz-adv-x="497" unicode="e" /><glyph d="M261 255Q307 255 340 264Q373 273 394.5 289Q416 305 427.5 327Q439 349 442 375Q445 401 439 423Q433 445 415 461Q397 477 366.5 486Q336 495 290 495Q230 495 190 476Q150 457 125.5 424Q101 391 88 347.5Q75 304 68 255ZM67 245Q61 196 63.5 152.5Q66 109 82.5 76Q99 43 134.5 24Q170 5 230 5Q284 5 322 13.5Q360 22 389 30L388 20Q356 10 312.5 2.5Q269 -5 229 -5Q167 -5 130 14Q93 33 74 66.5Q55 100 51.5 147Q48 194 55 250Q62 306 76.5 353Q91 400 118.5 433.5Q146 467 188 486Q230 505 292 505Q342 505 375 495Q408 485 426.5 468Q445 451 451 427Q457 403 454 375Q450 347 438 323Q426 299 403.5 282Q381 265 345.5 255Q310 245 260 245ZM283 550 370 750H383L293 550Z" glyph-name="eacute" horiz-adv-x="497" unicode="&#233;" /><glyph d="M261 255Q307 255 340 264Q373 273 394.5 289Q416 305 427.5 327Q439 349 442 375Q445 401 439 423Q433 445 415 461Q397 477 366.5 486Q336 495 290 495Q230 495 190 476Q150 457 125.5 424Q101 391 88 347.5Q75 304 68 255ZM67 245Q61 196 63.5 152.5Q66 109 82.5 76Q99 43 134.5 24Q170 5 230 5Q284 5 322 13.5Q360 22 389 30L388 20Q356 10 312.5 2.5Q269 -5 229 -5Q167 -5 130 14Q93 33 74 66.5Q55 100 51.5 147Q48 194 55 250Q62 306 76.5 353Q91 400 118.5 433.5Q146 467 188 486Q230 505 292 505Q342 505 375 495Q408 485 426.5 468Q445 451 451 427Q457 403 454 375Q450 347 438 323Q426 299 403.5 282Q381 265 345.5 255Q310 245 260 245ZM288 550Q113 550 138 750H148Q143 706 148 670.5Q153 635 169.5 610.5Q186 586 215.5 573Q245 560 289 560Q377 560 421.5 610.5Q466 661 478 750H488Q463 550 288 550Z" glyph-name="ebreve" horiz-adv-x="497" unicode="&#277;" /><glyph d="M261 255Q307 255 340 264Q373 273 394.5 289Q416 305 427.5 327Q439 349 442 375Q445 401 439 423Q433 445 415 461Q397 477 366.5 486Q336 495 290 495Q230 495 190 476Q150 457 125.5 424Q101 391 88 347.5Q75 304 68 255ZM67 245Q61 196 63.5 152.5Q66 109 82.5 76Q99 43 134.5 24Q170 5 230 5Q284 5 322 13.5Q360 22 389 30L388 20Q356 10 312.5 2.5Q269 -5 229 -5Q167 -5 130 14Q93 33 74 66.5Q55 100 51.5 147Q48 194 55 250Q62 306 76.5 353Q91 400 118.5 433.5Q146 467 188 486Q230 505 292 505Q342 505 375 495Q408 485 426.5 468Q445 451 451 427Q457 403 454 375Q450 347 438 323Q426 299 403.5 282Q381 265 345.5 255Q310 245 260 245ZM172 750 289 561 454 750H466L293 550H283L160 750Z" glyph-name="ecaron" horiz-adv-x="497" unicode="&#283;" /><glyph d="M261 255Q307 255 340 264Q373 273 394.5 289Q416 305 427.5 327Q439 349 442 375Q445 401 439 423Q433 445 415 461Q397 477 366.5 486Q336 495 290 495Q230 495 190 476Q150 457 125.5 424Q101 391 88 347.5Q75 304 68 255ZM67 245Q61 196 63.5 152.5Q66 109 82.5 76Q99 43 134.5 24Q170 5 230 5Q284 5 322 13.5Q360 22 389 30L388 20Q356 10 312.5 2.5Q269 -5 229 -5Q167 -5 130 14Q93 33 74 66.5Q55 100 51.5 147Q48 194 55 250Q62 306 76.5 353Q91 400 118.5 433.5Q146 467 188 486Q230 505 292 505Q342 505 375 495Q408 485 426.5 468Q445 451 451 427Q457 403 454 375Q450 347 438 323Q426 299 403.5 282Q381 265 345.5 255Q310 245 260 245ZM429 550 311 739 147 550H135L308 750H318L441 550Z" glyph-name="ecircumflex" horiz-adv-x="497" unicode="&#234;" /><glyph d="M261 255Q307 255 340 264Q373 273 394.5 289Q416 305 427.5 327Q439 349 442 375Q445 401 439 423Q433 445 415 461Q397 477 366.5 486Q336 495 290 495Q230 495 190 476Q150 457 125.5 424Q101 391 88 347.5Q75 304 68 255ZM67 245Q61 196 63.5 152.5Q66 109 82.5 76Q99 43 134.5 24Q170 5 230 5Q284 5 322 13.5Q360 22 389 30L388 20Q356 10 312.5 2.5Q269 -5 229 -5Q167 -5 130 14Q93 33 74 66.5Q55 100 51.5 147Q48 194 55 250Q62 306 76.5 353Q91 400 118.5 433.5Q146 467 188 486Q230 505 292 505Q342 505 375 495Q408 485 426.5 468Q445 451 451 427Q457 403 454 375Q450 347 438 323Q426 299 403.5 282Q381 265 345.5 255Q310 245 260 245ZM190 650Q190 656 194.5 660.5Q199 665 205 665Q211 665 215.5 660.5Q220 656 220 650Q220 644 215.5 639.5Q211 635 205 635Q199 635 194.5 639.5Q190 644 190 650ZM380 650Q380 656 384.5 660.5Q389 665 395 665Q401 665 405.5 660.5Q410 656 410 650Q410 644 405.5 639.5Q401 635 395 635Q389 635 384.5 639.5Q380 644 380 650Z" glyph-name="edieresis" horiz-adv-x="497" unicode="&#235;" /><glyph d="M261 255Q307 255 340 264Q373 273 394.5 289Q416 305 427.5 327Q439 349 442 375Q445 401 439 423Q433 445 415 461Q397 477 366.5 486Q336 495 290 495Q230 495 190 476Q150 457 125.5 424Q101 391 88 347.5Q75 304 68 255ZM67 245Q61 196 63.5 152.5Q66 109 82.5 76Q99 43 134.5 24Q170 5 230 5Q284 5 322 13.5Q360 22 389 30L388 20Q356 10 312.5 2.5Q269 -5 229 -5Q167 -5 130 14Q93 33 74 66.5Q55 100 51.5 147Q48 194 55 250Q62 306 76.5 353Q91 400 118.5 433.5Q146 467 188 486Q230 505 292 505Q342 505 375 495Q408 485 426.5 468Q445 451 451 427Q457 403 454 375Q450 347 438 323Q426 299 403.5 282Q381 265 345.5 255Q310 245 260 245ZM285 650Q285 656 289.5 660.5Q294 665 300 665Q306 665 310.5 660.5Q315 656 315 650Q315 644 310.5 639.5Q306 635 300 635Q294 635 289.5 639.5Q285 644 285 650Z" glyph-name="edotaccent" horiz-adv-x="497" unicode="&#279;" /><glyph d="M261 255Q307 255 340 264Q373 273 394.5 289Q416 305 427.5 327Q439 349 442 375Q445 401 439 423Q433 445 415 461Q397 477 366.5 486Q336 495 290 495Q230 495 190 476Q150 457 125.5 424Q101 391 88 347.5Q75 304 68 255ZM67 245Q61 196 63.5 152.5Q66 109 82.5 76Q99 43 134.5 24Q170 5 230 5Q284 5 322 13.5Q360 22 389 30L388 20Q356 10 312.5 2.5Q269 -5 229 -5Q167 -5 130 14Q93 33 74 66.5Q55 100 51.5 147Q48 194 55 250Q62 306 76.5 353Q91 400 118.5 433.5Q146 467 188 486Q230 505 292 505Q342 505 375 495Q408 485 426.5 468Q445 451 451 427Q457 403 454 375Q450 347 438 323Q426 299 403.5 282Q381 265 345.5 255Q310 245 260 245ZM283 550 243 750H256L293 550Z" glyph-name="egrave" horiz-adv-x="497" unicode="&#232;" /><glyph d="M362 755Q424 755 465 742.5Q506 730 529 706Q552 682 559 647.5Q566 613 560 569Q551 495 511 448.5Q471 402 388 388Q483 374 517.5 323.5Q552 273 542 194Q536 148 519 111Q502 74 469.5 48.5Q437 23 387.5 9Q338 -5 269 -5Q200 -5 154 9Q108 23 81.5 48.5Q55 74 46.5 111Q38 148 44 194Q54 273 100.5 323.5Q147 374 246 388Q165 402 137 448.5Q109 495 118 569Q124 613 139.5 647.5Q155 682 183.5 706Q212 730 256 742.5Q300 755 362 755ZM270 5Q339 5 386 19Q433 33 463.5 58.5Q494 84 509.5 118.5Q525 153 530 194Q535 235 528 269.5Q521 304 497 329.5Q473 355 429.5 369Q386 383 317 383Q248 383 201 369Q154 355 123.5 329.5Q93 304 77 269.5Q61 235 56 194Q51 153 58 118.5Q65 84 89.5 58.5Q114 33 157.5 19Q201 5 270 5ZM361 745Q298 745 255.5 731Q213 717 187 693Q161 669 147.5 637Q134 605 130 569Q125 533 130.5 501Q136 469 156.5 445Q177 421 216 407Q255 393 318 393Q381 393 423 407Q465 421 491.5 445Q518 469 530.5 501Q543 533 548 569Q552 605 547 637Q542 669 522 693Q502 717 463 731Q424 745 361 745Z" glyph-name="eight" horiz-adv-x="600" unicode="8" /><glyph d="M121 10Q121 16 125.5 20.5Q130 25 136 25Q142 25 146.5 20.5Q151 16 151 10Q151 4 146.5 -0.5Q142 -5 136 -5Q130 -5 125.5 -0.5Q121 4 121 10ZM451 10Q451 16 455.5 20.5Q460 25 466 25Q472 25 476.5 20.5Q481 16 481 10Q481 4 476.5 -0.5Q472 -5 466 -5Q460 -5 455.5 -0.5Q451 4 451 10ZM781 10Q781 16 785.5 20.5Q790 25 796 25Q802 25 806.5 20.5Q811 16 811 10Q811 4 806.5 -0.5Q802 -5 796 -5Q790 -5 785.5 -0.5Q781 4 781 10Z" glyph-name="ellipsis" horiz-adv-x="990" unicode="&#8230;" /><glyph d="M261 255Q307 255 340 264Q373 273 394.5 289Q416 305 427.5 327Q439 349 442 375Q445 401 439 423Q433 445 415 461Q397 477 366.5 486Q336 495 290 495Q230 495 190 476Q150 457 125.5 424Q101 391 88 347.5Q75 304 68 255ZM67 245Q61 196 63.5 152.5Q66 109 82.5 76Q99 43 134.5 24Q170 5 230 5Q284 5 322 13.5Q360 22 389 30L388 20Q356 10 312.5 2.5Q269 -5 229 -5Q167 -5 130 14Q93 33 74 66.5Q55 100 51.5 147Q48 194 55 250Q62 306 76.5 353Q91 400 118.5 433.5Q146 467 188 486Q230 505 292 505Q342 505 375 495Q408 485 426.5 468Q445 451 451 427Q457 403 454 375Q450 347 438 323Q426 299 403.5 282Q381 265 345.5 255Q310 245 260 245ZM422 645H178L179 655H423Z" glyph-name="emacron" horiz-adv-x="497" unicode="&#275;" /><glyph d="M951 335H71L72 347H952Z" glyph-name="emdash" horiz-adv-x="1000" unicode="&#8212;" /><glyph d="M451 335H71L72 347H452Z" glyph-name="endash" horiz-adv-x="500" unicode="&#8211;" /><glyph d="M442 373Q446 410 438.5 433.5Q431 457 413 470.5Q395 484 367.5 489.5Q340 495 304 495Q238 495 185 478Q132 461 101 442L47 0H35L96 500H105L102 453Q140 476 192 490.5Q244 505 306 505Q395 505 429 475Q463 445 454 371L393 -127Q385 -189 340.5 -222Q296 -255 223 -255L224 -245Q253 -245 280 -238.5Q307 -232 328 -218Q349 -204 363 -181Q377 -158 381 -125Z" glyph-name="eng" horiz-adv-x="499" unicode="&#331;" /><glyph d="M261 255Q307 255 340 264Q373 273 394.5 289Q416 305 427.5 327Q439 349 442 375Q445 401 439 423Q433 445 415 461Q397 477 366.5 486Q336 495 290 495Q230 495 190 476Q150 457 125.5 424Q101 391 88 347.5Q75 304 68 255ZM55 250Q62 306 76.5 353Q91 400 118.5 433.5Q146 467 188 486Q230 505 292 505Q342 505 375 495Q408 485 426.5 468Q445 451 451 427Q457 403 454 375Q450 347 438 323Q426 299 403.5 282Q381 265 345.5 255Q310 245 260 245H67Q61 196 63.5 152.5Q66 109 82.5 76Q99 43 134.5 24Q170 5 230 5Q284 5 322 13.5Q360 22 389 30L388 20Q368 14 344.5 8.5Q321 3 295 0Q274 -8 249 -22.5Q224 -37 201.5 -57Q179 -77 163 -103.5Q147 -130 143 -161Q138 -200 153.5 -220Q169 -240 217 -240Q232 -240 245.5 -238Q259 -236 271 -233L270 -243Q259 -246 244.5 -248Q230 -250 210 -250Q173 -250 148.5 -231.5Q124 -213 130 -165Q134 -135 146 -110.5Q158 -86 176 -66Q194 -46 216.5 -30.5Q239 -15 263 -3Q254 -4 245.5 -4.5Q237 -5 229 -5Q167 -5 130 14Q93 33 74 66.5Q55 100 51.5 147Q48 194 55 250Z" glyph-name="eogonek" horiz-adv-x="497" unicode="&#281;" /><glyph d="M520 414H120L122 426H522ZM501 256H101L102 268H502Z" glyph-name="equal" horiz-adv-x="600" unicode="=" /><glyph d="M351 676Q420 603 451 496Q482 389 465 250Q459 197 444 150.5Q429 104 402 69.5Q375 35 332.5 15Q290 -5 229 -5Q167 -5 130 15Q93 35 74 69.5Q55 104 52 150.5Q49 197 55 250Q62 303 76.5 349.5Q91 396 118.5 430.5Q146 465 188 485Q230 505 292 505Q334 505 363 496Q392 487 411 472.5Q430 458 441 439.5Q452 421 458 403Q443 490 416 554.5Q389 619 340 670L172 590L173 602L332 678Q312 698 288.5 715.5Q265 733 237 750H258Q281 736 302.5 719.5Q324 703 343 683L482 750L480 738ZM290 495Q228 495 187.5 474Q147 453 122 418.5Q97 384 85 340Q73 296 67 250Q61 204 62.5 160Q64 116 80.5 81.5Q97 47 132.5 26Q168 5 230 5Q292 5 332.5 26Q373 47 398 81.5Q423 116 435 160Q447 204 453 250Q459 296 457 340Q455 384 438.5 418.5Q422 453 387 474Q352 495 290 495Z" glyph-name="eth" horiz-adv-x="520" unicode="&#240;" /><glyph d="M81 210 144 750H160L89 210ZM46 10Q46 16 50.5 20.5Q55 25 61 25Q67 25 71.5 20.5Q76 16 76 10Q76 4 71.5 -0.5Q67 -5 61 -5Q55 -5 50.5 -0.5Q46 4 46 10Z" glyph-name="exclam" horiz-adv-x="180" unicode="!" /><glyph d="M99 290 37 -250H21L91 290ZM105 490Q105 496 109.5 500.5Q114 505 120 505Q126 505 130.5 500.5Q135 496 135 490Q135 484 130.5 479.5Q126 475 120 475Q114 475 109.5 479.5Q105 484 105 490Z" glyph-name="exclamdown" horiz-adv-x="180" unicode="&#161;" /><glyph d="M158 500 172 618Q181 687 226 721Q271 755 360 755Q369 755 387.5 754Q406 753 417 751L415 740Q405 742 388.5 743Q372 744 359 744Q324 744 294 738Q264 732 241 717Q218 702 203 677.5Q188 653 184 617L170 500H361L360 489H169L78 -250H66L157 489H65L66 498Z" glyph-name="f" horiz-adv-x="370" unicode="f" /><glyph d="M158 500 172 618Q181 687 226 721Q271 755 360 755Q369 755 387.5 754Q406 753 417 751L415 740Q405 742 388.5 743Q372 744 359 744Q324 744 294 738Q264 732 241 717Q218 702 203 677.5Q188 653 184 617L170 500H361L360 489H169L78 -250H66L157 489H65L66 498ZM478 -5Q443 -5 431.5 6Q420 17 424 44L480 500H492L436 41Q433 21 442.5 13Q452 5 479 5ZM489 650Q489 656 493.5 660.5Q498 665 504 665Q510 665 514.5 660.5Q519 656 519 650Q519 644 514.5 639.5Q510 635 504 635Q498 635 493.5 639.5Q489 644 489 650Z" glyph-name="fi" horiz-adv-x="574" unicode="&#64257;" /><glyph d="M205 -5Q182 -5 156.5 -3.5Q131 -2 107.5 1Q84 4 64.5 8Q45 12 34 16L36 27Q46 23 65.5 19Q85 15 109 12Q133 9 158.5 7Q184 5 207 5Q247 5 298 11Q349 17 395.5 40Q442 63 477.5 108.5Q513 154 523 233Q532 310 511 351Q490 392 451 410Q412 428 362 430.5Q312 433 264 433Q246 433 220 432.5Q194 432 169 432Q140 431 110 431L150 750H581L579 738H160L124 442Q156 442 187 443Q213 444 241 444.5Q269 445 289 445Q342 445 390.5 439Q439 433 474 411.5Q509 390 526.5 347.5Q544 305 535 233Q525 150 488 102.5Q451 55 402.5 31Q354 7 301 1Q248 -5 205 -5Z" glyph-name="five" horiz-adv-x="600" unicode="5" /><glyph d="M158 500 172 618Q181 687 226 721Q271 755 360 755Q369 755 387.5 754Q406 753 417 751L415 740Q405 742 388.5 743Q372 744 359 744Q324 744 294 738Q264 732 241 717Q218 702 203 677.5Q188 653 184 617L170 500H361L360 489H169L78 -250H66L157 489H65L66 498ZM478 -5Q443 -5 431.5 6Q420 17 424 44L511 750H523L436 41Q433 21 442.5 13Q452 5 479 5Z" glyph-name="fl" horiz-adv-x="574" unicode="&#64258;" /><glyph d="M559 727Q527 736 492 740.5Q457 745 412 745Q374 745 340 737Q306 729 280 711Q254 693 237 665.5Q220 638 215 599L188 381H460L459 369H187L142 0H130L175 369H64L65 381H176L203 598Q212 671 264 713Q316 755 413 755Q460 755 496 750.5Q532 746 560 738Z" glyph-name="florin" horiz-adv-x="600" unicode="&#402;" /><glyph d="M425 242H540L539 230H424L396 0H384L412 230H37L38 239L479 755H488ZM413 242 473 732 54 242Z" glyph-name="four" horiz-adv-x="600" unicode="4" /><glyph d="M-80 0 542 750H556L-66 0Z" glyph-name="fraction" horiz-adv-x="444" unicode="&#8260;" /><glyph d="M55 250Q62 303 76.5 349.5Q91 396 118.5 430.5Q146 465 188 485Q230 505 292 505Q352 505 396 490.5Q440 476 472 453L481 500H490L416 -104Q412 -137 399 -164.5Q386 -192 361 -212Q336 -232 296 -243.5Q256 -255 198 -255Q132 -255 91.5 -248Q51 -241 22 -230L24 -219Q65 -235 105 -240Q145 -245 199 -245Q256 -245 293.5 -233.5Q331 -222 354.5 -203Q378 -184 389 -158.5Q400 -133 404 -104L422 47Q384 24 336.5 9.5Q289 -5 229 -5Q167 -5 130 15Q93 35 74 69.5Q55 104 52 150.5Q49 197 55 250ZM67 250Q61 204 62.5 160Q64 116 80.5 81.5Q97 47 132.5 26Q168 5 230 5Q287 5 336.5 20Q386 35 424 58L471 442Q439 465 393 480Q347 495 290 495Q228 495 187.5 474Q147 453 122 418.5Q97 384 85 340Q73 296 67 250Z" glyph-name="g" horiz-adv-x="529" unicode="g" /><glyph d="M55 250Q62 303 76.5 349.5Q91 396 118.5 430.5Q146 465 188 485Q230 505 292 505Q352 505 396 490.5Q440 476 472 453L481 500H490L416 -104Q412 -137 399 -164.5Q386 -192 361 -212Q336 -232 296 -243.5Q256 -255 198 -255Q132 -255 91.5 -248Q51 -241 22 -230L24 -219Q65 -235 105 -240Q145 -245 199 -245Q256 -245 293.5 -233.5Q331 -222 354.5 -203Q378 -184 389 -158.5Q400 -133 404 -104L422 47Q384 24 336.5 9.5Q289 -5 229 -5Q167 -5 130 15Q93 35 74 69.5Q55 104 52 150.5Q49 197 55 250ZM67 250Q61 204 62.5 160Q64 116 80.5 81.5Q97 47 132.5 26Q168 5 230 5Q287 5 336.5 20Q386 35 424 58L471 442Q439 465 393 480Q347 495 290 495Q228 495 187.5 474Q147 453 122 418.5Q97 384 85 340Q73 296 67 250ZM298 550Q123 550 148 750H158Q153 706 158 670.5Q163 635 179.5 610.5Q196 586 225.5 573Q255 560 299 560Q387 560 431.5 610.5Q476 661 488 750H498Q473 550 298 550Z" glyph-name="gbreve" horiz-adv-x="529" unicode="&#287;" /><glyph d="M55 250Q62 303 76.5 349.5Q91 396 118.5 430.5Q146 465 188 485Q230 505 292 505Q352 505 396 490.5Q440 476 472 453L481 500H490L416 -104Q412 -137 399 -164.5Q386 -192 361 -212Q336 -232 296 -243.5Q256 -255 198 -255Q132 -255 91.5 -248Q51 -241 22 -230L24 -219Q65 -235 105 -240Q145 -245 199 -245Q256 -245 293.5 -233.5Q331 -222 354.5 -203Q378 -184 389 -158.5Q400 -133 404 -104L422 47Q384 24 336.5 9.5Q289 -5 229 -5Q167 -5 130 15Q93 35 74 69.5Q55 104 52 150.5Q49 197 55 250ZM67 250Q61 204 62.5 160Q64 116 80.5 81.5Q97 47 132.5 26Q168 5 230 5Q287 5 336.5 20Q386 35 424 58L471 442Q439 465 393 480Q347 495 290 495Q228 495 187.5 474Q147 453 122 418.5Q97 384 85 340Q73 296 67 250ZM439 550 321 739 157 550H145L318 750H328L451 550Z" glyph-name="gcircumflex" horiz-adv-x="529" unicode="&#285;" /><glyph d="M55 250Q62 303 76.5 349.5Q91 396 118.5 430.5Q146 465 188 485Q230 505 292 505Q352 505 396 490.5Q440 476 472 453L481 500H490L416 -104Q412 -137 399 -164.5Q386 -192 361 -212Q336 -232 296 -243.5Q256 -255 198 -255Q132 -255 91.5 -248Q51 -241 22 -230L24 -219Q65 -235 105 -240Q145 -245 199 -245Q256 -245 293.5 -233.5Q331 -222 354.5 -203Q378 -184 389 -158.5Q400 -133 404 -104L422 47Q384 24 336.5 9.5Q289 -5 229 -5Q167 -5 130 15Q93 35 74 69.5Q55 104 52 150.5Q49 197 55 250ZM67 250Q61 204 62.5 160Q64 116 80.5 81.5Q97 47 132.5 26Q168 5 230 5Q287 5 336.5 20Q386 35 424 58L471 442Q439 465 393 480Q347 495 290 495Q228 495 187.5 474Q147 453 122 418.5Q97 384 85 340Q73 296 67 250ZM391 750 305 550H289L380 750Z" glyph-name="gcommaaccent" horiz-adv-x="529" unicode="&#291;" /><glyph d="M55 250Q62 303 76.5 349.5Q91 396 118.5 430.5Q146 465 188 485Q230 505 292 505Q352 505 396 490.5Q440 476 472 453L481 500H490L416 -104Q412 -137 399 -164.5Q386 -192 361 -212Q336 -232 296 -243.5Q256 -255 198 -255Q132 -255 91.5 -248Q51 -241 22 -230L24 -219Q65 -235 105 -240Q145 -245 199 -245Q256 -245 293.5 -233.5Q331 -222 354.5 -203Q378 -184 389 -158.5Q400 -133 404 -104L422 47Q384 24 336.5 9.5Q289 -5 229 -5Q167 -5 130 15Q93 35 74 69.5Q55 104 52 150.5Q49 197 55 250ZM67 250Q61 204 62.5 160Q64 116 80.5 81.5Q97 47 132.5 26Q168 5 230 5Q287 5 336.5 20Q386 35 424 58L471 442Q439 465 393 480Q347 495 290 495Q228 495 187.5 474Q147 453 122 418.5Q97 384 85 340Q73 296 67 250ZM295 650Q295 656 299.5 660.5Q304 665 310 665Q316 665 320.5 660.5Q325 656 325 650Q325 644 320.5 639.5Q316 635 310 635Q304 635 299.5 639.5Q295 644 295 650Z" glyph-name="gdotaccent" horiz-adv-x="529" unicode="&#289;" /><glyph d="M168 19Q189 14 214.5 9.5Q240 5 275 5Q328 5 360.5 17.5Q393 30 411.5 48.5Q430 67 437.5 88.5Q445 110 447 129Q451 164 444.5 186.5Q438 209 422.5 223Q407 237 382.5 245.5Q358 254 328 262Q302 269 279.5 276Q257 283 242 294Q227 305 219.5 323Q212 341 216 370Q220 403 236 423.5Q252 444 273.5 457.5Q295 471 319.5 482Q344 493 366 508Q388 523 404 545.5Q420 568 425 605Q433 674 400 709.5Q367 745 290 745Q218 745 179 708.5Q140 672 132 609L27 -250H15L120 608Q128 675 169.5 715Q211 755 291 755Q335 755 365 744.5Q395 734 412 714.5Q429 695 434.5 667Q440 639 436 605Q431 566 415 542.5Q399 519 377 503Q355 487 330 476Q305 465 283.5 452Q262 439 246.5 420Q231 401 227 370Q224 342 230.5 326Q237 310 252 300.5Q267 291 288 285Q309 279 334 271Q358 264 382.5 256.5Q407 249 426 234.5Q445 220 454.5 195Q464 170 459 129Q457 109 449 86Q441 63 421 42.5Q401 22 366 8.5Q331 -5 274 -5Q248 -5 220 -1.5Q192 2 166 9Z" glyph-name="germandbls" horiz-adv-x="519" unicode="&#223;" /><glyph d="M307 550 267 750H280L317 550Z" glyph-name="grave" horiz-adv-x="550" unicode="`" /><glyph d="M338 800 285 900H298L348 800Z" glyph-name="grave.cap" horiz-adv-x="550" unicode="&#58401;" /><glyph d="M144 570 507 349 505 333 88 112 90 128 494 341 143 554Z" glyph-name="greater" horiz-adv-x="600" unicode="&gt;" /><glyph d="M104 238 500 396 143 554 144 570 514 405 512 387 102 222ZM90 128 500 293 499 277 88 112Z" glyph-name="greaterequal" horiz-adv-x="600" unicode="&#8805;" /><glyph d="M56 254 266 422 265 409 66 249 225 89 224 76 54 244ZM246 254 456 422 455 409 256 249 415 89 414 76 244 244Z" glyph-name="guillemotleft" horiz-adv-x="495" unicode="&#171;" /><glyph d="M439 244 229 76 230 89 429 249 270 409 271 422 441 254ZM249 244 39 76 40 89 239 249 80 409 81 422 251 254Z" glyph-name="guillemotright" horiz-adv-x="495" unicode="&#187;" /><glyph d="M56 254 266 422 265 409 66 249 225 89 224 76 54 244Z" glyph-name="guilsinglleft" horiz-adv-x="305" unicode="&#8249;" /><glyph d="M249 244 39 76 40 89 239 249 80 409 81 422 251 254Z" glyph-name="guilsinglright" horiz-adv-x="305" unicode="&#8250;" /><glyph d="M40 0 132 750H144L107 453Q145 476 197 490.5Q249 505 311 505Q400 505 434 475Q468 445 459 371L414 0H402L447 373Q451 410 443.5 433.5Q436 457 418 470.5Q400 484 372.5 489.5Q345 495 309 495Q243 495 190 478Q137 461 106 442L52 0Z" glyph-name="h" horiz-adv-x="509" unicode="h" /><glyph d="M302 630H129L107 453Q145 476 197 490.5Q249 505 311 505Q400 505 434 475Q468 445 459 371L414 0H402L447 373Q451 410 443.5 433.5Q436 457 418 470.5Q400 484 372.5 489.5Q345 495 309 495Q243 495 190 478Q137 461 106 442L52 0H40L117 630H7L8 640H118L132 750H144L130 640H303Z" glyph-name="hbar" horiz-adv-x="509" unicode="&#295;" /><glyph d="M40 0 132 750H144L107 453Q145 476 197 490.5Q249 505 311 505Q400 505 434 475Q468 445 459 371L414 0H402L447 373Q451 410 443.5 433.5Q436 457 418 470.5Q400 484 372.5 489.5Q345 495 309 495Q243 495 190 478Q137 461 106 442L52 0ZM284 800 156 891 6 800H-8L154 900H160L298 800Z" glyph-name="hcircumflex" horiz-adv-x="509" unicode="&#293;" /><glyph d="M267 550 354 750H367L277 550ZM347 550 434 750H447L357 550Z" glyph-name="hungarumlaut" horiz-adv-x="550" unicode="&#733;" /><glyph d="M378 800 452 900H465L388 800ZM298 800 372 900H385L308 800Z" glyph-name="hungarumlaut.cap" horiz-adv-x="550" unicode="&#58411;" /><glyph d="M321 335H71L72 347H322Z" glyph-name="hyphen" horiz-adv-x="370" unicode="-" /><glyph d="M108 -5Q73 -5 61.5 6Q50 17 54 44L110 500H122L66 41Q63 21 72.5 13Q82 5 109 5ZM119 650Q119 656 123.5 660.5Q128 665 134 665Q140 665 144.5 660.5Q149 656 149 650Q149 644 144.5 639.5Q140 635 134 635Q128 635 123.5 639.5Q119 644 119 650Z" glyph-name="i" horiz-adv-x="204" unicode="i" /><glyph d="M108 -5Q73 -5 61.5 6Q50 17 54 44L110 500H122L66 41Q63 21 72.5 13Q82 5 109 5ZM118 550 205 750H218L128 550Z" glyph-name="iacute" horiz-adv-x="204" unicode="&#237;" /><glyph d="M108 -5Q73 -5 61.5 6Q50 17 54 44L110 500H122L66 41Q63 21 72.5 13Q82 5 109 5ZM123 550Q-52 550 -27 750H-17Q-22 706 -17 670.5Q-12 635 4.5 610.5Q21 586 50.5 573Q80 560 124 560Q212 560 256.5 610.5Q301 661 313 750H323Q298 550 123 550Z" glyph-name="ibreve" horiz-adv-x="204" unicode="&#301;" /><glyph d="M108 -5Q73 -5 61.5 6Q50 17 54 44L110 500H122L66 41Q63 21 72.5 13Q82 5 109 5ZM265 550 147 739 -17 550H-29L144 750H154L277 550Z" glyph-name="icircumflex" horiz-adv-x="204" unicode="&#238;" /><glyph d="M108 -5Q73 -5 61.5 6Q50 17 54 44L110 500H122L66 41Q63 21 72.5 13Q82 5 109 5ZM44 650Q44 656 48.5 660.5Q53 665 59 665Q65 665 69.5 660.5Q74 656 74 650Q74 644 69.5 639.5Q65 635 59 635Q53 635 48.5 639.5Q44 644 44 650ZM194 650Q194 656 198.5 660.5Q203 665 209 665Q215 665 219.5 660.5Q224 656 224 650Q224 644 219.5 639.5Q215 635 209 635Q203 635 198.5 639.5Q194 644 194 650Z" glyph-name="idieresis" horiz-adv-x="204" unicode="&#239;" /><glyph d="M108 -5Q73 -5 61.5 6Q50 17 54 44L110 500H122L66 41Q63 21 72.5 13Q82 5 109 5ZM118 550 78 750H91L128 550Z" glyph-name="igrave" horiz-adv-x="204" unicode="&#236;" /><glyph d="M108 -5Q73 -5 61.5 6Q50 17 54 44L110 500H122L66 41Q63 21 72.5 13Q82 5 109 5ZM119 650Q119 656 123.5 660.5Q128 665 134 665Q140 665 144.5 660.5Q149 656 149 650Q149 644 144.5 639.5Q140 635 134 635Q128 635 123.5 639.5Q119 644 119 650ZM235 -127Q227 -189 182.5 -222Q138 -255 66 -255L68 -244Q97 -244 123.5 -237.5Q150 -231 170.5 -217Q191 -203 205 -180Q219 -157 223 -124L300 500H312ZM309 650Q309 656 313.5 660.5Q318 665 324 665Q330 665 334.5 660.5Q339 656 339 650Q339 644 334.5 639.5Q330 635 324 635Q318 635 313.5 639.5Q309 644 309 650Z" glyph-name="ij" horiz-adv-x="360" unicode="&#307;" /><glyph d="M108 -5Q73 -5 61.5 6Q50 17 54 44L110 500H122L66 41Q63 21 72.5 13Q82 5 109 5ZM257 645H13L14 655H258Z" glyph-name="imacron" horiz-adv-x="204" unicode="&#299;" /><glyph d="M225 481Q202 482 178 477Q154 472 133 458Q112 444 97 419.5Q82 395 77 357Q72 319 81.5 294.5Q91 270 108.5 256Q126 242 148.5 237Q171 232 194 233Q222 234 251 248Q280 262 306.5 281Q333 300 354.5 321Q376 342 391 357Q380 372 363.5 393Q347 414 325.5 433Q304 452 278.5 466Q253 480 225 481ZM397 348Q376 325 351.5 303Q327 281 300 263Q273 245 245 234Q217 223 189 223Q122 223 89.5 255.5Q57 288 65 357Q74 426 114.5 458.5Q155 491 222 491Q250 491 275.5 480Q301 469 323.5 451Q346 433 365 410.5Q384 388 399 366Q420 388 445 410.5Q470 433 497 451Q524 469 552 480Q580 491 608 491Q675 491 707.5 458.5Q740 426 731 357Q723 288 682.5 255.5Q642 223 575 223Q547 223 521.5 234Q496 245 473.5 263Q451 281 432 303.5Q413 326 397 348ZM572 233Q594 232 618.5 237Q643 242 663.5 256Q684 270 699 294.5Q714 319 719 357Q724 395 715 419.5Q706 444 688.5 458Q671 472 648 477Q625 482 603 481Q574 480 545 466Q516 452 489.5 433Q463 414 441.5 393Q420 372 405 357Q416 342 432.5 321Q449 300 470.5 281Q492 262 517.5 248Q543 234 572 233Z" glyph-name="infinity" horiz-adv-x="770" unicode="&#8734;" /><glyph d="M56 -127Q48 -189 3.5 -222Q-41 -255 -113 -255L-112 -245Q-83 -245 -56.5 -238.5Q-30 -232 -9 -218Q12 -204 26 -181Q40 -158 44 -125L135 618Q144 687 189 721Q234 755 323 755Q332 755 350.5 754Q369 753 380 751L379 742Q368 744 351.5 745Q335 746 322 746Q287 746 257 739.5Q227 733 204 718Q181 703 166 678.5Q151 654 147 618Z" glyph-name="integral" horiz-adv-x="181" unicode="&#8747;" /><glyph d="M356 910Q392 910 420 904.5Q448 899 466.5 886.5Q485 874 493.5 852.5Q502 831 498 800H488Q493 851 462.5 875.5Q432 900 355 900Q278 900 241.5 875.5Q205 851 198 800H188Q196 863 240 886.5Q284 910 356 910Z" glyph-name="invertedbreve.cap" horiz-adv-x="550" unicode="&#58407;" /><glyph d="M108 -5Q88 -16 67 -31.5Q46 -47 27.5 -66.5Q9 -86 -4 -110Q-17 -134 -20 -161Q-25 -200 -9.5 -220Q6 -240 54 -240Q69 -240 82.5 -238Q96 -236 108 -233L107 -243Q96 -246 81.5 -248Q67 -250 47 -250Q10 -250 -14 -231.5Q-38 -213 -32 -165Q-29 -138 -17.5 -114Q-6 -90 10.5 -69.5Q27 -49 47.5 -32.5Q68 -16 89 -4Q66 -1 58.5 10Q51 21 54 44L110 500H122L66 41Q63 21 72.5 13Q82 5 109 5ZM119 650Q119 656 123.5 660.5Q128 665 134 665Q140 665 144.5 660.5Q149 656 149 650Q149 644 144.5 639.5Q140 635 134 635Q128 635 123.5 639.5Q119 644 119 650Z" glyph-name="iogonek" horiz-adv-x="204" unicode="&#303;" /><glyph d="M108 -5Q73 -5 61.5 6Q50 17 54 44L110 500H122L66 41Q63 21 72.5 13Q82 5 109 5ZM290 684Q272 610 203 610Q176 610 160.5 621Q145 632 132 645Q119 658 105 669Q91 680 66 680Q39 680 19 664Q-1 648 -9 616H-20Q-2 690 67 690Q94 690 109.5 679Q125 668 138 655Q151 642 165.5 631Q180 620 205 620Q232 620 251.5 636Q271 652 279 684Z" glyph-name="itilde" horiz-adv-x="204" unicode="&#297;" /><glyph d="M56 -127Q48 -189 3.5 -222Q-41 -255 -113 -255L-111 -244Q-82 -244 -55.5 -237.5Q-29 -231 -8.5 -217Q12 -203 26 -180Q40 -157 44 -124L121 500H133ZM130 650Q130 656 134.5 660.5Q139 665 145 665Q151 665 155.5 660.5Q160 656 160 650Q160 644 155.5 639.5Q151 635 145 635Q139 635 134.5 639.5Q130 644 130 650Z" glyph-name="j" horiz-adv-x="181" unicode="j" /><glyph d="M56 -127Q48 -189 3.5 -222Q-41 -255 -113 -255L-111 -244Q-82 -244 -55.5 -237.5Q-29 -231 -8.5 -217Q12 -203 26 -180Q40 -157 44 -124L121 500H133ZM275 550 157 739 -7 550H-19L154 750H164L287 550Z" glyph-name="jcircumflex" horiz-adv-x="181" unicode="&#309;" /><glyph d="M191 296 400 0H385L181 288L76 197L52 0H40L132 750H144L78 212L409 500H426Z" glyph-name="k" horiz-adv-x="445" unicode="k" /><glyph d="M191 296 400 0H385L181 288L76 197L52 0H40L132 750H144L78 212L409 500H426ZM101 -250 186 -50H202L112 -250Z" glyph-name="kcommaaccent" horiz-adv-x="445" unicode="&#311;" /><glyph d="M191 296 400 0H385L181 288L76 197L52 0H40L101 500H113L78 212L409 500H426Z" glyph-name="kgreenlandic" horiz-adv-x="445" unicode="&#312;" /><glyph d="M108 -5Q73 -5 61.5 6Q50 17 54 44L141 750H153L66 41Q63 21 72.5 13Q82 5 109 5Z" glyph-name="l" horiz-adv-x="204" unicode="l" /><glyph d="M108 -5Q73 -5 61.5 6Q50 17 54 44L141 750H153L66 41Q63 21 72.5 13Q82 5 109 5ZM149 800 236 1000H249L159 800Z" glyph-name="lacute" horiz-adv-x="204" unicode="&#314;" /><glyph d="M108 -5Q73 -5 61.5 6Q50 17 54 44L141 750H153L66 41Q63 21 72.5 13Q82 5 109 5ZM217 550 268 750H282L226 550Z" glyph-name="lcaron" horiz-adv-x="204" unicode="&#318;" /><glyph d="M108 -5Q73 -5 61.5 6Q50 17 54 44L141 750H153L66 41Q63 21 72.5 13Q82 5 109 5ZM-24 -250 61 -50H77L-13 -250Z" glyph-name="lcommaaccent" horiz-adv-x="204" unicode="&#316;" /><glyph d="M108 -5Q73 -5 61.5 6Q50 17 54 44L141 750H153L66 41Q63 21 72.5 13Q82 5 109 5ZM310 376Q310 382 314.5 386.5Q319 391 325 391Q331 391 335.5 386.5Q340 382 340 376Q340 370 335.5 365.5Q331 361 325 361Q319 361 314.5 365.5Q310 370 310 376Z" glyph-name="ldot" horiz-adv-x="384" unicode="&#320;" /><glyph d="M478 112 115 333 117 349 534 570 533 554 128 341 480 128Z" glyph-name="less" horiz-adv-x="600" unicode="&lt;" /><glyph d="M492 222 122 387 124 405 534 570 533 554 136 396 494 238ZM478 112 109 277 110 293 480 128Z" glyph-name="lessequal" horiz-adv-x="600" unicode="&#8804;" /><glyph d="M468 250 497 488H119L121 500H511L480 250Z" glyph-name="logicalnot" horiz-adv-x="570" unicode="&#172;" /><glyph d="M819 375 404 -5 83 375 497 755ZM802 375 495 737 100 375 406 13Z" glyph-name="lozenge" horiz-adv-x="870" unicode="&#9674;" /><glyph d="M12 355 119 419 160 750H172L132 427L262 505L260 491L130 413L85 41Q82 21 91.5 13Q101 5 128 5L127 -5Q92 -5 80.5 6Q69 17 73 44L117 405L10 341Z" glyph-name="lslash" horiz-adv-x="204" unicode="&#322;" /><glyph d="M35 0 96 500H105L102 453Q140 476 188 490.5Q236 505 296 505Q357 505 390 491Q423 477 434 445Q481 474 532.5 489.5Q584 505 643 505Q731 505 763 474.5Q795 444 786 371L741 0H729L774 374Q779 411 772 435Q765 459 748 472.5Q731 486 704 491Q677 496 641 496Q585 496 536 481Q487 466 437 437Q441 423 441 407Q441 391 439 371L394 0H382L427 374Q432 411 425 435Q418 459 401 472.5Q384 486 357 491Q330 496 294 496Q237 496 188 480.5Q139 465 101 442L47 0Z" glyph-name="m" horiz-adv-x="831" unicode="m" /><glyph d="M446 645H202L203 655H447Z" glyph-name="macron" horiz-adv-x="550" unicode="&#175;" /><glyph d="M470 845H226L227 855H471Z" glyph-name="macron.cap" horiz-adv-x="550" unicode="&#58405;" /><glyph d="M149 204 302 341 182 478 192 487 312 350 466 487 474 478 320 341 441 204 430 195 310 332 156 195Z" glyph-name="multiply" horiz-adv-x="600" unicode="&#215;" /><glyph d="M35 0 96 500H105L102 453Q140 476 192 490.5Q244 505 306 505Q395 505 429 475Q463 445 454 371L409 0H397L442 373Q446 410 438.5 433.5Q431 457 413 470.5Q395 484 367.5 489.5Q340 495 304 495Q238 495 185 478Q132 461 101 442L47 0Z" glyph-name="n" horiz-adv-x="499" unicode="n" /><glyph d="M35 0 96 500H105L102 453Q140 476 192 490.5Q244 505 306 505Q395 505 429 475Q463 445 454 371L409 0H397L442 373Q446 410 438.5 433.5Q431 457 413 470.5Q395 484 367.5 489.5Q340 495 304 495Q238 495 185 478Q132 461 101 442L47 0ZM290 550 377 750H390L300 550Z" glyph-name="nacute" horiz-adv-x="499" unicode="&#324;" /><glyph d="M35 0 96 500H105L102 453Q140 476 192 490.5Q244 505 306 505Q395 505 429 475Q463 445 454 371L409 0H397L442 373Q446 410 438.5 433.5Q431 457 413 470.5Q395 484 367.5 489.5Q340 495 304 495Q238 495 185 478Q132 461 101 442L47 0ZM179 750 296 561 461 750H473L300 550H290L167 750Z" glyph-name="ncaron" horiz-adv-x="499" unicode="&#328;" /><glyph d="M35 0 96 500H105L102 453Q140 476 192 490.5Q244 505 306 505Q395 505 429 475Q463 445 454 371L409 0H397L442 373Q446 410 438.5 433.5Q431 457 413 470.5Q395 484 367.5 489.5Q340 495 304 495Q238 495 185 478Q132 461 101 442L47 0ZM128 -250 213 -50H229L139 -250Z" glyph-name="ncommaaccent" horiz-adv-x="499" unicode="&#326;" /><glyph d="M60 30Q74 24 119 14.5Q164 5 231 5Q311 5 365 32Q419 59 454.5 108.5Q490 158 509.5 227.5Q529 297 539 382L552 487Q538 422 510 381.5Q482 341 446 318.5Q410 296 370.5 288.5Q331 281 294 281Q218 281 175.5 301.5Q133 322 113.5 356Q94 390 92.5 432.5Q91 475 96 520Q102 564 115.5 606.5Q129 649 157.5 682Q186 715 233 735Q280 755 352 755Q445 755 491.5 727.5Q538 700 555 652Q572 604 567 538Q562 472 553 395Q541 300 520.5 226Q500 152 463 100.5Q426 49 369.5 22Q313 -5 230 -5Q171 -5 129 1.5Q87 8 59 18ZM550 520Q556 566 552.5 607Q549 648 528.5 679Q508 710 465.5 727.5Q423 745 351 745Q284 745 240 727.5Q196 710 168.5 679Q141 648 127.5 607Q114 566 108 520Q102 473 104 431.5Q106 390 125 359Q144 328 184 309.5Q224 291 295 291Q365 291 412 313.5Q459 336 488.5 370Q518 404 532 444Q546 484 550 520Z" glyph-name="nine" horiz-adv-x="600" unicode="9" /><glyph glyph-name="nonbreakingspace" horiz-adv-x="200" unicode="&#160;" /><glyph glyph-name="nonmarkingreturn" horiz-adv-x="200" /><glyph d="M192 118 261 256H101L102 268H267L340 414H120L122 426H347L417 564H431L361 426H522L520 414H355L281 268H502L501 256H275L206 118Z" glyph-name="notequal" horiz-adv-x="600" unicode="&#8800;" /><glyph d="M35 0 96 500H105L102 453Q140 476 192 490.5Q244 505 306 505Q395 505 429 475Q463 445 454 371L409 0H397L442 373Q446 410 438.5 433.5Q431 457 413 470.5Q395 484 367.5 489.5Q340 495 304 495Q238 495 185 478Q132 461 101 442L47 0ZM462 684Q444 610 375 610Q348 610 332.5 621Q317 632 304 645Q291 658 277 669Q263 680 238 680Q211 680 191 664Q171 648 163 616H152Q170 690 239 690Q266 690 281.5 679Q297 668 310 655Q323 642 337.5 631Q352 620 377 620Q404 620 423.5 636Q443 652 451 684Z" glyph-name="ntilde" horiz-adv-x="499" unicode="&#241;" /><glyph d="M252 539H461L534 750H547L474 539H588L582 527H470L366 223H495L489 211H361L290 0H277L348 211H139L68 0H55L126 211H13L19 223H131L235 527H106L112 539H239L312 750H325ZM144 223H353L457 527H248Z" glyph-name="numbersign" horiz-adv-x="570" unicode="#" /><glyph d="M229 -5Q167 -5 130 15Q93 35 74 69.5Q55 104 52 150.5Q49 197 55 250Q62 303 76.5 349.5Q91 396 118.5 430.5Q146 465 188 485Q230 505 292 505Q353 505 390.5 485Q428 465 446.5 430.5Q465 396 468.5 349.5Q472 303 465 250Q459 197 444 150.5Q429 104 402 69.5Q375 35 332.5 15Q290 -5 229 -5ZM290 495Q228 495 187.5 474Q147 453 122 418.5Q97 384 85 340Q73 296 67 250Q61 204 62.5 160Q64 116 80.5 81.5Q97 47 132.5 26Q168 5 230 5Q292 5 332.5 26Q373 47 398 81.5Q423 116 435 160Q447 204 453 250Q459 296 457 340Q455 384 438.5 418.5Q422 453 387 474Q352 495 290 495Z" glyph-name="o" horiz-adv-x="520" unicode="o" /><glyph d="M229 -5Q167 -5 130 15Q93 35 74 69.5Q55 104 52 150.5Q49 197 55 250Q62 303 76.5 349.5Q91 396 118.5 430.5Q146 465 188 485Q230 505 292 505Q353 505 390.5 485Q428 465 446.5 430.5Q465 396 468.5 349.5Q472 303 465 250Q459 197 444 150.5Q429 104 402 69.5Q375 35 332.5 15Q290 -5 229 -5ZM290 495Q228 495 187.5 474Q147 453 122 418.5Q97 384 85 340Q73 296 67 250Q61 204 62.5 160Q64 116 80.5 81.5Q97 47 132.5 26Q168 5 230 5Q292 5 332.5 26Q373 47 398 81.5Q423 116 435 160Q447 204 453 250Q459 296 457 340Q455 384 438.5 418.5Q422 453 387 474Q352 495 290 495ZM292 550 379 750H392L302 550Z" glyph-name="oacute" horiz-adv-x="520" unicode="&#243;" /><glyph d="M229 -5Q167 -5 130 15Q93 35 74 69.5Q55 104 52 150.5Q49 197 55 250Q62 303 76.5 349.5Q91 396 118.5 430.5Q146 465 188 485Q230 505 292 505Q353 505 390.5 485Q428 465 446.5 430.5Q465 396 468.5 349.5Q472 303 465 250Q459 197 444 150.5Q429 104 402 69.5Q375 35 332.5 15Q290 -5 229 -5ZM290 495Q228 495 187.5 474Q147 453 122 418.5Q97 384 85 340Q73 296 67 250Q61 204 62.5 160Q64 116 80.5 81.5Q97 47 132.5 26Q168 5 230 5Q292 5 332.5 26Q373 47 398 81.5Q423 116 435 160Q447 204 453 250Q459 296 457 340Q455 384 438.5 418.5Q422 453 387 474Q352 495 290 495ZM298 550Q123 550 148 750H158Q153 706 158 670.5Q163 635 179.5 610.5Q196 586 225.5 573Q255 560 299 560Q387 560 431.5 610.5Q476 661 488 750H498Q473 550 298 550Z" glyph-name="obreve" horiz-adv-x="520" unicode="&#335;" /><glyph d="M229 -5Q167 -5 130 15Q93 35 74 69.5Q55 104 52 150.5Q49 197 55 250Q62 303 76.5 349.5Q91 396 118.5 430.5Q146 465 188 485Q230 505 292 505Q353 505 390.5 485Q428 465 446.5 430.5Q465 396 468.5 349.5Q472 303 465 250Q459 197 444 150.5Q429 104 402 69.5Q375 35 332.5 15Q290 -5 229 -5ZM290 495Q228 495 187.5 474Q147 453 122 418.5Q97 384 85 340Q73 296 67 250Q61 204 62.5 160Q64 116 80.5 81.5Q97 47 132.5 26Q168 5 230 5Q292 5 332.5 26Q373 47 398 81.5Q423 116 435 160Q447 204 453 250Q459 296 457 340Q455 384 438.5 418.5Q422 453 387 474Q352 495 290 495ZM439 550 321 739 157 550H145L318 750H328L451 550Z" glyph-name="ocircumflex" horiz-adv-x="520" unicode="&#244;" /><glyph d="M229 -5Q167 -5 130 15Q93 35 74 69.5Q55 104 52 150.5Q49 197 55 250Q62 303 76.5 349.5Q91 396 118.5 430.5Q146 465 188 485Q230 505 292 505Q353 505 390.5 485Q428 465 446.5 430.5Q465 396 468.5 349.5Q472 303 465 250Q459 197 444 150.5Q429 104 402 69.5Q375 35 332.5 15Q290 -5 229 -5ZM290 495Q228 495 187.5 474Q147 453 122 418.5Q97 384 85 340Q73 296 67 250Q61 204 62.5 160Q64 116 80.5 81.5Q97 47 132.5 26Q168 5 230 5Q292 5 332.5 26Q373 47 398 81.5Q423 116 435 160Q447 204 453 250Q459 296 457 340Q455 384 438.5 418.5Q422 453 387 474Q352 495 290 495ZM200 650Q200 656 204.5 660.5Q209 665 215 665Q221 665 225.5 660.5Q230 656 230 650Q230 644 225.5 639.5Q221 635 215 635Q209 635 204.5 639.5Q200 644 200 650ZM390 650Q390 656 394.5 660.5Q399 665 405 665Q411 665 415.5 660.5Q420 656 420 650Q420 644 415.5 639.5Q411 635 405 635Q399 635 394.5 639.5Q390 644 390 650Z" glyph-name="odieresis" horiz-adv-x="520" unicode="&#246;" /><glyph d="M290 495Q228 495 187.5 474Q147 453 122 418.5Q97 384 85 340Q73 296 67 250Q61 204 62.5 160Q64 116 80.5 81.5Q97 47 132.5 26Q168 5 230 5Q290 5 330 25Q370 45 395 77.5Q420 110 433 152Q446 194 452 239L455 261Q459 305 456.5 347Q454 389 437 422Q420 455 385 475Q350 495 290 495ZM659 255Q705 255 738 264Q771 273 792.5 289Q814 305 825.5 327Q837 349 840 375Q843 401 837 423Q831 445 813 461Q795 477 764.5 486Q734 495 688 495Q628 495 588 476Q548 457 523.5 424Q499 391 486 347.5Q473 304 466 255ZM627 -5Q578 -5 544.5 7Q511 19 490 41Q469 63 459.5 94.5Q450 126 449 164Q438 127 420 96Q402 65 376 42.5Q350 20 313.5 7.5Q277 -5 229 -5Q167 -5 130 15Q93 35 74 69.5Q55 104 52 150.5Q49 197 55 250Q62 303 76.5 349.5Q91 396 118.5 430.5Q146 465 188 485Q230 505 292 505Q340 505 373.5 492.5Q407 480 427.5 457.5Q448 435 458 403.5Q468 372 470 335Q480 374 497.5 405Q515 436 541.5 458.5Q568 481 604.5 493Q641 505 690 505Q740 505 773 495Q806 485 824.5 468Q843 451 849 427Q855 403 852 375Q848 347 836 323Q824 299 801.5 282Q779 265 743.5 255Q708 245 658 245H465Q459 196 461.5 152.5Q464 109 480.5 76Q497 43 532.5 24Q568 5 628 5Q682 5 720 13.5Q758 22 787 30L786 20Q754 10 710.5 2.5Q667 -5 627 -5Z" glyph-name="oe" horiz-adv-x="895" unicode="&#339;" /><glyph d="M300 0Q279 -8 254 -22.5Q229 -37 206.5 -57Q184 -77 168 -103.5Q152 -130 148 -161Q143 -200 158.5 -220Q174 -240 222 -240Q237 -240 250.5 -238Q264 -236 276 -233L275 -243Q264 -246 249.5 -248Q235 -250 215 -250Q178 -250 153.5 -231.5Q129 -213 135 -165Q139 -131 155 -103.5Q171 -76 193.5 -54.5Q216 -33 243.5 -17.5Q271 -2 298 9Z" glyph-name="ogonek" horiz-adv-x="550" unicode="&#731;" /><glyph d="M229 -5Q167 -5 130 15Q93 35 74 69.5Q55 104 52 150.5Q49 197 55 250Q62 303 76.5 349.5Q91 396 118.5 430.5Q146 465 188 485Q230 505 292 505Q353 505 390.5 485Q428 465 446.5 430.5Q465 396 468.5 349.5Q472 303 465 250Q459 197 444 150.5Q429 104 402 69.5Q375 35 332.5 15Q290 -5 229 -5ZM290 495Q228 495 187.5 474Q147 453 122 418.5Q97 384 85 340Q73 296 67 250Q61 204 62.5 160Q64 116 80.5 81.5Q97 47 132.5 26Q168 5 230 5Q292 5 332.5 26Q373 47 398 81.5Q423 116 435 160Q447 204 453 250Q459 296 457 340Q455 384 438.5 418.5Q422 453 387 474Q352 495 290 495ZM291 550 251 750H264L301 550Z" glyph-name="ograve" horiz-adv-x="520" unicode="&#242;" /><glyph d="M229 -5Q167 -5 130 15Q93 35 74 69.5Q55 104 52 150.5Q49 197 55 250Q62 303 76.5 349.5Q91 396 118.5 430.5Q146 465 188 485Q230 505 292 505Q353 505 390.5 485Q428 465 446.5 430.5Q465 396 468.5 349.5Q472 303 465 250Q459 197 444 150.5Q429 104 402 69.5Q375 35 332.5 15Q290 -5 229 -5ZM290 495Q228 495 187.5 474Q147 453 122 418.5Q97 384 85 340Q73 296 67 250Q61 204 62.5 160Q64 116 80.5 81.5Q97 47 132.5 26Q168 5 230 5Q292 5 332.5 26Q373 47 398 81.5Q423 116 435 160Q447 204 453 250Q459 296 457 340Q455 384 438.5 418.5Q422 453 387 474Q352 495 290 495ZM252 550 339 750H352L262 550ZM332 550 419 750H432L342 550Z" glyph-name="ohungarumlaut" horiz-adv-x="520" unicode="&#337;" /><glyph d="M229 -5Q167 -5 130 15Q93 35 74 69.5Q55 104 52 150.5Q49 197 55 250Q62 303 76.5 349.5Q91 396 118.5 430.5Q146 465 188 485Q230 505 292 505Q353 505 390.5 485Q428 465 446.5 430.5Q465 396 468.5 349.5Q472 303 465 250Q459 197 444 150.5Q429 104 402 69.5Q375 35 332.5 15Q290 -5 229 -5ZM290 495Q228 495 187.5 474Q147 453 122 418.5Q97 384 85 340Q73 296 67 250Q61 204 62.5 160Q64 116 80.5 81.5Q97 47 132.5 26Q168 5 230 5Q292 5 332.5 26Q373 47 398 81.5Q423 116 435 160Q447 204 453 250Q459 296 457 340Q455 384 438.5 418.5Q422 453 387 474Q352 495 290 495ZM432 645H188L189 655H433Z" glyph-name="omacron" horiz-adv-x="520" unicode="&#333;" /><glyph d="M96 12H287L376 741L164 698L166 709L390 755L299 12H471L470 0H95Z" glyph-name="one" horiz-adv-x="600" unicode="1" /><glyph d="M260 755 209 341H197L246 741L93 710L94 721ZM120 0 742 750H756L134 0ZM862 296Q859 270 845 244Q831 218 796.5 186Q762 154 701 111.5Q640 69 541 11L840 12L839 0H521L522 10Q624 72 686.5 115Q749 158 784.5 190Q820 222 833.5 246.5Q847 271 850 296Q856 349 824 376.5Q792 404 708 404Q668 404 637 396Q606 388 580 378L581 389Q607 400 641.5 407Q676 414 708 414Q761 414 793 404Q825 394 841 377.5Q857 361 861 340Q865 319 862 296Z" glyph-name="onehalf" horiz-adv-x="919" unicode="&#189;" /><glyph d="M260 755 209 341H197L246 741L93 710L94 721ZM120 0 742 750H756L134 0ZM752 144H847L846 132H751L735 0H723L739 132H488L489 141L776 414H785ZM740 144 772 394 507 143Z" glyph-name="onequarter" horiz-adv-x="870" unicode="&#188;" /><glyph d="M260 755 209 341H197L246 741L93 710L94 721Z" glyph-name="onesuperior" horiz-adv-x="270" unicode="&#185;" /><glyph d="M428 750 382 380H373L375 414Q340 394 302 384.5Q264 375 235 375Q156 375 118.5 418Q81 461 94 565Q107 669 154.5 712Q202 755 281 755Q310 755 346.5 745.5Q383 736 412 716L419 750ZM106 565Q94 469 128 427Q162 385 235 385Q274 385 309.5 396Q345 407 376 424L410 706Q384 723 351 734Q318 745 279 745Q206 745 162 703Q118 661 106 565Z" glyph-name="ordfeminine" horiz-adv-x="421" unicode="&#170;" /><glyph d="M232 375Q146 375 114.5 418.5Q83 462 96 565Q102 616 115.5 652.5Q129 689 150.5 711.5Q172 734 203.5 744.5Q235 755 278 755Q364 755 395.5 711.5Q427 668 414 565Q408 514 394.5 477.5Q381 441 359.5 418.5Q338 396 306.5 385.5Q275 375 232 375ZM277 745Q238 745 209 735.5Q180 726 159.5 705Q139 684 126.5 649.5Q114 615 108 565Q102 515 106.5 480.5Q111 446 126 425Q141 404 167.5 394.5Q194 385 233 385Q272 385 301 394.5Q330 404 350.5 425Q371 446 383.5 480.5Q396 515 402 565Q408 615 403.5 649.5Q399 684 384 705Q369 726 342.5 735.5Q316 745 277 745Z" glyph-name="ordmasculine" horiz-adv-x="432" unicode="&#186;" /><glyph d="M46 0 87 50Q59 85 53 136.5Q47 188 55 250Q62 303 76.5 349.5Q91 396 118.5 430.5Q146 465 188 485Q230 505 292 505Q340 505 372.5 493Q405 481 426 458L461 500H475L433 450Q461 415 467 363Q473 311 465 250Q459 197 444 150.5Q429 104 402 69.5Q375 35 332.5 15Q290 -5 229 -5Q181 -5 148 7Q115 19 94 41L60 0ZM290 495Q228 495 187.5 474Q147 453 122 418.5Q97 384 85 340Q73 296 67 250Q60 196 64 145Q68 94 95 59L419 449Q399 470 368 482.5Q337 495 290 495ZM230 5Q292 5 332.5 26Q373 47 398 81.5Q423 116 435 160Q447 204 453 250Q460 304 456 354.5Q452 405 426 440L102 51Q121 29 151.5 17Q182 5 230 5Z" glyph-name="oslash" horiz-adv-x="520" unicode="&#248;" /><glyph d="M229 -5Q167 -5 130 15Q93 35 74 69.5Q55 104 52 150.5Q49 197 55 250Q62 303 76.5 349.5Q91 396 118.5 430.5Q146 465 188 485Q230 505 292 505Q353 505 390.5 485Q428 465 446.5 430.5Q465 396 468.5 349.5Q472 303 465 250Q459 197 444 150.5Q429 104 402 69.5Q375 35 332.5 15Q290 -5 229 -5ZM290 495Q228 495 187.5 474Q147 453 122 418.5Q97 384 85 340Q73 296 67 250Q61 204 62.5 160Q64 116 80.5 81.5Q97 47 132.5 26Q168 5 230 5Q292 5 332.5 26Q373 47 398 81.5Q423 116 435 160Q447 204 453 250Q459 296 457 340Q455 384 438.5 418.5Q422 453 387 474Q352 495 290 495ZM465 684Q447 610 378 610Q351 610 335.5 621Q320 632 307 645Q294 658 280 669Q266 680 241 680Q214 680 194 664Q174 648 166 616H155Q173 690 242 690Q269 690 284.5 679Q300 668 313 655Q326 642 340.5 631Q355 620 380 620Q407 620 426.5 636Q446 652 454 684Z" glyph-name="otilde" horiz-adv-x="520" unicode="&#245;" /><glyph d="M9 -250 101 500H110L107 453Q145 476 193 490.5Q241 505 301 505Q362 505 399.5 485Q437 465 455.5 430.5Q474 396 477.5 349.5Q481 303 474 250Q468 197 453 150.5Q438 104 411 69.5Q384 35 341.5 15Q299 -5 238 -5Q178 -5 133.5 9.5Q89 24 57 47L21 -250ZM59 58Q91 35 136.5 20Q182 5 239 5Q301 5 341.5 26Q382 47 407 81.5Q432 116 444 160Q456 204 462 250Q468 296 466 340Q464 384 447.5 418.5Q431 453 396 474Q361 495 299 495Q242 495 193 480Q144 465 106 442Z" glyph-name="p" horiz-adv-x="529" unicode="p" /><glyph d="M280 0 320 326H256Q189 326 148 343.5Q107 361 86 390Q65 419 60 457Q55 495 60 537Q65 579 79.5 617.5Q94 656 122.5 685.5Q151 715 196 732.5Q241 750 308 750H542L450 0H438L478 326H332L292 0ZM72 537Q68 502 71 466.5Q74 431 92.5 402.5Q111 374 149.5 355.5Q188 337 256 337H321L370 738H305Q237 738 194 720Q151 702 125.5 673Q100 644 88 608Q76 572 72 537ZM528 738H382L333 337H479Z" glyph-name="paragraph" horiz-adv-x="545" unicode="&#182;" /><glyph d="M61 300Q72 391 93 469Q114 547 139.5 610.5Q165 674 191.5 722Q218 770 241 800H255Q232 770 205 722Q178 674 152.5 610.5Q127 547 106 469Q85 391 74 300Q63 209 65 131Q67 53 76.5 -10.5Q86 -74 101.5 -122Q117 -170 132 -200H118Q103 -170 88 -122Q73 -74 63.5 -10.5Q54 53 52 131Q50 209 61 300Z" glyph-name="parenleft" horiz-adv-x="230" unicode="(" /><glyph d="M181 300Q170 209 149 131Q128 53 103 -10.5Q78 -74 51 -122Q24 -170 2 -200H-12Q11 -170 38 -122Q65 -74 90 -10.5Q115 53 136 131Q157 209 168 300Q179 391 177.5 469Q176 547 166 610.5Q156 674 141 722Q126 770 111 800H125Q140 770 155 722Q170 674 179.5 610.5Q189 547 190.5 469Q192 391 181 300Z" glyph-name="parenright" horiz-adv-x="230" unicode=")" /><glyph d="M229 -5Q167 -5 130 15Q93 35 74 69.5Q55 104 52 150.5Q49 197 55 250Q62 303 76.5 349.5Q91 396 118.5 430.5Q146 465 188 485Q230 505 292 505Q335 505 366.5 495Q398 485 418.5 466.5Q439 448 450.5 422Q462 396 466 365Q474 460 470.5 531.5Q467 603 446 650.5Q425 698 385 721.5Q345 745 281 745Q237 745 202 739.5Q167 734 139 725L140 735Q161 743 195.5 749Q230 755 282 755Q358 755 402 725Q446 695 465 634Q484 573 482 479.5Q480 386 466 260L465 250Q459 197 444 150.5Q429 104 402 69.5Q375 35 332.5 15Q290 -5 229 -5ZM290 495Q228 495 187.5 474Q147 453 122 418.5Q97 384 85 340Q73 296 67 250Q61 204 62.5 160Q64 116 80.5 81.5Q97 47 132.5 26Q168 5 230 5Q292 5 332.5 26Q373 47 398 81.5Q423 116 435 160Q447 204 453 250Q459 296 457 340Q455 384 438.5 418.5Q422 453 387 474Q352 495 290 495Z" glyph-name="partialdiff" horiz-adv-x="520" unicode="&#8706;" /><glyph d="M863 179Q851 80 803 37.5Q755 -5 670 -5Q587 -5 548 38Q509 81 521 179Q534 278 582.5 320.5Q631 363 715 363Q799 363 837.5 320Q876 277 863 179ZM88 571Q100 670 148 712.5Q196 755 281 755Q364 755 403 712Q442 669 430 571Q418 472 369 429.5Q320 387 236 387Q152 387 114 430Q76 473 88 571ZM100 571Q94 522 100.5 489Q107 456 125 435.5Q143 415 171 406Q199 397 237 397Q274 397 305 406Q336 415 359 435.5Q382 456 397 489Q412 522 418 571Q424 620 417 653Q410 686 392 706.5Q374 727 345.5 736Q317 745 280 745Q242 745 211.5 736Q181 727 158.5 706.5Q136 686 121 653Q106 620 100 571ZM851 179Q857 228 850.5 261Q844 294 826 314.5Q808 335 779.5 344Q751 353 714 353Q676 353 645.5 344Q615 335 592 314.5Q569 294 554 261Q539 228 533 179Q527 130 534 97Q541 64 559 43.5Q577 23 605 14Q633 5 671 5Q708 5 739 14Q770 23 793 43.5Q816 64 830.5 97Q845 130 851 179ZM158 0 780 750H794L172 0Z" glyph-name="percent" horiz-adv-x="920" unicode="%" /><glyph d="M46 10Q46 16 50.5 20.5Q55 25 61 25Q67 25 71.5 20.5Q76 16 76 10Q76 4 71.5 -0.5Q67 -5 61 -5Q55 -5 50.5 -0.5Q46 4 46 10Z" glyph-name="period" horiz-adv-x="180" unicode="." /><glyph d="M86 341Q86 347 90.5 351.5Q95 356 101 356Q107 356 111.5 351.5Q116 347 116 341Q116 335 111.5 330.5Q107 326 101 326Q95 326 90.5 330.5Q86 335 86 341Z" glyph-name="periodcentered" horiz-adv-x="180" unicode="&#183;" /><glyph d="M863 179Q851 80 803 37.5Q755 -5 670 -5Q587 -5 548 38Q509 81 521 179Q534 278 582.5 320.5Q631 363 715 363Q799 363 837.5 320Q876 277 863 179ZM88 571Q100 670 148 712.5Q196 755 281 755Q364 755 403 712Q442 669 430 571Q418 472 369 429.5Q320 387 236 387Q152 387 114 430Q76 473 88 571ZM1263 179Q1251 80 1203 37.5Q1155 -5 1070 -5Q987 -5 948 38Q909 81 921 179Q934 278 982.5 320.5Q1031 363 1115 363Q1199 363 1237.5 320Q1276 277 1263 179ZM851 179Q857 228 850.5 261Q844 294 826 314.5Q808 335 779.5 344Q751 353 714 353Q676 353 645.5 344Q615 335 592 314.5Q569 294 554 261Q539 228 533 179Q527 130 534 97Q541 64 559 43.5Q577 23 605 14Q633 5 671 5Q708 5 739 14Q770 23 793 43.5Q816 64 830.5 97Q845 130 851 179ZM1251 179Q1257 228 1250.5 261Q1244 294 1226 314.5Q1208 335 1179.5 344Q1151 353 1114 353Q1076 353 1045.5 344Q1015 335 992 314.5Q969 294 954 261Q939 228 933 179Q927 130 934 97Q941 64 959 43.5Q977 23 1005 14Q1033 5 1071 5Q1108 5 1139 14Q1170 23 1193 43.5Q1216 64 1230.5 97Q1245 130 1251 179ZM100 571Q94 522 100.5 489Q107 456 125 435.5Q143 415 171 406Q199 397 237 397Q274 397 305 406Q336 415 359 435.5Q382 456 397 489Q412 522 418 571Q424 620 417 653Q410 686 392 706.5Q374 727 345.5 736Q317 745 280 745Q242 745 211.5 736Q181 727 158.5 706.5Q136 686 121 653Q106 620 100 571ZM158 0 780 750H794L172 0Z" glyph-name="perthousand" horiz-adv-x="1320" unicode="&#8240;" /><glyph d="M281 141 305 335H111L112 347H306L330 541H342L318 347H512L511 335H317L293 141Z" glyph-name="plus" horiz-adv-x="600" unicode="+" /><glyph d="M284 164 307 358H113L115 370H309L333 564H345L321 370H515L513 358H319L296 164ZM484 118H84L85 130H485Z" glyph-name="plusminus" horiz-adv-x="600" unicode="&#177;" /><glyph d="M517 0 607 738H225L135 0H123L213 738H105L107 750H729L727 738H619L529 0Z" glyph-name="product" horiz-adv-x="712" unicode="&#8719;" /><glyph d="M386 -250 422 47Q384 24 336.5 9.5Q289 -5 229 -5Q167 -5 130 15Q93 35 74 69.5Q55 104 52 150.5Q49 197 55 250Q62 303 76.5 349.5Q91 396 118.5 430.5Q146 465 188 485Q230 505 292 505Q352 505 396 490.5Q440 476 472 453L481 500H490L398 -250ZM471 442Q439 465 393 480Q347 495 290 495Q228 495 187.5 474Q147 453 122 418.5Q97 384 85 340Q73 296 67 250Q61 204 62.5 160Q64 116 80.5 81.5Q97 47 132.5 26Q168 5 230 5Q287 5 336.5 20Q386 35 424 58Z" glyph-name="q" horiz-adv-x="529" unicode="q" /><glyph d="M251 745Q230 745 208 743Q186 741 166.5 738Q147 735 131.5 731.5Q116 728 109 726L110 736Q118 739 135.5 742.5Q153 746 174 748.5Q195 751 215.5 753Q236 755 251 755Q329 755 374.5 740.5Q420 726 443.5 700.5Q467 675 471.5 641Q476 607 471 569Q465 520 450 489Q435 458 412 438Q389 418 359 404.5Q329 391 294 378Q255 364 230.5 349Q206 334 191.5 318.5Q177 303 171 285.5Q165 268 163 249Q161 239 161 229.5Q161 220 161 210H153Q152 216 152 229Q152 242 153 251Q156 275 163 293.5Q170 312 186 328.5Q202 345 228 359.5Q254 374 295 389Q322 399 349 410Q376 421 398.5 440Q421 459 437 489.5Q453 520 459 568Q464 606 459 638.5Q454 671 432 694.5Q410 718 366.5 731.5Q323 745 251 745ZM129 10Q129 16 133.5 20.5Q138 25 144 25Q150 25 154.5 20.5Q159 16 159 10Q159 4 154.5 -0.5Q150 -5 144 -5Q138 -5 133.5 -0.5Q129 4 129 10Z" glyph-name="question" horiz-adv-x="500" unicode="?" /><glyph d="M251 -245Q272 -245 294 -243Q316 -241 335.5 -238Q355 -235 370.5 -231.5Q386 -228 394 -226L393 -236Q385 -239 367 -242.5Q349 -246 328 -248.5Q307 -251 286.5 -253Q266 -255 251 -255Q173 -255 127.5 -240.5Q82 -226 59 -200.5Q36 -175 31 -141Q26 -107 31 -69Q37 -20 52 11Q67 42 90 62Q113 82 143 95.5Q173 109 208 122Q247 136 271.5 150.5Q296 165 310 181Q324 197 330.5 214Q337 231 339 251Q342 273 341 290H349Q350 284 350.5 271Q351 258 349 249Q346 225 339 206.5Q332 188 316 171.5Q300 155 274 140.5Q248 126 207 111Q180 101 153 90Q126 79 103.5 60Q81 41 65 10.5Q49 -20 43 -68Q38 -106 43 -138.5Q48 -171 70.5 -194.5Q93 -218 136 -231.5Q179 -245 251 -245ZM344 490Q344 496 348.5 500.5Q353 505 359 505Q365 505 369.5 500.5Q374 496 374 490Q374 484 369.5 479.5Q365 475 359 475Q353 475 348.5 479.5Q344 484 344 490Z" glyph-name="questiondown" horiz-adv-x="500" unicode="&#191;" /><glyph d="M113 500 139 750H155L119 500ZM213 500 239 750H255L219 500Z" glyph-name="quotedbl" horiz-adv-x="270" unicode="&quot;" /><glyph d="M73 90 -25 -160H-30L54 90ZM143 90 45 -160H39L124 90Z" glyph-name="quotedblbase" horiz-adv-x="181" unicode="&#8222;" /><glyph d="M50 500 148 750H154L69 500ZM120 500 218 750H224L139 500Z" glyph-name="quotedblleft" horiz-adv-x="181" unicode="&#8220;" /><glyph d="M154 750 56 500H50L135 750ZM224 750 126 500H120L205 750Z" glyph-name="quotedblright" horiz-adv-x="181" unicode="&#8221;" /><glyph d="M50 500 148 750H154L69 500Z" glyph-name="quoteleft" horiz-adv-x="111" unicode="&#8216;" /><glyph d="M154 750 56 500H50L135 750Z" glyph-name="quoteright" horiz-adv-x="111" unicode="&#8217;" /><glyph d="M73 90 -25 -160H-30L54 90Z" glyph-name="quotesinglbase" horiz-adv-x="111" unicode="&#8218;" /><glyph d="M113 500 139 750H155L119 500Z" glyph-name="quotesingle" horiz-adv-x="170" unicode="&apos;" /><glyph d="M345 493Q339 494 327 494.5Q315 495 304 495Q238 495 185 478Q132 461 101 442L47 0H35L96 500H105L102 453Q140 476 192 490.5Q244 505 306 505Q316 505 328.5 504.5Q341 504 346 503Z" glyph-name="r" horiz-adv-x="340" unicode="r" /><glyph d="M345 493Q339 494 327 494.5Q315 495 304 495Q238 495 185 478Q132 461 101 442L47 0H35L96 500H105L102 453Q140 476 192 490.5Q244 505 306 505Q316 505 328.5 504.5Q341 504 346 503ZM223 550 310 750H323L233 550Z" glyph-name="racute" horiz-adv-x="340" unicode="&#341;" /><glyph d="M54 476 174 505 244 14 777 750H791L244 -5H235L164 492L53 465Z" glyph-name="radical" horiz-adv-x="720" unicode="&#8730;" /><glyph d="M345 493Q339 494 327 494.5Q315 495 304 495Q238 495 185 478Q132 461 101 442L47 0H35L96 500H105L102 453Q140 476 192 490.5Q244 505 306 505Q316 505 328.5 504.5Q341 504 346 503ZM112 750 229 561 394 750H406L233 550H223L100 750Z" glyph-name="rcaron" horiz-adv-x="340" unicode="&#345;" /><glyph d="M345 493Q339 494 327 494.5Q315 495 304 495Q238 495 185 478Q132 461 101 442L47 0H35L96 500H105L102 453Q140 476 192 490.5Q244 505 306 505Q316 505 328.5 504.5Q341 504 346 503ZM-57 -250 28 -50H44L-46 -250Z" glyph-name="rcommaaccent" horiz-adv-x="340" unicode="&#343;" /><glyph d="M219 755Q246 755 269.5 750Q293 745 309.5 730.5Q326 716 333 690.5Q340 665 335 625Q330 585 316.5 559.5Q303 534 283 520Q263 506 238.5 500.5Q214 495 187 495Q160 495 136.5 500.5Q113 506 97 520Q81 534 73.5 559.5Q66 585 71 625Q76 665 90 690.5Q104 716 123.5 730.5Q143 745 167.5 750Q192 755 219 755ZM218 745Q194 745 172 740.5Q150 736 131.5 723Q113 710 100 686.5Q87 663 82 625Q77 587 84.5 563.5Q92 540 107.5 527Q123 514 144 509.5Q165 505 189 505Q213 505 235 509.5Q257 514 275.5 527Q294 540 306.5 563.5Q319 587 324 625Q329 663 322 686.5Q315 710 299.5 723Q284 736 263 740.5Q242 745 218 745ZM153 553H142L160 697H211Q238 697 246.5 685.5Q255 674 253 657Q251 644 243.5 633Q236 622 222 619L249 553H235L210 616H161ZM162 627H205Q225 627 232 636.5Q239 646 241 657Q243 668 238 677.5Q233 687 213 687H170Z" glyph-name="registered" horiz-adv-x="314" unicode="&#174;" /><glyph d="M313 559Q358 559 385.5 581.5Q413 604 418 650Q424 696 402 718.5Q380 741 335 741Q290 741 263 718.5Q236 696 230 650Q225 604 246.5 581.5Q268 559 313 559ZM312 549Q261 549 237.5 574.5Q214 600 220 650Q226 700 256 725.5Q286 751 337 751Q440 751 428 650Q422 600 392.5 574.5Q363 549 312 549Z" glyph-name="ring" horiz-adv-x="540" unicode="&#730;" /><glyph d="M340 774Q319 774 300 777.5Q281 781 268 789.5Q255 798 248.5 812.5Q242 827 245 850Q248 873 258 887.5Q268 902 283 910.5Q298 919 317.5 922.5Q337 926 358 926Q379 926 397.5 922.5Q416 919 429.5 910.5Q443 902 449.5 887.5Q456 873 453 850Q450 827 440 812.5Q430 798 415 789.5Q400 781 380.5 777.5Q361 774 340 774ZM357 916Q339 916 321.5 913.5Q304 911 290 904Q276 897 267 884Q258 871 255 850Q252 829 258.5 816Q265 803 277 796Q289 789 306 786.5Q323 784 341 784Q359 784 376.5 786.5Q394 789 408 796Q422 803 431 816Q440 829 443 850Q446 871 439.5 884Q433 897 421 904Q409 911 392 913.5Q375 916 357 916Z" glyph-name="ring.cap" horiz-adv-x="550" unicode="&#58410;" /><glyph d="M162 6Q215 6 251 16Q287 26 310 43.5Q333 61 344.5 83.5Q356 106 359 130Q363 159 358 180.5Q353 202 337.5 217Q322 232 294.5 241Q267 250 225 254Q177 259 146.5 268Q116 277 99.5 291.5Q83 306 78.5 326.5Q74 347 78 375Q81 403 93 427Q105 451 128 468Q151 485 186.5 495Q222 505 272 505Q304 505 339 499.5Q374 494 404 483L402 472Q378 480 347 487Q316 494 270 494Q224 494 191 485Q158 476 136.5 460.5Q115 445 104 423Q93 401 90 375Q86 346 91.5 327Q97 308 113.5 296Q130 284 157.5 276.5Q185 269 226 265Q271 260 301 250.5Q331 241 348 225Q365 209 370.5 185.5Q376 162 372 131Q369 105 356.5 80.5Q344 56 319.5 37Q295 18 256.5 6.5Q218 -5 161 -5Q129 -5 94 0.5Q59 6 30 17L31 28Q56 20 86 13Q116 6 162 6Z" glyph-name="s" horiz-adv-x="436" unicode="s" /><glyph d="M162 6Q215 6 251 16Q287 26 310 43.5Q333 61 344.5 83.5Q356 106 359 130Q363 159 358 180.5Q353 202 337.5 217Q322 232 294.5 241Q267 250 225 254Q177 259 146.5 268Q116 277 99.5 291.5Q83 306 78.5 326.5Q74 347 78 375Q81 403 93 427Q105 451 128 468Q151 485 186.5 495Q222 505 272 505Q304 505 339 499.5Q374 494 404 483L402 472Q378 480 347 487Q316 494 270 494Q224 494 191 485Q158 476 136.5 460.5Q115 445 104 423Q93 401 90 375Q86 346 91.5 327Q97 308 113.5 296Q130 284 157.5 276.5Q185 269 226 265Q271 260 301 250.5Q331 241 348 225Q365 209 370.5 185.5Q376 162 372 131Q369 105 356.5 80.5Q344 56 319.5 37Q295 18 256.5 6.5Q218 -5 161 -5Q129 -5 94 0.5Q59 6 30 17L31 28Q56 20 86 13Q116 6 162 6ZM261 550 348 750H361L271 550Z" glyph-name="sacute" horiz-adv-x="436" unicode="&#347;" /><glyph d="M162 6Q215 6 251 16Q287 26 310 43.5Q333 61 344.5 83.5Q356 106 359 130Q363 159 358 180.5Q353 202 337.5 217Q322 232 294.5 241Q267 250 225 254Q177 259 146.5 268Q116 277 99.5 291.5Q83 306 78.5 326.5Q74 347 78 375Q81 403 93 427Q105 451 128 468Q151 485 186.5 495Q222 505 272 505Q304 505 339 499.5Q374 494 404 483L402 472Q378 480 347 487Q316 494 270 494Q224 494 191 485Q158 476 136.5 460.5Q115 445 104 423Q93 401 90 375Q86 346 91.5 327Q97 308 113.5 296Q130 284 157.5 276.5Q185 269 226 265Q271 260 301 250.5Q331 241 348 225Q365 209 370.5 185.5Q376 162 372 131Q369 105 356.5 80.5Q344 56 319.5 37Q295 18 256.5 6.5Q218 -5 161 -5Q129 -5 94 0.5Q59 6 30 17L31 28Q56 20 86 13Q116 6 162 6ZM150 750 267 561 432 750H444L271 550H261L138 750Z" glyph-name="scaron" horiz-adv-x="436" unicode="&#353;" /><glyph d="M183 -4Q178 -5 172 -5Q166 -5 161 -5Q129 -5 94 0.5Q59 6 30 17L31 28Q56 20 86 13Q116 6 162 6Q215 6 251 16Q287 26 310 43.5Q333 61 344.5 83.5Q356 106 359 130Q363 159 358 180.5Q353 202 337.5 217Q322 232 294.5 241Q267 250 225 254Q177 259 146.5 268Q116 277 99.5 291.5Q83 306 78.5 326.5Q74 347 78 375Q81 403 93 427Q105 451 128 468Q151 485 186.5 495Q222 505 272 505Q304 505 339 499.5Q374 494 404 483L402 472Q378 480 347 487Q316 494 270 494Q224 494 191 485Q158 476 136.5 460.5Q115 445 104 423Q93 401 90 375Q86 346 91.5 327Q97 308 113.5 296Q130 284 157.5 276.5Q185 269 226 265Q271 260 301 250.5Q331 241 348 225Q365 209 370.5 185.5Q376 162 372 131Q369 107 358 84Q347 61 326 42.5Q305 24 272 11.5Q239 -1 191 -4L185 -67Q225 -77 249.5 -102Q274 -127 269 -168Q266 -191 255.5 -206.5Q245 -222 230 -232Q215 -242 197 -246Q179 -250 161 -250Q135 -250 117 -245.5Q99 -241 87 -236L88 -226Q99 -231 119 -235.5Q139 -240 156 -240Q204 -240 228 -221Q252 -202 257 -168Q262 -130 238 -107Q214 -84 172 -76Z" glyph-name="scedilla" horiz-adv-x="436" unicode="&#351;" /><glyph d="M162 6Q215 6 251 16Q287 26 310 43.5Q333 61 344.5 83.5Q356 106 359 130Q363 159 358 180.5Q353 202 337.5 217Q322 232 294.5 241Q267 250 225 254Q177 259 146.5 268Q116 277 99.5 291.5Q83 306 78.5 326.5Q74 347 78 375Q81 403 93 427Q105 451 128 468Q151 485 186.5 495Q222 505 272 505Q304 505 339 499.5Q374 494 404 483L402 472Q378 480 347 487Q316 494 270 494Q224 494 191 485Q158 476 136.5 460.5Q115 445 104 423Q93 401 90 375Q86 346 91.5 327Q97 308 113.5 296Q130 284 157.5 276.5Q185 269 226 265Q271 260 301 250.5Q331 241 348 225Q365 209 370.5 185.5Q376 162 372 131Q369 105 356.5 80.5Q344 56 319.5 37Q295 18 256.5 6.5Q218 -5 161 -5Q129 -5 94 0.5Q59 6 30 17L31 28Q56 20 86 13Q116 6 162 6ZM407 550 289 739 125 550H113L286 750H296L419 550Z" glyph-name="scircumflex" horiz-adv-x="436" unicode="&#349;" /><glyph d="M162 6Q215 6 251 16Q287 26 310 43.5Q333 61 344.5 83.5Q356 106 359 130Q363 159 358 180.5Q353 202 337.5 217Q322 232 294.5 241Q267 250 225 254Q177 259 146.5 268Q116 277 99.5 291.5Q83 306 78.5 326.5Q74 347 78 375Q81 403 93 427Q105 451 128 468Q151 485 186.5 495Q222 505 272 505Q304 505 339 499.5Q374 494 404 483L402 472Q378 480 347 487Q316 494 270 494Q224 494 191 485Q158 476 136.5 460.5Q115 445 104 423Q93 401 90 375Q86 346 91.5 327Q97 308 113.5 296Q130 284 157.5 276.5Q185 269 226 265Q271 260 301 250.5Q331 241 348 225Q365 209 370.5 185.5Q376 162 372 131Q369 105 356.5 80.5Q344 56 319.5 37Q295 18 256.5 6.5Q218 -5 161 -5Q129 -5 94 0.5Q59 6 30 17L31 28Q56 20 86 13Q116 6 162 6ZM89 -250 174 -50H190L100 -250Z" glyph-name="scommaaccent" horiz-adv-x="436" unicode="&#537;" /><glyph d="M474 -66Q469 -104 454.5 -138Q440 -172 410 -198Q380 -224 330.5 -239.5Q281 -255 208 -255Q143 -255 102 -248Q61 -241 32 -230L34 -219Q76 -235 116 -240Q156 -245 209 -245Q278 -245 324.5 -231Q371 -217 400.5 -192.5Q430 -168 444.5 -135.5Q459 -103 464 -65Q470 -16 462 14.5Q454 45 429 63Q404 81 361 90Q318 99 254 105Q190 111 147 120Q104 129 78.5 148.5Q53 168 45 200Q37 232 43 285Q46 310 54 334.5Q62 359 75.5 380Q89 401 109.5 419Q130 437 160 449Q133 485 143 566Q147 604 162 638Q177 672 207 698Q237 724 286 739.5Q335 755 409 755Q474 755 515.5 748Q557 741 585 730L584 719Q542 735 501.5 740Q461 745 408 745Q339 745 292.5 731Q246 717 216.5 692.5Q187 668 172.5 635Q158 602 154 565Q148 515 156 485Q164 455 188.5 437Q213 419 256 410Q299 401 363 395Q427 389 470 380Q513 371 538.5 351.5Q564 332 572 299.5Q580 267 574 215Q568 164 542.5 120Q517 76 458 51Q472 31 475.5 3.5Q479 -24 474 -66ZM54 284Q48 234 56 204Q64 174 88.5 156Q113 138 156 129Q199 120 263 114Q335 107 381 96Q427 85 451 60Q507 83 532 124Q557 165 563 216Q569 265 561 295.5Q553 326 528.5 344Q504 362 461 371Q418 380 354 386Q282 393 236 403.5Q190 414 167 440Q111 417 86 375.5Q61 334 54 284Z" glyph-name="section" horiz-adv-x="617" unicode="&#167;" /><glyph d="M80 20 27 -125H19L61 20ZM91 375Q91 381 95.5 385.5Q100 390 106 390Q112 390 116.5 385.5Q121 381 121 375Q121 369 116.5 364.5Q112 360 106 360Q100 360 95.5 364.5Q91 369 91 375Z" glyph-name="semicolon" horiz-adv-x="180" unicode=";" /><glyph d="M159 0 578 738H126L128 750H596L595 742L174 0Z" glyph-name="seven" horiz-adv-x="600" unicode="7" /><glyph d="M571 720Q557 726 512 735.5Q467 745 400 745Q320 745 266 718Q212 691 176.5 641.5Q141 592 121.5 522.5Q102 453 92 368L79 263Q93 328 121 368.5Q149 409 185 431.5Q221 454 260.5 461.5Q300 469 337 469Q413 469 455 448.5Q497 428 516.5 394Q536 360 538 317.5Q540 275 535 230Q529 186 515.5 143.5Q502 101 473.5 68Q445 35 398 15Q351 -5 279 -5Q186 -5 139.5 22.5Q93 50 76 98Q59 146 64 212Q69 278 78 355Q90 449 110.5 523.5Q131 598 168 649.5Q205 701 261.5 728Q318 755 401 755Q460 755 502 748.5Q544 742 572 732ZM81 230Q75 183 78.5 142.5Q82 102 103 71Q124 40 166 22.5Q208 5 280 5Q347 5 391 22.5Q435 40 462.5 71Q490 102 503.5 142.5Q517 183 523 230Q529 276 527 318Q525 360 506 391Q487 422 447 440.5Q407 459 336 459Q266 459 219 436.5Q172 414 142.5 380Q113 346 99 306Q85 266 81 230Z" glyph-name="six" horiz-adv-x="600" unicode="6" /><glyph d="M-54 -200 413 800H426L-41 -200Z" glyph-name="slash" horiz-adv-x="358" unicode="/" /><glyph glyph-name="space" horiz-adv-x="200" unicode=" " /><glyph d="M10 12H111L155 369H64L65 381H156L183 598Q188 640 206.5 670Q225 700 255 718.5Q285 737 325 746Q365 755 413 755Q460 755 501 750.5Q542 746 570 738L569 727Q537 736 497 740.5Q457 745 412 745Q373 745 336.5 738.5Q300 732 270 715.5Q240 699 220 670.5Q200 642 195 598L168 381H440L439 369H167L123 12H492L491 0H9Z" glyph-name="sterling" horiz-adv-x="600" unicode="&#163;" /><glyph d="M651 750 649 738H179L516 395L515 390L60 12H586L585 0H41L42 13L500 393L163 734L165 750Z" glyph-name="summation" horiz-adv-x="660" unicode="&#8721;" /><glyph d="M158 500 177 659 190 662 170 500H361L360 489H169L125 133Q120 97 129 72.5Q138 48 157 33Q176 18 204.5 12Q233 6 268 6H273L272 -5H267Q178 -5 141 29Q104 63 113 132L157 489H65L66 498Z" glyph-name="t" horiz-adv-x="370" unicode="t" /><glyph d="M158 500 177 659 190 662 170 500H361L360 489H169L143 285H304L303 275H142L125 133Q120 97 129 72.5Q138 48 157 33Q176 18 204.5 12Q233 6 268 6H273L272 -5H267Q178 -5 141 29Q104 63 113 132L130 275H38L39 285H131L157 489H65L66 498Z" glyph-name="tbar" horiz-adv-x="370" unicode="&#359;" /><glyph d="M158 500 177 659 190 662 170 500H361L360 489H169L125 133Q120 97 129 72.5Q138 48 157 33Q176 18 204.5 12Q233 6 268 6H273L272 -5H267Q178 -5 141 29Q104 63 113 132L157 489H65L66 498ZM235 550 286 750H300L244 550Z" glyph-name="tcaron" horiz-adv-x="370" unicode="&#357;" /><glyph d="M158 500 177 659 190 662 170 500H361L360 489H169L125 133Q120 97 129 72.5Q138 48 157 33Q176 18 204.5 12Q233 6 268 6H273L272 -5H267Q178 -5 141 29Q104 63 113 132L157 489H65L66 498ZM81 -250 166 -50H182L92 -250Z" glyph-name="tcommaaccent" horiz-adv-x="370" unicode="&#355;" /><glyph d="M9 -250 132 750H144L107 453Q145 476 193 490.5Q241 505 301 505Q362 505 399.5 485Q437 465 455.5 430.5Q474 396 477.5 349.5Q481 303 474 250Q468 197 453 150.5Q438 104 411 69.5Q384 35 341.5 15Q299 -5 238 -5Q178 -5 133.5 9.5Q89 24 57 47L21 -250ZM59 58Q91 35 136.5 20Q182 5 239 5Q301 5 341.5 26Q382 47 407 81.5Q432 116 444 160Q456 204 462 250Q468 296 466 340Q464 384 447.5 418.5Q431 453 396 474Q361 495 299 495Q242 495 193 480Q144 465 106 442Z" glyph-name="thorn" horiz-adv-x="529" unicode="&#254;" /><glyph d="M308 745Q288 745 263 743.5Q238 742 212 739.5Q186 737 162.5 733.5Q139 730 124 726L125 736Q141 740 166.5 744Q192 748 218.5 750Q245 752 269.5 753.5Q294 755 309 755Q437 755 496 711Q555 667 543 570Q534 495 492 447Q450 399 371 391H372Q420 389 452.5 377Q485 365 503 341.5Q521 318 526 283Q531 248 525 200Q513 103 438.5 49Q364 -5 224 -5Q203 -5 174.5 -3.5Q146 -2 118.5 0.5Q91 3 68.5 6.5Q46 10 36 14L37 24Q48 20 70 16.5Q92 13 119 10.5Q146 8 174 6.5Q202 5 225 5Q295 5 347 20Q399 35 434 61Q469 87 488.5 122.5Q508 158 513 200Q520 257 512 292.5Q504 328 480 348.5Q456 369 415 376.5Q374 384 314 384H190L191 396H318Q372 396 410.5 409Q449 422 474.5 445Q500 468 513 500Q526 532 531 570Q536 610 526.5 642.5Q517 675 490 697.5Q463 720 418 732.5Q373 745 308 745Z" glyph-name="three" horiz-adv-x="600" unicode="3" /><glyph d="M124 734Q146 742 181.5 748.5Q217 755 249 755Q334 755 370 733.5Q406 712 399 658Q394 618 369 596.5Q344 575 301 568Q352 561 374.5 534.5Q397 508 390 455Q383 397 340 366.5Q297 336 198 336Q159 336 125 342.5Q91 349 69 357L71 368Q104 357 135 351.5Q166 346 199 346Q289 346 330 372.5Q371 399 378 454Q386 513 357.5 537.5Q329 562 254 562H166L167 573H238Q305 573 343 590.5Q381 608 387 658Q394 709 361 727Q328 745 248 745Q219 745 187 739.5Q155 734 122 723ZM220 0 842 750H856L234 0ZM852 144H947L946 132H851L835 0H823L839 132H588L589 141L876 414H885ZM840 144 872 394 607 143Z" glyph-name="threequarters" horiz-adv-x="970" unicode="&#190;" /><glyph d="M124 734Q146 742 181.5 748.5Q217 755 249 755Q334 755 370 733.5Q406 712 399 658Q394 618 369 596.5Q344 575 301 568Q352 561 374.5 534.5Q397 508 390 455Q383 397 340 366.5Q297 336 198 336Q159 336 125 342.5Q91 349 69 357L71 368Q104 357 135 351.5Q166 346 199 346Q289 346 330 372.5Q371 399 378 454Q386 513 357.5 537.5Q329 562 254 562H166L167 573H238Q305 573 343 590.5Q381 608 387 658Q394 709 361 727Q328 745 248 745Q219 745 187 739.5Q155 734 122 723L124 734Z" glyph-name="threesuperior" horiz-adv-x="408" unicode="&#179;" /><glyph d="M479 684Q461 610 392 610Q365 610 349.5 621Q334 632 321 645Q308 658 294 669Q280 680 255 680Q228 680 208 664Q188 648 180 616H169Q187 690 256 690Q283 690 298.5 679Q314 668 327 655Q340 642 354.5 631Q369 620 394 620Q421 620 440.5 636Q460 652 468 684Z" glyph-name="tilde" horiz-adv-x="550" unicode="&#732;" /><glyph d="M504 884Q486 810 417 810Q390 810 374.5 821Q359 832 346 845Q333 858 319 869Q305 880 280 880Q253 880 233 864Q213 848 205 816H194Q212 890 281 890Q308 890 323.5 879Q339 868 351.5 855Q364 842 378.5 831Q393 820 418 820Q445 820 465 836Q485 852 493 884Z" glyph-name="tilde.cap" horiz-adv-x="550" unicode="&#58404;" /><glyph d="M413 534 341 723 316 500H303L334 750H345L419 555L541 750H552L521 500H508L537 723L419 534ZM172 738 143 500H131L160 738H65L67 750H269L267 738Z" glyph-name="trademark" horiz-adv-x="542" unicode="&#8482;" /><glyph d="M563 556Q568 598 562 632.5Q556 667 533.5 692Q511 717 468.5 731Q426 745 357 745Q330 745 301 743Q272 741 245 737Q218 733 194 728.5Q170 724 153 719L154 730Q168 735 191 739.5Q214 744 241.5 747.5Q269 751 299 753Q329 755 358 755Q436 755 481.5 739Q527 723 549.5 695.5Q572 668 576 632Q580 596 575 556Q571 525 558.5 495.5Q546 466 520.5 433.5Q495 401 455.5 362Q416 323 359.5 272.5Q303 222 227 158.5Q151 95 53 12H503L502 0H32L33 9Q130 92 206 155.5Q282 219 339.5 269Q397 319 437.5 358.5Q478 398 504.5 431Q531 464 545 494Q559 524 563 556Z" glyph-name="two" horiz-adv-x="600" unicode="2" /><glyph d="M404 637Q401 611 387 585Q373 559 338.5 527Q304 495 243 452.5Q182 410 83 352L382 353L380 341H62L64 351Q166 413 228.5 456Q291 499 326 531Q361 563 375 587.5Q389 612 392 637Q398 690 366 717.5Q334 745 250 745Q210 745 179 737Q148 729 122 719L123 730Q149 741 183.5 748Q218 755 250 755Q303 755 335 745Q367 735 383 718.5Q399 702 403 681Q407 660 404 637Z" glyph-name="twosuperior" horiz-adv-x="419" unicode="&#178;" /><glyph d="M195 5Q261 5 314.5 22Q368 39 399 58L453 500H465L404 0H395L397 47Q360 24 308 9.5Q256 -5 194 -5Q105 -5 70.5 25Q36 55 45 129L91 500H103L57 127Q52 90 60 66.5Q68 43 86 29.5Q104 16 131.5 10.5Q159 5 195 5Z" glyph-name="u" horiz-adv-x="499" unicode="u" /><glyph d="M195 5Q261 5 314.5 22Q368 39 399 58L453 500H465L404 0H395L397 47Q360 24 308 9.5Q256 -5 194 -5Q105 -5 70.5 25Q36 55 45 129L91 500H103L57 127Q52 90 60 66.5Q68 43 86 29.5Q104 16 131.5 10.5Q159 5 195 5ZM281 550 368 750H381L291 550Z" glyph-name="uacute" horiz-adv-x="499" unicode="&#250;" /><glyph d="M195 5Q261 5 314.5 22Q368 39 399 58L453 500H465L404 0H395L397 47Q360 24 308 9.5Q256 -5 194 -5Q105 -5 70.5 25Q36 55 45 129L91 500H103L57 127Q52 90 60 66.5Q68 43 86 29.5Q104 16 131.5 10.5Q159 5 195 5ZM286 550Q111 550 136 750H146Q141 706 146 670.5Q151 635 167.5 610.5Q184 586 213.5 573Q243 560 287 560Q375 560 419.5 610.5Q464 661 476 750H486Q461 550 286 550Z" glyph-name="ubreve" horiz-adv-x="499" unicode="&#365;" /><glyph d="M195 5Q261 5 314.5 22Q368 39 399 58L453 500H465L404 0H395L397 47Q360 24 308 9.5Q256 -5 194 -5Q105 -5 70.5 25Q36 55 45 129L91 500H103L57 127Q52 90 60 66.5Q68 43 86 29.5Q104 16 131.5 10.5Q159 5 195 5ZM427 550 309 739 145 550H133L306 750H316L439 550Z" glyph-name="ucircumflex" horiz-adv-x="499" unicode="&#251;" /><glyph d="M195 5Q261 5 314.5 22Q368 39 399 58L453 500H465L404 0H395L397 47Q360 24 308 9.5Q256 -5 194 -5Q105 -5 70.5 25Q36 55 45 129L91 500H103L57 127Q52 90 60 66.5Q68 43 86 29.5Q104 16 131.5 10.5Q159 5 195 5ZM188 650Q188 656 192.5 660.5Q197 665 203 665Q209 665 213.5 660.5Q218 656 218 650Q218 644 213.5 639.5Q209 635 203 635Q197 635 192.5 639.5Q188 644 188 650ZM378 650Q378 656 382.5 660.5Q387 665 393 665Q399 665 403.5 660.5Q408 656 408 650Q408 644 403.5 639.5Q399 635 393 635Q387 635 382.5 639.5Q378 644 378 650Z" glyph-name="udieresis" horiz-adv-x="499" unicode="&#252;" /><glyph d="M195 5Q261 5 314.5 22Q368 39 399 58L453 500H465L404 0H395L397 47Q360 24 308 9.5Q256 -5 194 -5Q105 -5 70.5 25Q36 55 45 129L91 500H103L57 127Q52 90 60 66.5Q68 43 86 29.5Q104 16 131.5 10.5Q159 5 195 5ZM281 550 241 750H254L291 550Z" glyph-name="ugrave" horiz-adv-x="499" unicode="&#249;" /><glyph d="M195 5Q261 5 314.5 22Q368 39 399 58L453 500H465L404 0H395L397 47Q360 24 308 9.5Q256 -5 194 -5Q105 -5 70.5 25Q36 55 45 129L91 500H103L57 127Q52 90 60 66.5Q68 43 86 29.5Q104 16 131.5 10.5Q159 5 195 5ZM241 550 328 750H341L251 550ZM321 550 408 750H421L331 550Z" glyph-name="uhungarumlaut" horiz-adv-x="499" unicode="&#369;" /><glyph d="M195 5Q261 5 314.5 22Q368 39 399 58L453 500H465L404 0H395L397 47Q360 24 308 9.5Q256 -5 194 -5Q105 -5 70.5 25Q36 55 45 129L91 500H103L57 127Q52 90 60 66.5Q68 43 86 29.5Q104 16 131.5 10.5Q159 5 195 5ZM420 645H176L177 655H421Z" glyph-name="umacron" horiz-adv-x="499" unicode="&#363;" /><glyph d="M224 -250H-75L-74 -238H225Z" glyph-name="underscore" horiz-adv-x="270" unicode="_" /><glyph d="M321 335H71L72 347H322Z" glyph-name="uni00AD" horiz-adv-x="370" unicode="&#173;" /><glyph d="M195 5Q261 5 314.5 22Q368 39 399 58L453 500H465L404 0Q383 -8 358 -22.5Q333 -37 310.5 -57Q288 -77 272 -103.5Q256 -130 252 -161Q247 -200 262.5 -220Q278 -240 326 -240Q341 -240 354.5 -238Q368 -236 380 -233L379 -243Q368 -246 353.5 -248Q339 -250 319 -250Q282 -250 257.5 -231.5Q233 -213 239 -165Q243 -132 258 -105Q273 -78 294.5 -57Q316 -36 342 -20.5Q368 -5 394 6L397 47Q360 24 308 9.5Q256 -5 194 -5Q105 -5 70.5 25Q36 55 45 129L91 500H103L57 127Q52 90 60 66.5Q68 43 86 29.5Q104 16 131.5 10.5Q159 5 195 5Z" glyph-name="uogonek" horiz-adv-x="499" unicode="&#371;" /><glyph d="M195 5Q261 5 314.5 22Q368 39 399 58L453 500H465L404 0H395L397 47Q360 24 308 9.5Q256 -5 194 -5Q105 -5 70.5 25Q36 55 45 129L91 500H103L57 127Q52 90 60 66.5Q68 43 86 29.5Q104 16 131.5 10.5Q159 5 195 5ZM289 559Q334 559 361.5 581.5Q389 604 394 650Q400 696 378 718.5Q356 741 311 741Q266 741 239 718.5Q212 696 206 650Q201 604 222.5 581.5Q244 559 289 559ZM288 549Q237 549 213.5 574.5Q190 600 196 650Q202 700 232 725.5Q262 751 313 751Q416 751 404 650Q398 600 368.5 574.5Q339 549 288 549Z" glyph-name="uring" horiz-adv-x="499" unicode="&#367;" /><glyph d="M195 5Q261 5 314.5 22Q368 39 399 58L453 500H465L404 0H395L397 47Q360 24 308 9.5Q256 -5 194 -5Q105 -5 70.5 25Q36 55 45 129L91 500H103L57 127Q52 90 60 66.5Q68 43 86 29.5Q104 16 131.5 10.5Q159 5 195 5ZM453 684Q435 610 366 610Q339 610 323.5 621Q308 632 295 645Q282 658 268 669Q254 680 229 680Q202 680 182 664Q162 648 154 616H143Q161 690 230 690Q257 690 272.5 679Q288 668 301 655Q314 642 328.5 631Q343 620 368 620Q395 620 414.5 636Q434 652 442 684Z" glyph-name="utilde" horiz-adv-x="499" unicode="&#361;" /><glyph d="M192 -5 51 500H64L197 18L448 500H461L196 -5Z" glyph-name="v" horiz-adv-x="450" unicode="v" /><glyph d="M365 500 464 14 654 500H667L468 -5H457L357 482L137 -5H126L51 500H64L134 14L353 500Z" glyph-name="w" horiz-adv-x="656" unicode="w" /><glyph d="M365 500 464 14 654 500H667L468 -5H457L357 482L137 -5H126L51 500H64L134 14L353 500ZM360 550 447 750H460L370 550Z" glyph-name="wacute" horiz-adv-x="656" unicode="&#7811;" /><glyph d="M365 500 464 14 654 500H667L468 -5H457L357 482L137 -5H126L51 500H64L134 14L353 500ZM506 550 388 739 224 550H212L385 750H395L518 550Z" glyph-name="wcircumflex" horiz-adv-x="656" unicode="&#373;" /><glyph d="M365 500 464 14 654 500H667L468 -5H457L357 482L137 -5H126L51 500H64L134 14L353 500ZM267 650Q267 656 271.5 660.5Q276 665 282 665Q288 665 292.5 660.5Q297 656 297 650Q297 644 292.5 639.5Q288 635 282 635Q276 635 271.5 639.5Q267 644 267 650ZM457 650Q457 656 461.5 660.5Q466 665 472 665Q478 665 482.5 660.5Q487 656 487 650Q487 644 482.5 639.5Q478 635 472 635Q466 635 461.5 639.5Q457 644 457 650Z" glyph-name="wdieresis" horiz-adv-x="656" unicode="&#7813;" /><glyph d="M365 500 464 14 654 500H667L468 -5H457L357 482L137 -5H126L51 500H64L134 14L353 500ZM360 550 320 750H333L370 550Z" glyph-name="wgrave" horiz-adv-x="656" unicode="&#7809;" /><glyph d="M0 0H-15L207 258L58 500H73L215 267L415 500H430L221 258L381 0H366L213 249Z" glyph-name="x" horiz-adv-x="426" unicode="x" /><glyph d="M195 5Q261 5 314.5 22Q368 39 399 58L453 500H465L391 -104Q387 -137 374 -164.5Q361 -192 336 -212Q311 -232 271 -243.5Q231 -255 173 -255Q107 -255 66.5 -248Q26 -241 -3 -230L-1 -219Q40 -235 80 -240Q120 -245 174 -245Q231 -245 268.5 -233.5Q306 -222 329.5 -203Q353 -184 364 -158.5Q375 -133 379 -104L397 47Q360 24 308 9.5Q256 -5 194 -5Q105 -5 70.5 25Q36 55 45 129L91 500H103L57 127Q52 90 60 66.5Q68 43 86 29.5Q104 16 131.5 10.5Q159 5 195 5Z" glyph-name="y" horiz-adv-x="499" unicode="y" /><glyph d="M195 5Q261 5 314.5 22Q368 39 399 58L453 500H465L391 -104Q387 -137 374 -164.5Q361 -192 336 -212Q311 -232 271 -243.5Q231 -255 173 -255Q107 -255 66.5 -248Q26 -241 -3 -230L-1 -219Q40 -235 80 -240Q120 -245 174 -245Q231 -245 268.5 -233.5Q306 -222 329.5 -203Q353 -184 364 -158.5Q375 -133 379 -104L397 47Q360 24 308 9.5Q256 -5 194 -5Q105 -5 70.5 25Q36 55 45 129L91 500H103L57 127Q52 90 60 66.5Q68 43 86 29.5Q104 16 131.5 10.5Q159 5 195 5ZM281 550 368 750H381L291 550Z" glyph-name="yacute" horiz-adv-x="499" unicode="&#253;" /><glyph d="M195 5Q261 5 314.5 22Q368 39 399 58L453 500H465L391 -104Q387 -137 374 -164.5Q361 -192 336 -212Q311 -232 271 -243.5Q231 -255 173 -255Q107 -255 66.5 -248Q26 -241 -3 -230L-1 -219Q40 -235 80 -240Q120 -245 174 -245Q231 -245 268.5 -233.5Q306 -222 329.5 -203Q353 -184 364 -158.5Q375 -133 379 -104L397 47Q360 24 308 9.5Q256 -5 194 -5Q105 -5 70.5 25Q36 55 45 129L91 500H103L57 127Q52 90 60 66.5Q68 43 86 29.5Q104 16 131.5 10.5Q159 5 195 5ZM427 550 309 739 145 550H133L306 750H316L439 550Z" glyph-name="ycircumflex" horiz-adv-x="499" unicode="&#375;" /><glyph d="M195 5Q261 5 314.5 22Q368 39 399 58L453 500H465L391 -104Q387 -137 374 -164.5Q361 -192 336 -212Q311 -232 271 -243.5Q231 -255 173 -255Q107 -255 66.5 -248Q26 -241 -3 -230L-1 -219Q40 -235 80 -240Q120 -245 174 -245Q231 -245 268.5 -233.5Q306 -222 329.5 -203Q353 -184 364 -158.5Q375 -133 379 -104L397 47Q360 24 308 9.5Q256 -5 194 -5Q105 -5 70.5 25Q36 55 45 129L91 500H103L57 127Q52 90 60 66.5Q68 43 86 29.5Q104 16 131.5 10.5Q159 5 195 5ZM188 650Q188 656 192.5 660.5Q197 665 203 665Q209 665 213.5 660.5Q218 656 218 650Q218 644 213.5 639.5Q209 635 203 635Q197 635 192.5 639.5Q188 644 188 650ZM378 650Q378 656 382.5 660.5Q387 665 393 665Q399 665 403.5 660.5Q408 656 408 650Q408 644 403.5 639.5Q399 635 393 635Q387 635 382.5 639.5Q378 644 378 650Z" glyph-name="ydieresis" horiz-adv-x="499" unicode="&#255;" /><glyph d="M249 0 285 298H47L49 310H284L222 440H65L66 452H216L74 750H88L293 316L606 750H620L403 452H554L553 440H395L302 310H537L535 298H297L261 0Z" glyph-name="yen" horiz-adv-x="600" unicode="&#165;" /><glyph d="M0 0V8L391 488H75L77 500H411L410 492L19 12H361L360 0Z" glyph-name="z" horiz-adv-x="420" unicode="z" /><glyph d="M0 0V8L391 488H75L77 500H411L410 492L19 12H361L360 0ZM243 550 330 750H343L253 550Z" glyph-name="zacute" horiz-adv-x="420" unicode="&#378;" /><glyph d="M0 0V8L391 488H75L77 500H411L410 492L19 12H361L360 0ZM132 750 249 561 414 750H426L253 550H243L120 750Z" glyph-name="zcaron" horiz-adv-x="420" unicode="&#158;" /><glyph d="M0 0V8L391 488H75L77 500H411L410 492L19 12H361L360 0ZM245 650Q245 656 249.5 660.5Q254 665 260 665Q266 665 270.5 660.5Q275 656 275 650Q275 644 270.5 639.5Q266 635 260 635Q254 635 249.5 639.5Q245 644 245 650Z" glyph-name="zdotaccent" horiz-adv-x="420" unicode="&#380;" /><glyph d="M361 745Q285 745 238 718.5Q191 692 163.5 644Q136 596 122 527.5Q108 459 98 375Q87 291 84.5 222.5Q82 154 97.5 106Q113 58 153.5 31.5Q194 5 270 5Q346 5 393 31.5Q440 58 467.5 106Q495 154 509 222.5Q523 291 534 375Q544 459 547 527.5Q550 596 534 644Q518 692 477.5 718.5Q437 745 361 745ZM269 -5Q191 -5 148.5 21Q106 47 88.5 96.5Q71 146 73 216Q75 286 86 375Q97 463 112 533.5Q127 604 156.5 653.5Q186 703 235 729Q284 755 362 755Q440 755 482.5 729Q525 703 543 653.5Q561 604 559 533.5Q557 463 546 375Q535 286 519.5 216Q504 146 474.5 96.5Q445 47 396 21Q347 -5 269 -5Z" glyph-name="zero" horiz-adv-x="600" unicode="0" /></font>
</defs>
</svg>
