<?xml version="1.0" standalone="no"?><!DOCTYPE svg PUBLIC "-//W3C//DTD SVG 1.1//EN" "http://www.w3.org/Graphics/SVG/1.1/DTD/svg11.dtd" ><svg version="1.1" xmlns="http://www.w3.org/2000/svg"><defs><font horiz-adv-x="0" id="font"><font-face ascent="750" bbox="-177 -262 1316.3465 995" cap-height="750" descent="-250" font-family="Apex New Web" font-stretch="normal" font-style="normal" font-weight="600" units-per-em="1000" x-height="500" /><missing-glyph d="M65 750H815V0H65ZM440 422 702 684H178ZM178 66H702L440 328ZM744 118V632L487 375ZM136 632V118L393 375Z" horiz-adv-x="880" /><glyph glyph-name=".null" horiz-adv-x="0" /><glyph d="M432 183H192L117 0H-5L326 759H440L585 0H463ZM364 607 227 275H419Z" glyph-name="A" horiz-adv-x="640" unicode="A" /><glyph d="M895 337H591L598 103H898L886 0H479L475 183H219L114 0H-15Q99 189 213 375Q327 561 442 750H978L965 647H581L588 440H908ZM271 275H473L467 614Z" glyph-name="AE" horiz-adv-x="944" unicode="&#198;" /><glyph d="M432 183H192L117 0H-5L326 759H440L585 0H463ZM364 607 227 275H419ZM340 795 412 905H547L434 795Z" glyph-name="Aacute" horiz-adv-x="640" unicode="&#193;" /><glyph d="M432 183H192L117 0H-5L326 759H440L585 0H463ZM364 607 227 275H419ZM396 777Q304 777 271.5 806.5Q239 836 250 905H335Q330 873 347 861.5Q364 850 405 850Q446 850 465.5 861.5Q485 873 489 905H574Q571 870 560 846Q549 822 528 806.5Q507 791 474.5 784Q442 777 396 777Z" glyph-name="Abreve" horiz-adv-x="640" unicode="&#258;" /><glyph d="M432 183H192L117 0H-5L326 759H440L585 0H463ZM364 607 227 275H419ZM473 795 393 845 301 795H203L344 905H458L571 795Z" glyph-name="Acircumflex" horiz-adv-x="640" unicode="&#194;" /><glyph d="M432 183H192L117 0H-5L326 759H440L585 0H463ZM364 607 227 275H419ZM215 850Q215 880 236.5 901.5Q258 923 288 923Q318 923 339.5 901.5Q361 880 361 850Q361 820 339.5 798.5Q318 777 288 777Q258 777 236.5 798.5Q215 820 215 850ZM427 850Q427 880 448.5 901.5Q470 923 500 923Q530 923 551.5 901.5Q573 880 573 850Q573 820 551.5 798.5Q530 777 500 777Q470 777 448.5 798.5Q427 820 427 850Z" glyph-name="Adieresis" horiz-adv-x="640" unicode="&#196;" /><glyph d="M432 183H192L117 0H-5L326 759H440L585 0H463ZM364 607 227 275H419ZM340 795 255 905H390L434 795Z" glyph-name="Agrave" horiz-adv-x="640" unicode="&#192;" /><glyph d="M432 183H192L117 0H-5L326 759H440L585 0H463ZM364 607 227 275H419ZM253 894H545L534 805H242Z" glyph-name="Amacron" horiz-adv-x="640" unicode="&#256;" /><glyph d="M192 183 117 0H-5L326 759H440L585 0Q563 -9 542 -21.5Q521 -34 504.5 -49Q488 -64 477 -83Q466 -102 463 -125Q460 -148 473 -162Q486 -176 513 -176Q534 -176 551 -173Q568 -170 577 -167L569 -235Q556 -240 535 -245Q514 -250 482 -250Q457 -250 435.5 -243Q414 -236 398.5 -222.5Q383 -209 376 -188.5Q369 -168 372 -141Q376 -110 396 -75Q416 -40 464 -8L432 183ZM364 607 227 275H419Z" glyph-name="Aogonek" horiz-adv-x="640" unicode="&#260;" /><glyph d="M432 183H192L117 0H-5L326 759H440L585 0H463ZM364 607 227 275H419ZM296 850Q302 897 333 914.5Q364 932 406 932Q448 932 475 914.5Q502 897 496 850Q490 803 459 785.5Q428 768 386 768Q344 768 317 785.5Q290 803 296 850ZM430 850Q432 867 398 867Q364 867 362 850Q360 833 394 833Q428 833 430 850Z" glyph-name="Aring" horiz-adv-x="640" unicode="&#197;" /><glyph d="M432 183H192L117 0H-5L326 759H440L585 0H463ZM364 607 227 275H419ZM599 905Q591 842 557.5 809.5Q524 777 464 777Q437 777 416.5 787Q396 797 379 808.5Q362 820 346 830Q330 840 311 840Q297 840 287.5 836Q278 832 272.5 825Q267 818 264 810Q261 802 260 795H189Q197 858 230.5 890.5Q264 923 324 923Q351 923 371.5 913Q392 903 409 891.5Q426 880 442 870Q458 860 477 860Q505 860 515.5 875Q526 890 528 905Z" glyph-name="Atilde" horiz-adv-x="640" unicode="&#195;" /><glyph d="M123 750H375Q444 750 487.5 734.5Q531 719 555 691Q579 663 586 625.5Q593 588 587 545Q582 497 553 456.5Q524 416 479 396Q532 380 555.5 332.5Q579 285 571 220Q565 173 547.5 133Q530 93 497 63.5Q464 34 413 17Q362 0 289 0H31ZM155 103H305Q344 103 371 113Q398 123 414.5 139.5Q431 156 439.5 178Q448 200 451 223Q458 281 432 311.5Q406 342 335 342H184ZM467 540Q469 559 467 578Q465 597 454.5 612.5Q444 628 423 637.5Q402 647 365 647H222L196 437H343Q377 437 399.5 446.5Q422 456 436.5 470.5Q451 485 458 503.5Q465 522 467 540Z" glyph-name="B" horiz-adv-x="608" unicode="B" /><glyph d="M67 375Q78 467 104 539Q130 611 173 660.5Q216 710 278 736Q340 762 423 762Q490 762 529.5 751.5Q569 741 595 730L582 623Q562 632 543 638Q524 644 504.5 648.5Q485 653 463.5 655Q442 657 417 657Q309 657 254 586Q199 515 182 375Q165 236 203 164.5Q241 93 348 93Q399 93 437.5 101.5Q476 110 521 127L508 20Q479 9 437 -1.5Q395 -12 328 -12Q245 -12 189.5 14Q134 40 103 89.5Q72 139 63.5 211Q55 283 67 375Z" glyph-name="C" horiz-adv-x="587" unicode="C" /><glyph d="M67 375Q78 467 104 539Q130 611 173 660.5Q216 710 278 736Q340 762 423 762Q490 762 529.5 751.5Q569 741 595 730L582 623Q562 632 543 638Q524 644 504.5 648.5Q485 653 463.5 655Q442 657 417 657Q309 657 254 586Q199 515 182 375Q165 236 203 164.5Q241 93 348 93Q399 93 437.5 101.5Q476 110 521 127L508 20Q479 9 437 -1.5Q395 -12 328 -12Q245 -12 189.5 14Q134 40 103 89.5Q72 139 63.5 211Q55 283 67 375ZM363 795 435 905H570L457 795Z" glyph-name="Cacute" horiz-adv-x="587" unicode="&#262;" /><glyph d="M67 375Q78 467 104 539Q130 611 173 660.5Q216 710 278 736Q340 762 423 762Q490 762 529.5 751.5Q569 741 595 730L582 623Q562 632 543 638Q524 644 504.5 648.5Q485 653 463.5 655Q442 657 417 657Q309 657 254 586Q199 515 182 375Q165 236 203 164.5Q241 93 348 93Q399 93 437.5 101.5Q476 110 521 127L508 20Q479 9 437 -1.5Q395 -12 328 -12Q245 -12 189.5 14Q134 40 103 89.5Q72 139 63.5 211Q55 283 67 375ZM338 905 417 855 510 905H608L467 795H353L240 905Z" glyph-name="Ccaron" horiz-adv-x="587" unicode="&#268;" /><glyph d="M273 -8Q206 0 161.5 29.5Q117 59 92.5 107.5Q68 156 62 223.5Q56 291 67 375Q78 467 104 539Q130 611 173 660.5Q216 710 278 736Q340 762 423 762Q490 762 529.5 751.5Q569 741 595 730L582 623Q562 632 543 638Q524 644 504.5 648.5Q485 653 463.5 655Q442 657 417 657Q309 657 254 586Q199 515 182 375Q165 236 203 164.5Q241 93 348 93Q399 93 437.5 101.5Q476 110 521 127L508 20Q479 9 437 -1.5Q395 -12 328 -12L325 -60Q344 -65 360 -72Q376 -79 387 -90.5Q398 -102 403.5 -117Q409 -132 407 -153Q401 -201 365 -225.5Q329 -250 276 -250Q239 -250 215 -243Q191 -236 181 -231L190 -155Q198 -158 219.5 -165.5Q241 -173 270 -173Q296 -173 311 -166.5Q326 -160 328 -143Q331 -120 312.5 -109.5Q294 -99 253 -94Z" glyph-name="Ccedilla" horiz-adv-x="587" unicode="&#199;" /><glyph d="M67 375Q78 467 104 539Q130 611 173 660.5Q216 710 278 736Q340 762 423 762Q490 762 529.5 751.5Q569 741 595 730L582 623Q562 632 543 638Q524 644 504.5 648.5Q485 653 463.5 655Q442 657 417 657Q309 657 254 586Q199 515 182 375Q165 236 203 164.5Q241 93 348 93Q399 93 437.5 101.5Q476 110 521 127L508 20Q479 9 437 -1.5Q395 -12 328 -12Q245 -12 189.5 14Q134 40 103 89.5Q72 139 63.5 211Q55 283 67 375ZM496 795 416 845 324 795H226L367 905H481L594 795Z" glyph-name="Ccircumflex" horiz-adv-x="587" unicode="&#264;" /><glyph d="M67 375Q78 467 104 539Q130 611 173 660.5Q216 710 278 736Q340 762 423 762Q490 762 529.5 751.5Q569 741 595 730L582 623Q562 632 543 638Q524 644 504.5 648.5Q485 653 463.5 655Q442 657 417 657Q309 657 254 586Q199 515 182 375Q165 236 203 164.5Q241 93 348 93Q399 93 437.5 101.5Q476 110 521 127L508 20Q479 9 437 -1.5Q395 -12 328 -12Q245 -12 189.5 14Q134 40 103 89.5Q72 139 63.5 211Q55 283 67 375ZM344 850Q344 880 365.5 901.5Q387 923 417 923Q447 923 468.5 901.5Q490 880 490 850Q490 820 468.5 798.5Q447 777 417 777Q387 777 365.5 798.5Q344 820 344 850Z" glyph-name="Cdotaccent" horiz-adv-x="587" unicode="&#266;" /><glyph d="M31 0 123 750H346Q439 750 497 721.5Q555 693 585 642.5Q615 592 621.5 523.5Q628 455 618 375Q608 295 585 226.5Q562 158 519.5 107.5Q477 57 412 28.5Q347 0 254 0ZM155 103H269Q325 103 365.5 122.5Q406 142 433.5 178Q461 214 477 264Q493 314 501 375Q508 436 504.5 486Q501 536 482 572Q463 608 427.5 627.5Q392 647 336 647H222Z" glyph-name="D" horiz-adv-x="650" unicode="D" /><glyph d="M31 0 123 750H346Q439 750 497 721.5Q555 693 585 642.5Q615 592 621.5 523.5Q628 455 618 375Q608 295 585 226.5Q562 158 519.5 107.5Q477 57 412 28.5Q347 0 254 0ZM155 103H269Q325 103 365.5 122.5Q406 142 433.5 178Q461 214 477 264Q493 314 501 375Q508 436 504.5 486Q501 536 482 572Q463 608 427.5 627.5Q392 647 336 647H222ZM292 905 371 855 464 905H562L421 795H307L194 905Z" glyph-name="Dcaron" horiz-adv-x="650" unicode="&#270;" /><glyph d="M76 0 117 335H30L41 430H128L168 750H391Q484 750 542 721.5Q600 693 630 642.5Q660 592 666.5 523.5Q673 455 663 375Q653 295 630 226.5Q607 158 564.5 107.5Q522 57 457 28.5Q392 0 299 0ZM240 430H398L387 335H229L200 103H314Q370 103 410.5 122.5Q451 142 478.5 178Q506 214 522 264Q538 314 546 375Q553 436 549.5 486Q546 536 527 572Q508 608 472.5 627.5Q437 647 381 647H267Z" glyph-name="Dcroat" horiz-adv-x="695" unicode="&#272;" /><glyph d="M715 0H-15L-6 75L387 762H499L724 75ZM428 642 129 103H595Z" glyph-name="Delta" horiz-adv-x="760" unicode="&#8710;" /><glyph d="M496 337H184L155 103H499L487 0H31L123 750H579L566 647H222L197 440H509Z" glyph-name="E" horiz-adv-x="565" unicode="E" /><glyph d="M496 337H184L155 103H499L487 0H31L123 750H579L566 647H222L197 440H509ZM317 795 389 905H524L411 795Z" glyph-name="Eacute" horiz-adv-x="565" unicode="&#201;" /><glyph d="M496 337H184L155 103H499L487 0H31L123 750H579L566 647H222L197 440H509ZM373 777Q281 777 248.5 806.5Q216 836 227 905H312Q307 873 324 861.5Q341 850 382 850Q423 850 442.5 861.5Q462 873 466 905H551Q548 870 537 846Q526 822 505 806.5Q484 791 451.5 784Q419 777 373 777Z" glyph-name="Ebreve" horiz-adv-x="565" unicode="&#276;" /><glyph d="M496 337H184L155 103H499L487 0H31L123 750H579L566 647H222L197 440H509ZM292 905 371 855 464 905H562L421 795H307L194 905Z" glyph-name="Ecaron" horiz-adv-x="565" unicode="&#282;" /><glyph d="M496 337H184L155 103H499L487 0H31L123 750H579L566 647H222L197 440H509ZM450 795 370 845 278 795H180L321 905H435L548 795Z" glyph-name="Ecircumflex" horiz-adv-x="565" unicode="&#202;" /><glyph d="M496 337H184L155 103H499L487 0H31L123 750H579L566 647H222L197 440H509ZM192 850Q192 880 213.5 901.5Q235 923 265 923Q295 923 316.5 901.5Q338 880 338 850Q338 820 316.5 798.5Q295 777 265 777Q235 777 213.5 798.5Q192 820 192 850ZM404 850Q404 880 425.5 901.5Q447 923 477 923Q507 923 528.5 901.5Q550 880 550 850Q550 820 528.5 798.5Q507 777 477 777Q447 777 425.5 798.5Q404 820 404 850Z" glyph-name="Edieresis" horiz-adv-x="565" unicode="&#203;" /><glyph d="M496 337H184L155 103H499L487 0H31L123 750H579L566 647H222L197 440H509ZM298 850Q298 880 319.5 901.5Q341 923 371 923Q401 923 422.5 901.5Q444 880 444 850Q444 820 422.5 798.5Q401 777 371 777Q341 777 319.5 798.5Q298 820 298 850Z" glyph-name="Edotaccent" horiz-adv-x="565" unicode="&#278;" /><glyph d="M496 337H184L155 103H499L487 0H31L123 750H579L566 647H222L197 440H509ZM317 795 232 905H367L411 795Z" glyph-name="Egrave" horiz-adv-x="565" unicode="&#200;" /><glyph d="M496 337H184L155 103H499L487 0H31L123 750H579L566 647H222L197 440H509ZM230 894H522L511 805H219Z" glyph-name="Emacron" horiz-adv-x="565" unicode="&#274;" /><glyph d="M319 -158Q373 -158 408.5 -131.5Q444 -105 449 -58L458 13L204 533L142 0H31L123 750H225L485 217L548 750H659L557 -80Q551 -126 527 -160.5Q503 -195 467.5 -217.5Q432 -240 390 -251Q348 -262 306 -262Z" glyph-name="Eng" horiz-adv-x="658" unicode="&#330;" /><glyph d="M496 337H184L155 103H499L487 0Q465 -9 444 -21.5Q423 -34 406.5 -49Q390 -64 379 -83Q368 -102 365 -125Q362 -148 375 -162Q388 -176 415 -176Q436 -176 453 -173Q470 -170 479 -167L471 -235Q458 -240 437 -245Q416 -250 384 -250Q359 -250 337.5 -243Q316 -236 300.5 -222.5Q285 -209 278 -188.5Q271 -168 274 -141Q279 -108 301 -71Q323 -34 377 0H31L123 750H579L566 647H222L197 440H509Z" glyph-name="Eogonek" horiz-adv-x="565" unicode="&#280;" /><glyph d="M76 0 117 335H30L41 430H128L168 750H391Q484 750 542 721.5Q600 693 630 642.5Q660 592 666.5 523.5Q673 455 663 375Q653 295 630 226.5Q607 158 564.5 107.5Q522 57 457 28.5Q392 0 299 0ZM240 430H398L387 335H229L200 103H314Q370 103 410.5 122.5Q451 142 478.5 178Q506 214 522 264Q538 314 546 375Q553 436 549.5 486Q546 536 527 572Q508 608 472.5 627.5Q437 647 381 647H267Z" glyph-name="Eth" horiz-adv-x="695" unicode="&#208;" /><glyph d="M108 344 115 406H52L64 500H135Q156 575 187.5 625.5Q219 676 260 706Q301 736 350 749Q399 762 454 762Q505 762 546 754.5Q587 747 614 735L602 636Q573 647 536 654Q499 661 450 661Q418 661 388.5 653.5Q359 646 333.5 628Q308 610 286.5 579Q265 548 250 500H517L473 406H228L221 344H445L401 250H219Q223 202 236.5 171Q250 140 271 121.5Q292 103 319.5 96Q347 89 379 89Q428 89 467 96Q506 103 537 114L525 15Q495 3 452.5 -4.5Q410 -12 359 -12Q304 -12 258 1Q212 14 179 44Q146 74 126.5 124.5Q107 175 104 250H33L45 344Z" glyph-name="Euro" horiz-adv-x="600" unicode="&#8364;" /><glyph d="M487 333H183L143 0H31L123 750H571L558 647H222L196 436H500Z" glyph-name="F" horiz-adv-x="544" unicode="F" /><glyph d="M324 -12Q240 -12 185.5 15.5Q131 43 101 93Q71 143 63.5 214.5Q56 286 67 375Q78 463 103 535Q128 607 170.5 657Q213 707 275 734.5Q337 762 422 762Q500 762 551 750.5Q602 739 632 723L619 613Q568 635 522.5 646Q477 657 423 657Q365 657 323 638Q281 619 252.5 583Q224 547 207 494.5Q190 442 182 375Q173 306 177.5 253.5Q182 201 202.5 165Q223 129 260 111Q297 93 354 93Q389 93 417.5 97Q446 101 463 107L488 312H355L367 413H612L566 34Q534 18 469.5 3Q405 -12 324 -12Z" glyph-name="G" horiz-adv-x="651" unicode="G" /><glyph d="M324 -12Q240 -12 185.5 15.5Q131 43 101 93Q71 143 63.5 214.5Q56 286 67 375Q78 463 103 535Q128 607 170.5 657Q213 707 275 734.5Q337 762 422 762Q500 762 551 750.5Q602 739 632 723L619 613Q568 635 522.5 646Q477 657 423 657Q365 657 323 638Q281 619 252.5 583Q224 547 207 494.5Q190 442 182 375Q173 306 177.5 253.5Q182 201 202.5 165Q223 129 260 111Q297 93 354 93Q389 93 417.5 97Q446 101 463 107L488 312H355L367 413H612L566 34Q534 18 469.5 3Q405 -12 324 -12ZM428 777Q336 777 303.5 806.5Q271 836 282 905H367Q362 873 379 861.5Q396 850 437 850Q478 850 497.5 861.5Q517 873 521 905H606Q603 870 592 846Q581 822 560 806.5Q539 791 506.5 784Q474 777 428 777Z" glyph-name="Gbreve" horiz-adv-x="650" unicode="&#286;" /><glyph d="M324 -12Q240 -12 185.5 15.5Q131 43 101 93Q71 143 63.5 214.5Q56 286 67 375Q78 463 103 535Q128 607 170.5 657Q213 707 275 734.5Q337 762 422 762Q500 762 551 750.5Q602 739 632 723L619 613Q568 635 522.5 646Q477 657 423 657Q365 657 323 638Q281 619 252.5 583Q224 547 207 494.5Q190 442 182 375Q173 306 177.5 253.5Q182 201 202.5 165Q223 129 260 111Q297 93 354 93Q389 93 417.5 97Q446 101 463 107L488 312H355L367 413H612L566 34Q534 18 469.5 3Q405 -12 324 -12ZM505 795 425 845 333 795H235L376 905H490L603 795Z" glyph-name="Gcircumflex" horiz-adv-x="650" unicode="&#284;" /><glyph d="M324 -12Q240 -12 185.5 15.5Q131 43 101 93Q71 143 63.5 214.5Q56 286 67 375Q78 463 103 535Q128 607 170.5 657Q213 707 275 734.5Q337 762 422 762Q500 762 551 750.5Q602 739 632 723L619 613Q568 635 522.5 646Q477 657 423 657Q365 657 323 638Q281 619 252.5 583Q224 547 207 494.5Q190 442 182 375Q173 306 177.5 253.5Q182 201 202.5 165Q223 129 260 111Q297 93 354 93Q389 93 417.5 97Q446 101 463 107L488 312H355L367 413H612L566 34Q534 18 469.5 3Q405 -12 324 -12ZM392 -50 303 -250H214L259 -50Z" glyph-name="Gcommaaccent" horiz-adv-x="650" unicode="&#290;" /><glyph d="M324 -12Q240 -12 185.5 15.5Q131 43 101 93Q71 143 63.5 214.5Q56 286 67 375Q78 463 103 535Q128 607 170.5 657Q213 707 275 734.5Q337 762 422 762Q500 762 551 750.5Q602 739 632 723L619 613Q568 635 522.5 646Q477 657 423 657Q365 657 323 638Q281 619 252.5 583Q224 547 207 494.5Q190 442 182 375Q173 306 177.5 253.5Q182 201 202.5 165Q223 129 260 111Q297 93 354 93Q389 93 417.5 97Q446 101 463 107L488 312H355L367 413H612L566 34Q534 18 469.5 3Q405 -12 324 -12ZM353 850Q353 880 374.5 901.5Q396 923 426 923Q456 923 477.5 901.5Q499 880 499 850Q499 820 477.5 798.5Q456 777 426 777Q396 777 374.5 798.5Q353 820 353 850Z" glyph-name="Gdotaccent" horiz-adv-x="650" unicode="&#288;" /><glyph d="M447 0 488 337H184L143 0H31L123 750H235L197 440H501L539 750H651L559 0Z" glyph-name="H" horiz-adv-x="650" unicode="H" /><glyph d="M447 0 488 337H184L143 0H31L123 750H235L220 634H524L539 750H651L559 0ZM501 440 513 544H209L197 440Z" glyph-name="Hbar" horiz-adv-x="650" unicode="&#294;" /><glyph d="M447 0 488 337H184L143 0H31L123 750H235L197 440H501L539 750H651L559 0ZM478 795 398 845 306 795H208L349 905H463L576 795Z" glyph-name="Hcircumflex" horiz-adv-x="650" unicode="&#292;" /><glyph d="M47 0 139 750H251L159 0Z" glyph-name="I" horiz-adv-x="266" unicode="I" /><glyph d="M47 0 139 750H251L159 0ZM256 107Q270 102 288.5 98.5Q307 95 332 95Q373 95 401 112.5Q429 130 434 172L505 750H617L544 155Q533 73 481 30.5Q429 -12 325 -12Q308 -12 284 -9Q260 -6 243 0Z" glyph-name="IJ" horiz-adv-x="624" unicode="&#306;" /><glyph d="M47 0 139 750H251L159 0ZM154 795 226 905H361L248 795Z" glyph-name="Iacute" horiz-adv-x="266" unicode="&#205;" /><glyph d="M47 0 139 750H251L159 0ZM210 777Q118 777 85.5 806.5Q53 836 64 905H149Q144 873 161 861.5Q178 850 219 850Q260 850 279.5 861.5Q299 873 303 905H388Q385 870 374 846Q363 822 342 806.5Q321 791 288.5 784Q256 777 210 777Z" glyph-name="Ibreve" horiz-adv-x="266" unicode="&#300;" /><glyph d="M47 0 139 750H251L159 0ZM287 795 207 845 115 795H17L158 905H272L385 795Z" glyph-name="Icircumflex" horiz-adv-x="266" unicode="&#206;" /><glyph d="M47 0 139 750H251L159 0ZM230 850Q230 880 251.5 901.5Q273 923 303 923Q333 923 354.5 901.5Q376 880 376 850Q376 820 354.5 798.5Q333 777 303 777Q273 777 251.5 798.5Q230 820 230 850ZM38 850Q38 880 59.5 901.5Q81 923 111 923Q141 923 162.5 901.5Q184 880 184 850Q184 820 162.5 798.5Q141 777 111 777Q81 777 59.5 798.5Q38 820 38 850Z" glyph-name="Idieresis" horiz-adv-x="266" unicode="&#207;" /><glyph d="M47 0 139 750H251L159 0ZM135 850Q135 880 156.5 901.5Q178 923 208 923Q238 923 259.5 901.5Q281 880 281 850Q281 820 259.5 798.5Q238 777 208 777Q178 777 156.5 798.5Q135 820 135 850Z" glyph-name="Idotaccent" horiz-adv-x="266" unicode="&#304;" /><glyph d="M47 0 139 750H251L159 0ZM154 795 69 905H204L248 795Z" glyph-name="Igrave" horiz-adv-x="266" unicode="&#204;" /><glyph d="M47 0 139 750H251L159 0ZM67 894H359L348 805H56Z" glyph-name="Imacron" horiz-adv-x="266" unicode="&#298;" /><glyph d="M159 0Q118 -19 88 -49Q58 -79 52 -125Q49 -148 62 -162Q75 -176 102 -176Q123 -176 140 -173Q157 -170 166 -167L158 -235Q145 -240 124 -245Q103 -250 71 -250Q46 -250 24.5 -243Q3 -236 -12 -222.5Q-27 -209 -34 -188.5Q-41 -168 -38 -141Q-34 -109 -16.5 -74Q1 -39 46 -5L139 750H251L159 0Z" glyph-name="Iogonek" horiz-adv-x="266" unicode="&#302;" /><glyph d="M47 0 139 750H251L159 0ZM413 905Q405 842 371.5 809.5Q338 777 278 777Q251 777 230.5 787Q210 797 193 808.5Q176 820 160 830Q144 840 125 840Q111 840 101.5 836Q92 832 86.5 825Q81 818 78 810Q75 802 74 795H3Q11 858 44.5 890.5Q78 923 138 923Q165 923 185.5 913Q206 903 223 891.5Q240 880 256 870Q272 860 291 860Q319 860 329.5 875Q340 890 342 905Z" glyph-name="Itilde" horiz-adv-x="266" unicode="&#296;" /><glyph d="M5 107Q19 102 37.5 98.5Q56 95 81 95Q122 95 150 112.5Q178 130 183 172L254 750H366L293 155Q282 73 230 30.5Q178 -12 74 -12Q57 -12 33 -9Q9 -6 -8 0Z" glyph-name="J" horiz-adv-x="374" unicode="J" /><glyph d="M5 107Q19 102 37.5 98.5Q56 95 81 95Q122 95 150 112.5Q178 130 183 172L254 750H366L293 155Q282 73 230 30.5Q178 -12 74 -12Q57 -12 33 -9Q9 -6 -8 0ZM402 795 322 845 230 795H132L273 905H387L500 795Z" glyph-name="Jcircumflex" horiz-adv-x="374" unicode="&#308;" /><glyph d="M242 330 173 258 143 0H31L123 750H235L191 402L504 750H642L325 418L575 0H433Z" glyph-name="K" horiz-adv-x="623" unicode="K" /><glyph d="M242 330 173 258 143 0H31L123 750H235L191 402L504 750H642L325 418L575 0H433ZM339 -50 250 -250H161L206 -50Z" glyph-name="Kcommaaccent" horiz-adv-x="623" unicode="&#310;" /><glyph d="M155 103H481L469 0H31L123 750H235Z" glyph-name="L" horiz-adv-x="524" unicode="L" /><glyph d="M155 103H481L469 0H31L123 750H235ZM138 795 210 905H345L232 795Z" glyph-name="Lacute" horiz-adv-x="524" unicode="&#313;" /><glyph d="M155 103H481L469 0H31L123 750H235ZM410 750 337 550H281L322 750Z" glyph-name="Lcaron" horiz-adv-x="524" unicode="&#317;" /><glyph d="M155 103H481L469 0H31L123 750H235ZM315 -50 226 -250H137L182 -50Z" glyph-name="Lcommaaccent" horiz-adv-x="524" unicode="&#315;" /><glyph d="M155 103H481L469 0H31L123 750H235ZM323 376Q323 406 344.5 427.5Q366 449 396 449Q426 449 447.5 427.5Q469 406 469 376Q469 346 447.5 324.5Q426 303 396 303Q366 303 344.5 324.5Q323 346 323 376Z" glyph-name="Ldot" horiz-adv-x="524" unicode="&#319;" /><glyph d="M227 406 432 512 421 421 216 315 190 103H516L504 0H66L97 253L-1 203L11 294L108 344L158 750H270Z" glyph-name="Lslash" horiz-adv-x="560" unicode="&#321;" /><glyph d="M443 103H337L207 564L143 0H31L123 750H267L407 239L673 750H817L725 0H613L687 564Z" glyph-name="M" horiz-adv-x="816" unicode="M" /><glyph d="M465 0 204 533 142 0H31L123 750H225L485 217L548 750H659L567 0Z" glyph-name="N" horiz-adv-x="658" unicode="N" /><glyph d="M465 0 204 533 142 0H31L123 750H225L485 217L548 750H659L567 0ZM349 795 421 905H556L443 795Z" glyph-name="Nacute" horiz-adv-x="658" unicode="&#323;" /><glyph d="M465 0 204 533 142 0H31L123 750H225L485 217L548 750H659L567 0ZM324 905 403 855 496 905H594L453 795H339L226 905Z" glyph-name="Ncaron" horiz-adv-x="658" unicode="&#327;" /><glyph d="M465 0 204 533 142 0H31L123 750H225L485 217L548 750H659L567 0ZM363 -50 274 -250H185L230 -50Z" glyph-name="Ncommaaccent" horiz-adv-x="658" unicode="&#325;" /><glyph d="M465 0 204 533 142 0H31L123 750H225L485 217L548 750H659L567 0ZM608 905Q600 842 566.5 809.5Q533 777 473 777Q446 777 425.5 787Q405 797 388 808.5Q371 820 355 830Q339 840 320 840Q306 840 296.5 836Q287 832 281.5 825Q276 818 273 810Q270 802 269 795H198Q206 858 239.5 890.5Q273 923 333 923Q360 923 380.5 913Q401 903 418 891.5Q435 880 451 870Q467 860 486 860Q514 860 524.5 875Q535 890 537 905Z" glyph-name="Ntilde" horiz-adv-x="658" unicode="&#209;" /><glyph d="M308 -12Q218 -12 165 18.5Q112 49 87 102Q62 155 59.5 225Q57 295 67 375Q77 454 96.5 524.5Q116 595 154 648Q192 701 252.5 731.5Q313 762 403 762Q493 762 546 731.5Q599 701 624 648Q649 595 652 524.5Q655 454 645 375Q635 295 615 225Q595 155 557 102Q519 49 458.5 18.5Q398 -12 308 -12ZM391 660Q338 660 301.5 640.5Q265 621 241 584Q217 547 203.5 494.5Q190 442 182 375Q174 308 174.5 255Q175 202 190 165.5Q205 129 236.5 109.5Q268 90 321 90Q374 90 410.5 109.5Q447 129 470.5 165.5Q494 202 508 255Q522 308 530 375Q538 442 537 494.5Q536 547 521.5 584Q507 621 475.5 640.5Q444 660 391 660Z" glyph-name="O" horiz-adv-x="680" unicode="O" /><glyph d="M877 337H580L551 103H880L868 0H336Q243 0 185 28.5Q127 57 96.5 107.5Q66 158 60 226.5Q54 295 64 375Q74 455 97 523.5Q120 592 162.5 642.5Q205 693 270 721.5Q335 750 428 750H960L947 647H618L593 440H890ZM506 647H412Q356 647 315.5 627.5Q275 608 247.5 572Q220 536 204 486Q188 436 181 375Q173 314 177 264Q181 214 199.5 178Q218 142 253.5 122.5Q289 103 345 103H439Z" glyph-name="OE" horiz-adv-x="946" unicode="&#338;" /><glyph d="M308 -12Q218 -12 165 18.5Q112 49 87 102Q62 155 59.5 225Q57 295 67 375Q77 454 96.5 524.5Q116 595 154 648Q192 701 252.5 731.5Q313 762 403 762Q493 762 546 731.5Q599 701 624 648Q649 595 652 524.5Q655 454 645 375Q635 295 615 225Q595 155 557 102Q519 49 458.5 18.5Q398 -12 308 -12ZM391 660Q338 660 301.5 640.5Q265 621 241 584Q217 547 203.5 494.5Q190 442 182 375Q174 308 174.5 255Q175 202 190 165.5Q205 129 236.5 109.5Q268 90 321 90Q374 90 410.5 109.5Q447 129 470.5 165.5Q494 202 508 255Q522 308 530 375Q538 442 537 494.5Q536 547 521.5 584Q507 621 475.5 640.5Q444 660 391 660ZM360 795 432 905H567L454 795Z" glyph-name="Oacute" horiz-adv-x="680" unicode="&#211;" /><glyph d="M308 -12Q218 -12 165 18.5Q112 49 87 102Q62 155 59.5 225Q57 295 67 375Q77 454 96.5 524.5Q116 595 154 648Q192 701 252.5 731.5Q313 762 403 762Q493 762 546 731.5Q599 701 624 648Q649 595 652 524.5Q655 454 645 375Q635 295 615 225Q595 155 557 102Q519 49 458.5 18.5Q398 -12 308 -12ZM391 660Q338 660 301.5 640.5Q265 621 241 584Q217 547 203.5 494.5Q190 442 182 375Q174 308 174.5 255Q175 202 190 165.5Q205 129 236.5 109.5Q268 90 321 90Q374 90 410.5 109.5Q447 129 470.5 165.5Q494 202 508 255Q522 308 530 375Q538 442 537 494.5Q536 547 521.5 584Q507 621 475.5 640.5Q444 660 391 660ZM416 777Q324 777 291.5 806.5Q259 836 270 905H355Q350 873 367 861.5Q384 850 425 850Q466 850 485.5 861.5Q505 873 509 905H594Q591 870 580 846Q569 822 548 806.5Q527 791 494.5 784Q462 777 416 777Z" glyph-name="Obreve" horiz-adv-x="680" unicode="&#334;" /><glyph d="M308 -12Q218 -12 165 18.5Q112 49 87 102Q62 155 59.5 225Q57 295 67 375Q77 454 96.5 524.5Q116 595 154 648Q192 701 252.5 731.5Q313 762 403 762Q493 762 546 731.5Q599 701 624 648Q649 595 652 524.5Q655 454 645 375Q635 295 615 225Q595 155 557 102Q519 49 458.5 18.5Q398 -12 308 -12ZM391 660Q338 660 301.5 640.5Q265 621 241 584Q217 547 203.5 494.5Q190 442 182 375Q174 308 174.5 255Q175 202 190 165.5Q205 129 236.5 109.5Q268 90 321 90Q374 90 410.5 109.5Q447 129 470.5 165.5Q494 202 508 255Q522 308 530 375Q538 442 537 494.5Q536 547 521.5 584Q507 621 475.5 640.5Q444 660 391 660ZM493 795 413 845 321 795H223L364 905H478L591 795Z" glyph-name="Ocircumflex" horiz-adv-x="680" unicode="&#212;" /><glyph d="M308 -12Q218 -12 165 18.5Q112 49 87 102Q62 155 59.5 225Q57 295 67 375Q77 454 96.5 524.5Q116 595 154 648Q192 701 252.5 731.5Q313 762 403 762Q493 762 546 731.5Q599 701 624 648Q649 595 652 524.5Q655 454 645 375Q635 295 615 225Q595 155 557 102Q519 49 458.5 18.5Q398 -12 308 -12ZM391 660Q338 660 301.5 640.5Q265 621 241 584Q217 547 203.5 494.5Q190 442 182 375Q174 308 174.5 255Q175 202 190 165.5Q205 129 236.5 109.5Q268 90 321 90Q374 90 410.5 109.5Q447 129 470.5 165.5Q494 202 508 255Q522 308 530 375Q538 442 537 494.5Q536 547 521.5 584Q507 621 475.5 640.5Q444 660 391 660ZM235 850Q235 880 256.5 901.5Q278 923 308 923Q338 923 359.5 901.5Q381 880 381 850Q381 820 359.5 798.5Q338 777 308 777Q278 777 256.5 798.5Q235 820 235 850ZM447 850Q447 880 468.5 901.5Q490 923 520 923Q550 923 571.5 901.5Q593 880 593 850Q593 820 571.5 798.5Q550 777 520 777Q490 777 468.5 798.5Q447 820 447 850Z" glyph-name="Odieresis" horiz-adv-x="680" unicode="&#214;" /><glyph d="M308 -12Q218 -12 165 18.5Q112 49 87 102Q62 155 59.5 225Q57 295 67 375Q77 454 96.5 524.5Q116 595 154 648Q192 701 252.5 731.5Q313 762 403 762Q493 762 546 731.5Q599 701 624 648Q649 595 652 524.5Q655 454 645 375Q635 295 615 225Q595 155 557 102Q519 49 458.5 18.5Q398 -12 308 -12ZM391 660Q338 660 301.5 640.5Q265 621 241 584Q217 547 203.5 494.5Q190 442 182 375Q174 308 174.5 255Q175 202 190 165.5Q205 129 236.5 109.5Q268 90 321 90Q374 90 410.5 109.5Q447 129 470.5 165.5Q494 202 508 255Q522 308 530 375Q538 442 537 494.5Q536 547 521.5 584Q507 621 475.5 640.5Q444 660 391 660ZM360 795 275 905H410L454 795Z" glyph-name="Ograve" horiz-adv-x="680" unicode="&#210;" /><glyph d="M308 -12Q218 -12 165 18.5Q112 49 87 102Q62 155 59.5 225Q57 295 67 375Q77 454 96.5 524.5Q116 595 154 648Q192 701 252.5 731.5Q313 762 403 762Q493 762 546 731.5Q599 701 624 648Q649 595 652 524.5Q655 454 645 375Q635 295 615 225Q595 155 557 102Q519 49 458.5 18.5Q398 -12 308 -12ZM391 660Q338 660 301.5 640.5Q265 621 241 584Q217 547 203.5 494.5Q190 442 182 375Q174 308 174.5 255Q175 202 190 165.5Q205 129 236.5 109.5Q268 90 321 90Q374 90 410.5 109.5Q447 129 470.5 165.5Q494 202 508 255Q522 308 530 375Q538 442 537 494.5Q536 547 521.5 584Q507 621 475.5 640.5Q444 660 391 660ZM445 795 517 905H652L539 795ZM275 795 347 905H482L369 795Z" glyph-name="Ohungarumlaut" horiz-adv-x="680" unicode="&#336;" /><glyph d="M308 -12Q218 -12 165 18.5Q112 49 87 102Q62 155 59.5 225Q57 295 67 375Q77 454 96.5 524.5Q116 595 154 648Q192 701 252.5 731.5Q313 762 403 762Q493 762 546 731.5Q599 701 624 648Q649 595 652 524.5Q655 454 645 375Q635 295 615 225Q595 155 557 102Q519 49 458.5 18.5Q398 -12 308 -12ZM391 660Q338 660 301.5 640.5Q265 621 241 584Q217 547 203.5 494.5Q190 442 182 375Q174 308 174.5 255Q175 202 190 165.5Q205 129 236.5 109.5Q268 90 321 90Q374 90 410.5 109.5Q447 129 470.5 165.5Q494 202 508 255Q522 308 530 375Q538 442 537 494.5Q536 547 521.5 584Q507 621 475.5 640.5Q444 660 391 660ZM273 894H565L554 805H262Z" glyph-name="Omacron" horiz-adv-x="680" unicode="&#332;" /><glyph d="M308 -12Q253 -12 213 -1Q173 10 144 31L122 0H40L98 80Q64 134 60 210.5Q56 287 67 375Q77 454 96.5 524.5Q116 595 154 648Q192 701 252.5 731.5Q313 762 403 762Q457 762 497 750.5Q537 739 566 718L590 750H672L613 669Q646 615 651 539Q656 463 645 375Q635 295 615 225Q595 155 557 102Q519 49 458.5 18.5Q398 -12 308 -12ZM530 375Q537 430 537.5 475.5Q538 521 530 556L214 126Q248 90 321 90Q374 90 410.5 109.5Q447 129 470.5 165.5Q494 202 508 255Q522 308 530 375ZM391 660Q338 660 301.5 640.5Q265 621 241 584Q217 547 203.5 494.5Q190 442 182 375Q174 319 173.5 273.5Q173 228 181 193L496 623Q479 641 453.5 650.5Q428 660 391 660Z" glyph-name="Oslash" horiz-adv-x="680" unicode="&#216;" /><glyph d="M308 -12Q218 -12 165 18.5Q112 49 87 102Q62 155 59.5 225Q57 295 67 375Q77 454 96.5 524.5Q116 595 154 648Q192 701 252.5 731.5Q313 762 403 762Q493 762 546 731.5Q599 701 624 648Q649 595 652 524.5Q655 454 645 375Q635 295 615 225Q595 155 557 102Q519 49 458.5 18.5Q398 -12 308 -12ZM391 660Q338 660 301.5 640.5Q265 621 241 584Q217 547 203.5 494.5Q190 442 182 375Q174 308 174.5 255Q175 202 190 165.5Q205 129 236.5 109.5Q268 90 321 90Q374 90 410.5 109.5Q447 129 470.5 165.5Q494 202 508 255Q522 308 530 375Q538 442 537 494.5Q536 547 521.5 584Q507 621 475.5 640.5Q444 660 391 660ZM619 905Q611 842 577.5 809.5Q544 777 484 777Q457 777 436.5 787Q416 797 399 808.5Q382 820 366 830Q350 840 331 840Q317 840 307.5 836Q298 832 292.5 825Q287 818 284 810Q281 802 280 795H209Q217 858 250.5 890.5Q284 923 344 923Q371 923 391.5 913Q412 903 429 891.5Q446 880 462 870Q478 860 497 860Q525 860 535.5 875Q546 890 548 905Z" glyph-name="Otilde" horiz-adv-x="680" unicode="&#213;" /><glyph d="M143 0H31L123 750H364Q436 750 483.5 730.5Q531 711 557.5 678.5Q584 646 592.5 603.5Q601 561 595 515Q589 469 570.5 426.5Q552 384 517.5 352Q483 320 430.5 300.5Q378 281 306 281H177ZM190 383H324Q366 383 393.5 395.5Q421 408 438 427.5Q455 447 462.5 470.5Q470 494 473 515Q476 536 473.5 559Q471 582 459 601.5Q447 621 422.5 634Q398 647 356 647H222Z" glyph-name="P" horiz-adv-x="580" unicode="P" /><glyph d="M443 20 671 -28 657 -142 208 0Q152 18 119.5 53Q87 88 72.5 137Q58 186 58 246.5Q58 307 67 375Q77 458 97 529Q117 600 155.5 651.5Q194 703 253.5 732.5Q313 762 403 762Q493 762 546 732.5Q599 703 624.5 651.5Q650 600 652.5 529Q655 458 645 375Q637 311 624 254.5Q611 198 588 152Q565 106 530 72.5Q495 39 443 21ZM391 660Q338 660 301.5 640.5Q265 621 241 584Q217 547 203.5 494.5Q190 442 182 375Q174 308 174.5 255Q175 202 190 165.5Q205 129 236.5 109.5Q268 90 321 90Q374 90 410.5 109.5Q447 129 470.5 165.5Q494 202 508 255Q522 308 530 375Q538 442 537 494.5Q536 547 521.5 584Q507 621 475.5 640.5Q444 660 391 660Z" glyph-name="Q" horiz-adv-x="680" unicode="Q" /><glyph d="M143 0H31L123 750H367Q440 750 487 734.5Q534 719 560 689.5Q586 660 593.5 619Q601 578 595 527Q586 454 553.5 402.5Q521 351 449 327L566 0H435L336 305H180ZM192 407H340Q379 407 403.5 417Q428 427 442.5 444Q457 461 463.5 482.5Q470 504 473 527Q476 550 475 572Q474 594 463.5 610.5Q453 627 431 637Q409 647 370 647H222Z" glyph-name="R" horiz-adv-x="621" unicode="R" /><glyph d="M143 0H31L123 750H367Q440 750 487 734.5Q534 719 560 689.5Q586 660 593.5 619Q601 578 595 527Q586 454 553.5 402.5Q521 351 449 327L566 0H435L336 305H180ZM192 407H340Q379 407 403.5 417Q428 427 442.5 444Q457 461 463.5 482.5Q470 504 473 527Q476 550 475 572Q474 594 463.5 610.5Q453 627 431 637Q409 647 370 647H222ZM310 795 382 905H517L404 795Z" glyph-name="Racute" horiz-adv-x="621" unicode="&#340;" /><glyph d="M143 0H31L123 750H367Q440 750 487 734.5Q534 719 560 689.5Q586 660 593.5 619Q601 578 595 527Q586 454 553.5 402.5Q521 351 449 327L566 0H435L336 305H180ZM192 407H340Q379 407 403.5 417Q428 427 442.5 444Q457 461 463.5 482.5Q470 504 473 527Q476 550 475 572Q474 594 463.5 610.5Q453 627 431 637Q409 647 370 647H222ZM285 905 364 855 457 905H555L414 795H300L187 905Z" glyph-name="Rcaron" horiz-adv-x="621" unicode="&#344;" /><glyph d="M143 0H31L123 750H367Q440 750 487 734.5Q534 719 560 689.5Q586 660 593.5 619Q601 578 595 527Q586 454 553.5 402.5Q521 351 449 327L566 0H435L336 305H180ZM192 407H340Q379 407 403.5 417Q428 427 442.5 444Q457 461 463.5 482.5Q470 504 473 527Q476 550 475 572Q474 594 463.5 610.5Q453 627 431 637Q409 647 370 647H222ZM348 -50 259 -250H170L215 -50Z" glyph-name="Rcommaaccent" horiz-adv-x="621" unicode="&#342;" /><glyph d="M328 436Q385 428 429.5 416Q474 404 503 381Q532 358 544 321Q556 284 549 227Q543 174 521 130Q499 86 461 54.5Q423 23 366.5 5.5Q310 -12 235 -12Q207 -12 176.5 -9Q146 -6 116.5 -0.5Q87 5 61.5 13Q36 21 18 31L32 143Q47 136 67 127.5Q87 119 113 111.5Q139 104 171 99Q203 94 241 94Q292 94 326.5 103.5Q361 113 383.5 130Q406 147 417.5 170Q429 193 432 220Q436 251 431 271Q426 291 411.5 304Q397 317 372 324Q347 331 310 336Q242 345 196 359.5Q150 374 122 398Q94 422 84.5 458Q75 494 81 545Q86 586 104 625Q122 664 156.5 694.5Q191 725 244 743.5Q297 762 374 762Q447 762 496.5 751Q546 740 573 726L559 617Q520 635 471.5 645.5Q423 656 367 656Q323 656 292 647.5Q261 639 240.5 624Q220 609 209.5 588.5Q199 568 196 544Q192 514 198.5 495Q205 476 221.5 464.5Q238 453 265 447Q292 441 328 436Z" glyph-name="S" horiz-adv-x="595" unicode="S" /><glyph d="M328 436Q385 428 429.5 416Q474 404 503 381Q532 358 544 321Q556 284 549 227Q543 174 521 130Q499 86 461 54.5Q423 23 366.5 5.5Q310 -12 235 -12Q207 -12 176.5 -9Q146 -6 116.5 -0.5Q87 5 61.5 13Q36 21 18 31L32 143Q47 136 67 127.5Q87 119 113 111.5Q139 104 171 99Q203 94 241 94Q292 94 326.5 103.5Q361 113 383.5 130Q406 147 417.5 170Q429 193 432 220Q436 251 431 271Q426 291 411.5 304Q397 317 372 324Q347 331 310 336Q242 345 196 359.5Q150 374 122 398Q94 422 84.5 458Q75 494 81 545Q86 586 104 625Q122 664 156.5 694.5Q191 725 244 743.5Q297 762 374 762Q447 762 496.5 751Q546 740 573 726L559 617Q520 635 471.5 645.5Q423 656 367 656Q323 656 292 647.5Q261 639 240.5 624Q220 609 209.5 588.5Q199 568 196 544Q192 514 198.5 495Q205 476 221.5 464.5Q238 453 265 447Q292 441 328 436ZM323 795 395 905H530L417 795Z" glyph-name="Sacute" horiz-adv-x="595" unicode="&#346;" /><glyph d="M328 436Q385 428 429.5 416Q474 404 503 381Q532 358 544 321Q556 284 549 227Q543 174 521 130Q499 86 461 54.5Q423 23 366.5 5.5Q310 -12 235 -12Q207 -12 176.5 -9Q146 -6 116.5 -0.5Q87 5 61.5 13Q36 21 18 31L32 143Q47 136 67 127.5Q87 119 113 111.5Q139 104 171 99Q203 94 241 94Q292 94 326.5 103.5Q361 113 383.5 130Q406 147 417.5 170Q429 193 432 220Q436 251 431 271Q426 291 411.5 304Q397 317 372 324Q347 331 310 336Q242 345 196 359.5Q150 374 122 398Q94 422 84.5 458Q75 494 81 545Q86 586 104 625Q122 664 156.5 694.5Q191 725 244 743.5Q297 762 374 762Q447 762 496.5 751Q546 740 573 726L559 617Q520 635 471.5 645.5Q423 656 367 656Q323 656 292 647.5Q261 639 240.5 624Q220 609 209.5 588.5Q199 568 196 544Q192 514 198.5 495Q205 476 221.5 464.5Q238 453 265 447Q292 441 328 436ZM481 995H576L420 795H306L200 995H295L374 882Z" glyph-name="Scaron" horiz-adv-x="595" unicode="&#352;" /><glyph d="M218 -12Q191 -11 162.5 -7.5Q134 -4 107.5 1.5Q81 7 57.5 14.5Q34 22 18 31L32 143Q47 136 67 127.5Q87 119 113 111.5Q139 104 171 99Q203 94 241 94Q292 94 326.5 103.5Q361 113 383.5 130Q406 147 417.5 170Q429 193 432 220Q436 251 431 271Q426 291 411.5 304Q397 317 372 324Q347 331 310 336Q242 345 196 359.5Q150 374 122 398Q94 422 84.5 458Q75 494 81 545Q86 586 104 625Q122 664 156.5 694.5Q191 725 244 743.5Q297 762 374 762Q447 762 496.5 751Q546 740 573 726L559 617Q520 635 471.5 645.5Q423 656 367 656Q323 656 292 647.5Q261 639 240.5 624Q220 609 209.5 588.5Q199 568 196 544Q192 514 198.5 495Q205 476 221.5 464.5Q238 453 265 447Q292 441 328 436Q385 428 429.5 416Q474 404 503 381Q532 358 544 321Q556 284 549 227Q543 177 524 135.5Q505 94 471 63Q437 32 388 12.5Q339 -7 273 -11L271 -60Q290 -65 306 -72Q322 -79 333 -90.5Q344 -102 349.5 -117Q355 -132 353 -153Q347 -201 311 -225.5Q275 -250 222 -250Q185 -250 161 -243Q137 -236 127 -231L136 -155Q144 -158 165.5 -165.5Q187 -173 216 -173Q242 -173 257 -166.5Q272 -160 274 -143Q277 -120 258.5 -109.5Q240 -99 199 -94Z" glyph-name="Scedilla" horiz-adv-x="595" unicode="&#350;" /><glyph d="M328 436Q385 428 429.5 416Q474 404 503 381Q532 358 544 321Q556 284 549 227Q543 174 521 130Q499 86 461 54.5Q423 23 366.5 5.5Q310 -12 235 -12Q207 -12 176.5 -9Q146 -6 116.5 -0.5Q87 5 61.5 13Q36 21 18 31L32 143Q47 136 67 127.5Q87 119 113 111.5Q139 104 171 99Q203 94 241 94Q292 94 326.5 103.5Q361 113 383.5 130Q406 147 417.5 170Q429 193 432 220Q436 251 431 271Q426 291 411.5 304Q397 317 372 324Q347 331 310 336Q242 345 196 359.5Q150 374 122 398Q94 422 84.5 458Q75 494 81 545Q86 586 104 625Q122 664 156.5 694.5Q191 725 244 743.5Q297 762 374 762Q447 762 496.5 751Q546 740 573 726L559 617Q520 635 471.5 645.5Q423 656 367 656Q323 656 292 647.5Q261 639 240.5 624Q220 609 209.5 588.5Q199 568 196 544Q192 514 198.5 495Q205 476 221.5 464.5Q238 453 265 447Q292 441 328 436ZM456 795 376 845 284 795H186L327 905H441L554 795Z" glyph-name="Scircumflex" horiz-adv-x="595" unicode="&#348;" /><glyph d="M328 436Q385 428 429.5 416Q474 404 503 381Q532 358 544 321Q556 284 549 227Q543 174 521 130Q499 86 461 54.5Q423 23 366.5 5.5Q310 -12 235 -12Q207 -12 176.5 -9Q146 -6 116.5 -0.5Q87 5 61.5 13Q36 21 18 31L32 143Q47 136 67 127.5Q87 119 113 111.5Q139 104 171 99Q203 94 241 94Q292 94 326.5 103.5Q361 113 383.5 130Q406 147 417.5 170Q429 193 432 220Q436 251 431 271Q426 291 411.5 304Q397 317 372 324Q347 331 310 336Q242 345 196 359.5Q150 374 122 398Q94 422 84.5 458Q75 494 81 545Q86 586 104 625Q122 664 156.5 694.5Q191 725 244 743.5Q297 762 374 762Q447 762 496.5 751Q546 740 573 726L559 617Q520 635 471.5 645.5Q423 656 367 656Q323 656 292 647.5Q261 639 240.5 624Q220 609 209.5 588.5Q199 568 196 544Q192 514 198.5 495Q205 476 221.5 464.5Q238 453 265 447Q292 441 328 436ZM318 -50 229 -250H140L185 -50Z" glyph-name="Scommaaccent" horiz-adv-x="595" unicode="&#536;" /><glyph d="M383 647 304 0H192L271 647H76L89 750H591L578 647Z" glyph-name="T" horiz-adv-x="556" unicode="T" /><glyph d="M383 647 357 433H470L459 344H346L304 0H192L234 344H121L132 433H245L271 647H76L89 750H591L578 647Z" glyph-name="Tbar" horiz-adv-x="556" unicode="&#358;" /><glyph d="M383 647 304 0H192L271 647H76L89 750H591L578 647ZM273 905 352 855 445 905H543L402 795H288L175 905Z" glyph-name="Tcaron" horiz-adv-x="556" unicode="&#356;" /><glyph d="M383 647 304 0H192L271 647H76L89 750H591L578 647ZM307 -50 218 -250H129L174 -50Z" glyph-name="Tcommaaccent" horiz-adv-x="556" unicode="&#354;" /><glyph d="M143 0H31L123 750H235L217 610H346Q418 610 465.5 590.5Q513 571 540 538.5Q567 506 575.5 463.5Q584 421 578 375Q572 329 553 286.5Q534 244 499.5 212Q465 180 413 160.5Q361 141 289 141H160ZM172 243H306Q348 243 375.5 255.5Q403 268 420 287.5Q437 307 445 330.5Q453 354 456 375Q458 396 456 419Q454 442 442 461.5Q430 481 405.5 494Q381 507 339 507H205Z" glyph-name="Thorn" horiz-adv-x="590" unicode="&#222;" /><glyph d="M296 -12Q258 -12 212 -3Q166 6 127.5 33Q89 60 67 108.5Q45 157 54 236L118 750H230L168 246Q161 193 173.5 162Q186 131 208.5 115Q231 99 258.5 94.5Q286 90 309 90Q332 90 360.5 94.5Q389 99 415 115Q441 131 461 162Q481 193 488 246L550 750H662L598 236Q592 184 574 145Q556 106 531 78.5Q506 51 476 33.5Q446 16 414.5 6Q383 -4 352 -8Q321 -12 296 -12Z" glyph-name="U" horiz-adv-x="656" unicode="U" /><glyph d="M296 -12Q258 -12 212 -3Q166 6 127.5 33Q89 60 67 108.5Q45 157 54 236L118 750H230L168 246Q161 193 173.5 162Q186 131 208.5 115Q231 99 258.5 94.5Q286 90 309 90Q332 90 360.5 94.5Q389 99 415 115Q441 131 461 162Q481 193 488 246L550 750H662L598 236Q592 184 574 145Q556 106 531 78.5Q506 51 476 33.5Q446 16 414.5 6Q383 -4 352 -8Q321 -12 296 -12ZM348 795 420 905H555L442 795Z" glyph-name="Uacute" horiz-adv-x="656" unicode="&#218;" /><glyph d="M296 -12Q258 -12 212 -3Q166 6 127.5 33Q89 60 67 108.5Q45 157 54 236L118 750H230L168 246Q161 193 173.5 162Q186 131 208.5 115Q231 99 258.5 94.5Q286 90 309 90Q332 90 360.5 94.5Q389 99 415 115Q441 131 461 162Q481 193 488 246L550 750H662L598 236Q592 184 574 145Q556 106 531 78.5Q506 51 476 33.5Q446 16 414.5 6Q383 -4 352 -8Q321 -12 296 -12ZM404 777Q312 777 279.5 806.5Q247 836 258 905H343Q338 873 355 861.5Q372 850 413 850Q454 850 473.5 861.5Q493 873 497 905H582Q579 870 568 846Q557 822 536 806.5Q515 791 482.5 784Q450 777 404 777Z" glyph-name="Ubreve" horiz-adv-x="656" unicode="&#364;" /><glyph d="M296 -12Q258 -12 212 -3Q166 6 127.5 33Q89 60 67 108.5Q45 157 54 236L118 750H230L168 246Q161 193 173.5 162Q186 131 208.5 115Q231 99 258.5 94.5Q286 90 309 90Q332 90 360.5 94.5Q389 99 415 115Q441 131 461 162Q481 193 488 246L550 750H662L598 236Q592 184 574 145Q556 106 531 78.5Q506 51 476 33.5Q446 16 414.5 6Q383 -4 352 -8Q321 -12 296 -12ZM481 795 401 845 309 795H211L352 905H466L579 795Z" glyph-name="Ucircumflex" horiz-adv-x="656" unicode="&#219;" /><glyph d="M296 -12Q258 -12 212 -3Q166 6 127.5 33Q89 60 67 108.5Q45 157 54 236L118 750H230L168 246Q161 193 173.5 162Q186 131 208.5 115Q231 99 258.5 94.5Q286 90 309 90Q332 90 360.5 94.5Q389 99 415 115Q441 131 461 162Q481 193 488 246L550 750H662L598 236Q592 184 574 145Q556 106 531 78.5Q506 51 476 33.5Q446 16 414.5 6Q383 -4 352 -8Q321 -12 296 -12ZM223 850Q223 880 244.5 901.5Q266 923 296 923Q326 923 347.5 901.5Q369 880 369 850Q369 820 347.5 798.5Q326 777 296 777Q266 777 244.5 798.5Q223 820 223 850ZM435 850Q435 880 456.5 901.5Q478 923 508 923Q538 923 559.5 901.5Q581 880 581 850Q581 820 559.5 798.5Q538 777 508 777Q478 777 456.5 798.5Q435 820 435 850Z" glyph-name="Udieresis" horiz-adv-x="656" unicode="&#220;" /><glyph d="M296 -12Q258 -12 212 -3Q166 6 127.5 33Q89 60 67 108.5Q45 157 54 236L118 750H230L168 246Q161 193 173.5 162Q186 131 208.5 115Q231 99 258.5 94.5Q286 90 309 90Q332 90 360.5 94.5Q389 99 415 115Q441 131 461 162Q481 193 488 246L550 750H662L598 236Q592 184 574 145Q556 106 531 78.5Q506 51 476 33.5Q446 16 414.5 6Q383 -4 352 -8Q321 -12 296 -12ZM348 795 263 905H398L442 795Z" glyph-name="Ugrave" horiz-adv-x="656" unicode="&#217;" /><glyph d="M296 -12Q258 -12 212 -3Q166 6 127.5 33Q89 60 67 108.5Q45 157 54 236L118 750H230L168 246Q161 193 173.5 162Q186 131 208.5 115Q231 99 258.5 94.5Q286 90 309 90Q332 90 360.5 94.5Q389 99 415 115Q441 131 461 162Q481 193 488 246L550 750H662L598 236Q592 184 574 145Q556 106 531 78.5Q506 51 476 33.5Q446 16 414.5 6Q383 -4 352 -8Q321 -12 296 -12ZM433 795 505 905H640L527 795ZM263 795 335 905H470L357 795Z" glyph-name="Uhungarumlaut" horiz-adv-x="656" unicode="&#368;" /><glyph d="M296 -12Q258 -12 212 -3Q166 6 127.5 33Q89 60 67 108.5Q45 157 54 236L118 750H230L168 246Q161 193 173.5 162Q186 131 208.5 115Q231 99 258.5 94.5Q286 90 309 90Q332 90 360.5 94.5Q389 99 415 115Q441 131 461 162Q481 193 488 246L550 750H662L598 236Q592 184 574 145Q556 106 531 78.5Q506 51 476 33.5Q446 16 414.5 6Q383 -4 352 -8Q321 -12 296 -12ZM261 894H553L542 805H250Z" glyph-name="Umacron" horiz-adv-x="656" unicode="&#362;" /><glyph d="M598 236Q591 179 571 138.5Q551 98 523 70Q495 42 461.5 25.5Q428 9 395 0Q373 -9 352 -21.5Q331 -34 314.5 -49Q298 -64 287 -83Q276 -102 273 -125Q270 -148 283 -162Q296 -176 323 -176Q344 -176 361 -173Q378 -170 387 -167L379 -235Q366 -240 345 -245Q324 -250 292 -250Q267 -250 245.5 -243Q224 -236 208.5 -222.5Q193 -209 186 -188.5Q179 -168 182 -141Q186 -111 205 -77Q224 -43 268 -11Q230 -8 188.5 3.5Q147 15 114.5 43Q82 71 63.5 117.5Q45 164 54 236L118 750H230L168 246Q161 193 173.5 162Q186 131 208.5 115Q231 99 258.5 94.5Q286 90 309 90Q332 90 360.5 94.5Q389 99 415 115Q441 131 461 162Q481 193 488 246L550 750H662L598 236Z" glyph-name="Uogonek" horiz-adv-x="656" unicode="&#370;" /><glyph d="M296 -12Q258 -12 212 -3Q166 6 127.5 33Q89 60 67 108.5Q45 157 54 236L118 750H230L168 246Q161 193 173.5 162Q186 131 208.5 115Q231 99 258.5 94.5Q286 90 309 90Q332 90 360.5 94.5Q389 99 415 115Q441 131 461 162Q481 193 488 246L550 750H662L598 236Q592 184 574 145Q556 106 531 78.5Q506 51 476 33.5Q446 16 414.5 6Q383 -4 352 -8Q321 -12 296 -12ZM304 850Q310 897 341 914.5Q372 932 414 932Q456 932 483 914.5Q510 897 504 850Q498 803 467 785.5Q436 768 394 768Q352 768 325 785.5Q298 803 304 850ZM438 850Q440 867 406 867Q372 867 370 850Q368 833 402 833Q436 833 438 850Z" glyph-name="Uring" horiz-adv-x="656" unicode="&#366;" /><glyph d="M296 -12Q258 -12 212 -3Q166 6 127.5 33Q89 60 67 108.5Q45 157 54 236L118 750H230L168 246Q161 193 173.5 162Q186 131 208.5 115Q231 99 258.5 94.5Q286 90 309 90Q332 90 360.5 94.5Q389 99 415 115Q441 131 461 162Q481 193 488 246L550 750H662L598 236Q592 184 574 145Q556 106 531 78.5Q506 51 476 33.5Q446 16 414.5 6Q383 -4 352 -8Q321 -12 296 -12ZM607 905Q599 842 565.5 809.5Q532 777 472 777Q445 777 424.5 787Q404 797 387 808.5Q370 820 354 830Q338 840 319 840Q305 840 295.5 836Q286 832 280.5 825Q275 818 272 810Q269 802 268 795H197Q205 858 238.5 890.5Q272 923 332 923Q359 923 379.5 913Q400 903 417 891.5Q434 880 450 870Q466 860 485 860Q513 860 523.5 875Q534 890 536 905Z" glyph-name="Utilde" horiz-adv-x="656" unicode="&#360;" /><glyph d="M677 750 345 -9H231L87 750H209L307 140L555 750Z" glyph-name="V" horiz-adv-x="640" unicode="V" /><glyph d="M434 750H574L628 159L799 750H918L683 -9H546L487 616L274 -9H137L90 750H209L234 159Z" glyph-name="W" horiz-adv-x="884" unicode="W" /><glyph d="M434 750H574L628 159L799 750H918L683 -9H546L487 616L274 -9H137L90 750H209L234 159ZM462 795 534 905H669L556 795Z" glyph-name="Wacute" horiz-adv-x="884" unicode="&#7810;" /><glyph d="M434 750H574L628 159L799 750H918L683 -9H546L487 616L274 -9H137L90 750H209L234 159ZM595 795 515 845 423 795H325L466 905H580L693 795Z" glyph-name="Wcircumflex" horiz-adv-x="884" unicode="&#372;" /><glyph d="M434 750H574L628 159L799 750H918L683 -9H546L487 616L274 -9H137L90 750H209L234 159ZM337 850Q337 880 358.5 901.5Q380 923 410 923Q440 923 461.5 901.5Q483 880 483 850Q483 820 461.5 798.5Q440 777 410 777Q380 777 358.5 798.5Q337 820 337 850ZM549 850Q549 880 570.5 901.5Q592 923 622 923Q652 923 673.5 901.5Q695 880 695 850Q695 820 673.5 798.5Q652 777 622 777Q592 777 570.5 798.5Q549 820 549 850Z" glyph-name="Wdieresis" horiz-adv-x="884" unicode="&#7812;" /><glyph d="M434 750H574L628 159L799 750H918L683 -9H546L487 616L274 -9H137L90 750H209L234 159ZM462 795 377 905H512L556 795Z" glyph-name="Wgrave" horiz-adv-x="884" unicode="&#7808;" /><glyph d="M542 750H675L412 384L592 0H456L325 302L120 0H-16L258 384L85 750H218L343 451Z" glyph-name="X" horiz-adv-x="653" unicode="X" /><glyph d="M398 301 362 0H248L284 301L85 750H212L354 400L582 750H709Z" glyph-name="Y" horiz-adv-x="670" unicode="Y" /><glyph d="M398 301 362 0H248L284 301L85 750H212L354 400L582 750H709ZM355 795 427 905H562L449 795Z" glyph-name="Yacute" horiz-adv-x="670" unicode="&#221;" /><glyph d="M398 301 362 0H248L284 301L85 750H212L354 400L582 750H709ZM488 795 408 845 316 795H218L359 905H473L586 795Z" glyph-name="Ycircumflex" horiz-adv-x="670" unicode="&#374;" /><glyph d="M398 301 362 0H248L284 301L85 750H212L354 400L582 750H709ZM230 850Q230 880 251.5 901.5Q273 923 303 923Q333 923 354.5 901.5Q376 880 376 850Q376 820 354.5 798.5Q333 777 303 777Q273 777 251.5 798.5Q230 820 230 850ZM442 850Q442 880 463.5 901.5Q485 923 515 923Q545 923 566.5 901.5Q588 880 588 850Q588 820 566.5 798.5Q545 777 515 777Q485 777 463.5 798.5Q442 820 442 850Z" glyph-name="Ydieresis" horiz-adv-x="670" unicode="&#376;" /><glyph d="M0 0 9 75 463 644 103 642 117 750H627L617 675L164 106L563 108L550 0Z" glyph-name="Z" horiz-adv-x="610" unicode="Z" /><glyph d="M0 0 9 75 463 644 103 642 117 750H627L617 675L164 106L563 108L550 0ZM328 795 400 905H535L422 795Z" glyph-name="Zacute" horiz-adv-x="610" unicode="&#377;" /><glyph d="M0 0 9 75 463 644 103 642 117 750H627L617 675L164 106L563 108L550 0ZM303 905 382 855 475 905H573L432 795H318L205 905Z" glyph-name="Zcaron" horiz-adv-x="610" unicode="&#142;" /><glyph d="M0 0 9 75 463 644 103 642 117 750H627L617 675L164 106L563 108L550 0ZM309 850Q309 880 330.5 901.5Q352 923 382 923Q412 923 433.5 901.5Q455 880 455 850Q455 820 433.5 798.5Q412 777 382 777Q352 777 330.5 798.5Q309 820 309 850Z" glyph-name="Zdotaccent" horiz-adv-x="610" unicode="&#379;" /><glyph d="M392 388Q378 396 353 406.5Q328 417 288 417Q251 417 227.5 404Q204 391 189 368.5Q174 346 166 315.5Q158 285 154 250Q150 215 150 184.5Q150 154 159.5 131.5Q169 109 189.5 96Q210 83 247 83Q287 83 314.5 93.5Q342 104 358 112ZM457 0H391L377 40Q341 16 300.5 2Q260 -12 209 -12Q154 -12 118 6Q82 24 62.5 57.5Q43 91 38 139.5Q33 188 41 250Q48 311 65 360Q82 409 110 442.5Q138 476 178 494Q218 512 273 512Q324 512 361.5 498Q399 484 429 460L452 500H518Z" glyph-name="a" horiz-adv-x="542" unicode="a" /><glyph d="M392 388Q378 396 353 406.5Q328 417 288 417Q251 417 227.5 404Q204 391 189 368.5Q174 346 166 315.5Q158 285 154 250Q150 215 150 184.5Q150 154 159.5 131.5Q169 109 189.5 96Q210 83 247 83Q287 83 314.5 93.5Q342 104 358 112ZM457 0H391L377 40Q341 16 300.5 2Q260 -12 209 -12Q154 -12 118 6Q82 24 62.5 57.5Q43 91 38 139.5Q33 188 41 250Q48 311 65 360Q82 409 110 442.5Q138 476 178 494Q218 512 273 512Q324 512 361.5 498Q399 484 429 460L452 500H518ZM254 550 337 750H472L348 550Z" glyph-name="aacute" horiz-adv-x="542" unicode="&#225;" /><glyph d="M392 388Q378 396 353 406.5Q328 417 288 417Q251 417 227.5 404Q204 391 189 368.5Q174 346 166 315.5Q158 285 154 250Q150 215 150 184.5Q150 154 159.5 131.5Q169 109 189.5 96Q210 83 247 83Q287 83 314.5 93.5Q342 104 358 112ZM457 0H391L377 40Q341 16 300.5 2Q260 -12 209 -12Q154 -12 118 6Q82 24 62.5 57.5Q43 91 38 139.5Q33 188 41 250Q48 311 65 360Q82 409 110 442.5Q138 476 178 494Q218 512 273 512Q324 512 361.5 498Q399 484 429 460L452 500H518ZM301 550Q251 550 218 561Q185 572 166.5 596Q148 620 142.5 658Q137 696 143 750H220Q213 693 233 666Q253 639 312 639Q371 639 397.5 666Q424 693 432 750H509Q501 696 486.5 658Q472 620 447 596Q422 572 386 561Q350 550 301 550Z" glyph-name="abreve" horiz-adv-x="542" unicode="&#259;" /><glyph d="M392 388Q378 396 353 406.5Q328 417 288 417Q251 417 227.5 404Q204 391 189 368.5Q174 346 166 315.5Q158 285 154 250Q150 215 150 184.5Q150 154 159.5 131.5Q169 109 189.5 96Q210 83 247 83Q287 83 314.5 93.5Q342 104 358 112ZM457 0H391L377 40Q341 16 300.5 2Q260 -12 209 -12Q154 -12 118 6Q82 24 62.5 57.5Q43 91 38 139.5Q33 188 41 250Q48 311 65 360Q82 409 110 442.5Q138 476 178 494Q218 512 273 512Q324 512 361.5 498Q399 484 429 460L452 500H518ZM315 663 208 550H113L269 750H383L489 550H394Z" glyph-name="acircumflex" horiz-adv-x="542" unicode="&#226;" /><glyph d="M253 550 336 750H471L347 550Z" glyph-name="acute" horiz-adv-x="526" unicode="&#180;" /><glyph d="M283 795 355 905H490L377 795Z" glyph-name="acute.cap" horiz-adv-x="526" unicode="&#58402;" /><glyph d="M392 388Q378 396 353 406.5Q328 417 288 417Q251 417 227.5 404Q204 391 189 368.5Q174 346 166 315.5Q158 285 154 250Q150 215 150 184.5Q150 154 159.5 131.5Q169 109 189.5 96Q210 83 247 83Q287 83 314.5 93.5Q342 104 358 112ZM457 0H391L377 40Q341 16 300.5 2Q260 -12 209 -12Q154 -12 118 6Q82 24 62.5 57.5Q43 91 38 139.5Q33 188 41 250Q48 311 65 360Q82 409 110 442.5Q138 476 178 494Q218 512 273 512Q324 512 361.5 498Q399 484 429 460L452 500H518ZM346 648Q346 678 367.5 699.5Q389 721 419 721Q449 721 470.5 699.5Q492 678 492 648Q492 618 470.5 596.5Q449 575 419 575Q389 575 367.5 596.5Q346 618 346 648ZM134 648Q134 678 155.5 699.5Q177 721 207 721Q237 721 258.5 699.5Q280 678 280 648Q280 618 258.5 596.5Q237 575 207 575Q177 575 155.5 596.5Q134 618 134 648Z" glyph-name="adieresis" horiz-adv-x="542" unicode="&#228;" /><glyph d="M228 212Q180 212 159.5 194Q139 176 135 146Q132 117 144.5 98.5Q157 80 204 80Q273 80 332 126Q328 143 326.5 163Q325 183 328 212ZM588 512Q643 512 680 500Q717 488 739 467Q761 446 768.5 417.5Q776 389 772 357Q768 325 754 297.5Q740 270 713 250.5Q686 231 646 220Q606 209 551 209H440Q437 181 440.5 158Q444 135 457 119Q470 103 494 94Q518 85 556 85Q604 85 644 93Q684 101 719 115L707 19Q662 1 615 -5.5Q568 -12 527 -12Q467 -12 427.5 4Q388 20 365 50Q318 15 270.5 1.5Q223 -12 177 -12Q129 -12 97.5 1Q66 14 48.5 35.5Q31 57 25.5 85Q20 113 24 142Q34 221 85.5 255.5Q137 290 228 290H337L344 345Q349 383 331 399.5Q313 416 255 416Q207 416 166 406.5Q125 397 95 386L107 483Q138 496 183.5 504Q229 512 274 512Q336 512 374 499Q412 486 430 463Q462 491 504 501.5Q546 512 588 512ZM559 287Q604 287 631 302Q658 317 663 351Q667 385 643 400Q619 415 574 415Q543 415 521.5 405.5Q500 396 486 379Q472 362 463.5 338.5Q455 315 450 287Z" glyph-name="ae" horiz-adv-x="801" unicode="&#230;" /><glyph d="M392 388Q378 396 353 406.5Q328 417 288 417Q251 417 227.5 404Q204 391 189 368.5Q174 346 166 315.5Q158 285 154 250Q150 215 150 184.5Q150 154 159.5 131.5Q169 109 189.5 96Q210 83 247 83Q287 83 314.5 93.5Q342 104 358 112ZM457 0H391L377 40Q341 16 300.5 2Q260 -12 209 -12Q154 -12 118 6Q82 24 62.5 57.5Q43 91 38 139.5Q33 188 41 250Q48 311 65 360Q82 409 110 442.5Q138 476 178 494Q218 512 273 512Q324 512 361.5 498Q399 484 429 460L452 500H518ZM254 550 180 750H315L348 550Z" glyph-name="agrave" horiz-adv-x="542" unicode="&#224;" /><glyph d="M392 388Q378 396 353 406.5Q328 417 288 417Q251 417 227.5 404Q204 391 189 368.5Q174 346 166 315.5Q158 285 154 250Q150 215 150 184.5Q150 154 159.5 131.5Q169 109 189.5 96Q210 83 247 83Q287 83 314.5 93.5Q342 104 358 112ZM457 0H391L377 40Q341 16 300.5 2Q260 -12 209 -12Q154 -12 118 6Q82 24 62.5 57.5Q43 91 38 139.5Q33 188 41 250Q48 311 65 360Q82 409 110 442.5Q138 476 178 494Q218 512 273 512Q324 512 361.5 498Q399 484 429 460L452 500H518ZM173 694H465L454 605H162Z" glyph-name="amacron" horiz-adv-x="542" unicode="&#257;" /><glyph d="M752 293H669Q669 218 644 161Q619 104 574.5 65.5Q530 27 468 7.5Q406 -12 332 -12Q265 -12 210 4.5Q155 21 116 54Q77 87 55.5 136.5Q34 186 34 251Q34 342 63.5 409.5Q93 477 143.5 521.5Q194 566 261 587.5Q328 609 403 609Q411 609 419 609Q427 609 435 608Q446 643 452 679Q458 715 460 750H576Q571 648 539 555Q507 462 453 387Q399 312 326 259.5Q253 207 165 185Q186 137 231.5 114.5Q277 92 337 92Q382 92 421 102.5Q460 113 489.5 137Q519 161 535.5 199Q552 237 552 293H481L494 393H765ZM153 291Q237 315 296 372.5Q355 430 392 502Q289 502 229.5 451.5Q170 401 153 291Z" glyph-name="ampersand" horiz-adv-x="768" unicode="&amp;" /><glyph d="M457 0Q435 -9 414 -21.5Q393 -34 376.5 -49Q360 -64 349 -83Q338 -102 335 -125Q332 -148 345 -162Q358 -176 385 -176Q406 -176 423 -173Q440 -170 449 -167L441 -235Q428 -240 407 -245Q386 -250 354 -250Q329 -250 307.5 -243Q286 -236 270.5 -222.5Q255 -209 248 -188.5Q241 -168 244 -141Q246 -122 254.5 -101.5Q263 -81 279 -60Q295 -39 320.5 -18.5Q346 2 383 21L377 40Q341 16 300.5 2Q260 -12 209 -12Q154 -12 118 6Q82 24 62.5 57.5Q43 91 38 139.5Q33 188 41 250Q48 311 65 360Q82 409 110 442.5Q138 476 178 494Q218 512 273 512Q324 512 361.5 498Q399 484 429 460L452 500H518ZM392 388Q378 396 353 406.5Q328 417 288 417Q251 417 227.5 404Q204 391 189 368.5Q174 346 166 315.5Q158 285 154 250Q150 215 150 184.5Q150 154 159.5 131.5Q169 109 189.5 96Q210 83 247 83Q287 83 314.5 93.5Q342 104 358 112Z" glyph-name="aogonek" horiz-adv-x="542" unicode="&#261;" /><glyph d="M443 440Q481 440 511 454Q541 468 552 479L539 371Q525 359 495.5 348Q466 337 429 337Q388 337 360 348Q332 359 307.5 372.5Q283 386 258.5 397.5Q234 409 200 409Q182 409 164.5 404.5Q147 400 132.5 394Q118 388 107 381.5Q96 375 91 370L104 478Q118 490 147.5 501Q177 512 214 512Q254 512 282.5 500.5Q311 489 335.5 475.5Q360 462 385 451Q410 440 443 440ZM422 272Q460 272 490.5 286Q521 300 532 311L518 203Q504 191 474.5 180Q445 169 408 169Q367 169 339 180Q311 191 286.5 204.5Q262 218 237.5 229.5Q213 241 179 241Q161 241 143.5 236.5Q126 232 111.5 226Q97 220 86 213.5Q75 207 70 202L84 310Q98 322 127.5 333Q157 344 194 344Q234 344 262 332.5Q290 321 314.5 307.5Q339 294 364 283Q389 272 422 272Z" glyph-name="approxequal" horiz-adv-x="600" unicode="&#8776;" /><glyph d="M392 388Q378 396 353 406.5Q328 417 288 417Q251 417 227.5 404Q204 391 189 368.5Q174 346 166 315.5Q158 285 154 250Q150 215 150 184.5Q150 154 159.5 131.5Q169 109 189.5 96Q210 83 247 83Q287 83 314.5 93.5Q342 104 358 112ZM457 0H391L377 40Q341 16 300.5 2Q260 -12 209 -12Q154 -12 118 6Q82 24 62.5 57.5Q43 91 38 139.5Q33 188 41 250Q48 311 65 360Q82 409 110 442.5Q138 476 178 494Q218 512 273 512Q324 512 361.5 498Q399 484 429 460L452 500H518ZM418 650Q412 597 380 572Q348 547 301 547Q255 547 228.5 572Q202 597 208 650Q215 703 247.5 728Q280 753 326 753Q373 753 399 728Q425 703 418 650ZM275 650Q273 630 282.5 621.5Q292 613 309 613Q326 613 338 621.5Q350 630 352 650Q355 670 345 678.5Q335 687 318 687Q301 687 289.5 678.5Q278 670 275 650Z" glyph-name="aring" horiz-adv-x="542" unicode="&#229;" /><glyph d="M331 642 147 375H32L300 762H392L566 375H451Z" glyph-name="asciicircum" horiz-adv-x="566" unicode="^" /><glyph d="M355 354Q374 354 391 358.5Q408 363 422.5 369Q437 375 447 382Q457 389 463 394L450 286Q436 274 407.5 263Q379 252 344 252Q306 252 283 263.5Q260 275 241.5 288.5Q223 302 204.5 313.5Q186 325 157 325Q138 325 121 320.5Q104 316 89.5 310Q75 304 65 297Q55 290 49 285L63 393Q77 405 105 416Q133 427 168 427Q206 427 229 415.5Q252 404 270.5 390.5Q289 377 307.5 365.5Q326 354 355 354Z" glyph-name="asciitilde" horiz-adv-x="490" unicode="~" /><glyph d="M342 607 480 671 507 539 362 514 450 411 327 330 276 457 193 330 90 411 203 514 65 539 124 671 245 607 243 750H381Z" glyph-name="asterisk" horiz-adv-x="500" unicode="*" /><glyph d="M589 50 576 90Q548 67 505.5 52Q463 37 419 37Q379 37 346 50Q313 63 290.5 89Q268 115 258 155.5Q248 196 255 250Q262 304 281.5 344.5Q301 385 330 411Q359 437 395 450Q431 463 471 463Q515 463 554 448Q593 433 615 410L638 450H704L664 125Q706 125 734 140Q762 155 780 181Q798 207 807.5 240.5Q817 274 822 312Q838 445 766 504.5Q694 564 525 564Q355 564 262.5 489.5Q170 415 150 250Q130 84 204 10Q278 -64 448 -64Q483 -64 523.5 -61Q564 -58 604 -52Q644 -46 679 -37.5Q714 -29 739 -19L729 -99Q703 -108 668 -115.5Q633 -123 594 -129Q555 -135 514.5 -138Q474 -141 438 -141Q232 -141 136 -44.5Q40 52 64 250Q88 448 208 544.5Q328 641 534 641Q739 641 832 558Q925 475 905 309Q900 266 885 220.5Q870 175 840.5 137Q811 99 764.5 74.5Q718 50 651 50ZM367 250Q359 187 381 160Q403 133 451 133Q487 133 513.5 142.5Q540 152 556 160L578 340Q564 348 540 357.5Q516 367 480 367Q432 367 403.5 340Q375 313 367 250Z" glyph-name="at" horiz-adv-x="962" unicode="@" /><glyph d="M392 388Q378 396 353 406.5Q328 417 288 417Q251 417 227.5 404Q204 391 189 368.5Q174 346 166 315.5Q158 285 154 250Q150 215 150 184.5Q150 154 159.5 131.5Q169 109 189.5 96Q210 83 247 83Q287 83 314.5 93.5Q342 104 358 112ZM457 0H391L377 40Q341 16 300.5 2Q260 -12 209 -12Q154 -12 118 6Q82 24 62.5 57.5Q43 91 38 139.5Q33 188 41 250Q48 311 65 360Q82 409 110 442.5Q138 476 178 494Q218 512 273 512Q324 512 361.5 498Q399 484 429 460L452 500H518ZM523 707Q519 677 509.5 651Q500 625 483.5 606.5Q467 588 442.5 577.5Q418 567 384 567Q351 567 330.5 578.5Q310 590 295 604Q280 618 266 629.5Q252 641 232 641Q200 641 190 623.5Q180 606 178 587H103Q107 617 116.5 643Q126 669 142.5 687.5Q159 706 183.5 716.5Q208 727 242 727Q275 727 295.5 715.5Q316 704 331 690Q346 676 360 664.5Q374 653 394 653Q426 653 436 670.5Q446 688 448 707Z" glyph-name="atilde" horiz-adv-x="542" unicode="&#227;" /><glyph d="M333 512Q388 512 424 494Q460 476 479.5 442Q499 408 503.5 359.5Q508 311 501 250Q493 188 476.5 139.5Q460 91 432 57.5Q404 24 364 6Q324 -12 269 -12Q218 -12 180.5 2Q143 16 113 40L91 0H25L117 750H229L195 473Q224 490 259.5 501Q295 512 333 512ZM296 417Q256 417 228 406.5Q200 396 184 388L150 112Q164 104 189.5 93.5Q215 83 255 83Q292 83 315.5 96Q339 109 354 131.5Q369 154 376.5 184.5Q384 215 388 250Q392 284 392 314.5Q392 345 383 368Q374 391 353.5 404Q333 417 296 417Z" glyph-name="b" horiz-adv-x="542" unicode="b" /><glyph d="M290 -200 68 800H186L408 -200Z" glyph-name="backslash" horiz-adv-x="463" unicode="\" /><glyph d="M22 -200 145 800H257L134 -200Z" glyph-name="bar" horiz-adv-x="266" unicode="|" /><glyph d="M43 357Q85 357 88 396L108 707Q113 765 150 790.5Q187 816 240 816H288L275 712H260Q216 712 213 673L195 381Q193 358 182 338Q171 318 152 305Q168 292 174.5 272Q181 252 177 229L123 -63Q120 -82 128.5 -92Q137 -102 160 -102H175L162 -206H114Q88 -206 66.5 -200Q45 -194 30.5 -180.5Q16 -167 10.5 -146.5Q5 -126 10 -97L66 214Q72 252 34 253H19L31 357Z" glyph-name="braceleft" horiz-adv-x="248" unicode="{" /><glyph d="M243 357 231 253H216Q195 252 185.5 242Q176 232 174 214L154 -97Q149 -155 112.5 -180.5Q76 -206 23 -206H-26L-13 -102H2Q46 -102 49 -63L67 229Q69 252 81 273Q93 294 112 305Q96 316 88.5 337Q81 358 85 381L139 673Q142 692 133.5 702Q125 712 102 712H87L100 816H149Q175 816 196.5 810Q218 804 232 790.5Q246 777 251.5 756.5Q257 736 252 707L196 396Q190 357 231 357Z" glyph-name="braceright" horiz-adv-x="248" unicode="}" /><glyph d="M131 -102H195L182 -206H9L135 816H308L295 712H231Z" glyph-name="bracketleft" horiz-adv-x="268" unicode="[" /><glyph d="M151 712H87L100 816H273L147 -206H-26L-13 -102H51Z" glyph-name="bracketright" horiz-adv-x="268" unicode="]" /><glyph d="M300 550Q250 550 217 561Q184 572 165.5 596Q147 620 141.5 658Q136 696 142 750H219Q212 693 232 666Q252 639 311 639Q370 639 396.5 666Q423 693 431 750H508Q500 696 485.5 658Q471 620 446 596Q421 572 385 561Q349 550 300 550Z" glyph-name="breve" horiz-adv-x="526" unicode="&#728;" /><glyph d="M328 777Q236 777 203.5 806.5Q171 836 182 905H267Q262 873 279 861.5Q296 850 337 850Q378 850 397.5 861.5Q417 873 421 905H506Q503 870 492 846Q481 822 460 806.5Q439 791 406.5 784Q374 777 328 777Z" glyph-name="breve.cap" horiz-adv-x="526" unicode="&#58406;" /><glyph d="M71 375Q71 403 81.5 428Q92 453 111 472Q130 491 154.5 501.5Q179 512 208 512Q236 512 261 501.5Q286 491 305 472Q324 453 334.5 428Q345 403 345 375Q345 346 334.5 321.5Q324 297 305 278Q286 259 261 248.5Q236 238 208 238Q179 238 154.5 248.5Q130 259 111 278Q92 297 81.5 321.5Q71 346 71 375Z" glyph-name="bullet" horiz-adv-x="384" unicode="&#8226;" /><glyph d="M154 250Q149 214 151.5 184Q154 154 165.5 132.5Q177 111 200 99Q223 87 259 87Q303 87 333.5 93Q364 99 393 110L381 13Q350 0 314.5 -6Q279 -12 240 -12Q174 -12 131.5 7Q89 26 66.5 60.5Q44 95 39 143Q34 191 41 250Q48 308 65 356.5Q82 405 113 439.5Q144 474 191 493Q238 512 304 512Q343 512 377 506Q411 500 439 487L427 390Q401 401 372 407Q343 413 299 413Q263 413 237.5 401Q212 389 195 367.5Q178 346 168 316Q158 286 154 250Z" glyph-name="c" horiz-adv-x="450" unicode="c" /><glyph d="M154 250Q149 214 151.5 184Q154 154 165.5 132.5Q177 111 200 99Q223 87 259 87Q303 87 333.5 93Q364 99 393 110L381 13Q350 0 314.5 -6Q279 -12 240 -12Q174 -12 131.5 7Q89 26 66.5 60.5Q44 95 39 143Q34 191 41 250Q48 308 65 356.5Q82 405 113 439.5Q144 474 191 493Q238 512 304 512Q343 512 377 506Q411 500 439 487L427 390Q401 401 372 407Q343 413 299 413Q263 413 237.5 401Q212 389 195 367.5Q178 346 168 316Q158 286 154 250ZM248 550 331 750H466L342 550Z" glyph-name="cacute" horiz-adv-x="450" unicode="&#263;" /><glyph d="M418 750H513L357 550H243L137 750H232L311 637Z" glyph-name="caron" horiz-adv-x="526" unicode="&#711;" /><glyph d="M258 905 337 855 430 905H528L387 795H273L160 905Z" glyph-name="caron.cap" horiz-adv-x="526" unicode="&#58413;" /><glyph d="M479 750 406 550H350L391 750Z" glyph-name="caronSlovak" horiz-adv-x="526" unicode="&#58387;" /><glyph d="M154 250Q149 214 151.5 184Q154 154 165.5 132.5Q177 111 200 99Q223 87 259 87Q303 87 333.5 93Q364 99 393 110L381 13Q350 0 314.5 -6Q279 -12 240 -12Q174 -12 131.5 7Q89 26 66.5 60.5Q44 95 39 143Q34 191 41 250Q48 308 65 356.5Q82 405 113 439.5Q144 474 191 493Q238 512 304 512Q343 512 377 506Q411 500 439 487L427 390Q401 401 372 407Q343 413 299 413Q263 413 237.5 401Q212 389 195 367.5Q178 346 168 316Q158 286 154 250ZM413 750H508L352 550H238L132 750H227L306 637Z" glyph-name="ccaron" horiz-adv-x="450" unicode="&#269;" /><glyph d="M154 250Q149 214 151.5 184Q154 154 165.5 132.5Q177 111 200 99Q223 87 259 87Q303 87 333.5 93Q364 99 393 110L381 13Q324 -10 248 -12L245 -60Q264 -65 280 -72Q296 -79 307 -90.5Q318 -102 323.5 -117Q329 -132 327 -153Q321 -201 285 -225.5Q249 -250 196 -250Q159 -250 135 -243Q111 -236 101 -231L110 -155Q118 -158 139.5 -165.5Q161 -173 190 -173Q216 -173 231 -166.5Q246 -160 248 -143Q251 -120 232.5 -109.5Q214 -99 173 -94L192 -9Q141 -2 108.5 19.5Q76 41 59 74.5Q42 108 38.5 152.5Q35 197 41 250Q48 308 65 356.5Q82 405 113 439.5Q144 474 191 493Q238 512 304 512Q343 512 377 506Q411 500 439 487L427 390Q401 401 372 407Q343 413 299 413Q263 413 237.5 401Q212 389 195 367.5Q178 346 168 316Q158 286 154 250Z" glyph-name="ccedilla" horiz-adv-x="450" unicode="&#231;" /><glyph d="M154 250Q149 214 151.5 184Q154 154 165.5 132.5Q177 111 200 99Q223 87 259 87Q303 87 333.5 93Q364 99 393 110L381 13Q350 0 314.5 -6Q279 -12 240 -12Q174 -12 131.5 7Q89 26 66.5 60.5Q44 95 39 143Q34 191 41 250Q48 308 65 356.5Q82 405 113 439.5Q144 474 191 493Q238 512 304 512Q343 512 377 506Q411 500 439 487L427 390Q401 401 372 407Q343 413 299 413Q263 413 237.5 401Q212 389 195 367.5Q178 346 168 316Q158 286 154 250ZM314 663 207 550H112L268 750H382L488 550H393Z" glyph-name="ccircumflex" horiz-adv-x="450" unicode="&#265;" /><glyph d="M154 250Q149 214 151.5 184Q154 154 165.5 132.5Q177 111 200 99Q223 87 259 87Q303 87 333.5 93Q364 99 393 110L381 13Q350 0 314.5 -6Q279 -12 240 -12Q174 -12 131.5 7Q89 26 66.5 60.5Q44 95 39 143Q34 191 41 250Q48 308 65 356.5Q82 405 113 439.5Q144 474 191 493Q238 512 304 512Q343 512 377 506Q411 500 439 487L427 390Q401 401 372 407Q343 413 299 413Q263 413 237.5 401Q212 389 195 367.5Q178 346 168 316Q158 286 154 250ZM234 648Q234 678 255.5 699.5Q277 721 307 721Q337 721 358.5 699.5Q380 678 380 648Q380 618 358.5 596.5Q337 575 307 575Q277 575 255.5 596.5Q234 618 234 648Z" glyph-name="cdotaccent" horiz-adv-x="450" unicode="&#267;" /><glyph d="M191 0H245L241 -60Q260 -65 276 -72Q292 -79 303 -90.5Q314 -102 319.5 -117Q325 -132 323 -153Q317 -201 281 -225.5Q245 -250 192 -250Q155 -250 131 -243Q107 -236 97 -231L106 -155Q114 -158 135.5 -165.5Q157 -173 186 -173Q212 -173 227 -166.5Q242 -160 244 -143Q247 -120 228.5 -109.5Q210 -99 169 -94Z" glyph-name="cedilla" horiz-adv-x="526" unicode="&#184;" /><glyph d="M63 375Q78 501 145.5 568Q213 635 336 637L389 750H484L424 630Q445 626 464 621Q483 616 498 609L486 510Q462 519 426.5 527.5Q391 536 343 536Q263 536 223.5 494.5Q184 453 175 375Q165 297 194.5 255.5Q224 214 304 214Q352 214 389 222.5Q426 231 453 240L441 141Q409 128 364.5 120.5Q320 113 275 113H255L203 0H108L170 130Q104 156 77.5 217.5Q51 279 63 375Z" glyph-name="cent" horiz-adv-x="600" unicode="&#162;" /><glyph d="M314 663 207 550H112L268 750H382L488 550H393Z" glyph-name="circumflex" horiz-adv-x="526" unicode="&#710;" /><glyph d="M416 795 336 845 244 795H146L287 905H401L514 795Z" glyph-name="circumflex.cap" horiz-adv-x="526" unicode="&#58403;" /><glyph d="M14 61Q14 91 35.5 112.5Q57 134 87 134Q117 134 138.5 112.5Q160 91 160 61Q160 31 138.5 9.5Q117 -12 87 -12Q57 -12 35.5 9.5Q14 31 14 61ZM53 375Q53 405 74.5 426.5Q96 448 126 448Q156 448 177.5 426.5Q199 405 199 375Q199 345 177.5 323.5Q156 302 126 302Q96 302 74.5 323.5Q53 345 53 375Z" glyph-name="colon" horiz-adv-x="217" unicode=":" /><glyph d="M157 106 50 -125H-29L28 106Z" glyph-name="comma" horiz-adv-x="220" unicode="," /><glyph d="M297 -50 208 -250H119L164 -50Z" glyph-name="commaaccent" horiz-adv-x="526" unicode="&#58388;" /><glyph d="M352 -50 263 -250H174L219 -50Z" glyph-name="commaaccent.cap" horiz-adv-x="526" /><glyph d="M363 -12Q295 -12 236.5 5.5Q178 23 137 61.5Q96 100 77 161.5Q58 223 69 312Q80 401 114.5 463Q149 525 199 563.5Q249 602 312 619.5Q375 637 443 637Q512 637 570.5 619.5Q629 602 670.5 563.5Q712 525 731 463Q750 401 739 312Q728 223 693.5 161.5Q659 100 608.5 61.5Q558 23 495 5.5Q432 -12 363 -12ZM374 64Q426 64 474 77.5Q522 91 560.5 120.5Q599 150 625.5 197Q652 244 660 312Q668 380 653.5 427.5Q639 475 607.5 504.5Q576 534 531.5 547.5Q487 561 435 561Q382 561 334 547.5Q286 534 247.5 504.5Q209 475 182.5 427.5Q156 380 148 312Q140 244 154.5 197Q169 150 200.5 120.5Q232 91 276.5 77.5Q321 64 374 64ZM230 312Q242 409 296.5 452Q351 495 433 495Q466 495 493 491.5Q520 488 543 478L533 397Q516 403 493 407Q470 411 434 411Q390 411 361.5 388Q333 365 327 312Q320 259 343 236Q366 213 410 213Q446 213 469.5 217Q493 221 512 227L502 146Q477 136 449 132.5Q421 129 388 129Q347 129 315 139.5Q283 150 262 172Q241 194 232.5 229Q224 264 230 312Z" glyph-name="copyright" horiz-adv-x="792" unicode="&#169;" /><glyph d="M273 512Q311 512 344 501Q377 490 403 473L437 750H549L457 0H391L377 40Q341 16 300.5 2Q260 -12 209 -12Q154 -12 118 6Q82 24 62.5 57.5Q43 91 38 139.5Q33 188 41 250Q48 311 65 359.5Q82 408 110 442Q138 476 178 494Q218 512 273 512ZM288 417Q251 417 227 404Q203 391 188 368Q173 345 165.5 314.5Q158 284 154 250Q150 215 150 184.5Q150 154 159.5 131.5Q169 109 189.5 96Q210 83 247 83Q287 83 314.5 93.5Q342 104 358 112L392 388Q378 396 353 406.5Q328 417 288 417Z" glyph-name="d" horiz-adv-x="542" unicode="d" /><glyph d="M336 585 504 609 487 471 325 494 330 250H170L234 494L67 471L84 609L245 585L243 750H381Z" glyph-name="dagger" horiz-adv-x="500" unicode="&#8224;" /><glyph d="M306 335 474 359 457 221 294 244 298 80H297L300 0H140L160 80L203 244L37 221L54 359L215 335L213 415L234 494L67 471L84 609L245 585L243 750H381L336 585L504 609L487 471L325 494L327 415Z" glyph-name="daggerdbl" horiz-adv-x="500" unicode="&#8225;" /><glyph d="M273 512Q311 512 344 501Q377 490 403 473L437 750H549L457 0H391L377 40Q341 16 300.5 2Q260 -12 209 -12Q154 -12 118 6Q82 24 62.5 57.5Q43 91 38 139.5Q33 188 41 250Q48 311 65 359.5Q82 408 110 442Q138 476 178 494Q218 512 273 512ZM288 417Q251 417 227 404Q203 391 188 368Q173 345 165.5 314.5Q158 284 154 250Q150 215 150 184.5Q150 154 159.5 131.5Q169 109 189.5 96Q210 83 247 83Q287 83 314.5 93.5Q342 104 358 112L392 388Q378 396 353 406.5Q328 417 288 417ZM698 750 625 550H569L610 750Z" glyph-name="dcaron" horiz-adv-x="552" unicode="&#271;" /><glyph d="M616 577H527L457 0H391L377 40Q341 16 300.5 2Q260 -12 209 -12Q154 -12 118 6Q82 24 62.5 57.5Q43 91 38 139.5Q33 188 41 250Q48 311 65 359.5Q82 408 110 442Q138 476 178 494Q218 512 273 512Q311 512 344 501Q377 490 403 473L415 577H293L304 661H426L437 750H549L538 661H627ZM288 417Q251 417 227 404Q203 391 188 368Q173 345 165.5 314.5Q158 284 154 250Q150 215 150 184.5Q150 154 159.5 131.5Q169 109 189.5 96Q210 83 247 83Q287 83 314.5 93.5Q342 104 358 112L392 388Q378 396 353 406.5Q328 417 288 417Z" glyph-name="dcroat" horiz-adv-x="542" unicode="&#273;" /><glyph d="M386 617Q376 539 330 505.5Q284 472 216 472Q183 472 156 480Q129 488 111 505.5Q93 523 85 550.5Q77 578 82 617Q92 695 138.5 728.5Q185 762 252 762Q286 762 313 754Q340 746 358 728.5Q376 711 383.5 683.5Q391 656 386 617ZM174 617Q167 558 227 558Q287 558 294 617Q301 676 242 676Q181 676 174 617Z" glyph-name="degree" horiz-adv-x="378" unicode="&#176;" /><glyph d="M345 648Q345 678 366.5 699.5Q388 721 418 721Q448 721 469.5 699.5Q491 678 491 648Q491 618 469.5 596.5Q448 575 418 575Q388 575 366.5 596.5Q345 618 345 648ZM133 648Q133 678 154.5 699.5Q176 721 206 721Q236 721 257.5 699.5Q279 678 279 648Q279 618 257.5 596.5Q236 575 206 575Q176 575 154.5 596.5Q133 618 133 648Z" glyph-name="dieresis" horiz-adv-x="526" unicode="&#168;" /><glyph d="M158 850Q158 880 179.5 901.5Q201 923 231 923Q261 923 282.5 901.5Q304 880 304 850Q304 820 282.5 798.5Q261 777 231 777Q201 777 179.5 798.5Q158 820 158 850ZM370 850Q370 880 391.5 901.5Q413 923 443 923Q473 923 494.5 901.5Q516 880 516 850Q516 820 494.5 798.5Q473 777 443 777Q413 777 391.5 798.5Q370 820 370 850Z" glyph-name="dieresis.cap" horiz-adv-x="526" unicode="&#58409;" /><glyph d="M94 394H542L529 287H81ZM217 170Q217 200 238.5 221.5Q260 243 290 243Q320 243 341.5 221.5Q363 200 363 170Q363 140 341.5 118.5Q320 97 290 97Q260 97 238.5 118.5Q217 140 217 170ZM260 516Q260 546 281.5 567.5Q303 589 333 589Q363 589 384.5 567.5Q406 546 406 516Q406 486 384.5 464.5Q363 443 333 443Q303 443 281.5 464.5Q260 486 260 516Z" glyph-name="divide" horiz-adv-x="600" unicode="&#247;" /><glyph d="M41 -125 94 4Q72 9 53 16Q34 23 20 31L34 143Q51 135 76.5 124.5Q102 114 136 106L237 349Q145 369 108.5 413.5Q72 458 83 545Q88 586 106 625Q124 664 158.5 694.5Q193 725 246 743.5Q299 762 376 762Q384 762 392 762Q400 762 408 761L455 875H553L501 750Q525 745 543 739Q561 733 575 726L561 617Q538 627 513 635Q488 643 459 648L369 430Q417 422 454 408.5Q491 395 514.5 372Q538 349 547.5 314Q557 279 551 227Q545 174 523 130Q501 86 463 54.5Q425 23 368.5 5.5Q312 -12 237 -12Q211 -12 186 -9L139 -125ZM434 220Q437 249 433.5 268.5Q430 288 417.5 301Q405 314 383 321Q361 328 329 333L229 94H243Q294 94 328.5 103.5Q363 113 385.5 130Q408 147 419.5 170Q431 193 434 220ZM198 544Q192 496 211.5 475Q231 454 276 444L364 656Q279 654 241.5 623Q204 592 198 544Z" glyph-name="dollar" horiz-adv-x="600" unicode="$" /><glyph d="M239 648Q239 678 260.5 699.5Q282 721 312 721Q342 721 363.5 699.5Q385 678 385 648Q385 618 363.5 596.5Q342 575 312 575Q282 575 260.5 596.5Q239 618 239 648Z" glyph-name="dotaccent" horiz-adv-x="526" unicode="&#729;" /><glyph d="M264 850Q264 880 285.5 901.5Q307 923 337 923Q367 923 388.5 901.5Q410 880 410 850Q410 820 388.5 798.5Q367 777 337 777Q307 777 285.5 798.5Q264 820 264 850Z" glyph-name="dotaccent.cap" horiz-adv-x="526" unicode="&#58408;" /><glyph d="M166 -7Q97 -7 69.5 25.5Q42 58 50 123L96 500H208L162 124Q159 103 167 94.5Q175 86 199 86L188 -5Q185 -6 181 -6Q177 -7 166 -7Z" glyph-name="dotlessi" horiz-adv-x="257" unicode="&#305;" /><glyph d="M-100 -158Q-47 -158 -12.5 -131.5Q22 -105 27 -58L96 500H208L137 -80Q131 -126 107 -160.5Q83 -195 47.5 -217.5Q12 -240 -30 -251Q-72 -262 -113 -262Z" glyph-name="dotlessj" horiz-adv-x="242" unicode="&#567;" /><glyph d="M368 795 283 905H418L462 795ZM198 795 113 905H248L292 795Z" glyph-name="doublegrave.cap" horiz-adv-x="526" unicode="&#58412;" /><glyph d="M268 287Q313 287 340 302Q367 317 372 351Q376 385 352 400Q328 415 283 415Q252 415 230.5 405.5Q209 396 195 379Q181 362 172.5 338.5Q164 315 159 287ZM149 209Q146 181 149.5 158Q153 135 166 119Q179 103 203 94Q227 85 265 85Q313 85 353 93Q393 101 428 115L416 19Q371 1 324 -5.5Q277 -12 236 -12Q173 -12 132 6Q91 24 68.5 58Q46 92 39.5 140.5Q33 189 41 250Q48 310 66 358.5Q84 407 114.5 441Q145 475 190 493.5Q235 512 297 512Q352 512 389 500Q426 488 448 467Q470 446 477.5 417.5Q485 389 481 357Q477 325 463 297.5Q449 270 422 250.5Q395 231 355 220Q315 209 260 209Z" glyph-name="e" horiz-adv-x="510" unicode="e" /><glyph d="M268 287Q313 287 340 302Q367 317 372 351Q376 385 352 400Q328 415 283 415Q252 415 230.5 405.5Q209 396 195 379Q181 362 172.5 338.5Q164 315 159 287ZM149 209Q146 181 149.5 158Q153 135 166 119Q179 103 203 94Q227 85 265 85Q313 85 353 93Q393 101 428 115L416 19Q371 1 324 -5.5Q277 -12 236 -12Q173 -12 132 6Q91 24 68.5 58Q46 92 39.5 140.5Q33 189 41 250Q48 310 66 358.5Q84 407 114.5 441Q145 475 190 493.5Q235 512 297 512Q352 512 389 500Q426 488 448 467Q470 446 477.5 417.5Q485 389 481 357Q477 325 463 297.5Q449 270 422 250.5Q395 231 355 220Q315 209 260 209ZM253 550 336 750H471L347 550Z" glyph-name="eacute" horiz-adv-x="510" unicode="&#233;" /><glyph d="M268 287Q313 287 340 302Q367 317 372 351Q376 385 352 400Q328 415 283 415Q252 415 230.5 405.5Q209 396 195 379Q181 362 172.5 338.5Q164 315 159 287ZM149 209Q146 181 149.5 158Q153 135 166 119Q179 103 203 94Q227 85 265 85Q313 85 353 93Q393 101 428 115L416 19Q371 1 324 -5.5Q277 -12 236 -12Q173 -12 132 6Q91 24 68.5 58Q46 92 39.5 140.5Q33 189 41 250Q48 310 66 358.5Q84 407 114.5 441Q145 475 190 493.5Q235 512 297 512Q352 512 389 500Q426 488 448 467Q470 446 477.5 417.5Q485 389 481 357Q477 325 463 297.5Q449 270 422 250.5Q395 231 355 220Q315 209 260 209ZM300 550Q250 550 217 561Q184 572 165.5 596Q147 620 141.5 658Q136 696 142 750H219Q212 693 232 666Q252 639 311 639Q370 639 396.5 666Q423 693 431 750H508Q500 696 485.5 658Q471 620 446 596Q421 572 385 561Q349 550 300 550Z" glyph-name="ebreve" horiz-adv-x="510" unicode="&#277;" /><glyph d="M268 287Q313 287 340 302Q367 317 372 351Q376 385 352 400Q328 415 283 415Q252 415 230.5 405.5Q209 396 195 379Q181 362 172.5 338.5Q164 315 159 287ZM149 209Q146 181 149.5 158Q153 135 166 119Q179 103 203 94Q227 85 265 85Q313 85 353 93Q393 101 428 115L416 19Q371 1 324 -5.5Q277 -12 236 -12Q173 -12 132 6Q91 24 68.5 58Q46 92 39.5 140.5Q33 189 41 250Q48 310 66 358.5Q84 407 114.5 441Q145 475 190 493.5Q235 512 297 512Q352 512 389 500Q426 488 448 467Q470 446 477.5 417.5Q485 389 481 357Q477 325 463 297.5Q449 270 422 250.5Q395 231 355 220Q315 209 260 209ZM418 750H513L357 550H243L137 750H232L311 637Z" glyph-name="ecaron" horiz-adv-x="510" unicode="&#283;" /><glyph d="M268 287Q313 287 340 302Q367 317 372 351Q376 385 352 400Q328 415 283 415Q252 415 230.5 405.5Q209 396 195 379Q181 362 172.5 338.5Q164 315 159 287ZM149 209Q146 181 149.5 158Q153 135 166 119Q179 103 203 94Q227 85 265 85Q313 85 353 93Q393 101 428 115L416 19Q371 1 324 -5.5Q277 -12 236 -12Q173 -12 132 6Q91 24 68.5 58Q46 92 39.5 140.5Q33 189 41 250Q48 310 66 358.5Q84 407 114.5 441Q145 475 190 493.5Q235 512 297 512Q352 512 389 500Q426 488 448 467Q470 446 477.5 417.5Q485 389 481 357Q477 325 463 297.5Q449 270 422 250.5Q395 231 355 220Q315 209 260 209ZM314 663 207 550H112L268 750H382L488 550H393Z" glyph-name="ecircumflex" horiz-adv-x="510" unicode="&#234;" /><glyph d="M268 287Q313 287 340 302Q367 317 372 351Q376 385 352 400Q328 415 283 415Q252 415 230.5 405.5Q209 396 195 379Q181 362 172.5 338.5Q164 315 159 287ZM149 209Q146 181 149.5 158Q153 135 166 119Q179 103 203 94Q227 85 265 85Q313 85 353 93Q393 101 428 115L416 19Q371 1 324 -5.5Q277 -12 236 -12Q173 -12 132 6Q91 24 68.5 58Q46 92 39.5 140.5Q33 189 41 250Q48 310 66 358.5Q84 407 114.5 441Q145 475 190 493.5Q235 512 297 512Q352 512 389 500Q426 488 448 467Q470 446 477.5 417.5Q485 389 481 357Q477 325 463 297.5Q449 270 422 250.5Q395 231 355 220Q315 209 260 209ZM345 648Q345 678 366.5 699.5Q388 721 418 721Q448 721 469.5 699.5Q491 678 491 648Q491 618 469.5 596.5Q448 575 418 575Q388 575 366.5 596.5Q345 618 345 648ZM133 648Q133 678 154.5 699.5Q176 721 206 721Q236 721 257.5 699.5Q279 678 279 648Q279 618 257.5 596.5Q236 575 206 575Q176 575 154.5 596.5Q133 618 133 648Z" glyph-name="edieresis" horiz-adv-x="510" unicode="&#235;" /><glyph d="M268 287Q313 287 340 302Q367 317 372 351Q376 385 352 400Q328 415 283 415Q252 415 230.5 405.5Q209 396 195 379Q181 362 172.5 338.5Q164 315 159 287ZM149 209Q146 181 149.5 158Q153 135 166 119Q179 103 203 94Q227 85 265 85Q313 85 353 93Q393 101 428 115L416 19Q371 1 324 -5.5Q277 -12 236 -12Q173 -12 132 6Q91 24 68.5 58Q46 92 39.5 140.5Q33 189 41 250Q48 310 66 358.5Q84 407 114.5 441Q145 475 190 493.5Q235 512 297 512Q352 512 389 500Q426 488 448 467Q470 446 477.5 417.5Q485 389 481 357Q477 325 463 297.5Q449 270 422 250.5Q395 231 355 220Q315 209 260 209ZM239 648Q239 678 260.5 699.5Q282 721 312 721Q342 721 363.5 699.5Q385 678 385 648Q385 618 363.5 596.5Q342 575 312 575Q282 575 260.5 596.5Q239 618 239 648Z" glyph-name="edotaccent" horiz-adv-x="510" unicode="&#279;" /><glyph d="M268 287Q313 287 340 302Q367 317 372 351Q376 385 352 400Q328 415 283 415Q252 415 230.5 405.5Q209 396 195 379Q181 362 172.5 338.5Q164 315 159 287ZM149 209Q146 181 149.5 158Q153 135 166 119Q179 103 203 94Q227 85 265 85Q313 85 353 93Q393 101 428 115L416 19Q371 1 324 -5.5Q277 -12 236 -12Q173 -12 132 6Q91 24 68.5 58Q46 92 39.5 140.5Q33 189 41 250Q48 310 66 358.5Q84 407 114.5 441Q145 475 190 493.5Q235 512 297 512Q352 512 389 500Q426 488 448 467Q470 446 477.5 417.5Q485 389 481 357Q477 325 463 297.5Q449 270 422 250.5Q395 231 355 220Q315 209 260 209ZM253 550 179 750H314L347 550Z" glyph-name="egrave" horiz-adv-x="510" unicode="&#232;" /><glyph d="M323 435Q355 435 379 444Q403 453 419.5 468.5Q436 484 445.5 504.5Q455 525 458 547Q461 570 457 591Q453 612 440.5 628.5Q428 645 406 654.5Q384 664 351 664Q318 664 294 654.5Q270 645 253.5 628.5Q237 612 228 591Q219 570 216 547Q213 525 217.5 504.5Q222 484 234.5 468.5Q247 453 269 444Q291 435 323 435ZM280 86Q323 86 353.5 97.5Q384 109 403 128Q422 147 431.5 169.5Q441 192 444 215Q459 342 311 342Q163 342 148 215Q145 192 149 169.5Q153 147 167.5 128Q182 109 209 97.5Q236 86 280 86ZM268 -12Q202 -12 155.5 4.5Q109 21 80.5 50.5Q52 80 41.5 121.5Q31 163 37 214Q41 246 53 275Q65 304 83.5 328Q102 352 125 369.5Q148 387 174 395Q137 415 116 455.5Q95 496 102 552Q108 597 125.5 635.5Q143 674 174.5 702Q206 730 253 746Q300 762 363 762Q426 762 469 746Q512 730 536.5 702Q561 674 569.5 635.5Q578 597 572 552Q565 496 534.5 455.5Q504 415 462 395Q486 387 504.5 369.5Q523 352 535.5 328Q548 304 553.5 275Q559 246 555 214Q549 163 528 121.5Q507 80 471 50.5Q435 21 384.5 4.5Q334 -12 268 -12Z" glyph-name="eight" horiz-adv-x="600" unicode="8" /><glyph d="M71 61Q71 91 92.5 112.5Q114 134 144 134Q174 134 195.5 112.5Q217 91 217 61Q217 31 195.5 9.5Q174 -12 144 -12Q114 -12 92.5 9.5Q71 31 71 61ZM404 61Q404 91 425.5 112.5Q447 134 477 134Q507 134 528.5 112.5Q550 91 550 61Q550 31 528.5 9.5Q507 -12 477 -12Q447 -12 425.5 9.5Q404 31 404 61ZM737 61Q737 91 758.5 112.5Q780 134 810 134Q840 134 861.5 112.5Q883 91 883 61Q883 31 861.5 9.5Q840 -12 810 -12Q780 -12 758.5 9.5Q737 31 737 61Z" glyph-name="ellipsis" horiz-adv-x="1000" unicode="&#8230;" /><glyph d="M268 287Q313 287 340 302Q367 317 372 351Q376 385 352 400Q328 415 283 415Q252 415 230.5 405.5Q209 396 195 379Q181 362 172.5 338.5Q164 315 159 287ZM149 209Q146 181 149.5 158Q153 135 166 119Q179 103 203 94Q227 85 265 85Q313 85 353 93Q393 101 428 115L416 19Q371 1 324 -5.5Q277 -12 236 -12Q173 -12 132 6Q91 24 68.5 58Q46 92 39.5 140.5Q33 189 41 250Q48 310 66 358.5Q84 407 114.5 441Q145 475 190 493.5Q235 512 297 512Q352 512 389 500Q426 488 448 467Q470 446 477.5 417.5Q485 389 481 357Q477 325 463 297.5Q449 270 422 250.5Q395 231 355 220Q315 209 260 209ZM172 694H464L453 605H161Z" glyph-name="emacron" horiz-adv-x="510" unicode="&#275;" /><glyph d="M957 261H47L59 362H969Z" glyph-name="emdash" horiz-adv-x="1000" unicode="&#8212;" /><glyph d="M457 261H47L59 362H469Z" glyph-name="endash" horiz-adv-x="500" unicode="&#8211;" /><glyph d="M195 -158Q249 -158 283.5 -131.5Q318 -105 323 -58L373 343Q382 417 303 417Q264 417 235 408Q206 399 184 388L137 0H25L86 500H152L165 460Q207 486 249.5 499Q292 512 333 512Q381 512 412.5 500.5Q444 489 462 468.5Q480 448 485 418.5Q490 389 486 353L433 -80Q427 -126 403 -160.5Q379 -195 343.5 -217.5Q308 -240 266 -251Q224 -262 182 -262Z" glyph-name="eng" horiz-adv-x="524" unicode="&#331;" /><glyph d="M268 287Q313 287 340 302Q367 317 372 351Q376 385 352 400Q328 415 283 415Q252 415 230.5 405.5Q209 396 195 379Q181 362 172.5 338.5Q164 315 159 287ZM416 19Q400 12 384 7.5Q368 3 352 0Q330 -9 309.5 -21.5Q289 -34 272.5 -49Q256 -64 245 -83Q234 -102 231 -125Q228 -148 241 -162Q254 -176 281 -176Q302 -176 319 -173Q336 -170 345 -167L337 -235Q324 -240 303 -245Q282 -250 250 -250Q225 -250 203.5 -243Q182 -236 166.5 -222.5Q151 -209 144 -188.5Q137 -168 140 -141Q144 -111 163 -77.5Q182 -44 225 -12Q166 -11 127 8Q88 27 66.5 61Q45 95 39.5 142.5Q34 190 41 250Q48 310 66 358.5Q84 407 114.5 441Q145 475 190 493.5Q235 512 297 512Q352 512 389 500Q426 488 448 467Q470 446 477.5 417.5Q485 389 481 357Q477 325 463 297.5Q449 270 422 250.5Q395 231 355 220Q315 209 260 209H149Q146 181 149.5 158Q153 135 166 119Q179 103 203 94Q227 85 265 85Q313 85 353 93Q393 101 428 115Z" glyph-name="eogonek" horiz-adv-x="510" unicode="&#281;" /><glyph d="M92 375 105 481H553L540 375ZM70 199 83 305H531L518 199Z" glyph-name="equal" horiz-adv-x="600" unicode="=" /><glyph d="M266 652Q232 685 197 709Q162 733 133 750H297Q311 740 327.5 727.5Q344 715 361 698L482 756L473 680L406 648Q427 619 445 580.5Q463 542 474.5 493.5Q486 445 489.5 384.5Q493 324 485 250Q478 192 462.5 144Q447 96 417.5 61.5Q388 27 343 7.5Q298 -12 231 -12Q164 -12 123.5 7.5Q83 27 62 61.5Q41 96 37.5 144Q34 192 41 250Q48 311 65 360Q82 409 111 442.5Q140 476 183 494Q226 512 285 512Q312 512 334 507Q356 502 367 494Q356 525 340.5 552Q325 579 308 601L152 526L161 602ZM243 82Q279 82 301.5 93Q324 104 338 125.5Q352 147 359.5 178.5Q367 210 372 250Q377 290 377 321.5Q377 353 368.5 374.5Q360 396 340 407Q320 418 284 418Q248 418 225 407Q202 396 188 374.5Q174 353 166.5 321.5Q159 290 154 250Q149 210 149 178.5Q149 147 158 125.5Q167 104 187 93Q207 82 243 82Z" glyph-name="eth" horiz-adv-x="526" unicode="&#240;" /><glyph d="M67 210 101 750H243L143 210ZM14 61Q14 91 35.5 112.5Q57 134 87 134Q117 134 138.5 112.5Q160 91 160 61Q160 31 138.5 9.5Q117 -12 87 -12Q57 -12 35.5 9.5Q14 31 14 61Z" glyph-name="exclam" horiz-adv-x="220" unicode="!" /><glyph d="M153 290 120 -250H-22L77 290ZM60 439Q60 469 81.5 490.5Q103 512 133 512Q163 512 184.5 490.5Q206 469 206 439Q206 409 184.5 387.5Q163 366 133 366Q103 366 81.5 387.5Q60 409 60 439Z" glyph-name="exclamdown" horiz-adv-x="220" unicode="&#161;" /><glyph d="M432 655Q419 660 402 662.5Q385 665 359 665Q321 665 293 648.5Q265 632 260 589L249 500H390L378 405H237L157 -250H45L125 405H34L43 474L137 500L149 599Q159 680 210.5 721Q262 762 363 762Q388 762 409 758.5Q430 755 444 750Z" glyph-name="f" horiz-adv-x="382" unicode="f" /><glyph d="M432 655Q419 660 402 662.5Q385 665 359 665Q321 665 293 648.5Q265 632 260 589L249 500H390L378 405H237L157 -250H45L125 405H34L43 474L137 500L149 599Q159 680 210.5 721Q262 762 363 762Q388 762 409 758.5Q430 755 444 750ZM548 -7Q479 -7 451.5 25.5Q424 58 432 123L478 500H590L544 124Q541 103 549 94.5Q557 86 581 86L570 -5Q567 -6 563 -6Q559 -7 548 -7ZM479 648Q479 678 500.5 699.5Q522 721 552 721Q582 721 603.5 699.5Q625 678 625 648Q625 618 603.5 596.5Q582 575 552 575Q522 575 500.5 596.5Q479 618 479 648Z" glyph-name="fi" horiz-adv-x="639" unicode="&#64257;" /><glyph d="M224 -12Q166 -12 116.5 -2.5Q67 7 38 21L50 122Q78 111 123.5 100.5Q169 90 232 90Q263 90 294 95Q325 100 351 115.5Q377 131 395 159Q413 187 419 232Q424 274 414 297.5Q404 321 384 332Q364 343 337 345.5Q310 348 282 348H103L153 750H584L571 646H251L227 448Q233 449 245 449.5Q257 450 270.5 450.5Q284 451 296 451Q308 451 313 451Q361 451 405 444Q449 437 480.5 414.5Q512 392 527.5 348.5Q543 305 534 232Q524 150 491.5 102Q459 54 414.5 28.5Q370 3 320 -4.5Q270 -12 224 -12Z" glyph-name="five" horiz-adv-x="600" unicode="5" /><glyph d="M432 655Q419 660 402 662.5Q385 665 359 665Q321 665 293 648.5Q265 632 260 589L249 500H390L378 405H237L157 -250H45L125 405H34L43 474L137 500L149 599Q159 680 210.5 721Q262 762 363 762Q388 762 409 758.5Q430 755 444 750ZM548 -7Q479 -7 451.5 25.5Q424 58 432 123L509 750H621L544 124Q541 103 549 94.5Q557 86 581 86L570 -5Q567 -6 563 -6Q559 -7 548 -7Z" glyph-name="fl" horiz-adv-x="639" unicode="&#64258;" /><glyph d="M400 761Q448 761 490 754Q532 747 562 733L549 635Q517 646 483 653Q449 660 397 660Q347 660 313.5 637Q280 614 274 567L266 500H499L487 406H254L205 0H95L144 406H42L54 500H156L165 577Q170 617 185 651Q200 685 227.5 709.5Q255 734 297.5 747.5Q340 761 400 761Z" glyph-name="florin" horiz-adv-x="600" unicode="&#402;" /><glyph d="M471 303H568L555 198H458L434 0H324L348 198H32L40 266L446 761H527ZM361 303 396 568 177 300Z" glyph-name="four" horiz-adv-x="600" unicode="4" /><glyph d="M-177 0 446 750H549L-73 0Z" glyph-name="fraction" horiz-adv-x="340" unicode="&#8260;" /><glyph d="M452 -35Q446 -81 432.5 -122.5Q419 -164 389 -195Q359 -226 308.5 -244Q258 -262 180 -262Q134 -262 87 -254Q40 -246 6 -229L19 -129Q61 -149 105 -158Q149 -167 192 -167Q234 -167 261 -157.5Q288 -148 304 -132Q320 -116 327.5 -94.5Q335 -73 338 -49L347 22Q317 5 283 -3.5Q249 -12 209 -12Q154 -12 118 6Q82 24 62.5 57.5Q43 91 38 139.5Q33 188 41 250Q48 311 65 360Q82 409 110 442.5Q138 476 178 494Q218 512 273 512Q324 512 361.5 498Q399 484 429 460L452 500H518ZM392 388Q378 396 353 406.5Q328 417 288 417Q251 417 227.5 404Q204 391 189 368.5Q174 346 166 315.5Q158 285 154 250Q150 215 150 184.5Q150 154 159.5 131.5Q169 109 189.5 96Q210 83 247 83Q287 83 314.5 93.5Q342 104 358 112Z" glyph-name="g" horiz-adv-x="542" unicode="g" /><glyph d="M452 -35Q446 -81 432.5 -122.5Q419 -164 389 -195Q359 -226 308.5 -244Q258 -262 180 -262Q134 -262 87 -254Q40 -246 6 -229L19 -129Q61 -149 105 -158Q149 -167 192 -167Q234 -167 261 -157.5Q288 -148 304 -132Q320 -116 327.5 -94.5Q335 -73 338 -49L347 22Q317 5 283 -3.5Q249 -12 209 -12Q154 -12 118 6Q82 24 62.5 57.5Q43 91 38 139.5Q33 188 41 250Q48 311 65 360Q82 409 110 442.5Q138 476 178 494Q218 512 273 512Q324 512 361.5 498Q399 484 429 460L452 500H518ZM392 388Q378 396 353 406.5Q328 417 288 417Q251 417 227.5 404Q204 391 189 368.5Q174 346 166 315.5Q158 285 154 250Q150 215 150 184.5Q150 154 159.5 131.5Q169 109 189.5 96Q210 83 247 83Q287 83 314.5 93.5Q342 104 358 112ZM301 550Q251 550 218 561Q185 572 166.5 596Q148 620 142.5 658Q137 696 143 750H220Q213 693 233 666Q253 639 312 639Q371 639 397.5 666Q424 693 432 750H509Q501 696 486.5 658Q472 620 447 596Q422 572 386 561Q350 550 301 550Z" glyph-name="gbreve" horiz-adv-x="542" unicode="&#287;" /><glyph d="M452 -35Q446 -81 432.5 -122.5Q419 -164 389 -195Q359 -226 308.5 -244Q258 -262 180 -262Q134 -262 87 -254Q40 -246 6 -229L19 -129Q61 -149 105 -158Q149 -167 192 -167Q234 -167 261 -157.5Q288 -148 304 -132Q320 -116 327.5 -94.5Q335 -73 338 -49L347 22Q317 5 283 -3.5Q249 -12 209 -12Q154 -12 118 6Q82 24 62.5 57.5Q43 91 38 139.5Q33 188 41 250Q48 311 65 360Q82 409 110 442.5Q138 476 178 494Q218 512 273 512Q324 512 361.5 498Q399 484 429 460L452 500H518ZM392 388Q378 396 353 406.5Q328 417 288 417Q251 417 227.5 404Q204 391 189 368.5Q174 346 166 315.5Q158 285 154 250Q150 215 150 184.5Q150 154 159.5 131.5Q169 109 189.5 96Q210 83 247 83Q287 83 314.5 93.5Q342 104 358 112ZM315 663 208 550H113L269 750H383L489 550H394Z" glyph-name="gcircumflex" horiz-adv-x="542" unicode="&#285;" /><glyph d="M452 -35Q446 -81 432.5 -122.5Q419 -164 389 -195Q359 -226 308.5 -244Q258 -262 180 -262Q134 -262 87 -254Q40 -246 6 -229L19 -129Q61 -149 105 -158Q149 -167 192 -167Q234 -167 261 -157.5Q288 -148 304 -132Q320 -116 327.5 -94.5Q335 -73 338 -49L347 22Q317 5 283 -3.5Q249 -12 209 -12Q154 -12 118 6Q82 24 62.5 57.5Q43 91 38 139.5Q33 188 41 250Q48 311 65 360Q82 409 110 442.5Q138 476 178 494Q218 512 273 512Q324 512 361.5 498Q399 484 429 460L452 500H518ZM392 388Q378 396 353 406.5Q328 417 288 417Q251 417 227.5 404Q204 391 189 368.5Q174 346 166 315.5Q158 285 154 250Q150 215 150 184.5Q150 154 159.5 131.5Q169 109 189.5 96Q210 83 247 83Q287 83 314.5 93.5Q342 104 358 112ZM230 550 320 750H409L363 550Z" glyph-name="gcommaaccent" horiz-adv-x="542" unicode="&#291;" /><glyph d="M452 -35Q446 -81 432.5 -122.5Q419 -164 389 -195Q359 -226 308.5 -244Q258 -262 180 -262Q134 -262 87 -254Q40 -246 6 -229L19 -129Q61 -149 105 -158Q149 -167 192 -167Q234 -167 261 -157.5Q288 -148 304 -132Q320 -116 327.5 -94.5Q335 -73 338 -49L347 22Q317 5 283 -3.5Q249 -12 209 -12Q154 -12 118 6Q82 24 62.5 57.5Q43 91 38 139.5Q33 188 41 250Q48 311 65 360Q82 409 110 442.5Q138 476 178 494Q218 512 273 512Q324 512 361.5 498Q399 484 429 460L452 500H518ZM392 388Q378 396 353 406.5Q328 417 288 417Q251 417 227.5 404Q204 391 189 368.5Q174 346 166 315.5Q158 285 154 250Q150 215 150 184.5Q150 154 159.5 131.5Q169 109 189.5 96Q210 83 247 83Q287 83 314.5 93.5Q342 104 358 112ZM240 648Q240 678 261.5 699.5Q283 721 313 721Q343 721 364.5 699.5Q386 678 386 648Q386 618 364.5 596.5Q343 575 313 575Q283 575 261.5 596.5Q240 618 240 648Z" glyph-name="gdotaccent" horiz-adv-x="542" unicode="&#289;" /><glyph d="M237 372Q241 404 253.5 426Q266 448 282.5 464.5Q299 481 317.5 494Q336 507 352.5 521Q369 535 381 552.5Q393 570 396 595Q398 613 393 626.5Q388 640 376.5 648.5Q365 657 349.5 661Q334 665 315 665Q276 665 248.5 647.5Q221 630 216 593L113 -250H1L105 599Q125 762 327 762Q429 762 472 719Q515 676 505 598Q501 566 488.5 543Q476 520 459 503Q442 486 423.5 472.5Q405 459 389 445.5Q373 432 361.5 417.5Q350 403 348 383Q344 356 357 341.5Q370 327 410 313Q448 299 473.5 285Q499 271 513 252Q527 233 531.5 208.5Q536 184 532 151Q523 78 469.5 33Q416 -12 327 -12Q285 -12 251 -4Q217 4 195 17L207 115Q224 107 256.5 95Q289 83 328 83Q375 83 396.5 101Q418 119 422 151Q426 185 405 202Q384 219 347 231Q280 253 255 284Q230 315 237 372Z" glyph-name="germandbls" horiz-adv-x="563" unicode="&#223;" /><glyph d="M253 550 179 750H314L347 550Z" glyph-name="grave" horiz-adv-x="526" unicode="`" /><glyph d="M283 795 198 905H333L377 795Z" glyph-name="grave.cap" horiz-adv-x="526" unicode="&#58401;" /><glyph d="M69 189 405 341 106 493 120 608 541 387 530 295 55 74Z" glyph-name="greater" horiz-adv-x="600" unicode="&gt;" /><glyph d="M82 300 378 398 106 496 120 607 548 441 539 367 71 208ZM66 163 533 322 522 232 54 73Z" glyph-name="greaterequal" horiz-adv-x="600" unicode="&#8805;" /><glyph d="M52 289 260 435 248 334 143 250 227 166 214 65 42 211ZM242 289 450 435 438 334 333 250 417 166 404 65 232 211Z" glyph-name="guillemotleft" horiz-adv-x="479" unicode="&#171;" /><glyph d="M427 211 219 65 232 166 336 250 253 334 265 435 437 289ZM237 211 29 65 42 166 146 250 63 334 75 435 247 289Z" glyph-name="guillemotright" horiz-adv-x="479" unicode="&#187;" /><glyph d="M52 289 260 435 248 334 143 250 227 166 214 65 42 211Z" glyph-name="guilsinglleft" horiz-adv-x="289" unicode="&#8249;" /><glyph d="M237 211 29 65 42 166 146 250 63 334 75 435 247 289Z" glyph-name="guilsinglright" horiz-adv-x="289" unicode="&#8250;" /><glyph d="M373 343Q382 417 303 417Q264 417 235 408Q206 399 184 388L137 0H25L117 750H229L195 475Q227 492 261 502Q295 512 333 512Q381 512 412.5 500.5Q444 489 462 468.5Q480 448 485 418.5Q490 389 486 353L443 0H331L373 343Z" glyph-name="h" horiz-adv-x="524" unicode="h" /><glyph d="M17 661H106L117 750H229L218 661H340L329 577H207L195 475Q227 492 261 502Q295 512 333 512Q381 512 412.5 500.5Q444 489 462 468.5Q480 448 485 418.5Q490 389 486 353L443 0H331L373 343Q382 417 303 417Q264 417 235 408Q206 399 184 388L137 0H25L95 577H6Z" glyph-name="hbar" horiz-adv-x="524" unicode="&#295;" /><glyph d="M373 343Q382 417 303 417Q264 417 235 408Q206 399 184 388L137 0H25L117 750H229L195 475Q227 492 261 502Q295 512 333 512Q381 512 412.5 500.5Q444 489 462 468.5Q480 448 485 418.5Q490 389 486 353L443 0H331L373 343ZM265 795 185 845 93 795H-5L136 905H250L363 795Z" glyph-name="hcircumflex" horiz-adv-x="524" unicode="&#293;" /><glyph d="M168 550 251 750H386L262 550ZM338 550 421 750H556L432 550Z" glyph-name="hungarumlaut" horiz-adv-x="526" unicode="&#733;" /><glyph d="M368 795 440 905H575L462 795ZM198 795 270 905H405L292 795Z" glyph-name="hungarumlaut.cap" horiz-adv-x="526" unicode="&#58411;" /><glyph d="M287 261H32L44 362H299Z" glyph-name="hyphen" horiz-adv-x="315" unicode="-" /><glyph d="M166 -7Q97 -7 69.5 25.5Q42 58 50 123L96 500H208L162 124Q159 103 167 94.5Q175 86 199 86L188 -5Q185 -6 181 -6Q177 -7 166 -7ZM97 648Q97 678 118.5 699.5Q140 721 170 721Q200 721 221.5 699.5Q243 678 243 648Q243 618 221.5 596.5Q200 575 170 575Q140 575 118.5 596.5Q97 618 97 648Z" glyph-name="i" horiz-adv-x="257" unicode="i" /><glyph d="M166 -7Q97 -7 69.5 25.5Q42 58 50 123L96 500H208L162 124Q159 103 167 94.5Q175 86 199 86L188 -5Q185 -6 181 -6Q177 -7 166 -7ZM112 550 195 750H330L206 550Z" glyph-name="iacute" horiz-adv-x="257" unicode="&#237;" /><glyph d="M166 -7Q97 -7 69.5 25.5Q42 58 50 123L96 500H208L162 124Q159 103 167 94.5Q175 86 199 86L188 -5Q185 -6 181 -6Q177 -7 166 -7ZM159 550Q109 550 76 561Q43 572 24.5 596Q6 620 0.5 658Q-5 696 1 750H78Q71 693 91 666Q111 639 170 639Q229 639 255.5 666Q282 693 290 750H367Q359 696 344.5 658Q330 620 305 596Q280 572 244 561Q208 550 159 550Z" glyph-name="ibreve" horiz-adv-x="257" unicode="&#301;" /><glyph d="M166 -7Q97 -7 69.5 25.5Q42 58 50 123L96 500H208L162 124Q159 103 167 94.5Q175 86 199 86L188 -5Q185 -6 181 -6Q177 -7 166 -7ZM173 663 66 550H-29L127 750H241L347 550H252Z" glyph-name="icircumflex" horiz-adv-x="257" unicode="&#238;" /><glyph d="M166 -7Q97 -7 69.5 25.5Q42 58 50 123L96 500H208L162 124Q159 103 167 94.5Q175 86 199 86L188 -5Q185 -6 181 -6Q177 -7 166 -7ZM188 648Q188 678 209.5 699.5Q231 721 261 721Q291 721 312.5 699.5Q334 678 334 648Q334 618 312.5 596.5Q291 575 261 575Q231 575 209.5 596.5Q188 618 188 648ZM6 648Q6 678 27.5 699.5Q49 721 79 721Q109 721 130.5 699.5Q152 678 152 648Q152 618 130.5 596.5Q109 575 79 575Q49 575 27.5 596.5Q6 618 6 648Z" glyph-name="idieresis" horiz-adv-x="257" unicode="&#239;" /><glyph d="M166 -7Q97 -7 69.5 25.5Q42 58 50 123L96 500H208L162 124Q159 103 167 94.5Q175 86 199 86L188 -5Q185 -6 181 -6Q177 -7 166 -7ZM112 550 38 750H173L206 550Z" glyph-name="igrave" horiz-adv-x="257" unicode="&#236;" /><glyph d="M166 -7Q97 -7 69.5 25.5Q42 58 50 123L96 500H208L162 124Q159 103 167 94.5Q175 86 199 86L188 -5Q185 -6 181 -6Q177 -7 166 -7ZM97 648Q97 678 118.5 699.5Q140 721 170 721Q200 721 221.5 699.5Q243 678 243 648Q243 618 221.5 596.5Q200 575 170 575Q140 575 118.5 596.5Q97 618 97 648ZM112 -158Q165 -158 199.5 -131.5Q234 -105 239 -58L308 500H420L349 -80Q343 -126 319 -160.5Q295 -195 259.5 -217.5Q224 -240 182 -251Q140 -262 99 -262ZM309 648Q309 678 330.5 699.5Q352 721 382 721Q412 721 433.5 699.5Q455 678 455 648Q455 618 433.5 596.5Q412 575 382 575Q352 575 330.5 596.5Q309 618 309 648Z" glyph-name="ij" horiz-adv-x="454" unicode="&#307;" /><glyph d="M166 -7Q97 -7 69.5 25.5Q42 58 50 123L96 500H208L162 124Q159 103 167 94.5Q175 86 199 86L188 -5Q185 -6 181 -6Q177 -7 166 -7ZM31 694H323L312 605H20Z" glyph-name="imacron" horiz-adv-x="257" unicode="&#299;" /><glyph d="M356 357Q348 370 337.5 383Q327 396 313.5 406.5Q300 417 283 424Q266 431 246 432Q214 433 189.5 416Q165 399 160 357Q155 315 175 298Q195 281 227 282Q248 283 266.5 290Q285 297 301 307.5Q317 318 331 331Q345 344 356 357ZM404 279Q366 241 316 215Q266 189 210 189Q130 189 87 231Q44 273 54 357Q65 442 117.5 483.5Q170 525 251 525Q307 525 350.5 498.5Q394 472 423 434Q461 472 511 498.5Q561 525 617 525Q697 525 739.5 483Q782 441 772 357Q762 272 709.5 230.5Q657 189 576 189Q520 189 476 215Q432 241 404 279ZM470 357Q478 344 489 331Q500 318 513.5 307.5Q527 297 543.5 290Q560 283 581 282Q613 281 637 298Q661 315 666 357Q671 399 651.5 416Q632 433 600 432Q579 431 560.5 424Q542 417 525.5 406.5Q509 396 495.5 383Q482 370 470 357Z" glyph-name="infinity" horiz-adv-x="800" unicode="&#8734;" /><glyph d="M108 599Q118 680 169.5 721Q221 762 322 762Q347 762 368 758.5Q389 755 403 750L391 655Q378 660 361 662.5Q344 665 318 665Q280 665 252 648.5Q224 632 219 589L137 -80Q131 -126 107 -160.5Q83 -195 47.5 -217.5Q12 -240 -30 -251Q-72 -262 -113 -262L-100 -158Q-47 -158 -12.5 -131.5Q22 -105 27 -58Z" glyph-name="integral" horiz-adv-x="341" unicode="&#8747;" /><glyph d="M346 923Q392 923 422.5 916Q453 909 470.5 893.5Q488 878 492.5 853.5Q497 829 492 795H407Q412 827 395 838.5Q378 850 337 850Q296 850 276 838.5Q256 827 253 795H168Q174 864 214 893.5Q254 923 346 923Z" glyph-name="invertedbreve.cap" horiz-adv-x="526" unicode="&#58407;" /><glyph d="M188 -5Q167 -13 147.5 -26.5Q128 -40 112.5 -56.5Q97 -73 87 -91Q77 -109 75 -125Q72 -148 85 -162Q98 -176 125 -176Q146 -176 163 -173Q180 -170 189 -167L181 -235Q168 -240 147 -245Q126 -250 94 -250Q69 -250 47.5 -243Q26 -236 10.5 -222.5Q-5 -209 -12 -188.5Q-19 -168 -16 -141Q-11 -106 11.5 -69.5Q34 -33 90 9Q39 38 50 123L96 500H208L162 124Q159 103 167 94.5Q175 86 199 86ZM97 648Q97 678 118.5 699.5Q140 721 170 721Q200 721 221.5 699.5Q243 678 243 648Q243 618 221.5 596.5Q200 575 170 575Q140 575 118.5 596.5Q97 618 97 648Z" glyph-name="iogonek" horiz-adv-x="257" unicode="&#303;" /><glyph d="M166 -7Q97 -7 69.5 25.5Q42 58 50 123L96 500H208L162 124Q159 103 167 94.5Q175 86 199 86L188 -5Q185 -6 181 -6Q177 -7 166 -7ZM382 707Q378 677 368.5 651Q359 625 342.5 606.5Q326 588 301.5 577.5Q277 567 243 567Q210 567 189.5 578.5Q169 590 154 604Q139 618 125 629.5Q111 641 91 641Q59 641 49 623.5Q39 606 37 587H-38Q-34 617 -24.5 643Q-15 669 1.5 687.5Q18 706 42.5 716.5Q67 727 101 727Q134 727 154.5 715.5Q175 704 190 690Q205 676 219 664.5Q233 653 253 653Q285 653 295 670.5Q305 688 307 707Z" glyph-name="itilde" horiz-adv-x="257" unicode="&#297;" /><glyph d="M-100 -158Q-47 -158 -12.5 -131.5Q22 -105 27 -58L96 500H208L137 -80Q131 -126 107 -160.5Q83 -195 47.5 -217.5Q12 -240 -30 -251Q-72 -262 -113 -262ZM97 648Q97 678 118.5 699.5Q140 721 170 721Q200 721 221.5 699.5Q243 678 243 648Q243 618 221.5 596.5Q200 575 170 575Q140 575 118.5 596.5Q97 618 97 648Z" glyph-name="j" horiz-adv-x="242" unicode="j" /><glyph d="M-100 -158Q-47 -158 -12.5 -131.5Q22 -105 27 -58L96 500H208L137 -80Q131 -126 107 -160.5Q83 -195 47.5 -217.5Q12 -240 -30 -251Q-72 -262 -113 -262ZM173 663 66 550H-29L127 750H241L347 550H252Z" glyph-name="jcircumflex" horiz-adv-x="242" unicode="&#309;" /><glyph d="M292 294 480 0H341L212 222L158 173L137 0H25L117 750H229L174 306L375 500H520Z" glyph-name="k" horiz-adv-x="522" unicode="k" /><glyph d="M292 294 480 0H341L212 222L158 173L137 0H25L117 750H229L174 306L375 500H520ZM297 -50 208 -250H119L164 -50Z" glyph-name="kcommaaccent" horiz-adv-x="522" unicode="&#311;" /><glyph d="M292 294 480 0H341L212 222L158 173L137 0H25L86 500H198L174 306L375 500H520Z" glyph-name="kgreenlandic" horiz-adv-x="522" unicode="&#312;" /><glyph d="M166 -7Q97 -7 69.5 25.5Q42 58 50 123L127 750H239L162 124Q159 103 167 94.5Q175 86 199 86L188 -5Q185 -6 181 -6Q177 -7 166 -7Z" glyph-name="l" horiz-adv-x="257" unicode="l" /><glyph d="M166 -7Q97 -7 69.5 25.5Q42 58 50 123L127 750H239L162 124Q159 103 167 94.5Q175 86 199 86L188 -5Q185 -6 181 -6Q177 -7 166 -7ZM142 795 225 995H360L236 795Z" glyph-name="lacute" horiz-adv-x="257" unicode="&#314;" /><glyph d="M166 -7Q97 -7 69.5 25.5Q42 58 50 123L127 750H239L162 124Q159 103 167 94.5Q175 86 199 86L188 -5Q185 -6 181 -6Q177 -7 166 -7ZM389 750 316 550H260L301 750Z" glyph-name="lcaron" horiz-adv-x="267" unicode="&#318;" /><glyph d="M166 -7Q97 -7 69.5 25.5Q42 58 50 123L127 750H239L162 124Q159 103 167 94.5Q175 86 199 86L188 -5Q185 -6 181 -6Q177 -7 166 -7ZM176 -50 87 -250H-2L43 -50Z" glyph-name="lcommaaccent" horiz-adv-x="257" unicode="&#316;" /><glyph d="M166 -7Q97 -7 69.5 25.5Q42 58 50 123L127 750H239L162 124Q159 103 167 94.5Q175 86 199 86L188 -5Q185 -6 181 -6Q177 -7 166 -7ZM247 307Q247 337 268.5 358.5Q290 380 320 380Q350 380 371.5 358.5Q393 337 393 307Q393 277 371.5 255.5Q350 234 320 234Q290 234 268.5 255.5Q247 277 247 307Z" glyph-name="ldot" horiz-adv-x="384" unicode="&#320;" /><glyph d="M503 74 82 295 93 387 568 608 554 493 217 341 517 189Z" glyph-name="less" horiz-adv-x="600" unicode="&lt;" /><glyph d="M519 208 91 367 100 441 568 607 554 496 258 398 530 300ZM502 73 74 232 85 322 514 163Z" glyph-name="lessequal" horiz-adv-x="600" unicode="&#8804;" /><glyph d="M516 181H410L436 393H94L107 499H555Z" glyph-name="logicalnot" horiz-adv-x="610" unicode="&#172;" /><glyph d="M554 375 389 610 168 375 332 140ZM41 375 408 762 681 375 313 -12Z" glyph-name="lozenge" horiz-adv-x="690" unicode="&#9674;" /><glyph d="M184 -7Q115 -7 87.5 25.5Q60 58 68 123L89 294L11 251L23 343L100 386L145 750H257L220 452L327 512L316 420L209 360L180 124Q177 103 185 94.5Q193 86 217 86L206 -5Q203 -6 199 -6Q195 -7 184 -7Z" glyph-name="lslash" horiz-adv-x="304" unicode="&#322;" /><glyph d="M644 353Q649 388 631.5 402.5Q614 417 581 417Q544 417 517 407.5Q490 398 469 386Q469 372 468 359Q467 346 465 331L425 0H313L356 353Q361 388 344 402.5Q327 417 293 417Q258 417 231.5 408Q205 399 184 388L137 0H25L86 500H152L165 460Q200 485 242.5 498.5Q285 512 322 512Q373 512 402 498.5Q431 485 444 462Q481 486 524.5 499Q568 512 610 512Q654 512 684 500.5Q714 489 731.5 468Q749 447 754.5 418Q760 389 756 353L713 0H601Z" glyph-name="m" horiz-adv-x="794" unicode="m" /><glyph d="M172 694H464L453 605H161Z" glyph-name="macron" horiz-adv-x="526" unicode="&#175;" /><glyph d="M196 894H488L477 805H185Z" glyph-name="macron.cap" horiz-adv-x="526" unicode="&#58405;" /><glyph d="M320 415 490 566 556 491 386 340 519 189 434 114 302 265 132 114 67 189 236 340 104 491 188 566Z" glyph-name="multiply" horiz-adv-x="600" unicode="&#215;" /><glyph d="M331 0 373 343Q382 417 303 417Q264 417 235 408Q206 399 184 388L137 0H25L86 500H152L165 460Q207 486 249.5 499Q292 512 333 512Q381 512 412.5 500.5Q444 489 462 468.5Q480 448 485 418.5Q490 389 486 353L443 0Z" glyph-name="n" horiz-adv-x="524" unicode="n" /><glyph d="M331 0 373 343Q382 417 303 417Q264 417 235 408Q206 399 184 388L137 0H25L86 500H152L165 460Q207 486 249.5 499Q292 512 333 512Q381 512 412.5 500.5Q444 489 462 468.5Q480 448 485 418.5Q490 389 486 353L443 0ZM256 550 339 750H474L350 550Z" glyph-name="nacute" horiz-adv-x="524" unicode="&#324;" /><glyph d="M331 0 373 343Q382 417 303 417Q264 417 235 408Q206 399 184 388L137 0H25L86 500H152L165 460Q207 486 249.5 499Q292 512 333 512Q381 512 412.5 500.5Q444 489 462 468.5Q480 448 485 418.5Q490 389 486 353L443 0ZM421 750H516L360 550H246L140 750H235L314 637Z" glyph-name="ncaron" horiz-adv-x="524" unicode="&#328;" /><glyph d="M331 0 373 343Q382 417 303 417Q264 417 235 408Q206 399 184 388L137 0H25L86 500H152L165 460Q207 486 249.5 499Q292 512 333 512Q381 512 412.5 500.5Q444 489 462 468.5Q480 448 485 418.5Q490 389 486 353L443 0ZM298 -50 209 -250H120L165 -50Z" glyph-name="ncommaaccent" horiz-adv-x="524" unicode="&#326;" /><glyph d="M232 93Q283 93 319 111.5Q355 130 380 164.5Q405 199 419.5 247Q434 295 442 354Q416 322 375 299.5Q334 277 271 277Q202 277 164.5 300.5Q127 324 110 360Q93 396 91.5 439Q90 482 95 520Q100 558 114 600.5Q128 643 157 679Q186 715 234 738.5Q282 762 355 762Q435 762 480.5 737.5Q526 713 546.5 668Q567 623 567.5 559Q568 495 559 417Q548 325 527 247Q506 169 468.5 111Q431 53 372 20.5Q313 -12 225 -12Q161 -12 116 -1Q71 10 51 22L64 129Q93 115 132.5 104Q172 93 232 93ZM455 520Q458 547 456.5 572Q455 597 443.5 617Q432 637 408 649Q384 661 343 661Q305 661 280 647.5Q255 634 240 613.5Q225 593 217.5 568Q210 543 207 520Q204 497 204.5 472Q205 447 214.5 426.5Q224 406 245.5 392.5Q267 379 308 379Q348 379 375 392.5Q402 406 419 427Q436 448 444 473Q452 498 455 520Z" glyph-name="nine" horiz-adv-x="600" unicode="9" /><glyph glyph-name="nonbreakingspace" horiz-adv-x="200" unicode="&#160;" /><glyph glyph-name="nonmarkingreturn" horiz-adv-x="200" /><glyph d="M540 375H92L105 481H352L419 610H511L438 481H553ZM83 305H531L518 199H271L203 70H111L185 199H70Z" glyph-name="notequal" horiz-adv-x="600" unicode="&#8800;" /><glyph d="M331 0 373 343Q382 417 303 417Q264 417 235 408Q206 399 184 388L137 0H25L86 500H152L165 460Q207 486 249.5 499Q292 512 333 512Q381 512 412.5 500.5Q444 489 462 468.5Q480 448 485 418.5Q490 389 486 353L443 0ZM525 707Q521 677 511.5 651Q502 625 485.5 606.5Q469 588 444.5 577.5Q420 567 386 567Q353 567 332.5 578.5Q312 590 297 604Q282 618 268 629.5Q254 641 234 641Q202 641 192 623.5Q182 606 180 587H105Q109 617 118.5 643Q128 669 144.5 687.5Q161 706 185.5 716.5Q210 727 244 727Q277 727 297.5 715.5Q318 704 333 690Q348 676 362 664.5Q376 653 396 653Q428 653 438 670.5Q448 688 450 707Z" glyph-name="ntilde" horiz-adv-x="524" unicode="&#241;" /><glyph d="M138 565H227L291 750H404L340 565H461L525 750H638L574 565H665L625 471H541L476 279H573L533 185H443L381 0H268L330 185H209L147 0H34L96 185H6L46 279H129L194 471H98ZM242 279H363L428 471H307Z" glyph-name="numbersign" horiz-adv-x="640" unicode="#" /><glyph d="M243 82Q279 82 301.5 93Q324 104 338 125.5Q352 147 359.5 178.5Q367 210 372 250Q377 290 377 321.5Q377 353 368.5 374.5Q360 396 340 407Q320 418 284 418Q248 418 225 407Q202 396 188 374.5Q174 353 166.5 321.5Q159 290 154 250Q149 210 149 178.5Q149 147 158 125.5Q167 104 187 93Q207 82 243 82ZM231 -12Q164 -12 123.5 7.5Q83 27 62 61.5Q41 96 37.5 144Q34 192 41 250Q48 308 63.5 356Q79 404 108.5 438.5Q138 473 183 492.5Q228 512 295 512Q362 512 402.5 492.5Q443 473 464 438.5Q485 404 488.5 356Q492 308 485 250Q478 192 462.5 144Q447 96 417.5 61.5Q388 27 343 7.5Q298 -12 231 -12Z" glyph-name="o" horiz-adv-x="526" unicode="o" /><glyph d="M243 82Q279 82 301.5 93Q324 104 338 125.5Q352 147 359.5 178.5Q367 210 372 250Q377 290 377 321.5Q377 353 368.5 374.5Q360 396 340 407Q320 418 284 418Q248 418 225 407Q202 396 188 374.5Q174 353 166.5 321.5Q159 290 154 250Q149 210 149 178.5Q149 147 158 125.5Q167 104 187 93Q207 82 243 82ZM231 -12Q164 -12 123.5 7.5Q83 27 62 61.5Q41 96 37.5 144Q34 192 41 250Q48 308 63.5 356Q79 404 108.5 438.5Q138 473 183 492.5Q228 512 295 512Q362 512 402.5 492.5Q443 473 464 438.5Q485 404 488.5 356Q492 308 485 250Q478 192 462.5 144Q447 96 417.5 61.5Q388 27 343 7.5Q298 -12 231 -12ZM253 550 336 750H471L347 550Z" glyph-name="oacute" horiz-adv-x="526" unicode="&#243;" /><glyph d="M243 82Q279 82 301.5 93Q324 104 338 125.5Q352 147 359.5 178.5Q367 210 372 250Q377 290 377 321.5Q377 353 368.5 374.5Q360 396 340 407Q320 418 284 418Q248 418 225 407Q202 396 188 374.5Q174 353 166.5 321.5Q159 290 154 250Q149 210 149 178.5Q149 147 158 125.5Q167 104 187 93Q207 82 243 82ZM231 -12Q164 -12 123.5 7.5Q83 27 62 61.5Q41 96 37.5 144Q34 192 41 250Q48 308 63.5 356Q79 404 108.5 438.5Q138 473 183 492.5Q228 512 295 512Q362 512 402.5 492.5Q443 473 464 438.5Q485 404 488.5 356Q492 308 485 250Q478 192 462.5 144Q447 96 417.5 61.5Q388 27 343 7.5Q298 -12 231 -12ZM300 550Q250 550 217 561Q184 572 165.5 596Q147 620 141.5 658Q136 696 142 750H219Q212 693 232 666Q252 639 311 639Q370 639 396.5 666Q423 693 431 750H508Q500 696 485.5 658Q471 620 446 596Q421 572 385 561Q349 550 300 550Z" glyph-name="obreve" horiz-adv-x="526" unicode="&#335;" /><glyph d="M243 82Q279 82 301.5 93Q324 104 338 125.5Q352 147 359.5 178.5Q367 210 372 250Q377 290 377 321.5Q377 353 368.5 374.5Q360 396 340 407Q320 418 284 418Q248 418 225 407Q202 396 188 374.5Q174 353 166.5 321.5Q159 290 154 250Q149 210 149 178.5Q149 147 158 125.5Q167 104 187 93Q207 82 243 82ZM231 -12Q164 -12 123.5 7.5Q83 27 62 61.5Q41 96 37.5 144Q34 192 41 250Q48 308 63.5 356Q79 404 108.5 438.5Q138 473 183 492.5Q228 512 295 512Q362 512 402.5 492.5Q443 473 464 438.5Q485 404 488.5 356Q492 308 485 250Q478 192 462.5 144Q447 96 417.5 61.5Q388 27 343 7.5Q298 -12 231 -12ZM314 663 207 550H112L268 750H382L488 550H393Z" glyph-name="ocircumflex" horiz-adv-x="526" unicode="&#244;" /><glyph d="M243 82Q279 82 301.5 93Q324 104 338 125.5Q352 147 359.5 178.5Q367 210 372 250Q377 290 377 321.5Q377 353 368.5 374.5Q360 396 340 407Q320 418 284 418Q248 418 225 407Q202 396 188 374.5Q174 353 166.5 321.5Q159 290 154 250Q149 210 149 178.5Q149 147 158 125.5Q167 104 187 93Q207 82 243 82ZM231 -12Q164 -12 123.5 7.5Q83 27 62 61.5Q41 96 37.5 144Q34 192 41 250Q48 308 63.5 356Q79 404 108.5 438.5Q138 473 183 492.5Q228 512 295 512Q362 512 402.5 492.5Q443 473 464 438.5Q485 404 488.5 356Q492 308 485 250Q478 192 462.5 144Q447 96 417.5 61.5Q388 27 343 7.5Q298 -12 231 -12ZM345 648Q345 678 366.5 699.5Q388 721 418 721Q448 721 469.5 699.5Q491 678 491 648Q491 618 469.5 596.5Q448 575 418 575Q388 575 366.5 596.5Q345 618 345 648ZM133 648Q133 678 154.5 699.5Q176 721 206 721Q236 721 257.5 699.5Q279 678 279 648Q279 618 257.5 596.5Q236 575 206 575Q176 575 154.5 596.5Q133 618 133 648Z" glyph-name="odieresis" horiz-adv-x="526" unicode="&#246;" /><glyph d="M243 82Q279 82 301.5 93Q324 104 338 125.5Q352 147 359.5 178.5Q367 210 372 250Q377 290 377 321.5Q377 353 368.5 374.5Q360 396 340 407Q320 418 284 418Q248 418 225 407Q202 396 188 374.5Q174 353 166.5 321.5Q159 290 154 250Q149 210 149 178.5Q149 147 158 125.5Q167 104 187 93Q207 82 243 82ZM629 512Q684 512 721 500Q758 488 780 467Q802 446 809.5 417.5Q817 389 813 357Q809 325 795 297.5Q781 270 754 250.5Q727 231 687 220Q647 209 592 209H481Q478 181 481.5 158Q485 135 498 119Q511 103 535 94Q559 85 597 85Q645 85 685 93Q725 101 760 115L748 19Q703 1 656 -5.5Q609 -12 568 -12Q453 -12 408 61Q378 24 335 6Q292 -12 231 -12Q164 -12 123.5 7.5Q83 27 62 61.5Q41 96 37.5 144Q34 192 41 250Q48 308 63.5 356Q79 404 108.5 438.5Q138 473 183 492.5Q228 512 295 512Q356 512 394.5 493.5Q433 475 454 439Q485 476 527.5 494Q570 512 629 512ZM600 287Q645 287 672 302Q699 317 704 351Q708 385 684 400Q660 415 615 415Q584 415 562.5 405.5Q541 396 527 379Q513 362 504.5 338.5Q496 315 491 287Z" glyph-name="oe" horiz-adv-x="842" unicode="&#339;" /><glyph d="M322 0Q300 -9 279 -21.5Q258 -34 241.5 -49Q225 -64 214 -83Q203 -102 200 -125Q197 -148 210 -162Q223 -176 250 -176Q271 -176 288 -173Q305 -170 314 -167L306 -235Q293 -240 272 -245Q251 -250 219 -250Q194 -250 172.5 -243Q151 -236 135.5 -222.5Q120 -209 113 -188.5Q106 -168 109 -141Q112 -122 120.5 -100.5Q129 -79 146.5 -57Q164 -35 191.5 -14Q219 7 259 26Z" glyph-name="ogonek" horiz-adv-x="526" unicode="&#731;" /><glyph d="M243 82Q279 82 301.5 93Q324 104 338 125.5Q352 147 359.5 178.5Q367 210 372 250Q377 290 377 321.5Q377 353 368.5 374.5Q360 396 340 407Q320 418 284 418Q248 418 225 407Q202 396 188 374.5Q174 353 166.5 321.5Q159 290 154 250Q149 210 149 178.5Q149 147 158 125.5Q167 104 187 93Q207 82 243 82ZM231 -12Q164 -12 123.5 7.5Q83 27 62 61.5Q41 96 37.5 144Q34 192 41 250Q48 308 63.5 356Q79 404 108.5 438.5Q138 473 183 492.5Q228 512 295 512Q362 512 402.5 492.5Q443 473 464 438.5Q485 404 488.5 356Q492 308 485 250Q478 192 462.5 144Q447 96 417.5 61.5Q388 27 343 7.5Q298 -12 231 -12ZM253 550 179 750H314L347 550Z" glyph-name="ograve" horiz-adv-x="526" unicode="&#242;" /><glyph d="M243 82Q279 82 301.5 93Q324 104 338 125.5Q352 147 359.5 178.5Q367 210 372 250Q377 290 377 321.5Q377 353 368.5 374.5Q360 396 340 407Q320 418 284 418Q248 418 225 407Q202 396 188 374.5Q174 353 166.5 321.5Q159 290 154 250Q149 210 149 178.5Q149 147 158 125.5Q167 104 187 93Q207 82 243 82ZM231 -12Q164 -12 123.5 7.5Q83 27 62 61.5Q41 96 37.5 144Q34 192 41 250Q48 308 63.5 356Q79 404 108.5 438.5Q138 473 183 492.5Q228 512 295 512Q362 512 402.5 492.5Q443 473 464 438.5Q485 404 488.5 356Q492 308 485 250Q478 192 462.5 144Q447 96 417.5 61.5Q388 27 343 7.5Q298 -12 231 -12ZM168 550 251 750H386L262 550ZM338 550 421 750H556L432 550Z" glyph-name="ohungarumlaut" horiz-adv-x="526" unicode="&#337;" /><glyph d="M243 82Q279 82 301.5 93Q324 104 338 125.5Q352 147 359.5 178.5Q367 210 372 250Q377 290 377 321.5Q377 353 368.5 374.5Q360 396 340 407Q320 418 284 418Q248 418 225 407Q202 396 188 374.5Q174 353 166.5 321.5Q159 290 154 250Q149 210 149 178.5Q149 147 158 125.5Q167 104 187 93Q207 82 243 82ZM231 -12Q164 -12 123.5 7.5Q83 27 62 61.5Q41 96 37.5 144Q34 192 41 250Q48 308 63.5 356Q79 404 108.5 438.5Q138 473 183 492.5Q228 512 295 512Q362 512 402.5 492.5Q443 473 464 438.5Q485 404 488.5 356Q492 308 485 250Q478 192 462.5 144Q447 96 417.5 61.5Q388 27 343 7.5Q298 -12 231 -12ZM172 694H464L453 605H161Z" glyph-name="omacron" horiz-adv-x="526" unicode="&#333;" /><glyph d="M78 85 242 92 310 646 146 636 154 703 384 762H436L354 92L516 85L506 0H68Z" glyph-name="one" horiz-adv-x="600" unicode="1" /><glyph d="M106 0 729 750H832L209 0ZM307 762 255 341H151L190 656L81 653L88 715L260 762ZM583 0 591 72Q668 117 716 148Q764 179 791 201.5Q818 224 828 240.5Q838 257 840 274Q843 297 829 311.5Q815 326 775 326Q737 326 699 317.5Q661 309 636 299L648 396Q659 400 676.5 404.5Q694 409 713.5 413Q733 417 754 419Q775 421 794 421Q846 421 879 410Q912 399 930 380.5Q948 362 953.5 338Q959 314 956 288Q952 256 932 229Q912 202 882 178Q852 154 815 133Q778 112 741 92L943 93L932 0Z" glyph-name="onehalf" horiz-adv-x="1000" unicode="&#189;" /><glyph d="M106 0 729 750H832L209 0ZM307 762 255 341H151L190 656L81 653L88 715L260 762ZM839 0H738L749 92H517L525 159L784 421H890L861 184H936L925 92H850ZM662 183 760 184 777 297Z" glyph-name="onequarter" horiz-adv-x="987" unicode="&#188;" /><glyph d="M307 762 255 341H151L190 656L81 653L88 715L260 762Z" glyph-name="onesuperior" horiz-adv-x="322" unicode="&#185;" /><glyph d="M446 750 400 376H329L322 398Q292 379 261.5 371.5Q231 364 207 364Q47 364 72 563Q96 762 256 762Q280 762 308.5 754.5Q337 747 363 728L375 750ZM169 563Q161 499 180 472.5Q199 446 240 446Q263 446 281.5 452Q300 458 314 466L338 660Q327 668 309.5 674Q292 680 269 680Q228 680 202.5 653.5Q177 627 169 563Z" glyph-name="ordfeminine" horiz-adv-x="425" unicode="&#170;" /><glyph d="M428 563Q415 464 368 414Q321 364 225 364Q129 364 94 414Q59 464 72 563Q84 662 131 712Q178 762 274 762Q370 762 405 712Q440 662 428 563ZM167 563Q159 500 175.5 474Q192 448 236 448Q280 448 302.5 474Q325 500 333 563Q341 626 324.5 652Q308 678 264 678Q220 678 197.5 652Q175 626 167 563Z" glyph-name="ordmasculine" horiz-adv-x="422" unicode="&#186;" /><glyph d="M231 -12Q189 -12 158 -4.5Q127 3 105 17L91 0H16L65 58Q42 93 37.5 141.5Q33 190 41 250Q48 308 63.5 356Q79 404 108.5 438.5Q138 473 183 492.5Q228 512 295 512Q337 512 367.5 504Q398 496 421 482L436 500H511L462 442Q484 407 488.5 358.5Q493 310 485 250Q478 192 462.5 144Q447 96 417.5 61.5Q388 27 343 7.5Q298 -12 231 -12ZM154 250Q151 223 149.5 200.5Q148 178 150 159L350 399Q328 418 284 418Q248 418 225 407Q202 396 188 374.5Q174 353 166.5 321.5Q159 290 154 250ZM243 82Q279 82 301.5 93Q324 104 338 125.5Q352 147 359.5 178.5Q367 210 372 250Q375 276 376.5 298.5Q378 321 376 340L175 101Q195 82 243 82Z" glyph-name="oslash" horiz-adv-x="526" unicode="&#248;" /><glyph d="M243 82Q279 82 301.5 93Q324 104 338 125.5Q352 147 359.5 178.5Q367 210 372 250Q377 290 377 321.5Q377 353 368.5 374.5Q360 396 340 407Q320 418 284 418Q248 418 225 407Q202 396 188 374.5Q174 353 166.5 321.5Q159 290 154 250Q149 210 149 178.5Q149 147 158 125.5Q167 104 187 93Q207 82 243 82ZM231 -12Q164 -12 123.5 7.5Q83 27 62 61.5Q41 96 37.5 144Q34 192 41 250Q48 308 63.5 356Q79 404 108.5 438.5Q138 473 183 492.5Q228 512 295 512Q362 512 402.5 492.5Q443 473 464 438.5Q485 404 488.5 356Q492 308 485 250Q478 192 462.5 144Q447 96 417.5 61.5Q388 27 343 7.5Q298 -12 231 -12ZM522 707Q518 677 508.5 651Q499 625 482.5 606.5Q466 588 441.5 577.5Q417 567 383 567Q350 567 329.5 578.5Q309 590 294 604Q279 618 265 629.5Q251 641 231 641Q199 641 189 623.5Q179 606 177 587H102Q106 617 115.5 643Q125 669 141.5 687.5Q158 706 182.5 716.5Q207 727 241 727Q274 727 294.5 715.5Q315 704 330 690Q345 676 359 664.5Q373 653 393 653Q425 653 435 670.5Q445 688 447 707Z" glyph-name="otilde" horiz-adv-x="526" unicode="&#245;" /><glyph d="M269 -12Q231 -12 198 -1Q165 10 140 27L106 -250H-6L86 500H152L165 460Q201 484 241.5 498Q282 512 333 512Q388 512 424 494Q460 476 479.5 442.5Q499 409 503.5 360Q508 311 501 250Q493 189 476.5 140.5Q460 92 432 58Q404 24 364 6Q324 -12 269 -12ZM255 83Q292 83 315.5 96Q339 109 354 132Q369 155 376.5 185Q384 215 388 250Q392 285 392 315.5Q392 346 383 368.5Q374 391 353.5 404Q333 417 296 417Q256 417 228 406.5Q200 396 184 388L150 112Q164 104 189.5 93.5Q215 83 255 83Z" glyph-name="p" horiz-adv-x="542" unicode="p" /><glyph d="M253 0 287 281Q216 282 170 301.5Q124 321 97.5 353Q71 385 63 427Q55 469 61 515Q67 561 85.5 603.5Q104 646 138.5 678.5Q173 711 225.5 730.5Q278 750 350 750H627L535 0H423L457 281H399L365 0ZM183 515Q180 494 182.5 470.5Q185 447 197 427.5Q209 408 233.5 395.5Q258 383 300 383L332 647Q290 647 262.5 634Q235 621 218 601.5Q201 582 193.5 559Q186 536 183 515ZM502 647H444L412 383H470Z" glyph-name="paragraph" horiz-adv-x="626" unicode="&#182;" /><glyph d="M119 -206Q103 -178 87 -130Q71 -82 60.5 -17Q50 48 47.5 129Q45 210 57 305Q69 400 91 481Q113 562 139.5 627Q166 692 194 740Q222 788 245 816H358Q335 788 307 740Q279 692 252 627Q225 562 203 481Q181 400 169 305Q157 210 159.5 129Q162 48 173 -17Q184 -82 200 -130Q216 -178 232 -206Z" glyph-name="parenleft" horiz-adv-x="318" unicode="(" /><glyph d="M-26 -206Q-4 -178 24 -130Q52 -82 79 -17Q106 48 128.5 129Q151 210 163 305Q175 400 172 481Q169 562 158.5 627Q148 692 131.5 740Q115 788 100 816H213Q228 788 244 740Q260 692 271 627Q282 562 284.5 481Q287 400 275 305Q263 210 241 129Q219 48 192 -17Q165 -82 137 -130Q109 -178 87 -206Z" glyph-name="parenright" horiz-adv-x="318" unicode=")" /><glyph d="M485 250Q478 192 463 144Q448 96 419 61.5Q390 27 344.5 7.5Q299 -12 231 -12Q164 -12 123 7.5Q82 27 61.5 61.5Q41 96 37.5 144Q34 192 41 250Q48 308 63.5 356Q79 404 107 438.5Q135 473 177.5 492.5Q220 512 282 512Q320 512 350 503Q380 494 399 476Q400 526 392 560.5Q384 595 366.5 617Q349 639 324 648.5Q299 658 268 658Q217 658 176 649.5Q135 641 102 626L115 731Q138 742 181 752Q224 762 287 762Q369 762 416 728.5Q463 695 483.5 630.5Q504 566 502 470Q500 374 485 250ZM284 418Q248 418 225 407Q202 396 188 374.5Q174 353 166.5 321.5Q159 290 154 250Q149 210 149 178.5Q149 147 158 125.5Q167 104 187 93Q207 82 243 82Q278 82 301 93Q324 104 338 125.5Q352 147 359.5 178.5Q367 210 372 250Q377 290 377 321.5Q377 353 368 374.5Q359 396 339 407Q319 418 284 418Z" glyph-name="partialdiff" horiz-adv-x="526" unicode="&#8706;" /><glyph d="M123 0 746 750H849L227 0ZM888 186Q876 86 827 37Q778 -12 684 -12Q590 -12 552.5 37Q515 86 527 186Q540 286 589.5 335Q639 384 733 384Q827 384 864 335.5Q901 287 888 186ZM629 186Q621 124 637.5 101.5Q654 79 695 79Q715 79 730.5 84Q746 89 757 101.5Q768 114 775 134.5Q782 155 786 186Q794 248 778 271Q762 294 722 294Q680 294 658.5 271Q637 248 629 186ZM444 564Q431 464 382 415Q333 366 239 366Q145 366 107.5 414.5Q70 463 83 564Q95 664 144.5 713Q194 762 288 762Q382 762 419 713Q456 664 444 564ZM185 564Q177 502 193 479Q209 456 250 456Q291 456 313 479Q335 502 343 564Q350 625 333.5 648Q317 671 277 671Q236 671 214 648Q192 625 185 564Z" glyph-name="percent" horiz-adv-x="940" unicode="%" /><glyph d="M14 61Q14 91 35.5 112.5Q57 134 87 134Q117 134 138.5 112.5Q160 91 160 61Q160 31 138.5 9.5Q117 -12 87 -12Q57 -12 35.5 9.5Q14 31 14 61Z" glyph-name="period" horiz-adv-x="220" unicode="." /><glyph d="M45 312Q45 342 66.5 363.5Q88 385 118 385Q148 385 169.5 363.5Q191 342 191 312Q191 282 169.5 260.5Q148 239 118 239Q88 239 66.5 260.5Q45 282 45 312Z" glyph-name="periodcentered" horiz-adv-x="220" unicode="&#183;" /><glyph d="M1313 186Q1301 86 1251.5 37Q1202 -12 1109 -12Q1015 -12 977.5 37Q940 86 952 186Q965 286 1014.5 335Q1064 384 1158 384Q1251 384 1288.5 335.5Q1326 287 1313 186ZM1054 186Q1046 124 1062.5 101.5Q1079 79 1120 79Q1140 79 1155.5 84Q1171 89 1182 101.5Q1193 114 1200 134.5Q1207 155 1211 186Q1219 248 1203 271Q1187 294 1147 294Q1105 294 1083.5 271Q1062 248 1054 186ZM123 0 746 750H849L227 0ZM888 186Q876 86 827 37Q778 -12 684 -12Q590 -12 552.5 37Q515 86 527 186Q540 286 589.5 335Q639 384 733 384Q827 384 864 335.5Q901 287 888 186ZM629 186Q621 124 637.5 101.5Q654 79 695 79Q715 79 730.5 84Q746 89 757 101.5Q768 114 775 134.5Q782 155 786 186Q794 248 778 271Q762 294 722 294Q680 294 658.5 271Q637 248 629 186ZM444 564Q431 464 382 415Q333 366 239 366Q145 366 107.5 414.5Q70 463 83 564Q95 664 144.5 713Q194 762 288 762Q382 762 419 713Q456 664 444 564ZM185 564Q177 502 193 479Q209 456 250 456Q291 456 313 479Q335 502 343 564Q350 625 333.5 648Q317 671 277 671Q236 671 214 648Q192 625 185 564Z" glyph-name="perthousand" horiz-adv-x="1365" unicode="&#8240;" /><glyph d="M371 393H542L529 287H358L337 116H231L252 287H81L94 393H265L286 564H392Z" glyph-name="plus" horiz-adv-x="600" unicode="+" /><glyph d="M379 462H550L537 356H366L345 185H239L260 356H89L102 462H273L294 633H400ZM50 40 63 146H511L498 40Z" glyph-name="plusminus" horiz-adv-x="600" unicode="&#177;" /><glyph d="M658 652 578 0H466L546 652H294L214 0H102L182 652H85L97 750H767L755 652Z" glyph-name="product" horiz-adv-x="740" unicode="&#8719;" /><glyph d="M209 -12Q154 -12 118 6Q82 24 62.5 58Q43 92 38 140.5Q33 189 41 250Q48 311 65 360Q82 409 110 442.5Q138 476 178 494Q218 512 273 512Q324 512 361.5 498Q399 484 429 460L452 500H518L426 -250H314L348 27Q319 10 283 -1Q247 -12 209 -12ZM247 83Q287 83 314.5 93.5Q342 104 358 112L392 388Q378 396 353 406.5Q328 417 288 417Q251 417 227.5 404Q204 391 189 368.5Q174 346 166 315.5Q158 285 154 250Q150 215 150 185Q150 155 159.5 132Q169 109 189.5 96Q210 83 247 83Z" glyph-name="q" horiz-adv-x="542" unicode="q" /><glyph d="M232 656Q210 656 187 654Q164 652 142.5 648.5Q121 645 102 640Q83 635 70 630L83 737Q109 747 156 754.5Q203 762 253 762Q333 762 380.5 745Q428 728 452 699.5Q476 671 481 633Q486 595 481 553Q475 503 456 470Q437 437 409 414.5Q381 392 346 377.5Q311 363 274 350Q248 341 234 328.5Q220 316 212.5 298.5Q205 281 201.5 259Q198 237 195 210H125Q122 228 120.5 248.5Q119 269 121 292Q125 329 145.5 361Q166 393 219 415Q248 427 273.5 437Q299 447 318.5 461Q338 475 351 496Q364 517 368 550Q371 575 366.5 595Q362 615 347 628.5Q332 642 304 649Q276 656 232 656ZM83 61Q83 91 104.5 112.5Q126 134 156 134Q186 134 207.5 112.5Q229 91 229 61Q229 31 207.5 9.5Q186 -12 156 -12Q126 -12 104.5 9.5Q83 31 83 61Z" glyph-name="question" horiz-adv-x="475" unicode="?" /><glyph d="M243 -156Q265 -156 288 -154Q311 -152 332.5 -148.5Q354 -145 373 -140Q392 -135 406 -130L392 -237Q367 -247 319.5 -254.5Q272 -262 222 -262Q142 -262 94.5 -245Q47 -228 23 -199.5Q-1 -171 -6 -133Q-11 -95 -6 -53Q0 -4 19.5 29.5Q39 63 67 85.5Q95 108 129.5 122.5Q164 137 201 150Q227 159 241 171.5Q255 184 262.5 201.5Q270 219 273.5 241Q277 263 280 290H350Q353 272 355 251.5Q357 231 354 208Q352 190 346.5 172.5Q341 155 329.5 139Q318 123 300.5 109.5Q283 96 256 85Q227 73 201.5 63Q176 53 156.5 39Q137 25 124 4Q111 -17 107 -50Q104 -75 108.5 -95Q113 -115 128 -128.5Q143 -142 171 -149Q199 -156 243 -156ZM246 439Q246 469 267.5 490.5Q289 512 319 512Q349 512 370.5 490.5Q392 469 392 439Q392 409 370.5 387.5Q349 366 319 366Q289 366 267.5 387.5Q246 409 246 439Z" glyph-name="questiondown" horiz-adv-x="475" unicode="&#191;" /><glyph d="M95 500 96 750H228L167 500ZM260 500 261 750H393L332 500Z" glyph-name="quotedbl" horiz-adv-x="365" unicode="&quot;" /><glyph d="M-42 -168 17 82H149L30 -168ZM127 -168 187 82H319L200 -168Z" glyph-name="quotedblbase" horiz-adv-x="347" unicode="&#8222;" /><glyph d="M205 750 145 500H13L132 750ZM375 750 315 500H183L302 750Z" glyph-name="quotedblleft" horiz-adv-x="336" unicode="&#8220;" /><glyph d="M54 500 114 750H246L127 500ZM224 500 284 750H416L297 500Z" glyph-name="quotedblright" horiz-adv-x="336" unicode="&#8221;" /><glyph d="M205 750 145 500H13L132 750Z" glyph-name="quoteleft" horiz-adv-x="166" unicode="&#8216;" /><glyph d="M54 500 114 750H246L127 500Z" glyph-name="quoteright" horiz-adv-x="166" unicode="&#8217;" /><glyph d="M-42 -168 17 82H149L30 -168Z" glyph-name="quotesinglbase" horiz-adv-x="177" unicode="&#8218;" /><glyph d="M95 500 96 750H228L167 500Z" glyph-name="quotesingle" horiz-adv-x="200" unicode="&apos;" /><glyph d="M370 410Q352 416 316 416Q271 416 237.5 407Q204 398 184 386L137 0H25L86 500H152L165 460Q196 483 238 497.5Q280 512 329 512Q345 512 358 510Q371 508 382 506Z" glyph-name="r" horiz-adv-x="366" unicode="r" /><glyph d="M370 410Q352 416 316 416Q271 416 237.5 407Q204 398 184 386L137 0H25L86 500H152L165 460Q196 483 238 497.5Q280 512 329 512Q345 512 358 510Q371 508 382 506ZM199 550 282 750H417L293 550Z" glyph-name="racute" horiz-adv-x="366" unicode="&#341;" /><glyph d="M835 750 307 -12H182L145 405H39L51 500H246L273 108L705 750Z" glyph-name="radical" horiz-adv-x="781" unicode="&#8730;" /><glyph d="M370 410Q352 416 316 416Q271 416 237.5 407Q204 398 184 386L137 0H25L86 500H152L165 460Q196 483 238 497.5Q280 512 329 512Q345 512 358 510Q371 508 382 506ZM364 750H459L303 550H189L83 750H178L257 637Z" glyph-name="rcaron" horiz-adv-x="366" unicode="&#345;" /><glyph d="M370 410Q352 416 316 416Q271 416 237.5 407Q204 398 184 386L137 0H25L86 500H152L165 460Q196 483 238 497.5Q280 512 329 512Q345 512 358 510Q371 508 382 506ZM142 -50 53 -250H-36L9 -50Z" glyph-name="rcommaaccent" horiz-adv-x="366" unicode="&#343;" /><glyph d="M69 625Q74 668 89 695Q104 722 125.5 737Q147 752 173 757Q199 762 227 762Q255 762 279.5 757Q304 752 322 737Q340 722 348 695Q356 668 351 625Q346 582 331 555Q316 528 294.5 513Q273 498 247 493Q221 488 193 488Q165 488 140.5 493Q116 498 98 513Q80 528 72 555Q64 582 69 625ZM184 601 178 549H141L160 701H229Q259 701 267.5 687.5Q276 674 274 654Q270 622 245 607L269 549H227L210 601ZM234 652Q236 666 220 666H192L188 635H216Q225 635 228.5 640Q232 645 234 652ZM312 625Q316 658 311 677.5Q306 697 293.5 708Q281 719 263 722.5Q245 726 223 726Q201 726 182 722.5Q163 719 148 708Q133 697 122.5 677.5Q112 658 108 625Q104 592 109.5 572.5Q115 553 127.5 542Q140 531 158 527.5Q176 524 198 524Q220 524 239 527.5Q258 531 273 542Q288 553 298 572.5Q308 592 312 625Z" glyph-name="registered" horiz-adv-x="328" unicode="&#174;" /><glyph d="M417 650Q411 597 379 572Q347 547 300 547Q254 547 227.5 572Q201 597 207 650Q214 703 246.5 728Q279 753 325 753Q372 753 398 728Q424 703 417 650ZM274 650Q272 630 281.5 621.5Q291 613 308 613Q325 613 337 621.5Q349 630 351 650Q354 670 344 678.5Q334 687 317 687Q300 687 288.5 678.5Q277 670 274 650Z" glyph-name="ring" horiz-adv-x="526" unicode="&#730;" /><glyph d="M237 850Q243 897 274 914.5Q305 932 347 932Q389 932 416 914.5Q443 897 437 850Q431 803 400 785.5Q369 768 327 768Q285 768 258 785.5Q231 803 237 850ZM371 850Q373 867 339 867Q305 867 303 850Q301 833 335 833Q369 833 371 850Z" glyph-name="ring.cap" horiz-adv-x="526" unicode="&#58410;" /><glyph d="M164 356Q161 330 176.5 317.5Q192 305 240 300Q296 295 331 284Q366 273 385.5 254.5Q405 236 410 210Q415 184 411 149Q407 117 392.5 87.5Q378 58 350.5 36Q323 14 280.5 1Q238 -12 178 -12Q126 -12 83.5 -4Q41 4 16 15L28 111Q52 102 89 92.5Q126 83 174 83Q234 83 265 97.5Q296 112 300 145Q304 173 289 187.5Q274 202 225 207Q169 212 134 223.5Q99 235 80 253Q61 271 56 296Q51 321 55 353Q59 385 73.5 414Q88 443 115 464.5Q142 486 182 499Q222 512 277 512Q328 512 364.5 506Q401 500 429 487L417 390Q386 402 351 410Q316 418 268 418Q223 418 196 404Q169 390 164 356Z" glyph-name="s" horiz-adv-x="465" unicode="s" /><glyph d="M164 356Q161 330 176.5 317.5Q192 305 240 300Q296 295 331 284Q366 273 385.5 254.5Q405 236 410 210Q415 184 411 149Q407 117 392.5 87.5Q378 58 350.5 36Q323 14 280.5 1Q238 -12 178 -12Q126 -12 83.5 -4Q41 4 16 15L28 111Q52 102 89 92.5Q126 83 174 83Q234 83 265 97.5Q296 112 300 145Q304 173 289 187.5Q274 202 225 207Q169 212 134 223.5Q99 235 80 253Q61 271 56 296Q51 321 55 353Q59 385 73.5 414Q88 443 115 464.5Q142 486 182 499Q222 512 277 512Q328 512 364.5 506Q401 500 429 487L417 390Q386 402 351 410Q316 418 268 418Q223 418 196 404Q169 390 164 356ZM218 550 301 750H436L312 550Z" glyph-name="sacute" horiz-adv-x="465" unicode="&#347;" /><glyph d="M164 356Q161 330 176.5 317.5Q192 305 240 300Q296 295 331 284Q366 273 385.5 254.5Q405 236 410 210Q415 184 411 149Q407 117 392.5 87.5Q378 58 350.5 36Q323 14 280.5 1Q238 -12 178 -12Q126 -12 83.5 -4Q41 4 16 15L28 111Q52 102 89 92.5Q126 83 174 83Q234 83 265 97.5Q296 112 300 145Q304 173 289 187.5Q274 202 225 207Q169 212 134 223.5Q99 235 80 253Q61 271 56 296Q51 321 55 353Q59 385 73.5 414Q88 443 115 464.5Q142 486 182 499Q222 512 277 512Q328 512 364.5 506Q401 500 429 487L417 390Q386 402 351 410Q316 418 268 418Q223 418 196 404Q169 390 164 356ZM383 750H478L322 550H208L102 750H197L276 637Z" glyph-name="scaron" horiz-adv-x="465" unicode="&#353;" /><glyph d="M161 -12Q114 -10 76.5 -2.5Q39 5 16 15L28 111Q52 102 89 92.5Q126 83 174 83Q234 83 265 97.5Q296 112 300 145Q304 173 289 187.5Q274 202 225 207Q169 212 134 223.5Q99 235 80 253Q61 271 56 296Q51 321 55 353Q59 385 73.5 414Q88 443 115 464.5Q142 486 182 499Q222 512 277 512Q328 512 364.5 506Q401 500 429 487L417 390Q386 402 351 410Q316 418 268 418Q223 418 196 404Q169 390 164 356Q161 330 176.5 317.5Q192 305 240 300Q296 295 331 284Q366 273 385.5 254.5Q405 236 410 210Q415 184 411 149Q407 119 395 92Q383 65 360 44Q337 23 301.5 8.5Q266 -6 217 -10L215 -60Q234 -65 250 -72Q266 -79 277 -90.5Q288 -102 293.5 -117Q299 -132 297 -153Q291 -201 255 -225.5Q219 -250 166 -250Q129 -250 105 -243Q81 -236 71 -231L80 -155Q88 -158 109.5 -165.5Q131 -173 160 -173Q186 -173 201 -166.5Q216 -160 218 -143Q221 -120 202.5 -109.5Q184 -99 143 -94Z" glyph-name="scedilla" horiz-adv-x="465" unicode="&#351;" /><glyph d="M164 356Q161 330 176.5 317.5Q192 305 240 300Q296 295 331 284Q366 273 385.5 254.5Q405 236 410 210Q415 184 411 149Q407 117 392.5 87.5Q378 58 350.5 36Q323 14 280.5 1Q238 -12 178 -12Q126 -12 83.5 -4Q41 4 16 15L28 111Q52 102 89 92.5Q126 83 174 83Q234 83 265 97.5Q296 112 300 145Q304 173 289 187.5Q274 202 225 207Q169 212 134 223.5Q99 235 80 253Q61 271 56 296Q51 321 55 353Q59 385 73.5 414Q88 443 115 464.5Q142 486 182 499Q222 512 277 512Q328 512 364.5 506Q401 500 429 487L417 390Q386 402 351 410Q316 418 268 418Q223 418 196 404Q169 390 164 356ZM279 663 172 550H77L233 750H347L453 550H358Z" glyph-name="scircumflex" horiz-adv-x="465" unicode="&#349;" /><glyph d="M164 356Q161 330 176.5 317.5Q192 305 240 300Q296 295 331 284Q366 273 385.5 254.5Q405 236 410 210Q415 184 411 149Q407 117 392.5 87.5Q378 58 350.5 36Q323 14 280.5 1Q238 -12 178 -12Q126 -12 83.5 -4Q41 4 16 15L28 111Q52 102 89 92.5Q126 83 174 83Q234 83 265 97.5Q296 112 300 145Q304 173 289 187.5Q274 202 225 207Q169 212 134 223.5Q99 235 80 253Q61 271 56 296Q51 321 55 353Q59 385 73.5 414Q88 443 115 464.5Q142 486 182 499Q222 512 277 512Q328 512 364.5 506Q401 500 429 487L417 390Q386 402 351 410Q316 418 268 418Q223 418 196 404Q169 390 164 356ZM262 -50 173 -250H84L129 -50Z" glyph-name="scommaaccent" horiz-adv-x="465" unicode="&#537;" /><glyph d="M259 60Q189 71 145 86.5Q101 102 77 125.5Q53 149 47 182.5Q41 216 47 264Q52 308 79 356Q106 404 162 437Q149 457 145.5 484Q142 511 147 546Q151 580 166 618.5Q181 657 214 688.5Q247 720 301 741Q355 762 437 762Q505 762 555.5 752Q606 742 642 725L627 612Q570 638 521.5 645.5Q473 653 422 653Q378 653 349 644Q320 635 302 620Q284 605 275.5 585Q267 565 264 543Q261 516 268.5 498.5Q276 481 293 470Q310 459 337 452.5Q364 446 400 440Q469 429 513 413.5Q557 398 581 374.5Q605 351 611 317.5Q617 284 611 236Q606 192 579 144Q552 96 495 63Q520 22 512 -46Q508 -81 492.5 -119Q477 -157 444 -188.5Q411 -220 357 -241Q303 -262 221 -262Q153 -262 102.5 -252Q52 -242 17 -225L32 -111Q90 -137 138 -145Q186 -153 237 -153Q281 -153 310 -144.5Q339 -136 357 -121Q375 -106 383 -86Q391 -66 394 -43Q397 -16 389.5 1.5Q382 19 365 30Q348 41 321 47.5Q294 54 259 60ZM371 338Q332 344 301 351.5Q270 359 247 370Q206 353 187 324Q168 295 164 263Q161 236 167 219Q173 202 189 191.5Q205 181 229.5 174.5Q254 168 287 162Q325 155 356.5 147.5Q388 140 410 130Q452 147 471 176Q490 205 495 237Q498 264 491.5 281Q485 298 469.5 308.5Q454 319 429 325.5Q404 332 371 338Z" glyph-name="section" horiz-adv-x="658" unicode="&#167;" /><glyph d="M157 106 50 -125H-29L28 106ZM53 375Q53 405 74.5 426.5Q96 448 126 448Q156 448 177.5 426.5Q199 405 199 375Q199 345 177.5 323.5Q156 302 126 302Q96 302 74.5 323.5Q53 345 53 375Z" glyph-name="semicolon" horiz-adv-x="220" unicode=";" /><glyph d="M79 0 480 649 99 647 112 750H612L603 676L209 0Z" glyph-name="seven" horiz-adv-x="600" unicode="7" /><glyph d="M398 657Q347 657 311 638.5Q275 620 250.5 585.5Q226 551 211 503Q196 455 189 396Q215 428 256.5 450.5Q298 473 361 473Q430 473 467.5 449.5Q505 426 521.5 390Q538 354 539 311Q540 268 536 230Q531 192 517 149.5Q503 107 474 71Q445 35 397 11.5Q349 -12 276 -12Q196 -12 150.5 12.5Q105 37 84.5 82Q64 127 63.5 191Q63 255 72 333Q83 424 103.5 502.5Q124 581 162 639Q200 697 258.5 729.5Q317 762 405 762Q469 762 513.5 751Q558 740 578 728L565 621Q536 635 497 646Q458 657 398 657ZM176 230Q173 203 174.5 178Q176 153 187.5 133Q199 113 223 101Q247 89 288 89Q326 89 351 102.5Q376 116 391 136.5Q406 157 413.5 182Q421 207 424 230Q427 253 426.5 278Q426 303 416.5 323.5Q407 344 385 357.5Q363 371 323 371Q283 371 256 357.5Q229 344 212 323Q195 302 187 277Q179 252 176 230Z" glyph-name="six" horiz-adv-x="600" unicode="6" /><glyph d="M-54 -200 413 800H531L63 -200Z" glyph-name="slash" horiz-adv-x="463" unicode="/" /><glyph glyph-name="space" horiz-adv-x="200" unicode=" " /><glyph d="M130 422 147 561Q152 603 168.5 640Q185 677 216.5 704Q248 731 295.5 746.5Q343 762 411 762Q435 762 460.5 759.5Q486 757 510 753Q534 749 555.5 743Q577 737 592 730L580 631Q548 642 503.5 651.5Q459 661 408 661Q339 661 302.5 635Q266 609 258 551L242 422H494L483 328H231L203 103H535L523 0H3L15 103H91L119 328H43L54 422Z" glyph-name="sterling" horiz-adv-x="600" unicode="&#163;" /><glyph d="M634 750 622 652 263 654 499 417 491 352 171 96 577 98 565 0H-1L9 87L380 385L109 664L120 750Z" glyph-name="summation" horiz-adv-x="624" unicode="&#8721;" /><glyph d="M311 -5Q297 -8 279 -10Q261 -12 248 -12Q164 -12 122.5 25.5Q81 63 91 144L123 405H32L41 474L135 500L150 619L265 651L247 500H388L376 405H235L205 157Q200 119 217.5 101Q235 83 278 83Q291 83 302 84Q313 85 322 87Z" glyph-name="t" horiz-adv-x="380" unicode="t" /><glyph d="M311 -5Q297 -8 279 -10Q261 -12 248 -12Q164 -12 122.5 25.5Q81 63 91 144L101 227H10L21 313H112L123 405H32L41 474L135 500L150 619L265 651L247 500H388L376 405H235L224 313H335L324 227H213L205 157Q200 119 217.5 101Q235 83 278 83Q291 83 302 84Q313 85 322 87Z" glyph-name="tbar" horiz-adv-x="380" unicode="&#359;" /><glyph d="M311 -5Q297 -8 279 -10Q261 -12 248 -12Q164 -12 122.5 25.5Q81 63 91 144L123 405H32L41 474L135 500L150 619L265 651L247 500H388L376 405H235L205 157Q200 119 217.5 101Q235 83 278 83Q291 83 302 84Q313 85 322 87ZM433 750 360 550H304L345 750Z" glyph-name="tcaron" horiz-adv-x="380" unicode="&#357;" /><glyph d="M311 -5Q297 -8 279 -10Q261 -12 248 -12Q164 -12 122.5 25.5Q81 63 91 144L123 405H32L41 474L135 500L150 619L265 651L247 500H388L376 405H235L205 157Q200 119 217.5 101Q235 83 278 83Q291 83 302 84Q313 85 322 87ZM259 -50 170 -250H81L126 -50Z" glyph-name="tcommaaccent" horiz-adv-x="380" unicode="&#355;" /><glyph d="M117 750H229L195 473Q224 490 259.5 501Q295 512 333 512Q388 512 424 494Q460 476 479.5 442Q499 408 503.5 359.5Q508 311 501 250Q493 189 476.5 140.5Q460 92 432 58Q404 24 364 6Q324 -12 269 -12Q231 -12 198 -1Q165 10 140 27L106 -250H-6ZM388 250Q392 284 392 314.5Q392 345 383 368Q374 391 353.5 404Q333 417 296 417Q256 417 228 406.5Q200 396 184 388L150 112Q164 104 189.5 93.5Q215 83 255 83Q292 83 315.5 96Q339 109 354 132Q369 155 376.5 185Q384 215 388 250Z" glyph-name="thorn" horiz-adv-x="542" unicode="&#254;" /><glyph d="M293 659Q242 659 196 650Q150 641 101 621L114 728Q130 735 153 741.5Q176 748 203 752.5Q230 757 259.5 759.5Q289 762 318 762Q388 762 436.5 747.5Q485 733 513.5 706.5Q542 680 552.5 642Q563 604 557 557Q550 500 517.5 457.5Q485 415 440 395Q491 381 519.5 335Q548 289 540 220Q534 169 512.5 126Q491 83 453 52.5Q415 22 358.5 5Q302 -12 225 -12Q166 -12 113 -3Q60 6 26 22L39 129Q84 109 132.5 100.5Q181 92 233 92Q282 92 316 101.5Q350 111 372.5 128Q395 145 407 168.5Q419 192 423 220Q431 286 397.5 311.5Q364 337 289 337H149L161 439H304Q365 439 399 468.5Q433 498 439 546Q446 601 412.5 630Q379 659 293 659Z" glyph-name="three" horiz-adv-x="600" unicode="3" /><glyph d="M217 0 840 750H943L320 0ZM223 329Q199 329 174.5 331Q150 333 128 336Q106 339 88 343.5Q70 348 60 353L71 447Q98 439 139.5 431.5Q181 424 226 424Q282 424 305 436.5Q328 449 330 469Q333 492 321 502Q309 512 277 512H147L157 589H282Q312 589 324 600Q336 611 338 628Q340 645 321 656Q302 667 254 667Q209 667 169 660Q129 653 103 645L114 738Q138 748 182.5 755Q227 762 275 762Q362 762 407 733.5Q452 705 445 645Q440 612 424 591.5Q408 571 388 563Q415 553 429.5 527.5Q444 502 439 460Q431 399 377 364Q323 329 223 329ZM950 0H849L860 92H628L636 159L895 421H1001L972 184H1047L1036 92H961ZM773 183 871 184 888 297Z" glyph-name="threequarters" horiz-adv-x="1098" unicode="&#190;" /><glyph d="M223 329Q199 329 174.5 331Q150 333 128 336Q106 339 88 343.5Q70 348 60 353L71 447Q98 439 139.5 431.5Q181 424 226 424Q282 424 305 436.5Q328 449 330 469Q333 492 321 502Q309 512 277 512H147L157 589H282Q312 589 324 600Q336 611 338 628Q340 645 321 656Q302 667 254 667Q209 667 169 660Q129 653 103 645L114 738Q138 748 182.5 755Q227 762 275 762Q362 762 407 733.5Q452 705 445 645Q440 612 424 591.5Q408 571 388 563Q415 553 429.5 527.5Q444 502 439 460Q431 399 377 364Q323 329 223 329Z" glyph-name="threesuperior" horiz-adv-x="449" unicode="&#179;" /><glyph d="M522 707Q518 677 508.5 651Q499 625 482.5 606.5Q466 588 441.5 577.5Q417 567 383 567Q350 567 329.5 578.5Q309 590 294 604Q279 618 265 629.5Q251 641 231 641Q199 641 189 623.5Q179 606 177 587H102Q106 617 115.5 643Q125 669 141.5 687.5Q158 706 182.5 716.5Q207 727 241 727Q274 727 294.5 715.5Q315 704 330 690Q345 676 359 664.5Q373 653 393 653Q425 653 435 670.5Q445 688 447 707Z" glyph-name="tilde" horiz-adv-x="526" unicode="&#732;" /><glyph d="M542 905Q534 842 500.5 809.5Q467 777 407 777Q380 777 359.5 787Q339 797 322 808.5Q305 820 289 830Q273 840 254 840Q240 840 230.5 836Q221 832 215.5 825Q210 818 207 810Q204 802 203 795H132Q140 858 173.5 890.5Q207 923 267 923Q294 923 314.5 913Q335 903 352 891.5Q369 880 385 870Q401 860 420 860Q448 860 458.5 875Q469 890 471 905Z" glyph-name="tilde.cap" horiz-adv-x="526" unicode="&#58404;" /><glyph d="M403 516 361 647 346 500H284L315 750H390L437 597L522 750H597L566 500H504L525 647L451 516ZM201 690 178 500H111L134 690H65L73 750H278L270 690Z" glyph-name="trademark" horiz-adv-x="575" unicode="&#8482;" /><glyph d="M457 547Q460 571 456.5 591.5Q453 612 439.5 627Q426 642 401.5 650.5Q377 659 337 659Q289 659 243 649.5Q197 640 145 620L158 727Q194 743 244.5 752.5Q295 762 356 762Q432 762 477.5 743.5Q523 725 546 695.5Q569 666 573.5 628Q578 590 573 551Q568 509 548.5 464.5Q529 420 485 367.5Q441 315 368 250Q295 185 182 102L528 106L515 0H25L34 79Q129 155 197 212.5Q265 270 311 314Q357 358 384.5 391Q412 424 427 451Q442 478 448 500.5Q454 523 457 547Z" glyph-name="two" horiz-adv-x="600" unicode="2" /><glyph d="M48 341 57 413Q134 458 182 489Q230 520 256.5 542.5Q283 565 293.5 581.5Q304 598 306 615Q309 638 294.5 652.5Q280 667 240 667Q202 667 164.5 658.5Q127 650 102 640L114 737Q125 741 142 745.5Q159 750 179 754Q199 758 220 760Q241 762 260 762Q312 762 345 751Q378 740 396 721.5Q414 703 419.5 679Q425 655 422 629Q418 597 398 570Q378 543 348 519Q318 495 281 474Q244 453 207 433L409 434L397 341Z" glyph-name="twosuperior" horiz-adv-x="427" unicode="&#178;" /><glyph d="M194 500 152 157Q143 83 222 83Q261 83 289.5 92Q318 101 340 112L388 500H500L439 0H373L359 40Q317 14 274.5 1Q232 -12 191 -12Q143 -12 112 -0.5Q81 11 63 31.5Q45 52 39.5 81.5Q34 111 39 147L82 500Z" glyph-name="u" horiz-adv-x="524" unicode="u" /><glyph d="M194 500 152 157Q143 83 222 83Q261 83 289.5 92Q318 101 340 112L388 500H500L439 0H373L359 40Q317 14 274.5 1Q232 -12 191 -12Q143 -12 112 -0.5Q81 11 63 31.5Q45 52 39.5 81.5Q34 111 39 147L82 500ZM251 550 334 750H469L345 550Z" glyph-name="uacute" horiz-adv-x="524" unicode="&#250;" /><glyph d="M194 500 152 157Q143 83 222 83Q261 83 289.5 92Q318 101 340 112L388 500H500L439 0H373L359 40Q317 14 274.5 1Q232 -12 191 -12Q143 -12 112 -0.5Q81 11 63 31.5Q45 52 39.5 81.5Q34 111 39 147L82 500ZM298 550Q248 550 215 561Q182 572 163.5 596Q145 620 139.5 658Q134 696 140 750H217Q210 693 230 666Q250 639 309 639Q368 639 394.5 666Q421 693 429 750H506Q498 696 483.5 658Q469 620 444 596Q419 572 383 561Q347 550 298 550Z" glyph-name="ubreve" horiz-adv-x="524" unicode="&#365;" /><glyph d="M194 500 152 157Q143 83 222 83Q261 83 289.5 92Q318 101 340 112L388 500H500L439 0H373L359 40Q317 14 274.5 1Q232 -12 191 -12Q143 -12 112 -0.5Q81 11 63 31.5Q45 52 39.5 81.5Q34 111 39 147L82 500ZM312 663 205 550H110L266 750H380L486 550H391Z" glyph-name="ucircumflex" horiz-adv-x="524" unicode="&#251;" /><glyph d="M194 500 152 157Q143 83 222 83Q261 83 289.5 92Q318 101 340 112L388 500H500L439 0H373L359 40Q317 14 274.5 1Q232 -12 191 -12Q143 -12 112 -0.5Q81 11 63 31.5Q45 52 39.5 81.5Q34 111 39 147L82 500ZM343 648Q343 678 364.5 699.5Q386 721 416 721Q446 721 467.5 699.5Q489 678 489 648Q489 618 467.5 596.5Q446 575 416 575Q386 575 364.5 596.5Q343 618 343 648ZM131 648Q131 678 152.5 699.5Q174 721 204 721Q234 721 255.5 699.5Q277 678 277 648Q277 618 255.5 596.5Q234 575 204 575Q174 575 152.5 596.5Q131 618 131 648Z" glyph-name="udieresis" horiz-adv-x="524" unicode="&#252;" /><glyph d="M194 500 152 157Q143 83 222 83Q261 83 289.5 92Q318 101 340 112L388 500H500L439 0H373L359 40Q317 14 274.5 1Q232 -12 191 -12Q143 -12 112 -0.5Q81 11 63 31.5Q45 52 39.5 81.5Q34 111 39 147L82 500ZM251 550 177 750H312L345 550Z" glyph-name="ugrave" horiz-adv-x="524" unicode="&#249;" /><glyph d="M194 500 152 157Q143 83 222 83Q261 83 289.5 92Q318 101 340 112L388 500H500L439 0H373L359 40Q317 14 274.5 1Q232 -12 191 -12Q143 -12 112 -0.5Q81 11 63 31.5Q45 52 39.5 81.5Q34 111 39 147L82 500ZM166 550 249 750H384L260 550ZM336 550 419 750H554L430 550Z" glyph-name="uhungarumlaut" horiz-adv-x="524" unicode="&#369;" /><glyph d="M194 500 152 157Q143 83 222 83Q261 83 289.5 92Q318 101 340 112L388 500H500L439 0H373L359 40Q317 14 274.5 1Q232 -12 191 -12Q143 -12 112 -0.5Q81 11 63 31.5Q45 52 39.5 81.5Q34 111 39 147L82 500ZM170 694H462L451 605H159Z" glyph-name="umacron" horiz-adv-x="524" unicode="&#363;" /><glyph d="M-41 -95H252L241 -186H-52Z" glyph-name="underscore" horiz-adv-x="294" unicode="_" /><glyph d="M287 261H32L44 362H299Z" glyph-name="uni00AD" horiz-adv-x="315" unicode="&#173;" /><glyph d="M194 500 152 157Q143 83 222 83Q261 83 289.5 92Q318 101 340 112L388 500H500L439 0Q417 -9 396 -21.5Q375 -34 358.5 -49Q342 -64 331 -83Q320 -102 317 -125Q314 -148 327 -162Q340 -176 367 -176Q388 -176 405 -173Q422 -170 431 -167L423 -235Q410 -240 389 -245Q368 -250 336 -250Q311 -250 289.5 -243Q268 -236 252.5 -222.5Q237 -209 230 -188.5Q223 -168 226 -141Q228 -122 236.5 -101.5Q245 -81 261 -60Q277 -39 302.5 -18.5Q328 2 365 21L359 40Q317 14 274.5 1Q232 -12 191 -12Q143 -12 112 -0.5Q81 11 63 31.5Q45 52 39.5 81.5Q34 111 39 147L82 500Z" glyph-name="uogonek" horiz-adv-x="524" unicode="&#371;" /><glyph d="M194 500 152 157Q143 83 222 83Q261 83 289.5 92Q318 101 340 112L388 500H500L439 0H373L359 40Q317 14 274.5 1Q232 -12 191 -12Q143 -12 112 -0.5Q81 11 63 31.5Q45 52 39.5 81.5Q34 111 39 147L82 500ZM415 650Q409 597 377 572Q345 547 298 547Q252 547 225.5 572Q199 597 205 650Q212 703 244.5 728Q277 753 323 753Q370 753 396 728Q422 703 415 650ZM272 650Q270 630 279.5 621.5Q289 613 306 613Q323 613 335 621.5Q347 630 349 650Q352 670 342 678.5Q332 687 315 687Q298 687 286.5 678.5Q275 670 272 650Z" glyph-name="uring" horiz-adv-x="524" unicode="&#367;" /><glyph d="M194 500 152 157Q143 83 222 83Q261 83 289.5 92Q318 101 340 112L388 500H500L439 0H373L359 40Q317 14 274.5 1Q232 -12 191 -12Q143 -12 112 -0.5Q81 11 63 31.5Q45 52 39.5 81.5Q34 111 39 147L82 500ZM520 707Q516 677 506.5 651Q497 625 480.5 606.5Q464 588 439.5 577.5Q415 567 381 567Q348 567 327.5 578.5Q307 590 292 604Q277 618 263 629.5Q249 641 229 641Q197 641 187 623.5Q177 606 175 587H100Q104 617 113.5 643Q123 669 139.5 687.5Q156 706 180.5 716.5Q205 727 239 727Q272 727 292.5 715.5Q313 704 328 690Q343 676 357 664.5Q371 653 391 653Q423 653 433 670.5Q443 688 445 707Z" glyph-name="utilde" horiz-adv-x="524" unicode="&#361;" /><glyph d="M165 500 236 138 397 500H518L264 -9H172L44 500Z" glyph-name="v" horiz-adv-x="500" unicode="v" /><glyph d="M212 -9H117L49 500H163L189 156L328 500H430L485 156L595 500H709L515 -9H420L363 368Z" glyph-name="w" horiz-adv-x="696" unicode="w" /><glyph d="M212 -9H117L49 500H163L189 156L328 500H430L485 156L595 500H709L515 -9H420L363 368ZM338 550 421 750H556L432 550Z" glyph-name="wacute" horiz-adv-x="696" unicode="&#7811;" /><glyph d="M212 -9H117L49 500H163L189 156L328 500H430L485 156L595 500H709L515 -9H420L363 368ZM399 663 292 550H197L353 750H467L573 550H478Z" glyph-name="wcircumflex" horiz-adv-x="696" unicode="&#373;" /><glyph d="M212 -9H117L49 500H163L189 156L328 500H430L485 156L595 500H709L515 -9H420L363 368ZM430 648Q430 678 451.5 699.5Q473 721 503 721Q533 721 554.5 699.5Q576 678 576 648Q576 618 554.5 596.5Q533 575 503 575Q473 575 451.5 596.5Q430 618 430 648ZM218 648Q218 678 239.5 699.5Q261 721 291 721Q321 721 342.5 699.5Q364 678 364 648Q364 618 342.5 596.5Q321 575 291 575Q261 575 239.5 596.5Q218 618 218 648Z" glyph-name="wdieresis" horiz-adv-x="696" unicode="&#7813;" /><glyph d="M212 -9H117L49 500H163L189 156L328 500H430L485 156L595 500H709L515 -9H420L363 368ZM338 550 264 750H399L432 550Z" glyph-name="wgrave" horiz-adv-x="696" unicode="&#7809;" /><glyph d="M247 185 114 0H-15L186 257L57 500H184L265 326L388 500H515L326 257L465 0H336Z" glyph-name="x" horiz-adv-x="510" unicode="x" /><glyph d="M20 -138Q98 -167 174 -167Q216 -167 243 -157.5Q270 -148 286 -132Q302 -116 309.5 -94.5Q317 -73 320 -49L329 22Q294 5 259 -3.5Q224 -12 191 -12Q143 -12 112 -0.5Q81 11 63 31.5Q45 52 39.5 81.5Q34 111 39 147L82 500H194L152 157Q143 83 222 83Q261 83 289.5 92Q318 101 340 112L388 500H500L434 -35Q428 -81 414.5 -122.5Q401 -164 371 -195Q341 -226 290.5 -244Q240 -262 162 -262Q122 -262 81 -255.5Q40 -249 7 -237Z" glyph-name="y" horiz-adv-x="524" unicode="y" /><glyph d="M20 -138Q98 -167 174 -167Q216 -167 243 -157.5Q270 -148 286 -132Q302 -116 309.5 -94.5Q317 -73 320 -49L329 22Q294 5 259 -3.5Q224 -12 191 -12Q143 -12 112 -0.5Q81 11 63 31.5Q45 52 39.5 81.5Q34 111 39 147L82 500H194L152 157Q143 83 222 83Q261 83 289.5 92Q318 101 340 112L388 500H500L434 -35Q428 -81 414.5 -122.5Q401 -164 371 -195Q341 -226 290.5 -244Q240 -262 162 -262Q122 -262 81 -255.5Q40 -249 7 -237ZM251 550 334 750H469L345 550Z" glyph-name="yacute" horiz-adv-x="524" unicode="&#253;" /><glyph d="M20 -138Q98 -167 174 -167Q216 -167 243 -157.5Q270 -148 286 -132Q302 -116 309.5 -94.5Q317 -73 320 -49L329 22Q294 5 259 -3.5Q224 -12 191 -12Q143 -12 112 -0.5Q81 11 63 31.5Q45 52 39.5 81.5Q34 111 39 147L82 500H194L152 157Q143 83 222 83Q261 83 289.5 92Q318 101 340 112L388 500H500L434 -35Q428 -81 414.5 -122.5Q401 -164 371 -195Q341 -226 290.5 -244Q240 -262 162 -262Q122 -262 81 -255.5Q40 -249 7 -237ZM312 663 205 550H110L266 750H380L486 550H391Z" glyph-name="ycircumflex" horiz-adv-x="524" unicode="&#375;" /><glyph d="M20 -138Q98 -167 174 -167Q216 -167 243 -157.5Q270 -148 286 -132Q302 -116 309.5 -94.5Q317 -73 320 -49L329 22Q294 5 259 -3.5Q224 -12 191 -12Q143 -12 112 -0.5Q81 11 63 31.5Q45 52 39.5 81.5Q34 111 39 147L82 500H194L152 157Q143 83 222 83Q261 83 289.5 92Q318 101 340 112L388 500H500L434 -35Q428 -81 414.5 -122.5Q401 -164 371 -195Q341 -226 290.5 -244Q240 -262 162 -262Q122 -262 81 -255.5Q40 -249 7 -237ZM343 648Q343 678 364.5 699.5Q386 721 416 721Q446 721 467.5 699.5Q489 678 489 648Q489 618 467.5 596.5Q446 575 416 575Q386 575 364.5 596.5Q343 618 343 648ZM131 648Q131 678 152.5 699.5Q174 721 204 721Q234 721 255.5 699.5Q277 678 277 648Q277 618 255.5 596.5Q234 575 204 575Q174 575 152.5 596.5Q131 618 131 648Z" glyph-name="ydieresis" horiz-adv-x="524" unicode="&#255;" /><glyph d="M252 250H33L45 344H238L213 406H52L64 500H175L75 750H207L328 399L537 750H669L506 500H618L606 406H445L405 344H599L587 250H368L338 0H222Z" glyph-name="yen" horiz-adv-x="600" unicode="&#165;" /><glyph d="M-13 0 -4 79 290 402 54 401 66 500H446L436 421L143 98L408 99L396 0Z" glyph-name="z" horiz-adv-x="439" unicode="z" /><glyph d="M-13 0 -4 79 290 402 54 401 66 500H446L436 421L143 98L408 99L396 0ZM228 550 311 750H446L322 550Z" glyph-name="zacute" horiz-adv-x="469" unicode="&#378;" /><glyph d="M-13 0 -4 79 290 402 54 401 66 500H446L436 421L143 98L408 99L396 0ZM393 750H488L332 550H218L112 750H207L286 637Z" glyph-name="zcaron" horiz-adv-x="469" unicode="&#158;" /><glyph d="M-13 0 -4 79 290 402 54 401 66 500H446L436 421L143 98L408 99L396 0ZM214 648Q214 678 235.5 699.5Q257 721 287 721Q317 721 338.5 699.5Q360 678 360 648Q360 618 338.5 596.5Q317 575 287 575Q257 575 235.5 596.5Q214 618 214 648Z" glyph-name="zdotaccent" horiz-adv-x="469" unicode="&#380;" /><glyph d="M74 375Q86 473 103.5 545.5Q121 618 153 666Q185 714 235.5 738Q286 762 363 762Q440 762 484.5 738Q529 714 549.5 666Q570 618 570 545.5Q570 473 558 375Q546 277 528 204.5Q510 132 478 84Q446 36 395.5 12Q345 -12 268 -12Q191 -12 146.5 12Q102 36 81.5 84Q61 132 61.5 204.5Q62 277 74 375ZM446 375Q455 447 458 500.5Q461 554 452.5 589.5Q444 625 420.5 642.5Q397 660 351 660Q305 660 277 642.5Q249 625 231.5 589.5Q214 554 204.5 500.5Q195 447 186 375Q177 303 173.5 249.5Q170 196 178.5 160.5Q187 125 211 107.5Q235 90 281 90Q327 90 355 107.5Q383 125 400 160.5Q417 196 427 249.5Q437 303 446 375Z" glyph-name="zero" horiz-adv-x="600" unicode="0" /></font>
</defs>
</svg>
