<?xml version="1.0" standalone="no"?><!DOCTYPE svg PUBLIC "-//W3C//DTD SVG 1.1//EN" "http://www.w3.org/Graphics/SVG/1.1/DTD/svg11.dtd" ><svg version="1.1" xmlns="http://www.w3.org/2000/svg"><defs><font horiz-adv-x="0" id="font"><font-face ascent="750" bbox="-210 -266 1430 990" cap-height="750" descent="-250" font-family="Apex New Web" font-stretch="normal" font-style="normal" font-weight="600" units-per-em="1000" x-height="500" /><missing-glyph d="M65 750H815V0H65ZM440 422 702 684H178ZM178 66H702L440 328ZM744 118V632L487 375ZM136 632V118L393 375Z" horiz-adv-x="880" /><glyph glyph-name=".null" horiz-adv-x="0" /><glyph d="M241 136 213 0H7L191 754H449L633 0H427L399 136ZM320 571 271 285H369Z" glyph-name="A" horiz-adv-x="640" unicode="A" /><glyph d="M896 298H628L641 175H925V0H457L442 136H268L221 0H4L303 750H925V575H599L610 473H896ZM319 285H427L403 562Z" glyph-name="AE" horiz-adv-x="953" unicode="&#198;" /><glyph d="M241 136 213 0H7L191 754H449L633 0H427L399 136ZM320 571 271 285H369ZM240 786 286 910H480L400 786Z" glyph-name="Aacute" horiz-adv-x="640" unicode="&#193;" /><glyph d="M241 136 213 0H7L191 754H449L633 0H427L399 136ZM320 571 271 285H369ZM320 776Q266 776 226.5 781Q187 786 161.5 800.5Q136 815 123.5 841Q111 867 110 910H234Q234 887 253 878.5Q272 870 320 870Q368 870 387 878.5Q406 887 406 910H530Q529 867 516.5 841Q504 815 478.5 800.5Q453 786 413.5 781Q374 776 320 776Z" glyph-name="Abreve" horiz-adv-x="640" unicode="&#258;" /><glyph d="M241 136 213 0H7L191 754H449L633 0H427L399 136ZM320 571 271 285H369ZM110 786 236 910H404L530 786H385L320 826L255 786Z" glyph-name="Acircumflex" horiz-adv-x="640" unicode="&#194;" /><glyph d="M241 136 213 0H7L191 754H449L633 0H427L399 136ZM320 571 271 285H369ZM335 848Q335 871 343.5 885Q352 899 367 907Q382 915 402 917.5Q422 920 445 920Q468 920 488 917.5Q508 915 523 907Q538 899 546.5 885Q555 871 555 848Q555 825 546.5 811Q538 797 523 789Q508 781 488 778.5Q468 776 445 776Q422 776 402 778.5Q382 781 367 789Q352 797 343.5 811Q335 825 335 848ZM85 848Q85 871 93.5 885Q102 899 117 907Q132 915 152 917.5Q172 920 195 920Q218 920 238 917.5Q258 915 273 907Q288 899 296.5 885Q305 871 305 848Q305 825 296.5 811Q288 797 273 789Q258 781 238 778.5Q218 776 195 776Q172 776 152 778.5Q132 781 117 789Q102 797 93.5 811Q85 825 85 848Z" glyph-name="Adieresis" horiz-adv-x="640" unicode="&#196;" /><glyph d="M241 136 213 0H7L191 754H449L633 0H427L399 136ZM320 571 271 285H369ZM160 910H354L400 786H240Z" glyph-name="Agrave" horiz-adv-x="640" unicode="&#192;" /><glyph d="M241 136 213 0H7L191 754H449L633 0H427L399 136ZM320 571 271 285H369ZM476 786H164V910H476Z" glyph-name="Amacron" horiz-adv-x="640" unicode="&#256;" /><glyph d="M241 136 213 0H7L191 754H449L633 0Q577 -15 550 -43.5Q523 -72 523 -99Q523 -120 537.5 -132.5Q552 -145 583 -145Q606 -145 620.5 -141.5Q635 -138 643 -136V-234Q629 -239 606 -244.5Q583 -250 541 -250Q472 -250 427.5 -218.5Q383 -187 383 -127Q383 -95 396 -68.5Q409 -42 431 -21L399 136ZM320 571 271 285H369Z" glyph-name="Aogonek" horiz-adv-x="640" unicode="&#260;" /><glyph d="M241 136 213 0H7L191 754H449L633 0H427L399 136ZM320 571 271 285H369ZM320 777Q263 777 233.5 790.5Q204 804 204 847Q204 891 233.5 905Q263 919 320 919Q377 919 406.5 905Q436 891 436 848Q436 804 406.5 790.5Q377 777 320 777ZM320 831Q348 831 348 847Q348 864 320 864Q292 864 292 848Q292 831 320 831Z" glyph-name="Aring" horiz-adv-x="640" unicode="&#197;" /><glyph d="M241 136 213 0H7L191 754H449L633 0H427L399 136ZM320 571 271 285H369ZM542 904Q542 866 532.5 841Q523 816 506 802Q489 788 465.5 782.5Q442 777 415 777Q386 777 363 784Q340 791 320.5 799Q301 807 284.5 814Q268 821 251 821Q225 821 216 811Q207 801 207 786H98V792Q98 830 107.5 854.5Q117 879 134 893.5Q151 908 174.5 913.5Q198 919 225 919Q254 919 277 912Q300 905 319.5 897Q339 889 355.5 882Q372 875 389 875Q415 875 424 885Q433 895 433 910H542Z" glyph-name="Atilde" horiz-adv-x="640" unicode="&#195;" /><glyph d="M37 750H324Q399 750 447 733.5Q495 717 523 688.5Q551 660 562 620Q573 580 573 534Q573 490 552.5 454.5Q532 419 499 397Q539 379 566.5 338.5Q594 298 594 233Q594 184 582 141.5Q570 99 540 67.5Q510 36 458.5 18Q407 0 328 0H37ZM389 238Q389 273 373 294Q357 315 320 315H233V161H320Q358 161 373.5 182Q389 203 389 238ZM367 524Q367 549 355.5 569Q344 589 309 589H233V459H309Q344 459 355.5 479Q367 499 367 524Z" glyph-name="B" horiz-adv-x="610" unicode="B" /><glyph d="M29 375Q30 579 111.5 672.5Q193 766 362 766Q430 766 470 755.5Q510 745 536 735L534 560Q499 572 465 579.5Q431 587 384 587Q346 587 316.5 577Q287 567 267 543Q247 519 236.5 478Q226 437 226 375Q226 312 236.5 271Q247 230 267 206Q287 182 316.5 172.5Q346 163 384 163Q431 163 465 170.5Q499 178 534 190L536 15Q510 4 470 -6Q430 -16 362 -16Q278 -16 215.5 6.5Q153 29 111.5 77Q70 125 49.5 199Q29 273 29 375Z" glyph-name="C" horiz-adv-x="563" unicode="C" /><glyph d="M29 375Q30 579 111.5 672.5Q193 766 362 766Q430 766 470 755.5Q510 745 536 735L534 560Q499 572 465 579.5Q431 587 384 587Q346 587 316.5 577Q287 567 267 543Q247 519 236.5 478Q226 437 226 375Q226 312 236.5 271Q247 230 267 206Q287 182 316.5 172.5Q346 163 384 163Q431 163 465 170.5Q499 178 534 190L536 15Q510 4 470 -6Q430 -16 362 -16Q278 -16 215.5 6.5Q153 29 111.5 77Q70 125 49.5 199Q29 273 29 375ZM256 786 302 910H496L416 786Z" glyph-name="Cacute" horiz-adv-x="563" unicode="&#262;" /><glyph d="M29 375Q30 579 111.5 672.5Q193 766 362 766Q430 766 470 755.5Q510 745 536 735L534 560Q499 572 465 579.5Q431 587 384 587Q346 587 316.5 577Q287 567 267 543Q247 519 236.5 478Q226 437 226 375Q226 312 236.5 271Q247 230 267 206Q287 182 316.5 172.5Q346 163 384 163Q431 163 465 170.5Q499 178 534 190L536 15Q510 4 470 -6Q430 -16 362 -16Q278 -16 215.5 6.5Q153 29 111.5 77Q70 125 49.5 199Q29 273 29 375ZM546 910 420 786H252L126 910H271L336 870L401 910Z" glyph-name="Ccaron" horiz-adv-x="563" unicode="&#268;" /><glyph d="M295 -12Q160 4 95 97.5Q30 191 29 375Q30 579 111.5 672.5Q193 766 362 766Q430 766 470 755.5Q510 745 536 735L534 560Q499 572 465 579.5Q431 587 384 587Q346 587 316.5 577Q287 567 267 543Q247 519 236.5 478Q226 437 226 375Q226 312 236.5 271Q247 230 267 206Q287 182 316.5 172.5Q346 163 384 163Q431 163 465 170.5Q499 178 534 190L536 15Q511 4 475 -5Q439 -14 379 -16L381 -47Q435 -61 458.5 -85.5Q482 -110 482 -145Q482 -200 441 -225Q400 -250 336 -250Q301 -250 273.5 -245Q246 -240 232 -234V-136Q242 -139 265 -143Q288 -147 311 -147Q363 -147 363 -122Q363 -110 348 -100Q333 -90 288 -84Z" glyph-name="Ccedilla" horiz-adv-x="563" unicode="&#199;" /><glyph d="M29 375Q30 579 111.5 672.5Q193 766 362 766Q430 766 470 755.5Q510 745 536 735L534 560Q499 572 465 579.5Q431 587 384 587Q346 587 316.5 577Q287 567 267 543Q247 519 236.5 478Q226 437 226 375Q226 312 236.5 271Q247 230 267 206Q287 182 316.5 172.5Q346 163 384 163Q431 163 465 170.5Q499 178 534 190L536 15Q510 4 470 -6Q430 -16 362 -16Q278 -16 215.5 6.5Q153 29 111.5 77Q70 125 49.5 199Q29 273 29 375ZM126 786 252 910H420L546 786H401L336 826L271 786Z" glyph-name="Ccircumflex" horiz-adv-x="563" unicode="&#264;" /><glyph d="M29 375Q30 579 111.5 672.5Q193 766 362 766Q430 766 470 755.5Q510 745 536 735L534 560Q499 572 465 579.5Q431 587 384 587Q346 587 316.5 577Q287 567 267 543Q247 519 236.5 478Q226 437 226 375Q226 312 236.5 271Q247 230 267 206Q287 182 316.5 172.5Q346 163 384 163Q431 163 465 170.5Q499 178 534 190L536 15Q510 4 470 -6Q430 -16 362 -16Q278 -16 215.5 6.5Q153 29 111.5 77Q70 125 49.5 199Q29 273 29 375ZM226 848Q226 871 234.5 885Q243 899 258 907Q273 915 293 917.5Q313 920 336 920Q359 920 379 917.5Q399 915 414 907Q429 899 437.5 885Q446 871 446 848Q446 825 437.5 811Q429 797 414 789Q399 781 379 778.5Q359 776 336 776Q313 776 293 778.5Q273 781 258 789Q243 797 234.5 811Q226 825 226 848Z" glyph-name="Cdotaccent" horiz-adv-x="563" unicode="&#266;" /><glyph d="M37 0V750H293Q392 750 455 721Q518 692 554.5 642Q591 592 605 523Q619 454 619 375Q619 295 605 226.5Q591 158 554.5 107.5Q518 57 455 28.5Q392 0 293 0ZM233 171H294Q331 171 355 184Q379 197 393 222.5Q407 248 412.5 286Q418 324 418 375Q418 425 412.5 463.5Q407 502 393 527.5Q379 553 355 566Q331 579 294 579H233Z" glyph-name="D" horiz-adv-x="646" unicode="D" /><glyph d="M37 0V750H293Q392 750 455 721Q518 692 554.5 642Q591 592 605 523Q619 454 619 375Q619 295 605 226.5Q591 158 554.5 107.5Q518 57 455 28.5Q392 0 293 0ZM233 171H294Q331 171 355 184Q379 197 393 222.5Q407 248 412.5 286Q418 324 418 375Q418 425 412.5 463.5Q407 502 393 527.5Q379 553 355 566Q331 579 294 579H233ZM500 910 374 786H206L80 910H225L290 870L355 910Z" glyph-name="Dcaron" horiz-adv-x="646" unicode="&#270;" /><glyph d="M10 447H87V750H343Q442 750 505 721Q568 692 604.5 642Q641 592 655 523Q669 454 669 375Q669 295 655 226.5Q641 158 604.5 107.5Q568 57 505 28.5Q442 0 343 0H87V304H10ZM283 447H410V304H283V171H344Q381 171 405 184Q429 197 443 222.5Q457 248 462.5 286Q468 324 468 375Q468 425 462.5 463.5Q457 502 443 527.5Q429 553 405 566Q381 579 344 579H283Z" glyph-name="Dcroat" horiz-adv-x="696" unicode="&#272;" /><glyph d="M10 117 332 766H488L810 117V0H10ZM587 173 410 545 233 173Z" glyph-name="Delta" horiz-adv-x="820" unicode="&#8710;" /><glyph d="M513 299H233V173H541V0H37V750H541V577H233V472H513Z" glyph-name="E" horiz-adv-x="571" unicode="E" /><glyph d="M513 299H233V173H541V0H37V750H541V577H233V472H513ZM218 786 264 910H458L378 786Z" glyph-name="Eacute" horiz-adv-x="571" unicode="&#201;" /><glyph d="M513 299H233V173H541V0H37V750H541V577H233V472H513ZM298 776Q244 776 204.5 781Q165 786 139.5 800.5Q114 815 101.5 841Q89 867 88 910H212Q212 887 231 878.5Q250 870 298 870Q346 870 365 878.5Q384 887 384 910H508Q507 867 494.5 841Q482 815 456.5 800.5Q431 786 391.5 781Q352 776 298 776Z" glyph-name="Ebreve" horiz-adv-x="571" unicode="&#276;" /><glyph d="M513 299H233V173H541V0H37V750H541V577H233V472H513ZM508 910 382 786H214L88 910H233L298 870L363 910Z" glyph-name="Ecaron" horiz-adv-x="571" unicode="&#282;" /><glyph d="M513 299H233V173H541V0H37V750H541V577H233V472H513ZM88 786 214 910H382L508 786H363L298 826L233 786Z" glyph-name="Ecircumflex" horiz-adv-x="571" unicode="&#202;" /><glyph d="M513 299H233V173H541V0H37V750H541V577H233V472H513ZM313 848Q313 871 321.5 885Q330 899 345 907Q360 915 380 917.5Q400 920 423 920Q446 920 466 917.5Q486 915 501 907Q516 899 524.5 885Q533 871 533 848Q533 825 524.5 811Q516 797 501 789Q486 781 466 778.5Q446 776 423 776Q400 776 380 778.5Q360 781 345 789Q330 797 321.5 811Q313 825 313 848ZM63 848Q63 871 71.5 885Q80 899 95 907Q110 915 130 917.5Q150 920 173 920Q196 920 216 917.5Q236 915 251 907Q266 899 274.5 885Q283 871 283 848Q283 825 274.5 811Q266 797 251 789Q236 781 216 778.5Q196 776 173 776Q150 776 130 778.5Q110 781 95 789Q80 797 71.5 811Q63 825 63 848Z" glyph-name="Edieresis" horiz-adv-x="571" unicode="&#203;" /><glyph d="M513 299H233V173H541V0H37V750H541V577H233V472H513ZM188 848Q188 871 196.5 885Q205 899 220 907Q235 915 255 917.5Q275 920 298 920Q321 920 341 917.5Q361 915 376 907Q391 899 399.5 885Q408 871 408 848Q408 825 399.5 811Q391 797 376 789Q361 781 341 778.5Q321 776 298 776Q275 776 255 778.5Q235 781 220 789Q205 797 196.5 811Q188 825 188 848Z" glyph-name="Edotaccent" horiz-adv-x="571" unicode="&#278;" /><glyph d="M513 299H233V173H541V0H37V750H541V577H233V472H513ZM138 910H332L378 786H218Z" glyph-name="Egrave" horiz-adv-x="571" unicode="&#200;" /><glyph d="M513 299H233V173H541V0H37V750H541V577H233V472H513ZM454 786H142V910H454Z" glyph-name="Emacron" horiz-adv-x="571" unicode="&#274;" /><glyph d="M335 -107Q364 -107 382 -101Q400 -95 410 -84.5Q420 -74 423.5 -58.5Q427 -43 427 -23V13L224 390L233 0H37V750H226L436 360L427 750H623V-60Q623 -115 600.5 -154Q578 -193 539 -218Q500 -243 447.5 -254.5Q395 -266 335 -266Z" glyph-name="Eng" horiz-adv-x="657" unicode="&#330;" /><glyph d="M513 299H233V173H541V0Q485 -15 458 -43.5Q431 -72 431 -99Q431 -120 445.5 -132.5Q460 -145 491 -145Q514 -145 528.5 -141.5Q543 -138 551 -136V-234Q537 -239 514 -244.5Q491 -250 449 -250Q380 -250 335.5 -218.5Q291 -187 291 -127Q291 -85 312 -54Q333 -23 366 0H37V750H541V577H233V472H513Z" glyph-name="Eogonek" horiz-adv-x="571" unicode="&#280;" /><glyph d="M10 447H87V750H343Q442 750 505 721Q568 692 604.5 642Q641 592 655 523Q669 454 669 375Q669 295 655 226.5Q641 158 604.5 107.5Q568 57 505 28.5Q442 0 343 0H87V304H10ZM283 447H410V304H283V171H344Q381 171 405 184Q429 197 443 222.5Q457 248 462.5 286Q468 324 468 375Q468 425 462.5 463.5Q457 502 443 527.5Q429 553 405 566Q381 579 344 579H283Z" glyph-name="Eth" horiz-adv-x="696" unicode="&#208;" /><glyph d="M17 388V500H86Q109 639 188.5 702.5Q268 766 409 766Q477 766 517 755.5Q557 745 583 735L581 560Q546 572 512 579.5Q478 587 431 587Q379 587 343.5 568.5Q308 550 290 500H506L467 388H273V362H457L418 250H290Q308 200 343.5 181.5Q379 163 431 163Q478 163 512 170.5Q546 178 581 190L583 15Q557 4 517 -6Q477 -16 409 -16Q269 -16 188.5 47.5Q108 111 85 250H17V362H76V388Z" glyph-name="Euro" horiz-adv-x="600" unicode="&#8364;" /><glyph d="M507 284H233V0H37V750H536V577H233V457H507Z" glyph-name="F" horiz-adv-x="552" unicode="F" /><glyph d="M359 -16Q188 -16 108.5 80.5Q29 177 29 375Q29 571 109 668.5Q189 766 361 766Q446 766 504 754Q562 742 597 726L595 548Q549 565 501 576Q453 587 390 587Q300 587 263 536.5Q226 486 226 374Q226 310 236 267.5Q246 225 267 199.5Q288 174 321 163.5Q354 153 400 153H409Q411 153 413 154V288H319V449H609V39Q571 16 506.5 0Q442 -16 359 -16Z" glyph-name="G" horiz-adv-x="645" unicode="G" /><glyph d="M359 -16Q188 -16 108.5 80.5Q29 177 29 375Q29 571 109 668.5Q189 766 361 766Q446 766 504 754Q562 742 597 726L595 548Q549 565 501 576Q453 587 390 587Q300 587 263 536.5Q226 486 226 374Q226 310 236 267.5Q246 225 267 199.5Q288 174 321 163.5Q354 153 400 153H409Q411 153 413 154V288H319V449H609V39Q571 16 506.5 0Q442 -16 359 -16ZM352 776Q298 776 258.5 781Q219 786 193.5 800.5Q168 815 155.5 841Q143 867 142 910H266Q266 887 285 878.5Q304 870 352 870Q400 870 419 878.5Q438 887 438 910H562Q561 867 548.5 841Q536 815 510.5 800.5Q485 786 445.5 781Q406 776 352 776Z" glyph-name="Gbreve" horiz-adv-x="645" unicode="&#286;" /><glyph d="M359 -16Q188 -16 108.5 80.5Q29 177 29 375Q29 571 109 668.5Q189 766 361 766Q446 766 504 754Q562 742 597 726L595 548Q549 565 501 576Q453 587 390 587Q300 587 263 536.5Q226 486 226 374Q226 310 236 267.5Q246 225 267 199.5Q288 174 321 163.5Q354 153 400 153H409Q411 153 413 154V288H319V449H609V39Q571 16 506.5 0Q442 -16 359 -16ZM142 786 268 910H436L562 786H417L352 826L287 786Z" glyph-name="Gcircumflex" horiz-adv-x="645" unicode="&#284;" /><glyph d="M359 -16Q188 -16 108.5 80.5Q29 177 29 375Q29 571 109 668.5Q189 766 361 766Q446 766 504 754Q562 742 597 726L595 548Q549 565 501 576Q453 587 390 587Q300 587 263 536.5Q226 486 226 374Q226 310 236 267.5Q246 225 267 199.5Q288 174 321 163.5Q354 153 400 153H409Q411 153 413 154V288H319V449H609V39Q571 16 506.5 0Q442 -16 359 -16ZM242 -250 262 -46H448L388 -250Z" glyph-name="Gcommaaccent" horiz-adv-x="645" unicode="&#290;" /><glyph d="M359 -16Q188 -16 108.5 80.5Q29 177 29 375Q29 571 109 668.5Q189 766 361 766Q446 766 504 754Q562 742 597 726L595 548Q549 565 501 576Q453 587 390 587Q300 587 263 536.5Q226 486 226 374Q226 310 236 267.5Q246 225 267 199.5Q288 174 321 163.5Q354 153 400 153H409Q411 153 413 154V288H319V449H609V39Q571 16 506.5 0Q442 -16 359 -16ZM242 848Q242 871 250.5 885Q259 899 274 907Q289 915 309 917.5Q329 920 352 920Q375 920 395 917.5Q415 915 430 907Q445 899 453.5 885Q462 871 462 848Q462 825 453.5 811Q445 797 430 789Q415 781 395 778.5Q375 776 352 776Q329 776 309 778.5Q289 781 274 789Q259 797 250.5 811Q242 825 242 848Z" glyph-name="Gdotaccent" horiz-adv-x="645" unicode="&#288;" /><glyph d="M413 0V299H233V0H37V750H233V472H413V750H609V0Z" glyph-name="H" horiz-adv-x="646" unicode="H" /><glyph d="M37 0V750H233V680H413V750H609V0H413V299H233V0ZM413 472V537H233V472Z" glyph-name="Hbar" horiz-adv-x="647" unicode="&#294;" /><glyph d="M413 0V299H233V0H37V750H233V472H413V750H609V0ZM113 786 239 910H407L533 786H388L323 826L258 786Z" glyph-name="Hcircumflex" horiz-adv-x="646" unicode="&#292;" /><glyph d="M43 0V750H239V0Z" glyph-name="I" horiz-adv-x="282" unicode="I" /><glyph d="M43 0V750H239V0ZM276 178Q291 173 314.5 167.5Q338 162 364 162Q428 162 428 224V751H624V176Q624 79 567.5 32Q511 -15 389 -15Q380 -15 365 -14Q350 -13 333.5 -10.5Q317 -8 301 -4.5Q285 -1 273 5Z" glyph-name="IJ" horiz-adv-x="657" unicode="&#306;" /><glyph d="M43 0V750H239V0ZM62 786 108 910H302L222 786Z" glyph-name="Iacute" horiz-adv-x="282" unicode="&#205;" /><glyph d="M43 0V750H239V0ZM142 776Q88 776 48.5 781Q9 786 -16.5 800.5Q-42 815 -54.5 841Q-67 867 -68 910H56Q56 887 75 878.5Q94 870 142 870Q190 870 209 878.5Q228 887 228 910H352Q351 867 338.5 841Q326 815 300.5 800.5Q275 786 235.5 781Q196 776 142 776Z" glyph-name="Ibreve" horiz-adv-x="282" unicode="&#300;" /><glyph d="M43 0V750H239V0ZM-68 786 58 910H226L352 786H207L142 826L77 786Z" glyph-name="Icircumflex" horiz-adv-x="282" unicode="&#206;" /><glyph d="M43 0V750H239V0ZM-94 848Q-94 871 -85.5 885Q-77 899 -62 907Q-47 915 -27 917.5Q-7 920 16 920Q39 920 59 917.5Q79 915 94 907Q109 899 117.5 885Q126 871 126 848Q126 825 117.5 811Q109 797 94 789Q79 781 59 778.5Q39 776 16 776Q-7 776 -27 778.5Q-47 781 -62 789Q-77 797 -85.5 811Q-94 825 -94 848ZM156 848Q156 871 164.5 885Q173 899 188 907Q203 915 223 917.5Q243 920 266 920Q289 920 309 917.5Q329 915 344 907Q359 899 367.5 885Q376 871 376 848Q376 825 367.5 811Q359 797 344 789Q329 781 309 778.5Q289 776 266 776Q243 776 223 778.5Q203 781 188 789Q173 797 164.5 811Q156 825 156 848Z" glyph-name="Idieresis" horiz-adv-x="282" unicode="&#207;" /><glyph d="M43 0V750H239V0ZM32 848Q32 871 40.5 885Q49 899 64 907Q79 915 99 917.5Q119 920 142 920Q165 920 185 917.5Q205 915 220 907Q235 899 243.5 885Q252 871 252 848Q252 825 243.5 811Q235 797 220 789Q205 781 185 778.5Q165 776 142 776Q119 776 99 778.5Q79 781 64 789Q49 797 40.5 811Q32 825 32 848Z" glyph-name="Idotaccent" horiz-adv-x="282" unicode="&#304;" /><glyph d="M43 0V750H239V0ZM-18 910H176L222 786H62Z" glyph-name="Igrave" horiz-adv-x="282" unicode="&#204;" /><glyph d="M43 0V750H239V0ZM298 786H-14V910H298Z" glyph-name="Imacron" horiz-adv-x="282" unicode="&#298;" /><glyph d="M239 0Q211 -8 192 -19Q173 -30 161 -43.5Q149 -57 144 -71.5Q139 -86 139 -99Q139 -120 153.5 -132.5Q168 -145 199 -145Q222 -145 236.5 -141.5Q251 -138 259 -136V-234Q245 -239 222 -244.5Q199 -250 157 -250Q88 -250 43.5 -218.5Q-1 -187 -1 -127Q-1 -95 11 -68.5Q23 -42 43 -22V750H239V0Z" glyph-name="Iogonek" horiz-adv-x="282" unicode="&#302;" /><glyph d="M43 0V750H239V0ZM364 904Q364 866 354.5 841Q345 816 328 802Q311 788 287.5 782.5Q264 777 237 777Q208 777 185 784Q162 791 142.5 799Q123 807 106.5 814Q90 821 73 821Q47 821 38 811Q29 801 29 786H-80V792Q-80 830 -70.5 854.5Q-61 879 -44 893.5Q-27 908 -3.5 913.5Q20 919 47 919Q76 919 99 912Q122 905 141.5 897Q161 889 177.5 882Q194 875 211 875Q237 875 246 885Q255 895 255 910H364Z" glyph-name="Itilde" horiz-adv-x="282" unicode="&#296;" /><glyph d="M6 177Q21 172 44.5 166.5Q68 161 94 161Q158 161 158 223V750H354V175Q354 78 297.5 31Q241 -16 119 -16Q110 -16 95 -15Q80 -14 63.5 -11.5Q47 -9 31 -5.5Q15 -2 3 4Z" glyph-name="J" horiz-adv-x="387" unicode="J" /><glyph d="M6 177Q21 172 44.5 166.5Q68 161 94 161Q158 161 158 223V750H354V175Q354 78 297.5 31Q241 -16 119 -16Q110 -16 95 -15Q80 -14 63.5 -11.5Q47 -9 31 -5.5Q15 -2 3 4ZM47 786 173 910H341L467 786H322L257 826L192 786Z" glyph-name="Jcircumflex" horiz-adv-x="387" unicode="&#308;" /><glyph d="M272 276 232 217V0H37V750H232V449L416 750H650L408 421L668 0H424Z" glyph-name="K" horiz-adv-x="663" unicode="K" /><glyph d="M272 276 232 217V0H37V750H232V449L416 750H650L408 421L668 0H424ZM210 -250 230 -46H416L356 -250Z" glyph-name="Kcommaaccent" horiz-adv-x="663" unicode="&#310;" /><glyph d="M233 173H515V0H37V750H233Z" glyph-name="L" horiz-adv-x="525" unicode="L" /><glyph d="M233 173H515V0H37V750H233ZM56 786 102 910H296L216 786Z" glyph-name="Lacute" horiz-adv-x="525" unicode="&#313;" /><glyph d="M233 173H515V0H37V750H233ZM413 750 365 550H284L300 750Z" glyph-name="Lcaron" horiz-adv-x="525" unicode="&#317;" /><glyph d="M233 173H515V0H37V750H233ZM166 -250 186 -46H372L312 -250Z" glyph-name="Lcommaaccent" horiz-adv-x="525" unicode="&#315;" /><glyph d="M233 173H515V0H37V750H233ZM294 376Q294 399 302.5 419Q311 439 326 454Q341 469 361 477.5Q381 486 404 486Q427 486 447 477.5Q467 469 482 454Q497 439 505.5 419Q514 399 514 376Q514 353 505.5 333Q497 313 482 298Q467 283 447 274.5Q427 266 404 266Q381 266 361 274.5Q341 283 326 298Q311 313 302.5 333Q294 353 294 376Z" glyph-name="Ldot" horiz-adv-x="537" unicode="&#319;" /><glyph d="M273 440 439 516V395L273 319V173H555V0H77V229L-2 193V314L77 350V750H273Z" glyph-name="Lslash" horiz-adv-x="565" unicode="&#321;" /><glyph d="M414 317 536 750H791V0H596L607 442L503 88H325L221 442L232 0H37V750H292Z" glyph-name="M" horiz-adv-x="828" unicode="M" /><glyph d="M226 750 436 360 427 750H623V0H434L224 390L233 0H37V750Z" glyph-name="N" horiz-adv-x="660" unicode="N" /><glyph d="M226 750 436 360 427 750H623V0H434L224 390L233 0H37V750ZM250 786 296 910H490L410 786Z" glyph-name="Nacute" horiz-adv-x="660" unicode="&#323;" /><glyph d="M226 750 436 360 427 750H623V0H434L224 390L233 0H37V750ZM540 910 414 786H246L120 910H265L330 870L395 910Z" glyph-name="Ncaron" horiz-adv-x="660" unicode="&#327;" /><glyph d="M226 750 436 360 427 750H623V0H434L224 390L233 0H37V750ZM220 -250 240 -46H426L366 -250Z" glyph-name="Ncommaaccent" horiz-adv-x="660" unicode="&#325;" /><glyph d="M226 750 436 360 427 750H623V0H434L224 390L233 0H37V750ZM552 904Q552 866 542.5 841Q533 816 516 802Q499 788 475.5 782.5Q452 777 425 777Q396 777 373 784Q350 791 330.5 799Q311 807 294.5 814Q278 821 261 821Q235 821 226 811Q217 801 217 786H108V792Q108 830 117.5 854.5Q127 879 144 893.5Q161 908 184.5 913.5Q208 919 235 919Q264 919 287 912Q310 905 329.5 897Q349 889 365.5 882Q382 875 399 875Q425 875 434 885Q443 895 443 910H552Z" glyph-name="Ntilde" horiz-adv-x="660" unicode="&#209;" /><glyph d="M29 375Q29 464 41.5 536Q54 608 88 659Q122 710 181 738Q240 766 333 766Q426 766 485 738Q544 710 578 659Q612 608 624.5 536Q637 464 637 375Q637 286 624.5 214Q612 142 578 91Q544 40 485 12Q426 -16 333 -16Q240 -16 181 12Q122 40 88 91Q54 142 41.5 214Q29 286 29 375ZM438 375Q438 438 432.5 479.5Q427 521 415 546Q403 571 383 581.5Q363 592 333 592Q303 592 283 581.5Q263 571 251 546Q239 521 233.5 479.5Q228 438 228 375Q228 312 233.5 270.5Q239 229 251 204Q263 179 283 168.5Q303 158 333 158Q363 158 383 168.5Q403 179 415 204Q427 229 432.5 270.5Q438 312 438 375Z" glyph-name="O" horiz-adv-x="666" unicode="O" /><glyph d="M849 299H589V173H877V0H353Q254 0 191 29Q128 58 91.5 108Q55 158 41 226.5Q27 295 27 375Q27 455 41 523.5Q55 592 91.5 642.5Q128 693 191 721.5Q254 750 353 750H877V577H589V472H849ZM393 579H352Q315 579 291 566Q267 553 253 527.5Q239 502 233.5 464Q228 426 228 375Q228 325 233.5 286.5Q239 248 253 222.5Q267 197 291 184Q315 171 352 171H393Z" glyph-name="OE" horiz-adv-x="907" unicode="&#338;" /><glyph d="M29 375Q29 464 41.5 536Q54 608 88 659Q122 710 181 738Q240 766 333 766Q426 766 485 738Q544 710 578 659Q612 608 624.5 536Q637 464 637 375Q637 286 624.5 214Q612 142 578 91Q544 40 485 12Q426 -16 333 -16Q240 -16 181 12Q122 40 88 91Q54 142 41.5 214Q29 286 29 375ZM438 375Q438 438 432.5 479.5Q427 521 415 546Q403 571 383 581.5Q363 592 333 592Q303 592 283 581.5Q263 571 251 546Q239 521 233.5 479.5Q228 438 228 375Q228 312 233.5 270.5Q239 229 251 204Q263 179 283 168.5Q303 158 333 158Q363 158 383 168.5Q403 179 415 204Q427 229 432.5 270.5Q438 312 438 375ZM253 786 299 910H493L413 786Z" glyph-name="Oacute" horiz-adv-x="666" unicode="&#211;" /><glyph d="M29 375Q29 464 41.5 536Q54 608 88 659Q122 710 181 738Q240 766 333 766Q426 766 485 738Q544 710 578 659Q612 608 624.5 536Q637 464 637 375Q637 286 624.5 214Q612 142 578 91Q544 40 485 12Q426 -16 333 -16Q240 -16 181 12Q122 40 88 91Q54 142 41.5 214Q29 286 29 375ZM438 375Q438 438 432.5 479.5Q427 521 415 546Q403 571 383 581.5Q363 592 333 592Q303 592 283 581.5Q263 571 251 546Q239 521 233.5 479.5Q228 438 228 375Q228 312 233.5 270.5Q239 229 251 204Q263 179 283 168.5Q303 158 333 158Q363 158 383 168.5Q403 179 415 204Q427 229 432.5 270.5Q438 312 438 375ZM333 776Q279 776 239.5 781Q200 786 174.5 800.5Q149 815 136.5 841Q124 867 123 910H247Q247 887 266 878.5Q285 870 333 870Q381 870 400 878.5Q419 887 419 910H543Q542 867 529.5 841Q517 815 491.5 800.5Q466 786 426.5 781Q387 776 333 776Z" glyph-name="Obreve" horiz-adv-x="666" unicode="&#334;" /><glyph d="M29 375Q29 464 41.5 536Q54 608 88 659Q122 710 181 738Q240 766 333 766Q426 766 485 738Q544 710 578 659Q612 608 624.5 536Q637 464 637 375Q637 286 624.5 214Q612 142 578 91Q544 40 485 12Q426 -16 333 -16Q240 -16 181 12Q122 40 88 91Q54 142 41.5 214Q29 286 29 375ZM438 375Q438 438 432.5 479.5Q427 521 415 546Q403 571 383 581.5Q363 592 333 592Q303 592 283 581.5Q263 571 251 546Q239 521 233.5 479.5Q228 438 228 375Q228 312 233.5 270.5Q239 229 251 204Q263 179 283 168.5Q303 158 333 158Q363 158 383 168.5Q403 179 415 204Q427 229 432.5 270.5Q438 312 438 375ZM123 786 249 910H417L543 786H398L333 826L268 786Z" glyph-name="Ocircumflex" horiz-adv-x="666" unicode="&#212;" /><glyph d="M29 375Q29 464 41.5 536Q54 608 88 659Q122 710 181 738Q240 766 333 766Q426 766 485 738Q544 710 578 659Q612 608 624.5 536Q637 464 637 375Q637 286 624.5 214Q612 142 578 91Q544 40 485 12Q426 -16 333 -16Q240 -16 181 12Q122 40 88 91Q54 142 41.5 214Q29 286 29 375ZM438 375Q438 438 432.5 479.5Q427 521 415 546Q403 571 383 581.5Q363 592 333 592Q303 592 283 581.5Q263 571 251 546Q239 521 233.5 479.5Q228 438 228 375Q228 312 233.5 270.5Q239 229 251 204Q263 179 283 168.5Q303 158 333 158Q363 158 383 168.5Q403 179 415 204Q427 229 432.5 270.5Q438 312 438 375ZM348 848Q348 871 356.5 885Q365 899 380 907Q395 915 415 917.5Q435 920 458 920Q481 920 501 917.5Q521 915 536 907Q551 899 559.5 885Q568 871 568 848Q568 825 559.5 811Q551 797 536 789Q521 781 501 778.5Q481 776 458 776Q435 776 415 778.5Q395 781 380 789Q365 797 356.5 811Q348 825 348 848ZM98 848Q98 871 106.5 885Q115 899 130 907Q145 915 165 917.5Q185 920 208 920Q231 920 251 917.5Q271 915 286 907Q301 899 309.5 885Q318 871 318 848Q318 825 309.5 811Q301 797 286 789Q271 781 251 778.5Q231 776 208 776Q185 776 165 778.5Q145 781 130 789Q115 797 106.5 811Q98 825 98 848Z" glyph-name="Odieresis" horiz-adv-x="666" unicode="&#214;" /><glyph d="M29 375Q29 464 41.5 536Q54 608 88 659Q122 710 181 738Q240 766 333 766Q426 766 485 738Q544 710 578 659Q612 608 624.5 536Q637 464 637 375Q637 286 624.5 214Q612 142 578 91Q544 40 485 12Q426 -16 333 -16Q240 -16 181 12Q122 40 88 91Q54 142 41.5 214Q29 286 29 375ZM438 375Q438 438 432.5 479.5Q427 521 415 546Q403 571 383 581.5Q363 592 333 592Q303 592 283 581.5Q263 571 251 546Q239 521 233.5 479.5Q228 438 228 375Q228 312 233.5 270.5Q239 229 251 204Q263 179 283 168.5Q303 158 333 158Q363 158 383 168.5Q403 179 415 204Q427 229 432.5 270.5Q438 312 438 375ZM173 910H367L413 786H253Z" glyph-name="Ograve" horiz-adv-x="666" unicode="&#210;" /><glyph d="M29 375Q29 464 41.5 536Q54 608 88 659Q122 710 181 738Q240 766 333 766Q426 766 485 738Q544 710 578 659Q612 608 624.5 536Q637 464 637 375Q637 286 624.5 214Q612 142 578 91Q544 40 485 12Q426 -16 333 -16Q240 -16 181 12Q122 40 88 91Q54 142 41.5 214Q29 286 29 375ZM438 375Q438 438 432.5 479.5Q427 521 415 546Q403 571 383 581.5Q363 592 333 592Q303 592 283 581.5Q263 571 251 546Q239 521 233.5 479.5Q228 438 228 375Q228 312 233.5 270.5Q239 229 251 204Q263 179 283 168.5Q303 158 333 158Q363 158 383 168.5Q403 179 415 204Q427 229 432.5 270.5Q438 312 438 375ZM148 786 194 910H388L308 786ZM358 786 404 910H598L518 786Z" glyph-name="Ohungarumlaut" horiz-adv-x="666" unicode="&#336;" /><glyph d="M29 375Q29 464 41.5 536Q54 608 88 659Q122 710 181 738Q240 766 333 766Q426 766 485 738Q544 710 578 659Q612 608 624.5 536Q637 464 637 375Q637 286 624.5 214Q612 142 578 91Q544 40 485 12Q426 -16 333 -16Q240 -16 181 12Q122 40 88 91Q54 142 41.5 214Q29 286 29 375ZM438 375Q438 438 432.5 479.5Q427 521 415 546Q403 571 383 581.5Q363 592 333 592Q303 592 283 581.5Q263 571 251 546Q239 521 233.5 479.5Q228 438 228 375Q228 312 233.5 270.5Q239 229 251 204Q263 179 283 168.5Q303 158 333 158Q363 158 383 168.5Q403 179 415 204Q427 229 432.5 270.5Q438 312 438 375ZM489 786H177V910H489Z" glyph-name="Omacron" horiz-adv-x="666" unicode="&#332;" /><glyph d="M29 375Q29 464 41.5 536Q54 608 88 659Q122 710 181 738Q240 766 333 766Q386 766 427.5 756.5Q469 747 501 730L514 750H617L569 672Q608 621 622.5 545.5Q637 470 637 375Q637 286 624.5 214Q612 142 578 91Q544 40 485 12Q426 -16 333 -16Q279 -16 237.5 -6.5Q196 3 164 20L152 0H49L97 77Q57 129 43 204.5Q29 280 29 375ZM228 375Q228 329 231 293L401 567Q389 581 372 586.5Q355 592 333 592Q303 592 283 581.5Q263 571 251 546Q239 521 233.5 479.5Q228 438 228 375ZM438 375Q438 421 435 456L265 182Q288 158 333 158Q363 158 383 168.5Q403 179 415 204Q427 229 432.5 270.5Q438 312 438 375Z" glyph-name="Oslash" horiz-adv-x="667" unicode="&#216;" /><glyph d="M29 375Q29 464 41.5 536Q54 608 88 659Q122 710 181 738Q240 766 333 766Q426 766 485 738Q544 710 578 659Q612 608 624.5 536Q637 464 637 375Q637 286 624.5 214Q612 142 578 91Q544 40 485 12Q426 -16 333 -16Q240 -16 181 12Q122 40 88 91Q54 142 41.5 214Q29 286 29 375ZM438 375Q438 438 432.5 479.5Q427 521 415 546Q403 571 383 581.5Q363 592 333 592Q303 592 283 581.5Q263 571 251 546Q239 521 233.5 479.5Q228 438 228 375Q228 312 233.5 270.5Q239 229 251 204Q263 179 283 168.5Q303 158 333 158Q363 158 383 168.5Q403 179 415 204Q427 229 432.5 270.5Q438 312 438 375ZM555 904Q555 866 545.5 841Q536 816 519 802Q502 788 478.5 782.5Q455 777 428 777Q399 777 376 784Q353 791 333.5 799Q314 807 297.5 814Q281 821 264 821Q238 821 229 811Q220 801 220 786H111V792Q111 830 120.5 854.5Q130 879 147 893.5Q164 908 187.5 913.5Q211 919 238 919Q267 919 290 912Q313 905 332.5 897Q352 889 368.5 882Q385 875 402 875Q428 875 437 885Q446 895 446 910H555Z" glyph-name="Otilde" horiz-adv-x="666" unicode="&#213;" /><glyph d="M233 0H37V750H304Q382 750 436 729Q490 708 523 673.5Q556 639 570.5 593.5Q585 548 585 500Q585 451 570.5 405.5Q556 360 523 325.5Q490 291 436 270.5Q382 250 304 250H233ZM233 420H305Q327 420 341 428Q355 436 363 448Q371 460 374 474Q377 488 377 499Q377 509 374 523Q371 537 363 549Q355 561 341 569.5Q327 578 305 578H233Z" glyph-name="P" horiz-adv-x="597" unicode="P" /><glyph d="M29 375Q29 464 41.5 536Q54 608 88 659Q122 710 181 738Q240 766 333 766Q426 766 485 738Q544 710 578 659Q612 608 624.5 536Q637 464 637 375Q637 265 617 181Q597 97 541 48L696 15L693 -166L212 0Q157 19 121.5 52.5Q86 86 65.5 133.5Q45 181 37 241.5Q29 302 29 375ZM438 375Q438 438 432.5 479.5Q427 521 415 546Q403 571 383 581.5Q363 592 333 592Q303 592 283 581.5Q263 571 251 546Q239 521 233.5 479.5Q228 438 228 375Q228 312 233.5 270.5Q239 229 251 204Q263 179 283 168.5Q303 158 333 158Q363 158 383 168.5Q403 179 415 204Q427 229 432.5 270.5Q438 312 438 375Z" glyph-name="Q" horiz-adv-x="667" unicode="Q" /><glyph d="M233 0H37V750H314Q393 750 446 733Q499 716 531 685Q563 654 576.5 609.5Q590 565 590 510Q590 441 568.5 390.5Q547 340 492 310L627 0H400L302 273H233ZM233 430H317Q337 430 349.5 437.5Q362 445 369 456.5Q376 468 378.5 482Q381 496 381 509Q381 522 378 536Q375 550 368 561.5Q361 573 348.5 580Q336 587 317 587H233Z" glyph-name="R" horiz-adv-x="627" unicode="R" /><glyph d="M233 0H37V750H314Q393 750 446 733Q499 716 531 685Q563 654 576.5 609.5Q590 565 590 510Q590 441 568.5 390.5Q547 340 492 310L627 0H400L302 273H233ZM233 430H317Q337 430 349.5 437.5Q362 445 369 456.5Q376 468 378.5 482Q381 496 381 509Q381 522 378 536Q375 550 368 561.5Q361 573 348.5 580Q336 587 317 587H233ZM206 786 252 910H446L366 786Z" glyph-name="Racute" horiz-adv-x="627" unicode="&#340;" /><glyph d="M233 0H37V750H314Q393 750 446 733Q499 716 531 685Q563 654 576.5 609.5Q590 565 590 510Q590 441 568.5 390.5Q547 340 492 310L627 0H400L302 273H233ZM233 430H317Q337 430 349.5 437.5Q362 445 369 456.5Q376 468 378.5 482Q381 496 381 509Q381 522 378 536Q375 550 368 561.5Q361 573 348.5 580Q336 587 317 587H233ZM496 910 370 786H202L76 910H221L286 870L351 910Z" glyph-name="Rcaron" horiz-adv-x="627" unicode="&#344;" /><glyph d="M233 0H37V750H314Q393 750 446 733Q499 716 531 685Q563 654 576.5 609.5Q590 565 590 510Q590 441 568.5 390.5Q547 340 492 310L627 0H400L302 273H233ZM233 430H317Q337 430 349.5 437.5Q362 445 369 456.5Q376 468 378.5 482Q381 496 381 509Q381 522 378 536Q375 550 368 561.5Q361 573 348.5 580Q336 587 317 587H233ZM205 -250 225 -46H411L351 -250Z" glyph-name="Rcommaaccent" horiz-adv-x="627" unicode="&#342;" /><glyph d="M316 465Q381 457 429.5 444Q478 431 510.5 406.5Q543 382 559 341Q575 300 575 237Q575 166 553.5 117.5Q532 69 492.5 39.5Q453 10 397 -3Q341 -16 273 -16Q199 -16 134 -3Q69 10 27 36L29 219Q45 210 69.5 199.5Q94 189 123 181Q152 173 186 167.5Q220 162 256 162Q324 162 351.5 179Q379 196 379 227Q379 262 356.5 275.5Q334 289 289 295Q220 303 170 317.5Q120 332 88.5 358Q57 384 42 424.5Q27 465 27 527Q27 582 44.5 626.5Q62 671 98 702Q134 733 189.5 749.5Q245 766 322 766Q401 766 457.5 753.5Q514 741 543 727L540 548Q522 557 498 564Q474 571 447 576.5Q420 582 391.5 585Q363 588 337 588Q222 588 222 528Q222 495 246 482.5Q270 470 316 465Z" glyph-name="S" horiz-adv-x="597" unicode="S" /><glyph d="M316 465Q381 457 429.5 444Q478 431 510.5 406.5Q543 382 559 341Q575 300 575 237Q575 166 553.5 117.5Q532 69 492.5 39.5Q453 10 397 -3Q341 -16 273 -16Q199 -16 134 -3Q69 10 27 36L29 219Q45 210 69.5 199.5Q94 189 123 181Q152 173 186 167.5Q220 162 256 162Q324 162 351.5 179Q379 196 379 227Q379 262 356.5 275.5Q334 289 289 295Q220 303 170 317.5Q120 332 88.5 358Q57 384 42 424.5Q27 465 27 527Q27 582 44.5 626.5Q62 671 98 702Q134 733 189.5 749.5Q245 766 322 766Q401 766 457.5 753.5Q514 741 543 727L540 548Q522 557 498 564Q474 571 447 576.5Q420 582 391.5 585Q363 588 337 588Q222 588 222 528Q222 495 246 482.5Q270 470 316 465ZM225 786 271 910H465L385 786Z" glyph-name="Sacute" horiz-adv-x="597" unicode="&#346;" /><glyph d="M316 465Q381 457 429.5 444Q478 431 510.5 406.5Q543 382 559 341Q575 300 575 237Q575 166 553.5 117.5Q532 69 492.5 39.5Q453 10 397 -3Q341 -16 273 -16Q199 -16 134 -3Q69 10 27 36L29 219Q45 210 69.5 199.5Q94 189 123 181Q152 173 186 167.5Q220 162 256 162Q324 162 351.5 179Q379 196 379 227Q379 262 356.5 275.5Q334 289 289 295Q220 303 170 317.5Q120 332 88.5 358Q57 384 42 424.5Q27 465 27 527Q27 582 44.5 626.5Q62 671 98 702Q134 733 189.5 749.5Q245 766 322 766Q401 766 457.5 753.5Q514 741 543 727L540 548Q522 557 498 564Q474 571 447 576.5Q420 582 391.5 585Q363 588 337 588Q222 588 222 528Q222 495 246 482.5Q270 470 316 465ZM515 990 379 786H231L95 990H230L305 910L380 990Z" glyph-name="Scaron" horiz-adv-x="597" unicode="&#352;" /><glyph d="M253 -16Q185 -14 125.5 -1Q66 12 27 36L29 219Q45 210 69.5 199.5Q94 189 123 181Q152 173 186 167.5Q220 162 256 162Q324 162 351.5 179Q379 196 379 227Q379 262 356.5 275.5Q334 289 289 295Q220 303 170 317.5Q120 332 88.5 358Q57 384 42 424.5Q27 465 27 527Q27 582 44.5 626.5Q62 671 98 702Q134 733 189.5 749.5Q245 766 322 766Q401 766 457.5 753.5Q514 741 543 727L540 548Q522 557 498 564Q474 571 447 576.5Q420 582 391.5 585Q363 588 337 588Q222 588 222 528Q222 495 246 482.5Q270 470 316 465Q381 457 429.5 444Q478 431 510.5 406.5Q543 382 559 341Q575 300 575 237Q575 174 558.5 129.5Q542 85 511 55Q480 25 436 8.5Q392 -8 338 -13L340 -47Q394 -61 417.5 -85.5Q441 -110 441 -145Q441 -200 400 -225Q359 -250 295 -250Q260 -250 232.5 -245Q205 -240 191 -234V-136Q201 -139 224 -143Q247 -147 270 -147Q322 -147 322 -122Q322 -110 307 -100Q292 -90 247 -84Z" glyph-name="Scedilla" horiz-adv-x="597" unicode="&#350;" /><glyph d="M316 465Q381 457 429.5 444Q478 431 510.5 406.5Q543 382 559 341Q575 300 575 237Q575 166 553.5 117.5Q532 69 492.5 39.5Q453 10 397 -3Q341 -16 273 -16Q199 -16 134 -3Q69 10 27 36L29 219Q45 210 69.5 199.5Q94 189 123 181Q152 173 186 167.5Q220 162 256 162Q324 162 351.5 179Q379 196 379 227Q379 262 356.5 275.5Q334 289 289 295Q220 303 170 317.5Q120 332 88.5 358Q57 384 42 424.5Q27 465 27 527Q27 582 44.5 626.5Q62 671 98 702Q134 733 189.5 749.5Q245 766 322 766Q401 766 457.5 753.5Q514 741 543 727L540 548Q522 557 498 564Q474 571 447 576.5Q420 582 391.5 585Q363 588 337 588Q222 588 222 528Q222 495 246 482.5Q270 470 316 465ZM95 786 221 910H389L515 786H370L305 826L240 786Z" glyph-name="Scircumflex" horiz-adv-x="597" unicode="&#348;" /><glyph d="M316 465Q381 457 429.5 444Q478 431 510.5 406.5Q543 382 559 341Q575 300 575 237Q575 166 553.5 117.5Q532 69 492.5 39.5Q453 10 397 -3Q341 -16 273 -16Q199 -16 134 -3Q69 10 27 36L29 219Q45 210 69.5 199.5Q94 189 123 181Q152 173 186 167.5Q220 162 256 162Q324 162 351.5 179Q379 196 379 227Q379 262 356.5 275.5Q334 289 289 295Q220 303 170 317.5Q120 332 88.5 358Q57 384 42 424.5Q27 465 27 527Q27 582 44.5 626.5Q62 671 98 702Q134 733 189.5 749.5Q245 766 322 766Q401 766 457.5 753.5Q514 741 543 727L540 548Q522 557 498 564Q474 571 447 576.5Q420 582 391.5 585Q363 588 337 588Q222 588 222 528Q222 495 246 482.5Q270 470 316 465ZM185 -250 205 -46H391L331 -250Z" glyph-name="Scommaaccent" horiz-adv-x="597" unicode="&#536;" /><glyph d="M382 577V0H186V577H10V750H558V577Z" glyph-name="T" horiz-adv-x="568" unicode="T" /><glyph d="M84 447H186V577H10V750H558V577H382V447H484V304H382V0H186V304H84Z" glyph-name="Tbar" horiz-adv-x="568" unicode="&#358;" /><glyph d="M382 577V0H186V577H10V750H558V577ZM494 910 368 786H200L74 910H219L284 870L349 910Z" glyph-name="Tcaron" horiz-adv-x="568" unicode="&#356;" /><glyph d="M382 577V0H186V577H10V750H558V577ZM174 -250 194 -46H380L320 -250Z" glyph-name="Tcommaaccent" horiz-adv-x="568" unicode="&#354;" /><glyph d="M233 0H37V750H233V625H304Q382 625 436 604Q490 583 523 548.5Q556 514 570.5 468.5Q585 423 585 375Q585 326 570.5 280.5Q556 235 523 200.5Q490 166 436 145.5Q382 125 304 125H233ZM233 295H305Q327 295 341 303Q355 311 363 323Q371 335 374 349Q377 363 377 374Q377 384 374 398Q371 412 363 424Q355 436 341 444.5Q327 453 305 453H233Z" glyph-name="Thorn" horiz-adv-x="600" unicode="&#222;" /><glyph d="M324 157Q343 157 360.5 161Q378 165 391 176Q404 187 411.5 206.5Q419 226 419 258V750H615V243Q615 165 588.5 115Q562 65 520 35.5Q478 6 426.5 -5Q375 -16 324 -16Q274 -16 222 -5Q170 6 128 35.5Q86 65 59.5 115Q33 165 33 243V750H229V258Q229 226 237 206.5Q245 187 258 176Q271 165 288 161Q305 157 324 157Z" glyph-name="U" horiz-adv-x="648" unicode="U" /><glyph d="M324 157Q343 157 360.5 161Q378 165 391 176Q404 187 411.5 206.5Q419 226 419 258V750H615V243Q615 165 588.5 115Q562 65 520 35.5Q478 6 426.5 -5Q375 -16 324 -16Q274 -16 222 -5Q170 6 128 35.5Q86 65 59.5 115Q33 165 33 243V750H229V258Q229 226 237 206.5Q245 187 258 176Q271 165 288 161Q305 157 324 157ZM244 786 290 910H484L404 786Z" glyph-name="Uacute" horiz-adv-x="648" unicode="&#218;" /><glyph d="M324 157Q343 157 360.5 161Q378 165 391 176Q404 187 411.5 206.5Q419 226 419 258V750H615V243Q615 165 588.5 115Q562 65 520 35.5Q478 6 426.5 -5Q375 -16 324 -16Q274 -16 222 -5Q170 6 128 35.5Q86 65 59.5 115Q33 165 33 243V750H229V258Q229 226 237 206.5Q245 187 258 176Q271 165 288 161Q305 157 324 157ZM324 776Q270 776 230.5 781Q191 786 165.5 800.5Q140 815 127.5 841Q115 867 114 910H238Q238 887 257 878.5Q276 870 324 870Q372 870 391 878.5Q410 887 410 910H534Q533 867 520.5 841Q508 815 482.5 800.5Q457 786 417.5 781Q378 776 324 776Z" glyph-name="Ubreve" horiz-adv-x="648" unicode="&#364;" /><glyph d="M324 157Q343 157 360.5 161Q378 165 391 176Q404 187 411.5 206.5Q419 226 419 258V750H615V243Q615 165 588.5 115Q562 65 520 35.5Q478 6 426.5 -5Q375 -16 324 -16Q274 -16 222 -5Q170 6 128 35.5Q86 65 59.5 115Q33 165 33 243V750H229V258Q229 226 237 206.5Q245 187 258 176Q271 165 288 161Q305 157 324 157ZM114 786 240 910H408L534 786H389L324 826L259 786Z" glyph-name="Ucircumflex" horiz-adv-x="648" unicode="&#219;" /><glyph d="M324 157Q343 157 360.5 161Q378 165 391 176Q404 187 411.5 206.5Q419 226 419 258V750H615V243Q615 165 588.5 115Q562 65 520 35.5Q478 6 426.5 -5Q375 -16 324 -16Q274 -16 222 -5Q170 6 128 35.5Q86 65 59.5 115Q33 165 33 243V750H229V258Q229 226 237 206.5Q245 187 258 176Q271 165 288 161Q305 157 324 157ZM339 848Q339 871 347.5 885Q356 899 371 907Q386 915 406 917.5Q426 920 449 920Q472 920 492 917.5Q512 915 527 907Q542 899 550.5 885Q559 871 559 848Q559 825 550.5 811Q542 797 527 789Q512 781 492 778.5Q472 776 449 776Q426 776 406 778.5Q386 781 371 789Q356 797 347.5 811Q339 825 339 848ZM89 848Q89 871 97.5 885Q106 899 121 907Q136 915 156 917.5Q176 920 199 920Q222 920 242 917.5Q262 915 277 907Q292 899 300.5 885Q309 871 309 848Q309 825 300.5 811Q292 797 277 789Q262 781 242 778.5Q222 776 199 776Q176 776 156 778.5Q136 781 121 789Q106 797 97.5 811Q89 825 89 848Z" glyph-name="Udieresis" horiz-adv-x="648" unicode="&#220;" /><glyph d="M324 157Q343 157 360.5 161Q378 165 391 176Q404 187 411.5 206.5Q419 226 419 258V750H615V243Q615 165 588.5 115Q562 65 520 35.5Q478 6 426.5 -5Q375 -16 324 -16Q274 -16 222 -5Q170 6 128 35.5Q86 65 59.5 115Q33 165 33 243V750H229V258Q229 226 237 206.5Q245 187 258 176Q271 165 288 161Q305 157 324 157ZM164 910H358L404 786H244Z" glyph-name="Ugrave" horiz-adv-x="648" unicode="&#217;" /><glyph d="M324 157Q343 157 360.5 161Q378 165 391 176Q404 187 411.5 206.5Q419 226 419 258V750H615V243Q615 165 588.5 115Q562 65 520 35.5Q478 6 426.5 -5Q375 -16 324 -16Q274 -16 222 -5Q170 6 128 35.5Q86 65 59.5 115Q33 165 33 243V750H229V258Q229 226 237 206.5Q245 187 258 176Q271 165 288 161Q305 157 324 157ZM139 786 185 910H379L299 786ZM349 786 395 910H589L509 786Z" glyph-name="Uhungarumlaut" horiz-adv-x="648" unicode="&#368;" /><glyph d="M324 157Q343 157 360.5 161Q378 165 391 176Q404 187 411.5 206.5Q419 226 419 258V750H615V243Q615 165 588.5 115Q562 65 520 35.5Q478 6 426.5 -5Q375 -16 324 -16Q274 -16 222 -5Q170 6 128 35.5Q86 65 59.5 115Q33 165 33 243V750H229V258Q229 226 237 206.5Q245 187 258 176Q271 165 288 161Q305 157 324 157ZM480 786H168V910H480Z" glyph-name="Umacron" horiz-adv-x="648" unicode="&#362;" /><glyph d="M324 157Q343 157 360.5 161Q378 165 391 176Q404 187 411.5 206.5Q419 226 419 258V750H615V243Q615 185 600 143Q585 101 560 71.5Q535 42 501.5 23.5Q468 5 431 -4Q382 -20 358 -46.5Q334 -73 334 -99Q334 -120 348.5 -132.5Q363 -145 394 -145Q417 -145 431.5 -141.5Q446 -138 454 -136V-234Q440 -239 417 -244.5Q394 -250 352 -250Q283 -250 238.5 -218.5Q194 -187 194 -127Q194 -90 210.5 -61.5Q227 -33 255 -11Q212 -5 172 11.5Q132 28 101 57.5Q70 87 51.5 132.5Q33 178 33 243V750H229V258Q229 226 237 206.5Q245 187 258 176Q271 165 288 161Q305 157 324 157Z" glyph-name="Uogonek" horiz-adv-x="648" unicode="&#370;" /><glyph d="M324 157Q343 157 360.5 161Q378 165 391 176Q404 187 411.5 206.5Q419 226 419 258V750H615V243Q615 165 588.5 115Q562 65 520 35.5Q478 6 426.5 -5Q375 -16 324 -16Q274 -16 222 -5Q170 6 128 35.5Q86 65 59.5 115Q33 165 33 243V750H229V258Q229 226 237 206.5Q245 187 258 176Q271 165 288 161Q305 157 324 157ZM324 777Q267 777 237.5 790.5Q208 804 208 847Q208 891 237.5 905Q267 919 324 919Q381 919 410.5 905Q440 891 440 848Q440 804 410.5 790.5Q381 777 324 777ZM324 831Q352 831 352 847Q352 864 324 864Q296 864 296 848Q296 831 324 831Z" glyph-name="Uring" horiz-adv-x="648" unicode="&#366;" /><glyph d="M324 157Q343 157 360.5 161Q378 165 391 176Q404 187 411.5 206.5Q419 226 419 258V750H615V243Q615 165 588.5 115Q562 65 520 35.5Q478 6 426.5 -5Q375 -16 324 -16Q274 -16 222 -5Q170 6 128 35.5Q86 65 59.5 115Q33 165 33 243V750H229V258Q229 226 237 206.5Q245 187 258 176Q271 165 288 161Q305 157 324 157ZM546 904Q546 866 536.5 841Q527 816 510 802Q493 788 469.5 782.5Q446 777 419 777Q390 777 367 784Q344 791 324.5 799Q305 807 288.5 814Q272 821 255 821Q229 821 220 811Q211 801 211 786H102V792Q102 830 111.5 854.5Q121 879 138 893.5Q155 908 178.5 913.5Q202 919 229 919Q258 919 281 912Q304 905 323.5 897Q343 889 359.5 882Q376 875 393 875Q419 875 428 885Q437 895 437 910H546Z" glyph-name="Utilde" horiz-adv-x="648" unicode="&#360;" /><glyph d="M207 -4 5 750H216L321 234L426 750H637L435 -4Z" glyph-name="V" horiz-adv-x="642" unicode="V" /><glyph d="M444 492 361 -4H126L10 750H212L258 276L336 750H552L630 276L676 750H878L762 -4H527Z" glyph-name="W" horiz-adv-x="888" unicode="W" /><glyph d="M444 492 361 -4H126L10 750H212L258 276L336 750H552L630 276L676 750H878L762 -4H527ZM364 786 410 910H604L524 786Z" glyph-name="Wacute" horiz-adv-x="888" unicode="&#7810;" /><glyph d="M444 492 361 -4H126L10 750H212L258 276L336 750H552L630 276L676 750H878L762 -4H527ZM234 786 360 910H528L654 786H509L444 826L379 786Z" glyph-name="Wcircumflex" horiz-adv-x="888" unicode="&#372;" /><glyph d="M444 492 361 -4H126L10 750H212L258 276L336 750H552L630 276L676 750H878L762 -4H527ZM459 848Q459 871 467.5 885Q476 899 491 907Q506 915 526 917.5Q546 920 569 920Q592 920 612 917.5Q632 915 647 907Q662 899 670.5 885Q679 871 679 848Q679 825 670.5 811Q662 797 647 789Q632 781 612 778.5Q592 776 569 776Q546 776 526 778.5Q506 781 491 789Q476 797 467.5 811Q459 825 459 848ZM209 848Q209 871 217.5 885Q226 899 241 907Q256 915 276 917.5Q296 920 319 920Q342 920 362 917.5Q382 915 397 907Q412 899 420.5 885Q429 871 429 848Q429 825 420.5 811Q412 797 397 789Q382 781 362 778.5Q342 776 319 776Q296 776 276 778.5Q256 781 241 789Q226 797 217.5 811Q209 825 209 848Z" glyph-name="Wdieresis" horiz-adv-x="888" unicode="&#7812;" /><glyph d="M444 492 361 -4H126L10 750H212L258 276L336 750H552L630 276L676 750H878L762 -4H527ZM284 910H478L524 786H364Z" glyph-name="Wgrave" horiz-adv-x="888" unicode="&#7808;" /><glyph d="M337 255 227 0H2L200 390L16 750H238L337 500L436 750H658L474 390L672 0H447Z" glyph-name="X" horiz-adv-x="676" unicode="X" /><glyph d="M333 468 447 750H666L429 292L431 0H235L237 292L0 750H219Z" glyph-name="Y" horiz-adv-x="670" unicode="Y" /><glyph d="M333 468 447 750H666L429 292L431 0H235L237 292L0 750H219ZM254 786 300 910H494L414 786Z" glyph-name="Yacute" horiz-adv-x="670" unicode="&#221;" /><glyph d="M333 468 447 750H666L429 292L431 0H235L237 292L0 750H219ZM124 786 250 910H418L544 786H399L334 826L269 786Z" glyph-name="Ycircumflex" horiz-adv-x="670" unicode="&#374;" /><glyph d="M333 468 447 750H666L429 292L431 0H235L237 292L0 750H219ZM349 848Q349 871 357.5 885Q366 899 381 907Q396 915 416 917.5Q436 920 459 920Q482 920 502 917.5Q522 915 537 907Q552 899 560.5 885Q569 871 569 848Q569 825 560.5 811Q552 797 537 789Q522 781 502 778.5Q482 776 459 776Q436 776 416 778.5Q396 781 381 789Q366 797 357.5 811Q349 825 349 848ZM99 848Q99 871 107.5 885Q116 899 131 907Q146 915 166 917.5Q186 920 209 920Q232 920 252 917.5Q272 915 287 907Q302 899 310.5 885Q319 871 319 848Q319 825 310.5 811Q302 797 287 789Q272 781 252 778.5Q232 776 209 776Q186 776 166 778.5Q146 781 131 789Q116 797 107.5 811Q99 825 99 848Z" glyph-name="Ydieresis" horiz-adv-x="670" unicode="&#376;" /><glyph d="M17 0V115L326 569L42 566V750H586V635L277 181L599 183V0Z" glyph-name="Z" horiz-adv-x="616" unicode="Z" /><glyph d="M17 0V115L326 569L42 566V750H586V635L277 181L599 183V0ZM234 786 280 910H474L394 786Z" glyph-name="Zacute" horiz-adv-x="616" unicode="&#377;" /><glyph d="M17 0V115L326 569L42 566V750H586V635L277 181L599 183V0ZM524 910 398 786H230L104 910H249L314 870L379 910Z" glyph-name="Zcaron" horiz-adv-x="616" unicode="&#142;" /><glyph d="M17 0V115L326 569L42 566V750H586V635L277 181L599 183V0ZM204 848Q204 871 212.5 885Q221 899 236 907Q251 915 271 917.5Q291 920 314 920Q337 920 357 917.5Q377 915 392 907Q407 899 415.5 885Q424 871 424 848Q424 825 415.5 811Q407 797 392 789Q377 781 357 778.5Q337 776 314 776Q291 776 271 778.5Q251 781 236 789Q221 797 212.5 811Q204 825 204 848Z" glyph-name="Zdotaccent" horiz-adv-x="616" unicode="&#379;" /><glyph d="M18 145Q18 193 32.5 223Q47 253 72.5 271Q98 289 133.5 297.5Q169 306 212 310L301 318V338Q301 355 288.5 364.5Q276 374 233 374Q210 374 186 370.5Q162 367 138.5 361.5Q115 356 93.5 348.5Q72 341 56 333L54 481Q69 487 92 493.5Q115 500 143 505Q171 510 201.5 513Q232 516 262 516Q331 516 374 503Q417 490 441 465.5Q465 441 474 406Q483 371 483 328V0H352L333 32Q310 12 274 -2Q238 -16 186 -16Q140 -16 108 -3.5Q76 9 56 30.5Q36 52 27 81.5Q18 111 18 145ZM243 216Q215 213 201 200.5Q187 188 187 157Q187 128 201.5 117.5Q216 107 236 107Q260 107 277 114Q294 121 302 129V223Z" glyph-name="a" horiz-adv-x="511" unicode="a" /><glyph d="M18 145Q18 193 32.5 223Q47 253 72.5 271Q98 289 133.5 297.5Q169 306 212 310L301 318V338Q301 355 288.5 364.5Q276 374 233 374Q210 374 186 370.5Q162 367 138.5 361.5Q115 356 93.5 348.5Q72 341 56 333L54 481Q69 487 92 493.5Q115 500 143 505Q171 510 201.5 513Q232 516 262 516Q331 516 374 503Q417 490 441 465.5Q465 441 474 406Q483 371 483 328V0H352L333 32Q310 12 274 -2Q238 -16 186 -16Q140 -16 108 -3.5Q76 9 56 30.5Q36 52 27 81.5Q18 111 18 145ZM243 216Q215 213 201 200.5Q187 188 187 157Q187 128 201.5 117.5Q216 107 236 107Q260 107 277 114Q294 121 302 129V223ZM192 546 242 750H432L322 546Z" glyph-name="aacute" horiz-adv-x="511" unicode="&#225;" /><glyph d="M18 145Q18 193 32.5 223Q47 253 72.5 271Q98 289 133.5 297.5Q169 306 212 310L301 318V338Q301 355 288.5 364.5Q276 374 233 374Q210 374 186 370.5Q162 367 138.5 361.5Q115 356 93.5 348.5Q72 341 56 333L54 481Q69 487 92 493.5Q115 500 143 505Q171 510 201.5 513Q232 516 262 516Q331 516 374 503Q417 490 441 465.5Q465 441 474 406Q483 371 483 328V0H352L333 32Q310 12 274 -2Q238 -16 186 -16Q140 -16 108 -3.5Q76 9 56 30.5Q36 52 27 81.5Q18 111 18 145ZM243 216Q215 213 201 200.5Q187 188 187 157Q187 128 201.5 117.5Q216 107 236 107Q260 107 277 114Q294 121 302 129V223ZM257 546Q148 546 98 594Q48 642 47 750H171Q171 706 190 688Q209 670 257 670Q305 670 324 688Q343 706 343 750H467Q465 642 415.5 594Q366 546 257 546Z" glyph-name="abreve" horiz-adv-x="511" unicode="&#259;" /><glyph d="M18 145Q18 193 32.5 223Q47 253 72.5 271Q98 289 133.5 297.5Q169 306 212 310L301 318V338Q301 355 288.5 364.5Q276 374 233 374Q210 374 186 370.5Q162 367 138.5 361.5Q115 356 93.5 348.5Q72 341 56 333L54 481Q69 487 92 493.5Q115 500 143 505Q171 510 201.5 513Q232 516 262 516Q331 516 374 503Q417 490 441 465.5Q465 441 474 406Q483 371 483 328V0H352L333 32Q310 12 274 -2Q238 -16 186 -16Q140 -16 108 -3.5Q76 9 56 30.5Q36 52 27 81.5Q18 111 18 145ZM243 216Q215 213 201 200.5Q187 188 187 157Q187 128 201.5 117.5Q216 107 236 107Q260 107 277 114Q294 121 302 129V223ZM47 546 183 750H331L467 546H332L257 626L182 546Z" glyph-name="acircumflex" horiz-adv-x="511" unicode="&#226;" /><glyph d="M200 546 250 750H440L330 546Z" glyph-name="acute" horiz-adv-x="530" unicode="&#180;" /><glyph d="M185 786 231 910H425L345 786Z" glyph-name="acute.cap" horiz-adv-x="530" unicode="&#58402;" /><glyph d="M18 145Q18 193 32.5 223Q47 253 72.5 271Q98 289 133.5 297.5Q169 306 212 310L301 318V338Q301 355 288.5 364.5Q276 374 233 374Q210 374 186 370.5Q162 367 138.5 361.5Q115 356 93.5 348.5Q72 341 56 333L54 481Q69 487 92 493.5Q115 500 143 505Q171 510 201.5 513Q232 516 262 516Q331 516 374 503Q417 490 441 465.5Q465 441 474 406Q483 371 483 328V0H352L333 32Q310 12 274 -2Q238 -16 186 -16Q140 -16 108 -3.5Q76 9 56 30.5Q36 52 27 81.5Q18 111 18 145ZM243 216Q215 213 201 200.5Q187 188 187 157Q187 128 201.5 117.5Q216 107 236 107Q260 107 277 114Q294 121 302 129V223ZM22 648Q22 671 30.5 691Q39 711 54 726Q69 741 89 749.5Q109 758 132 758Q155 758 175 749.5Q195 741 210 726Q225 711 233.5 691Q242 671 242 648Q242 625 233.5 605Q225 585 210 570Q195 555 175 546.5Q155 538 132 538Q109 538 89 546.5Q69 555 54 570Q39 585 30.5 605Q22 625 22 648ZM272 648Q272 671 280.5 691Q289 711 304 726Q319 741 339 749.5Q359 758 382 758Q405 758 425 749.5Q445 741 460 726Q475 711 483.5 691Q492 671 492 648Q492 625 483.5 605Q475 585 460 570Q445 555 425 546.5Q405 538 382 538Q359 538 339 546.5Q319 555 304 570Q289 585 280.5 605Q272 625 272 648Z" glyph-name="adieresis" horiz-adv-x="511" unicode="&#228;" /><glyph d="M311 136Q307 151 304 170Q301 189 300 205H243Q216 205 201 192.5Q186 180 186 155Q186 132 200.5 119.5Q215 107 236 107Q262 107 281 116Q300 125 311 136ZM556 -16Q431 -16 369 37Q331 9 286.5 -3.5Q242 -16 186 -16Q140 -16 108 -3.5Q76 9 56 30.5Q36 52 27 81.5Q18 111 18 145Q18 193 32 223Q46 253 71.5 270Q97 287 133 293.5Q169 300 212 300H301V339Q301 346 299 352.5Q297 359 289.5 363.5Q282 368 268.5 371Q255 374 233 374Q185 374 137.5 362Q90 350 56 333L54 481Q69 487 92 493.5Q115 500 143 505Q171 510 201.5 513Q232 516 262 516Q310 516 345 506.5Q380 497 405 481Q460 516 550 516Q619 516 663 498Q707 480 732.5 448.5Q758 417 768 375.5Q778 334 778 286Q778 266 777 246.5Q776 227 774 205H473Q471 169 495.5 147.5Q520 126 583 126Q631 126 677.5 135Q724 144 759 156L762 19Q716 0 659 -8Q602 -16 556 -16ZM550 384Q517 384 494.5 364.5Q472 345 473 300H610Q615 344 599.5 364Q584 384 550 384Z" glyph-name="ae" horiz-adv-x="798" unicode="&#230;" /><glyph d="M18 145Q18 193 32.5 223Q47 253 72.5 271Q98 289 133.5 297.5Q169 306 212 310L301 318V338Q301 355 288.5 364.5Q276 374 233 374Q210 374 186 370.5Q162 367 138.5 361.5Q115 356 93.5 348.5Q72 341 56 333L54 481Q69 487 92 493.5Q115 500 143 505Q171 510 201.5 513Q232 516 262 516Q331 516 374 503Q417 490 441 465.5Q465 441 474 406Q483 371 483 328V0H352L333 32Q310 12 274 -2Q238 -16 186 -16Q140 -16 108 -3.5Q76 9 56 30.5Q36 52 27 81.5Q18 111 18 145ZM243 216Q215 213 201 200.5Q187 188 187 157Q187 128 201.5 117.5Q216 107 236 107Q260 107 277 114Q294 121 302 129V223ZM82 750H272L322 546H192Z" glyph-name="agrave" horiz-adv-x="511" unicode="&#224;" /><glyph d="M18 145Q18 193 32.5 223Q47 253 72.5 271Q98 289 133.5 297.5Q169 306 212 310L301 318V338Q301 355 288.5 364.5Q276 374 233 374Q210 374 186 370.5Q162 367 138.5 361.5Q115 356 93.5 348.5Q72 341 56 333L54 481Q69 487 92 493.5Q115 500 143 505Q171 510 201.5 513Q232 516 262 516Q331 516 374 503Q417 490 441 465.5Q465 441 474 406Q483 371 483 328V0H352L333 32Q310 12 274 -2Q238 -16 186 -16Q140 -16 108 -3.5Q76 9 56 30.5Q36 52 27 81.5Q18 111 18 145ZM243 216Q215 213 201 200.5Q187 188 187 157Q187 128 201.5 117.5Q216 107 236 107Q260 107 277 114Q294 121 302 129V223ZM413 583H101V713H413Z" glyph-name="amacron" horiz-adv-x="511" unicode="&#257;" /><glyph d="M319 145Q333 145 345.5 147Q358 149 366 151Q325 185 290 220Q255 255 229 290Q208 268 208 234Q208 209 217.5 192Q227 175 243 164.5Q259 154 278.5 149.5Q298 145 319 145ZM298 556Q298 544 302.5 527.5Q307 511 313 497Q342 511 357 526Q372 541 372 562Q372 597 337 597Q315 597 306.5 586Q298 575 298 556ZM668 171Q689 160 713.5 150.5Q738 141 760 136L691 -23Q609 1 532 42Q436 -16 312 -16Q245 -16 191.5 -2.5Q138 11 100.5 38.5Q63 66 43 109.5Q23 153 23 213Q23 255 31.5 288Q40 321 55.5 346.5Q71 372 93 391Q115 410 143 426Q129 459 121 492.5Q113 526 113 559Q113 600 126 637.5Q139 675 166.5 703.5Q194 732 236.5 749Q279 766 338 766Q396 766 437 751.5Q478 737 503.5 711Q529 685 540.5 648.5Q552 612 552 567Q552 495 511.5 450Q471 405 398 371Q442 312 507 264Q533 300 546 352Q559 404 559 458V500H746Q746 492 747 482Q747 474 747.5 464Q748 454 748 444Q748 366 727.5 296.5Q707 227 668 171Z" glyph-name="ampersand" horiz-adv-x="774" unicode="&amp;" /><glyph d="M18 145Q18 193 32.5 223Q47 253 72.5 271Q98 289 133.5 297.5Q169 306 212 310L301 318V338Q301 355 288.5 364.5Q276 374 233 374Q210 374 186 370.5Q162 367 138.5 361.5Q115 356 93.5 348.5Q72 341 56 333L54 481Q69 487 92 493.5Q115 500 143 505Q171 510 201.5 513Q232 516 262 516Q331 516 374 503Q417 490 441 465.5Q465 441 474 406Q483 371 483 328V0Q427 -15 400 -43.5Q373 -72 373 -99Q373 -120 387.5 -132.5Q402 -145 433 -145Q456 -145 470.5 -141.5Q485 -138 493 -136V-234Q479 -239 456 -244.5Q433 -250 391 -250Q322 -250 277.5 -218.5Q233 -187 233 -127Q233 -76 263.5 -40.5Q294 -5 340 20L333 32Q310 12 274 -2Q238 -16 186 -16Q140 -16 108 -3.5Q76 9 56 30.5Q36 52 27 81.5Q18 111 18 145ZM243 216Q215 213 201 200.5Q187 188 187 157Q187 128 201.5 117.5Q216 107 236 107Q260 107 277 114Q294 121 302 129V223Z" glyph-name="aogonek" horiz-adv-x="511" unicode="&#261;" /><glyph d="M560 136Q547 124 515.5 113Q484 102 444 102Q400 102 363.5 113Q327 124 293 137Q259 150 224.5 161Q190 172 151 172Q133 172 115 168Q97 164 82 158.5Q67 153 56 146.5Q45 140 40 135V319Q53 331 84.5 342Q116 353 156 353Q200 353 236.5 342Q273 331 307.5 318Q342 305 376 294Q410 283 449 283Q467 283 485 287Q503 291 518 296.5Q533 302 544 308.5Q555 315 560 320ZM560 363Q547 351 515.5 340Q484 329 444 329Q400 329 363.5 340Q327 351 293 364Q259 377 224.5 388Q190 399 151 399Q133 399 115 395Q97 391 82 385.5Q67 380 56 373.5Q45 367 40 362V546Q53 558 84.5 569Q116 580 156 580Q200 580 236.5 569Q273 558 307.5 545Q342 532 376 521Q410 510 449 510Q467 510 485 514Q503 518 518 523.5Q533 529 544 535.5Q555 542 560 547Z" glyph-name="approxequal" horiz-adv-x="600" unicode="&#8776;" /><glyph d="M18 145Q18 193 32.5 223Q47 253 72.5 271Q98 289 133.5 297.5Q169 306 212 310L301 318V338Q301 355 288.5 364.5Q276 374 233 374Q210 374 186 370.5Q162 367 138.5 361.5Q115 356 93.5 348.5Q72 341 56 333L54 481Q69 487 92 493.5Q115 500 143 505Q171 510 201.5 513Q232 516 262 516Q331 516 374 503Q417 490 441 465.5Q465 441 474 406Q483 371 483 328V0H352L333 32Q310 12 274 -2Q238 -16 186 -16Q140 -16 108 -3.5Q76 9 56 30.5Q36 52 27 81.5Q18 111 18 145ZM243 216Q215 213 201 200.5Q187 188 187 157Q187 128 201.5 117.5Q216 107 236 107Q260 107 277 114Q294 121 302 129V223ZM257 620Q285 620 285 647Q285 662 277.5 668Q270 674 257 674Q229 674 229 648Q229 620 257 620ZM257 537Q200 537 170.5 563Q141 589 141 647Q141 706 170.5 732Q200 758 257 758Q314 758 343.5 732Q373 706 373 648Q373 589 343.5 563Q314 537 257 537Z" glyph-name="aring" horiz-adv-x="511" unicode="&#229;" /><glyph d="M301 375 250 559 199 375H19L164 766H336L481 375Z" glyph-name="asciicircum" horiz-adv-x="500" unicode="^" /><glyph d="M474 247Q463 236 434.5 227Q406 218 371 218Q334 218 303.5 227.5Q273 237 244.5 248Q216 259 187 268.5Q158 278 125 278Q109 278 93 274.5Q77 271 63.5 266.5Q50 262 40 256Q30 250 26 246V403Q37 414 66 423Q95 432 129 432Q166 432 197 422.5Q228 413 256.5 402Q285 391 314 381.5Q343 372 376 372Q391 372 407 375.5Q423 379 436.5 383.5Q450 388 460 393.5Q470 399 474 404Z" glyph-name="asciitilde" horiz-adv-x="500" unicode="~" /><glyph d="M296 347 236 236 62 362 149 453 26 476 92 679 206 624 189 750H403L386 624L500 679L566 476L443 453L530 362L356 236Z" glyph-name="asterisk" horiz-adv-x="592" unicode="*" /><glyph d="M633 50 623 78Q596 56 554 44Q512 32 476 32Q373 32 317.5 83Q262 134 262 250Q262 365 317.5 416.5Q373 468 476 468Q512 468 554 455.5Q596 443 623 422L633 450H766V173Q822 173 843.5 214.5Q865 256 865 327Q865 387 848 428.5Q831 470 792 496Q753 522 690 533.5Q627 545 535 545Q443 545 376 528.5Q309 512 266 477Q223 442 202.5 385.5Q182 329 182 250Q182 170 202.5 114Q223 58 266 23Q309 -12 376 -28.5Q443 -45 535 -45Q575 -45 623.5 -41Q672 -37 719 -30.5Q766 -24 807 -14.5Q848 -5 875 7L878 -108Q850 -118 809.5 -127Q769 -136 722.5 -143Q676 -150 627.5 -154Q579 -158 535 -158Q402 -158 310 -129Q218 -100 160.5 -46.5Q103 7 77 82Q51 157 51 250Q51 343 77 418Q103 493 160.5 546.5Q218 600 310 629Q402 658 535 658Q664 658 752 636.5Q840 615 894 573Q948 531 972 469Q996 407 996 327Q996 265 979 214Q962 163 929 126.5Q896 90 846.5 70Q797 50 732 50ZM572 306Q570 308 555.5 314Q541 320 524 320Q487 320 470.5 304Q454 288 454 250Q454 212 470.5 196Q487 180 524 180Q541 180 555.5 185.5Q570 191 572 193Z" glyph-name="at" horiz-adv-x="1047" unicode="@" /><glyph d="M18 145Q18 193 32.5 223Q47 253 72.5 271Q98 289 133.5 297.5Q169 306 212 310L301 318V338Q301 355 288.5 364.5Q276 374 233 374Q210 374 186 370.5Q162 367 138.5 361.5Q115 356 93.5 348.5Q72 341 56 333L54 481Q69 487 92 493.5Q115 500 143 505Q171 510 201.5 513Q232 516 262 516Q331 516 374 503Q417 490 441 465.5Q465 441 474 406Q483 371 483 328V0H352L333 32Q310 12 274 -2Q238 -16 186 -16Q140 -16 108 -3.5Q76 9 56 30.5Q36 52 27 81.5Q18 111 18 145ZM243 216Q215 213 201 200.5Q187 188 187 157Q187 128 201.5 117.5Q216 107 236 107Q260 107 277 114Q294 121 302 129V223ZM35 583Q35 675 72.5 716.5Q110 758 173 758Q206 758 227.5 746.5Q249 735 265.5 721.5Q282 708 295.5 697Q309 686 326 686Q352 686 361 699Q370 712 370 733H479V713Q479 621 441.5 579.5Q404 538 341 538Q308 538 286.5 549Q265 560 248.5 573.5Q232 587 218.5 598.5Q205 610 188 610Q162 610 153 597Q144 584 144 563H35Z" glyph-name="atilde" horiz-adv-x="511" unicode="&#227;" /><glyph d="M32 0V750H228V489Q251 501 279 508.5Q307 516 341 516Q390 516 426.5 501.5Q463 487 488 455Q513 423 525.5 372.5Q538 322 538 250Q538 178 525.5 127.5Q513 77 488 45Q463 13 426.5 -1.5Q390 -16 341 -16Q290 -16 252.5 -2Q215 12 183 33L162 0ZM228 147Q230 145 245.5 138.5Q261 132 281 132Q320 132 333 159Q346 186 346 250Q346 313 333 340Q320 367 281 367Q261 367 245.5 360.5Q230 354 228 352Z" glyph-name="b" horiz-adv-x="555" unicode="b" /><glyph d="M345 -200 0 800H198L543 -200Z" glyph-name="backslash" horiz-adv-x="543" unicode="\" /><glyph d="M43 -200V800H239V-200Z" glyph-name="bar" horiz-adv-x="282" unicode="|" /><glyph d="M181 277Q203 265 211.5 244.5Q220 224 219 201L202 -51Q199 -76 228 -76H262V-229H182Q152 -229 127 -222Q102 -215 84 -200Q66 -185 56.5 -161Q47 -137 49 -104L66 180Q69 206 43 206H16V348H43Q69 348 66 374L49 658Q47 691 56.5 715Q66 739 84 754Q102 769 127 776Q152 783 182 783H262V630H228Q199 630 202 605L219 353Q220 330 211.5 309.5Q203 289 181 277Z" glyph-name="braceleft" horiz-adv-x="285" unicode="{" /><glyph d="M104 277Q82 289 73.5 309.5Q65 330 66 353L83 605Q86 630 57 630H23V783H103Q133 783 158 776Q183 769 201 754Q219 739 228.5 715Q238 691 236 658L219 374Q216 348 242 348H269V206H242Q216 206 219 180L236 -104Q238 -137 228.5 -161Q219 -185 201 -200Q183 -215 158 -222Q133 -229 103 -229H23V-76H57Q86 -76 83 -51L66 201Q65 224 73.5 244.5Q82 265 104 277Z" glyph-name="braceright" horiz-adv-x="285" unicode="}" /><glyph d="M208 -75H272V-228H56V783H272V630H208Z" glyph-name="bracketleft" horiz-adv-x="295" unicode="[" /><glyph d="M87 630H23V783H239V-228H23V-75H87Z" glyph-name="bracketright" horiz-adv-x="295" unicode="]" /><glyph d="M265 546Q156 546 106 594Q56 642 55 750H179Q179 706 198 688Q217 670 265 670Q313 670 332 688Q351 706 351 750H475Q473 642 423.5 594Q374 546 265 546Z" glyph-name="breve" horiz-adv-x="530" unicode="&#728;" /><glyph d="M265 776Q211 776 171.5 781Q132 786 106.5 800.5Q81 815 68.5 841Q56 867 55 910H179Q179 887 198 878.5Q217 870 265 870Q313 870 332 878.5Q351 887 351 910H475Q474 867 461.5 841Q449 815 423.5 800.5Q398 786 358.5 781Q319 776 265 776Z" glyph-name="breve.cap" horiz-adv-x="530" unicode="&#58406;" /><glyph d="M47 375Q47 404 58 430Q69 456 88 475Q107 494 133 505Q159 516 188 516Q217 516 243 505Q269 494 288 475Q307 456 318 430Q329 404 329 375Q329 346 318 320Q307 294 288 275Q269 256 243 245Q217 234 188 234Q159 234 133 245Q107 256 88 275Q69 294 58 320Q47 346 47 375Z" glyph-name="bullet" horiz-adv-x="377" unicode="&#8226;" /><glyph d="M17 250Q17 314 30.5 364Q44 414 74.5 447.5Q105 481 153 498.5Q201 516 270 516Q314 516 347 510.5Q380 505 403 496L401 338Q384 345 361 350Q338 355 307 355Q259 355 234 332Q209 309 209 250Q209 191 234 168Q259 145 307 145Q338 145 361 150Q384 155 401 162L403 4Q380 -5 347 -10.5Q314 -16 270 -16Q201 -16 153 1.5Q105 19 74.5 52.5Q44 86 30.5 135.5Q17 185 17 250Z" glyph-name="c" horiz-adv-x="428" unicode="c" /><glyph d="M17 250Q17 314 30.5 364Q44 414 74.5 447.5Q105 481 153 498.5Q201 516 270 516Q314 516 347 510.5Q380 505 403 496L401 338Q384 345 361 350Q338 355 307 355Q259 355 234 332Q209 309 209 250Q209 191 234 168Q259 145 307 145Q338 145 361 150Q384 155 401 162L403 4Q380 -5 347 -10.5Q314 -16 270 -16Q201 -16 153 1.5Q105 19 74.5 52.5Q44 86 30.5 135.5Q17 185 17 250ZM176 546 226 750H416L306 546Z" glyph-name="cacute" horiz-adv-x="428" unicode="&#263;" /><glyph d="M475 750 339 546H191L55 750H190L265 670L340 750Z" glyph-name="caron" horiz-adv-x="530" unicode="&#711;" /><glyph d="M475 910 349 786H181L55 910H200L265 870L330 910Z" glyph-name="caron.cap" horiz-adv-x="530" unicode="&#58413;" /><glyph d="M424 750 376 550H295L311 750Z" glyph-name="caronSlovak" horiz-adv-x="530" unicode="&#58387;" /><glyph d="M17 250Q17 314 30.5 364Q44 414 74.5 447.5Q105 481 153 498.5Q201 516 270 516Q314 516 347 510.5Q380 505 403 496L401 338Q384 345 361 350Q338 355 307 355Q259 355 234 332Q209 309 209 250Q209 191 234 168Q259 145 307 145Q338 145 361 150Q384 155 401 162L403 4Q380 -5 347 -10.5Q314 -16 270 -16Q201 -16 153 1.5Q105 19 74.5 52.5Q44 86 30.5 135.5Q17 185 17 250ZM451 750 315 546H167L31 750H166L241 670L316 750Z" glyph-name="ccaron" horiz-adv-x="428" unicode="&#269;" /><glyph d="M199 -10Q101 6 59 72.5Q17 139 17 250Q17 314 30.5 364Q44 414 74.5 447.5Q105 481 153 498.5Q201 516 270 516Q314 516 347 510.5Q380 505 403 496L401 338Q384 345 361 350Q338 355 307 355Q259 355 234 332Q209 309 209 250Q209 191 234 168Q259 145 307 145Q338 145 361 150Q384 155 401 162L403 4Q381 -4 351 -9.5Q321 -15 283 -16L285 -47Q339 -61 362.5 -85.5Q386 -110 386 -145Q386 -200 345 -225Q304 -250 240 -250Q205 -250 177.5 -245Q150 -240 136 -234V-136Q146 -139 169 -143Q192 -147 215 -147Q267 -147 267 -122Q267 -110 252 -100Q237 -90 192 -84Z" glyph-name="ccedilla" horiz-adv-x="428" unicode="&#231;" /><glyph d="M17 250Q17 314 30.5 364Q44 414 74.5 447.5Q105 481 153 498.5Q201 516 270 516Q314 516 347 510.5Q380 505 403 496L401 338Q384 345 361 350Q338 355 307 355Q259 355 234 332Q209 309 209 250Q209 191 234 168Q259 145 307 145Q338 145 361 150Q384 155 401 162L403 4Q380 -5 347 -10.5Q314 -16 270 -16Q201 -16 153 1.5Q105 19 74.5 52.5Q44 86 30.5 135.5Q17 185 17 250ZM31 546 167 750H315L451 546H316L241 626L166 546Z" glyph-name="ccircumflex" horiz-adv-x="428" unicode="&#265;" /><glyph d="M17 250Q17 314 30.5 364Q44 414 74.5 447.5Q105 481 153 498.5Q201 516 270 516Q314 516 347 510.5Q380 505 403 496L401 338Q384 345 361 350Q338 355 307 355Q259 355 234 332Q209 309 209 250Q209 191 234 168Q259 145 307 145Q338 145 361 150Q384 155 401 162L403 4Q380 -5 347 -10.5Q314 -16 270 -16Q201 -16 153 1.5Q105 19 74.5 52.5Q44 86 30.5 135.5Q17 185 17 250ZM131 648Q131 671 139.5 691Q148 711 163 726Q178 741 198 749.5Q218 758 241 758Q264 758 284 749.5Q304 741 319 726Q334 711 342.5 691Q351 671 351 648Q351 625 342.5 605Q334 585 319 570Q304 555 284 546.5Q264 538 241 538Q218 538 198 546.5Q178 555 163 570Q148 585 139.5 605Q131 625 131 648Z" glyph-name="cdotaccent" horiz-adv-x="428" unicode="&#267;" /><glyph d="M225 0H307L310 -47Q364 -61 387.5 -85.5Q411 -110 411 -145Q411 -200 370 -225Q329 -250 265 -250Q230 -250 202.5 -245Q175 -240 161 -234V-136Q171 -139 194 -143Q217 -147 240 -147Q292 -147 292 -122Q292 -110 277 -100Q262 -90 217 -84Z" glyph-name="cedilla" horiz-adv-x="530" unicode="&#184;" /><glyph d="M264 375Q264 322 292 297Q320 272 380 272Q422 272 459 280Q496 288 523 298L525 140Q499 128 453.5 118.5Q408 109 347 109H331L294 0H153L201 134Q135 163 104.5 223Q74 283 74 375Q74 502 133.5 568Q193 634 322 640L360 750H501L458 630Q479 626 495.5 620.5Q512 615 525 610L523 452Q496 462 459 469.5Q422 477 380 477Q320 477 292 452Q264 427 264 375Z" glyph-name="cent" horiz-adv-x="600" unicode="&#162;" /><glyph d="M55 546 191 750H339L475 546H340L265 626L190 546Z" glyph-name="circumflex" horiz-adv-x="530" unicode="&#710;" /><glyph d="M55 786 181 910H349L475 786H330L265 826L200 786Z" glyph-name="circumflex.cap" horiz-adv-x="530" unicode="&#58403;" /><glyph d="M20 94Q20 117 28.5 137Q37 157 52 172Q67 187 87 195.5Q107 204 130 204Q153 204 173 195.5Q193 187 208 172Q223 157 231.5 137Q240 117 240 94Q240 71 231.5 51Q223 31 208 16Q193 1 173 -7.5Q153 -16 130 -16Q107 -16 87 -7.5Q67 1 52 16Q37 31 28.5 51Q20 71 20 94ZM20 390Q20 413 28.5 433Q37 453 52 468Q67 483 87 491.5Q107 500 130 500Q153 500 173 491.5Q193 483 208 468Q223 453 231.5 433Q240 413 240 390Q240 367 231.5 347Q223 327 208 312Q193 297 173 288.5Q153 280 130 280Q107 280 87 288.5Q67 297 52 312Q37 327 28.5 347Q20 367 20 390Z" glyph-name="colon" horiz-adv-x="260" unicode=":" /><glyph d="M0 -125 34 175H240L140 -125Z" glyph-name="comma" horiz-adv-x="260" unicode="," /><glyph d="M155 -250 175 -46H361L301 -250Z" glyph-name="commaaccent" horiz-adv-x="530" unicode="&#58388;" /><glyph d="M162 -250 182 -46H368L308 -250Z" glyph-name="commaaccent.cap" horiz-adv-x="530" /><glyph d="M387 -14Q319 -14 258 3.5Q197 21 151 60Q105 99 78 161Q51 223 51 312Q51 402 78 464Q105 526 151 565Q197 604 258 621.5Q319 639 387 639Q456 639 517.5 621.5Q579 604 625 565Q671 526 698 464Q725 402 725 312Q725 223 698 161Q671 99 625 60Q579 21 517.5 3.5Q456 -14 387 -14ZM389 63Q441 63 487.5 76.5Q534 90 569 119.5Q604 149 624.5 196.5Q645 244 645 312Q645 380 624.5 427.5Q604 475 569 505Q534 535 487.5 548.5Q441 562 389 562Q336 562 289 548.5Q242 535 207 505Q172 475 151.5 427.5Q131 380 131 312Q131 244 151.5 196.5Q172 149 207 119.5Q242 90 289 76.5Q336 63 389 63ZM196 313Q196 413 245 462.5Q294 512 397 512Q440 512 471.5 505.5Q503 499 523 490L521 368Q501 375 474 380.5Q447 386 418 386Q383 386 361.5 369.5Q340 353 340 313Q340 273 361.5 256.5Q383 240 418 240Q447 240 474 245Q501 250 521 258L523 136Q503 127 471.5 120Q440 113 397 113Q294 113 245 163Q196 213 196 313Z" glyph-name="copyright" horiz-adv-x="776" unicode="&#169;" /><glyph d="M393 0 372 33Q340 12 302.5 -2Q265 -16 214 -16Q116 -16 66.5 45Q17 106 17 250Q17 394 66.5 455Q116 516 214 516Q248 516 276 508.5Q304 501 327 489V750H523V0ZM327 352Q325 354 309.5 360.5Q294 367 274 367Q235 367 222 340Q209 313 209 250Q209 186 222 159Q235 132 274 132Q294 132 309.5 138.5Q325 145 327 147Z" glyph-name="d" horiz-adv-x="555" unicode="d" /><glyph d="M327 250H103L128 461L13 444V652L128 635L111 750H319L302 635L417 652V444L302 461Z" glyph-name="dagger" horiz-adv-x="430" unicode="&#8224;" /><glyph d="M302 461 308 423 302 385 417 402V194L302 211L327 0H103L128 211L13 194V402L128 385L122 423L128 461L13 444V652L128 635L111 750H319L302 635L417 652V444Z" glyph-name="daggerdbl" horiz-adv-x="430" unicode="&#8225;" /><glyph d="M393 0 372 33Q340 12 302.5 -2Q265 -16 214 -16Q116 -16 66.5 45Q17 106 17 250Q17 394 66.5 455Q116 516 214 516Q248 516 276 508.5Q304 501 327 489V750H523V0ZM327 352Q325 354 309.5 360.5Q294 367 274 367Q235 367 222 340Q209 313 209 250Q209 186 222 159Q235 132 274 132Q294 132 309.5 138.5Q325 145 327 147ZM682 750 634 550H553L569 750Z" glyph-name="dcaron" horiz-adv-x="555" unicode="&#271;" /><glyph d="M224 670H327V750H523V670H593V546H523V0H393L372 33Q340 12 302.5 -2Q265 -16 214 -16Q116 -16 66.5 45Q17 106 17 250Q17 394 66.5 455Q116 516 214 516Q248 516 276 508.5Q304 501 327 489V546H224ZM327 352Q325 354 309.5 360.5Q294 367 274 367Q235 367 222 340Q209 313 209 250Q209 186 222 159Q235 132 274 132Q294 132 309.5 138.5Q325 145 327 147Z" glyph-name="dcroat" horiz-adv-x="555" unicode="&#273;" /><glyph d="M390 600Q390 434 213 434Q36 434 36 600Q36 766 213 766Q390 766 390 600ZM173 600Q173 585 181.5 575Q190 565 213 565Q236 565 244.5 575Q253 585 253 600Q253 615 244.5 625Q236 635 213 635Q190 635 181.5 625Q173 615 173 600Z" glyph-name="degree" horiz-adv-x="426" unicode="&#176;" /><glyph d="M30 648Q30 671 38.5 691Q47 711 62 726Q77 741 97 749.5Q117 758 140 758Q163 758 183 749.5Q203 741 218 726Q233 711 241.5 691Q250 671 250 648Q250 625 241.5 605Q233 585 218 570Q203 555 183 546.5Q163 538 140 538Q117 538 97 546.5Q77 555 62 570Q47 585 38.5 605Q30 625 30 648ZM280 648Q280 671 288.5 691Q297 711 312 726Q327 741 347 749.5Q367 758 390 758Q413 758 433 749.5Q453 741 468 726Q483 711 491.5 691Q500 671 500 648Q500 625 491.5 605Q483 585 468 570Q453 555 433 546.5Q413 538 390 538Q367 538 347 546.5Q327 555 312 570Q297 585 288.5 605Q280 625 280 648Z" glyph-name="dieresis" horiz-adv-x="530" unicode="&#168;" /><glyph d="M280 848Q280 871 288.5 885Q297 899 312 907Q327 915 347 917.5Q367 920 390 920Q413 920 433 917.5Q453 915 468 907Q483 899 491.5 885Q500 871 500 848Q500 825 491.5 811Q483 797 468 789Q453 781 433 778.5Q413 776 390 776Q367 776 347 778.5Q327 781 312 789Q297 797 288.5 811Q280 825 280 848ZM30 848Q30 871 38.5 885Q47 899 62 907Q77 915 97 917.5Q117 920 140 920Q163 920 183 917.5Q203 915 218 907Q233 899 241.5 885Q250 871 250 848Q250 825 241.5 811Q233 797 218 789Q203 781 183 778.5Q163 776 140 776Q117 776 97 778.5Q77 781 62 789Q47 797 38.5 811Q30 825 30 848Z" glyph-name="dieresis.cap" horiz-adv-x="530" unicode="&#58409;" /><glyph d="M40 250V432H560V250ZM190 120Q190 143 198.5 163Q207 183 222 198Q237 213 257 221.5Q277 230 300 230Q323 230 343 221.5Q363 213 378 198Q393 183 401.5 163Q410 143 410 120Q410 97 401.5 77Q393 57 378 42Q363 27 343 18.5Q323 10 300 10Q277 10 257 18.5Q237 27 222 42Q207 57 198.5 77Q190 97 190 120ZM190 562Q190 585 198.5 605Q207 625 222 640Q237 655 257 663.5Q277 672 300 672Q323 672 343 663.5Q363 655 378 640Q393 625 401.5 605Q410 585 410 562Q410 539 401.5 519Q393 499 378 484Q363 469 343 460.5Q323 452 300 452Q277 452 257 460.5Q237 469 222 484Q207 499 198.5 519Q190 539 190 562Z" glyph-name="divide" horiz-adv-x="600" unicode="&#247;" /><glyph d="M66 -125 107 3Q58 16 26 36L28 219Q50 206 84.5 193Q119 180 162 171L206 308Q159 318 125 334Q91 350 69 375.5Q47 401 36.5 438Q26 475 26 527Q26 582 43.5 626.5Q61 671 97 702Q133 733 188.5 749.5Q244 766 321 766Q330 766 338.5 766Q347 766 355 765L391 875H502L462 752Q513 741 542 727L539 548Q514 559 479.5 568.5Q445 578 407 583L366 457Q418 448 457 434Q496 420 522 395Q548 370 561 332Q574 294 574 237Q574 166 552.5 117.5Q531 69 491.5 39.5Q452 10 396 -3Q340 -16 272 -16Q257 -16 242 -15.5Q227 -15 213 -14L177 -125ZM378 227Q378 256 361 270Q344 284 312 291L270 162Q330 164 354 181Q378 198 378 227ZM221 528Q221 506 231 494Q241 482 261 475L297 585Q221 576 221 528Z" glyph-name="dollar" horiz-adv-x="600" unicode="$" /><glyph d="M155 648Q155 671 163.5 691Q172 711 187 726Q202 741 222 749.5Q242 758 265 758Q288 758 308 749.5Q328 741 343 726Q358 711 366.5 691Q375 671 375 648Q375 625 366.5 605Q358 585 343 570Q328 555 308 546.5Q288 538 265 538Q242 538 222 546.5Q202 555 187 570Q172 585 163.5 605Q155 625 155 648Z" glyph-name="dotaccent" horiz-adv-x="530" unicode="&#729;" /><glyph d="M155 848Q155 871 163.5 885Q172 899 187 907Q202 915 222 917.5Q242 920 265 920Q288 920 308 917.5Q328 915 343 907Q358 899 366.5 885Q375 871 375 848Q375 825 366.5 811Q358 797 343 789Q328 781 308 778.5Q288 776 265 776Q242 776 222 778.5Q202 781 187 789Q172 797 163.5 811Q155 825 155 848Z" glyph-name="dotaccent.cap" horiz-adv-x="530" unicode="&#58408;" /><glyph d="M269 -2Q258 -4 247 -6Q236 -8 223 -9Q210 -10 196 -10Q161 -10 131 -2Q101 6 79.5 23.5Q58 41 46 68Q34 95 34 133V500H230V179Q230 164 239 156.5Q248 149 269 149Z" glyph-name="dotlessi" horiz-adv-x="284" unicode="&#305;" /><glyph d="M-53 -107Q-24 -107 -6 -101Q12 -95 22 -84.5Q32 -74 35.5 -58.5Q39 -43 39 -23V500H235V-60Q235 -115 212.5 -154Q190 -193 151 -218Q112 -243 59.5 -254.5Q7 -266 -53 -266Z" glyph-name="dotlessj" horiz-adv-x="273" unicode="&#567;" /><glyph d="M210 910H404L450 786H290ZM0 910H194L240 786H80Z" glyph-name="doublegrave.cap" horiz-adv-x="530" unicode="&#58412;" /><glyph d="M192 194Q190 158 214.5 142Q239 126 302 126Q350 126 396.5 135Q443 144 478 156L481 19Q435 0 378 -8Q321 -16 275 -16Q206 -16 157 0Q108 16 77 49Q46 82 31.5 132Q17 182 17 250Q17 387 78 451.5Q139 516 269 516Q338 516 382 497Q426 478 451.5 445.5Q477 413 487 370.5Q497 328 497 280Q497 260 496 238Q495 216 493 194ZM269 384Q236 384 213.5 361.5Q191 339 192 294H329Q334 338 318.5 361Q303 384 269 384Z" glyph-name="e" horiz-adv-x="517" unicode="e" /><glyph d="M192 194Q190 158 214.5 142Q239 126 302 126Q350 126 396.5 135Q443 144 478 156L481 19Q435 0 378 -8Q321 -16 275 -16Q206 -16 157 0Q108 16 77 49Q46 82 31.5 132Q17 182 17 250Q17 387 78 451.5Q139 516 269 516Q338 516 382 497Q426 478 451.5 445.5Q477 413 487 370.5Q497 328 497 280Q497 260 496 238Q495 216 493 194ZM269 384Q236 384 213.5 361.5Q191 339 192 294H329Q334 338 318.5 361Q303 384 269 384ZM198 546 248 750H438L328 546Z" glyph-name="eacute" horiz-adv-x="517" unicode="&#233;" /><glyph d="M192 194Q190 158 214.5 142Q239 126 302 126Q350 126 396.5 135Q443 144 478 156L481 19Q435 0 378 -8Q321 -16 275 -16Q206 -16 157 0Q108 16 77 49Q46 82 31.5 132Q17 182 17 250Q17 387 78 451.5Q139 516 269 516Q338 516 382 497Q426 478 451.5 445.5Q477 413 487 370.5Q497 328 497 280Q497 260 496 238Q495 216 493 194ZM269 384Q236 384 213.5 361.5Q191 339 192 294H329Q334 338 318.5 361Q303 384 269 384ZM263 546Q154 546 104 594Q54 642 53 750H177Q177 706 196 688Q215 670 263 670Q311 670 330 688Q349 706 349 750H473Q471 642 421.5 594Q372 546 263 546Z" glyph-name="ebreve" horiz-adv-x="517" unicode="&#277;" /><glyph d="M192 194Q190 158 214.5 142Q239 126 302 126Q350 126 396.5 135Q443 144 478 156L481 19Q435 0 378 -8Q321 -16 275 -16Q206 -16 157 0Q108 16 77 49Q46 82 31.5 132Q17 182 17 250Q17 387 78 451.5Q139 516 269 516Q338 516 382 497Q426 478 451.5 445.5Q477 413 487 370.5Q497 328 497 280Q497 260 496 238Q495 216 493 194ZM269 384Q236 384 213.5 361.5Q191 339 192 294H329Q334 338 318.5 361Q303 384 269 384ZM473 750 337 546H189L53 750H188L263 670L338 750Z" glyph-name="ecaron" horiz-adv-x="517" unicode="&#283;" /><glyph d="M192 194Q190 158 214.5 142Q239 126 302 126Q350 126 396.5 135Q443 144 478 156L481 19Q435 0 378 -8Q321 -16 275 -16Q206 -16 157 0Q108 16 77 49Q46 82 31.5 132Q17 182 17 250Q17 387 78 451.5Q139 516 269 516Q338 516 382 497Q426 478 451.5 445.5Q477 413 487 370.5Q497 328 497 280Q497 260 496 238Q495 216 493 194ZM269 384Q236 384 213.5 361.5Q191 339 192 294H329Q334 338 318.5 361Q303 384 269 384ZM53 546 189 750H337L473 546H338L263 626L188 546Z" glyph-name="ecircumflex" horiz-adv-x="517" unicode="&#234;" /><glyph d="M192 194Q190 158 214.5 142Q239 126 302 126Q350 126 396.5 135Q443 144 478 156L481 19Q435 0 378 -8Q321 -16 275 -16Q206 -16 157 0Q108 16 77 49Q46 82 31.5 132Q17 182 17 250Q17 387 78 451.5Q139 516 269 516Q338 516 382 497Q426 478 451.5 445.5Q477 413 487 370.5Q497 328 497 280Q497 260 496 238Q495 216 493 194ZM269 384Q236 384 213.5 361.5Q191 339 192 294H329Q334 338 318.5 361Q303 384 269 384ZM28 648Q28 671 36.5 691Q45 711 60 726Q75 741 95 749.5Q115 758 138 758Q161 758 181 749.5Q201 741 216 726Q231 711 239.5 691Q248 671 248 648Q248 625 239.5 605Q231 585 216 570Q201 555 181 546.5Q161 538 138 538Q115 538 95 546.5Q75 555 60 570Q45 585 36.5 605Q28 625 28 648ZM278 648Q278 671 286.5 691Q295 711 310 726Q325 741 345 749.5Q365 758 388 758Q411 758 431 749.5Q451 741 466 726Q481 711 489.5 691Q498 671 498 648Q498 625 489.5 605Q481 585 466 570Q451 555 431 546.5Q411 538 388 538Q365 538 345 546.5Q325 555 310 570Q295 585 286.5 605Q278 625 278 648Z" glyph-name="edieresis" horiz-adv-x="517" unicode="&#235;" /><glyph d="M192 194Q190 158 214.5 142Q239 126 302 126Q350 126 396.5 135Q443 144 478 156L481 19Q435 0 378 -8Q321 -16 275 -16Q206 -16 157 0Q108 16 77 49Q46 82 31.5 132Q17 182 17 250Q17 387 78 451.5Q139 516 269 516Q338 516 382 497Q426 478 451.5 445.5Q477 413 487 370.5Q497 328 497 280Q497 260 496 238Q495 216 493 194ZM269 384Q236 384 213.5 361.5Q191 339 192 294H329Q334 338 318.5 361Q303 384 269 384ZM153 648Q153 671 161.5 691Q170 711 185 726Q200 741 220 749.5Q240 758 263 758Q286 758 306 749.5Q326 741 341 726Q356 711 364.5 691Q373 671 373 648Q373 625 364.5 605Q356 585 341 570Q326 555 306 546.5Q286 538 263 538Q240 538 220 546.5Q200 555 185 570Q170 585 161.5 605Q153 625 153 648Z" glyph-name="edotaccent" horiz-adv-x="517" unicode="&#279;" /><glyph d="M192 194Q190 158 214.5 142Q239 126 302 126Q350 126 396.5 135Q443 144 478 156L481 19Q435 0 378 -8Q321 -16 275 -16Q206 -16 157 0Q108 16 77 49Q46 82 31.5 132Q17 182 17 250Q17 387 78 451.5Q139 516 269 516Q338 516 382 497Q426 478 451.5 445.5Q477 413 487 370.5Q497 328 497 280Q497 260 496 238Q495 216 493 194ZM269 384Q236 384 213.5 361.5Q191 339 192 294H329Q334 338 318.5 361Q303 384 269 384ZM88 750H278L328 546H198Z" glyph-name="egrave" horiz-adv-x="517" unicode="&#232;" /><glyph d="M300 -16Q170 -16 96.5 42.5Q23 101 23 220Q23 253 31.5 281Q40 309 54 331Q68 353 85 369Q102 385 119 394Q92 414 68.5 452Q45 490 45 547Q45 651 106 708.5Q167 766 300 766Q432 766 493 708.5Q554 651 554 547Q554 490 530.5 452Q507 414 480 394Q497 385 514 369Q531 353 545 331Q559 309 568 281Q577 253 577 220Q577 101 503 42.5Q429 -16 300 -16ZM203 233Q203 198 224.5 173.5Q246 149 300 149Q354 149 375 173.5Q396 198 396 233Q396 274 373.5 297.5Q351 321 300 321Q249 321 226 297.5Q203 274 203 233ZM300 459Q335 459 354 478Q373 497 373 531Q373 569 352.5 585.5Q332 602 300 602Q268 602 247.5 585.5Q227 569 227 531Q227 497 246 478Q265 459 300 459Z" glyph-name="eight" horiz-adv-x="600" unicode="8" /><glyph d="M120 94Q120 117 128.5 137Q137 157 152 172Q167 187 187 195.5Q207 204 230 204Q253 204 273 195.5Q293 187 308 172Q323 157 331.5 137Q340 117 340 94Q340 71 331.5 51Q323 31 308 16Q293 1 273 -7.5Q253 -16 230 -16Q207 -16 187 -7.5Q167 1 152 16Q137 31 128.5 51Q120 71 120 94ZM510 94Q510 117 518.5 137Q527 157 542 172Q557 187 577 195.5Q597 204 620 204Q643 204 663 195.5Q683 187 698 172Q713 157 721.5 137Q730 117 730 94Q730 71 721.5 51Q713 31 698 16Q683 1 663 -7.5Q643 -16 620 -16Q597 -16 577 -7.5Q557 1 542 16Q527 31 518.5 51Q510 71 510 94ZM900 94Q900 117 908.5 137Q917 157 932 172Q947 187 967 195.5Q987 204 1010 204Q1033 204 1053 195.5Q1073 187 1088 172Q1103 157 1111.5 137Q1120 117 1120 94Q1120 71 1111.5 51Q1103 31 1088 16Q1073 1 1053 -7.5Q1033 -16 1010 -16Q987 -16 967 -7.5Q947 1 932 16Q917 31 908.5 51Q900 71 900 94Z" glyph-name="ellipsis" horiz-adv-x="1240" unicode="&#8230;" /><glyph d="M192 194Q190 158 214.5 142Q239 126 302 126Q350 126 396.5 135Q443 144 478 156L481 19Q435 0 378 -8Q321 -16 275 -16Q206 -16 157 0Q108 16 77 49Q46 82 31.5 132Q17 182 17 250Q17 387 78 451.5Q139 516 269 516Q338 516 382 497Q426 478 451.5 445.5Q477 413 487 370.5Q497 328 497 280Q497 260 496 238Q495 216 493 194ZM269 384Q236 384 213.5 361.5Q191 339 192 294H329Q334 338 318.5 361Q303 384 269 384ZM419 583H107V713H419Z" glyph-name="emacron" horiz-adv-x="517" unicode="&#275;" /><glyph d="M974 248H26V402H974Z" glyph-name="emdash" horiz-adv-x="1000" unicode="&#8212;" /><glyph d="M474 248H26V402H474Z" glyph-name="endash" horiz-adv-x="500" unicode="&#8211;" /><glyph d="M238 -107Q267 -107 285 -101Q303 -95 313 -84.5Q323 -74 326.5 -58.5Q330 -43 330 -23V323Q330 363 292 363Q271 363 254.5 357Q238 351 228 345V0H32V500H162L180 468Q216 491 259 503.5Q302 516 347 516Q402 516 436.5 502.5Q471 489 491 465.5Q511 442 518.5 410Q526 378 526 341V-60Q526 -115 503.5 -154Q481 -193 442 -218Q403 -243 350.5 -254.5Q298 -266 238 -266Z" glyph-name="eng" horiz-adv-x="554" unicode="&#331;" /><glyph d="M17 250Q17 387 78 451.5Q139 516 269 516Q338 516 382 497Q426 478 451.5 445.5Q477 413 487 370.5Q497 328 497 280Q497 260 496 238Q495 216 493 194H192Q190 158 214.5 142Q239 126 302 126Q350 126 396.5 135Q443 144 478 156L481 19Q465 12 448.5 7Q432 2 414 -1Q360 -17 334.5 -45Q309 -73 309 -99Q309 -120 323.5 -132.5Q338 -145 369 -145Q392 -145 406.5 -141.5Q421 -138 429 -136V-234Q415 -239 392 -244.5Q369 -250 327 -250Q258 -250 213.5 -218.5Q169 -187 169 -127Q169 -91 184.5 -63.5Q200 -36 226 -14Q114 -3 65.5 61.5Q17 126 17 250ZM269 384Q236 384 213.5 361.5Q191 339 192 294H329Q334 338 318.5 361Q303 384 269 384Z" glyph-name="eogonek" horiz-adv-x="517" unicode="&#281;" /><glyph d="M40 364V546H560V364ZM40 136V318H560V136Z" glyph-name="equal" horiz-adv-x="600" unicode="=" /><glyph d="M513 250Q513 184 500 134.5Q487 85 458 51.5Q429 18 382 1Q335 -16 265 -16Q194 -16 146.5 1Q99 18 70 52Q41 86 29 135.5Q17 185 17 250Q17 381 67 448.5Q117 516 232 516Q252 516 269.5 514Q287 512 298 508Q290 525 279.5 541Q269 557 259 570L88 510V617L184 652Q144 687 104.5 711.5Q65 736 36 750H272Q287 741 303 730Q319 719 336 705L464 750V643L413 624Q434 595 452 558Q470 521 483.5 475Q497 429 505 373Q513 317 513 250ZM207 250Q207 181 219.5 156.5Q232 132 265 132Q297 132 309.5 156.5Q322 181 322 250Q322 319 309.5 343.5Q297 368 265 368Q232 368 219.5 343.5Q207 319 207 250Z" glyph-name="eth" horiz-adv-x="530" unicode="&#240;" /><glyph d="M65 230 18 750H242L195 230ZM20 94Q20 117 28.5 137Q37 157 52 172Q67 187 87 195.5Q107 204 130 204Q153 204 173 195.5Q193 187 208 172Q223 157 231.5 137Q240 117 240 94Q240 71 231.5 51Q223 31 208 16Q193 1 173 -7.5Q153 -16 130 -16Q107 -16 87 -7.5Q67 1 52 16Q37 31 28.5 51Q20 71 20 94Z" glyph-name="exclam" horiz-adv-x="260" unicode="!" /><glyph d="M195 270 242 -250H18L65 270ZM20 406Q20 429 28.5 449Q37 469 52 484Q67 499 87 507.5Q107 516 130 516Q153 516 173 507.5Q193 499 208 484Q223 469 231.5 449Q240 429 240 406Q240 383 231.5 363Q223 343 208 328Q193 313 173 304.5Q153 296 130 296Q107 296 87 304.5Q67 313 52 328Q37 343 28.5 363Q20 383 20 406Z" glyph-name="exclamdown" horiz-adv-x="260" unicode="&#161;" /><glyph d="M403 595Q398 598 380 603.5Q362 609 333 609Q306 609 292.5 596Q279 583 279 561V500H395V351H279V0H83V351H4V473L83 495V583Q83 674 131.5 720Q180 766 289 766Q334 766 364.5 759.5Q395 753 406 748Z" glyph-name="f" horiz-adv-x="403" unicode="f" /><glyph d="M403 595Q398 598 380 603.5Q362 609 333 609Q306 609 292.5 596Q279 583 279 561V500H395V351H279V0H83V351H4V473L83 495V583Q83 674 131.5 720Q180 766 289 766Q334 766 364.5 759.5Q395 753 406 748ZM672 -2Q661 -4 650 -6Q639 -8 626 -9Q613 -10 599 -10Q564 -10 534 -2Q504 6 482.5 23.5Q461 41 449 68Q437 95 437 133V500H633V179Q633 164 642 156.5Q651 149 672 149ZM425 648Q425 671 433.5 691Q442 711 457 726Q472 741 492 749.5Q512 758 535 758Q558 758 578 749.5Q598 741 613 726Q628 711 636.5 691Q645 671 645 648Q645 625 636.5 605Q628 585 613 570Q598 555 578 546.5Q558 538 535 538Q512 538 492 546.5Q472 555 457 570Q442 585 433.5 605Q425 625 425 648Z" glyph-name="fi" horiz-adv-x="687" unicode="&#64257;" /><glyph d="M270 -16Q240 -16 207 -14Q174 -12 142.5 -8Q111 -4 82.5 3Q54 10 35 19L37 185Q72 172 130 162Q188 152 254 152Q282 152 305 155.5Q328 159 344.5 168Q361 177 370 193.5Q379 210 379 236Q379 260 372.5 274.5Q366 289 354 297.5Q342 306 325 309Q308 312 288 312H53V750H548V583H240V464H309Q363 464 410 456Q457 448 492 424Q527 400 547 355Q567 310 567 237Q567 157 541.5 107.5Q516 58 474 30.5Q432 3 378.5 -6.5Q325 -16 270 -16Z" glyph-name="five" horiz-adv-x="600" unicode="5" /><glyph d="M403 595Q398 598 380 603.5Q362 609 333 609Q306 609 292.5 596Q279 583 279 561V500H395V351H279V0H83V351H4V473L83 495V583Q83 674 131.5 720Q180 766 289 766Q334 766 364.5 759.5Q395 753 406 748ZM672 -2Q661 -4 650 -6Q639 -8 626 -9Q613 -10 599 -10Q564 -10 534 -2Q504 6 482.5 23.5Q461 41 449 68Q437 95 437 133V750H633V179Q633 164 642 156.5Q651 149 672 149Z" glyph-name="fl" horiz-adv-x="687" unicode="&#64258;" /><glyph d="M306 0H114V375H35V498H114V535Q114 584 126 626.5Q138 669 167.5 700Q197 731 247 748.5Q297 766 374 766Q442 766 486.5 757Q531 748 565 733L563 574Q527 586 489.5 593.5Q452 601 403 601Q358 601 332 584Q306 567 306 526V498H515V375H306Z" glyph-name="florin" horiz-adv-x="600" unicode="&#402;" /><glyph d="M503 766V318H584V152H503V0H313V152H15V275L344 766ZM313 318 315 470 214 315Z" glyph-name="four" horiz-adv-x="600" unicode="4" /><glyph d="M-210 0 322 750H464L-67 0Z" glyph-name="fraction" horiz-adv-x="254" unicode="&#8260;" /><glyph d="M16 323Q16 423 72 469.5Q128 516 251 516Q289 516 320.5 512.5Q352 509 379 500H543V375L484 359Q487 341 487 323Q487 222 430.5 176Q374 130 251 130Q237 130 224.5 130Q212 130 200 131Q198 129 196.5 125Q195 121 195 116Q195 101 215 100L416 78Q456 73 482 60Q508 47 523.5 27Q539 7 545 -19Q551 -45 551 -75Q551 -126 525 -162Q499 -198 455.5 -221Q412 -244 353.5 -255Q295 -266 231 -266Q109 -266 47 -231.5Q-15 -197 -15 -130Q-15 -104 -6.5 -83.5Q2 -63 16 -48Q30 -33 49 -24Q68 -15 88 -10Q63 -1 50 22.5Q37 46 37 72Q37 99 52.5 123Q68 147 93 161Q53 184 34.5 223.5Q16 263 16 323ZM192 -40Q180 -45 171.5 -56Q163 -67 163 -81Q163 -102 180.5 -115.5Q198 -129 250 -129Q300 -129 332.5 -116Q365 -103 365 -82Q365 -72 360.5 -66Q356 -60 342 -58ZM194 320Q194 288 207.5 271Q221 254 251 254Q281 254 294.5 271Q308 288 308 320Q308 352 294.5 369Q281 386 251 386Q221 386 207.5 369Q194 352 194 320Z" glyph-name="g" horiz-adv-x="549" unicode="g" /><glyph d="M16 323Q16 423 72 469.5Q128 516 251 516Q289 516 320.5 512.5Q352 509 379 500H543V375L484 359Q487 341 487 323Q487 222 430.5 176Q374 130 251 130Q237 130 224.5 130Q212 130 200 131Q198 129 196.5 125Q195 121 195 116Q195 101 215 100L416 78Q456 73 482 60Q508 47 523.5 27Q539 7 545 -19Q551 -45 551 -75Q551 -126 525 -162Q499 -198 455.5 -221Q412 -244 353.5 -255Q295 -266 231 -266Q109 -266 47 -231.5Q-15 -197 -15 -130Q-15 -104 -6.5 -83.5Q2 -63 16 -48Q30 -33 49 -24Q68 -15 88 -10Q63 -1 50 22.5Q37 46 37 72Q37 99 52.5 123Q68 147 93 161Q53 184 34.5 223.5Q16 263 16 323ZM192 -40Q180 -45 171.5 -56Q163 -67 163 -81Q163 -102 180.5 -115.5Q198 -129 250 -129Q300 -129 332.5 -116Q365 -103 365 -82Q365 -72 360.5 -66Q356 -60 342 -58ZM194 320Q194 288 207.5 271Q221 254 251 254Q281 254 294.5 271Q308 288 308 320Q308 352 294.5 369Q281 386 251 386Q221 386 207.5 369Q194 352 194 320ZM252 546Q143 546 93 594Q43 642 42 750H166Q166 706 185 688Q204 670 252 670Q300 670 319 688Q338 706 338 750H462Q460 642 410.5 594Q361 546 252 546Z" glyph-name="gbreve" horiz-adv-x="549" unicode="&#287;" /><glyph d="M16 323Q16 423 72 469.5Q128 516 251 516Q289 516 320.5 512.5Q352 509 379 500H543V375L484 359Q487 341 487 323Q487 222 430.5 176Q374 130 251 130Q237 130 224.5 130Q212 130 200 131Q198 129 196.5 125Q195 121 195 116Q195 101 215 100L416 78Q456 73 482 60Q508 47 523.5 27Q539 7 545 -19Q551 -45 551 -75Q551 -126 525 -162Q499 -198 455.5 -221Q412 -244 353.5 -255Q295 -266 231 -266Q109 -266 47 -231.5Q-15 -197 -15 -130Q-15 -104 -6.5 -83.5Q2 -63 16 -48Q30 -33 49 -24Q68 -15 88 -10Q63 -1 50 22.5Q37 46 37 72Q37 99 52.5 123Q68 147 93 161Q53 184 34.5 223.5Q16 263 16 323ZM192 -40Q180 -45 171.5 -56Q163 -67 163 -81Q163 -102 180.5 -115.5Q198 -129 250 -129Q300 -129 332.5 -116Q365 -103 365 -82Q365 -72 360.5 -66Q356 -60 342 -58ZM194 320Q194 288 207.5 271Q221 254 251 254Q281 254 294.5 271Q308 288 308 320Q308 352 294.5 369Q281 386 251 386Q221 386 207.5 369Q194 352 194 320ZM42 546 178 750H326L462 546H327L252 626L177 546Z" glyph-name="gcircumflex" horiz-adv-x="549" unicode="&#285;" /><glyph d="M16 323Q16 423 72 469.5Q128 516 251 516Q289 516 320.5 512.5Q352 509 379 500H543V375L484 359Q487 341 487 323Q487 222 430.5 176Q374 130 251 130Q237 130 224.5 130Q212 130 200 131Q198 129 196.5 125Q195 121 195 116Q195 101 215 100L416 78Q456 73 482 60Q508 47 523.5 27Q539 7 545 -19Q551 -45 551 -75Q551 -126 525 -162Q499 -198 455.5 -221Q412 -244 353.5 -255Q295 -266 231 -266Q109 -266 47 -231.5Q-15 -197 -15 -130Q-15 -104 -6.5 -83.5Q2 -63 16 -48Q30 -33 49 -24Q68 -15 88 -10Q63 -1 50 22.5Q37 46 37 72Q37 99 52.5 123Q68 147 93 161Q53 184 34.5 223.5Q16 263 16 323ZM361 750 341 546H155L215 750ZM192 -40Q180 -45 171.5 -56Q163 -67 163 -81Q163 -102 180.5 -115.5Q198 -129 250 -129Q300 -129 332.5 -116Q365 -103 365 -82Q365 -72 360.5 -66Q356 -60 342 -58ZM194 320Q194 288 207.5 271Q221 254 251 254Q281 254 294.5 271Q308 288 308 320Q308 352 294.5 369Q281 386 251 386Q221 386 207.5 369Q194 352 194 320Z" glyph-name="gcommaaccent" horiz-adv-x="549" unicode="&#291;" /><glyph d="M16 323Q16 423 72 469.5Q128 516 251 516Q289 516 320.5 512.5Q352 509 379 500H543V375L484 359Q487 341 487 323Q487 222 430.5 176Q374 130 251 130Q237 130 224.5 130Q212 130 200 131Q198 129 196.5 125Q195 121 195 116Q195 101 215 100L416 78Q456 73 482 60Q508 47 523.5 27Q539 7 545 -19Q551 -45 551 -75Q551 -126 525 -162Q499 -198 455.5 -221Q412 -244 353.5 -255Q295 -266 231 -266Q109 -266 47 -231.5Q-15 -197 -15 -130Q-15 -104 -6.5 -83.5Q2 -63 16 -48Q30 -33 49 -24Q68 -15 88 -10Q63 -1 50 22.5Q37 46 37 72Q37 99 52.5 123Q68 147 93 161Q53 184 34.5 223.5Q16 263 16 323ZM192 -40Q180 -45 171.5 -56Q163 -67 163 -81Q163 -102 180.5 -115.5Q198 -129 250 -129Q300 -129 332.5 -116Q365 -103 365 -82Q365 -72 360.5 -66Q356 -60 342 -58ZM194 320Q194 288 207.5 271Q221 254 251 254Q281 254 294.5 271Q308 288 308 320Q308 352 294.5 369Q281 386 251 386Q221 386 207.5 369Q194 352 194 320ZM142 648Q142 671 150.5 691Q159 711 174 726Q189 741 209 749.5Q229 758 252 758Q275 758 295 749.5Q315 741 330 726Q345 711 353.5 691Q362 671 362 648Q362 625 353.5 605Q345 585 330 570Q315 555 295 546.5Q275 538 252 538Q229 538 209 546.5Q189 555 174 570Q159 585 150.5 605Q142 625 142 648Z" glyph-name="gdotaccent" horiz-adv-x="549" unicode="&#289;" /><glyph d="M532 571Q532 532 515 503.5Q498 475 478 453Q458 431 441 413.5Q424 396 424 378Q424 358 435.5 347Q447 336 482 325Q517 314 542 302Q567 290 582.5 271.5Q598 253 605.5 226.5Q613 200 613 161Q613 78 562 31Q511 -16 409 -16Q352 -16 314.5 -5.5Q277 5 251 18L254 168Q282 154 317.5 141.5Q353 129 382 129Q405 129 418 136Q431 143 431 162Q431 173 426.5 180Q422 187 414.5 192Q407 197 398.5 200Q390 203 382 206Q347 216 322 228.5Q297 241 281.5 258.5Q266 276 258.5 300Q251 324 251 359Q251 404 268 430.5Q285 457 305.5 477Q326 497 343 515Q360 533 360 560Q360 583 345.5 599.5Q331 616 294 616Q256 616 241 599.5Q226 583 226 560V0H30V564Q30 661 91 713.5Q152 766 286 766Q352 766 399 752.5Q446 739 475.5 714Q505 689 518.5 653Q532 617 532 571Z" glyph-name="germandbls" horiz-adv-x="625" unicode="&#223;" /><glyph d="M90 750H280L330 546H200Z" glyph-name="grave" horiz-adv-x="530" unicode="`" /><glyph d="M105 910H299L345 786H185Z" glyph-name="grave.cap" horiz-adv-x="530" unicode="&#58401;" /><glyph d="M40 248 323 341 40 434V624L560 417V265L40 58Z" glyph-name="greater" horiz-adv-x="600" unicode="&gt;" /><glyph d="M40 324 248 375 40 433V624L560 456V352L40 203ZM40 57V178L560 327V206Z" glyph-name="greaterequal" horiz-adv-x="600" unicode="&#8805;" /><glyph d="M43 305 233 450V307L176 250L233 193V50L43 195ZM243 305 433 450V307L376 250L433 193V50L243 195Z" glyph-name="guillemotleft" horiz-adv-x="482" unicode="&#171;" /><glyph d="M239 195 49 50V193L106 250L49 307V450L239 305ZM439 195 249 50V193L306 250L249 307V450L439 305Z" glyph-name="guillemotright" horiz-adv-x="482" unicode="&#187;" /><glyph d="M43 305 233 450V307L176 250L233 193V50L43 195Z" glyph-name="guilsinglleft" horiz-adv-x="282" unicode="&#8249;" /><glyph d="M239 195 49 50V193L106 250L49 307V450L239 305Z" glyph-name="guilsinglright" horiz-adv-x="282" unicode="&#8250;" /><glyph d="M228 750V490Q254 503 286 509.5Q318 516 347 516Q402 516 436.5 502.5Q471 489 491 465.5Q511 442 518.5 410Q526 378 526 341V0H330V323Q330 363 292 363Q271 363 254.5 357Q238 351 228 345V0H32V750Z" glyph-name="h" horiz-adv-x="554" unicode="h" /><glyph d="M-38 670H32V750H228V670H331V546H228V490Q254 503 286 509.5Q318 516 347 516Q402 516 436.5 502.5Q471 489 491 465.5Q511 442 518.5 410Q526 378 526 341V0H330V323Q330 363 292 363Q271 363 254.5 357Q238 351 228 345V0H32V546H-38Z" glyph-name="hbar" horiz-adv-x="554" unicode="&#295;" /><glyph d="M228 750V490Q254 503 286 509.5Q318 516 347 516Q402 516 436.5 502.5Q471 489 491 465.5Q511 442 518.5 410Q526 378 526 341V0H330V323Q330 363 292 363Q271 363 254.5 357Q238 351 228 345V0H32V750ZM-79 786 47 910H215L341 786H196L131 826L66 786Z" glyph-name="hcircumflex" horiz-adv-x="554" unicode="&#293;" /><glyph d="M100 546 150 750H340L230 546ZM300 546 350 750H540L430 546Z" glyph-name="hungarumlaut" horiz-adv-x="530" unicode="&#733;" /><glyph d="M80 786 126 910H320L240 786ZM290 786 336 910H530L450 786Z" glyph-name="hungarumlaut.cap" horiz-adv-x="530" unicode="&#58411;" /><glyph d="M306 248H26V402H306Z" glyph-name="hyphen" horiz-adv-x="332" unicode="-" /><glyph d="M269 -2Q258 -4 247 -6Q236 -8 223 -9Q210 -10 196 -10Q161 -10 131 -2Q101 6 79.5 23.5Q58 41 46 68Q34 95 34 133V500H230V179Q230 164 239 156.5Q248 149 269 149ZM22 648Q22 671 30.5 691Q39 711 54 726Q69 741 89 749.5Q109 758 132 758Q155 758 175 749.5Q195 741 210 726Q225 711 233.5 691Q242 671 242 648Q242 625 233.5 605Q225 585 210 570Q195 555 175 546.5Q155 538 132 538Q109 538 89 546.5Q69 555 54 570Q39 585 30.5 605Q22 625 22 648Z" glyph-name="i" horiz-adv-x="284" unicode="i" /><glyph d="M269 -2Q258 -4 247 -6Q236 -8 223 -9Q210 -10 196 -10Q161 -10 131 -2Q101 6 79.5 23.5Q58 41 46 68Q34 95 34 133V500H230V179Q230 164 239 156.5Q248 149 269 149ZM68 546 118 750H308L198 546Z" glyph-name="iacute" horiz-adv-x="284" unicode="&#237;" /><glyph d="M269 -2Q258 -4 247 -6Q236 -8 223 -9Q210 -10 196 -10Q161 -10 131 -2Q101 6 79.5 23.5Q58 41 46 68Q34 95 34 133V500H230V179Q230 164 239 156.5Q248 149 269 149ZM133 546Q24 546 -26 594Q-76 642 -77 750H47Q47 706 66 688Q85 670 133 670Q181 670 200 688Q219 706 219 750H343Q341 642 291.5 594Q242 546 133 546Z" glyph-name="ibreve" horiz-adv-x="284" unicode="&#301;" /><glyph d="M269 -2Q258 -4 247 -6Q236 -8 223 -9Q210 -10 196 -10Q161 -10 131 -2Q101 6 79.5 23.5Q58 41 46 68Q34 95 34 133V500H230V179Q230 164 239 156.5Q248 149 269 149ZM-77 546 59 750H207L343 546H208L133 626L58 546Z" glyph-name="icircumflex" horiz-adv-x="284" unicode="&#238;" /><glyph d="M269 -2Q258 -4 247 -6Q236 -8 223 -9Q210 -10 196 -10Q161 -10 131 -2Q101 6 79.5 23.5Q58 41 46 68Q34 95 34 133V500H230V179Q230 164 239 156.5Q248 149 269 149ZM-103 648Q-103 671 -94.5 691Q-86 711 -71 726Q-56 741 -36 749.5Q-16 758 7 758Q30 758 50 749.5Q70 741 85 726Q100 711 108.5 691Q117 671 117 648Q117 625 108.5 605Q100 585 85 570Q70 555 50 546.5Q30 538 7 538Q-16 538 -36 546.5Q-56 555 -71 570Q-86 585 -94.5 605Q-103 625 -103 648ZM147 648Q147 671 155.5 691Q164 711 179 726Q194 741 214 749.5Q234 758 257 758Q280 758 300 749.5Q320 741 335 726Q350 711 358.5 691Q367 671 367 648Q367 625 358.5 605Q350 585 335 570Q320 555 300 546.5Q280 538 257 538Q234 538 214 546.5Q194 555 179 570Q164 585 155.5 605Q147 625 147 648Z" glyph-name="idieresis" horiz-adv-x="284" unicode="&#239;" /><glyph d="M269 -2Q258 -4 247 -6Q236 -8 223 -9Q210 -10 196 -10Q161 -10 131 -2Q101 6 79.5 23.5Q58 41 46 68Q34 95 34 133V500H230V179Q230 164 239 156.5Q248 149 269 149ZM-42 750H148L198 546H68Z" glyph-name="igrave" horiz-adv-x="284" unicode="&#236;" /><glyph d="M269 -2Q258 -4 247 -6Q236 -8 223 -9Q210 -10 196 -10Q161 -10 131 -2Q101 6 79.5 23.5Q58 41 46 68Q34 95 34 133V500H230V179Q230 164 239 156.5Q248 149 269 149ZM22 648Q22 671 30.5 691Q39 711 54 726Q69 741 89 749.5Q109 758 132 758Q155 758 175 749.5Q195 741 210 726Q225 711 233.5 691Q242 671 242 648Q242 625 233.5 605Q225 585 210 570Q195 555 175 546.5Q155 538 132 538Q109 538 89 546.5Q69 555 54 570Q39 585 30.5 605Q22 625 22 648ZM212 -107Q241 -107 259 -101Q277 -95 287 -84.5Q297 -74 300.5 -58.5Q304 -43 304 -23V500H500V-60Q500 -115 477.5 -154Q455 -193 416 -218Q377 -243 324.5 -254.5Q272 -266 212 -266ZM292 648Q292 671 300.5 691Q309 711 324 726Q339 741 359 749.5Q379 758 402 758Q425 758 445 749.5Q465 741 480 726Q495 711 503.5 691Q512 671 512 648Q512 625 503.5 605Q495 585 480 570Q465 555 445 546.5Q425 538 402 538Q379 538 359 546.5Q339 555 324 570Q309 585 300.5 605Q292 625 292 648Z" glyph-name="ij" horiz-adv-x="538" unicode="&#307;" /><glyph d="M269 -2Q258 -4 247 -6Q236 -8 223 -9Q210 -10 196 -10Q161 -10 131 -2Q101 6 79.5 23.5Q58 41 46 68Q34 95 34 133V500H230V179Q230 164 239 156.5Q248 149 269 149ZM289 583H-23V713H289Z" glyph-name="imacron" horiz-adv-x="284" unicode="&#299;" /><glyph d="M763 357Q763 260 712.5 208Q662 156 571 156Q517 156 474.5 180.5Q432 205 400 239Q368 205 325.5 180.5Q283 156 229 156Q138 156 87 208Q36 260 36 357Q36 454 87 506Q138 558 229 558Q283 558 325.5 533Q368 508 400 474Q432 508 474.5 533Q517 558 571 558Q662 558 712.5 506Q763 454 763 357ZM563 312Q584 311 597.5 322.5Q611 334 611 357Q611 380 597.5 391Q584 402 563 402Q540 400 522.5 386Q505 372 491 357Q505 341 522.5 327Q540 313 563 312ZM236 402Q215 402 201.5 391Q188 380 188 357Q188 334 201.5 323Q215 312 236 312Q259 313 276.5 327Q294 341 308 357Q294 372 276.5 386Q259 400 236 402Z" glyph-name="infinity" horiz-adv-x="800" unicode="&#8734;" /><glyph d="M39 583Q39 674 87.5 720Q136 766 245 766Q290 766 320.5 759.5Q351 753 362 748L359 595Q354 598 336 603.5Q318 609 289 609Q262 609 248.5 596Q235 583 235 561V-60Q235 -115 212.5 -154Q190 -193 151 -218Q112 -243 59.5 -254.5Q7 -266 -53 -266V-107Q-24 -107 -6 -101Q12 -95 22 -84.5Q32 -74 35.5 -58.5Q39 -43 39 -23Z" glyph-name="integral" horiz-adv-x="359" unicode="&#8747;" /><glyph d="M265 920Q319 920 358.5 915Q398 910 423.5 895.5Q449 881 461.5 855Q474 829 475 786H351Q351 809 332 817.5Q313 826 265 826Q217 826 198 817.5Q179 809 179 786H55Q56 829 68.5 855Q81 881 106.5 895.5Q132 910 171.5 915Q211 920 265 920Z" glyph-name="invertedbreve.cap" horiz-adv-x="530" unicode="&#58407;" /><glyph d="M269 -2H267Q212 -16 185.5 -44Q159 -72 159 -99Q159 -120 173.5 -132.5Q188 -145 219 -145Q242 -145 256.5 -141.5Q271 -138 279 -136V-234Q265 -239 242 -244.5Q219 -250 177 -250Q108 -250 63.5 -218.5Q19 -187 19 -127Q19 -82 43 -49Q67 -16 105 7Q72 23 53 54Q34 85 34 133V500H230V179Q230 164 239 156.5Q248 149 269 149ZM22 648Q22 671 30.5 691Q39 711 54 726Q69 741 89 749.5Q109 758 132 758Q155 758 175 749.5Q195 741 210 726Q225 711 233.5 691Q242 671 242 648Q242 625 233.5 605Q225 585 210 570Q195 555 175 546.5Q155 538 132 538Q109 538 89 546.5Q69 555 54 570Q39 585 30.5 605Q22 625 22 648Z" glyph-name="iogonek" horiz-adv-x="284" unicode="&#303;" /><glyph d="M269 -2Q258 -4 247 -6Q236 -8 223 -9Q210 -10 196 -10Q161 -10 131 -2Q101 6 79.5 23.5Q58 41 46 68Q34 95 34 133V500H230V179Q230 164 239 156.5Q248 149 269 149ZM-89 583Q-89 675 -51.5 716.5Q-14 758 49 758Q82 758 103.5 746.5Q125 735 141.5 721.5Q158 708 171.5 697Q185 686 202 686Q228 686 237 699Q246 712 246 733H355V713Q355 621 317.5 579.5Q280 538 217 538Q184 538 162.5 549Q141 560 124.5 573.5Q108 587 94.5 598.5Q81 610 64 610Q38 610 29 597Q20 584 20 563H-89Z" glyph-name="itilde" horiz-adv-x="284" unicode="&#297;" /><glyph d="M-53 -107Q-24 -107 -6 -101Q12 -95 22 -84.5Q32 -74 35.5 -58.5Q39 -43 39 -23V500H235V-60Q235 -115 212.5 -154Q190 -193 151 -218Q112 -243 59.5 -254.5Q7 -266 -53 -266ZM27 648Q27 671 35.5 691Q44 711 59 726Q74 741 94 749.5Q114 758 137 758Q160 758 180 749.5Q200 741 215 726Q230 711 238.5 691Q247 671 247 648Q247 625 238.5 605Q230 585 215 570Q200 555 180 546.5Q160 538 137 538Q114 538 94 546.5Q74 555 59 570Q44 585 35.5 605Q27 625 27 648Z" glyph-name="j" horiz-adv-x="273" unicode="j" /><glyph d="M-53 -107Q-24 -107 -6 -101Q12 -95 22 -84.5Q32 -74 35.5 -58.5Q39 -43 39 -23V500H235V-60Q235 -115 212.5 -154Q190 -193 151 -218Q112 -243 59.5 -254.5Q7 -266 -53 -266ZM-72 546 64 750H212L348 546H213L138 626L63 546Z" glyph-name="jcircumflex" horiz-adv-x="273" unicode="&#309;" /><glyph d="M228 750 223 341 328 500H559L381 288L574 0H337L247 177L224 144L228 0H32V750Z" glyph-name="k" horiz-adv-x="569" unicode="k" /><glyph d="M228 750 223 341 328 500H559L381 288L574 0H337L247 177L224 144L228 0H32V750ZM173 -250 193 -46H379L319 -250Z" glyph-name="kcommaaccent" horiz-adv-x="569" unicode="&#311;" /><glyph d="M228 500 223 341 328 500H559L381 288L574 0H337L247 177L224 144L228 0H32V500Z" glyph-name="kgreenlandic" horiz-adv-x="569" unicode="&#312;" /><glyph d="M269 -2Q258 -4 247 -6Q236 -8 223 -9Q210 -10 196 -10Q161 -10 131 -2Q101 6 79.5 23.5Q58 41 46 68Q34 95 34 133V750H230V179Q230 164 239 156.5Q248 149 269 149Z" glyph-name="l" horiz-adv-x="284" unicode="l" /><glyph d="M269 -2Q258 -4 247 -6Q236 -8 223 -9Q210 -10 196 -10Q161 -10 131 -2Q101 6 79.5 23.5Q58 41 46 68Q34 95 34 133V750H230V179Q230 164 239 156.5Q248 149 269 149ZM53 786 103 990H293L183 786Z" glyph-name="lacute" horiz-adv-x="284" unicode="&#314;" /><glyph d="M269 -2Q258 -4 247 -6Q236 -8 223 -9Q210 -10 196 -10Q161 -10 131 -2Q101 6 79.5 23.5Q58 41 46 68Q34 95 34 133V750H230V179Q230 164 239 156.5Q248 149 269 149ZM390 750 342 550H261L277 750Z" glyph-name="lcaron" horiz-adv-x="284" unicode="&#318;" /><glyph d="M269 -2Q258 -4 247 -6Q236 -8 223 -9Q210 -10 196 -10Q161 -10 131 -2Q101 6 79.5 23.5Q58 41 46 68Q34 95 34 133V750H230V179Q230 164 239 156.5Q248 149 269 149ZM36 -250 56 -46H242L182 -250Z" glyph-name="lcommaaccent" horiz-adv-x="284" unicode="&#316;" /><glyph d="M269 -2Q258 -4 247 -6Q236 -8 223 -9Q210 -10 196 -10Q161 -10 131 -2Q101 6 79.5 23.5Q58 41 46 68Q34 95 34 133V750H230V179Q230 164 239 156.5Q248 149 269 149ZM257 326Q257 349 265.5 369Q274 389 289 404Q304 419 324 427.5Q344 436 367 436Q390 436 410 427.5Q430 419 445 404Q460 389 468.5 369Q477 349 477 326Q477 303 468.5 283Q460 263 445 248Q430 233 410 224.5Q390 216 367 216Q344 216 324 224.5Q304 233 289 248Q274 263 265.5 283Q257 303 257 326Z" glyph-name="ldot" horiz-adv-x="470" unicode="&#320;" /><glyph d="M560 58 40 265V417L560 624V434L277 341L560 248Z" glyph-name="less" horiz-adv-x="600" unicode="&lt;" /><glyph d="M560 203 40 352V456L560 624V433L352 375L560 324ZM40 206V327L560 178V57Z" glyph-name="lessequal" horiz-adv-x="600" unicode="&#8804;" /><glyph d="M560 513V182H378V331H40V513Z" glyph-name="logicalnot" horiz-adv-x="600" unicode="&#172;" /><glyph d="M22 375 345 766 668 375 345 -16ZM345 495 246 375 345 254 444 375Z" glyph-name="lozenge" horiz-adv-x="690" unicode="&#9674;" /><glyph d="M302 -2Q291 -4 280 -6Q269 -8 256 -9Q243 -10 229 -10Q194 -10 164 -2Q134 6 112.5 23.5Q91 41 79 68Q67 95 67 133V239L-1 203V327L67 363V750H263V467L356 516V392L263 343V179Q263 164 272 156.5Q281 149 302 149Z" glyph-name="lslash" horiz-adv-x="354" unicode="&#322;" /><glyph d="M602 0V334Q602 363 569 363Q550 363 535.5 357Q521 351 513 345V0H317V334Q317 363 284 363Q265 363 250.5 357Q236 351 228 345V0H32V500H162L180 468Q209 489 251.5 502.5Q294 516 339 516Q390 516 419.5 504.5Q449 493 466 475Q495 494 536 505Q577 516 623 516Q677 516 711 502Q745 488 764.5 464Q784 440 791 408.5Q798 377 798 341V0Z" glyph-name="m" horiz-adv-x="826" unicode="m" /><glyph d="M421 583H109V713H421Z" glyph-name="macron" horiz-adv-x="530" unicode="&#175;" /><glyph d="M421 786H109V910H421Z" glyph-name="macron.cap" horiz-adv-x="530" unicode="&#58405;" /><glyph d="M300 212 164 76 35 205 171 341 35 477 164 606 300 470 436 606 565 477 429 341 565 205 436 76Z" glyph-name="multiply" horiz-adv-x="600" unicode="&#215;" /><glyph d="M162 500 180 468Q216 491 259 503.5Q302 516 347 516Q402 516 436.5 502.5Q471 489 491 465.5Q511 442 518.5 410Q526 378 526 341V0H330V323Q330 363 292 363Q271 363 254.5 357Q238 351 228 345V0H32V500Z" glyph-name="n" horiz-adv-x="554" unicode="n" /><glyph d="M162 500 180 468Q216 491 259 503.5Q302 516 347 516Q402 516 436.5 502.5Q471 489 491 465.5Q511 442 518.5 410Q526 378 526 341V0H330V323Q330 363 292 363Q271 363 254.5 357Q238 351 228 345V0H32V500ZM214 546 264 750H454L344 546Z" glyph-name="nacute" horiz-adv-x="554" unicode="&#324;" /><glyph d="M162 500 180 468Q216 491 259 503.5Q302 516 347 516Q402 516 436.5 502.5Q471 489 491 465.5Q511 442 518.5 410Q526 378 526 341V0H330V323Q330 363 292 363Q271 363 254.5 357Q238 351 228 345V0H32V500ZM489 750 353 546H205L69 750H204L279 670L354 750Z" glyph-name="ncaron" horiz-adv-x="554" unicode="&#328;" /><glyph d="M162 500 180 468Q216 491 259 503.5Q302 516 347 516Q402 516 436.5 502.5Q471 489 491 465.5Q511 442 518.5 410Q526 378 526 341V0H330V323Q330 363 292 363Q271 363 254.5 357Q238 351 228 345V0H32V500ZM169 -250 189 -46H375L315 -250Z" glyph-name="ncommaaccent" horiz-adv-x="554" unicode="&#326;" /><glyph d="M236 154Q313 154 352 196Q391 238 387 324Q358 296 322 284.5Q286 273 232 273Q173 273 134.5 292.5Q96 312 73.5 345Q51 378 41.5 422Q32 466 32 514Q32 558 43 603Q54 648 83.5 684Q113 720 163.5 743Q214 766 294 766Q372 766 424.5 743.5Q477 721 509 677.5Q541 634 554.5 570Q568 506 568 424Q568 331 557.5 250.5Q547 170 513 110.5Q479 51 415.5 17.5Q352 -16 247 -16Q217 -16 186.5 -13.5Q156 -11 129 -6.5Q102 -2 80 4Q58 10 45 17L48 191Q85 174 131.5 164Q178 154 236 154ZM380 511Q380 552 362.5 575.5Q345 599 296 599Q250 599 233.5 574Q217 549 217 511Q217 473 232.5 447.5Q248 422 294 422Q317 422 333 430Q349 438 359.5 450.5Q370 463 375 479Q380 495 380 511Z" glyph-name="nine" horiz-adv-x="600" unicode="9" /><glyph glyph-name="nonbreakingspace" horiz-adv-x="185" unicode="&#160;" /><glyph glyph-name="nonmarkingreturn" horiz-adv-x="180" /><glyph d="M40 364V546H343L391 632H523L471 546H560V364ZM560 318V136H257L209 50H77L129 136H40V318Z" glyph-name="notequal" horiz-adv-x="600" unicode="&#8800;" /><glyph d="M162 500 180 468Q216 491 259 503.5Q302 516 347 516Q402 516 436.5 502.5Q471 489 491 465.5Q511 442 518.5 410Q526 378 526 341V0H330V323Q330 363 292 363Q271 363 254.5 357Q238 351 228 345V0H32V500ZM57 583Q57 675 94.5 716.5Q132 758 195 758Q228 758 249.5 746.5Q271 735 287.5 721.5Q304 708 317.5 697Q331 686 348 686Q374 686 383 699Q392 712 392 733H501V713Q501 621 463.5 579.5Q426 538 363 538Q330 538 308.5 549Q287 560 270.5 573.5Q254 587 240.5 598.5Q227 610 210 610Q184 610 175 597Q166 584 166 563H57Z" glyph-name="ntilde" horiz-adv-x="554" unicode="&#241;" /><glyph d="M57 301H144L185 449H93L140 606H229L269 750H426L386 606H474L514 750H671L631 606H722L675 449H587L546 301H639L592 144H503L463 0H306L346 144H258L218 0H61L101 144H10ZM301 301H389L430 449H342Z" glyph-name="numbersign" horiz-adv-x="732" unicode="#" /><glyph d="M265 132Q298 132 310.5 156.5Q323 181 323 250Q323 319 310.5 343.5Q298 368 265 368Q232 368 219.5 343.5Q207 319 207 250Q207 181 219.5 156.5Q232 132 265 132ZM265 -16Q194 -16 146.5 1Q99 18 70 52Q41 86 29 135.5Q17 185 17 250Q17 315 29 364.5Q41 414 70 448Q99 482 146.5 499Q194 516 265 516Q336 516 383.5 499Q431 482 460 448Q489 414 501 364.5Q513 315 513 250Q513 185 501 135.5Q489 86 460 52Q431 18 383.5 1Q336 -16 265 -16Z" glyph-name="o" horiz-adv-x="530" unicode="o" /><glyph d="M265 132Q298 132 310.5 156.5Q323 181 323 250Q323 319 310.5 343.5Q298 368 265 368Q232 368 219.5 343.5Q207 319 207 250Q207 181 219.5 156.5Q232 132 265 132ZM265 -16Q194 -16 146.5 1Q99 18 70 52Q41 86 29 135.5Q17 185 17 250Q17 315 29 364.5Q41 414 70 448Q99 482 146.5 499Q194 516 265 516Q336 516 383.5 499Q431 482 460 448Q489 414 501 364.5Q513 315 513 250Q513 185 501 135.5Q489 86 460 52Q431 18 383.5 1Q336 -16 265 -16ZM200 546 250 750H440L330 546Z" glyph-name="oacute" horiz-adv-x="530" unicode="&#243;" /><glyph d="M265 132Q298 132 310.5 156.5Q323 181 323 250Q323 319 310.5 343.5Q298 368 265 368Q232 368 219.5 343.5Q207 319 207 250Q207 181 219.5 156.5Q232 132 265 132ZM265 -16Q194 -16 146.5 1Q99 18 70 52Q41 86 29 135.5Q17 185 17 250Q17 315 29 364.5Q41 414 70 448Q99 482 146.5 499Q194 516 265 516Q336 516 383.5 499Q431 482 460 448Q489 414 501 364.5Q513 315 513 250Q513 185 501 135.5Q489 86 460 52Q431 18 383.5 1Q336 -16 265 -16ZM265 546Q156 546 106 594Q56 642 55 750H179Q179 706 198 688Q217 670 265 670Q313 670 332 688Q351 706 351 750H475Q473 642 423.5 594Q374 546 265 546Z" glyph-name="obreve" horiz-adv-x="530" unicode="&#335;" /><glyph d="M265 132Q298 132 310.5 156.5Q323 181 323 250Q323 319 310.5 343.5Q298 368 265 368Q232 368 219.5 343.5Q207 319 207 250Q207 181 219.5 156.5Q232 132 265 132ZM265 -16Q194 -16 146.5 1Q99 18 70 52Q41 86 29 135.5Q17 185 17 250Q17 315 29 364.5Q41 414 70 448Q99 482 146.5 499Q194 516 265 516Q336 516 383.5 499Q431 482 460 448Q489 414 501 364.5Q513 315 513 250Q513 185 501 135.5Q489 86 460 52Q431 18 383.5 1Q336 -16 265 -16ZM55 546 191 750H339L475 546H340L265 626L190 546Z" glyph-name="ocircumflex" horiz-adv-x="530" unicode="&#244;" /><glyph d="M265 132Q298 132 310.5 156.5Q323 181 323 250Q323 319 310.5 343.5Q298 368 265 368Q232 368 219.5 343.5Q207 319 207 250Q207 181 219.5 156.5Q232 132 265 132ZM265 -16Q194 -16 146.5 1Q99 18 70 52Q41 86 29 135.5Q17 185 17 250Q17 315 29 364.5Q41 414 70 448Q99 482 146.5 499Q194 516 265 516Q336 516 383.5 499Q431 482 460 448Q489 414 501 364.5Q513 315 513 250Q513 185 501 135.5Q489 86 460 52Q431 18 383.5 1Q336 -16 265 -16ZM30 648Q30 671 38.5 691Q47 711 62 726Q77 741 97 749.5Q117 758 140 758Q163 758 183 749.5Q203 741 218 726Q233 711 241.5 691Q250 671 250 648Q250 625 241.5 605Q233 585 218 570Q203 555 183 546.5Q163 538 140 538Q117 538 97 546.5Q77 555 62 570Q47 585 38.5 605Q30 625 30 648ZM280 648Q280 671 288.5 691Q297 711 312 726Q327 741 347 749.5Q367 758 390 758Q413 758 433 749.5Q453 741 468 726Q483 711 491.5 691Q500 671 500 648Q500 625 491.5 605Q483 585 468 570Q453 555 433 546.5Q413 538 390 538Q367 538 347 546.5Q327 555 312 570Q297 585 288.5 605Q280 625 280 648Z" glyph-name="odieresis" horiz-adv-x="530" unicode="&#246;" /><glyph d="M265 132Q298 132 310.5 156.5Q323 181 323 250Q323 319 310.5 343.5Q298 368 265 368Q232 368 219.5 343.5Q207 319 207 250Q207 181 219.5 156.5Q232 132 265 132ZM585 -16Q527 -16 487.5 -5Q448 6 422 29Q398 7 360 -4.5Q322 -16 265 -16Q194 -16 146.5 1Q99 18 70 52Q41 86 29 135.5Q17 185 17 250Q17 315 29 364.5Q41 414 70 448Q99 482 146.5 499Q194 516 265 516Q322 516 360 504.5Q398 493 422 471Q470 516 579 516Q648 516 692 497Q736 478 761.5 445.5Q787 413 797 370.5Q807 328 807 280Q807 260 806 238Q805 216 803 194H502Q500 158 524.5 142Q549 126 612 126Q660 126 706.5 135Q753 144 788 156L791 19Q745 0 688 -8Q631 -16 585 -16ZM579 384Q546 384 523.5 361.5Q501 339 502 294H639Q644 338 628.5 361Q613 384 579 384Z" glyph-name="oe" horiz-adv-x="827" unicode="&#339;" /><glyph d="M389 0Q333 -15 306 -43.5Q279 -72 279 -99Q279 -120 293.5 -132.5Q308 -145 339 -145Q362 -145 376.5 -141.5Q391 -138 399 -136V-234Q385 -239 362 -244.5Q339 -250 297 -250Q228 -250 183.5 -218.5Q139 -187 139 -127Q139 -88 158 -58Q177 -28 207 -5.5Q237 17 275 34Q313 51 351 63Z" glyph-name="ogonek" horiz-adv-x="530" unicode="&#731;" /><glyph d="M265 132Q298 132 310.5 156.5Q323 181 323 250Q323 319 310.5 343.5Q298 368 265 368Q232 368 219.5 343.5Q207 319 207 250Q207 181 219.5 156.5Q232 132 265 132ZM265 -16Q194 -16 146.5 1Q99 18 70 52Q41 86 29 135.5Q17 185 17 250Q17 315 29 364.5Q41 414 70 448Q99 482 146.5 499Q194 516 265 516Q336 516 383.5 499Q431 482 460 448Q489 414 501 364.5Q513 315 513 250Q513 185 501 135.5Q489 86 460 52Q431 18 383.5 1Q336 -16 265 -16ZM90 750H280L330 546H200Z" glyph-name="ograve" horiz-adv-x="530" unicode="&#242;" /><glyph d="M265 132Q298 132 310.5 156.5Q323 181 323 250Q323 319 310.5 343.5Q298 368 265 368Q232 368 219.5 343.5Q207 319 207 250Q207 181 219.5 156.5Q232 132 265 132ZM265 -16Q194 -16 146.5 1Q99 18 70 52Q41 86 29 135.5Q17 185 17 250Q17 315 29 364.5Q41 414 70 448Q99 482 146.5 499Q194 516 265 516Q336 516 383.5 499Q431 482 460 448Q489 414 501 364.5Q513 315 513 250Q513 185 501 135.5Q489 86 460 52Q431 18 383.5 1Q336 -16 265 -16ZM100 546 150 750H340L230 546ZM300 546 350 750H540L430 546Z" glyph-name="ohungarumlaut" horiz-adv-x="530" unicode="&#337;" /><glyph d="M265 132Q298 132 310.5 156.5Q323 181 323 250Q323 319 310.5 343.5Q298 368 265 368Q232 368 219.5 343.5Q207 319 207 250Q207 181 219.5 156.5Q232 132 265 132ZM265 -16Q194 -16 146.5 1Q99 18 70 52Q41 86 29 135.5Q17 185 17 250Q17 315 29 364.5Q41 414 70 448Q99 482 146.5 499Q194 516 265 516Q336 516 383.5 499Q431 482 460 448Q489 414 501 364.5Q513 315 513 250Q513 185 501 135.5Q489 86 460 52Q431 18 383.5 1Q336 -16 265 -16ZM421 583H109V713H421Z" glyph-name="omacron" horiz-adv-x="530" unicode="&#333;" /><glyph d="M65 145 210 150V585Q175 583 140 581.5Q105 580 70 578V703L315 766H405V150L551 145V0H65Z" glyph-name="one" horiz-adv-x="600" unicode="1" /><glyph d="M137 0 669 750H811L280 0ZM278 766V340H111V612L13 608V713L204 766ZM784 282Q739 282 703 271.5Q667 261 648 253L646 396Q672 409 719 417.5Q766 426 822 426Q879 426 914.5 414Q950 402 970 383Q990 364 997.5 341Q1005 318 1005 296Q1005 262 989.5 236Q974 210 951 191Q928 172 900.5 159Q873 146 849 137L1016 142V0H634V107Q688 133 724.5 153.5Q761 174 783.5 190.5Q806 207 816 221Q826 235 826 247Q826 261 816.5 271.5Q807 282 784 282Z" glyph-name="onehalf" horiz-adv-x="1045" unicode="&#189;" /><glyph d="M137 0 669 750H811L280 0ZM278 766V340H111V612L13 608V713L204 766ZM561 174 760 426H957V197H1021V65H957V0H795V65H561ZM795 197 800 274 740 195Z" glyph-name="onequarter" horiz-adv-x="1047" unicode="&#188;" /><glyph d="M278 766V340H111V612L13 608V713L204 766Z" glyph-name="onesuperior" horiz-adv-x="339" unicode="&#185;" /><glyph d="M15 484Q15 518 24.5 540Q34 562 52.5 576Q71 590 98.5 597.5Q126 605 162 608L227 614V626Q227 637 218.5 644Q210 651 184 651Q142 651 105.5 641Q69 631 42 620L38 739Q66 750 113.5 758Q161 766 209 766Q260 766 292 756Q324 746 342 727.5Q360 709 366.5 683Q373 657 373 624V375H256L246 394Q232 383 205.5 372Q179 361 141 361Q75 361 45 392.5Q15 424 15 484ZM188 538Q169 536 158 526.5Q147 517 147 498Q147 479 157 470.5Q167 462 181 462Q199 462 210.5 466.5Q222 471 228 476V542Z" glyph-name="ordfeminine" horiz-adv-x="400" unicode="&#170;" /><glyph d="M209 486Q230 486 239.5 501.5Q249 517 249 564Q249 610 239.5 625.5Q230 641 209 641Q188 641 178.5 625.5Q169 610 169 564Q169 517 178.5 501.5Q188 486 209 486ZM209 361Q156 361 119 373Q82 385 59 409.5Q36 434 26 472.5Q16 511 16 564Q16 616 26 654.5Q36 693 59 717.5Q82 742 119 754Q156 766 209 766Q262 766 299 754Q336 742 359 717.5Q382 693 392 654.5Q402 616 402 564Q402 511 392 472.5Q382 434 359 409.5Q336 385 299 373Q262 361 209 361Z" glyph-name="ordmasculine" horiz-adv-x="418" unicode="&#186;" /><glyph d="M13 0 63 61Q38 95 27.5 142Q17 189 17 250Q17 315 29 364.5Q41 414 70 448Q99 482 146.5 499Q194 516 265 516Q310 516 345.5 509Q381 502 408 488L418 500H517L467 438Q492 405 502.5 357.5Q513 310 513 250Q513 185 501 135.5Q489 86 460 52Q431 18 383.5 1Q336 -16 265 -16Q219 -16 183.5 -9Q148 -2 121 12L112 0ZM265 132Q298 132 310.5 156.5Q323 181 323 250V260L228 144Q240 132 265 132ZM207 239 301 356Q287 368 265 368Q232 368 219.5 343.5Q207 319 207 250Z" glyph-name="oslash" horiz-adv-x="530" unicode="&#248;" /><glyph d="M265 132Q298 132 310.5 156.5Q323 181 323 250Q323 319 310.5 343.5Q298 368 265 368Q232 368 219.5 343.5Q207 319 207 250Q207 181 219.5 156.5Q232 132 265 132ZM265 -16Q194 -16 146.5 1Q99 18 70 52Q41 86 29 135.5Q17 185 17 250Q17 315 29 364.5Q41 414 70 448Q99 482 146.5 499Q194 516 265 516Q336 516 383.5 499Q431 482 460 448Q489 414 501 364.5Q513 315 513 250Q513 185 501 135.5Q489 86 460 52Q431 18 383.5 1Q336 -16 265 -16ZM43 583Q43 675 80.5 716.5Q118 758 181 758Q214 758 235.5 746.5Q257 735 273.5 721.5Q290 708 303.5 697Q317 686 334 686Q360 686 369 699Q378 712 378 733H487V713Q487 621 449.5 579.5Q412 538 349 538Q316 538 294.5 549Q273 560 256.5 573.5Q240 587 226.5 598.5Q213 610 196 610Q170 610 161 597Q152 584 152 563H43Z" glyph-name="otilde" horiz-adv-x="530" unicode="&#245;" /><glyph d="M162 500 183 467Q215 488 252.5 502Q290 516 341 516Q390 516 426.5 501.5Q463 487 488 455Q513 423 525.5 372.5Q538 322 538 250Q538 178 525.5 127.5Q513 77 488 45Q463 13 426.5 -1.5Q390 -16 341 -16Q307 -16 279 -8.5Q251 -1 228 11V-250H32V500ZM228 148Q230 146 245.5 139.5Q261 133 281 133Q320 133 333 160Q346 187 346 250Q346 314 333 341Q320 368 281 368Q261 368 245.5 361.5Q230 355 228 353Z" glyph-name="p" horiz-adv-x="555" unicode="p" /><glyph d="M389 250H364V0H243V256Q186 265 146.5 288.5Q107 312 83 344.5Q59 377 48 417Q37 457 37 500Q37 548 51.5 593.5Q66 639 99 673.5Q132 708 186 729Q240 750 318 750H585V0H389Z" glyph-name="paragraph" horiz-adv-x="597" unicode="&#182;" /><glyph d="M44 277Q44 372 56 452.5Q68 533 86.5 597Q105 661 126.5 708Q148 755 166 783H326Q307 754 285.5 706.5Q264 659 245.5 594.5Q227 530 215 450Q203 370 203 277Q203 184 215 104Q227 24 245.5 -40.5Q264 -105 285.5 -152.5Q307 -200 326 -229H166Q148 -201 126.5 -154Q105 -107 86.5 -43Q68 21 56 101.5Q44 182 44 277Z" glyph-name="parenleft" horiz-adv-x="347" unicode="(" /><glyph d="M303 277Q303 182 291 101.5Q279 21 260.5 -43Q242 -107 220.5 -154Q199 -201 181 -229H21Q40 -200 61.5 -152.5Q83 -105 101.5 -40.5Q120 24 132 104Q144 184 144 277Q144 370 132 450Q120 530 101.5 594.5Q83 659 61.5 706.5Q40 754 21 783H181Q199 755 220.5 708Q242 661 260.5 597Q279 533 291 452.5Q303 372 303 277Z" glyph-name="parenright" horiz-adv-x="347" unicode=")" /><glyph d="M513 250Q513 185 501 135.5Q489 86 460 52Q431 18 383.5 1Q336 -16 265 -16Q194 -16 146.5 1Q99 18 70 52Q41 86 29 135.5Q17 185 17 250Q17 381 68 448.5Q119 516 231 516Q255 516 279.5 512Q304 508 324 498Q321 528 311 547.5Q301 567 285 578Q269 589 248.5 593.5Q228 598 205 598Q156 598 116 587.5Q76 577 38 559L36 728Q59 741 109 753.5Q159 766 234 766Q319 766 373.5 735Q428 704 459 640.5Q490 577 501.5 479.5Q513 382 513 250ZM265 132Q298 132 310.5 156.5Q323 181 323 250Q323 319 310.5 343.5Q298 368 265 368Q232 368 219.5 343.5Q207 319 207 250Q207 181 219.5 156.5Q232 132 265 132Z" glyph-name="partialdiff" horiz-adv-x="535" unicode="&#8706;" /><glyph d="M165 0 697 750H839L308 0ZM24 553Q24 662 76 714Q128 766 230 766Q332 766 384 714Q436 662 436 553Q436 444 384 392Q332 340 230 340Q128 340 76 392Q24 444 24 553ZM198 553Q198 511 206.5 498Q215 485 230 485Q245 485 253.5 498Q262 511 262 553Q262 595 253.5 608Q245 621 230 621Q215 621 206.5 608Q198 595 198 553ZM980 197Q980 88 928 36Q876 -16 774 -16Q672 -16 620 36Q568 88 568 197Q568 306 620 358Q672 410 774 410Q876 410 928 358Q980 306 980 197ZM806 197Q806 239 797.5 252Q789 265 774 265Q759 265 750.5 252Q742 239 742 197Q742 155 750.5 142Q759 129 774 129Q789 129 797.5 142Q806 155 806 197Z" glyph-name="percent" horiz-adv-x="1004" unicode="%" /><glyph d="M20 94Q20 117 28.5 137Q37 157 52 172Q67 187 87 195.5Q107 204 130 204Q153 204 173 195.5Q193 187 208 172Q223 157 231.5 137Q240 117 240 94Q240 71 231.5 51Q223 31 208 16Q193 1 173 -7.5Q153 -16 130 -16Q107 -16 87 -7.5Q67 1 52 16Q37 31 28.5 51Q20 71 20 94Z" glyph-name="period" horiz-adv-x="260" unicode="." /><glyph d="M20 325Q20 348 28.5 368Q37 388 52 403Q67 418 87 426.5Q107 435 130 435Q153 435 173 426.5Q193 418 208 403Q223 388 231.5 368Q240 348 240 325Q240 302 231.5 282Q223 262 208 247Q193 232 173 223.5Q153 215 130 215Q107 215 87 223.5Q67 232 52 247Q37 262 28.5 282Q20 302 20 325Z" glyph-name="periodcentered" horiz-adv-x="262" unicode="&#183;" /><glyph d="M165 0 697 750H839L308 0ZM24 553Q24 662 76 714Q128 766 230 766Q332 766 384 714Q436 662 436 553Q436 444 384 392Q332 340 230 340Q128 340 76 392Q24 444 24 553ZM198 553Q198 511 206.5 498Q215 485 230 485Q245 485 253.5 498Q262 511 262 553Q262 595 253.5 608Q245 621 230 621Q215 621 206.5 608Q198 595 198 553ZM980 197Q980 88 928 36Q876 -16 774 -16Q672 -16 620 36Q568 88 568 197Q568 306 620 358Q672 410 774 410Q876 410 928 358Q980 306 980 197ZM806 197Q806 239 797.5 252Q789 265 774 265Q759 265 750.5 252Q742 239 742 197Q742 155 750.5 142Q759 129 774 129Q789 129 797.5 142Q806 155 806 197ZM1430 197Q1430 88 1378 36Q1326 -16 1224 -16Q1122 -16 1070 36Q1018 88 1018 197Q1018 306 1070 358Q1122 410 1224 410Q1326 410 1378 358Q1430 306 1430 197ZM1256 197Q1256 239 1247.5 252Q1239 265 1224 265Q1209 265 1200.5 252Q1192 239 1192 197Q1192 155 1200.5 142Q1209 129 1224 129Q1239 129 1247.5 142Q1256 155 1256 197Z" glyph-name="perthousand" horiz-adv-x="1454" unicode="&#8240;" /><glyph d="M391 250V81H209V250H40V432H209V601H391V432H560V250Z" glyph-name="plus" horiz-adv-x="600" unicode="+" /><glyph d="M209 513V633H391V513H560V331H391V211H209V331H40V513ZM40 0V182H560V0Z" glyph-name="plusminus" horiz-adv-x="600" unicode="&#177;" /><glyph d="M308 577V0H112V577H26V750H714V577H628V0H432V577Z" glyph-name="product" horiz-adv-x="740" unicode="&#8719;" /><glyph d="M523 500V-250H327V11Q304 -1 276 -8.5Q248 -16 214 -16Q116 -16 66.5 45Q17 106 17 250Q17 394 66.5 455Q116 516 214 516Q265 516 302.5 502Q340 488 372 467L393 500ZM327 353Q325 355 309.5 361.5Q294 368 274 368Q235 368 222 341Q209 314 209 250Q209 187 222 160Q235 133 274 133Q294 133 309.5 139.5Q325 146 327 148Z" glyph-name="q" horiz-adv-x="555" unicode="q" /><glyph d="M216 463Q247 476 264.5 489Q282 502 282 533Q282 561 262.5 577.5Q243 594 188 594Q171 594 148.5 591.5Q126 589 102 584.5Q78 580 55 573.5Q32 567 14 558L12 732Q38 746 91 756Q144 766 207 766Q292 766 344.5 748Q397 730 426 700.5Q455 671 464.5 632.5Q474 594 474 553Q474 502 461 469Q448 436 426.5 413.5Q405 391 376 375.5Q347 360 314 345Q284 331 272.5 315Q261 299 261 271Q261 260 261.5 249Q262 238 263 230H138Q131 241 120 266.5Q109 292 109 326Q109 348 114 367.5Q119 387 131 403.5Q143 420 163.5 434.5Q184 449 216 463ZM92 94Q92 117 100.5 137Q109 157 124 172Q139 187 159 195.5Q179 204 202 204Q225 204 245 195.5Q265 187 280 172Q295 157 303.5 137Q312 117 312 94Q312 71 303.5 51Q295 31 280 16Q265 1 245 -7.5Q225 -16 202 -16Q179 -16 159 -7.5Q139 1 124 16Q109 31 100.5 51Q92 71 92 94Z" glyph-name="question" horiz-adv-x="486" unicode="?" /><glyph d="M270 37Q239 24 221.5 11Q204 -2 204 -33Q204 -61 223.5 -77.5Q243 -94 298 -94Q315 -94 337.5 -92Q360 -90 384 -85.5Q408 -81 431 -74Q454 -67 472 -58L474 -232Q448 -246 395 -256Q342 -266 279 -266Q193 -266 141 -248Q89 -230 60 -200.5Q31 -171 21.5 -132.5Q12 -94 12 -53Q12 -2 25 31Q38 64 59.5 86.5Q81 109 110 124.5Q139 140 172 155Q202 169 213.5 185Q225 201 225 229Q225 240 224.5 251Q224 262 223 270H348Q355 259 366 233.5Q377 208 377 174Q377 151 372 132Q367 113 355 96.5Q343 80 322.5 65Q302 50 270 37ZM394 406Q394 383 385.5 363Q377 343 362 328Q347 313 327 304.5Q307 296 284 296Q261 296 241 304.5Q221 313 206 328Q191 343 182.5 363Q174 383 174 406Q174 429 182.5 449Q191 469 206 484Q221 499 241 507.5Q261 516 284 516Q307 516 327 507.5Q347 499 362 484Q377 469 385.5 449Q394 429 394 406Z" glyph-name="questiondown" horiz-adv-x="486" unicode="&#191;" /><glyph d="M56 500 22 750H218L185 500ZM276 500 242 750H438L405 500Z" glyph-name="quotedbl" horiz-adv-x="460" unicode="&quot;" /><glyph d="M14 -155 43 95H243L143 -155ZM239 -155 268 95H468L368 -155Z" glyph-name="quotedblbase" horiz-adv-x="477" unicode="&#8222;" /><glyph d="M433 750 404 500H204L304 750ZM208 750 179 500H-21L79 750Z" glyph-name="quotedblleft" horiz-adv-x="457" unicode="&#8220;" /><glyph d="M24 500 53 750H253L153 500ZM249 500 278 750H478L378 500Z" glyph-name="quotedblright" horiz-adv-x="457" unicode="&#8221;" /><glyph d="M208 750 179 500H-21L79 750Z" glyph-name="quoteleft" horiz-adv-x="232" unicode="&#8216;" /><glyph d="M24 500 53 750H253L153 500Z" glyph-name="quoteright" horiz-adv-x="232" unicode="&#8217;" /><glyph d="M14 -155 43 95H243L143 -155Z" glyph-name="quotesinglbase" horiz-adv-x="252" unicode="&#8218;" /><glyph d="M56 500 22 750H218L185 500Z" glyph-name="quotesingle" horiz-adv-x="240" unicode="&apos;" /><glyph d="M377 347Q374 348 360.5 349.5Q347 351 328 351Q296 351 268 342.5Q240 334 228 326V0H32V500H162L180 468Q203 488 241.5 502Q280 516 325 516Q363 516 379 508Z" glyph-name="r" horiz-adv-x="387" unicode="r" /><glyph d="M377 347Q374 348 360.5 349.5Q347 351 328 351Q296 351 268 342.5Q240 334 228 326V0H32V500H162L180 468Q203 488 241.5 502Q280 516 325 516Q363 516 379 508ZM139 546 189 750H379L269 546Z" glyph-name="racute" horiz-adv-x="387" unicode="&#341;" /><glyph d="M832 750 406 -16H168L108 318H17V500H266L318 179L619 750Z" glyph-name="radical" horiz-adv-x="842" unicode="&#8730;" /><glyph d="M377 347Q374 348 360.5 349.5Q347 351 328 351Q296 351 268 342.5Q240 334 228 326V0H32V500H162L180 468Q203 488 241.5 502Q280 516 325 516Q363 516 379 508ZM414 750 278 546H130L-6 750H129L204 670L279 750Z" glyph-name="rcaron" horiz-adv-x="387" unicode="&#345;" /><glyph d="M377 347Q374 348 360.5 349.5Q347 351 328 351Q296 351 268 342.5Q240 334 228 326V0H32V500H162L180 468Q203 488 241.5 502Q280 516 325 516Q363 516 379 508ZM21 -250 41 -46H227L167 -250Z" glyph-name="rcommaaccent" horiz-adv-x="387" unicode="&#343;" /><glyph d="M172 766Q200 766 226.5 761Q253 756 273 741Q293 726 305 698.5Q317 671 317 627Q317 583 305 556Q293 529 273 514Q253 499 226.5 493.5Q200 488 172 488Q143 488 117 493.5Q91 499 71 514Q51 529 39 556Q27 583 27 627Q27 671 39 698.5Q51 726 71 741Q91 756 117 761Q143 766 172 766ZM172 726Q151 726 132 722.5Q113 719 99.5 708.5Q86 698 78 678.5Q70 659 70 627Q70 595 78 575.5Q86 556 99.5 545.5Q113 535 132 531.5Q151 528 172 528Q193 528 212 531.5Q231 535 244.5 545.5Q258 556 266 575.5Q274 595 274 627Q274 659 266 678.5Q258 698 244.5 708.5Q231 719 212 722.5Q193 726 172 726ZM152 600V547H109V707H183Q215 707 227 692.5Q239 678 239 655Q239 636 231.5 625.5Q224 615 216 610L244 547H196L177 600ZM193 654Q193 659 189.5 663.5Q186 668 178 668H152V638H179Q193 638 193 654Z" glyph-name="registered" horiz-adv-x="344" unicode="&#174;" /><glyph d="M265 620Q293 620 293 647Q293 662 285.5 668Q278 674 265 674Q237 674 237 648Q237 620 265 620ZM265 537Q208 537 178.5 563Q149 589 149 647Q149 706 178.5 732Q208 758 265 758Q322 758 351.5 732Q381 706 381 648Q381 589 351.5 563Q322 537 265 537Z" glyph-name="ring" horiz-adv-x="530" unicode="&#730;" /><glyph d="M265 777Q208 777 178.5 790.5Q149 804 149 847Q149 891 178.5 905Q208 919 265 919Q322 919 351.5 905Q381 891 381 848Q381 804 351.5 790.5Q322 777 265 777ZM265 831Q293 831 293 847Q293 864 265 864Q237 864 237 848Q237 831 265 831Z" glyph-name="ring.cap" horiz-adv-x="530" unicode="&#58410;" /><glyph d="M427 340Q387 356 344 364Q301 372 259 372Q233 372 218 365.5Q203 359 203 342Q203 325 214 319Q225 313 242 311Q303 306 343 297Q383 288 406.5 271Q430 254 439 227Q448 200 448 159Q448 122 436.5 90Q425 58 398 34.5Q371 11 326 -2.5Q281 -16 214 -16Q143 -16 98.5 -5.5Q54 5 23 18L26 166Q74 146 121 136.5Q168 127 212 127Q239 127 254 133.5Q269 140 269 157Q269 174 258 180Q247 186 229 188Q169 193 129.5 202.5Q90 212 66 229Q42 246 32.5 272.5Q23 299 23 340Q23 379 35.5 411.5Q48 444 75.5 467.5Q103 491 146.5 503.5Q190 516 251 516Q321 516 361.5 507.5Q402 499 430 488Z" glyph-name="s" horiz-adv-x="471" unicode="s" /><glyph d="M427 340Q387 356 344 364Q301 372 259 372Q233 372 218 365.5Q203 359 203 342Q203 325 214 319Q225 313 242 311Q303 306 343 297Q383 288 406.5 271Q430 254 439 227Q448 200 448 159Q448 122 436.5 90Q425 58 398 34.5Q371 11 326 -2.5Q281 -16 214 -16Q143 -16 98.5 -5.5Q54 5 23 18L26 166Q74 146 121 136.5Q168 127 212 127Q239 127 254 133.5Q269 140 269 157Q269 174 258 180Q247 186 229 188Q169 193 129.5 202.5Q90 212 66 229Q42 246 32.5 272.5Q23 299 23 340Q23 379 35.5 411.5Q48 444 75.5 467.5Q103 491 146.5 503.5Q190 516 251 516Q321 516 361.5 507.5Q402 499 430 488ZM166 546 216 750H406L296 546Z" glyph-name="sacute" horiz-adv-x="471" unicode="&#347;" /><glyph d="M427 340Q387 356 344 364Q301 372 259 372Q233 372 218 365.5Q203 359 203 342Q203 325 214 319Q225 313 242 311Q303 306 343 297Q383 288 406.5 271Q430 254 439 227Q448 200 448 159Q448 122 436.5 90Q425 58 398 34.5Q371 11 326 -2.5Q281 -16 214 -16Q143 -16 98.5 -5.5Q54 5 23 18L26 166Q74 146 121 136.5Q168 127 212 127Q239 127 254 133.5Q269 140 269 157Q269 174 258 180Q247 186 229 188Q169 193 129.5 202.5Q90 212 66 229Q42 246 32.5 272.5Q23 299 23 340Q23 379 35.5 411.5Q48 444 75.5 467.5Q103 491 146.5 503.5Q190 516 251 516Q321 516 361.5 507.5Q402 499 430 488ZM441 750 305 546H157L21 750H156L231 670L306 750Z" glyph-name="scaron" horiz-adv-x="471" unicode="&#353;" /><glyph d="M188 -15Q128 -13 90 -3.5Q52 6 23 18L26 166Q74 146 121 136.5Q168 127 212 127Q239 127 254 133.5Q269 140 269 157Q269 174 258 180Q247 186 229 188Q169 193 129.5 202.5Q90 212 66 229Q42 246 32.5 272.5Q23 299 23 340Q23 379 35.5 411.5Q48 444 75.5 467.5Q103 491 146.5 503.5Q190 516 251 516Q321 516 361.5 507.5Q402 499 430 488L427 340Q387 356 344 364Q301 372 259 372Q233 372 218 365.5Q203 359 203 342Q203 325 214 319Q225 313 242 311Q303 306 343 297Q383 288 406.5 271Q430 254 439 227Q448 200 448 159Q448 126 439 97.5Q430 69 410 46Q390 23 356 8Q322 -7 273 -13L275 -47Q329 -61 352.5 -85.5Q376 -110 376 -145Q376 -200 335 -225Q294 -250 230 -250Q195 -250 167.5 -245Q140 -240 126 -234V-136Q136 -139 159 -143Q182 -147 205 -147Q257 -147 257 -122Q257 -110 242 -100Q227 -90 182 -84Z" glyph-name="scedilla" horiz-adv-x="471" unicode="&#351;" /><glyph d="M427 340Q387 356 344 364Q301 372 259 372Q233 372 218 365.5Q203 359 203 342Q203 325 214 319Q225 313 242 311Q303 306 343 297Q383 288 406.5 271Q430 254 439 227Q448 200 448 159Q448 122 436.5 90Q425 58 398 34.5Q371 11 326 -2.5Q281 -16 214 -16Q143 -16 98.5 -5.5Q54 5 23 18L26 166Q74 146 121 136.5Q168 127 212 127Q239 127 254 133.5Q269 140 269 157Q269 174 258 180Q247 186 229 188Q169 193 129.5 202.5Q90 212 66 229Q42 246 32.5 272.5Q23 299 23 340Q23 379 35.5 411.5Q48 444 75.5 467.5Q103 491 146.5 503.5Q190 516 251 516Q321 516 361.5 507.5Q402 499 430 488ZM21 546 157 750H305L441 546H306L231 626L156 546Z" glyph-name="scircumflex" horiz-adv-x="471" unicode="&#349;" /><glyph d="M427 340Q387 356 344 364Q301 372 259 372Q233 372 218 365.5Q203 359 203 342Q203 325 214 319Q225 313 242 311Q303 306 343 297Q383 288 406.5 271Q430 254 439 227Q448 200 448 159Q448 122 436.5 90Q425 58 398 34.5Q371 11 326 -2.5Q281 -16 214 -16Q143 -16 98.5 -5.5Q54 5 23 18L26 166Q74 146 121 136.5Q168 127 212 127Q239 127 254 133.5Q269 140 269 157Q269 174 258 180Q247 186 229 188Q169 193 129.5 202.5Q90 212 66 229Q42 246 32.5 272.5Q23 299 23 340Q23 379 35.5 411.5Q48 444 75.5 467.5Q103 491 146.5 503.5Q190 516 251 516Q321 516 361.5 507.5Q402 499 430 488ZM121 -250 141 -46H327L267 -250Z" glyph-name="scommaaccent" horiz-adv-x="471" unicode="&#537;" /><glyph d="M407 465Q476 457 526 442.5Q576 428 607.5 402Q639 376 654 335Q669 294 669 233Q669 170 646.5 121.5Q624 73 576 42Q582 10 582 -27Q582 -82 564.5 -126.5Q547 -171 511 -202Q475 -233 419.5 -249.5Q364 -266 287 -266Q208 -266 151.5 -253.5Q95 -241 66 -227L69 -48Q87 -57 111 -64Q135 -71 162 -76.5Q189 -82 217.5 -85Q246 -88 272 -88Q387 -88 387 -28Q387 5 363 17.5Q339 30 293 35Q224 43 174 57.5Q124 72 92.5 98Q61 124 46 164.5Q31 205 31 267Q31 330 53.5 378.5Q76 427 124 458Q118 488 118 527Q118 582 135.5 626.5Q153 671 189 702Q225 733 280.5 749.5Q336 766 413 766Q492 766 548.5 753.5Q605 741 634 727L631 548Q613 557 589 564Q565 571 538 576.5Q511 582 482.5 585Q454 588 428 588Q313 588 313 528Q313 495 337 482.5Q361 470 407 465ZM320 205Q354 200 383 195.5Q412 191 436 183Q474 198 474 232Q474 265 450 277.5Q426 290 380 295Q312 302 263 316Q226 301 226 268Q226 235 250 222.5Q274 210 320 205Z" glyph-name="section" horiz-adv-x="700" unicode="&#167;" /><glyph d="M20 390Q20 413 28.5 433Q37 453 52 468Q67 483 87 491.5Q107 500 130 500Q153 500 173 491.5Q193 483 208 468Q223 453 231.5 433Q240 413 240 390Q240 367 231.5 347Q223 327 208 312Q193 297 173 288.5Q153 280 130 280Q107 280 87 288.5Q67 297 52 312Q37 327 28.5 347Q20 367 20 390ZM0 -125 34 175H240L140 -125Z" glyph-name="semicolon" horiz-adv-x="260" unicode=";" /><glyph d="M90 0 369 588 31 584V750H571V642L298 0Z" glyph-name="seven" horiz-adv-x="600" unicode="7" /><glyph d="M363 596Q286 596 247 554Q208 512 213 426Q241 454 277 465.5Q313 477 367 477Q426 477 464.5 457.5Q503 438 526 404.5Q549 371 558.5 327.5Q568 284 568 236Q568 192 557 147Q546 102 516.5 66Q487 30 436 7Q385 -16 305 -16Q227 -16 175 6.5Q123 29 91 72.5Q59 116 45.5 179.5Q32 243 32 326Q32 419 42.5 499.5Q53 580 86.5 639.5Q120 699 183.5 732.5Q247 766 352 766Q382 766 412 763Q442 760 469 755.5Q496 751 517.5 745Q539 739 552 732L550 559Q513 576 467 586Q421 596 363 596ZM219 239Q219 197 237 173.5Q255 150 303 150Q349 150 365.5 175.5Q382 201 382 239Q382 277 366.5 302Q351 327 306 327Q283 327 266.5 319Q250 311 239.5 298.5Q229 286 224 270.5Q219 255 219 239Z" glyph-name="six" horiz-adv-x="600" unicode="6" /><glyph d="M0 -200 345 800H543L198 -200Z" glyph-name="slash" horiz-adv-x="543" unicode="/" /><glyph glyph-name="space" horiz-adv-x="180" unicode=" " /><glyph d="M282 160H573V0H26V160H90V314H26V436H90V505Q90 560 99.5 607.5Q109 655 137.5 690Q166 725 219 745.5Q272 766 358 766Q417 766 470 757Q523 748 561 730L559 571Q516 585 474.5 593.5Q433 602 385 602Q337 602 309.5 585Q282 568 282 526V436H491V314H282Z" glyph-name="sterling" horiz-adv-x="600" unicode="&#163;" /><glyph d="M578 750V567L321 569L505 434V333L309 181L596 183V0H11V153L297 384L29 592V750Z" glyph-name="summation" horiz-adv-x="613" unicode="&#8721;" /><glyph d="M385 -2Q366 -9 335.5 -12.5Q305 -16 277 -16Q170 -16 125 29.5Q80 75 80 162V351H1V473L80 495V595L276 647V500H390V351H276V184Q276 137 326 137Q347 137 363 140Q379 143 382 144Z" glyph-name="t" horiz-adv-x="406" unicode="t" /><glyph d="M5 318H80V351H1V473L80 495V595L276 647V500H390V351H276V318H374V194H276V184Q276 137 326 137Q347 137 363 140Q379 143 382 144L385 -2Q366 -9 335.5 -12.5Q305 -16 277 -16Q170 -16 125 29.5Q80 75 80 162V194H5Z" glyph-name="tbar" horiz-adv-x="406" unicode="&#359;" /><glyph d="M385 -2Q366 -9 335.5 -12.5Q305 -16 277 -16Q170 -16 125 29.5Q80 75 80 162V351H1V473L80 495V595L276 647V500H390V351H276V184Q276 137 326 137Q347 137 363 140Q379 143 382 144ZM435 750 387 550H306L322 750Z" glyph-name="tcaron" horiz-adv-x="406" unicode="&#357;" /><glyph d="M385 -2Q366 -9 335.5 -12.5Q305 -16 277 -16Q170 -16 125 29.5Q80 75 80 162V351H1V473L80 495V595L276 647V500H390V351H276V184Q276 137 326 137Q347 137 363 140Q379 143 382 144ZM131 -250 151 -46H337L277 -250Z" glyph-name="tcommaaccent" horiz-adv-x="406" unicode="&#355;" /><glyph d="M538 250Q538 178 525.5 127.5Q513 77 488 45Q463 13 426.5 -1.5Q390 -16 341 -16Q307 -16 279 -8.5Q251 -1 228 11V-250H32V750H228V489Q251 501 279 508.5Q307 516 341 516Q390 516 426.5 501.5Q463 487 488 455Q513 423 525.5 372.5Q538 322 538 250ZM346 250Q346 313 333 340Q320 367 281 367Q261 367 245.5 360.5Q230 354 228 352V148Q230 146 245.5 139.5Q261 133 281 133Q320 133 333 160Q346 187 346 250Z" glyph-name="thorn" horiz-adv-x="555" unicode="&#254;" /><glyph d="M236 599Q180 599 128.5 588.5Q77 578 37 562L34 732Q55 741 84 747.5Q113 754 144 758Q175 762 205.5 764Q236 766 259 766Q335 766 389 751.5Q443 737 477 709.5Q511 682 526.5 642Q542 602 542 552Q542 495 520 457Q498 419 463 396Q483 388 501.5 374Q520 360 534 339Q548 318 556.5 289.5Q565 261 565 225Q565 168 548 123.5Q531 79 494 48Q457 17 399.5 0.5Q342 -16 260 -16Q204 -16 141.5 -8Q79 0 31 20L34 187Q84 170 139 161.5Q194 153 245 153Q309 153 344 172Q379 191 379 235Q379 282 354 297Q329 312 280 312H116V463H280Q318 463 338 476.5Q358 490 358 528Q358 569 324.5 584Q291 599 236 599Z" glyph-name="three" horiz-adv-x="600" unicode="3" /><glyph d="M238 0 770 750H912L381 0ZM188 466Q214 466 230 467.5Q246 469 255 471.5Q264 474 267 477.5Q270 481 270 485Q270 500 245 500H93V591H236Q251 591 256.5 595Q262 599 262 605Q262 613 247 618.5Q232 624 188 624Q162 624 136 620.5Q110 617 89 613Q64 608 41 602L39 739Q48 743 65.5 748Q83 753 106 757Q129 761 155.5 763.5Q182 766 209 766Q304 766 360.5 738Q417 710 417 649Q417 615 401.5 593.5Q386 572 365 565Q397 552 414.5 526Q432 500 432 461Q432 395 377 359.5Q322 324 209 324Q182 324 154 327Q126 330 101.5 334Q77 338 58.5 342.5Q40 347 31 351L33 489Q54 482 79 477Q100 472 128 469Q156 466 188 466ZM662 174 861 426H1058V197H1122V65H1058V0H896V65H662ZM896 197 901 274 841 195Z" glyph-name="threequarters" horiz-adv-x="1148" unicode="&#190;" /><glyph d="M188 466Q214 466 230 467.5Q246 469 255 471.5Q264 474 267 477.5Q270 481 270 485Q270 500 245 500H93V591H236Q251 591 256.5 595Q262 599 262 605Q262 613 247 618.5Q232 624 188 624Q162 624 136 620.5Q110 617 89 613Q64 608 41 602L39 739Q48 743 65.5 748Q83 753 106 757Q129 761 155.5 763.5Q182 766 209 766Q304 766 360.5 738Q417 710 417 649Q417 615 401.5 593.5Q386 572 365 565Q397 552 414.5 526Q432 500 432 461Q432 395 377 359.5Q322 324 209 324Q182 324 154 327Q126 330 101.5 334Q77 338 58.5 342.5Q40 347 31 351L33 489Q54 482 79 477Q100 472 128 469Q156 466 188 466Z" glyph-name="threesuperior" horiz-adv-x="456" unicode="&#179;" /><glyph d="M43 583Q43 675 80.5 716.5Q118 758 181 758Q214 758 235.5 746.5Q257 735 273.5 721.5Q290 708 303.5 697Q317 686 334 686Q360 686 369 699Q378 712 378 733H487V713Q487 621 449.5 579.5Q412 538 349 538Q316 538 294.5 549Q273 560 256.5 573.5Q240 587 226.5 598.5Q213 610 196 610Q170 610 161 597Q152 584 152 563H43Z" glyph-name="tilde" horiz-adv-x="530" unicode="&#732;" /><glyph d="M487 904Q487 866 477.5 841Q468 816 451 802Q434 788 410.5 782.5Q387 777 360 777Q331 777 308 784Q285 791 265.5 799Q246 807 229.5 814Q213 821 196 821Q170 821 161 811Q152 801 152 786H43V792Q43 830 52.5 854.5Q62 879 79 893.5Q96 908 119.5 913.5Q143 919 170 919Q199 919 222 912Q245 905 264.5 897Q284 889 300.5 882Q317 875 334 875Q360 875 369 885Q378 895 378 910H487Z" glyph-name="tilde.cap" horiz-adv-x="530" unicode="&#58404;" /><glyph d="M380 500 340 602 342 500H260V750H356L410 624L464 750H560V500H478L479 602L440 500ZM172 666V500H84V666H25V750H230V666Z" glyph-name="trademark" horiz-adv-x="605" unicode="&#8482;" /><glyph d="M353 509Q353 545 329 567.5Q305 590 247 590Q206 590 155 580.5Q104 571 58 551L56 725Q96 745 158.5 755.5Q221 766 287 766Q369 766 420.5 747Q472 728 500.5 696Q529 664 539.5 623Q550 582 550 539Q550 486 529.5 437Q509 388 471 340.5Q433 293 380 248Q327 203 261 160L565 167V0H34V125Q127 199 188.5 257Q250 315 286.5 361Q323 407 338 443Q353 479 353 509Z" glyph-name="two" horiz-adv-x="600" unicode="2" /><glyph d="M176 622Q131 622 95 611.5Q59 601 40 593L38 736Q64 749 111 757.5Q158 766 214 766Q271 766 306.5 754Q342 742 362 723Q382 704 389.5 681Q397 658 397 636Q397 602 381.5 576Q366 550 343 531Q320 512 292.5 499Q265 486 241 477L408 482V340H26V447Q80 473 116.5 493.5Q153 514 175.5 530.5Q198 547 208 561Q218 575 218 587Q218 601 208.5 611.5Q199 622 176 622Z" glyph-name="twosuperior" horiz-adv-x="435" unicode="&#178;" /><glyph d="M392 0 374 32Q338 9 295 -3.5Q252 -16 207 -16Q152 -16 117.5 -2.5Q83 11 63 34.5Q43 58 35.5 90Q28 122 28 159V500H224V177Q224 137 262 137Q283 137 299.5 143Q316 149 326 155V500H522V0Z" glyph-name="u" horiz-adv-x="554" unicode="u" /><glyph d="M392 0 374 32Q338 9 295 -3.5Q252 -16 207 -16Q152 -16 117.5 -2.5Q83 11 63 34.5Q43 58 35.5 90Q28 122 28 159V500H224V177Q224 137 262 137Q283 137 299.5 143Q316 149 326 155V500H522V0ZM210 546 260 750H450L340 546Z" glyph-name="uacute" horiz-adv-x="554" unicode="&#250;" /><glyph d="M392 0 374 32Q338 9 295 -3.5Q252 -16 207 -16Q152 -16 117.5 -2.5Q83 11 63 34.5Q43 58 35.5 90Q28 122 28 159V500H224V177Q224 137 262 137Q283 137 299.5 143Q316 149 326 155V500H522V0ZM275 546Q166 546 116 594Q66 642 65 750H189Q189 706 208 688Q227 670 275 670Q323 670 342 688Q361 706 361 750H485Q483 642 433.5 594Q384 546 275 546Z" glyph-name="ubreve" horiz-adv-x="554" unicode="&#365;" /><glyph d="M392 0 374 32Q338 9 295 -3.5Q252 -16 207 -16Q152 -16 117.5 -2.5Q83 11 63 34.5Q43 58 35.5 90Q28 122 28 159V500H224V177Q224 137 262 137Q283 137 299.5 143Q316 149 326 155V500H522V0ZM65 546 201 750H349L485 546H350L275 626L200 546Z" glyph-name="ucircumflex" horiz-adv-x="554" unicode="&#251;" /><glyph d="M392 0 374 32Q338 9 295 -3.5Q252 -16 207 -16Q152 -16 117.5 -2.5Q83 11 63 34.5Q43 58 35.5 90Q28 122 28 159V500H224V177Q224 137 262 137Q283 137 299.5 143Q316 149 326 155V500H522V0ZM40 648Q40 671 48.5 691Q57 711 72 726Q87 741 107 749.5Q127 758 150 758Q173 758 193 749.5Q213 741 228 726Q243 711 251.5 691Q260 671 260 648Q260 625 251.5 605Q243 585 228 570Q213 555 193 546.5Q173 538 150 538Q127 538 107 546.5Q87 555 72 570Q57 585 48.5 605Q40 625 40 648ZM290 648Q290 671 298.5 691Q307 711 322 726Q337 741 357 749.5Q377 758 400 758Q423 758 443 749.5Q463 741 478 726Q493 711 501.5 691Q510 671 510 648Q510 625 501.5 605Q493 585 478 570Q463 555 443 546.5Q423 538 400 538Q377 538 357 546.5Q337 555 322 570Q307 585 298.5 605Q290 625 290 648Z" glyph-name="udieresis" horiz-adv-x="554" unicode="&#252;" /><glyph d="M392 0 374 32Q338 9 295 -3.5Q252 -16 207 -16Q152 -16 117.5 -2.5Q83 11 63 34.5Q43 58 35.5 90Q28 122 28 159V500H224V177Q224 137 262 137Q283 137 299.5 143Q316 149 326 155V500H522V0ZM100 750H290L340 546H210Z" glyph-name="ugrave" horiz-adv-x="554" unicode="&#249;" /><glyph d="M392 0 374 32Q338 9 295 -3.5Q252 -16 207 -16Q152 -16 117.5 -2.5Q83 11 63 34.5Q43 58 35.5 90Q28 122 28 159V500H224V177Q224 137 262 137Q283 137 299.5 143Q316 149 326 155V500H522V0ZM110 546 160 750H350L240 546ZM310 546 360 750H550L440 546Z" glyph-name="uhungarumlaut" horiz-adv-x="554" unicode="&#369;" /><glyph d="M392 0 374 32Q338 9 295 -3.5Q252 -16 207 -16Q152 -16 117.5 -2.5Q83 11 63 34.5Q43 58 35.5 90Q28 122 28 159V500H224V177Q224 137 262 137Q283 137 299.5 143Q316 149 326 155V500H522V0ZM431 583H119V713H431Z" glyph-name="umacron" horiz-adv-x="554" unicode="&#363;" /><glyph d="M301 -250H-4V-96H301Z" glyph-name="underscore" horiz-adv-x="297" unicode="_" /><glyph d="M306 248H26V402H306Z" glyph-name="uni00AD" horiz-adv-x="332" unicode="&#173;" /><glyph d="M522 0Q466 -15 439 -43.5Q412 -72 412 -99Q412 -120 426.5 -132.5Q441 -145 472 -145Q495 -145 509.5 -141.5Q524 -138 532 -136V-234Q518 -239 495 -244.5Q472 -250 430 -250Q361 -250 316.5 -218.5Q272 -187 272 -127Q272 -76 303 -40Q334 -4 380 20L374 32Q338 9 295 -3.5Q252 -16 207 -16Q152 -16 117.5 -2.5Q83 11 63 34.5Q43 58 35.5 90Q28 122 28 159V500H224V177Q224 137 262 137Q283 137 299.5 143Q316 149 326 155V500H522V0Z" glyph-name="uogonek" horiz-adv-x="554" unicode="&#371;" /><glyph d="M392 0 374 32Q338 9 295 -3.5Q252 -16 207 -16Q152 -16 117.5 -2.5Q83 11 63 34.5Q43 58 35.5 90Q28 122 28 159V500H224V177Q224 137 262 137Q283 137 299.5 143Q316 149 326 155V500H522V0ZM275 620Q303 620 303 647Q303 662 295.5 668Q288 674 275 674Q247 674 247 648Q247 620 275 620ZM275 537Q218 537 188.5 563Q159 589 159 647Q159 706 188.5 732Q218 758 275 758Q332 758 361.5 732Q391 706 391 648Q391 589 361.5 563Q332 537 275 537Z" glyph-name="uring" horiz-adv-x="554" unicode="&#367;" /><glyph d="M392 0 374 32Q338 9 295 -3.5Q252 -16 207 -16Q152 -16 117.5 -2.5Q83 11 63 34.5Q43 58 35.5 90Q28 122 28 159V500H224V177Q224 137 262 137Q283 137 299.5 143Q316 149 326 155V500H522V0ZM53 583Q53 675 90.5 716.5Q128 758 191 758Q224 758 245.5 746.5Q267 735 283.5 721.5Q300 708 313.5 697Q327 686 344 686Q370 686 379 699Q388 712 388 733H497V713Q497 621 459.5 579.5Q422 538 359 538Q326 538 304.5 549Q283 560 266.5 573.5Q250 587 236.5 598.5Q223 610 206 610Q180 610 171 597Q162 584 162 563H53Z" glyph-name="utilde" horiz-adv-x="554" unicode="&#361;" /><glyph d="M265 196 334 500H534L367 -4H163L-4 500H196Z" glyph-name="v" horiz-adv-x="530" unicode="v" /><glyph d="M482 215 513 500H698L597 -4H402L350 290L298 -4H103L2 500H187L218 215L266 500H434Z" glyph-name="w" horiz-adv-x="700" unicode="w" /><glyph d="M482 215 513 500H698L597 -4H402L350 290L298 -4H103L2 500H187L218 215L266 500H434ZM285 546 335 750H525L415 546Z" glyph-name="wacute" horiz-adv-x="700" unicode="&#7811;" /><glyph d="M482 215 513 500H698L597 -4H402L350 290L298 -4H103L2 500H187L218 215L266 500H434ZM140 546 276 750H424L560 546H425L350 626L275 546Z" glyph-name="wcircumflex" horiz-adv-x="700" unicode="&#373;" /><glyph d="M482 215 513 500H698L597 -4H402L350 290L298 -4H103L2 500H187L218 215L266 500H434ZM115 648Q115 671 123.5 691Q132 711 147 726Q162 741 182 749.5Q202 758 225 758Q248 758 268 749.5Q288 741 303 726Q318 711 326.5 691Q335 671 335 648Q335 625 326.5 605Q318 585 303 570Q288 555 268 546.5Q248 538 225 538Q202 538 182 546.5Q162 555 147 570Q132 585 123.5 605Q115 625 115 648ZM365 648Q365 671 373.5 691Q382 711 397 726Q412 741 432 749.5Q452 758 475 758Q498 758 518 749.5Q538 741 553 726Q568 711 576.5 691Q585 671 585 648Q585 625 576.5 605Q568 585 553 570Q538 555 518 546.5Q498 538 475 538Q452 538 432 546.5Q412 555 397 570Q382 585 373.5 605Q365 625 365 648Z" glyph-name="wdieresis" horiz-adv-x="700" unicode="&#7813;" /><glyph d="M482 215 513 500H698L597 -4H402L350 290L298 -4H103L2 500H187L218 215L266 500H434ZM175 750H365L415 546H285Z" glyph-name="wgrave" horiz-adv-x="700" unicode="&#7809;" /><glyph d="M278 361 335 500H550L409 258L558 0H341L278 146L215 0H-2L147 258L6 500H221Z" glyph-name="x" horiz-adv-x="557" unicode="x" /><glyph d="M208 500 271 212 337 500H544L276 -250H55L171 7L-3 500Z" glyph-name="y" horiz-adv-x="542" unicode="y" /><glyph d="M208 500 271 212 337 500H544L276 -250H55L171 7L-3 500ZM207 546 257 750H447L337 546Z" glyph-name="yacute" horiz-adv-x="542" unicode="&#253;" /><glyph d="M208 500 271 212 337 500H544L276 -250H55L171 7L-3 500ZM62 546 198 750H346L482 546H347L272 626L197 546Z" glyph-name="ycircumflex" horiz-adv-x="542" unicode="&#375;" /><glyph d="M208 500 271 212 337 500H544L276 -250H55L171 7L-3 500ZM37 648Q37 671 45.5 691Q54 711 69 726Q84 741 104 749.5Q124 758 147 758Q170 758 190 749.5Q210 741 225 726Q240 711 248.5 691Q257 671 257 648Q257 625 248.5 605Q240 585 225 570Q210 555 190 546.5Q170 538 147 538Q124 538 104 546.5Q84 555 69 570Q54 585 45.5 605Q37 625 37 648ZM287 648Q287 671 295.5 691Q304 711 319 726Q334 741 354 749.5Q374 758 397 758Q420 758 440 749.5Q460 741 475 726Q490 711 498.5 691Q507 671 507 648Q507 625 498.5 605Q490 585 475 570Q460 555 440 546.5Q420 538 397 538Q374 538 354 546.5Q334 555 319 570Q304 585 295.5 605Q287 625 287 648Z" glyph-name="ydieresis" horiz-adv-x="542" unicode="&#255;" /><glyph d="M-8 361H163L148 390H-8V495H94L-35 750H185L300 448L416 750H635L505 495H609V390H452L438 361H609V256H397L398 0H203L204 256H-8Z" glyph-name="yen" horiz-adv-x="600" unicode="&#165;" /><glyph d="M17 0V133L215 342L33 335V500H461V367L263 158L473 165V0Z" glyph-name="z" horiz-adv-x="490" unicode="z" /><glyph d="M17 0V133L215 342L33 335V500H461V367L263 158L473 165V0ZM186 546 236 750H426L316 546Z" glyph-name="zacute" horiz-adv-x="490" unicode="&#378;" /><glyph d="M17 0V133L215 342L33 335V500H461V367L263 158L473 165V0ZM461 750 325 546H177L41 750H176L251 670L326 750Z" glyph-name="zcaron" horiz-adv-x="490" unicode="&#158;" /><glyph d="M17 0V133L215 342L33 335V500H461V367L263 158L473 165V0ZM141 648Q141 671 149.5 691Q158 711 173 726Q188 741 208 749.5Q228 758 251 758Q274 758 294 749.5Q314 741 329 726Q344 711 352.5 691Q361 671 361 648Q361 625 352.5 605Q344 585 329 570Q314 555 294 546.5Q274 538 251 538Q228 538 208 546.5Q188 555 173 570Q158 585 149.5 605Q141 625 141 648Z" glyph-name="zdotaccent" horiz-adv-x="490" unicode="&#380;" /><glyph d="M300 596Q273 596 256 586Q239 576 229.5 550.5Q220 525 217 482.5Q214 440 214 375Q214 310 217 267.5Q220 225 229.5 199.5Q239 174 256 164Q273 154 300 154Q327 154 344 164Q361 174 370.5 199.5Q380 225 383 267.5Q386 310 386 375Q386 440 383 482.5Q380 525 370.5 550.5Q361 576 344 586Q327 596 300 596ZM300 -16Q223 -16 172 4Q121 24 89.5 69.5Q58 115 45 190Q32 265 32 375Q32 485 45 560Q58 635 89.5 680.5Q121 726 172 746Q223 766 300 766Q376 766 427.5 746Q479 726 510.5 680.5Q542 635 555 560Q568 485 568 375Q568 265 555 190Q542 115 510.5 69.5Q479 24 427.5 4Q376 -16 300 -16Z" glyph-name="zero" horiz-adv-x="600" unicode="0" /></font>
</defs>
</svg>
