<?xml version="1.0" encoding="UTF-8" standalone="no"?>
<svg width="43px" height="56px" viewBox="0 0 43 56" version="1.1" xmlns="http://www.w3.org/2000/svg" xmlns:xlink="http://www.w3.org/1999/xlink">
    <!-- Generator: Sketch 39.1 (31720) - http://www.bohemiancoding.com/sketch -->
    <title>file-xls</title>
    <desc>Created with Sketch.</desc>
    <defs></defs>
    <g id="Symbols" stroke="none" stroke-width="1" fill="none" fill-rule="evenodd">
        <g id="XLS-File">
            <g id="file-xls">
                <path d="M30.1101212,0 L1.44500926,0 C0.646945362,0 0,0.654483039 0,1.9244799 L0,54.9565911 C0,55.3013188 0.646945362,55.9558018 1.44500926,55.9558018 L41.026213,55.9558018 C41.8242769,55.9558018 42.4712223,55.3013188 42.4712223,54.9565911 L42.4712223,12.9677571 C42.4712223,12.2723064 42.3793659,12.0484832 42.2173826,11.8836134 L30.7244723,0.256797162 C30.5615014,0.0929265994 30.3402559,0 30.1101212,0" id="Fill-72" fill="#E9E9E0"></path>
                <polyline id="Fill-73" fill="#D9D7CA" points="30.6187881 0.150880823 30.6187881 11.990529 42.3220791 11.990529 30.6187881 0.150880823"></polyline>
                <path d="M41.026213,55.9558018 L1.44500926,55.9558018 C0.646945362,55.9558018 0,55.3013188 0,54.4939565 L0,38.9692191 L42.4712223,38.9692191 L42.4712223,54.4939565 C42.4712223,55.3013188 41.8242769,55.9558018 41.026213,55.9558018" id="Fill-159" fill="#91CDA0"></path>
                <polyline id="Fill-160" fill="#FFFFFF" points="13.7083278 48.0680322 16.2338839 52.9581696 14.3562608 52.9581696 12.776924 49.1601695 12.6416087 49.1601695 10.9397967 52.9581696 9.06316129 52.9581696 11.5877298 48.0680322 8.90117802 42.8901221 10.7511454 42.8901221 12.5062934 46.9878854 12.6416087 46.9878854 14.5458998 42.8901221 16.3958672 42.8901221 13.7083278 48.0680322"></polyline>
                <polyline id="Fill-161" fill="#FFFFFF" points="20.2844533 42.8901221 20.2844533 51.7151514 24.862456 51.7151514 24.862456 52.9581696 18.6369649 52.9581696 18.6369649 42.8901221 20.2844533 42.8901221"></polyline>
                <path d="M32.1408382,50.1983495 C32.1408382,50.5630614 32.0667605,50.9157828 31.9176174,51.2575129 C31.769462,51.5992429 31.560069,51.8990062 31.2904261,52.158801 C31.0197955,52.4185958 30.6869396,52.6254324 30.2908708,52.7803101 C29.894802,52.9351877 29.4444095,53.0131262 28.940681,53.0131262 C28.7243741,53.0131262 28.5011532,53.0011356 28.2720062,52.979153 C28.0428591,52.9561711 27.810749,52.9172019 27.5766634,52.8622453 C27.3425778,52.808288 27.119357,52.7323479 26.9079886,52.6374229 C26.6966202,52.5414987 26.5138951,52.4255902 26.3617889,52.2886984 L26.6452596,51.1136265 C26.7706979,51.1865689 26.9307057,51.2575129 27.1242955,51.3254592 C27.3178852,51.3944047 27.5174012,51.457355 27.7248188,51.5173077 C27.9322364,51.5762611 28.1386663,51.6242232 28.3460839,51.6601948 C28.5535015,51.6961664 28.7470913,51.7151514 28.9268532,51.7151514 C29.476016,51.7151514 29.8967774,51.585254 30.1891374,51.3254592 C30.4814974,51.0656644 30.6286652,50.6819675 30.6286652,50.1713708 C30.6286652,49.8616155 30.5249564,49.5978238 30.3175388,49.3789967 C30.1101212,49.1601695 29.8523307,48.9623258 29.5412043,48.7844663 C29.2310656,48.607606 28.8952467,48.4297465 28.5357228,48.2518869 C28.1752113,48.0740274 27.8374169,47.8641932 27.5223397,47.6233834 C27.2072625,47.3825736 26.946509,47.0977985 26.7390914,46.7700574 C26.5316738,46.4423163 26.4289527,46.0316407 26.4289527,45.540029 C26.4289527,45.094381 26.5099443,44.6976943 26.6719276,44.3519674 C26.8339108,44.0052413 27.0521932,43.7114733 27.3267746,43.4706635 C27.601356,43.2298537 27.9213717,43.0449997 28.285834,42.9171008 C28.6502964,42.7892018 29.0355005,42.7262515 29.4404586,42.7262515 C29.8543061,42.7262515 30.2721044,42.7652207 30.695829,42.84216 C31.1185658,42.9190992 31.4612987,43.0449997 31.7220522,43.2178632 C31.6687163,43.3357701 31.6055033,43.4656675 31.533401,43.6075554 C31.4612987,43.7484441 31.3931472,43.8803399 31.3309219,44.0032429 C31.2677089,44.1261458 31.2133853,44.2290645 31.1689386,44.3109998 C31.1235043,44.392935 31.0958486,44.4388987 31.087947,44.4468924 C31.0336233,44.4199137 30.9723858,44.3839421 30.905222,44.3379785 C30.8380582,44.2920148 30.7412633,44.2470503 30.6148373,44.2010866 C30.4884114,44.1551229 30.3224773,44.1241474 30.1150597,44.1061616 C29.9076421,44.0871766 29.6429377,44.0921726 29.3189712,44.1191513 C29.1382216,44.1381363 28.967349,44.1900953 28.8053657,44.2770266 C28.6433825,44.3629587 28.4991778,44.4698743 28.3737396,44.5977732 C28.2473136,44.7256722 28.1485433,44.8685594 28.076441,45.0274339 C28.0043387,45.1873076 27.9677937,45.3401868 27.9677937,45.4850724 C27.9677937,45.8497843 28.0715025,46.1435523 28.2789201,46.3663763 C28.48535,46.5901995 28.7421527,46.7850456 29.0483406,46.9539122 C29.3545285,47.1227788 29.6873844,47.2866494 30.0478959,47.4455239 C30.4074197,47.6053976 30.7432387,47.7992445 31.0533774,48.0270645 C31.3645038,48.2538854 31.6232819,48.5386604 31.8306995,48.8803905 C32.0371294,49.2221206 32.1408382,49.6607741 32.1408382,50.1983495" id="Fill-162" fill="#FFFFFF"></path>
                <path d="M16.7909483,15.9873719 L16.7909483,11.990529 L4.93851422,11.990529 L4.93851422,33.9731654 L37.532708,33.9731654 L37.532708,15.9873719 L16.7909483,15.9873719 L16.7909483,15.9873719 Z M6.9139199,13.9889505 L14.8155426,13.9889505 L14.8155426,15.9873719 L6.9139199,15.9873719 L6.9139199,13.9889505 Z M6.9139199,17.9857934 L14.8155426,17.9857934 L14.8155426,19.9842149 L6.9139199,19.9842149 L6.9139199,17.9857934 Z M6.9139199,21.9826364 L14.8155426,21.9826364 L14.8155426,23.9810579 L6.9139199,23.9810579 L6.9139199,21.9826364 Z M6.9139199,25.9794794 L14.8155426,25.9794794 L14.8155426,27.9779009 L6.9139199,27.9779009 L6.9139199,25.9794794 Z M6.9139199,29.9763224 L14.8155426,29.9763224 L14.8155426,31.9747439 L6.9139199,31.9747439 L6.9139199,29.9763224 Z M16.7909483,29.9763224 L35.5573024,29.9763224 L35.5573024,31.9747439 L16.7909483,31.9747439 L16.7909483,29.9763224 Z M16.7909483,25.9794794 L35.5573024,25.9794794 L35.5573024,27.9779009 L16.7909483,27.9779009 L16.7909483,25.9794794 Z M16.7909483,21.9826364 L35.5573024,21.9826364 L35.5573024,23.9810579 L16.7909483,23.9810579 L16.7909483,21.9826364 Z M16.7909483,17.9857934 L35.5573024,17.9857934 L35.5573024,19.9842149 L16.7909483,19.9842149 L16.7909483,17.9857934 Z" id="Fill-163" fill="#C8BDB8"></path>
            </g>
        </g>
    </g>
</svg>