<?xml version="1.0" encoding="UTF-8" standalone="no"?>
<svg width="43px" height="56px" viewBox="0 0 43 56" version="1.1" xmlns="http://www.w3.org/2000/svg" xmlns:xlink="http://www.w3.org/1999/xlink">
    <!-- Generator: Sketch 39.1 (31720) - http://www.bohemiancoding.com/sketch -->
    <title>file-js</title>
    <desc>Created with Sketch.</desc>
    <defs></defs>
    <g id="Symbols" stroke="none" stroke-width="1" fill="none" fill-rule="evenodd">
        <g id="JS-File">
            <g id="file-js">
                <path d="M30.485,0 L1.463,0 C0.655,0 0,0.655 0,1.926 L0,55 C0,55.345 0.655,56 1.463,56 L41.537,56 C42.345,56 43,55.345 43,55 L43,12.978 C43,12.282 42.907,12.058 42.743,11.893 L31.107,0.257 C30.942,0.093 30.718,0 30.485,0" id="Fill-30" fill="#E9E9E0"></path>
                <polyline id="Fill-31" fill="#D9D7CA" points="31 0.151 31 12 42.849 12 31 0.151"></polyline>
                <path d="M41.537,56 L1.463,56 C0.655,56 0,55.345 0,54.537 L0,39 L43,39 L43,54.537 C43,55.345 42.345,56 41.537,56" id="Fill-140" fill="#EEAF4B"></path>
                <path d="M19.521,42.719 L19.521,50.566 C19.521,51.04 19.435,51.44 19.262,51.763 C19.088,52.086 18.856,52.346 18.564,52.542 C18.273,52.738 17.937,52.875 17.56,52.952 C17.182,53.029 16.791,53.068 16.391,53.068 C16.19,53.068 15.955,53.048 15.687,53.007 C15.418,52.966 15.14,52.902 14.853,52.815 C14.565,52.728 14.289,52.631 14.025,52.522 C13.761,52.412 13.537,52.289 13.355,52.152 L14.053,51.045 C14.144,51.108 14.274,51.175 14.442,51.243 C14.611,51.311 14.795,51.375 14.996,51.435 C15.196,51.494 15.406,51.546 15.625,51.592 C15.844,51.638 16.049,51.66 16.24,51.66 C16.723,51.66 17.108,51.566 17.396,51.38 C17.683,51.193 17.835,50.876 17.854,50.43 L17.854,42.719 L19.521,42.719" id="Fill-141" fill="#FFFFFF"></path>
                <path d="M27.684,50.238 C27.684,50.603 27.608,50.956 27.458,51.298 C27.308,51.64 27.096,51.94 26.822,52.2 C26.549,52.46 26.211,52.667 25.811,52.822 C25.409,52.978 24.953,53.055 24.443,53.055 C24.225,53.055 23.999,53.043 23.767,53.021 C23.534,52.998 23.299,52.959 23.063,52.904 C22.825,52.85 22.6,52.774 22.386,52.679 C22.172,52.583 21.986,52.467 21.832,52.33 L22.119,51.154 C22.246,51.228 22.408,51.298 22.604,51.366 C22.801,51.435 23.003,51.498 23.213,51.558 C23.422,51.617 23.632,51.665 23.842,51.701 C24.051,51.737 24.247,51.756 24.43,51.756 C24.985,51.756 25.412,51.626 25.708,51.366 C26.004,51.106 26.152,50.722 26.152,50.211 C26.152,49.901 26.047,49.637 25.838,49.418 C25.628,49.199 25.366,49.001 25.052,48.823 C24.737,48.646 24.397,48.468 24.033,48.29 C23.668,48.112 23.326,47.902 23.008,47.661 C22.688,47.42 22.424,47.135 22.215,46.807 C22.005,46.479 21.9,46.068 21.9,45.576 C21.9,45.13 21.982,44.733 22.146,44.387 C22.311,44.04 22.531,43.746 22.81,43.505 C23.088,43.264 23.411,43.079 23.78,42.951 C24.15,42.823 24.539,42.76 24.949,42.76 C25.368,42.76 25.792,42.799 26.221,42.876 C26.649,42.953 26.995,43.079 27.26,43.252 C27.205,43.37 27.141,43.5 27.068,43.642 C26.995,43.783 26.927,43.915 26.863,44.038 C26.799,44.161 26.744,44.264 26.699,44.346 C26.653,44.428 26.626,44.474 26.617,44.482 C26.563,44.455 26.501,44.419 26.433,44.373 C26.364,44.327 26.266,44.282 26.139,44.236 C26.011,44.19 25.842,44.159 25.633,44.141 C25.423,44.122 25.154,44.127 24.826,44.154 C24.644,44.173 24.471,44.225 24.307,44.311 C24.143,44.398 23.996,44.505 23.869,44.633 C23.741,44.761 23.641,44.904 23.568,45.064 C23.495,45.223 23.459,45.376 23.459,45.522 C23.459,45.886 23.564,46.18 23.773,46.403 C23.983,46.627 24.242,46.822 24.553,46.991 C24.862,47.16 25.199,47.324 25.565,47.483 C25.929,47.643 26.269,47.837 26.583,48.065 C26.898,48.292 27.159,48.577 27.369,48.919 C27.578,49.261 27.684,49.7 27.684,50.238" id="Fill-142" fill="#FFFFFF"></path>
                <path d="M13,19 L13,15 C13,14.449 13.448,14 14,14 C14.553,14 15,13.552 15,13 C15,12.448 14.553,12 14,12 C12.346,12 11,13.346 11,15 L11,19 C11,20.103 10.103,21 9,21 C8.447,21 8,21.448 8,22 C8,22.552 8.447,23 9,23 C10.103,23 11,23.897 11,25 L11,29 C11,30.654 12.346,32 14,32 C14.553,32 15,31.552 15,31 C15,30.448 14.553,30 14,30 C13.448,30 13,29.551 13,29 L13,25 C13,23.8 12.458,22.734 11.618,22 C12.458,21.266 13,20.2 13,19" id="Fill-143" fill="#EEAF4B"></path>
                <path d="M21,17 C20.172,17 19.5,17.672 19.5,18.5 C19.5,19.328 20.172,20 21,20 C21.828,20 22.5,19.328 22.5,18.5 C22.5,17.672 21.828,17 21,17" id="Fill-144" fill="#EEAF4B"></path>
                <path d="M33,21 C31.897,21 31,20.103 31,19 L31,15 C31,13.346 29.654,12 28,12 C27.447,12 27,12.448 27,13 C27,13.552 27.447,14 28,14 C28.552,14 29,14.449 29,15 L29,19 C29,20.2 29.542,21.266 30.382,22 C29.542,22.734 29,23.8 29,25 L29,29 C29,29.551 28.552,30 28,30 C27.447,30 27,30.448 27,31 C27,31.552 27.447,32 28,32 C29.654,32 31,30.654 31,29 L31,25 C31,23.897 31.897,23 33,23 C33.553,23 34,22.552 34,22 C34,21.448 33.553,21 33,21" id="Fill-145" fill="#EEAF4B"></path>
                <path d="M21,24 C20.447,24 20,24.448 20,25 L20,28 C20,28.552 20.447,29 21,29 C21.553,29 22,28.552 22,28 L22,25 C22,24.448 21.553,24 21,24" id="Fill-146" fill="#EEAF4B"></path>
            </g>
        </g>
    </g>
</svg>