<?xml version="1.0" encoding="UTF-8" standalone="no"?>
<svg width="43px" height="56px" viewBox="0 0 43 56" version="1.1" xmlns="http://www.w3.org/2000/svg" xmlns:xlink="http://www.w3.org/1999/xlink">
    <!-- Generator: Sketch 39.1 (31720) - http://www.bohemiancoding.com/sketch -->
    <title>file-mp3</title>
    <desc>Created with Sketch.</desc>
    <defs></defs>
    <g id="Symbols" stroke="none" stroke-width="1" fill="none" fill-rule="evenodd">
        <g id="MP3-File">
            <g id="file-mp3">
                <path d="M30.485,0 L1.463,0 C0.655,0 0,0.655 0,1.926 L0,55 C0,55.345 0.655,56 1.463,56 L41.537,56 C42.345,56 43,55.345 43,55 L43,12.978 C43,12.282 42.907,12.058 42.743,11.893 L31.107,0.257 C30.942,0.093 30.718,0 30.485,0" id="Fill-16" fill="#E9E9E0"></path>
                <polyline id="Fill-17" fill="#D9D7CA" points="31 0.151 31 12 42.849 12 31 0.151"></polyline>
                <path d="M41.537,56 L1.463,56 C0.655,56 0,55.345 0,54.537 L0,39 L43,39 L43,54.537 C43,55.345 42.345,56 41.537,56" id="Fill-244" fill="#7D6599"></path>
                <path d="M29.17,14.986 C28.603,14.19 27.87,13.443 26.862,12.636 C22.948,9.505 22.105,6.359 22,5.898 L22,5 C22,4.447 21.553,4 21,4 C20.447,4 20,4.447 20,5 L20,23.412 L16.294,23.412 C12.412,23.412 10,25.373 10,28.529 C10,31.995 12.24,34.235 15.706,34.235 C19.177,34.235 22,31.412 22,27.941 L22,16.468 L22.298,16.712 C22.638,17.048 23.159,17.432 23.819,17.917 C26.138,19.626 30.02,22.484 29.043,25.71 C29.014,25.807 29,25.904 29,26 C29,26.43 29.278,26.826 29.71,26.957 C29.807,26.986 29.904,27 30,27 C30.43,27 30.826,26.722 30.957,26.29 C32.584,20.915 30.535,16.9 29.17,14.986 L29.17,14.986 Z M20,27.941 C20,30.31 18.074,32.235 15.706,32.235 C13.351,32.235 12,30.885 12,28.529 C12,25.953 14.335,25.412 16.294,25.412 L20,25.412 L20,27.941 L20,27.941 Z M25.005,16.308 C24.434,15.886 23.94,15.523 23.634,15.227 L22,13.887 L22,10.414 C22.827,11.588 23.987,12.898 25.612,14.197 C26.471,14.886 27.084,15.505 27.541,16.148 C28.257,17.15 28.972,18.486 29.329,20.125 C28.002,18.515 26.245,17.221 25.005,16.308 L25.005,16.308 Z" id="Fill-263" fill="#C8BDB8"></path>
                <polyline id="Fill-294" fill="#FFFFFF" points="15.9 42.924 17.568 42.924 17.568 53 15.9 53 15.9 46.068 13.645 51.674 12.195 51.674 9.926 46.068 9.926 53 8.258 53 8.258 42.924 9.926 42.924 12.92 49.815 15.9 42.924"></polyline>
                <path d="M21.711,53 L20.07,53 L20.07,42.924 L22.969,42.924 C23.398,42.924 23.821,42.992 24.24,43.129 C24.659,43.266 25.035,43.471 25.368,43.744 C25.701,44.018 25.97,44.348 26.175,44.735 C26.38,45.123 26.482,45.558 26.482,46.041 C26.482,46.552 26.396,47.014 26.223,47.429 C26.05,47.844 25.808,48.192 25.498,48.475 C25.189,48.757 24.815,48.976 24.377,49.131 C23.94,49.286 23.456,49.363 22.928,49.363 L21.711,49.363 L21.711,53 L21.711,53 Z M21.711,44.168 L21.711,48.16 L23.215,48.16 C23.415,48.16 23.613,48.126 23.81,48.058 C24.006,47.989 24.186,47.878 24.35,47.723 C24.514,47.567 24.646,47.352 24.746,47.073 C24.847,46.795 24.896,46.451 24.896,46.041 C24.896,45.877 24.874,45.687 24.828,45.474 C24.782,45.26 24.69,45.055 24.548,44.858 C24.406,44.662 24.208,44.498 23.953,44.366 C23.698,44.234 23.36,44.168 22.941,44.168 L21.711,44.168 L21.711,44.168 Z" id="Fill-295" fill="#FFFFFF"></path>
                <path d="M32.115,47.695 C32.325,47.723 32.541,47.791 32.765,47.9 C32.988,48.01 33.195,48.165 33.387,48.365 C33.578,48.565 33.737,48.81 33.865,49.097 C33.993,49.384 34.057,49.714 34.057,50.088 C34.057,50.544 33.99,50.938 33.858,51.271 C33.727,51.604 33.56,51.879 33.359,52.098 C33.159,52.316 32.934,52.492 32.683,52.624 C32.432,52.756 32.188,52.855 31.951,52.918 C31.714,52.981 31.498,53.023 31.302,53.041 C31.106,53.06 30.953,53.068 30.844,53.068 C30.078,53.068 29.475,53.016 29.032,52.911 C28.59,52.807 28.282,52.699 28.109,52.59 L28.479,51.414 C28.561,51.46 28.638,51.51 28.711,51.565 C28.784,51.619 28.889,51.672 29.025,51.722 C29.162,51.772 29.354,51.813 29.6,51.845 C29.846,51.877 30.183,51.893 30.611,51.893 C31.24,51.893 31.71,51.722 32.02,51.38 C32.329,51.038 32.484,50.607 32.484,50.088 C32.484,49.596 32.343,49.181 32.061,48.844 C31.778,48.507 31.363,48.338 30.816,48.338 L29.422,48.338 L29.436,48.338 L29.422,47.231 L30.352,47.231 C30.552,47.231 30.755,47.226 30.96,47.217 C31.165,47.208 31.358,47.157 31.541,47.066 C31.724,46.976 31.874,46.82 31.992,46.602 C32.11,46.383 32.17,46.068 32.17,45.658 C32.17,45.494 32.156,45.321 32.129,45.139 C32.102,44.956 32.026,44.788 31.903,44.633 C31.78,44.477 31.601,44.352 31.363,44.257 C31.126,44.161 30.798,44.113 30.379,44.113 C29.96,44.113 29.625,44.152 29.374,44.23 C29.123,44.307 28.935,44.368 28.807,44.414 L28.328,43.184 C28.547,43.12 28.818,43.052 29.142,42.979 C29.465,42.905 29.933,42.869 30.543,42.869 C30.972,42.869 31.377,42.922 31.76,43.026 C32.143,43.131 32.478,43.298 32.765,43.525 C33.052,43.753 33.279,44.045 33.448,44.4 C33.617,44.756 33.701,45.175 33.701,45.658 C33.701,45.94 33.651,46.198 33.551,46.431 C33.45,46.663 33.323,46.866 33.168,47.039 C33.013,47.212 32.84,47.356 32.648,47.47 C32.457,47.584 32.279,47.659 32.115,47.695" id="Fill-296" fill="#FFFFFF"></path>
            </g>
        </g>
    </g>
</svg>