<?xml version="1.0" encoding="UTF-8" standalone="no"?>
<svg width="43px" height="56px" viewBox="0 0 43 56" version="1.1" xmlns="http://www.w3.org/2000/svg" xmlns:xlink="http://www.w3.org/1999/xlink">
    <!-- Generator: Sketch 39.1 (31720) - http://www.bohemiancoding.com/sketch -->
    <title>file-ppt</title>
    <desc>Created with Sketch.</desc>
    <defs></defs>
    <g id="Symbols" stroke="none" stroke-width="1" fill="none" fill-rule="evenodd">
        <g id="PPT-File">
            <g id="file-ppt">
                <path d="M30.485,0 L1.463,0 C0.655,0 0,0.655 0,1.926 L0,55 C0,55.345 0.655,56 1.463,56 L41.537,56 C42.345,56 43,55.345 43,55 L43,12.978 C43,12.282 42.907,12.058 42.743,11.893 L31.107,0.257 C30.942,0.093 30.718,0 30.485,0" id="Fill-3" fill="#E9E9E0"></path>
                <polyline id="Fill-4" fill="#D9D7CA" points="31 0.151 31 12 42.849 12 31 0.151"></polyline>
                <path d="M41.537,56 L1.463,56 C0.655,56 0,55.345 0,54.537 L0,39 L43,39 L43,54.537 C43,55.345 42.345,56 41.537,56" id="Fill-239" fill="#F7712E"></path>
                <path d="M11.081,53 L9.44,53 L9.44,42.924 L12.339,42.924 C12.767,42.924 13.191,42.992 13.61,43.129 C14.029,43.266 14.405,43.471 14.738,43.744 C15.071,44.018 15.34,44.348 15.545,44.735 C15.75,45.123 15.853,45.558 15.853,46.041 C15.853,46.552 15.766,47.014 15.593,47.429 C15.419,47.844 15.178,48.192 14.868,48.475 C14.558,48.757 14.185,48.976 13.747,49.131 C13.31,49.286 12.826,49.363 12.298,49.363 L11.081,49.363 L11.081,53 L11.081,53 Z M11.081,44.168 L11.081,48.16 L12.585,48.16 C12.785,48.16 12.983,48.126 13.18,48.058 C13.376,47.989 13.556,47.878 13.72,47.723 C13.884,47.567 14.016,47.352 14.116,47.073 C14.216,46.795 14.267,46.451 14.267,46.041 C14.267,45.877 14.244,45.687 14.198,45.474 C14.152,45.26 14.059,45.055 13.918,44.858 C13.776,44.662 13.578,44.498 13.323,44.366 C13.068,44.234 12.731,44.168 12.312,44.168 L11.081,44.168 L11.081,44.168 Z" id="Fill-240" fill="#FFFFFF"></path>
                <path d="M19.353,53 L17.712,53 L17.712,42.924 L20.61,42.924 C21.039,42.924 21.462,42.992 21.882,43.129 C22.301,43.266 22.677,43.471 23.01,43.744 C23.342,44.018 23.611,44.348 23.816,44.735 C24.022,45.123 24.124,45.558 24.124,46.041 C24.124,46.552 24.037,47.014 23.864,47.429 C23.691,47.844 23.449,48.192 23.14,48.475 C22.83,48.757 22.456,48.976 22.019,49.131 C21.581,49.286 21.098,49.363 20.569,49.363 L19.353,49.363 L19.353,53 L19.353,53 Z M19.353,44.168 L19.353,48.16 L20.856,48.16 C21.057,48.16 21.255,48.126 21.451,48.058 C21.647,47.989 21.827,47.878 21.991,47.723 C22.155,47.567 22.287,47.352 22.388,47.073 C22.488,46.795 22.538,46.451 22.538,46.041 C22.538,45.877 22.515,45.687 22.47,45.474 C22.424,45.26 22.331,45.055 22.19,44.858 C22.048,44.662 21.85,44.498 21.595,44.366 C21.339,44.234 21.002,44.168 20.583,44.168 L19.353,44.168 L19.353,44.168 Z" id="Fill-241" fill="#FFFFFF"></path>
                <polyline id="Fill-242" fill="#FFFFFF" points="33.106 42.924 33.106 44.045 30.099 44.045 30.099 53 28.444 53 28.444 44.045 25.437 44.045 25.437 42.924 33.106 42.924"></polyline>
                <path d="M9,14 L33,14 L33,30 L9,30 L9,14 Z M11,28 L31,28 L31,16 L11,16 L11,28 Z" id="Fill-264" fill="#C8BDB8"></path>
                <path d="M13.999,35 C13.824,35 13.647,34.954 13.485,34.857 C13.012,34.573 12.858,33.959 13.143,33.485 L16.143,28.485 C16.427,28.012 17.041,27.858 17.515,28.143 C17.988,28.427 18.142,29.041 17.857,29.515 L14.857,34.515 C14.67,34.827 14.339,35 13.999,35" id="Fill-265" fill="#C8BDB8"></path>
                <path d="M28.001,35 C27.661,35 27.33,34.827 27.143,34.515 L24.143,29.515 C23.858,29.041 24.012,28.427 24.485,28.143 C24.959,27.859 25.573,28.012 25.857,28.485 L28.857,33.485 C29.142,33.959 28.988,34.573 28.515,34.857 C28.354,34.954 28.176,35 28.001,35" id="Fill-266" fill="#C8BDB8"></path>
                <path d="M21,16 C20.448,16 20,15.553 20,15 L20,12 C20,11.447 20.448,11 21,11 C21.552,11 22,11.447 22,12 L22,15 C22,15.553 21.552,16 21,16" id="Fill-267" fill="#C8BDB8"></path>
                <polygon id="Fill-301" fill="#D3CCC9" points="11 16 31 16 31 28 11 28"></polygon>
            </g>
        </g>
    </g>
</svg>