<?xml version="1.0" encoding="UTF-8" standalone="no"?>
<svg width="43px" height="56px" viewBox="0 0 43 56" version="1.1" xmlns="http://www.w3.org/2000/svg" xmlns:xlink="http://www.w3.org/1999/xlink">
    <!-- Generator: Sketch 39.1 (31720) - http://www.bohemiancoding.com/sketch -->
    <title>file-rtf</title>
    <desc>Created with Sketch.</desc>
    <defs></defs>
    <g id="Symbols" stroke="none" stroke-width="1" fill="none" fill-rule="evenodd">
        <g id="RTF-File">
            <g id="file-rtf">
                <path d="M30.485,0 L1.463,0 C0.655,0 0,0.655 0,1.926 L0,55 C0,55.345 0.655,56 1.463,56 L41.537,56 C42.345,56 43,55.345 43,55 L43,12.978 C43,12.282 42.907,12.058 42.743,11.893 L31.107,0.257 C30.942,0.093 30.718,0 30.485,0" id="Fill-82" fill="#E9E9E0"></path>
                <polyline id="Fill-83" fill="#D9D7CA" points="31 0.151 31 12 42.849 12 31 0.151"></polyline>
                <path d="M41.537,56 L1.463,56 C0.655,56 0,55.345 0,54.537 L0,39 L43,39 L43,54.537 C43,55.345 42.345,56 41.537,56" id="Fill-183" fill="#90BAE1"></path>
                <path d="M14.33,53 L12.43,49.35 C12.402,49.35 12.365,49.352 12.32,49.356 C12.274,49.361 12.204,49.363 12.109,49.363 L11.671,49.363 L10.871,49.363 L10.871,53 L9.23,53 L9.23,42.924 L12.129,42.924 C12.557,42.924 12.98,42.992 13.401,43.129 C13.819,43.266 14.195,43.471 14.528,43.744 C14.861,44.018 15.13,44.348 15.335,44.735 C15.54,45.123 15.643,45.558 15.643,46.041 C15.643,46.771 15.474,47.39 15.137,47.9 C14.799,48.411 14.344,48.789 13.77,49.035 L16.067,53 L14.33,53 L14.33,53 Z M10.871,48.16 L12.361,48.16 C12.562,48.16 12.762,48.126 12.963,48.058 C13.163,47.989 13.346,47.878 13.51,47.723 C13.674,47.567 13.806,47.352 13.906,47.073 C14.006,46.795 14.057,46.451 14.057,46.041 C14.057,45.877 14.033,45.687 13.988,45.474 C13.943,45.26 13.85,45.055 13.708,44.858 C13.566,44.662 13.368,44.498 13.113,44.366 C12.857,44.234 12.521,44.168 12.102,44.168 L10.871,44.168 L10.871,48.16 L10.871,48.16 Z" id="Fill-184" fill="#FFFFFF"></path>
                <polyline id="Fill-185" fill="#FFFFFF" points="25.391 42.924 25.391 44.045 22.383 44.045 22.383 53 20.729 53 20.729 44.045 17.721 44.045 17.721 42.924 25.391 42.924"></polyline>
                <polyline id="Fill-186" fill="#FFFFFF" points="29.055 44.168 29.055 47.34 33.266 47.34 33.266 48.461 29.055 48.461 29.055 53 27.387 53 27.387 42.924 33.69 42.924 33.69 44.168 29.055 44.168"></polyline>
                <path d="M6,13 L12,13 C12.553,13 13,12.552 13,12 C13,11.448 12.553,11 12,11 L6,11 C5.447,11 5,11.448 5,12 C5,12.552 5.447,13 6,13" id="Fill-203" fill="#C8BDB8"></path>
                <path d="M6,18 L15,18 C15.553,18 16,17.552 16,17 C16,16.448 15.553,16 15,16 L6,16 C5.447,16 5,16.448 5,17 C5,17.552 5.447,18 6,18" id="Fill-204" fill="#C8BDB8"></path>
                <path d="M19,18 C19.26,18 19.52,17.89 19.71,17.71 C19.89,17.52 20,17.26 20,17 C20,16.74 19.89,16.48 19.71,16.29 C19.33,15.92 18.67,15.92 18.29,16.29 C18.109,16.48 18,16.73 18,17 C18,17.27 18.109,17.52 18.29,17.71 C18.479,17.89 18.74,18 19,18" id="Fill-205" fill="#C8BDB8"></path>
                <path d="M23,18 L31,18 C31.553,18 32,17.552 32,17 C32,16.448 31.553,16 31,16 L23,16 C22.447,16 22,16.448 22,17 C22,17.552 22.447,18 23,18" id="Fill-206" fill="#C8BDB8"></path>
                <path d="M5.29,31.29 C5.109,31.48 5,31.73 5,32 C5,32.27 5.109,32.52 5.29,32.71 C5.48,32.89 5.729,33 6,33 C6.27,33 6.52,32.89 6.71,32.71 C6.89,32.52 7,32.26 7,32 C7,31.74 6.89,31.48 6.71,31.29 C6.34,30.92 5.66,30.92 5.29,31.29" id="Fill-207" fill="#C8BDB8"></path>
                <path d="M18,31 L10,31 C9.447,31 9,31.448 9,32 C9,32.552 9.447,33 10,33 L18,33 C18.553,33 19,32.552 19,32 C19,31.448 18.553,31 18,31" id="Fill-208" fill="#C8BDB8"></path>
                <path d="M35,18 L37,18 C37.553,18 38,17.552 38,17 C38,16.448 37.553,16 37,16 L35,16 C34.447,16 34,16.448 34,17 C34,17.552 34.447,18 35,18" id="Fill-209" fill="#C8BDB8"></path>
                <path d="M6,23 L28,23 C28.553,23 29,22.552 29,22 C29,21.448 28.553,21 28,21 L6,21 C5.447,21 5,21.448 5,22 C5,22.552 5.447,23 6,23" id="Fill-210" fill="#C8BDB8"></path>
                <path d="M37,21 L31,21 C30.447,21 30,21.448 30,22 C30,22.552 30.447,23 31,23 L37,23 C37.553,23 38,22.552 38,22 C38,21.448 37.553,21 37,21" id="Fill-211" fill="#C8BDB8"></path>
                <path d="M6,28 L10,28 C10.553,28 11,27.552 11,27 C11,26.448 10.553,26 10,26 L6,26 C5.447,26 5,26.448 5,27 C5,27.552 5.447,28 6,28" id="Fill-212" fill="#C8BDB8"></path>
                <path d="M24,26 L14,26 C13.447,26 13,26.448 13,27 C13,27.552 13.447,28 14,28 L24,28 C24.553,28 25,27.552 25,27 C25,26.448 24.553,26 24,26" id="Fill-213" fill="#C8BDB8"></path>
                <path d="M37,26 L28,26 C27.447,26 27,26.448 27,27 C27,27.552 27.447,28 28,28 L37,28 C37.553,28 38,27.552 38,27 C38,26.448 37.553,26 37,26" id="Fill-214" fill="#C8BDB8"></path>
            </g>
        </g>
    </g>
</svg>