<?xml version="1.0" encoding="UTF-8" standalone="no"?>
<svg width="43px" height="56px" viewBox="0 0 43 56" version="1.1" xmlns="http://www.w3.org/2000/svg" xmlns:xlink="http://www.w3.org/1999/xlink">
    <!-- Generator: Sketch 39.1 (31720) - http://www.bohemiancoding.com/sketch -->
    <title>file-mp4</title>
    <desc>Created with Sketch.</desc>
    <defs></defs>
    <g id="Symbols" stroke="none" stroke-width="1" fill="none" fill-rule="evenodd">
        <g id="MP4-File">
            <g id="file-mp4">
                <path d="M30.485,0 L1.463,0 C0.655,0 0,0.655 0,1.926 L0,55 C0,55.345 0.655,56 1.463,56 L41.537,56 C42.345,56 43,55.345 43,55 L43,12.978 C43,12.282 42.907,12.058 42.743,11.893 L31.107,0.257 C30.942,0.093 30.718,0 30.485,0" id="Fill-7" fill="#E9E9E0"></path>
                <path d="M41.537,56 L1.463,56 C0.655,56 0,55.345 0,54.537 L0,39 L43,39 L43,54.537 C43,55.345 42.345,56 41.537,56" id="Fill-231" fill="#FF5364"></path>
                <polyline id="Fill-232" fill="#FFFFFF" points="15.9 42.924 17.568 42.924 17.568 53 15.9 53 15.9 46.068 13.645 51.674 12.195 51.674 9.926 46.068 9.926 53 8.258 53 8.258 42.924 9.926 42.924 12.92 49.815 15.9 42.924"></polyline>
                <path d="M21.711,53 L20.07,53 L20.07,42.924 L22.969,42.924 C23.397,42.924 23.821,42.992 24.24,43.129 C24.659,43.266 25.035,43.471 25.368,43.744 C25.701,44.018 25.97,44.348 26.175,44.735 C26.38,45.123 26.482,45.558 26.482,46.041 C26.482,46.552 26.396,47.014 26.223,47.429 C26.049,47.844 25.808,48.192 25.498,48.475 C25.188,48.757 24.815,48.976 24.377,49.131 C23.94,49.286 23.456,49.363 22.928,49.363 L21.711,49.363 L21.711,53 L21.711,53 Z M21.711,44.168 L21.711,48.16 L23.215,48.16 C23.415,48.16 23.613,48.126 23.81,48.058 C24.005,47.989 24.186,47.878 24.35,47.723 C24.514,47.567 24.646,47.352 24.746,47.073 C24.846,46.795 24.897,46.451 24.897,46.041 C24.897,45.877 24.874,45.687 24.828,45.474 C24.782,45.26 24.689,45.055 24.548,44.858 C24.406,44.662 24.208,44.498 23.953,44.366 C23.698,44.234 23.36,44.168 22.941,44.168 L21.711,44.168 L21.711,44.168 Z" id="Fill-233" fill="#FFFFFF"></path>
                <path d="M31.979,50.648 L27.617,50.648 L27.617,49.35 L31.979,42.924 L33.647,42.924 L33.647,49.35 L34.699,49.35 L34.699,50.648 L33.647,50.648 L33.647,53 L31.979,53 L31.979,50.648 L31.979,50.648 Z M31.979,49.35 L31.979,44.838 L29.08,49.35 L31.979,49.35 L31.979,49.35 Z" id="Fill-234" fill="#FFFFFF"></path>
                <path d="M18,28 C17.835,28 17.669,27.959 17.519,27.877 C17.199,27.701 17,27.365 17,27 L17,13 C17,12.635 17.199,12.299 17.519,12.123 C17.839,11.948 18.229,11.961 18.537,12.156 L29.537,19.156 C29.825,19.34 30,19.658 30,20 C30,20.342 29.825,20.66 29.537,20.844 L18.537,27.844 C18.374,27.947 18.187,28 18,28 L18,28 Z M19,14.821 L19,25.179 L27.137,20 L19,14.821 L19,14.821 Z" id="Fill-249" fill="#C8BDB8"></path>
                <path d="M22,35 C13.729,35 7,28.271 7,20 C7,11.729 13.729,5 22,5 C30.271,5 37,11.729 37,20 C37,28.271 30.271,35 22,35 L22,35 Z M22,7 C14.832,7 9,12.832 9,20 C9,27.168 14.832,33 22,33 C29.169,33 35,27.168 35,20 C35,12.832 29.169,7 22,7 L22,7 Z" id="Fill-302" fill="#C8BDB8"></path>
                <polyline id="Fill-303" fill="#D9D7CA" points="31 0.151 31 12 42.849 12 31 0.151"></polyline>
            </g>
        </g>
    </g>
</svg>