<?xml version="1.0" encoding="UTF-8" standalone="no"?>
<svg width="58px" height="58px" viewBox="0 0 58 58" version="1.1" xmlns="http://www.w3.org/2000/svg" xmlns:xlink="http://www.w3.org/1999/xlink">
    <!-- Generator: Sketch 40.1 (33804) - http://www.bohemiancoding.com/sketch -->
    <title>155 - Location Pin (interaction, communication, essential, flat)</title>
    <desc>Created with Sketch.</desc>
    <defs></defs>
    <g id="Page-1" stroke="none" stroke-width="1" fill="none" fill-rule="evenodd">
        <g id="Icons" transform="translate(-721.000000, -2998.000000)">
            <g id="Location-Pin" transform="translate(721.000000, 2997.000000)">
                <polyline id="Fill-211" fill="#F0CE49" points="48 38 39.563 38 29.177 53 18.79 38 10 38 0 59 58 59 48 38"></polyline>
                <path d="M42.03,6.324 L42.03,6.324 C34.931,-0.775 23.422,-0.775 16.324,6.324 C9.928,12.72 9.208,24.764 14.635,32 L29.177,53 L43.718,32 C49.145,24.764 48.426,12.72 42.03,6.324 L42.03,6.324 Z M29.354,25 C26.04,25 23.354,22.314 23.354,19 C23.354,15.687 26.04,13 29.354,13 C32.667,13 35.354,15.687 35.354,19 C35.354,22.314 32.667,25 29.354,25 L29.354,25 Z" id="Fill-1949" fill="#9777A8"></path>
            </g>
        </g>
    </g>
</svg>