<svg xmlns="http://www.w3.org/2000/svg" viewBox="1860 1791 31.386 40.27">
  <defs>
    <style>
      .cls-1 {
        fill: none;
        stroke: #95989a;
        stroke-width: 2px;
      }

      .cls-1, .cls-2 {
        fill-rule: evenodd;
      }

      .cls-2 {
        fill: #95989a;
      }
    </style>
  </defs>
  <g id="PDF-File" transform="translate(1861 1792)">
    <path id="Stroke-39" class="cls-1" d="M28.386,38.27H1a1,1,0,0,1-1-1V26.652H29.386V37.27a1,1,0,0,1-1,1ZM20.833,0H1C.448,0,0,.448,0,1.316v36.27a1.029,1.029,0,0,0,1,.683H28.386a1.029,1.029,0,0,0,1-.683V8.869c0-.476-.064-.629-.176-.741L21.258.176A.6.6,0,0,0,20.833,0Zm.352.951V8.2h7.25a.351.351,0,0,0,.248-.6L21.784.7a.351.351,0,0,0-.6.248Z"/>
    <path id="Fill-40" class="cls-2" d="M10.365,49.81H9.244V42.924h1.981a2.78,2.78,0,0,1,.869.14,2.362,2.362,0,0,1,.771.42,2.213,2.213,0,0,1,.551.677,1.88,1.88,0,0,1,.21.893,2.441,2.441,0,0,1-.178.949,2,2,0,0,1-.495.715,2.232,2.232,0,0,1-.766.448,2.951,2.951,0,0,1-.99.159h-.832V49.81Zm0-6.036V46.5h1.028a1.231,1.231,0,0,0,.406-.07,1.034,1.034,0,0,0,.369-.229,1.131,1.131,0,0,0,.271-.444,2.1,2.1,0,0,0,.1-.705,1.913,1.913,0,0,0-.046-.387,1.1,1.1,0,0,0-.6-.757,1.511,1.511,0,0,0-.692-.135Z" transform="translate(-2.927 -13.59)"/>
    <path id="Fill-41" class="cls-2" d="M23.143,46.176a5.059,5.059,0,0,1-.182,1.453,3.6,3.6,0,0,1-.463,1.009,2.367,2.367,0,0,1-.631.64,3.143,3.143,0,0,1-.677.35,2.758,2.758,0,0,1-.6.15,3.692,3.692,0,0,1-.4.033H17.584V42.924h2.074a3.941,3.941,0,0,1,1.527.275,3.174,3.174,0,0,1,1.093.733,3.013,3.013,0,0,1,.649,1.042,3.442,3.442,0,0,1,.215,1.2Zm-3.326,2.812a1.857,1.857,0,0,0,1.644-.729,3.7,3.7,0,0,0,.5-2.111,3.577,3.577,0,0,0-.1-.85,1.817,1.817,0,0,0-.4-.762,2.1,2.1,0,0,0-.8-.551,3.445,3.445,0,0,0-1.308-.21h-.654v5.214Z" transform="translate(-5.567 -13.59)"/>
    <path id="Fill-42" class="cls-2" d="M29.238,43.774v2.168h2.878v.766H29.238v3.1H28.1V42.924H32.4v.85H29.238" transform="translate(-8.896 -13.59)"/>
    <path id="Fill-43" class="cls-2" d="M12.35,24.96h0a1.1,1.1,0,0,1-.661-.223,1.639,1.639,0,0,1-.762-1.533c.124-1.112,1.5-2.277,4.09-3.463a45.873,45.873,0,0,0,2.589-7.346c-.682-1.485-1.344-3.41-.862-4.54a1.314,1.314,0,0,1,.775-.83,3.355,3.355,0,0,1,.694-.118c.344,0,.647.444.862.717.2.258.659.8-.255,4.649A21.826,21.826,0,0,0,22.3,17.439a13.3,13.3,0,0,1,2.295-.245c1.07,0,1.719.25,1.983.763a1.382,1.382,0,0,1-.267,1.476,1.815,1.815,0,0,1-1.517.814,4.546,4.546,0,0,1-2.878-1.562,32.745,32.745,0,0,0-6.033,1.929,19.39,19.39,0,0,1-1.629,2.905c-.7.982-1.3,1.44-1.9,1.44Zm1.819-3.5c-1.461.821-2.056,1.5-2.1,1.875-.007.063-.025.228.295.473.1-.032.7-.3,1.8-2.348Zm9.319-3.036c.557.428.693.645,1.057.645a1.03,1.03,0,0,0,.827-.3,1.061,1.061,0,0,0,.156-.283c-.083-.045-.2-.135-.8-.135a9.717,9.717,0,0,0-1.238.074Zm-5.1-4.5a49.026,49.026,0,0,1-1.827,5.169A34.113,34.113,0,0,1,21,17.712a23.393,23.393,0,0,1-2.612-3.789ZM17.969,8.14a1.639,1.639,0,0,0,.066,2.2c.649-1.445-.036-2.207-.066-2.2Z" transform="translate(-3.457 -2.187)"/>
  </g>
</svg>
