<svg xmlns="http://www.w3.org/2000/svg" width="24" height="24" viewBox="0 0 24 24">
  <g fill="#000000">
    <path d="M23.5754754 11.0022295C23.176918 5.15370492 18.4658361.442229508 12.616918.0432786885L12.1967213.0149508197 12.1967213 11.4224262 23.6041967 11.4224262 23.5754754 11.0022295zM12.9836066 10.635541L12.9836066.865180328C13.957377.969442623 14.893377 1.20314754 15.7758689 1.54662295 15.7742951 1.56039344 15.768 1.57219672 15.768 1.58636066 15.768 1.80354098 15.9442623 1.97980328 16.1614426 1.97980328 16.2798689 1.97980328 16.3825574 1.92472131 16.4549508 1.84209836 18.397377 2.75370492 20.0309508 4.21652459 21.157377 6.02714754 21.0865574 5.9575082 20.9897705 5.91422951 20.8827541 5.91422951 20.6655738 5.91422951 20.4893115 6.0904918 20.4893115 6.30767213 20.4893115 6.52485246 20.6655738 6.70111475 20.8827541 6.70111475 21.0999344 6.70111475 21.2761967 6.52485246 21.2761967 6.30767213 21.2761967 6.25691803 21.2647869 6.20931148 21.2474754 6.16485246 21.448918 6.49927869 21.6287213 6.84747541 21.7943607 7.20354098 21.7184262 7.27514754 21.6696393 7.37547541 21.6696393 7.488 21.6696393 7.70518033 21.8459016 7.88144262 22.063082 7.88144262 22.0713443 7.88144262 22.0784262 7.87711475 22.087082 7.87672131 22.4234754 8.74937705 22.6512787 9.67436066 22.7543607 10.635541L12.9836066 10.635541zM12.3218361 12.2093115L20.2288525 20.1163279 20.506623 19.8149508C22.323541 17.8445902 23.424 15.2927213 23.605377 12.6295082L23.6340984 12.2093115 12.3218361 12.2093115 12.3218361 12.2093115zM20.2005246 18.9753443L14.221377 12.9961967 22.7834754 12.9961967C22.5474098 15.1931803 21.6420984 17.2886557 20.2005246 18.9753443z"/>
    <circle cx="13.8" cy="1.586" r="1"/>
    <circle cx="13.8" cy="3.947" r="1"/>
    <circle cx="14.981" cy="2.767" r="1"/>
    <circle cx="17.341" cy="2.767" r="1"/>
    <circle cx="16.161" cy="3.947" r="1"/>
    <circle cx="18.522" cy="3.947" r="1"/>
    <circle cx="19.702" cy="5.127" r="1"/>
    <circle cx="14.981" cy="5.127" r="1"/>
    <circle cx="17.341" cy="5.127" r="1"/>
    <circle cx="19.702" cy="7.488" r="1"/>
    <circle cx="20.882" cy="8.668" r="1"/>
    <circle cx="13.8" cy="6.308" r="1"/>
    <circle cx="13.8" cy="8.668" r="1"/>
    <circle cx="14.981" cy="7.488" r="1"/>
    <circle cx="17.341" cy="7.488" r="1"/>
    <circle cx="16.161" cy="6.308" r="1"/>
    <circle cx="18.522" cy="6.308" r="1"/>
    <circle cx="16.161" cy="8.668" r="1"/>
    <circle cx="18.522" cy="8.668" r="1"/>
    <circle cx="22.063" cy="9.849" r="1"/>
    <circle cx="19.702" cy="9.849" r="1"/>
    <circle cx="14.981" cy="9.849" r="1"/>
    <circle cx="17.341" cy="9.849" r="1"/>
    <path d="M11.4098361.0149508197L10.9896393.0432786885C4.82714754.463868852 0 5.6344918 0 11.8158689 0 14.664 1.03121311 17.4157377 2.90360656 19.5647213L3.18059016 19.882623 11.4098361 11.6529836 11.4098361.0149508197zM10.6229508 11.3272131L3.22583607 18.7243279C1.65009836 16.7697049.786885246 14.3331148.786885246 11.8158689.786885246 6.18845902 5.07383607 1.45770492 10.6229508.865180328L10.6229508 11.3272131zM3.73691803 20.4385574L4.05481967 20.715541C6.20340984 22.5879344 8.95554098 23.6191475 11.8032787 23.6191475 14.5286557 23.6191475 17.1883279 22.6650492 19.2932459 20.9335082L19.6280656 20.6580984 11.5727213 12.6027541 3.73691803 20.4385574zM11.5727213 13.7154098L12.0059016 14.1485902 5.39291803 20.7611803C5.22531148 20.6407869 5.05613115 20.523541 4.89481967 20.3937049L11.5727213 13.7154098zM8.34019672 22.2657049C8.0667541 22.1748197 7.79763934 22.0725246 7.53245902 21.9603934L13.6752787 15.8175738 14.2316066 16.3739016 8.34019672 22.2657049zM14.7879344 16.930623L15.3442623 17.4869508 10.1335082 22.6980984C9.82072131 22.6500984 9.51068852 22.5891148 9.20419672 22.5143607L14.7879344 16.930623zM6.77468852 21.6055082C6.53232787 21.4811803 6.29547541 21.3470164 6.06255738 21.2045902L12.5622295 14.704918 13.1189508 15.2616393 6.77468852 21.6055082zM11.1403279 22.8039344L15.9005902 18.0432787 16.456918 18.5996066 12.2427541 22.8141639C12.0963934 22.8200656 11.9504262 22.8322623 11.8032787 22.8322623 11.581377 22.8322623 11.3610492 22.8173115 11.1403279 22.8039344zM17.0132459 19.1563279L17.5699672 19.7130492 14.9091148 22.3739016C14.4369836 22.5131803 13.957377 22.6253115 13.4695082 22.700459L17.0132459 19.1563279zM16.744918 21.6507541L18.1266885 20.2689836 18.452459 20.5947541C17.9158033 21.0019672 17.3417705 21.3505574 16.744918 21.6507541z"/>
  </g>
</svg>
