<?xml version="1.0" encoding="UTF-8" standalone="no"?>
<svg width="50px" height="59px" viewBox="0 0 50 59" version="1.1" xmlns="http://www.w3.org/2000/svg" xmlns:xlink="http://www.w3.org/1999/xlink">
    <!-- Generator: Sketch 40.1 (33804) - http://www.bohemiancoding.com/sketch -->
    <title>113 -Timer- (badge, army, military, war, soldier, flat)</title>
    <desc>Created with Sketch.</desc>
    <defs></defs>
    <g id="Page-1" stroke="none" stroke-width="1" fill="none" fill-rule="evenodd">
        <g id="Badges-&amp;-Army---Flat" transform="translate(-365.000000, -1723.000000)">
            <g id="113--Timer--(badge,-army,-military,-war,-soldier,-flat)" transform="translate(365.000000, 1723.000000)">
                <path d="M50,33.03 C50,19.223 38.807,8.03 25,8.03 C11.193,8.03 0,19.223 0,33.03 C0,46.837 11.193,58.03 25,58.03 C38.807,58.03 50,46.837 50,33.03" id="Fill-959" fill="#E8EDEE"></path>
                <polygon id="Fill-960" fill="#E8EDEE" points="20 4.03 30 4.03 30 0.03 20 0.03"></polygon>
                <path d="M25,8.03 C25.674,8.03 26.339,8.064 27,8.117 L27,4.03 L23,4.03 L23,8.117 C23.661,8.064 24.326,8.03 25,8.03" id="Fill-961" fill="#C7CBC7"></path>
                <path d="M7.3223,9.6955 L1.6653,15.3525 L0.8843,14.5715 C-0.2457,13.4405 -0.2457,11.6075 0.8843,10.4765 L2.4463,8.9145 C3.5773,7.7835 5.4103,7.7835 6.5413,8.9145 L7.3223,9.6955 Z" id="Fill-962" fill="#E8EDEE"></path>
                <path d="M7.3223,15.3523 C7.7993,14.8753 8.2933,14.4293 8.7983,13.9993 L5.9083,11.1093 L3.0793,13.9383 L5.9693,16.8283 C6.3993,16.3233 6.8453,15.8293 7.3223,15.3523" id="Fill-963" fill="#C7CBC7"></path>
                <path d="M48.3345,15.3523 L42.6775,9.6953 L43.4355,8.9373 C44.5795,7.7943 46.4325,7.7943 47.5765,8.9373 L49.0925,10.4533 C50.2365,11.5973 50.2365,13.4503 49.0925,14.5943 L48.3345,15.3523 Z" id="Fill-964" fill="#E8EDEE"></path>
                <path d="M42.6777,15.3523 C43.1547,15.8293 43.6007,16.3233 44.0307,16.8283 L46.9207,13.9383 L44.0917,11.1093 L41.2017,13.9993 C41.7067,14.4293 42.2007,14.8753 42.6777,15.3523" id="Fill-965" fill="#C7CBC7"></path>
                <path d="M25,31.03 C23.897,31.03 23,31.927 23,33.03 C23,34.133 23.897,35.03 25,35.03 C26.103,35.03 27,34.133 27,33.03 C27,31.927 26.103,31.03 25,31.03 M25,37.03 C22.794,37.03 21,35.236 21,33.03 C21,30.824 22.794,29.03 25,29.03 C27.206,29.03 29,30.824 29,33.03 C29,35.236 27.206,37.03 25,37.03" id="Fill-966" fill="#546A79"></path>
                <path d="M25,31.03 C24.448,31.03 24,30.583 24,30.03 L24,16.03 C24,15.477 24.448,15.03 25,15.03 C25.552,15.03 26,15.477 26,16.03 L26,30.03 C26,30.583 25.552,31.03 25,31.03" id="Fill-967" fill="#546A79"></path>
                <path d="M0.0253,34.03 L3.0003,34.03 C3.5523,34.03 4.0003,33.583 4.0003,33.03 C4.0003,32.477 3.5523,32.03 3.0003,32.03 L0.0253,32.03 C0.0123,32.362 0.0003,32.695 0.0003,33.03 C0.0003,33.365 0.0123,33.698 0.0253,34.03" id="Fill-1341" fill="#C7CBC7"></path>
                <path d="M9.293,47.323 L6.632,49.984 C7.085,50.474 7.556,50.945 8.046,51.398 L10.707,48.737 C11.098,48.346 11.098,47.714 10.707,47.323 C10.316,46.932 9.684,46.932 9.293,47.323" id="Fill-1342" fill="#C7CBC7"></path>
                <path d="M25,54.03 C24.448,54.03 24,54.477 24,55.03 L24,58.005 C24.332,58.018 24.665,58.03 25,58.03 C25.335,58.03 25.668,58.018 26,58.005 L26,55.03 C26,54.477 25.552,54.03 25,54.03" id="Fill-1343" fill="#C7CBC7"></path>
                <path d="M43.3679,49.9839 L40.7069,47.3229 C40.3169,46.9319 39.6839,46.9319 39.2929,47.3229 C38.9019,47.7139 38.9019,48.3469 39.2929,48.7369 L41.9539,51.3979 C42.4439,50.9459 42.9159,50.4739 43.3679,49.9839" id="Fill-1344" fill="#C7CBC7"></path>
                <path d="M49.9747,32.03 L46.9997,32.03 C46.4477,32.03 45.9997,32.477 45.9997,33.03 C45.9997,33.583 46.4477,34.03 46.9997,34.03 L49.9747,34.03 C49.9877,33.698 49.9997,33.365 49.9997,33.03 C49.9997,32.695 49.9877,32.362 49.9747,32.03" id="Fill-1345" fill="#C7CBC7"></path>
                <path d="M41.9538,14.6621 L39.2928,17.3231 C38.9028,17.7141 38.9028,18.3461 39.2928,18.7371 C39.4878,18.9321 39.7438,19.0301 39.9998,19.0301 C40.2558,19.0301 40.5118,18.9321 40.7068,18.7371 L43.3678,16.0761 C42.9158,15.5861 42.4438,15.1151 41.9538,14.6621" id="Fill-1346" fill="#C7CBC7"></path>
                <path d="M25,8.03 C24.665,8.03 24.332,8.042 24,8.055 L24,11.03 C24,11.583 24.448,12.03 25,12.03 C25.552,12.03 26,11.583 26,11.03 L26,8.055 C25.668,8.042 25.335,8.03 25,8.03" id="Fill-1347" fill="#C7CBC7"></path>
                <path d="M6.6321,16.0761 L9.2931,18.7371 C9.4881,18.9321 9.7441,19.0301 10.0001,19.0301 C10.2561,19.0301 10.5121,18.9321 10.7071,18.7371 C11.0981,18.3461 11.0981,17.7131 10.7071,17.3231 L8.0461,14.6621 C7.5561,15.1141 7.0841,15.5861 6.6321,16.0761" id="Fill-1348" fill="#C7CBC7"></path>
            </g>
        </g>
    </g>
</svg>