<svg xmlns="http://www.w3.org/2000/svg" width="46" height="33" viewBox="0 0 46 33">
  <defs>
    <linearGradient id="a" x1="50%" x2="50%" y1="0%" y2="100%">
      <stop stop-color="#E52D27" offset="0%"/>
      <stop stop-color="#BF171D" offset="100%"/>
    </linearGradient>
  </defs>
  <g fill="none">
    <polygon fill="#FFFFFF" points="18.256 22.123 30.667 15.693 18.256 9.218"/>
    <polygon fill="#420000" points="18.256 9.218 29.138 16.484 30.667 15.693" opacity=".12"/>
    <path fill="url(#a)" d="M45.5053763,6.98318671 C45.5053763,6.98318671 45.0557185,3.81759531 43.6797654,2.42365591 C41.9350929,0.593548387 39.9745846,0.58455523 39.0797654,0.476637341 C32.6496579,0.0134897361 23.0089932,0.0134897361 23.0089932,0.0134897361 L22.9910068,0.0134897361 C22.9910068,0.0134897361 13.3503421,0.0134897361 6.9202346,0.476637341 C6.02541544,0.58455523 4.06490714,0.593548387 2.3202346,2.42365591 C0.944281525,3.81759531 0.494623656,6.98318671 0.494623656,6.98318671 C0.494623656,6.98318671 0.0359726295,10.6973607 0.0359726295,14.4160313 L0.0359726295,17.9008798 C0.0359726295,21.6195503 0.494623656,25.3337243 0.494623656,25.3337243 C0.494623656,25.3337243 0.944281525,28.4993157 2.3202346,29.8932551 C4.06940371,31.7233627 6.36265885,31.6649071 7.38338221,31.85826 C11.057087,32.2089932 23,32.3214076 23,32.3214076 C23,32.3214076 32.6496579,32.3079179 39.0797654,31.8402737 C39.9790811,31.7323558 41.9350929,31.7233627 43.6797654,29.8932551 C45.0557185,28.4993157 45.5053763,25.3337243 45.5053763,25.3337243 C45.5053763,25.3337243 45.9640274,21.6150538 45.9640274,17.9008798 L45.9640274,14.4160313 C45.9640274,10.6973607 45.5053763,6.98318671 45.5053763,6.98318671 Z M18.2561095,22.1231672 L18.2561095,9.21798631 L30.6666667,15.6930596 L18.2561095,22.1231672 Z"/>
  </g>
</svg>
