<svg xmlns="http://www.w3.org/2000/svg" viewBox="2270 1791 52.438 40.27">
  <defs>
    <style>
      .cls-1 {
        fill: none;
        stroke: #95989a;
        stroke-linecap: round;
        stroke-linejoin: round;
        stroke-width: 2px;
        fill-rule: evenodd;
      }
    </style>
  </defs>
  <g id="Youtube--file" transform="translate(2271 1792)">
    <path id="Stroke-31" class="cls-1" d="M49.934,8.3s-.492-3.747-2-5.4a6.925,6.925,0,0,0-5.053-2.3C35.817.055,25.23,0,25.23,0h-.023S14.619.055,7.562.607a6.928,6.928,0,0,0-5.053,2.3C1,4.554.5,8.3.5,8.3S0,12.7,0,17.094v4.121c0,4.4.5,8.794.5,8.794s.492,3.745,2,5.392c1.92,2.162,4.438,2.1,5.561,2.323,4.035.417,17.149.546,17.149.546s10.6-.019,17.657-.565a6.952,6.952,0,0,0,5.053-2.3c1.511-1.646,2-5.392,2-5.392s.5-4.4.5-8.794V17.1c0-4.4-.5-8.794-.5-8.794Z" transform="translate(0)"/>
    <path id="Stroke-33" class="cls-1" d="M22,11.877V30.8l16.526-9.246Z" transform="translate(-2.865 -1.547)"/>
  </g>
</svg>
