<?xml version="1.0" encoding="UTF-8" standalone="no"?>
<svg width="56px" height="58px" viewBox="0 0 56 58" version="1.1" xmlns="http://www.w3.org/2000/svg" xmlns:xlink="http://www.w3.org/1999/xlink">
    <!-- Generator: Sketch 40.1 (33804) - http://www.bohemiancoding.com/sketch -->
    <title>24 -City- (house, home, property, real, estate, flat)</title>
    <desc>Created with Sketch.</desc>
    <defs></defs>
    <g id="Page-1" stroke="none" stroke-width="1" fill="none" fill-rule="evenodd">
        <g id="Icons" transform="translate(-481.000000, -608.000000)">
            <g id="24--City--(house,-home,-property,-real,-estate,-flat)" transform="translate(481.000000, 608.000000)">
                <path d="M39,25 C38.448,25 38,24.552 38,24 L38,22 C38,21.448 38.448,21 39,21 C39.552,21 40,21.448 40,22 L40,24 C40,24.552 39.552,25 39,25" id="Fill-46" fill="#E6EEF3"></path>
                <polygon id="Fill-47" fill="#CAD3DB" points="28 7 28 0 16 0 16 7 12 7 12 34 20 34 20 28 32 28 32 7"></polygon>
                <polygon id="Fill-374" fill="#E6EEF3" points="0 58 20 58 20 34 0 34"></polygon>
                <polygon id="Fill-375" fill="#E6EEF3" points="20 58 44 58 44 28 20 28"></polygon>
                <polygon id="Fill-376" fill="#CAD3DB" points="2 34 8 34 8 30 2 30"></polygon>
                <polygon id="Fill-377" fill="#CAD3DB" points="12 58 20 58 20 38 12 38"></polygon>
                <path d="M24,56 C23.448,56 23,55.552 23,55 L23,32 C23,31.448 23.448,31 24,31 C24.552,31 25,31.448 25,32 L25,55 C25,55.552 24.552,56 24,56" id="Fill-378" fill="#CAD3DB"></path>
                <path d="M28,56 C27.448,56 27,55.552 27,55 L27,32 C27,31.448 27.448,31 28,31 C28.552,31 29,31.448 29,32 L29,55 C29,55.552 28.552,56 28,56" id="Fill-379" fill="#CAD3DB"></path>
                <path d="M32,56 C31.448,56 31,55.552 31,55 L31,32 C31,31.448 31.448,31 32,31 C32.552,31 33,31.448 33,32 L33,55 C33,55.552 32.552,56 32,56" id="Fill-380" fill="#CAD3DB"></path>
                <path d="M36,56 C35.448,56 35,55.552 35,55 L35,32 C35,31.448 35.448,31 36,31 C36.552,31 37,31.448 37,32 L37,55 C37,55.552 36.552,56 36,56" id="Fill-381" fill="#CAD3DB"></path>
                <path d="M40,56 C39.448,56 39,55.552 39,55 L39,32 C39,31.448 39.448,31 40,31 C40.552,31 41,31.448 41,32 L41,55 C41,55.552 40.552,56 40,56" id="Fill-382" fill="#CAD3DB"></path>
                <polygon id="Fill-383" fill="#CAD3DB" points="37 28 41 28 41 24 37 24"></polygon>
                <polygon id="Fill-384" fill="#CAD3DB" points="44 58 56 58 56 11 44 11"></polygon>
                <polygon id="Fill-385" fill="#E6EEF3" points="47 11 53 11 53 7 47 7"></polygon>
                <path d="M20,43 L16,43 C15.448,43 15,42.552 15,42 C15,41.448 15.448,41 16,41 L20,41 C20.552,41 21,41.448 21,42 C21,42.552 20.552,43 20,43" id="Fill-386" fill="#E6EEF3"></path>
                <path d="M20,47 L16,47 C15.448,47 15,46.552 15,46 C15,45.448 15.448,45 16,45 L20,45 C20.552,45 21,45.448 21,46 C21,46.552 20.552,47 20,47" id="Fill-387" fill="#E6EEF3"></path>
                <path d="M20,51 L16,51 C15.448,51 15,50.552 15,50 C15,49.448 15.448,49 16,49 L20,49 C20.552,49 21,49.448 21,50 C21,50.552 20.552,51 20,51" id="Fill-388" fill="#E6EEF3"></path>
                <path d="M20,55 L16,55 C15.448,55 15,54.552 15,54 C15,53.448 15.448,53 16,53 L20,53 C20.552,53 21,53.448 21,54 C21,54.552 20.552,55 20,55" id="Fill-389" fill="#E6EEF3"></path>
                <path d="M16,35 C15.448,35 15,34.552 15,34 L15,11 C15,10.448 15.448,10 16,10 C16.552,10 17,10.448 17,11 L17,34 C17,34.552 16.552,35 16,35" id="Fill-390" fill="#E6EEF3"></path>
                <path d="M20,26 C19.448,26 19,25.552 19,25 L19,11 C19,10.448 19.448,10 20,10 C20.552,10 21,10.448 21,11 L21,25 C21,25.552 20.552,26 20,26" id="Fill-391" fill="#E6EEF3"></path>
                <path d="M24,26 C23.448,26 23,25.552 23,25 L23,11 C23,10.448 23.448,10 24,10 C24.552,10 25,10.448 25,11 L25,25 C25,25.552 24.552,26 24,26" id="Fill-392" fill="#E6EEF3"></path>
                <path d="M28,26 C27.448,26 27,25.552 27,25 L27,11 C27,10.448 27.448,10 28,10 C28.552,10 29,10.448 29,11 L29,25 C29,25.552 28.552,26 28,26" id="Fill-393" fill="#E6EEF3"></path>
                <path d="M48,18.1948 C47.448,18.1948 47,17.7468 47,17.1948 L47,15.1948 C47,14.6428 47.448,14.1948 48,14.1948 C48.552,14.1948 49,14.6428 49,15.1948 L49,17.1948 C49,17.7468 48.552,18.1948 48,18.1948 M48,24.1948 C47.448,24.1948 47,23.7468 47,23.1948 L47,21.1948 C47,20.6428 47.448,20.1948 48,20.1948 C48.552,20.1948 49,20.6428 49,21.1948 L49,23.1948 C49,23.7468 48.552,24.1948 48,24.1948 M48,30.1948 C47.448,30.1948 47,29.7468 47,29.1948 L47,27.1948 C47,26.6428 47.448,26.1948 48,26.1948 C48.552,26.1948 49,26.6428 49,27.1948 L49,29.1948 C49,29.7468 48.552,30.1948 48,30.1948 M48,36.1948 C47.448,36.1948 47,35.7468 47,35.1948 L47,33.1948 C47,32.6428 47.448,32.1948 48,32.1948 C48.552,32.1948 49,32.6428 49,33.1948 L49,35.1948 C49,35.7468 48.552,36.1948 48,36.1948 M48,42.1948 C47.448,42.1948 47,41.7468 47,41.1948 L47,39.1948 C47,38.6428 47.448,38.1948 48,38.1948 C48.552,38.1948 49,38.6428 49,39.1948 L49,41.1948 C49,41.7468 48.552,42.1948 48,42.1948 M48,48.1948 C47.448,48.1948 47,47.7468 47,47.1948 L47,45.1948 C47,44.6428 47.448,44.1948 48,44.1948 C48.552,44.1948 49,44.6428 49,45.1948 L49,47.1948 C49,47.7468 48.552,48.1948 48,48.1948 M48,54.1948 C47.448,54.1948 47,53.7468 47,53.1948 L47,51.1948 C47,50.6428 47.448,50.1948 48,50.1948 C48.552,50.1948 49,50.6428 49,51.1948 L49,53.1948 C49,53.7468 48.552,54.1948 48,54.1948" id="Fill-394" fill="#E6EEF3"></path>
                <path d="M52,18.1948 C51.448,18.1948 51,17.7468 51,17.1948 L51,15.1948 C51,14.6428 51.448,14.1948 52,14.1948 C52.552,14.1948 53,14.6428 53,15.1948 L53,17.1948 C53,17.7468 52.552,18.1948 52,18.1948 M52,24.1948 C51.448,24.1948 51,23.7468 51,23.1948 L51,21.1948 C51,20.6428 51.448,20.1948 52,20.1948 C52.552,20.1948 53,20.6428 53,21.1948 L53,23.1948 C53,23.7468 52.552,24.1948 52,24.1948 M52,30.1948 C51.448,30.1948 51,29.7468 51,29.1948 L51,27.1948 C51,26.6428 51.448,26.1948 52,26.1948 C52.552,26.1948 53,26.6428 53,27.1948 L53,29.1948 C53,29.7468 52.552,30.1948 52,30.1948 M52,36.1948 C51.448,36.1948 51,35.7468 51,35.1948 L51,33.1948 C51,32.6428 51.448,32.1948 52,32.1948 C52.552,32.1948 53,32.6428 53,33.1948 L53,35.1948 C53,35.7468 52.552,36.1948 52,36.1948 M52,42.1948 C51.448,42.1948 51,41.7468 51,41.1948 L51,39.1948 C51,38.6428 51.448,38.1948 52,38.1948 C52.552,38.1948 53,38.6428 53,39.1948 L53,41.1948 C53,41.7468 52.552,42.1948 52,42.1948 M52,48.1948 C51.448,48.1948 51,47.7468 51,47.1948 L51,45.1948 C51,44.6428 51.448,44.1948 52,44.1948 C52.552,44.1948 53,44.6428 53,45.1948 L53,47.1948 C53,47.7468 52.552,48.1948 52,48.1948 M52,54.1948 C51.448,54.1948 51,53.7468 51,53.1948 L51,51.1948 C51,50.6428 51.448,50.1948 52,50.1948 C52.552,50.1948 53,50.6428 53,51.1948 L53,53.1948 C53,53.7468 52.552,54.1948 52,54.1948" id="Fill-395" fill="#E6EEF3"></path>
                <path d="M4,41 C3.448,41 3,40.552 3,40 L3,38 C3,37.448 3.448,37 4,37 C4.552,37 5,37.448 5,38 L5,40 C5,40.552 4.552,41 4,41 M4,47 C3.448,47 3,46.552 3,46 L3,44 C3,43.448 3.448,43 4,43 C4.552,43 5,43.448 5,44 L5,46 C5,46.552 4.552,47 4,47 M4,53 C3.448,53 3,52.552 3,52 L3,50 C3,49.448 3.448,49 4,49 C4.552,49 5,49.448 5,50 L5,52 C5,52.552 4.552,53 4,53" id="Fill-396" fill="#CAD3DB"></path>
                <path d="M8,41 C7.448,41 7,40.552 7,40 L7,38 C7,37.448 7.448,37 8,37 C8.552,37 9,37.448 9,38 L9,40 C9,40.552 8.552,41 8,41 M8,47 C7.448,47 7,46.552 7,46 L7,44 C7,43.448 7.448,43 8,43 C8.552,43 9,43.448 9,44 L9,46 C9,46.552 8.552,47 8,47 M8,53 C7.448,53 7,52.552 7,52 L7,50 C7,49.448 7.448,49 8,49 C8.552,49 9,49.448 9,50 L9,52 C9,52.552 8.552,53 8,53" id="Fill-397" fill="#CAD3DB"></path>
                <path d="M20,8 C19.448,8 19,7.552 19,7 L19,4 C19,3.448 19.448,3 20,3 C20.552,3 21,3.448 21,4 L21,7 C21,7.552 20.552,8 20,8" id="Fill-398" fill="#E6EEF3"></path>
                <path d="M24,8 C23.448,8 23,7.552 23,7 L23,4 C23,3.448 23.448,3 24,3 C24.552,3 25,3.448 25,4 L25,7 C25,7.552 24.552,8 24,8" id="Fill-399" fill="#E6EEF3"></path>
            </g>
        </g>
    </g>
</svg>