<svg xmlns="http://www.w3.org/2000/svg" width="16" height="16" viewBox="0 0 16 16">
  <g clsss="svg-cion" fill="#436982">
    <path d="M15.3338776,10.6906122 C14.964898,10.6906122 14.6677551,10.9877551 14.6677551,11.3567347 L14.6677551,14.5697959 L1.3322449,14.5697959 L1.3322449,11.3567347 C1.3322449,10.9877551 1.03510204,10.6906122 0.666122449,10.6906122 C0.297142857,10.6906122 0,10.9877551 0,11.3567347 L0,15.2359184 C0,15.604898 0.297142857,15.9020408 0.666122449,15.9020408 L15.3338776,15.9020408 C15.7028571,15.9020408 16,15.604898 16,15.2359184 L16,11.3567347 C16,10.9877551 15.7028571,10.6906122 15.3338776,10.6906122 Z"/>
    <path d="M7.51020408,11.4808163 C7.88571429,11.8595918 8.34612245,11.6506122 8.48653061,11.4808163 L12.3167347,7.36 C12.5681633,7.08897959 12.5518367,6.6677551 12.2808163,6.41632653 C12.0097959,6.16489796 11.5885714,6.18122449 11.3404082,6.4522449 L8.66612245,9.32897959 L8.66612245,0.669387755 C8.66612245,0.300408163 8.36897959,0.00326530612 8,0.00326530612 C7.63102041,0.00326530612 7.33387755,0.300408163 7.33387755,0.669387755 L7.33387755,9.3322449 L4.65959184,6.4555102 C4.40816327,6.1844898 3.98693878,6.17142857 3.71591837,6.41959184 C3.44489796,6.67102041 3.43183673,7.0922449 3.68,7.36326531 L7.51020408,11.4808163 L7.51020408,11.4808163 Z"/>
  </g>
</svg>
