<?xml version="1.0" encoding="UTF-8" standalone="no"?>
<svg width="43px" height="56px" viewBox="0 0 43 56" version="1.1" xmlns="http://www.w3.org/2000/svg" xmlns:xlink="http://www.w3.org/1999/xlink">
    <!-- Generator: Sketch 39.1 (31720) - http://www.bohemiancoding.com/sketch -->
    <title>file-doc</title>
    <desc>Created with Sketch.</desc>
    <defs></defs>
    <g id="Symbols" stroke="none" stroke-width="1" fill="none" fill-rule="evenodd">
        <g id="DOC-File">
            <g id="file-doc">
                <path d="M30.485,0 L1.463,0 C0.655,0 0,0.655 0,1.926 L0,55 C0,55.345 0.655,56 1.463,56 L41.537,56 C42.345,56 43,55.345 43,55 L43,12.978 C43,12.282 42.907,12.058 42.743,11.893 L31.107,0.257 C30.942,0.093 30.718,0 30.485,0" id="Fill-68" fill="#E9E9E0"></path>
                <polyline id="Fill-69" fill="#D9D7CA" points="31 0.151 31 12 42.849 12 31 0.151"></polyline>
                <path d="M12,13 L6,13 C5.448,13 5,12.552 5,12 C5,11.448 5.448,11 6,11 L12,11 C12.552,11 13,11.448 13,12 C13,12.552 12.552,13 12,13" id="Fill-88" fill="#8697CB"></path>
                <path d="M15,18 L6,18 C5.448,18 5,17.552 5,17 C5,16.448 5.448,16 6,16 L15,16 C15.552,16 16,16.448 16,17 C16,17.552 15.552,18 15,18" id="Fill-89" fill="#8697CB"></path>
                <path d="M19,18 C18.74,18 18.48,17.89 18.29,17.71 C18.11,17.52 18,17.26 18,17 C18,16.74 18.11,16.48 18.29,16.29 C18.66,15.92 19.34,15.92 19.71,16.29 C19.89,16.48 20,16.74 20,17 C20,17.26 19.89,17.52 19.71,17.71 C19.52,17.89 19.26,18 19,18" id="Fill-90" fill="#8697CB"></path>
                <path d="M31,18 L23,18 C22.448,18 22,17.552 22,17 C22,16.448 22.448,16 23,16 L31,16 C31.552,16 32,16.448 32,17 C32,17.552 31.552,18 31,18" id="Fill-91" fill="#8697CB"></path>
                <path d="M6,33 C5.74,33 5.48,32.89 5.29,32.71 C5.11,32.52 5,32.26 5,32 C5,31.74 5.11,31.48 5.29,31.29 C5.66,30.92 6.34,30.92 6.71,31.29 C6.89,31.48 7,31.73 7,32 C7,32.26 6.89,32.52 6.71,32.71 C6.52,32.89 6.26,33 6,33" id="Fill-92" fill="#8697CB"></path>
                <path d="M18,33 L10,33 C9.448,33 9,32.552 9,32 C9,31.448 9.448,31 10,31 L18,31 C18.552,31 19,31.448 19,32 C19,32.552 18.552,33 18,33" id="Fill-93" fill="#8697CB"></path>
                <path d="M37,18 L35,18 C34.448,18 34,17.552 34,17 C34,16.448 34.448,16 35,16 L37,16 C37.552,16 38,16.448 38,17 C38,17.552 37.552,18 37,18" id="Fill-94" fill="#8697CB"></path>
                <path d="M28,23 L6,23 C5.448,23 5,22.552 5,22 C5,21.448 5.448,21 6,21 L28,21 C28.552,21 29,21.448 29,22 C29,22.552 28.552,23 28,23" id="Fill-95" fill="#8697CB"></path>
                <path d="M37,23 L31,23 C30.448,23 30,22.552 30,22 C30,21.448 30.448,21 31,21 L37,21 C37.552,21 38,21.448 38,22 C38,22.552 37.552,23 37,23" id="Fill-96" fill="#8697CB"></path>
                <path d="M10,28 L6,28 C5.448,28 5,27.552 5,27 C5,26.448 5.448,26 6,26 L10,26 C10.552,26 11,26.448 11,27 C11,27.552 10.552,28 10,28" id="Fill-97" fill="#8697CB"></path>
                <path d="M24,28 L14,28 C13.448,28 13,27.552 13,27 C13,26.448 13.448,26 14,26 L24,26 C24.552,26 25,26.448 25,27 C25,27.552 24.552,28 24,28" id="Fill-98" fill="#8697CB"></path>
                <path d="M37,28 L28,28 C27.448,28 27,27.552 27,27 C27,26.448 27.448,26 28,26 L37,26 C37.552,26 38,26.448 38,27 C38,27.552 37.552,28 37,28" id="Fill-99" fill="#8697CB"></path>
                <path d="M41.537,56 L1.463,56 C0.655,56 0,55.345 0,54.537 L0,39 L43,39 L43,54.537 C43,55.345 42.345,56 41.537,56" id="Fill-282" fill="#0096E6"></path>
                <path d="M17,47.682 C17,48.511 16.911,49.22 16.733,49.808 C16.556,50.396 16.33,50.888 16.057,51.284 C15.783,51.681 15.476,51.993 15.134,52.221 C14.792,52.448 14.461,52.619 14.143,52.733 C13.823,52.848 13.532,52.92 13.268,52.952 C13.003,52.984 12.807,53 12.68,53 L8.865,53 L8.865,42.924 L11.9,42.924 C12.748,42.924 13.493,43.059 14.136,43.327 C14.778,43.596 15.312,43.954 15.735,44.4 C16.159,44.847 16.476,45.355 16.686,45.925 C16.895,46.494 17,47.08 17,47.682 L17,47.682 Z M12.133,51.797 C13.245,51.797 14.047,51.441 14.539,50.73 C15.031,50.02 15.277,48.989 15.277,47.641 C15.277,47.222 15.227,46.807 15.127,46.397 C15.026,45.986 14.833,45.615 14.546,45.282 C14.259,44.949 13.869,44.681 13.377,44.476 C12.885,44.271 12.247,44.168 11.463,44.168 L10.506,44.168 L10.506,51.797 L12.133,51.797 L12.133,51.797 Z" id="Fill-283" fill="#FFFFFF"></path>
                <path d="M26.975,47.914 C26.975,48.762 26.867,49.509 26.653,50.156 C26.439,50.804 26.143,51.341 25.765,51.77 C25.386,52.198 24.944,52.522 24.439,52.74 C23.933,52.959 23.379,53.068 22.777,53.068 C22.176,53.068 21.622,52.959 21.116,52.74 C20.61,52.522 20.168,52.198 19.79,51.77 C19.412,51.341 19.115,50.804 18.901,50.156 C18.687,49.509 18.58,48.762 18.58,47.914 C18.58,47.066 18.687,46.321 18.901,45.679 C19.115,45.036 19.412,44.501 19.79,44.072 C20.168,43.644 20.61,43.318 21.116,43.095 C21.622,42.871 22.176,42.76 22.777,42.76 C23.379,42.76 23.933,42.871 24.439,43.095 C24.944,43.318 25.386,43.644 25.765,44.072 C26.143,44.501 26.439,45.036 26.653,45.679 C26.867,46.321 26.975,47.066 26.975,47.914 L26.975,47.914 Z M22.736,51.729 C23.073,51.729 23.395,51.662 23.7,51.53 C24.005,51.398 24.279,51.182 24.521,50.881 C24.762,50.58 24.951,50.185 25.088,49.698 C25.225,49.211 25.297,48.616 25.307,47.914 C25.297,47.23 25.227,46.649 25.095,46.171 C24.962,45.692 24.78,45.298 24.548,44.988 C24.315,44.679 24.051,44.455 23.755,44.318 C23.459,44.182 23.147,44.113 22.818,44.113 C22.481,44.113 22.16,44.177 21.855,44.305 C21.549,44.433 21.275,44.648 21.034,44.954 C20.793,45.26 20.604,45.653 20.467,46.137 C20.33,46.62 20.257,47.212 20.248,47.914 C20.257,48.598 20.328,49.181 20.46,49.664 C20.592,50.147 20.774,50.541 21.007,50.847 C21.239,51.152 21.503,51.375 21.8,51.517 C22.096,51.658 22.408,51.729 22.736,51.729 L22.736,51.729 Z" id="Fill-284" fill="#FFFFFF"></path>
                <path d="M36.107,51.975 C35.733,52.339 35.31,52.612 34.836,52.795 C34.362,52.978 33.852,53.068 33.305,53.068 C32.703,53.068 32.149,52.959 31.644,52.74 C31.138,52.522 30.695,52.198 30.317,51.77 C29.939,51.341 29.643,50.804 29.429,50.156 C29.214,49.509 29.107,48.762 29.107,47.914 C29.107,47.066 29.214,46.321 29.429,45.679 C29.643,45.036 29.939,44.501 30.317,44.072 C30.695,43.644 31.14,43.318 31.65,43.095 C32.161,42.871 32.712,42.76 33.305,42.76 C33.852,42.76 34.362,42.851 34.836,43.033 C35.31,43.216 35.733,43.489 36.107,43.854 L34.973,44.865 C34.745,44.601 34.492,44.409 34.214,44.291 C33.936,44.173 33.647,44.113 33.346,44.113 C33.008,44.113 32.687,44.177 32.382,44.305 C32.076,44.433 31.803,44.648 31.562,44.954 C31.32,45.26 31.131,45.653 30.994,46.137 C30.857,46.62 30.784,47.212 30.775,47.914 C30.784,48.598 30.855,49.181 30.987,49.664 C31.119,50.147 31.302,50.541 31.534,50.847 C31.767,51.152 32.031,51.375 32.327,51.517 C32.623,51.658 32.936,51.729 33.264,51.729 C33.592,51.729 33.899,51.669 34.187,51.551 C34.474,51.433 34.735,51.241 34.973,50.977 L36.107,51.975" id="Fill-285" fill="#FFFFFF"></path>
            </g>
        </g>
    </g>
</svg>