<?xml version="1.0" encoding="UTF-8" standalone="no"?>
<svg width="43px" height="56px" viewBox="0 0 43 56" version="1.1" xmlns="http://www.w3.org/2000/svg" xmlns:xlink="http://www.w3.org/1999/xlink">
    <!-- Generator: Sketch 39.1 (31720) - http://www.bohemiancoding.com/sketch -->
    <title>file-exe</title>
    <desc>Created with Sketch.</desc>
    <defs></defs>
    <g id="Symbols" stroke="none" stroke-width="1" fill="none" fill-rule="evenodd">
        <g id="EXE-File">
            <g id="file-exe">
                <path d="M30.485,0 L1.463,0 C0.655,0 0,0.655 0,1.926 L0,55 C0,55.345 0.655,56 1.463,56 L41.537,56 C42.345,56 43,55.345 43,55 L43,12.978 C43,12.282 42.907,12.058 42.743,11.893 L31.107,0.257 C30.942,0.093 30.718,0 30.485,0" id="Fill-70" fill="#E9E9E0"></path>
                <polyline id="Fill-71" fill="#D9D7CA" points="31 0.151 31 12 42.849 12 31 0.151"></polyline>
                <path d="M41.537,56 L1.463,56 C0.655,56 0,55.345 0,54.537 L0,39 L43,39 L43,54.537 C43,55.345 42.345,56 41.537,56" id="Fill-147" fill="#9777A8"></path>
                <polyline id="Fill-148" fill="#FFFFFF" points="10.582 44.168 10.582 47.34 14.793 47.34 14.793 48.461 10.582 48.461 10.582 51.756 15.217 51.756 15.217 53 8.914 53 8.914 42.924 15.217 42.924 15.217 44.168 10.582 44.168"></polyline>
                <polyline id="Fill-149" fill="#FFFFFF" points="22.08 48.106 24.637 53 22.736 53 21.137 49.199 21 49.199 19.277 53 17.377 53 19.934 48.106 17.213 42.924 19.086 42.924 20.863 47.025 21 47.025 22.928 42.924 24.801 42.924 22.08 48.106"></polyline>
                <polyline id="Fill-150" fill="#FFFFFF" points="28.766 44.168 28.766 47.34 32.977 47.34 32.977 48.461 28.766 48.461 28.766 51.756 33.401 51.756 33.401 53 27.098 53 27.098 42.924 33.401 42.924 33.401 44.168 28.766 44.168"></polyline>
                <path d="M27.001,32.001 C26.901,32.001 26.801,31.985 26.702,31.955 C26.175,31.79 25.881,31.229 26.045,30.702 L31.045,14.702 C31.211,14.174 31.771,13.881 32.298,14.045 C32.825,14.21 33.119,14.771 32.955,15.298 L27.955,31.298 C27.821,31.726 27.426,32.001 27.001,32.001" id="Fill-151" fill="#9777A8"></path>
                <path d="M22.5,21 C21.672,21 21,20.328 21,19.5 C21,18.672 21.672,18 22.5,18 C23.328,18 24,18.672 24,19.5 C24,20.328 23.328,21 22.5,21" id="Fill-152" fill="#9777A8"></path>
                <path d="M22.5,28 C21.672,28 21,27.328 21,26.5 C21,25.672 21.672,25 22.5,25 C23.328,25 24,25.672 24,26.5 C24,27.328 23.328,28 22.5,28" id="Fill-153" fill="#9777A8"></path>
                <path d="M17,30 L15,30 C11.14,30 8,26.86 8,23 C8,19.14 11.14,16 15,16 L17,16 C17.552,16 18,16.448 18,17 C18,17.552 17.552,18 17,18 L15,18 C12.243,18 10,20.243 10,23 C10,25.757 12.243,28 15,28 L17,28 C17.552,28 18,28.448 18,29 C18,29.552 17.552,30 17,30" id="Fill-154" fill="#9777A8"></path>
            </g>
        </g>
    </g>
</svg>