<?xml version="1.0" encoding="UTF-8" standalone="no"?>
<svg width="43px" height="56px" viewBox="0 0 43 56" version="1.1" xmlns="http://www.w3.org/2000/svg" xmlns:xlink="http://www.w3.org/1999/xlink">
    <!-- Generator: Sketch 39.1 (31720) - http://www.bohemiancoding.com/sketch -->
    <title>file-html</title>
    <desc>Created with Sketch.</desc>
    <defs></defs>
    <g id="Symbols" stroke="none" stroke-width="1" fill="none" fill-rule="evenodd">
        <g id="HTML-File">
            <g id="file-html">
                <path d="M30.485,0 L1.463,0 C0.655,0 0,0.655 0,1.926 L0,55 C0,55.345 0.655,56 1.463,56 L41.537,56 C42.345,56 43,55.345 43,55 L43,12.978 C43,12.282 42.907,12.058 42.743,11.893 L31.107,0.257 C30.942,0.093 30.718,0 30.485,0" id="Fill-28" fill="#E9E9E0"></path>
                <polyline id="Fill-29" fill="#D9D7CA" points="31 0.151 31 12 42.849 12 31 0.151"></polyline>
                <path d="M41.537,56 L1.463,56 C0.655,56 0,55.345 0,54.537 L0,39 L43,39 L43,54.537 C43,55.345 42.345,56 41.537,56" id="Fill-133" fill="#EC6630"></path>
                <polyline id="Fill-134" fill="#FFFFFF" points="10.955 42.924 10.955 53 9.315 53 9.315 48.461 4.953 48.461 4.953 53 3.285 53 3.285 42.924 4.953 42.924 4.953 47.34 9.315 47.34 9.315 42.924 10.955 42.924"></polyline>
                <polyline id="Fill-135" fill="#FFFFFF" points="20.608 42.924 20.608 44.045 17.6 44.045 17.6 53 15.945 53 15.945 44.045 12.938 44.045 12.938 42.924 20.608 42.924"></polyline>
                <polyline id="Fill-136" fill="#FFFFFF" points="30.205 42.924 31.873 42.924 31.873 53 30.205 53 30.205 46.068 27.949 51.674 26.5 51.674 24.23 46.068 24.23 53 22.563 53 22.563 42.924 24.23 42.924 27.225 49.815 30.205 42.924"></polyline>
                <polyline id="Fill-137" fill="#FFFFFF" points="36.07 42.924 36.07 51.756 40.705 51.756 40.705 53 34.402 53 34.402 42.924 36.07 42.924"></polyline>
                <path d="M16.707,16.293 C16.316,15.902 15.684,15.902 15.293,16.293 L9.293,22.293 C8.902,22.684 8.902,23.316 9.293,23.707 L15.293,29.707 C15.488,29.902 15.744,30 16,30 C16.256,30 16.512,29.902 16.707,29.707 C17.098,29.316 17.098,28.684 16.707,28.293 L11.414,23 L16.707,17.707 C17.098,17.316 17.098,16.684 16.707,16.293" id="Fill-138" fill="#EC6630"></path>
                <path d="M34.707,22.293 L28.707,16.293 C28.316,15.902 27.684,15.902 27.293,16.293 C26.902,16.684 26.902,17.316 27.293,17.707 L32.586,23 L27.293,28.293 C26.902,28.684 26.902,29.316 27.293,29.707 C27.488,29.902 27.744,30 28,30 C28.256,30 28.512,29.902 28.707,29.707 L34.707,23.707 C35.098,23.316 35.098,22.684 34.707,22.293" id="Fill-139" fill="#EC6630"></path>
            </g>
        </g>
    </g>
</svg>