<?xml version="1.0" encoding="UTF-8" standalone="no"?>
<svg width="43px" height="56px" viewBox="0 0 43 56" version="1.1" xmlns="http://www.w3.org/2000/svg" xmlns:xlink="http://www.w3.org/1999/xlink">
    <!-- Generator: Sketch 39.1 (31720) - http://www.bohemiancoding.com/sketch -->
    <title>file-jpg</title>
    <desc>Created with Sketch.</desc>
    <defs></defs>
    <g id="Symbols" stroke="none" stroke-width="1" fill="none" fill-rule="evenodd">
        <g id="JPG-File">
            <g id="file-jpg">
                <path d="M30.485,0 L1.463,0 C0.655,0 0,0.655 0,1.926 L0,55 C0,55.345 0.655,56 1.463,56 L41.537,56 C42.345,56 43,55.345 43,55 L43,12.978 C43,12.282 42.907,12.058 42.743,11.893 L31.107,0.257 C30.942,0.093 30.718,0 30.485,0" id="Fill-20" fill="#E9E9E0"></path>
                <polyline id="Fill-21" fill="#D9D7CA" points="31 0.151 31 12 42.849 12 31 0.151"></polyline>
                <path d="M17,14.431 C17,16.954 14.954,19 12.431,19 C9.908,19 7.862,16.954 7.862,14.431 C7.862,11.908 9.908,9.862 12.431,9.862 C14.954,9.862 17,11.908 17,14.431" id="Fill-32" fill="#F3D55B"></path>
                <polyline id="Fill-33" fill="#26B99A" points="0 39 43 39 43 28 33 18.5 22.5 30 17.017 24.517 0 39"></polyline>
                <path d="M41.537,56 L1.463,56 C0.655,56 0,55.345 0,54.537 L0,39 L43,39 L43,54.537 C43,55.345 42.345,56 41.537,56" id="Fill-290" fill="#13A085"></path>
                <path d="M14.926,42.65 L14.926,50.498 C14.926,50.972 14.839,51.371 14.666,51.694 C14.493,52.018 14.26,52.277 13.969,52.474 C13.677,52.67 13.342,52.807 12.964,52.884 C12.585,52.961 12.196,53 11.795,53 C11.594,53 11.359,52.98 11.091,52.939 C10.822,52.898 10.544,52.834 10.257,52.747 C9.97,52.66 9.694,52.563 9.43,52.453 C9.165,52.344 8.942,52.221 8.76,52.084 L9.457,50.977 C9.548,51.04 9.678,51.106 9.847,51.175 C10.015,51.243 10.2,51.307 10.4,51.366 C10.601,51.426 10.811,51.478 11.029,51.523 C11.248,51.569 11.453,51.592 11.645,51.592 C12.127,51.592 12.513,51.498 12.8,51.311 C13.087,51.125 13.239,50.808 13.258,50.361 L13.258,42.65 L14.926,42.65" id="Fill-291" fill="#FFFFFF"></path>
                <path d="M19.014,52.932 L17.373,52.932 L17.373,42.855 L20.272,42.855 C20.7,42.855 21.124,42.924 21.543,43.06 C21.962,43.197 22.338,43.402 22.671,43.676 C23.003,43.949 23.273,44.279 23.478,44.667 C23.683,45.055 23.785,45.489 23.785,45.973 C23.785,46.483 23.698,46.945 23.525,47.36 C23.352,47.775 23.11,48.124 22.801,48.406 C22.491,48.689 22.117,48.907 21.68,49.063 C21.242,49.218 20.759,49.295 20.231,49.295 L19.014,49.295 L19.014,52.932 L19.014,52.932 Z M19.014,44.1 L19.014,48.092 L20.518,48.092 C20.718,48.092 20.916,48.058 21.112,47.989 C21.308,47.921 21.488,47.81 21.652,47.654 C21.816,47.499 21.948,47.283 22.049,47.005 C22.149,46.727 22.199,46.383 22.199,45.973 C22.199,45.809 22.176,45.619 22.131,45.405 C22.085,45.191 21.992,44.986 21.851,44.79 C21.709,44.594 21.511,44.43 21.256,44.298 C21.001,44.166 20.663,44.1 20.244,44.1 L19.014,44.1 L19.014,44.1 Z" id="Fill-292" fill="#FFFFFF"></path>
                <path d="M33,47.736 L33,51.633 C32.79,51.897 32.556,52.113 32.296,52.282 C32.036,52.451 31.763,52.59 31.476,52.699 C31.189,52.809 30.892,52.886 30.587,52.932 C30.281,52.978 29.979,53 29.678,53 C29.076,53 28.523,52.891 28.017,52.672 C27.511,52.453 27.068,52.13 26.69,51.701 C26.312,51.272 26.016,50.735 25.802,50.088 C25.587,49.44 25.481,48.693 25.481,47.846 C25.481,46.998 25.587,46.253 25.802,45.61 C26.016,44.968 26.312,44.433 26.69,44.004 C27.068,43.575 27.513,43.25 28.023,43.026 C28.534,42.803 29.085,42.691 29.678,42.691 C30.225,42.691 30.735,42.782 31.209,42.965 C31.683,43.148 32.106,43.421 32.481,43.785 L31.346,44.797 C31.127,44.532 30.876,44.341 30.594,44.223 C30.311,44.104 30.02,44.045 29.719,44.045 C29.381,44.045 29.06,44.108 28.755,44.236 C28.449,44.364 28.176,44.58 27.935,44.886 C27.693,45.191 27.504,45.585 27.367,46.068 C27.231,46.552 27.157,47.144 27.148,47.846 C27.157,48.529 27.228,49.122 27.36,49.623 C27.492,50.124 27.675,50.534 27.907,50.853 C28.14,51.173 28.404,51.409 28.7,51.565 C28.996,51.72 29.309,51.797 29.637,51.797 C29.737,51.797 29.871,51.79 30.04,51.776 C30.209,51.763 30.377,51.74 30.546,51.708 C30.714,51.676 30.876,51.633 31.031,51.578 C31.186,51.523 31.3,51.446 31.373,51.346 L31.373,48.857 L29.664,48.857 L29.664,47.736 L33,47.736" id="Fill-293" fill="#FFFFFF"></path>
            </g>
        </g>
    </g>
</svg>