<svg xmlns="http://www.w3.org/2000/svg" width="44" height="56" viewBox="0 0 44 56">
  <g fill="none" fill-rule="evenodd">
    <path fill="#E9E9E0" fill-rule="nonzero" d="M30.985,0 L1.963,0 C1.155,0 0.5,0.655 0.5,1.926 L0.5,55 C0.5,55.345 1.155,56 1.963,56 L42.037,56 C42.845,56 43.5,55.345 43.5,55 L43.5,12.978 C43.5,12.282 43.407,12.058 43.243,11.893 L31.607,0.257 C31.442,0.093 31.218,0 30.985,0 Z"/>
    <path fill="#FFC14F" fill-rule="nonzero" d="M42.037,56 L1.963,56 C1.155,56 0.5,55.345 0.5,54.537 L0.5,39 L43.5,39 L43.5,54.537 C43.5,55.345 42.845,56 42.037,56 Z"/>
    <path fill="#FFFFFF" d="M12.5820398,48.7061606 L16.6520738,48.7061606 L16.6520738,47.394555 L12.5820398,47.394555 L12.5820398,44.5009096 L16.922508,44.5009096 L16.922508,43.1757822 L11,43.1757822 L11,52.9654986 L17.1253336,52.9654986 L17.1253336,51.6403712 L12.5820398,51.6403712 L12.5820398,48.7061606 Z M20.3840651,48.2329009 L21.5604537,48.2329009 C22.8314942,48.2329009 23.8456223,47.9354233 23.8456223,46.2587316 C23.8456223,44.9200825 23.0884067,44.4738661 21.7362359,44.4738661 L20.3840651,44.4738661 L20.3840651,48.2329009 Z M20.3840651,49.5445065 L20.3840651,52.9654986 L18.815547,52.9654986 L18.815547,43.1757822 L22.2230174,43.1757822 C24.7245333,43.1757822 25.4817489,44.5820398 25.4817489,46.1505579 C25.4817489,48.4898133 24.1295782,49.5445065 21.6956708,49.5445065 L20.3840651,49.5445065 Z M30.1332164,44.2845622 C31.4989089,44.2845622 31.863995,45.0552996 32.0127338,45.9882974 L33.4730782,45.8125152 C33.297296,43.649042 31.8504733,43 30.1467381,43 C28.2131339,43 26.7392678,44.0276498 26.7392678,45.7989935 C26.7392678,49.5039414 31.9721686,47.9083799 31.9721686,50.3828524 C31.9721686,51.5457193 30.985084,51.8702402 30.011521,51.8702402 C28.4294812,51.8702402 28.0103083,51.0183727 27.793961,50.0042446 L26.3336165,50.2205919 C26.5499638,52.438152 28.0508734,53.1277591 29.9844776,53.1277591 C31.8504733,53.1277591 33.5542084,52.2894132 33.5542084,50.1665051 C33.5542084,46.6238177 28.3213076,47.9759884 28.3213076,45.6096896 C28.3213076,44.8119088 28.8351324,44.2845622 30.1332164,44.2845622 Z"/>
    <path fill="#C8BDB8" fill-rule="nonzero" d="M31.5,11 L31.5,11.461 C28.429,12.429 25.997,14.843 24.998,17.901 C24.311,17.346 23.45,17 22.5,17 C20.641,17 19.089,18.28 18.642,20 L15.5,20 L15.5,18 L9.5,18 L9.5,24 L15.5,24 L15.5,22 L18.421,22 C18.085,24.663 16.436,26.978 14.032,28.163 C13.364,26.884 12.04,26 10.5,26 C8.294,26 6.5,27.794 6.5,30 C6.5,32.206 8.294,34 10.5,34 C12.646,34 14.388,32.298 14.482,30.175 C17.137,29.024 19.129,26.788 20.006,24.102 C20.692,24.655 21.552,25 22.5,25 C24.359,25 25.911,23.72 26.358,22 L29.5,22 L29.5,24 L35.5,24 L35.5,18 L29.5,18 L29.5,20 L26.569,20 C26.948,16.981 29.013,14.486 31.791,13.482 C32.383,14.955 33.818,16 35.5,16 C37.706,16 39.5,14.206 39.5,12 L39.5,11 L31.5,11 Z M13.5,22 L11.5,22 L11.5,20 L13.5,20 L13.5,22 Z M10.5,32 C9.397,32 8.5,31.103 8.5,30 C8.5,28.897 9.397,28 10.5,28 C11.603,28 12.5,28.897 12.5,30 C12.5,31.103 11.603,32 10.5,32 Z M31.5,20 L33.5,20 L33.5,22 L31.5,22 L31.5,20 Z M22.5,23 C21.397,23 20.5,22.103 20.5,21 C20.5,19.897 21.397,19 22.5,19 C23.603,19 24.5,19.897 24.5,21 C24.5,22.103 23.603,23 22.5,23 Z M35.5,14 C34.777,14 34.147,13.611 33.796,13.036 C34.028,13.015 34.262,13 34.5,13 L37.231,13 C36.886,13.597 36.239,14 35.5,14 Z"/>
    <polygon fill="#D9D7CA" fill-rule="nonzero" points="31.5 .151 31.5 12 43.349 12"/>
  </g>
</svg>
