<?xml version="1.0" encoding="UTF-8" standalone="no"?>
<svg width="43px" height="56px" viewBox="0 0 43 56" version="1.1" xmlns="http://www.w3.org/2000/svg" xmlns:xlink="http://www.w3.org/1999/xlink">
    <!-- Generator: Sketch 39.1 (31720) - http://www.bohemiancoding.com/sketch -->
    <title>file-txt</title>
    <desc>Created with Sketch.</desc>
    <defs></defs>
    <g id="Symbols" stroke="none" stroke-width="1" fill="none" fill-rule="evenodd">
        <g id="TXT-File">
            <g id="file-txt">
                <path d="M30.485,0 L1.463,0 C0.655,0 0,0.655 0,1.926 L0,55 C0,55.345 0.655,56 1.463,56 L41.537,56 C42.345,56 43,55.345 43,55 L43,12.978 C43,12.282 42.907,12.058 42.743,11.893 L31.107,0.257 C30.942,0.093 30.718,0 30.485,0" id="Fill-80" fill="#E9E9E0"></path>
                <polyline id="Fill-81" fill="#D9D7CA" points="31 0.151 31 12 42.849 12 31 0.151"></polyline>
                <path d="M41.537,56 L1.463,56 C0.655,56 0,55.345 0,54.537 L0,39 L43,39 L43,54.537 C43,55.345 42.345,56 41.537,56" id="Fill-187" fill="#95A5A5"></path>
                <polyline id="Fill-188" fill="#FFFFFF" points="15.367 42.924 15.367 44.045 12.359 44.045 12.359 53 10.705 53 10.705 44.045 7.697 44.045 7.697 42.924 15.367 42.924"></polyline>
                <polyline id="Fill-189" fill="#FFFFFF" points="21.944 48.106 24.5 53 22.6 53 21 49.199 20.863 49.199 19.141 53 17.24 53 19.797 48.106 17.076 42.924 18.949 42.924 20.727 47.025 20.863 47.025 22.791 42.924 24.664 42.924 21.944 48.106"></polyline>
                <polyline id="Fill-190" fill="#FFFFFF" points="34.029 42.924 34.029 44.045 31.022 44.045 31.022 53 29.367 53 29.367 44.045 26.359 44.045 26.359 42.924 34.029 42.924"></polyline>
                <path d="M12,13 L6,13 C5.447,13 5,12.552 5,12 C5,11.448 5.447,11 6,11 L12,11 C12.553,11 13,11.448 13,12 C13,12.552 12.553,13 12,13" id="Fill-191" fill="#C8BDB8"></path>
                <path d="M15,18 L6,18 C5.447,18 5,17.552 5,17 C5,16.448 5.447,16 6,16 L15,16 C15.553,16 16,16.448 16,17 C16,17.552 15.553,18 15,18" id="Fill-192" fill="#C8BDB8"></path>
                <path d="M19,18 C18.74,18 18.48,17.89 18.29,17.71 C18.109,17.52 18,17.27 18,17 C18,16.73 18.109,16.48 18.3,16.29 C18.66,15.92 19.34,15.92 19.71,16.29 C19.89,16.48 20,16.74 20,17 C20,17.26 19.89,17.52 19.71,17.71 C19.52,17.89 19.26,18 19,18" id="Fill-193" fill="#C8BDB8"></path>
                <path d="M31,18 L23,18 C22.447,18 22,17.552 22,17 C22,16.448 22.447,16 23,16 L31,16 C31.553,16 32,16.448 32,17 C32,17.552 31.553,18 31,18" id="Fill-194" fill="#C8BDB8"></path>
                <path d="M6,33 C5.74,33 5.48,32.89 5.29,32.71 C5.109,32.52 5,32.26 5,32 C5,31.74 5.109,31.48 5.29,31.29 C5.66,30.92 6.34,30.92 6.71,31.3 C6.89,31.48 7,31.74 7,32 C7,32.26 6.89,32.52 6.71,32.71 C6.52,32.89 6.26,33 6,33" id="Fill-195" fill="#C8BDB8"></path>
                <path d="M18,33 L10,33 C9.447,33 9,32.552 9,32 C9,31.448 9.447,31 10,31 L18,31 C18.553,31 19,31.448 19,32 C19,32.552 18.553,33 18,33" id="Fill-196" fill="#C8BDB8"></path>
                <path d="M37,18 L35,18 C34.447,18 34,17.552 34,17 C34,16.448 34.447,16 35,16 L37,16 C37.553,16 38,16.448 38,17 C38,17.552 37.553,18 37,18" id="Fill-197" fill="#C8BDB8"></path>
                <path d="M28,23 L6,23 C5.447,23 5,22.552 5,22 C5,21.448 5.447,21 6,21 L28,21 C28.553,21 29,21.448 29,22 C29,22.552 28.553,23 28,23" id="Fill-198" fill="#C8BDB8"></path>
                <path d="M37,23 L31,23 C30.447,23 30,22.552 30,22 C30,21.448 30.447,21 31,21 L37,21 C37.553,21 38,21.448 38,22 C38,22.552 37.553,23 37,23" id="Fill-199" fill="#C8BDB8"></path>
                <path d="M10,28 L6,28 C5.447,28 5,27.552 5,27 C5,26.448 5.447,26 6,26 L10,26 C10.553,26 11,26.448 11,27 C11,27.552 10.553,28 10,28" id="Fill-200" fill="#C8BDB8"></path>
                <path d="M24,28 L14,28 C13.447,28 13,27.552 13,27 C13,26.448 13.447,26 14,26 L24,26 C24.553,26 25,26.448 25,27 C25,27.552 24.553,28 24,28" id="Fill-201" fill="#C8BDB8"></path>
                <path d="M37,28 L28,28 C27.447,28 27,27.552 27,27 C27,26.448 27.447,26 28,26 L37,26 C37.553,26 38,26.448 38,27 C38,27.552 37.553,28 37,28" id="Fill-202" fill="#C8BDB8"></path>
            </g>
        </g>
    </g>
</svg>