<?xml version="1.0" encoding="UTF-8" standalone="no"?>
<svg width="58px" height="58px" viewBox="0 0 58 58" version="1.1" xmlns="http://www.w3.org/2000/svg" xmlns:xlink="http://www.w3.org/1999/xlink">
    <!-- Generator: Sketch 40.1 (33804) - http://www.bohemiancoding.com/sketch -->
    <title>1 -Web Location- (seo, marketing, web, business, internet, flat)</title>
    <desc>Created with Sketch.</desc>
    <defs></defs>
    <g id="Page-1" stroke="none" stroke-width="1" fill="none" fill-rule="evenodd">
        <g id="SEO-&amp;-Analytics-Flat" transform="translate(-122.000000, -388.000000)">
            <g id="1--Web-Location--(seo,-marketing,-web,-business,-internet,-flat)" transform="translate(123.000000, 389.000000)">
                <path d="M56,28 C56,43.464 43.464,56 28,56 C12.536,56 0,43.464 0,28 C0,12.536 12.536,0 28,0 C43.464,0 56,12.536 56,28" id="Fill-1926" fill="#7383BF"></path>
                <path d="M56,28 C56,43.464 43.464,56 28,56 C12.536,56 0,43.464 0,28 C0,12.536 12.536,0 28,0 C43.464,0 56,12.536 56,28 L56,28 Z" id="Stroke-1927" stroke="#434C6D" stroke-width="2" stroke-linecap="round"></path>
                <path d="M28,56 L28,0" id="Stroke-1928" stroke="#434C6D" stroke-width="2" stroke-linecap="round"></path>
                <path d="M28,0 C27.786,0 27.574,0.011 27.361,0.016 C19.213,6.616 14,16.697 14,28 C14,39.303 19.213,49.384 27.361,55.984 C27.574,55.989 27.786,56 28,56" id="Stroke-1929" stroke="#434C6D" stroke-width="2" stroke-linecap="round"></path>
                <path d="M7.6983,8.7283 C13.4783,12.6833 20.4673,15.0003 28.0003,15.0003 C35.5323,15.0003 42.5213,12.6833 48.3013,8.7283" id="Stroke-1930" stroke="#434C6D" stroke-width="2" stroke-linecap="round"></path>
                <path d="M48.8617,46.67 C42.9747,42.475 35.7787,40 27.9997,40 C20.2207,40 13.0247,42.475 7.1387,46.67" id="Stroke-1931" stroke="#434C6D" stroke-width="2" stroke-linecap="round"></path>
                <path d="M28,56 C28.214,56 28.426,55.989 28.639,55.984 C36.787,49.384 42,39.303 42,28 C42,16.697 36.787,6.616 28.639,0.016 C28.426,0.011 28.214,0 28,0" id="Stroke-1932" stroke="#434C6D" stroke-width="2" stroke-linecap="round"></path>
                <path d="M0,28 L56,28" id="Stroke-1933" stroke="#434C6D" stroke-width="2" stroke-linecap="round"></path>
                <path d="M47,29 L39,17.692 C36.014,13.796 36.41,7.311 39.929,3.867 L39.929,3.867 C43.834,0.044 50.166,0.044 54.071,3.867 L54.071,3.867 C57.59,7.311 57.986,13.796 55,17.692 L47,29 Z" id="Fill-1934" fill="#42B05C"></path>
                <path d="M51,11 C51,13.209 49.209,15 47,15 C44.791,15 43,13.209 43,11 C43,8.791 44.791,7 47,7 C49.209,7 51,8.791 51,11" id="Fill-1935" fill="#E8EC18"></path>
                <path d="M51,11 C51,13.209 49.209,15 47,15 C44.791,15 43,13.209 43,11 C43,8.791 44.791,7 47,7 C49.209,7 51,8.791 51,11 L51,11 Z" id="Stroke-1936" stroke="#ECBA16" stroke-width="2" stroke-linecap="round"></path>
            </g>
        </g>
    </g>
</svg>