<svg xmlns="http://www.w3.org/2000/svg" width="16" height="23" viewBox="0 0 16 23">
  <path fill="#5F9234" d="M15.6417391,14.752 C15.9401739,14.4431304 15.9401739,13.9568696 15.6417391,13.648 C15.3328696,13.3495652 14.8354783,13.3495652 14.5377391,13.648 L8.93982609,19.245913 L8.93982609,0.772869565 C8.93982609,0.34226087 8.59756522,0 8.16695652,0 C7.73634783,0 7.38295652,0.34226087 7.38295652,0.772869565 L7.38295652,19.245913 L1.79617391,13.648 C1.48730435,13.3495652 1.00104348,13.3495652 0.692173913,13.648 C0.39373913,13.9568696 0.39373913,14.4431304 0.692173913,14.752 L7.61530435,21.6751304 C7.91373913,21.9735652 8.41043478,21.9735652 8.71930435,21.6751304 L15.6417391,14.752 Z" transform="rotate(-180 8 11.13)"/>
</svg>
