<?xml version="1.0" standalone="no"?><!DOCTYPE svg PUBLIC "-//W3C//DTD SVG 1.1//EN" "http://www.w3.org/Graphics/SVG/1.1/DTD/svg11.dtd" ><svg version="1.1" xmlns="http://www.w3.org/2000/svg"><defs><font horiz-adv-x="0" id="font"><font-face ascent="750" bbox="-205.9091 -270 1631.9697 960" cap-height="750" descent="-250" font-family="Apex Rounded Ultra Italic" font-stretch="normal" font-style="normal" font-weight="500" units-per-em="1000" x-height="500" /><missing-glyph d="M136 629V121L390 375ZM744 121V629L490 375ZM181 66H699L440 325ZM440 425 699 684H181ZM65 750H815V0H65Z" horiz-adv-x="880" /><glyph d="M284 289H370L359 551ZM473 750Q515 750 533.5 734.5Q552 719 557 677L618 109Q623 57 603 28.5Q583 0 536 0H471Q428 0 404 17Q380 34 378 80L376 119H235L224 80Q211 35 188.5 17.5Q166 0 123 0H58Q11 0 -7.5 28.5Q-26 57 -8 109L193 677Q207 719 230 734.5Q253 750 295 750Z" glyph-name="A" horiz-adv-x="644" unicode="A" /><glyph d="M309 285H395L407 525ZM881 750Q961 750 951 670L946 630Q936 550 856 550H622L621 485H820Q900 485 890 405L885 365Q876 285 795 285H620V200H813Q893 200 883 120L878 80Q869 0 789 0H460Q417 0 400.5 17.5Q384 35 386 80L388 115H241L223 71Q215 51 207 37.5Q199 24 187.5 15.5Q176 7 160 3.5Q144 0 120 0H49Q29 0 14 9Q-1 18 -9.5 33Q-18 48 -18 68.5Q-18 89 -7 112L269 670Q281 694 293.5 709.5Q306 725 320.5 734Q335 743 351.5 746.5Q368 750 389 750Z" glyph-name="AE" horiz-adv-x="920" unicode="&#198;" /><glyph d="M284 289H370L359 551ZM500 900Q513 900 523.5 895Q534 890 539 881.5Q544 873 541 861Q538 849 524 836L500 813Q484 797 470.5 793.5Q457 790 430 790H356Q330 790 319 806Q308 822 318 847L321 854Q333 883 349 891.5Q365 900 393 900ZM473 750Q515 750 533.5 734.5Q552 719 557 677L618 109Q623 57 603 28.5Q583 0 536 0H471Q428 0 404 17Q380 34 378 80L376 119H235L224 80Q211 35 188.5 17.5Q166 0 123 0H58Q11 0 -7.5 28.5Q-26 57 -8 109L193 677Q207 719 230 734.5Q253 750 295 750Z" glyph-name="Aacute" horiz-adv-x="644" unicode="&#193;" /><glyph d="M284 289H370L359 551ZM473 750Q515 750 533.5 734.5Q552 719 557 677L618 109Q623 57 603 28.5Q583 0 536 0H471Q428 0 404 17Q380 34 378 80L376 119H235L224 80Q211 35 188.5 17.5Q166 0 123 0H58Q11 0 -7.5 28.5Q-26 57 -8 109L193 677Q207 719 230 734.5Q253 750 295 750ZM387 780Q295 780 254 796.5Q213 813 209 848Q203 900 248 900H291Q308 900 314.5 895Q321 890 326 880Q331 870 345 864.5Q359 859 397 859Q435 859 450.5 864.5Q466 870 474 880Q481 890 488.5 895Q496 900 513 900H556Q601 900 583 848Q570 813 524.5 796.5Q479 780 387 780Z" glyph-name="Abreve" horiz-adv-x="644" unicode="&#258;" /><glyph d="M284 289H370L359 551ZM456 900Q484 900 501 898.5Q518 897 535 886L608 842Q617 836 621 827.5Q625 819 623 810.5Q621 802 614 796Q607 790 594 790H490Q476 790 465.5 791Q455 792 446.5 794Q438 796 429.5 800Q421 804 411 810L392 821L371 810Q348 798 331 794Q314 790 286 790H198Q185 790 177.5 796.5Q170 803 168 811.5Q166 820 169.5 828.5Q173 837 182 842L265 886Q275 891 282.5 894Q290 897 297.5 898.5Q305 900 314.5 900Q324 900 338 900ZM473 750Q515 750 533.5 734.5Q552 719 557 677L618 109Q623 57 603 28.5Q583 0 536 0H471Q428 0 404 17Q380 34 378 80L376 119H235L224 80Q211 35 188.5 17.5Q166 0 123 0H58Q11 0 -7.5 28.5Q-26 57 -8 109L193 677Q207 719 230 734.5Q253 750 295 750Z" glyph-name="Acircumflex" horiz-adv-x="644" unicode="&#194;" /><glyph d="M284 289H370L359 551ZM473 750Q515 750 533.5 734.5Q552 719 557 677L618 109Q623 57 603 28.5Q583 0 536 0H471Q428 0 404 17Q380 34 378 80L376 119H235L224 80Q211 35 188.5 17.5Q166 0 123 0H58Q11 0 -7.5 28.5Q-26 57 -8 109L193 677Q207 719 230 734.5Q253 750 295 750ZM410 845Q415 883 443 896.5Q471 910 536 910Q601 910 626 896.5Q651 883 646 845Q641 806 613 793Q585 780 520 780Q455 780 430 793Q405 806 410 845ZM144 845Q149 883 177 896.5Q205 910 270 910Q335 910 360 896.5Q385 883 380 845Q375 806 347 793Q319 780 254 780Q189 780 164 793Q139 806 144 845Z" glyph-name="Adieresis" horiz-adv-x="644" unicode="&#196;" /><glyph d="M284 289H370L359 551ZM411 900Q439 900 452.5 891.5Q466 883 471 854L472 847Q476 822 464 806Q452 790 426 790H346Q319 790 307 793.5Q295 797 282 813L264 836Q246 859 254.5 879.5Q263 900 289 900ZM473 750Q515 750 533.5 734.5Q552 719 557 677L618 109Q623 57 603 28.5Q583 0 536 0H471Q428 0 404 17Q380 34 378 80L376 119H235L224 80Q211 35 188.5 17.5Q166 0 123 0H58Q11 0 -7.5 28.5Q-26 57 -8 109L193 677Q207 719 230 734.5Q253 750 295 750Z" glyph-name="Agrave" horiz-adv-x="644" unicode="&#192;" /><glyph d="M284 289H370L359 551ZM473 750Q515 750 533.5 734.5Q552 719 557 677L618 109Q623 57 603 28.5Q583 0 536 0H471Q428 0 404 17Q380 34 378 80L376 119H235L224 80Q211 35 188.5 17.5Q166 0 123 0H58Q11 0 -7.5 28.5Q-26 57 -8 109L193 677Q207 719 230 734.5Q253 750 295 750ZM283 790Q231 790 238 843V847Q245 900 297 900H507Q559 900 552 847V843Q545 790 493 790Z" glyph-name="Amacron" horiz-adv-x="644" unicode="&#256;" /><glyph d="M224 80Q212 35 189 17.5Q166 0 123 0H58Q11 0 -7.5 28.5Q-26 57 -8 109L193 677Q207 719 230 734.5Q253 750 295 750H473Q515 750 533.5 734.5Q552 719 557 677L618 109Q623 57 603 28.5Q583 0 536 0H471Q428 0 404 17.5Q380 35 378 80L359 551Z" glyph-name="Anocross" horiz-adv-x="644" /><glyph d="M284 289H370L359 551ZM473 750Q515 750 533.5 734.5Q552 719 557 677L618 109Q625 36 582 10Q538 -17 521 -41.5Q504 -66 501 -89Q498 -110 508.5 -123Q519 -136 555 -136Q564 -136 568.5 -135.5Q573 -135 580 -135Q598 -135 607 -149Q616 -163 614 -184L613 -190Q611 -209 599.5 -223.5Q588 -238 566 -243Q556 -245 539 -247.5Q522 -250 490 -250Q408 -250 368.5 -216Q329 -182 336 -127Q339 -98 351.5 -74.5Q364 -51 384 -31L376 119H235L224 80Q211 35 188.5 17.5Q166 0 123 0H58Q11 0 -7.5 28.5Q-26 57 -8 109L193 677Q207 719 230 734.5Q253 750 295 750Z" glyph-name="Aogonek" horiz-adv-x="644" unicode="&#260;" /><glyph d="M284 289H370L359 551ZM473 750Q515 750 533.5 734.5Q552 719 557 677L618 109Q623 57 603 28.5Q583 0 536 0H471Q428 0 404 17Q380 34 378 80L376 119H235L224 80Q211 35 188.5 17.5Q166 0 123 0H58Q11 0 -7.5 28.5Q-26 57 -8 109L193 677Q207 719 230 734.5Q253 750 295 750ZM271 870Q274 893 282 910Q290 927 305.5 938Q321 949 346 954.5Q371 960 409 960Q484 960 507.5 938Q531 916 525 870Q522 847 514.5 830Q507 813 491 802Q475 791 449.5 785.5Q424 780 387 780Q349 780 325.5 785.5Q302 791 289 802Q276 813 272 830Q268 847 271 870ZM367 870Q366 860 371.5 856Q377 852 396 852Q415 852 421.5 856Q428 860 429 870Q431 880 425.5 884Q420 888 401 888Q382 888 375.5 884Q369 880 367 870Z" glyph-name="Aring" horiz-adv-x="644" unicode="&#197;" /><glyph d="M284 289H370L359 551ZM473 750Q515 750 533.5 734.5Q552 719 557 677L618 109Q623 57 603 28.5Q583 0 536 0H471Q428 0 404 17Q380 34 378 80L376 119H235L224 80Q211 35 188.5 17.5Q166 0 123 0H58Q11 0 -7.5 28.5Q-26 57 -8 109L193 677Q207 719 230 734.5Q253 750 295 750ZM487 780Q456 780 431 785Q406 790 385 796Q364 802 347 807Q330 812 315 812Q296 812 286 803Q279 797 272 793.5Q265 790 248 790H197Q174 790 166.5 803.5Q159 817 169 843Q185 883 218.5 896.5Q252 910 303 910Q334 910 359 905Q384 900 405 894Q426 888 443 883Q460 878 475 878Q495 878 504 887Q511 893 518 896.5Q525 900 542 900H593Q616 900 624 886.5Q632 873 621 847Q606 807 572 793.5Q538 780 487 780Z" glyph-name="Atilde" horiz-adv-x="644" unicode="&#195;" /><glyph d="M390 518Q395 553 381.5 566Q368 579 348 579H292L276 456H332Q352 456 368.5 469.5Q385 483 390 518ZM241 171H310Q335 171 354 185Q373 199 378 243Q384 287 368.5 301.5Q353 316 328 316H259ZM81 670Q91 750 171 750H395Q473 750 521 733.5Q569 717 594 687.5Q619 658 625 618Q631 578 625 530Q622 511 615 491.5Q608 472 597 454.5Q586 437 572 422Q558 407 541 398Q579 381 597.5 339Q616 297 609 238Q603 188 585.5 144.5Q568 101 533.5 69Q499 37 444 18.5Q389 0 307 0H79Q-2 0 8 80Z" glyph-name="B" horiz-adv-x="619" unicode="B" /><glyph d="M33 375Q58 573 154 670.5Q250 768 424 768Q439 768 456.5 767Q474 766 491.5 764Q509 762 525 759Q541 756 552 753Q589 741 598 719Q607 697 603 666L598 623Q593 586 571 565Q549 544 510 552Q494 555 474 557.5Q454 560 426 560Q396 560 369.5 551Q343 542 322 521Q301 500 286.5 464.5Q272 429 266 375Q259 321 265 285.5Q271 250 286.5 229Q302 208 326.5 199Q351 190 381 190Q409 190 429.5 192.5Q450 195 467 198Q508 206 525 185Q542 164 537 127L532 84Q528 52 514 30.5Q500 9 459 -3Q447 -6 430.5 -9Q414 -12 396 -14Q378 -16 360 -17Q342 -18 327 -18Q153 -18 81 79.5Q9 177 33 375Z" glyph-name="C" horiz-adv-x="564" unicode="C" /><glyph d="M520 900Q533 900 543.5 895Q554 890 559 881.5Q564 873 561 861Q558 849 544 836L520 813Q504 797 490.5 793.5Q477 790 450 790H376Q350 790 339 806Q328 822 338 847L341 854Q353 883 369 891.5Q385 900 413 900ZM33 375Q58 573 154 670.5Q250 768 424 768Q439 768 456.5 767Q474 766 491.5 764Q509 762 525 759Q541 756 552 753Q589 741 598 719Q607 697 603 666L598 623Q593 586 571 565Q549 544 510 552Q494 555 474 557.5Q454 560 426 560Q396 560 369.5 551Q343 542 322 521Q301 500 286.5 464.5Q272 429 266 375Q259 321 265 285.5Q271 250 286.5 229Q302 208 326.5 199Q351 190 381 190Q409 190 429.5 192.5Q450 195 467 198Q508 206 525 185Q542 164 537 127L532 84Q528 52 514 30.5Q500 9 459 -3Q447 -6 430.5 -9Q414 -12 396 -14Q378 -16 360 -17Q342 -18 327 -18Q153 -18 81 79.5Q9 177 33 375Z" glyph-name="Cacute" horiz-adv-x="564" unicode="&#262;" /><glyph d="M354 790Q326 790 309 791.5Q292 793 275 804L202 848Q193 854 189 862.5Q185 871 187 879.5Q189 888 196 894Q203 900 216 900H320Q348 900 363.5 896Q379 892 399 880L418 869L439 880Q451 886 460 890Q469 894 478.5 896Q488 898 499 899Q510 900 524 900H612Q625 900 632.5 893.5Q640 887 642 878.5Q644 870 640.5 861.5Q637 853 628 848L545 804Q535 799 527.5 796Q520 793 512.5 791.5Q505 790 495.5 790Q486 790 472 790ZM33 375Q58 573 154 670.5Q250 768 424 768Q439 768 456.5 767Q474 766 491.5 764Q509 762 525 759Q541 756 552 753Q589 741 598 719Q607 697 603 666L598 623Q593 586 571 565Q549 544 510 552Q494 555 474 557.5Q454 560 426 560Q396 560 369.5 551Q343 542 322 521Q301 500 286.5 464.5Q272 429 266 375Q259 321 265 285.5Q271 250 286.5 229Q302 208 326.5 199Q351 190 381 190Q409 190 429.5 192.5Q450 195 467 198Q508 206 525 185Q542 164 537 127L532 84Q528 52 514 30.5Q500 9 459 -3Q447 -6 430.5 -9Q414 -12 396 -14Q378 -16 360 -17Q342 -18 327 -18Q153 -18 81 79.5Q9 177 33 375Z" glyph-name="Ccaron" horiz-adv-x="564" unicode="&#268;" /><glyph d="M252 -139Q278 -139 295.5 -132Q313 -125 315 -112Q317 -100 306.5 -92.5Q296 -85 282 -82Q260 -77 252 -66Q244 -55 249 -33L254 -13Q120 7 65.5 102.5Q11 198 33 375Q58 573 154 670.5Q250 768 424 768Q439 768 456.5 767Q474 766 491.5 764Q509 762 525 759Q541 756 552 753Q589 741 598 719Q607 697 603 666L598 623Q593 586 571 565Q549 544 510 552Q494 555 474 557.5Q454 560 426 560Q396 560 369.5 551Q343 542 322 521Q301 500 286.5 464.5Q272 429 266 375Q259 321 265 285.5Q271 250 286.5 229Q302 208 326.5 199Q351 190 381 190Q409 190 429.5 192.5Q450 195 467 198Q508 206 525 185Q542 164 537 127L532 84Q528 52 514 30Q500 8 459 -3Q439 -8 408 -12Q377 -16 349 -17L348 -31Q348 -42 355 -44Q398 -56 424 -80Q450 -104 446 -145Q439 -198 391.5 -224Q344 -250 269 -250Q237 -250 218.5 -247Q200 -244 192 -242Q175 -238 168 -224.5Q161 -211 163 -192L164 -180Q166 -159 178.5 -147Q191 -135 209 -135Q216 -135 229.5 -137Q243 -139 252 -139Z" glyph-name="Ccedilla" horiz-adv-x="564" unicode="&#199;" /><glyph d="M476 900Q504 900 521 898.5Q538 897 555 886L628 842Q637 836 641 827.5Q645 819 643 810.5Q641 802 634 796Q627 790 614 790H510Q496 790 485.5 791Q475 792 466.5 794Q458 796 449.5 800Q441 804 431 810L412 821L391 810Q368 798 351 794Q334 790 306 790H218Q205 790 197.5 796.5Q190 803 188 811.5Q186 820 189.5 828.5Q193 837 202 842L285 886Q295 891 302.5 894Q310 897 317.5 898.5Q325 900 334.5 900Q344 900 358 900ZM33 375Q58 573 154 670.5Q250 768 424 768Q439 768 456.5 767Q474 766 491.5 764Q509 762 525 759Q541 756 552 753Q589 741 598 719Q607 697 603 666L598 623Q593 586 571 565Q549 544 510 552Q494 555 474 557.5Q454 560 426 560Q396 560 369.5 551Q343 542 322 521Q301 500 286.5 464.5Q272 429 266 375Q259 321 265 285.5Q271 250 286.5 229Q302 208 326.5 199Q351 190 381 190Q409 190 429.5 192.5Q450 195 467 198Q508 206 525 185Q542 164 537 127L532 84Q528 52 514 30.5Q500 9 459 -3Q447 -6 430.5 -9Q414 -12 396 -14Q378 -16 360 -17Q342 -18 327 -18Q153 -18 81 79.5Q9 177 33 375Z" glyph-name="Ccircumflex" horiz-adv-x="564" unicode="&#264;" /><glyph d="M33 375Q58 573 154 670.5Q250 768 424 768Q439 768 456.5 767Q474 766 491.5 764Q509 762 525 759Q541 756 552 753Q589 741 598 719Q607 697 603 666L598 623Q593 586 571 565Q549 544 510 552Q494 555 474 557.5Q454 560 426 560Q396 560 369.5 551Q343 542 322 521Q301 500 286.5 464.5Q272 429 266 375Q259 321 265 285.5Q271 250 286.5 229Q302 208 326.5 199Q351 190 381 190Q409 190 429.5 192.5Q450 195 467 198Q508 206 525 185Q542 164 537 127L532 84Q528 52 514 30.5Q500 9 459 -3Q447 -6 430.5 -9Q414 -12 396 -14Q378 -16 360 -17Q342 -18 327 -18Q153 -18 81 79.5Q9 177 33 375ZM297 845Q302 883 330 896.5Q358 910 423 910Q488 910 513 896.5Q538 883 533 845Q528 806 500 793Q472 780 407 780Q342 780 317 793Q292 806 297 845Z" glyph-name="Cdotaccent" horiz-adv-x="564" unicode="&#266;" /><glyph d="M255 197H291Q321 197 341 207.5Q361 218 374.5 239.5Q388 261 396 294.5Q404 328 410 375Q416 421 415.5 455Q415 489 407 510.5Q399 532 381.5 542.5Q364 553 334 553H298ZM79 0Q-1 0 8 80L81 670Q91 750 171 750H360Q462 750 523 721Q584 692 614.5 642Q645 592 650.5 523Q656 454 646 375Q636 295 614 226.5Q592 158 549 108Q506 58 438 29Q370 0 268 0Z" glyph-name="D" horiz-adv-x="647" unicode="D" /><glyph d="M304 790Q276 790 259 791.5Q242 793 225 804L152 848Q143 854 139 862.5Q135 871 137 879.5Q139 888 146 894Q153 900 166 900H270Q298 900 313.5 896Q329 892 349 880L368 869L389 880Q401 886 410 890Q419 894 428.5 896Q438 898 449 899Q460 900 474 900H562Q575 900 582.5 893.5Q590 887 592 878.5Q594 870 590.5 861.5Q587 853 578 848L495 804Q485 799 477.5 796Q470 793 462.5 791.5Q455 790 445.5 790Q436 790 422 790ZM255 197H291Q321 197 341 207.5Q361 218 374.5 239.5Q388 261 396 294.5Q404 328 410 375Q416 421 415.5 455Q415 489 407 510.5Q399 532 381.5 542.5Q364 553 334 553H298ZM79 0Q-1 0 8 80L81 670Q91 750 171 750H360Q462 750 523 721Q584 692 614.5 642Q645 592 650.5 523Q656 454 646 375Q636 295 614 226.5Q592 158 549 108Q506 58 438 29Q370 0 268 0Z" glyph-name="Dcaron" horiz-adv-x="647" unicode="&#270;" /><glyph d="M326 455H360Q420 455 413 395L411 375Q403 315 343 315H309L295 197H331Q361 197 381 207.5Q401 218 414.5 239.5Q428 261 436 294.5Q444 328 450 375Q456 421 455.5 455Q455 489 447 510.5Q439 532 421.5 542.5Q404 553 374 553H338ZM94 455 121 670Q131 750 211 750H400Q502 750 563 721Q624 692 654.5 642Q685 592 690.5 523Q696 454 686 375Q676 295 654 226.5Q632 158 589 108Q546 58 478 29Q410 0 308 0H119Q39 0 48 80L77 315H63Q3 315 11 375L13 395Q20 455 80 455Z" glyph-name="Dcroat" horiz-adv-x="687" unicode="&#272;" /><glyph d="M254 200H553L441 504ZM41 0Q-21 0 -13 60L-8 102Q-6 112 -2 125.5Q2 139 10 153L349 695Q361 714 371 727.5Q381 741 392 750Q403 759 417.5 763.5Q432 768 452 768H496Q516 768 529.5 763.5Q543 759 552 750Q561 741 567.5 727.5Q574 714 581 695L786 153Q791 139 792.5 125.5Q794 112 792 102L787 60Q779 0 719 0Z" glyph-name="Delta" horiz-adv-x="820" unicode="&#8710;" /><glyph d="M81 670Q91 750 171 750H541Q621 750 611 670L606 630Q596 550 516 550H298L290 485H480Q560 485 550 405L545 365Q536 285 455 285H265L255 200H473Q553 200 543 120L538 80Q529 0 449 0H79Q-2 0 8 80Z" glyph-name="E" horiz-adv-x="582" unicode="E" /><glyph d="M480 900Q493 900 503.5 895Q514 890 519 881.5Q524 873 521 861Q518 849 504 836L480 813Q464 797 450.5 793.5Q437 790 410 790H336Q310 790 299 806Q288 822 298 847L301 854Q313 883 329 891.5Q345 900 373 900ZM81 670Q91 750 171 750H541Q621 750 611 670L606 630Q596 550 516 550H298L290 485H480Q560 485 550 405L545 365Q536 285 455 285H265L255 200H473Q553 200 543 120L538 80Q529 0 449 0H79Q-1 0 8 80Z" glyph-name="Eacute" horiz-adv-x="584" unicode="&#201;" /><glyph d="M81 670Q91 750 171 750H541Q621 750 611 670L606 630Q596 550 516 550H298L290 485H480Q560 485 550 405L545 365Q536 285 455 285H265L255 200H473Q553 200 543 120L538 80Q529 0 449 0H79Q-1 0 8 80ZM367 780Q275 780 234 796.5Q193 813 189 848Q183 900 228 900H271Q288 900 294.5 895Q301 890 306 880Q311 870 325 864.5Q339 859 377 859Q415 859 430.5 864.5Q446 870 454 880Q461 890 468.5 895Q476 900 493 900H536Q581 900 563 848Q550 813 504.5 796.5Q459 780 367 780Z" glyph-name="Ebreve" horiz-adv-x="584" unicode="&#276;" /><glyph d="M314 790Q286 790 269 791.5Q252 793 235 804L162 848Q153 854 149 862.5Q145 871 147 879.5Q149 888 156 894Q163 900 176 900H280Q308 900 323.5 896Q339 892 359 880L378 869L399 880Q411 886 420 890Q429 894 438.5 896Q448 898 459 899Q470 900 484 900H572Q585 900 592.5 893.5Q600 887 602 878.5Q604 870 600.5 861.5Q597 853 588 848L505 804Q495 799 487.5 796Q480 793 472.5 791.5Q465 790 455.5 790Q446 790 432 790ZM81 670Q91 750 171 750H541Q621 750 611 670L606 630Q596 550 516 550H298L290 485H480Q560 485 550 405L545 365Q536 285 455 285H265L255 200H473Q553 200 543 120L538 80Q529 0 449 0H79Q-1 0 8 80Z" glyph-name="Ecaron" horiz-adv-x="584" unicode="&#282;" /><glyph d="M436 900Q464 900 481 898.5Q498 897 515 886L588 842Q597 836 601 827.5Q605 819 603 810.5Q601 802 594 796Q587 790 574 790H470Q456 790 445.5 791Q435 792 426.5 794Q418 796 409.5 800Q401 804 391 810L372 821L351 810Q328 798 311 794Q294 790 266 790H178Q165 790 157.5 796.5Q150 803 148 811.5Q146 820 149.5 828.5Q153 837 162 842L245 886Q255 891 262.5 894Q270 897 277.5 898.5Q285 900 294.5 900Q304 900 318 900ZM81 670Q91 750 171 750H541Q621 750 611 670L606 630Q596 550 516 550H298L290 485H480Q560 485 550 405L545 365Q536 285 455 285H265L255 200H473Q553 200 543 120L538 80Q529 0 449 0H79Q-1 0 8 80Z" glyph-name="Ecircumflex" horiz-adv-x="584" unicode="&#202;" /><glyph d="M81 670Q91 750 171 750H541Q621 750 611 670L606 630Q596 550 516 550H298L290 485H480Q560 485 550 405L545 365Q536 285 455 285H265L255 200H473Q553 200 543 120L538 80Q529 0 449 0H79Q-1 0 8 80ZM390 845Q395 883 423 896.5Q451 910 516 910Q581 910 606 896.5Q631 883 626 845Q621 806 593 793Q565 780 500 780Q435 780 410 793Q385 806 390 845ZM124 845Q129 883 157 896.5Q185 910 250 910Q315 910 340 896.5Q365 883 360 845Q355 806 327 793Q299 780 234 780Q169 780 144 793Q119 806 124 845Z" glyph-name="Edieresis" horiz-adv-x="584" unicode="&#203;" /><glyph d="M81 670Q91 750 171 750H541Q621 750 611 670L606 630Q596 550 516 550H298L290 485H480Q560 485 550 405L545 365Q536 285 455 285H265L255 200H473Q553 200 543 120L538 80Q529 0 449 0H79Q-1 0 8 80ZM257 845Q262 883 290 896.5Q318 910 383 910Q448 910 473 896.5Q498 883 493 845Q488 806 460 793Q432 780 367 780Q302 780 277 793Q252 806 257 845Z" glyph-name="Edotaccent" horiz-adv-x="584" unicode="&#278;" /><glyph d="M391 900Q419 900 432.5 891.5Q446 883 451 854L452 847Q456 822 444 806Q432 790 406 790H326Q299 790 287 793.5Q275 797 262 813L244 836Q226 859 234.5 879.5Q243 900 269 900ZM81 670Q91 750 171 750H541Q621 750 611 670L606 630Q596 550 516 550H298L290 485H480Q560 485 550 405L545 365Q536 285 455 285H265L255 200H473Q553 200 543 120L538 80Q529 0 449 0H79Q-1 0 8 80Z" glyph-name="Egrave" horiz-adv-x="584" unicode="&#200;" /><glyph d="M81 670Q91 750 171 750H541Q621 750 611 670L606 630Q596 550 516 550H298L290 485H480Q560 485 550 405L545 365Q536 285 455 285H265L255 200H473Q553 200 543 120L538 80Q529 0 449 0H79Q-1 0 8 80ZM263 790Q211 790 218 843V847Q225 900 277 900H487Q539 900 532 847V843Q525 790 473 790Z" glyph-name="Emacron" horiz-adv-x="584" unicode="&#274;" /><glyph d="M360 -268Q307 -268 287 -253Q267 -238 271 -204L282 -120Q284 -100 298 -88Q312 -76 333 -76Q352 -76 364.5 -65.5Q377 -55 379 -36L385 13V14L264 331L233 80Q224 0 144 0H79Q-1 0 8 80L81 670Q91 750 171 750H249Q279 750 298.5 739Q318 728 329 699L436 419L467 670Q477 750 557 750H622Q702 750 692 670L620 90Q620 87 619.5 84.5Q619 82 619 80L603 -53Q590 -162 528.5 -215Q467 -268 360 -268Z" glyph-name="Eng" horiz-adv-x="669" unicode="&#330;" /><glyph d="M465 -136Q474 -136 478.5 -135.5Q483 -135 490 -135Q508 -135 517 -149Q526 -163 524 -184L523 -190Q521 -209 509.5 -223.5Q498 -238 476 -243Q466 -245 449 -247.5Q432 -250 400 -250Q318 -250 278.5 -216Q239 -182 246 -127Q251 -87 271.5 -56.5Q292 -26 327 0H79Q-1 0 8 80L81 670Q91 750 171 750H541Q621 750 611 670L606 630Q596 550 516 550H298L290 485H480Q560 485 550 405L545 365Q536 285 455 285H265L255 200H473Q553 200 543 120L538 80Q532 28 497 9Q453 -15 433 -42Q413 -69 410 -95Q408 -112 418.5 -124Q429 -136 465 -136Z" glyph-name="Eogonek" horiz-adv-x="584" unicode="&#280;" /><glyph d="M326 455H360Q420 455 413 395L411 375Q403 315 343 315H309L295 197H331Q361 197 381 207.5Q401 218 414.5 239.5Q428 261 436 294.5Q444 328 450 375Q456 421 455.5 455Q455 489 447 510.5Q439 532 421.5 542.5Q404 553 374 553H338ZM94 455 121 670Q131 750 211 750H400Q502 750 563 721Q624 692 654.5 642Q685 592 690.5 523Q696 454 686 375Q676 295 654 226.5Q632 158 589 108Q546 58 478 29Q410 0 308 0H119Q39 0 48 80L77 315H63Q3 315 11 375L13 395Q20 455 80 455Z" glyph-name="Eth" horiz-adv-x="687" unicode="&#208;" /><glyph d="M65 250Q40 250 29.5 261Q19 272 23 298L25 312Q29 338 41.5 349Q54 360 79 360H86L89 390H82Q57 390 46.5 401Q36 412 40 438L42 452Q46 478 58.5 489Q71 500 96 500H113Q195 768 479 768Q494 768 511.5 767Q529 766 546.5 764Q564 762 580 759Q596 756 607 753Q644 741 653 719Q662 697 658 666L653 623Q648 586 626 565Q604 544 565 552Q549 555 529 557.5Q509 560 481 560Q443 560 412.5 546.5Q382 533 360 500H521Q529 500 537 497.5Q545 495 549.5 489Q554 483 554.5 473.5Q555 464 548 451L537 429Q527 409 515 399.5Q503 390 480 390H322L319 360H454Q462 360 470 357.5Q478 355 482.5 349Q487 343 487.5 333.5Q488 324 481 311L470 289Q460 269 448 259.5Q436 250 413 250H329Q343 217 370.5 203.5Q398 190 436 190Q464 190 484.5 192.5Q505 195 522 198Q563 206 580 185Q597 164 592 127L587 84Q583 52 569 30.5Q555 9 514 -3Q502 -6 485.5 -9Q469 -12 451 -14Q433 -16 415 -17Q397 -18 382 -18Q98 -18 82 250Z" glyph-name="Euro" horiz-adv-x="619" unicode="&#8364;" /><glyph d="M65 250Q40 250 29.5 261Q19 272 23 298L25 312Q29 338 41.5 349Q54 360 79 360H86L89 390H82Q57 390 46.5 401Q36 412 40 438L42 452Q46 478 58.5 489Q71 500 96 500H113Q195 768 479 768Q494 768 511.5 767Q529 766 546.5 764Q564 762 580 759Q596 756 607 753Q644 741 653 719Q662 697 658 666L653 623Q648 586 626 565Q604 544 565 552Q549 555 529 557.5Q509 560 481 560Q443 560 412.5 546.5Q382 533 360 500H521Q529 500 537 497.5Q545 495 549.5 489Q554 483 554.5 473.5Q555 464 548 451L537 429Q527 409 515 399.5Q503 390 480 390H322L319 360H454Q462 360 470 357.5Q478 355 482.5 349Q487 343 487.5 333.5Q488 324 481 311L470 289Q460 269 448 259.5Q436 250 413 250H329Q343 217 370.5 203.5Q398 190 436 190Q464 190 484.5 192.5Q505 195 522 198Q563 206 580 185Q597 164 592 127L587 84Q583 52 569 30.5Q555 9 514 -3Q502 -6 485.5 -9Q469 -12 451 -14Q433 -16 415 -17Q397 -18 382 -18Q98 -18 82 250Z" glyph-name="Euro.LP" horiz-adv-x="619" unicode="&#58657;" /><glyph d="M465 239Q454 219 442.5 209.5Q431 200 408 200H297Q305 183 327 174Q349 165 390 165Q400 165 414 166Q428 167 443 168.5Q458 170 472 172Q486 174 496 176Q524 183 537 173Q550 163 546 133L537 58Q533 29 516.5 16Q500 3 467 -5Q455 -8 438 -10.5Q421 -13 403 -14.5Q385 -16 367 -17Q349 -18 334 -18Q259 -18 207 -2.5Q155 13 123.5 41.5Q92 70 78 110Q64 150 64 200H60Q35 200 24.5 211Q14 222 18 248L19 255Q23 281 35.5 292Q48 303 73 303H78Q90 351 114 391Q138 431 176.5 459Q215 487 270 502.5Q325 518 400 518Q415 518 432.5 517Q450 516 468 514.5Q486 513 502 510.5Q518 508 530 505Q561 497 574.5 484Q588 471 584 442L575 367Q571 337 555.5 327Q540 317 514 324Q505 326 491.5 328Q478 330 463.5 331.5Q449 333 435 334Q421 335 411 335Q372 335 348.5 326.5Q325 318 311 303H446Q463 303 475 292Q487 281 473 254Z" glyph-name="Euro.OP" horiz-adv-x="579" /><glyph d="M432 239Q421 219 409.5 209.5Q398 200 375 200H315Q321 180 349 173Q377 166 409 166Q432 166 451 167.5Q470 169 491 174Q523 181 538.5 166Q554 151 551 125L542 55Q540 38 530 20.5Q520 3 494 -3Q480 -6 466 -9Q452 -12 435.5 -14Q419 -16 399 -17Q379 -18 354 -18Q290 -18 239 -5.5Q188 7 152 33.5Q116 60 95.5 101Q75 142 72 200H59Q34 200 23.5 211Q13 222 17 248L18 255Q22 281 34.5 292Q47 303 72 303H75L77 323H74Q49 323 38.5 334Q28 345 32 371L33 378Q37 404 49.5 415Q62 426 87 426H100Q135 542 221 593Q307 644 436 644Q487 644 516 640Q545 636 572 629Q596 623 602 605.5Q608 588 606 571L597 501Q594 475 575 460Q556 445 525 452Q505 457 486.5 458.5Q468 460 445 460Q413 460 383.5 453Q354 446 343 426H472Q489 426 501 415Q513 404 499 377L491 362Q480 342 468.5 332.5Q457 323 434 323H304L302 303H413Q430 303 442 292Q454 281 440 254Z" glyph-name="Euro.hybrid" horiz-adv-x="579" /><glyph d="M81 670Q91 750 171 750H536Q616 750 606 670L601 630Q591 550 511 550H298L288 465H473Q553 465 543 385L538 345Q528 265 448 265H263L240 80Q231 0 151 0H79Q-2 0 8 80Z" glyph-name="F" horiz-adv-x="569" unicode="F" /><glyph d="M573 543Q546 549 512.5 554.5Q479 560 426 560Q353 560 315 514Q277 468 265 374Q258 317 263 279Q268 241 283 217.5Q298 194 321.5 184.5Q345 175 377 175H379L392 285H388Q308 285 320 365L323 385Q329 427 350 446Q371 465 413 465H567Q647 465 637 385L601 95Q598 74 590 60Q582 46 571 36.5Q560 27 548.5 21.5Q537 16 527 13Q501 4 451.5 -7Q402 -18 327 -18Q-16 -18 33 375Q81 768 424 768Q490 768 537 761Q584 754 615 744Q652 732 661 710Q670 688 666 657L661 614Q656 577 633.5 555.5Q611 534 573 543Z" glyph-name="G" horiz-adv-x="649" unicode="G" /><glyph d="M573 543Q546 549 512.5 554.5Q479 560 426 560Q353 560 315 514Q277 468 265 374Q258 317 263 279Q268 241 283 217.5Q298 194 321.5 184.5Q345 175 377 175H379L392 285H388Q346 285 330.5 304Q315 323 320 365L323 385Q333 465 413 465H567Q647 465 637 385L601 95Q598 74 590 60Q582 46 571 36.5Q560 27 548.5 21.5Q537 16 527 13Q501 4 451.5 -7Q402 -18 327 -18Q-16 -18 33 375Q81 768 424 768Q490 768 537 761Q584 754 615 744Q652 732 661 710Q670 688 666 657L661 614Q656 577 633.5 555.5Q611 534 573 543ZM419 780Q327 780 286 796.5Q245 813 241 848Q235 900 280 900H323Q340 900 346.5 895Q353 890 358 880Q363 870 377 864.5Q391 859 429 859Q467 859 482.5 864.5Q498 870 506 880Q513 890 520.5 895Q528 900 545 900H588Q633 900 615 848Q602 813 556.5 796.5Q511 780 419 780Z" glyph-name="Gbreve" horiz-adv-x="649" unicode="&#286;" /><glyph d="M488 900Q516 900 533 898.5Q550 897 567 886L640 842Q649 836 653 827.5Q657 819 655 810.5Q653 802 646 796Q639 790 626 790H522Q508 790 497.5 791Q487 792 478.5 794Q470 796 461.5 800Q453 804 443 810L424 821L403 810Q380 798 363 794Q346 790 318 790H230Q217 790 209.5 796.5Q202 803 200 811.5Q198 820 201.5 828.5Q205 837 214 842L297 886Q307 891 314.5 894Q322 897 329.5 898.5Q337 900 346.5 900Q356 900 370 900ZM573 543Q546 549 512.5 554.5Q479 560 426 560Q353 560 315 514Q277 468 265 374Q258 317 263 279Q268 241 283 217.5Q298 194 321.5 184.5Q345 175 377 175H379L392 285H388Q346 285 330.5 304Q315 323 320 365L323 385Q333 465 413 465H567Q647 465 637 385L601 95Q598 74 590 60Q582 46 571 36.5Q560 27 548.5 21.5Q537 16 527 13Q501 4 451.5 -7Q402 -18 327 -18Q-16 -18 33 375Q81 768 424 768Q490 768 537 761Q584 754 615 744Q652 732 661 710Q670 688 666 657L661 614Q656 577 633.5 555.5Q611 534 573 543Z" glyph-name="Gcircumflex" horiz-adv-x="649" unicode="&#284;" /><glyph d="M353 -50Q372 -50 383.5 -57.5Q395 -65 399.5 -76.5Q404 -88 401.5 -102Q399 -116 390 -130L347 -197Q327 -229 311.5 -239.5Q296 -250 268 -250H236Q207 -250 191 -235Q175 -220 183 -189L204 -108Q213 -76 232.5 -63Q252 -50 280 -50ZM573 543Q546 549 512.5 554.5Q479 560 426 560Q353 560 315 514Q277 468 265 374Q258 317 263 279Q268 241 283 217.5Q298 194 321.5 184.5Q345 175 377 175H379L392 285H388Q346 285 330.5 304Q315 323 320 365L323 385Q333 465 413 465H567Q647 465 637 385L601 95Q598 74 590 60Q582 46 571 36.5Q560 27 548.5 21.5Q537 16 527 13Q501 4 451.5 -7Q402 -18 327 -18Q-16 -18 33 375Q81 768 424 768Q490 768 537 761Q584 754 615 744Q652 732 661 710Q670 688 666 657L661 614Q656 577 633.5 555.5Q611 534 573 543Z" glyph-name="Gcommaaccent" horiz-adv-x="649" unicode="&#290;" /><glyph d="M573 543Q546 549 512.5 554.5Q479 560 426 560Q353 560 315 514Q277 468 265 374Q258 317 263 279Q268 241 283 217.5Q298 194 321.5 184.5Q345 175 377 175H379L392 285H388Q346 285 330.5 304Q315 323 320 365L323 385Q333 465 413 465H567Q647 465 637 385L601 95Q598 74 590 60Q582 46 571 36.5Q560 27 548.5 21.5Q537 16 527 13Q501 4 451.5 -7Q402 -18 327 -18Q-16 -18 33 375Q81 768 424 768Q490 768 537 761Q584 754 615 744Q652 732 661 710Q670 688 666 657L661 614Q656 577 633.5 555.5Q611 534 573 543ZM309 845Q314 883 342 896.5Q370 910 435 910Q500 910 525 896.5Q550 883 545 845Q540 806 512 793Q484 780 419 780Q354 780 329 793Q304 806 309 845Z" glyph-name="Gdotaccent" horiz-adv-x="649" unicode="&#288;" /><glyph d="M445 670Q455 750 535 750H607Q687 750 677 670L604 80Q595 0 515 0H443Q363 0 372 80L397 285H265L240 80Q231 0 151 0H79Q-1 0 8 80L81 670Q91 750 171 750H243Q323 750 313 670L290 485H422Z" glyph-name="H" horiz-adv-x="654" unicode="H" /><glyph d="M429 547H297L290 485H422ZM243 750Q315 750 314 687H448Q463 750 535 750H607Q687 750 677 670L604 80Q595 0 515 0H443Q363 0 372 80L397 285H265L240 80Q231 0 151 0H79Q-1 0 8 80L81 670Q91 750 171 750Z" glyph-name="Hbar" horiz-adv-x="654" unicode="&#294;" /><glyph d="M461 900Q489 900 506 898.5Q523 897 540 886L613 842Q622 836 626 827.5Q630 819 628 810.5Q626 802 619 796Q612 790 599 790H495Q481 790 470.5 791Q460 792 451.5 794Q443 796 434.5 800Q426 804 416 810L397 821L376 810Q353 798 336 794Q319 790 291 790H203Q190 790 182.5 796.5Q175 803 173 811.5Q171 820 174.5 828.5Q178 837 187 842L270 886Q280 891 287.5 894Q295 897 302.5 898.5Q310 900 319.5 900Q329 900 343 900ZM445 670Q455 750 535 750H607Q687 750 677 670L604 80Q595 0 515 0H443Q363 0 372 80L397 285H265L240 80Q231 0 151 0H79Q-1 0 8 80L81 670Q91 750 171 750H243Q323 750 313 670L290 485H422Z" glyph-name="Hcircumflex" horiz-adv-x="654" unicode="&#292;" /><glyph d="M81 670Q91 750 171 750H243Q323 750 313 670L240 80Q231 0 151 0H79Q-2 0 8 80Z" glyph-name="I" horiz-adv-x="290" unicode="I" /><glyph d="M374 182Q401 182 415 196Q429 210 433 239L486 670Q496 750 576 750H648Q728 750 718 670L657 178Q645 79 579.5 30.5Q514 -18 384 -18Q361 -18 336 -14Q311 -10 298 -4Q275 7 267.5 24.5Q260 42 264 71L270 115Q276 157 297.5 173.5Q319 190 348 185Q353 184 360 183Q367 182 374 182ZM81 670Q91 750 171 750H243Q323 750 313 670L240 80Q231 0 151 0H79Q-2 0 8 80Z" glyph-name="IJ" horiz-adv-x="690" unicode="&#306;" /><glyph d="M323 900Q336 900 346.5 895Q357 890 362 881.5Q367 873 364 861Q361 849 347 836L323 813Q307 797 293.5 793.5Q280 790 253 790H179Q153 790 142 806Q131 822 141 847L144 854Q156 883 172 891.5Q188 900 216 900ZM81 670Q91 750 171 750H243Q323 750 313 670L240 80Q231 0 151 0H79Q-2 0 8 80Z" glyph-name="Iacute" horiz-adv-x="290" unicode="&#205;" /><glyph d="M81 670Q91 750 171 750H243Q323 750 313 670L240 80Q231 0 151 0H79Q-2 0 8 80ZM210 780Q118 780 77 796.5Q36 813 32 848Q26 900 71 900H114Q131 900 137.5 895Q144 890 149 880Q154 870 168 864.5Q182 859 220 859Q258 859 273.5 864.5Q289 870 297 880Q304 890 311.5 895Q319 900 336 900H379Q424 900 406 848Q393 813 347.5 796.5Q302 780 210 780Z" glyph-name="Ibreve" horiz-adv-x="290" unicode="&#300;" /><glyph d="M279 900Q307 900 324 898.5Q341 897 358 886L431 842Q440 836 444 827.5Q448 819 446 810.5Q444 802 437 796Q430 790 417 790H313Q299 790 288.5 791Q278 792 269.5 794Q261 796 252.5 800Q244 804 234 810L215 821L194 810Q171 798 154 794Q137 790 109 790H21Q8 790 0.5 796.5Q-7 803 -9 811.5Q-11 820 -7.5 828.5Q-4 837 5 842L88 886Q98 891 105.5 894Q113 897 120.5 898.5Q128 900 137.5 900Q147 900 161 900ZM81 670Q91 750 171 750H243Q323 750 313 670L240 80Q231 0 151 0H79Q-2 0 8 80Z" glyph-name="Icircumflex" horiz-adv-x="290" unicode="&#206;" /><glyph d="M81 670Q91 750 171 750H243Q323 750 313 670L240 80Q231 0 151 0H79Q-2 0 8 80ZM233 845Q238 883 266 896.5Q294 910 359 910Q424 910 449 896.5Q474 883 469 845Q464 806 436 793Q408 780 343 780Q278 780 253 793Q228 806 233 845ZM-32 845Q-28 883 0 896.5Q28 910 93 910Q158 910 183 896.5Q208 883 203 845Q198 806 170 793Q142 780 77 780Q12 780 -12.5 793Q-37 806 -32 845Z" glyph-name="Idieresis" horiz-adv-x="290" unicode="&#207;" /><glyph d="M81 670Q91 750 171 750H243Q323 750 313 670L240 80Q231 0 151 0H79Q-2 0 8 80ZM100 845Q105 883 133 896.5Q161 910 226 910Q291 910 316 896.5Q341 883 336 845Q331 806 303 793Q275 780 210 780Q145 780 120 793Q95 806 100 845Z" glyph-name="Idotaccent" horiz-adv-x="290" unicode="&#304;" /><glyph d="M234 900Q262 900 275.5 891.5Q289 883 294 854L295 847Q299 822 287 806Q275 790 249 790H169Q142 790 130 793.5Q118 797 105 813L87 836Q69 859 77.5 879.5Q86 900 112 900ZM81 670Q91 750 171 750H243Q323 750 313 670L240 80Q231 0 151 0H79Q-2 0 8 80Z" glyph-name="Igrave" horiz-adv-x="290" unicode="&#204;" /><glyph d="M81 670Q91 750 171 750H243Q323 750 313 670L240 80Q231 0 151 0H79Q-2 0 8 80ZM106 790Q54 790 61 843V847Q68 900 120 900H330Q382 900 375 847V843Q368 790 316 790Z" glyph-name="Imacron" horiz-adv-x="290" unicode="&#298;" /><glyph d="M240 80Q237 51 226 33.5Q215 16 195 6Q149 -17 132 -43.5Q115 -70 112 -95Q110 -112 120.5 -124Q131 -136 167 -136Q176 -136 180.5 -135.5Q185 -135 192 -135Q210 -135 219 -149Q228 -163 226 -184L225 -190Q223 -209 211.5 -223.5Q200 -238 178 -243Q168 -245 151 -247.5Q134 -250 102 -250Q20 -250 -19 -216Q-58 -182 -51 -127Q-44 -71 -5 -31L81 670Q91 750 171 750H243Q323 750 313 670Z" glyph-name="Iogonek" horiz-adv-x="290" unicode="&#302;" /><glyph d="M81 670Q91 750 171 750H243Q323 750 313 670L240 80Q231 0 151 0H79Q-2 0 8 80ZM310 780Q279 780 254 785Q229 790 208 796Q187 802 170 807Q153 812 138 812Q119 812 109 803Q102 797 95 793.5Q88 790 71 790H20Q-3 790 -10.5 803.5Q-18 817 -8 843Q8 883 41.5 896.5Q75 910 126 910Q157 910 182 905Q207 900 228 894Q249 888 266 883Q283 878 298 878Q318 878 327 887Q334 893 341 896.5Q348 900 365 900H416Q439 900 447 886.5Q455 873 444 847Q429 807 395 793.5Q361 780 310 780Z" glyph-name="Itilde" horiz-adv-x="290" unicode="&#296;" /><glyph d="M88 182Q115 182 129 196Q143 210 147 239L200 670Q210 750 290 750H362Q442 750 432 670L371 178Q359 79 293.5 30.5Q228 -18 98 -18Q75 -18 50 -14Q25 -10 12 -4Q-11 7 -18.5 24.5Q-26 42 -22 71L-16 115Q-10 157 11.5 173.5Q33 190 62 185Q67 184 74 183Q81 182 88 182Z" glyph-name="J" horiz-adv-x="404" unicode="J" /><glyph d="M398 900Q426 900 443 898.5Q460 897 477 886L550 842Q559 836 563 827.5Q567 819 565 810.5Q563 802 556 796Q549 790 536 790H432Q418 790 407.5 791Q397 792 388.5 794Q380 796 371.5 800Q363 804 353 810L334 821L313 810Q290 798 273 794Q256 790 228 790H140Q127 790 119.5 796.5Q112 803 110 811.5Q108 820 111.5 828.5Q115 837 124 842L207 886Q217 891 224.5 894Q232 897 239.5 898.5Q247 900 256.5 900Q266 900 280 900ZM88 182Q115 182 129 196Q143 210 147 239L200 670Q210 750 290 750H362Q442 750 432 670L371 178Q359 79 293.5 30.5Q228 -18 98 -18Q75 -18 50 -14Q25 -10 12 -4Q-11 7 -18.5 24.5Q-26 42 -22 71L-16 115Q-10 157 11.5 173.5Q33 190 62 185Q67 184 74 183Q81 182 88 182Z" glyph-name="Jcircumflex" horiz-adv-x="404" unicode="&#308;" /><glyph d="M288 472 435 681Q463 721 489 735.5Q515 750 551 750H663Q679 750 692.5 740.5Q706 731 711.5 715.5Q717 700 712 680Q707 660 687 638L482 415L637 126Q649 103 650 80.5Q651 58 642.5 40Q634 22 617.5 11Q601 0 578 0H477Q455 0 438.5 3.5Q422 7 408.5 15.5Q395 24 385 38.5Q375 53 367 75L271 327L240 80Q231 0 151 0H79Q-1 0 8 80L81 670Q91 750 171 750H243Q323 750 313 670Z" glyph-name="K" horiz-adv-x="678" unicode="K" /><glyph d="M336 -50Q355 -50 366.5 -57.5Q378 -65 382.5 -76.5Q387 -88 384.5 -102Q382 -116 373 -130L330 -197Q310 -229 294.5 -239.5Q279 -250 251 -250H219Q190 -250 174 -235Q158 -220 166 -189L187 -108Q196 -76 215.5 -63Q235 -50 263 -50ZM288 472 435 681Q463 721 489 735.5Q515 750 551 750H663Q679 750 692.5 740.5Q706 731 711.5 715.5Q717 700 712 680Q707 660 687 638L482 415L637 126Q649 103 650 80.5Q651 58 642.5 40Q634 22 617.5 11Q601 0 578 0H477Q455 0 438.5 3.5Q422 7 408.5 15.5Q395 24 385 38.5Q375 53 367 75L271 327L240 80Q231 0 151 0H79Q-1 0 8 80L81 670Q91 750 171 750H243Q323 750 313 670Z" glyph-name="Kcommaaccent" horiz-adv-x="678" unicode="&#310;" /><glyph d="M436 200Q516 200 506 120L501 80Q492 0 412 0H79Q-1 0 8 80L81 670Q91 750 171 750H243Q323 750 313 670L255 200Z" glyph-name="L" horiz-adv-x="530" unicode="L" /><glyph d="M321 900Q334 900 344.5 895Q355 890 360 881.5Q365 873 362 861Q359 849 345 836L321 813Q305 797 291.5 793.5Q278 790 251 790H177Q151 790 140 806Q129 822 139 847L142 854Q154 883 170 891.5Q186 900 214 900ZM436 200Q516 200 506 120L501 80Q492 0 412 0H79Q-1 0 8 80L81 670Q91 750 171 750H243Q323 750 313 670L255 200Z" glyph-name="Lacute" horiz-adv-x="530" unicode="&#313;" /><glyph d="M494 750Q505 750 515.5 746.5Q526 743 533 735Q540 727 540.5 714Q541 701 533 682L492 591Q484 573 471.5 561.5Q459 550 438 550H427Q406 550 396 562.5Q386 575 391 595L411 698Q416 721 428.5 735.5Q441 750 467 750ZM436 200Q516 200 506 120L501 80Q492 0 412 0H79Q-1 0 8 80L81 670Q91 750 171 750H243Q323 750 313 670L255 200Z" glyph-name="Lcaron" horiz-adv-x="530" unicode="&#317;" /><glyph d="M283 -50Q302 -50 313.5 -57.5Q325 -65 329.5 -76.5Q334 -88 331.5 -102Q329 -116 320 -130L277 -197Q257 -229 241.5 -239.5Q226 -250 198 -250H166Q137 -250 121 -235Q105 -220 113 -189L134 -108Q143 -76 162.5 -63Q182 -50 210 -50ZM436 200Q516 200 506 120L501 80Q492 0 412 0H79Q-1 0 8 80L81 670Q91 750 171 750H243Q323 750 313 670L255 200Z" glyph-name="Lcommaaccent" horiz-adv-x="530" unicode="&#315;" /><glyph d="M436 200Q516 200 506 120L501 80Q492 0 412 0H79Q-1 0 8 80L81 670Q91 750 171 750H243Q323 750 313 670L255 200ZM320 375Q320 399 329.5 420.5Q339 442 355 458Q371 474 392.5 483.5Q414 493 438 493Q462 493 483.5 483.5Q505 474 521 458Q537 442 546.5 420.5Q556 399 556 375Q556 351 546.5 329.5Q537 308 521 292Q505 276 483.5 266.5Q462 257 438 257Q414 257 392.5 266.5Q371 276 355 292Q339 308 329.5 329.5Q320 351 320 375Z" glyph-name="Ldot" horiz-adv-x="554" unicode="&#319;" /><glyph d="M81 350 121 670Q131 750 211 750H283Q363 750 353 670L326 453L455 507Q469 513 481 506.5Q493 500 491 483L483 419Q481 399 473.5 388.5Q466 378 450 371L309 312L295 200H476Q556 200 546 120L541 80Q532 0 452 0H119Q39 0 48 80L64 209L27 194Q13 188 1 194.5Q-11 201 -9 218L-1 282Q1 302 8.5 312.5Q16 323 32 330Z" glyph-name="Lslash" horiz-adv-x="570" unicode="&#321;" /><glyph d="M389 85Q359 85 336.5 98.5Q314 112 309 147L271 397L232 80Q223 0 143 0H79Q-1 0 8 80L81 670Q91 750 171 750H329Q359 750 380 735.5Q401 721 405 691L445 352L567 691Q578 721 603.5 735.5Q629 750 659 750H817Q897 750 887 670L814 80Q805 0 725 0H661Q581 0 590 80L629 397L531 147Q517 112 491 98.5Q465 85 435 85Z" glyph-name="M" horiz-adv-x="864" unicode="M" /><glyph d="M452 0Q422 0 402 11Q382 22 371 51L264 331L233 80Q224 0 144 0H79Q-1 0 8 80L81 670Q91 750 171 750H249Q279 750 298.5 739Q318 728 329 699L436 419L467 670Q477 750 557 750H622Q702 750 692 670L619 80Q610 0 530 0Z" glyph-name="N" horiz-adv-x="669" unicode="N" /><glyph d="M512 900Q525 900 535.5 895Q546 890 551 881.5Q556 873 553 861Q550 849 536 836L512 813Q496 797 482.5 793.5Q469 790 442 790H368Q342 790 331 806Q320 822 330 847L333 854Q345 883 361 891.5Q377 900 405 900ZM452 0Q422 0 402 11Q382 22 371 51L264 331L233 80Q224 0 144 0H79Q-1 0 8 80L81 670Q91 750 171 750H249Q279 750 298.5 739Q318 728 329 699L436 419L467 670Q477 750 557 750H622Q702 750 692 670L619 80Q610 0 530 0Z" glyph-name="Nacute" horiz-adv-x="669" unicode="&#323;" /><glyph d="M346 790Q318 790 301 791.5Q284 793 267 804L194 848Q185 854 181 862.5Q177 871 179 879.5Q181 888 188 894Q195 900 208 900H312Q340 900 355.5 896Q371 892 391 880L410 869L431 880Q443 886 452 890Q461 894 470.5 896Q480 898 491 899Q502 900 516 900H604Q617 900 624.5 893.5Q632 887 634 878.5Q636 870 632.5 861.5Q629 853 620 848L537 804Q527 799 519.5 796Q512 793 504.5 791.5Q497 790 487.5 790Q478 790 464 790ZM452 0Q422 0 402 11Q382 22 371 51L264 331L233 80Q224 0 144 0H79Q-1 0 8 80L81 670Q91 750 171 750H249Q279 750 298.5 739Q318 728 329 699L436 419L467 670Q477 750 557 750H622Q702 750 692 670L619 80Q610 0 530 0Z" glyph-name="Ncaron" horiz-adv-x="669" unicode="&#327;" /><glyph d="M333 -50Q352 -50 363.5 -57.5Q375 -65 379.5 -76.5Q384 -88 381.5 -102Q379 -116 370 -130L327 -197Q307 -229 291.5 -239.5Q276 -250 248 -250H216Q187 -250 171 -235Q155 -220 163 -189L184 -108Q193 -76 212.5 -63Q232 -50 260 -50ZM452 0Q422 0 402 11Q382 22 371 51L264 331L233 80Q224 0 144 0H79Q-1 0 8 80L81 670Q91 750 171 750H249Q279 750 298.5 739Q318 728 329 699L436 419L467 670Q477 750 557 750H622Q702 750 692 670L619 80Q610 0 530 0Z" glyph-name="Ncommaaccent" horiz-adv-x="669" unicode="&#325;" /><glyph d="M452 0Q422 0 402 11Q382 22 371 51L264 331L233 80Q224 0 144 0H79Q-1 0 8 80L81 670Q91 750 171 750H249Q279 750 298.5 739Q318 728 329 699L436 419L467 670Q477 750 557 750H622Q702 750 692 670L619 80Q610 0 530 0ZM499 780Q468 780 443 785Q418 790 397 796Q376 802 359 807Q342 812 327 812Q308 812 298 803Q291 797 284 793.5Q277 790 260 790H209Q186 790 178.5 803.5Q171 817 181 843Q197 883 230.5 896.5Q264 910 315 910Q346 910 371 905Q396 900 417 894Q438 888 455 883Q472 878 487 878Q507 878 516 887Q523 893 530 896.5Q537 900 554 900H605Q628 900 636 886.5Q644 873 633 847Q618 807 584 793.5Q550 780 499 780Z" glyph-name="Ntilde" horiz-adv-x="669" unicode="&#209;" /><glyph d="M417 375Q424 435 425.5 472.5Q427 510 421 530.5Q415 551 401.5 558.5Q388 566 366 566Q343 566 328 558.5Q313 551 302 530.5Q291 510 283.5 472.5Q276 435 269 375Q261 315 259.5 277.5Q258 240 264 219.5Q270 199 283 191.5Q296 184 319 184Q341 184 356.5 191.5Q372 199 383 219.5Q394 240 401.5 277.5Q409 315 417 375ZM653 375Q641 283 620 210Q599 137 559 86.5Q519 36 455 9Q391 -18 294 -18Q196 -18 139 9Q82 36 54.5 86.5Q27 137 24 210Q21 283 33 375Q44 467 65 540Q86 613 126 663.5Q166 714 229.5 741Q293 768 391 768Q488 768 545.5 741Q603 714 630.5 663.5Q658 613 661 540Q664 467 653 375Z" glyph-name="O" horiz-adv-x="654" unicode="O" /><glyph d="M380 200 423 550H388Q358 550 338 540Q318 530 305 509Q292 488 284 454.5Q276 421 270 375Q264 328 264 295Q264 262 272 241Q280 220 297.5 210Q315 200 345 200ZM647 485H837Q917 485 907 405L902 365Q893 285 812 285H622L612 200H830Q910 200 900 120L895 80Q886 0 806 0H319Q217 0 156 29Q95 58 64.5 108Q34 158 28.5 226.5Q23 295 33 375Q43 454 65 523Q87 592 130 642Q173 692 241 721Q309 750 411 750H898Q978 750 968 670L963 630Q953 550 873 550H655Z" glyph-name="OE" horiz-adv-x="941" unicode="&#338;" /><glyph d="M505 900Q518 900 528.5 895Q539 890 544 881.5Q549 873 546 861Q543 849 529 836L505 813Q489 797 475.5 793.5Q462 790 435 790H361Q335 790 324 806Q313 822 323 847L326 854Q338 883 354 891.5Q370 900 398 900ZM417 375Q424 435 425.5 472.5Q427 510 421 530.5Q415 551 401.5 558.5Q388 566 366 566Q343 566 328 558.5Q313 551 302 530.5Q291 510 283.5 472.5Q276 435 269 375Q261 315 259.5 277.5Q258 240 264 219.5Q270 199 283 191.5Q296 184 319 184Q341 184 356.5 191.5Q372 199 383 219.5Q394 240 401.5 277.5Q409 315 417 375ZM653 375Q641 283 620 210Q599 137 559 86.5Q519 36 455 9Q391 -18 294 -18Q196 -18 139 9Q82 36 54.5 86.5Q27 137 24 210Q21 283 33 375Q44 467 65 540Q86 613 126 663.5Q166 714 229.5 741Q293 768 391 768Q488 768 545.5 741Q603 714 630.5 663.5Q658 613 661 540Q664 467 653 375Z" glyph-name="Oacute" horiz-adv-x="654" unicode="&#211;" /><glyph d="M417 375Q424 435 425.5 472.5Q427 510 421 530.5Q415 551 401.5 558.5Q388 566 366 566Q343 566 328 558.5Q313 551 302 530.5Q291 510 283.5 472.5Q276 435 269 375Q261 315 259.5 277.5Q258 240 264 219.5Q270 199 283 191.5Q296 184 319 184Q341 184 356.5 191.5Q372 199 383 219.5Q394 240 401.5 277.5Q409 315 417 375ZM653 375Q641 283 620 210Q599 137 559 86.5Q519 36 455 9Q391 -18 294 -18Q196 -18 139 9Q82 36 54.5 86.5Q27 137 24 210Q21 283 33 375Q44 467 65 540Q86 613 126 663.5Q166 714 229.5 741Q293 768 391 768Q488 768 545.5 741Q603 714 630.5 663.5Q658 613 661 540Q664 467 653 375ZM392 780Q300 780 259 796.5Q218 813 214 848Q208 900 253 900H296Q313 900 319.5 895Q326 890 331 880Q336 870 350 864.5Q364 859 402 859Q440 859 455.5 864.5Q471 870 479 880Q486 890 493.5 895Q501 900 518 900H561Q606 900 588 848Q575 813 529.5 796.5Q484 780 392 780Z" glyph-name="Obreve" horiz-adv-x="654" unicode="&#334;" /><glyph d="M461 900Q489 900 506 898.5Q523 897 540 886L613 842Q622 836 626 827.5Q630 819 628 810.5Q626 802 619 796Q612 790 599 790H495Q481 790 470.5 791Q460 792 451.5 794Q443 796 434.5 800Q426 804 416 810L397 821L376 810Q353 798 336 794Q319 790 291 790H203Q190 790 182.5 796.5Q175 803 173 811.5Q171 820 174.5 828.5Q178 837 187 842L270 886Q280 891 287.5 894Q295 897 302.5 898.5Q310 900 319.5 900Q329 900 343 900ZM417 375Q424 435 425.5 472.5Q427 510 421 530.5Q415 551 401.5 558.5Q388 566 366 566Q343 566 328 558.5Q313 551 302 530.5Q291 510 283.5 472.5Q276 435 269 375Q261 315 259.5 277.5Q258 240 264 219.5Q270 199 283 191.5Q296 184 319 184Q341 184 356.5 191.5Q372 199 383 219.5Q394 240 401.5 277.5Q409 315 417 375ZM653 375Q641 283 620 210Q599 137 559 86.5Q519 36 455 9Q391 -18 294 -18Q196 -18 139 9Q82 36 54.5 86.5Q27 137 24 210Q21 283 33 375Q44 467 65 540Q86 613 126 663.5Q166 714 229.5 741Q293 768 391 768Q488 768 545.5 741Q603 714 630.5 663.5Q658 613 661 540Q664 467 653 375Z" glyph-name="Ocircumflex" horiz-adv-x="654" unicode="&#212;" /><glyph d="M417 375Q424 435 425.5 472.5Q427 510 421 530.5Q415 551 401.5 558.5Q388 566 366 566Q343 566 328 558.5Q313 551 302 530.5Q291 510 283.5 472.5Q276 435 269 375Q261 315 259.5 277.5Q258 240 264 219.5Q270 199 283 191.5Q296 184 319 184Q341 184 356.5 191.5Q372 199 383 219.5Q394 240 401.5 277.5Q409 315 417 375ZM653 375Q641 283 620 210Q599 137 559 86.5Q519 36 455 9Q391 -18 294 -18Q196 -18 139 9Q82 36 54.5 86.5Q27 137 24 210Q21 283 33 375Q44 467 65 540Q86 613 126 663.5Q166 714 229.5 741Q293 768 391 768Q488 768 545.5 741Q603 714 630.5 663.5Q658 613 661 540Q664 467 653 375ZM415 845Q420 883 448 896.5Q476 910 541 910Q606 910 631 896.5Q656 883 651 845Q646 806 618 793Q590 780 525 780Q460 780 435 793Q410 806 415 845ZM149 845Q154 883 182 896.5Q210 910 275 910Q340 910 365 896.5Q390 883 385 845Q380 806 352 793Q324 780 259 780Q194 780 169 793Q144 806 149 845Z" glyph-name="Odieresis" horiz-adv-x="654" unicode="&#214;" /><glyph d="M416 900Q444 900 457.5 891.5Q471 883 476 854L477 847Q481 822 469 806Q457 790 431 790H351Q324 790 312 793.5Q300 797 287 813L269 836Q251 859 259.5 879.5Q268 900 294 900ZM417 375Q424 435 425.5 472.5Q427 510 421 530.5Q415 551 401.5 558.5Q388 566 366 566Q343 566 328 558.5Q313 551 302 530.5Q291 510 283.5 472.5Q276 435 269 375Q261 315 259.5 277.5Q258 240 264 219.5Q270 199 283 191.5Q296 184 319 184Q341 184 356.5 191.5Q372 199 383 219.5Q394 240 401.5 277.5Q409 315 417 375ZM653 375Q641 283 620 210Q599 137 559 86.5Q519 36 455 9Q391 -18 294 -18Q196 -18 139 9Q82 36 54.5 86.5Q27 137 24 210Q21 283 33 375Q44 467 65 540Q86 613 126 663.5Q166 714 229.5 741Q293 768 391 768Q488 768 545.5 741Q603 714 630.5 663.5Q658 613 661 540Q664 467 653 375Z" glyph-name="Ograve" horiz-adv-x="654" unicode="&#210;" /><glyph d="M585 900Q598 900 608.5 895Q619 890 624 881.5Q629 873 626 861Q623 849 609 836L585 813Q569 797 555.5 793.5Q542 790 515 790H471Q445 790 434 806Q423 822 433 847L436 854Q448 883 464 891.5Q480 900 508 900ZM385 900Q398 900 408.5 895Q419 890 424 881.5Q429 873 426 861Q423 849 409 836L385 813Q369 797 355.5 793.5Q342 790 315 790H271Q245 790 234 806Q223 822 233 847L236 854Q248 883 264 891.5Q280 900 308 900ZM417 375Q424 435 425.5 472.5Q427 510 421 530.5Q415 551 401.5 558.5Q388 566 366 566Q343 566 328 558.5Q313 551 302 530.5Q291 510 283.5 472.5Q276 435 269 375Q261 315 259.5 277.5Q258 240 264 219.5Q270 199 283 191.5Q296 184 319 184Q341 184 356.5 191.5Q372 199 383 219.5Q394 240 401.5 277.5Q409 315 417 375ZM653 375Q641 283 620 210Q599 137 559 86.5Q519 36 455 9Q391 -18 294 -18Q196 -18 139 9Q82 36 54.5 86.5Q27 137 24 210Q21 283 33 375Q44 467 65 540Q86 613 126 663.5Q166 714 229.5 741Q293 768 391 768Q488 768 545.5 741Q603 714 630.5 663.5Q658 613 661 540Q664 467 653 375Z" glyph-name="Ohungarumlaut" horiz-adv-x="654" unicode="&#336;" /><glyph d="M417 375Q424 435 425.5 472.5Q427 510 421 530.5Q415 551 401.5 558.5Q388 566 366 566Q343 566 328 558.5Q313 551 302 530.5Q291 510 283.5 472.5Q276 435 269 375Q261 315 259.5 277.5Q258 240 264 219.5Q270 199 283 191.5Q296 184 319 184Q341 184 356.5 191.5Q372 199 383 219.5Q394 240 401.5 277.5Q409 315 417 375ZM653 375Q641 283 620 210Q599 137 559 86.5Q519 36 455 9Q391 -18 294 -18Q196 -18 139 9Q82 36 54.5 86.5Q27 137 24 210Q21 283 33 375Q44 467 65 540Q86 613 126 663.5Q166 714 229.5 741Q293 768 391 768Q488 768 545.5 741Q603 714 630.5 663.5Q658 613 661 540Q664 467 653 375ZM288 790Q236 790 243 843V847Q250 900 302 900H512Q564 900 557 847V843Q550 790 498 790Z" glyph-name="Omacron" horiz-adv-x="654" unicode="&#332;" /><glyph d="M264 339 415 545Q407 557 395.5 561.5Q384 566 366 566Q343 566 328 558.5Q313 551 302 530.5Q291 510 283.5 472.5Q276 435 269 375ZM421 412 270 205Q277 193 289 188.5Q301 184 319 184Q341 184 356.5 191.5Q372 199 383 219.5Q394 240 401.5 277.5Q409 315 417 375ZM618 682Q655 631 660 553.5Q665 476 653 375Q641 283 620 210Q599 137 559 86.5Q519 36 455 9Q391 -18 294 -18Q240 -18 200 -10Q160 -2 129 14Q124 6 118.5 3Q113 0 100 0H48Q34 0 30.5 7.5Q27 15 38 31L66 68Q30 119 25 196.5Q20 274 33 375Q44 467 65 540Q86 613 126 663.5Q166 714 229.5 741Q293 768 391 768Q444 768 484 760Q524 752 555 736Q560 744 566 747Q572 750 585 750H637Q668 750 646 719Z" glyph-name="Oslash" horiz-adv-x="654" unicode="&#216;" /><glyph d="M417 375Q424 435 425.5 472.5Q427 510 421 530.5Q415 551 401.5 558.5Q388 566 366 566Q343 566 328 558.5Q313 551 302 530.5Q291 510 283.5 472.5Q276 435 269 375Q261 315 259.5 277.5Q258 240 264 219.5Q270 199 283 191.5Q296 184 319 184Q341 184 356.5 191.5Q372 199 383 219.5Q394 240 401.5 277.5Q409 315 417 375ZM653 375Q641 283 620 210Q599 137 559 86.5Q519 36 455 9Q391 -18 294 -18Q196 -18 139 9Q82 36 54.5 86.5Q27 137 24 210Q21 283 33 375Q44 467 65 540Q86 613 126 663.5Q166 714 229.5 741Q293 768 391 768Q488 768 545.5 741Q603 714 630.5 663.5Q658 613 661 540Q664 467 653 375ZM492 780Q461 780 436 785Q411 790 390 796Q369 802 352 807Q335 812 320 812Q301 812 291 803Q284 797 277 793.5Q270 790 253 790H202Q179 790 171.5 803.5Q164 817 174 843Q190 883 223.5 896.5Q257 910 308 910Q339 910 364 905Q389 900 410 894Q431 888 448 883Q465 878 480 878Q500 878 509 887Q516 893 523 896.5Q530 900 547 900H598Q621 900 629 886.5Q637 873 626 847Q611 807 577 793.5Q543 780 492 780Z" glyph-name="Otilde" horiz-adv-x="654" unicode="&#213;" /><glyph d="M281 427H337Q390 427 398 495Q407 563 354 563H298ZM238 80Q229 0 149 0H79Q-1 0 8 80L81 670Q91 750 171 750H370Q452 750 506 732.5Q560 715 590.5 682.5Q621 650 630.5 603Q640 556 633 497Q625 438 604 391Q583 344 544 311Q505 278 447 260.5Q389 243 307 243H258Z" glyph-name="P" horiz-adv-x="605" unicode="P" /><glyph d="M417 375Q424 435 425.5 472.5Q427 510 421 530.5Q415 551 401.5 558.5Q388 566 366 566Q343 566 328 558.5Q313 551 302 530.5Q291 510 283.5 472.5Q276 435 269 375Q261 315 259.5 277.5Q258 240 264 219.5Q270 199 283 191.5Q296 184 319 184Q341 184 356.5 191.5Q372 199 383 219.5Q394 240 401.5 277.5Q409 315 417 375ZM653 375Q639 270 614 191Q589 112 536 61L591 49Q635 39 647 12Q659 -15 654 -58L653 -69Q650 -93 638 -109.5Q626 -126 609 -135Q592 -144 571.5 -145Q551 -146 532 -138L165 -1Q113 18 82.5 51.5Q52 85 37.5 132.5Q23 180 23.5 240.5Q24 301 33 375Q44 467 65 540Q86 613 126 663.5Q166 714 229.5 741Q293 768 391 768Q488 768 545.5 741Q603 714 630.5 663.5Q658 613 661 540Q664 467 653 375Z" glyph-name="Q" horiz-adv-x="654" unicode="Q" /><glyph d="M280 440H343Q369 440 382 454.5Q395 469 399 498Q402 527 392.5 541.5Q383 556 357 556H294ZM235 80Q226 0 146 0H79Q-1 0 8 80L81 670Q91 750 171 750H390Q472 750 524.5 733Q577 716 605.5 684Q634 652 642.5 607Q651 562 644 505Q635 436 608.5 385Q582 334 528 302L598 130Q608 105 607 81.5Q606 58 596 40Q586 22 567.5 11Q549 0 524 0H456Q413 0 384.5 17.5Q356 35 346 80L306 260H257Z" glyph-name="R" horiz-adv-x="634" unicode="R" /><glyph d="M280 440H343Q369 440 382 454.5Q395 469 399 498Q402 527 392.5 541.5Q383 556 357 556H294ZM458 900Q471 900 481.5 895Q492 890 497 881.5Q502 873 499 861Q496 849 482 836L458 813Q442 797 428.5 793.5Q415 790 388 790H314Q288 790 277 806Q266 822 276 847L279 854Q291 883 307 891.5Q323 900 351 900ZM235 80Q226 0 146 0H79Q-1 0 8 80L81 670Q91 750 171 750H390Q472 750 524.5 733Q577 716 605.5 684Q634 652 642.5 607Q651 562 644 505Q635 436 608.5 385Q582 334 528 302L598 130Q608 105 607 81.5Q606 58 596 40Q586 22 567.5 11Q549 0 524 0H456Q413 0 384.5 17.5Q356 35 346 80L306 260H257Z" glyph-name="Racute" horiz-adv-x="634" unicode="&#340;" /><glyph d="M280 440H343Q369 440 382 454.5Q395 469 399 498Q402 527 392.5 541.5Q383 556 357 556H294ZM294 790Q266 790 249 791.5Q232 793 215 804L142 848Q133 854 129 862.5Q125 871 127 879.5Q129 888 136 894Q143 900 156 900H260Q288 900 303.5 896Q319 892 339 880L358 869L379 880Q391 886 400 890Q409 894 418.5 896Q428 898 439 899Q450 900 464 900H552Q565 900 572.5 893.5Q580 887 582 878.5Q584 870 580.5 861.5Q577 853 568 848L485 804Q475 799 467.5 796Q460 793 452.5 791.5Q445 790 435.5 790Q426 790 412 790ZM235 80Q226 0 146 0H79Q-1 0 8 80L81 670Q91 750 171 750H390Q472 750 524.5 733Q577 716 605.5 684Q634 652 642.5 607Q651 562 644 505Q635 436 608.5 385Q582 334 528 302L598 130Q608 105 607 81.5Q606 58 596 40Q586 22 567.5 11Q549 0 524 0H456Q413 0 384.5 17.5Q356 35 346 80L306 260H257Z" glyph-name="Rcaron" horiz-adv-x="634" unicode="&#344;" /><glyph d="M280 440H343Q369 440 382 454.5Q395 469 399 498Q402 527 392.5 541.5Q383 556 357 556H294ZM235 80Q226 0 146 0H79Q-1 0 8 80L81 670Q91 750 171 750H390Q472 750 524.5 733Q577 716 605.5 684Q634 652 642.5 607Q651 562 644 505Q635 436 608.5 385Q582 334 528 302L598 130Q608 105 607 81.5Q606 58 596 40Q586 22 567.5 11Q549 0 524 0H456Q413 0 384.5 17.5Q356 35 346 80L306 260H257ZM325 -50Q344 -50 355.5 -57.5Q367 -65 371.5 -76.5Q376 -88 373.5 -102Q371 -116 362 -130L319 -197Q299 -229 283.5 -239.5Q268 -250 240 -250H208Q179 -250 163 -235Q147 -220 155 -189L176 -108Q185 -76 204.5 -63Q224 -50 252 -50Z" glyph-name="Rcommaaccent" horiz-adv-x="634" unicode="&#342;" /><glyph d="M385 564Q284 564 278 518Q275 493 297.5 486Q320 479 353 475Q419 468 466.5 454.5Q514 441 543 415Q572 389 582 345.5Q592 302 584 235Q575 162 547.5 113.5Q520 65 475.5 35.5Q431 6 372 -6Q313 -18 243 -18Q177 -18 131 -10Q85 -2 51 12Q14 27 5 48.5Q-4 70 0 102L5 146Q7 164 15.5 179Q24 194 36.5 203.5Q49 213 65 215.5Q81 218 99 211Q131 199 166.5 192.5Q202 186 250 186Q302 186 328 196.5Q354 207 357 231Q360 257 337.5 266.5Q315 276 283 280Q216 287 168.5 299.5Q121 312 92 337.5Q63 363 53 405.5Q43 448 51 516Q65 635 148.5 701.5Q232 768 392 768Q446 768 491.5 761Q537 754 560 747Q598 735 607 713.5Q616 692 612 660L606 617Q604 599 597 583.5Q590 568 579 558Q568 548 553 544.5Q538 541 519 546Q499 551 465.5 557.5Q432 564 385 564Z" glyph-name="S" horiz-adv-x="600" unicode="S" /><glyph d="M486 900Q499 900 509.5 895Q520 890 525 881.5Q530 873 527 861Q524 849 510 836L486 813Q470 797 456.5 793.5Q443 790 416 790H342Q316 790 305 806Q294 822 304 847L307 854Q319 883 335 891.5Q351 900 379 900ZM385 564Q284 564 278 518Q275 493 297.5 486Q320 479 353 475Q419 468 466.5 454.5Q514 441 543 415Q572 389 582 345.5Q592 302 584 235Q575 162 547.5 113.5Q520 65 475.5 35.5Q431 6 372 -6Q313 -18 243 -18Q177 -18 131 -10Q85 -2 51 12Q14 27 5 48.5Q-4 70 0 102L5 146Q7 164 15.5 179Q24 194 36.5 203.5Q49 213 65 215.5Q81 218 99 211Q131 199 166.5 192.5Q202 186 250 186Q302 186 328 196.5Q354 207 357 231Q360 257 337.5 266.5Q315 276 283 280Q216 287 168.5 299.5Q121 312 92 337.5Q63 363 53 405.5Q43 448 51 516Q65 635 148.5 701.5Q232 768 392 768Q446 768 491.5 761Q537 754 560 747Q598 735 607 713.5Q616 692 612 660L606 617Q604 599 597 583.5Q590 568 579 558Q568 548 553 544.5Q538 541 519 546Q499 551 465.5 557.5Q432 564 385 564Z" glyph-name="Sacute" horiz-adv-x="600" unicode="&#346;" /><glyph d="M320 790Q292 790 275 791.5Q258 793 241 804L168 848Q159 854 155 862.5Q151 871 153 879.5Q155 888 162 894Q169 900 182 900H286Q314 900 329.5 896Q345 892 365 880L384 869L405 880Q417 886 426 890Q435 894 444.5 896Q454 898 465 899Q476 900 490 900H578Q591 900 598.5 893.5Q606 887 608 878.5Q610 870 606.5 861.5Q603 853 594 848L511 804Q501 799 493.5 796Q486 793 478.5 791.5Q471 790 461.5 790Q452 790 438 790ZM385 564Q284 564 278 518Q275 493 297.5 486Q320 479 353 475Q419 468 466.5 454.5Q514 441 543 415Q572 389 582 345.5Q592 302 584 235Q575 162 547.5 113.5Q520 65 475.5 35.5Q431 6 372 -6Q313 -18 243 -18Q177 -18 131 -10Q85 -2 51 12Q14 27 5 48.5Q-4 70 0 102L5 146Q7 164 15.5 179Q24 194 36.5 203.5Q49 213 65 215.5Q81 218 99 211Q131 199 166.5 192.5Q202 186 250 186Q302 186 328 196.5Q354 207 357 231Q360 257 337.5 266.5Q315 276 283 280Q216 287 168.5 299.5Q121 312 92 337.5Q63 363 53 405.5Q43 448 51 516Q65 635 148.5 701.5Q232 768 392 768Q446 768 491.5 761Q537 754 560 747Q598 735 607 713.5Q616 692 612 660L606 617Q604 599 597 583.5Q590 568 579 558Q568 548 553 544.5Q538 541 519 546Q499 551 465.5 557.5Q432 564 385 564Z" glyph-name="Scaron" horiz-adv-x="600" unicode="&#352;" /><glyph d="M211 -139Q237 -139 254.5 -132Q272 -125 274 -112Q276 -100 265.5 -92.5Q255 -85 241 -82Q219 -77 211 -66Q203 -55 208 -33L212 -17Q158 -15 119 -7.5Q80 0 51 12Q14 27 5 48.5Q-4 70 0 102L5 146Q7 164 15.5 179Q24 194 36.5 203.5Q49 213 65 215.5Q81 218 99 211Q131 199 166.5 192.5Q202 186 250 186Q302 186 328 196.5Q354 207 357 231Q360 257 337.5 266.5Q315 276 283 280Q216 287 168.5 299.5Q121 312 92 337.5Q63 363 53 405.5Q43 448 51 516Q65 635 148.5 701.5Q232 768 392 768Q446 768 491.5 761Q537 754 560 747Q598 735 607 713.5Q616 692 612 660L606 617Q604 599 597 583.5Q590 568 579 558Q568 548 553 544.5Q538 541 519 546Q499 551 465.5 557.5Q432 564 385 564Q284 564 278 518Q275 493 297.5 486Q320 479 353 475Q419 468 466.5 454.5Q514 441 543 415Q572 389 582 345.5Q592 302 584 235Q576 171 553.5 126Q531 81 495.5 51.5Q460 22 412.5 6Q365 -10 308 -15L307 -31Q307 -42 314 -44Q357 -56 383 -80Q409 -104 405 -145Q398 -198 350.5 -224Q303 -250 228 -250Q196 -250 177.5 -247Q159 -244 151 -242Q134 -238 127 -224.5Q120 -211 122 -192L123 -180Q125 -159 137.5 -147Q150 -135 168 -135Q175 -135 188.5 -137Q202 -139 211 -139Z" glyph-name="Scedilla" horiz-adv-x="600" unicode="&#350;" /><glyph d="M442 900Q470 900 487 898.5Q504 897 521 886L594 842Q603 836 607 827.5Q611 819 609 810.5Q607 802 600 796Q593 790 580 790H476Q462 790 451.5 791Q441 792 432.5 794Q424 796 415.5 800Q407 804 397 810L378 821L357 810Q334 798 317 794Q300 790 272 790H184Q171 790 163.5 796.5Q156 803 154 811.5Q152 820 155.5 828.5Q159 837 168 842L251 886Q261 891 268.5 894Q276 897 283.5 898.5Q291 900 300.5 900Q310 900 324 900ZM385 564Q284 564 278 518Q275 493 297.5 486Q320 479 353 475Q419 468 466.5 454.5Q514 441 543 415Q572 389 582 345.5Q592 302 584 235Q575 162 547.5 113.5Q520 65 475.5 35.5Q431 6 372 -6Q313 -18 243 -18Q177 -18 131 -10Q85 -2 51 12Q14 27 5 48.5Q-4 70 0 102L5 146Q7 164 15.5 179Q24 194 36.5 203.5Q49 213 65 215.5Q81 218 99 211Q131 199 166.5 192.5Q202 186 250 186Q302 186 328 196.5Q354 207 357 231Q360 257 337.5 266.5Q315 276 283 280Q216 287 168.5 299.5Q121 312 92 337.5Q63 363 53 405.5Q43 448 51 516Q65 635 148.5 701.5Q232 768 392 768Q446 768 491.5 761Q537 754 560 747Q598 735 607 713.5Q616 692 612 660L606 617Q604 599 597 583.5Q590 568 579 558Q568 548 553 544.5Q538 541 519 546Q499 551 465.5 557.5Q432 564 385 564Z" glyph-name="Scircumflex" horiz-adv-x="600" unicode="&#348;" /><glyph d="M296 -50Q315 -50 326.5 -57.5Q338 -65 342.5 -76.5Q347 -88 344.5 -102Q342 -116 333 -130L290 -197Q270 -229 254.5 -239.5Q239 -250 211 -250H179Q150 -250 134 -235Q118 -220 126 -189L147 -108Q156 -76 175.5 -63Q195 -50 223 -50ZM385 564Q284 564 278 518Q275 493 297.5 486Q320 479 353 475Q419 468 466.5 454.5Q514 441 543 415Q572 389 582 345.5Q592 302 584 235Q575 162 547.5 113.5Q520 65 475.5 35.5Q431 6 372 -6Q313 -18 243 -18Q177 -18 131 -10Q85 -2 51 12Q14 27 5 48.5Q-4 70 0 102L5 146Q7 164 15.5 179Q24 194 36.5 203.5Q49 213 65 215.5Q81 218 99 211Q131 199 166.5 192.5Q202 186 250 186Q302 186 328 196.5Q354 207 357 231Q360 257 337.5 266.5Q315 276 283 280Q216 287 168.5 299.5Q121 312 92 337.5Q63 363 53 405.5Q43 448 51 516Q65 635 148.5 701.5Q232 768 392 768Q446 768 491.5 761Q537 754 560 747Q598 735 607 713.5Q616 692 612 660L606 617Q604 599 597 583.5Q590 568 579 558Q568 548 553 544.5Q538 541 519 546Q499 551 465.5 557.5Q432 564 385 564Z" glyph-name="Scommaaccent" horiz-adv-x="600" unicode="&#536;" /><glyph d="M387 80Q378 0 298 0H226Q146 0 155 80L213 550H122Q42 550 52 630L57 670Q67 750 147 750H561Q641 750 631 670L626 630Q616 550 536 550H445Z" glyph-name="T" horiz-adv-x="584" unicode="T" /><glyph d="M201 455 213 550H122Q42 550 52 630L57 670Q67 750 147 750H561Q641 750 631 670L626 630Q616 550 536 550H445L433 455H477Q537 455 530 395L528 375Q520 315 460 315H416L387 80Q378 0 298 0H226Q146 0 155 80L184 315H140Q80 315 88 375L90 395Q97 455 157 455Z" glyph-name="Tbar" horiz-adv-x="584" unicode="&#358;" /><glyph d="M304 790Q276 790 259 791.5Q242 793 225 804L152 848Q143 854 139 862.5Q135 871 137 879.5Q139 888 146 894Q153 900 166 900H270Q298 900 313.5 896Q329 892 349 880L368 869L389 880Q401 886 410 890Q419 894 428.5 896Q438 898 449 899Q460 900 474 900H562Q575 900 582.5 893.5Q590 887 592 878.5Q594 870 590.5 861.5Q587 853 578 848L495 804Q485 799 477.5 796Q470 793 462.5 791.5Q455 790 445.5 790Q436 790 422 790ZM387 80Q378 0 298 0H226Q146 0 155 80L213 550H122Q42 550 52 630L57 670Q67 750 147 750H561Q641 750 631 670L626 630Q616 550 536 550H445Z" glyph-name="Tcaron" horiz-adv-x="584" unicode="&#356;" /><glyph d="M293 -50Q312 -50 323.5 -57.5Q335 -65 339.5 -76.5Q344 -88 341.5 -102Q339 -116 330 -130L287 -197Q267 -229 251.5 -239.5Q236 -250 208 -250H176Q147 -250 131 -235Q115 -220 123 -189L144 -108Q153 -76 172.5 -63Q192 -50 220 -50ZM387 80Q378 0 298 0H226Q146 0 155 80L213 550H122Q42 550 52 630L57 670Q67 750 147 750H561Q641 750 631 670L626 630Q616 550 536 550H445Z" glyph-name="Tcommaaccent" horiz-adv-x="584" unicode="&#354;" /><glyph d="M374 375Q376 396 367 414.5Q358 433 332 433H284L276 375L269 317H317Q343 317 357 335.5Q371 354 374 375ZM81 670Q91 750 171 750H243Q323 750 313 670L308 630H355Q437 630 490.5 608.5Q544 587 574.5 551.5Q605 516 614.5 470Q624 424 618 375Q612 326 590.5 280Q569 234 530 198.5Q491 163 432.5 141.5Q374 120 292 120H245L240 80Q231 0 151 0H79Q-1 0 8 80Z" glyph-name="Thorn" horiz-adv-x="611" unicode="&#222;" /><glyph d="M294 -18Q236 -18 183 -5.5Q130 7 91.5 37.5Q53 68 33.5 119.5Q14 171 24 250L76 670Q86 750 166 750H238Q318 750 308 670L259 271Q256 244 258.5 227Q261 210 269 200.5Q277 191 289.5 187.5Q302 184 319 184Q336 184 349.5 187.5Q363 191 373.5 200.5Q384 210 391 227Q398 244 401 271L450 670Q460 750 540 750H612Q692 750 682 670L630 250Q620 171 588 119.5Q556 68 510 37.5Q464 7 408 -5.5Q352 -18 294 -18Z" glyph-name="U" horiz-adv-x="654" unicode="U" /><glyph d="M505 900Q518 900 528.5 895Q539 890 544 881.5Q549 873 546 861Q543 849 529 836L505 813Q489 797 475.5 793.5Q462 790 435 790H361Q335 790 324 806Q313 822 323 847L326 854Q338 883 354 891.5Q370 900 398 900ZM294 -18Q236 -18 183 -5.5Q130 7 91.5 37.5Q53 68 33.5 119.5Q14 171 24 250L76 670Q86 750 166 750H238Q318 750 308 670L259 271Q256 244 258.5 227Q261 210 269 200.5Q277 191 289.5 187.5Q302 184 319 184Q336 184 349.5 187.5Q363 191 373.5 200.5Q384 210 391 227Q398 244 401 271L450 670Q460 750 540 750H612Q692 750 682 670L630 250Q620 171 588 119.5Q556 68 510 37.5Q464 7 408 -5.5Q352 -18 294 -18Z" glyph-name="Uacute" horiz-adv-x="654" unicode="&#218;" /><glyph d="M294 -18Q236 -18 183 -5.5Q130 7 91.5 37.5Q53 68 33.5 119.5Q14 171 24 250L76 670Q86 750 166 750H238Q318 750 308 670L259 271Q256 244 258.5 227Q261 210 269 200.5Q277 191 289.5 187.5Q302 184 319 184Q336 184 349.5 187.5Q363 191 373.5 200.5Q384 210 391 227Q398 244 401 271L450 670Q460 750 540 750H612Q692 750 682 670L630 250Q620 171 588 119.5Q556 68 510 37.5Q464 7 408 -5.5Q352 -18 294 -18ZM392 780Q300 780 259 796.5Q218 813 214 848Q208 900 253 900H296Q313 900 319.5 895Q326 890 331 880Q336 870 350 864.5Q364 859 402 859Q440 859 455.5 864.5Q471 870 479 880Q486 890 493.5 895Q501 900 518 900H561Q606 900 588 848Q575 813 529.5 796.5Q484 780 392 780Z" glyph-name="Ubreve" horiz-adv-x="654" unicode="&#364;" /><glyph d="M461 900Q489 900 506 898.5Q523 897 540 886L613 842Q622 836 626 827.5Q630 819 628 810.5Q626 802 619 796Q612 790 599 790H495Q481 790 470.5 791Q460 792 451.5 794Q443 796 434.5 800Q426 804 416 810L397 821L376 810Q353 798 336 794Q319 790 291 790H203Q190 790 182.5 796.5Q175 803 173 811.5Q171 820 174.5 828.5Q178 837 187 842L270 886Q280 891 287.5 894Q295 897 302.5 898.5Q310 900 319.5 900Q329 900 343 900ZM294 -18Q236 -18 183 -5.5Q130 7 91.5 37.5Q53 68 33.5 119.5Q14 171 24 250L76 670Q86 750 166 750H238Q318 750 308 670L259 271Q256 244 258.5 227Q261 210 269 200.5Q277 191 289.5 187.5Q302 184 319 184Q336 184 349.5 187.5Q363 191 373.5 200.5Q384 210 391 227Q398 244 401 271L450 670Q460 750 540 750H612Q692 750 682 670L630 250Q620 171 588 119.5Q556 68 510 37.5Q464 7 408 -5.5Q352 -18 294 -18Z" glyph-name="Ucircumflex" horiz-adv-x="654" unicode="&#219;" /><glyph d="M294 -18Q236 -18 183 -5.5Q130 7 91.5 37.5Q53 68 33.5 119.5Q14 171 24 250L76 670Q86 750 166 750H238Q318 750 308 670L259 271Q256 244 258.5 227Q261 210 269 200.5Q277 191 289.5 187.5Q302 184 319 184Q336 184 349.5 187.5Q363 191 373.5 200.5Q384 210 391 227Q398 244 401 271L450 670Q460 750 540 750H612Q692 750 682 670L630 250Q620 171 588 119.5Q556 68 510 37.5Q464 7 408 -5.5Q352 -18 294 -18ZM415 845Q420 883 448 896.5Q476 910 541 910Q606 910 631 896.5Q656 883 651 845Q646 806 618 793Q590 780 525 780Q460 780 435 793Q410 806 415 845ZM149 845Q154 883 182 896.5Q210 910 275 910Q340 910 365 896.5Q390 883 385 845Q380 806 352 793Q324 780 259 780Q194 780 169 793Q144 806 149 845Z" glyph-name="Udieresis" horiz-adv-x="654" unicode="&#220;" /><glyph d="M416 900Q444 900 457.5 891.5Q471 883 476 854L477 847Q481 822 469 806Q457 790 431 790H351Q324 790 312 793.5Q300 797 287 813L269 836Q251 859 259.5 879.5Q268 900 294 900ZM294 -18Q236 -18 183 -5.5Q130 7 91.5 37.5Q53 68 33.5 119.5Q14 171 24 250L76 670Q86 750 166 750H238Q318 750 308 670L259 271Q256 244 258.5 227Q261 210 269 200.5Q277 191 289.5 187.5Q302 184 319 184Q336 184 349.5 187.5Q363 191 373.5 200.5Q384 210 391 227Q398 244 401 271L450 670Q460 750 540 750H612Q692 750 682 670L630 250Q620 171 588 119.5Q556 68 510 37.5Q464 7 408 -5.5Q352 -18 294 -18Z" glyph-name="Ugrave" horiz-adv-x="654" unicode="&#217;" /><glyph d="M385 900Q398 900 408.5 895Q419 890 424 881.5Q429 873 426 861Q423 849 409 836L385 813Q369 797 355.5 793.5Q342 790 315 790H271Q245 790 234 806Q223 822 233 847L236 854Q248 883 264 891.5Q280 900 308 900ZM585 900Q598 900 608.5 895Q619 890 624 881.5Q629 873 626 861Q623 849 609 836L585 813Q569 797 555.5 793.5Q542 790 515 790H471Q445 790 434 806Q423 822 433 847L436 854Q448 883 464 891.5Q480 900 508 900ZM294 -18Q236 -18 183 -5.5Q130 7 91.5 37.5Q53 68 33.5 119.5Q14 171 24 250L76 670Q86 750 166 750H238Q318 750 308 670L259 271Q256 244 258.5 227Q261 210 269 200.5Q277 191 289.5 187.5Q302 184 319 184Q336 184 349.5 187.5Q363 191 373.5 200.5Q384 210 391 227Q398 244 401 271L450 670Q460 750 540 750H612Q692 750 682 670L630 250Q620 171 588 119.5Q556 68 510 37.5Q464 7 408 -5.5Q352 -18 294 -18Z" glyph-name="Uhungarumlaut" horiz-adv-x="654" unicode="&#368;" /><glyph d="M294 -18Q236 -18 183 -5.5Q130 7 91.5 37.5Q53 68 33.5 119.5Q14 171 24 250L76 670Q86 750 166 750H238Q318 750 308 670L259 271Q256 244 258.5 227Q261 210 269 200.5Q277 191 289.5 187.5Q302 184 319 184Q336 184 349.5 187.5Q363 191 373.5 200.5Q384 210 391 227Q398 244 401 271L450 670Q460 750 540 750H612Q692 750 682 670L630 250Q620 171 588 119.5Q556 68 510 37.5Q464 7 408 -5.5Q352 -18 294 -18ZM288 790Q236 790 243 843V847Q250 900 302 900H512Q564 900 557 847V843Q550 790 498 790Z" glyph-name="Umacron" horiz-adv-x="654" unicode="&#362;" /><glyph d="M366 -136Q375 -136 379.5 -135.5Q384 -135 391 -135Q409 -135 418 -149Q427 -163 425 -184L424 -190Q422 -209 410.5 -223.5Q399 -238 377 -243Q367 -245 350 -247.5Q333 -250 301 -250Q219 -250 179.5 -216Q140 -182 147 -127Q151 -94 168 -65.5Q185 -37 214 -12Q169 -5 130.5 12.5Q92 30 65.5 61Q39 92 27.5 138.5Q16 185 24 250L76 670Q86 750 166 750H238Q318 750 308 670L259 271Q256 244 258.5 227Q261 210 269 200.5Q277 191 289.5 187.5Q302 184 319 184Q336 184 349.5 187.5Q363 191 373.5 200.5Q384 210 391 227Q398 244 401 271L450 670Q460 750 540 750H612Q692 750 682 670L630 250Q623 195 605 153Q587 111 560.5 81Q534 51 500.5 31Q467 11 430 0Q370 -18 342 -43.5Q314 -69 311 -95Q309 -112 319.5 -124Q330 -136 366 -136Z" glyph-name="Uogonek" horiz-adv-x="654" unicode="&#370;" /><glyph d="M294 -18Q236 -18 183 -5.5Q130 7 91.5 37.5Q53 68 33.5 119.5Q14 171 24 250L76 670Q86 750 166 750H238Q318 750 308 670L259 271Q256 244 258.5 227Q261 210 269 200.5Q277 191 289.5 187.5Q302 184 319 184Q336 184 349.5 187.5Q363 191 373.5 200.5Q384 210 391 227Q398 244 401 271L450 670Q460 750 540 750H612Q692 750 682 670L630 250Q620 171 588 119.5Q556 68 510 37.5Q464 7 408 -5.5Q352 -18 294 -18ZM276 870Q279 893 287 910Q295 927 310.5 938Q326 949 351 954.5Q376 960 414 960Q489 960 512.5 938Q536 916 530 870Q527 847 519.5 830Q512 813 496 802Q480 791 454.5 785.5Q429 780 392 780Q354 780 330.5 785.5Q307 791 294 802Q281 813 277 830Q273 847 276 870ZM372 870Q371 860 376.5 856Q382 852 401 852Q420 852 426.5 856Q433 860 434 870Q436 880 430.5 884Q425 888 406 888Q387 888 380.5 884Q374 880 372 870Z" glyph-name="Uring" horiz-adv-x="654" unicode="&#366;" /><glyph d="M294 -18Q236 -18 183 -5.5Q130 7 91.5 37.5Q53 68 33.5 119.5Q14 171 24 250L76 670Q86 750 166 750H238Q318 750 308 670L259 271Q256 244 258.5 227Q261 210 269 200.5Q277 191 289.5 187.5Q302 184 319 184Q336 184 349.5 187.5Q363 191 373.5 200.5Q384 210 391 227Q398 244 401 271L450 670Q460 750 540 750H612Q692 750 682 670L630 250Q620 171 588 119.5Q556 68 510 37.5Q464 7 408 -5.5Q352 -18 294 -18ZM492 780Q461 780 436 785Q411 790 390 796Q369 802 352 807Q335 812 320 812Q301 812 291 803Q284 797 277 793.5Q270 790 253 790H202Q179 790 171.5 803.5Q164 817 174 843Q190 883 223.5 896.5Q257 910 308 910Q339 910 364 905Q389 900 410 894Q431 888 448 883Q465 878 480 878Q500 878 509 887Q516 893 523 896.5Q530 900 547 900H598Q621 900 629 886.5Q637 873 626 847Q611 807 577 793.5Q543 780 492 780Z" glyph-name="Utilde" horiz-adv-x="654" unicode="&#360;" /><glyph d="M230 0Q188 0 167 19Q146 38 139 80L59 646Q55 676 60 696Q65 716 76.5 728Q88 740 104.5 745Q121 750 139 750H217Q260 750 280.5 734.5Q301 719 303 675L326 279L445 675Q452 697 459.5 711.5Q467 726 478 734.5Q489 743 504.5 746.5Q520 750 541 750H619Q637 750 654 745Q671 740 681 728Q691 716 693 696Q695 676 683 646L463 80Q447 38 421.5 19Q396 0 354 0Z" glyph-name="V" horiz-adv-x="644" unicode="V" /><glyph d="M563 0Q483 0 479 80L464 425L363 80Q341 0 261 0H160Q118 0 98.5 19Q79 38 77 80L55 655Q54 685 61 703.5Q68 722 80 732.5Q92 743 107 746.5Q122 750 138 750H206Q249 750 268 732.5Q287 715 285 670L266 324L369 670Q383 715 405 732.5Q427 750 470 750H533Q576 750 596.5 732.5Q617 715 619 670L636 324L703 670Q711 715 732.5 732.5Q754 750 797 750H865Q881 750 896 746.5Q911 743 921.5 732.5Q932 722 935 703.5Q938 685 929 655L765 80Q754 38 730 19Q706 0 664 0Z" glyph-name="W" horiz-adv-x="884" unicode="W" /><glyph d="M576 900Q604 900 621 898.5Q638 897 655 886L728 842Q737 836 741 827.5Q745 819 743 810.5Q741 802 734 796Q727 790 714 790H610Q596 790 585.5 791Q575 792 566.5 794Q558 796 549.5 800Q541 804 531 810L512 821L491 810Q468 798 451 794Q434 790 406 790H318Q305 790 297.5 796.5Q290 803 288 811.5Q286 820 289.5 828.5Q293 837 302 842L385 886Q395 891 402.5 894Q410 897 417.5 898.5Q425 900 434.5 900Q444 900 458 900ZM563 0Q483 0 479 80L464 425L363 80Q341 0 261 0H160Q118 0 98.5 19Q79 38 77 80L55 655Q54 685 61 703.5Q68 722 80 732.5Q92 743 107 746.5Q122 750 138 750H206Q249 750 268 732.5Q287 715 285 670L266 324L369 670Q383 715 405 732.5Q427 750 470 750H533Q576 750 596.5 732.5Q617 715 619 670L636 324L703 670Q711 715 732.5 732.5Q754 750 797 750H865Q881 750 896 746.5Q911 743 921.5 732.5Q932 722 935 703.5Q938 685 929 655L765 80Q754 38 730 19Q706 0 664 0Z" glyph-name="Wcircumflex" horiz-adv-x="884" unicode="&#372;" /><glyph d="M251 82Q231 44 210 22Q189 0 149 0H42Q23 0 9 9Q-5 18 -12 33.5Q-19 49 -16.5 70Q-14 91 1 114L184 391L72 641Q61 666 62.5 686.5Q64 707 73.5 721Q83 735 98 742.5Q113 750 128 750H242Q278 750 298 733.5Q318 717 327 682L370 518L453 682Q471 717 493 733.5Q515 750 551 750H660Q675 750 690 742.5Q705 735 712.5 721Q720 707 718 686.5Q716 666 698 641L525 391L639 114Q649 91 648 70Q647 49 639 33.5Q631 18 616 9Q601 0 582 0H473Q434 0 414 21.5Q394 43 383 82L336 241Z" glyph-name="X" horiz-adv-x="674" unicode="X" /><glyph d="M432 80Q423 0 343 0H271Q191 0 200 80L226 286L67 637Q55 664 55.5 685Q56 706 65 720.5Q74 735 89.5 742.5Q105 750 123 750H223Q264 750 283.5 729.5Q303 709 314 675L368 499L464 675Q484 709 506.5 729.5Q529 750 570 750H665Q683 750 698.5 742.5Q714 735 721.5 720.5Q729 706 725.5 685Q722 664 703 637L458 286Z" glyph-name="Y" horiz-adv-x="674" unicode="Y" /><glyph d="M515 900Q528 900 538.5 895Q549 890 554 881.5Q559 873 556 861Q553 849 539 836L515 813Q499 797 485.5 793.5Q472 790 445 790H371Q345 790 334 806Q323 822 333 847L336 854Q348 883 364 891.5Q380 900 408 900ZM432 80Q423 0 343 0H271Q191 0 200 80L226 286L67 637Q55 664 55.5 685Q56 706 65 720.5Q74 735 89.5 742.5Q105 750 123 750H223Q264 750 283.5 729.5Q303 709 314 675L368 499L464 675Q484 709 506.5 729.5Q529 750 570 750H665Q683 750 698.5 742.5Q714 735 721.5 720.5Q729 706 725.5 685Q722 664 703 637L458 286Z" glyph-name="Yacute" horiz-adv-x="674" unicode="&#221;" /><glyph d="M471 900Q499 900 516 898.5Q533 897 550 886L623 842Q632 836 636 827.5Q640 819 638 810.5Q636 802 629 796Q622 790 609 790H505Q491 790 480.5 791Q470 792 461.5 794Q453 796 444.5 800Q436 804 426 810L407 821L386 810Q363 798 346 794Q329 790 301 790H213Q200 790 192.5 796.5Q185 803 183 811.5Q181 820 184.5 828.5Q188 837 197 842L280 886Q290 891 297.5 894Q305 897 312.5 898.5Q320 900 329.5 900Q339 900 353 900ZM432 80Q423 0 343 0H271Q191 0 200 80L226 286L67 637Q55 664 55.5 685Q56 706 65 720.5Q74 735 89.5 742.5Q105 750 123 750H223Q264 750 283.5 729.5Q303 709 314 675L368 499L464 675Q484 709 506.5 729.5Q529 750 570 750H665Q683 750 698.5 742.5Q714 735 721.5 720.5Q729 706 725.5 685Q722 664 703 637L458 286Z" glyph-name="Ycircumflex" horiz-adv-x="674" unicode="&#374;" /><glyph d="M432 80Q423 0 343 0H271Q191 0 200 80L226 286L67 637Q55 664 55.5 685Q56 706 65 720.5Q74 735 89.5 742.5Q105 750 123 750H223Q264 750 283.5 729.5Q303 709 314 675L368 499L464 675Q484 709 506.5 729.5Q529 750 570 750H665Q683 750 698.5 742.5Q714 735 721.5 720.5Q729 706 725.5 685Q722 664 703 637L458 286ZM425 845Q430 883 458 896.5Q486 910 551 910Q616 910 641 896.5Q666 883 661 845Q656 806 628 793Q600 780 535 780Q470 780 445 793Q420 806 425 845ZM159 845Q164 883 192 896.5Q220 910 285 910Q350 910 375 896.5Q400 883 395 845Q390 806 362 793Q334 780 269 780Q204 780 179 793Q154 806 159 845Z" glyph-name="Ydieresis" horiz-adv-x="674" unicode="&#376;" /><glyph d="M-14 94Q-12 110 -1.5 129Q9 148 26 169L326 545H141Q61 545 71 625L77 670Q87 750 167 750H571Q651 750 641 670L639 656Q637 640 626.5 621Q616 602 599 581L299 205H514Q594 205 584 125L578 80Q573 38 552 19Q531 0 489 0H55Q-28 0 -16 80Z" glyph-name="Z" horiz-adv-x="604" unicode="Z" /><glyph d="M480 900Q493 900 503.5 895Q514 890 519 881.5Q524 873 521 861Q518 849 504 836L480 813Q464 797 450.5 793.5Q437 790 410 790H336Q310 790 298.5 806Q287 822 298 847L301 854Q313 883 329 891.5Q345 900 373 900ZM-14 94Q-12 110 -1.5 129Q9 148 26 169L326 545H141Q61 545 71 625L77 670Q87 750 167 750H571Q651 750 641 670L639 656Q637 640 626.5 621Q616 602 599 581L299 205H514Q594 205 584 125L578 80Q573 38 552 19Q531 0 489 0H55Q-28 0 -16 80Z" glyph-name="Zacute" horiz-adv-x="624" unicode="&#377;" /><glyph d="M314 790Q286 790 269 791.5Q252 793 235 804L162 848Q153 854 149 862.5Q145 871 147 879.5Q149 888 156 894Q163 900 176 900H280Q308 900 323.5 896Q339 892 359 880L378 869L399 880Q411 886 420 890Q429 894 438.5 896Q448 898 459 899Q470 900 484 900H572Q585 900 592.5 893.5Q600 887 602 878.5Q604 870 600.5 861.5Q597 853 588 848L505 804Q495 799 487.5 796Q480 793 472.5 791.5Q465 790 455.5 790Q446 790 432 790ZM-14 94Q-12 110 -1.5 129Q9 148 26 169L326 545H141Q61 545 71 625L77 670Q87 750 167 750H571Q651 750 641 670L639 656Q637 640 626.5 621Q616 602 599 581L299 205H514Q594 205 584 125L578 80Q573 38 552 19Q531 0 489 0H55Q-28 0 -16 80Z" glyph-name="Zcaron" horiz-adv-x="624" unicode="&#381;" /><glyph d="M-14 94Q-12 110 -1.5 129Q9 148 26 169L326 545H141Q61 545 71 625L77 670Q87 750 167 750H571Q651 750 641 670L639 656Q637 640 626.5 621Q616 602 599 581L299 205H514Q594 205 584 125L578 80Q573 38 552 19Q531 0 489 0H55Q-28 0 -16 80ZM257 845Q262 883 290 896.5Q318 910 383 910Q448 910 473 896.5Q498 883 493 845Q488 806 460 793Q432 780 367 780Q302 780 277 793Q252 806 257 845Z" glyph-name="Zdotaccent" horiz-adv-x="624" unicode="&#379;" /><glyph d="M235 250Q231 219 231 199.5Q231 180 234.5 168.5Q238 157 245 153Q252 149 263 149Q274 149 284 152Q294 155 300 158L322 342Q317 345 308 348Q299 351 288 351Q277 351 269 347Q261 343 254.5 331.5Q248 320 243.5 300.5Q239 281 235 250ZM518 60Q510 0 451 0H399Q369 0 356 11.5Q343 23 338 42Q298 10 258 -4Q218 -18 176 -18Q127 -18 91.5 -4.5Q56 9 34.5 40.5Q13 72 6.5 123.5Q0 175 9 250Q18 325 37.5 376Q57 427 86 458.5Q115 490 154 504Q193 518 242 518Q284 518 320.5 504Q357 490 389 458Q399 477 414.5 488.5Q430 500 460 500H512Q571 500 565 440Z" glyph-name="a" horiz-adv-x="562" unicode="a" /><glyph d="M261 188H333L318 361ZM421 500Q463 500 483 481Q503 462 511 420L573 104Q584 50 565 25Q546 0 506 0H432Q389 0 367.5 16.5Q346 33 342 78H224Q210 33 188 16.5Q166 0 123 0H52Q12 0 -6 25Q-24 50 -1 104L139 420Q158 462 182.5 481Q207 500 249 500Z" glyph-name="a.smcp" horiz-adv-x="608" unicode="&#57857;" /><glyph d="M305 370Q302 340 271 340H240Q225 340 218.5 345.5Q212 351 210 361Q190 345 168 338Q146 331 126 331Q74 331 51 360.5Q28 390 38 465Q47 540 77 569.5Q107 599 159 599Q179 599 199 592Q219 585 235 569Q240 579 248 584.5Q256 590 271 590H302Q331 590 328 560ZM156 465Q151 433 155.5 423.5Q160 414 171 414Q176 414 182 415.5Q188 417 191 419L202 511Q194 515 184 515Q173 515 166.5 505.5Q160 496 156 465Z" glyph-name="a.superior" horiz-adv-x="296" unicode="&#58209;" /><glyph d="M426 750Q465 750 476.5 725Q488 700 466 670L411 597Q390 569 373 559.5Q356 550 327 550H302Q273 550 259 566.5Q245 583 256 611L285 692Q306 750 362 750ZM235 250Q231 219 231 199.5Q231 180 234.5 168.5Q238 157 245 153Q252 149 263 149Q274 149 284 152Q294 155 300 158L322 342Q317 345 308 348Q299 351 288 351Q277 351 269 347Q261 343 254.5 331.5Q248 320 243.5 300.5Q239 281 235 250ZM518 60Q510 0 451 0H399Q369 0 356 11.5Q343 23 338 42Q298 10 258 -4Q218 -18 176 -18Q127 -18 91.5 -4.5Q56 9 34.5 40.5Q13 72 6.5 123.5Q0 175 9 250Q18 325 37.5 376Q57 427 86 458.5Q115 490 154 504Q193 518 242 518Q284 518 320.5 504Q357 490 389 458Q399 477 414.5 488.5Q430 500 460 500H512Q571 500 565 440Z" glyph-name="aacute" horiz-adv-x="562" unicode="&#225;" /><glyph d="M460 750Q499 750 510.5 725Q522 700 500 670L445 597Q424 569 407 559.5Q390 550 361 550H336Q307 550 293 566.5Q279 583 290 611L319 692Q340 750 396 750ZM261 188H333L318 361ZM421 500Q463 500 483 481Q503 462 511 420L573 104Q584 50 565 25Q546 0 506 0H432Q389 0 367.5 16.5Q346 33 342 78H224Q210 33 188 16.5Q166 0 123 0H52Q12 0 -6 25Q-24 50 -1 104L139 420Q158 462 182.5 481Q207 500 249 500Z" glyph-name="aacute.smcp" horiz-adv-x="608" unicode="&#57889;" /><glyph d="M235 250Q231 219 231 199.5Q231 180 234.5 168.5Q238 157 245 153Q252 149 263 149Q274 149 284 152Q294 155 300 158L322 342Q317 345 308 348Q299 351 288 351Q277 351 269 347Q261 343 254.5 331.5Q248 320 243.5 300.5Q239 281 235 250ZM518 60Q510 0 451 0H399Q369 0 356 11.5Q343 23 338 42Q298 10 258 -4Q218 -18 176 -18Q127 -18 91.5 -4.5Q56 9 34.5 40.5Q13 72 6.5 123.5Q0 175 9 250Q18 325 37.5 376Q57 427 86 458.5Q115 490 154 504Q193 518 242 518Q284 518 320.5 504Q357 490 389 458Q399 477 414.5 488.5Q430 500 460 500H512Q571 500 565 440ZM307 550Q254 550 219.5 563Q185 576 165 597.5Q145 619 137 646.5Q129 674 130 704Q132 750 179 750H214Q234 750 243 743.5Q252 737 255 721Q259 702 273.5 691Q288 680 323 680Q358 680 375.5 691Q393 702 401 721Q409 737 419.5 743.5Q430 750 450 750H485Q533 750 522 704Q515 674 500.5 646.5Q486 619 460.5 597.5Q435 576 397 563Q359 550 307 550Z" glyph-name="abreve" horiz-adv-x="562" unicode="&#259;" /><glyph d="M261 188H333L318 361ZM421 500Q463 500 483 481Q503 462 511 420L573 104Q584 50 565 25Q546 0 506 0H432Q389 0 367.5 16.5Q346 33 342 78H224Q210 33 188 16.5Q166 0 123 0H52Q12 0 -6 25Q-24 50 -1 104L139 420Q158 462 182.5 481Q207 500 249 500ZM341 550Q288 550 253.5 563Q219 576 199 597.5Q179 619 171 646.5Q163 674 164 704Q166 750 213 750H248Q268 750 277 743.5Q286 737 289 721Q293 702 307.5 691Q322 680 357 680Q392 680 409.5 691Q427 702 435 721Q443 737 453.5 743.5Q464 750 484 750H519Q567 750 556 704Q549 674 534.5 646.5Q520 619 494.5 597.5Q469 576 431 563Q393 550 341 550Z" glyph-name="abreve.smcp" horiz-adv-x="608" unicode="&#57897;" /><glyph d="M235 250Q231 219 231 199.5Q231 180 234.5 168.5Q238 157 245 153Q252 149 263 149Q274 149 284 152Q294 155 300 158L322 342Q317 345 308 348Q299 351 288 351Q277 351 269 347Q261 343 254.5 331.5Q248 320 243.5 300.5Q239 281 235 250ZM372 750Q392 750 406.5 744.5Q421 739 435 722L518 623Q529 610 531.5 597Q534 584 530.5 573.5Q527 563 518 556.5Q509 550 497 550H406Q383 550 368 558Q353 566 338 583L315 611L284 583Q264 566 247.5 558Q231 550 208 550H135Q123 550 113 556.5Q103 563 98.5 573.5Q94 584 97 597Q100 610 114 623L221 722Q239 739 250.5 744.5Q262 750 282 750ZM518 60Q510 0 451 0H399Q369 0 356 11.5Q343 23 338 42Q298 10 258 -4Q218 -18 176 -18Q127 -18 91.5 -4.5Q56 9 34.5 40.5Q13 72 6.5 123.5Q0 175 9 250Q18 325 37.5 376Q57 427 86 458.5Q115 490 154 504Q193 518 242 518Q284 518 320.5 504Q357 490 389 458Q399 477 414.5 488.5Q430 500 460 500H512Q571 500 565 440Z" glyph-name="acircumflex" horiz-adv-x="562" unicode="&#226;" /><glyph d="M261 188H333L318 361ZM406 750Q426 750 440.5 744.5Q455 739 469 722L552 623Q563 610 565.5 597Q568 584 564.5 573.5Q561 563 552 556.5Q543 550 531 550H440Q417 550 402 558Q387 566 372 583L349 611L318 583Q298 566 281.5 558Q265 550 242 550H169Q157 550 147 556.5Q137 563 132.5 573.5Q128 584 131 597Q134 610 148 623L255 722Q273 739 284.5 744.5Q296 750 316 750ZM421 500Q463 500 483 481Q503 462 511 420L573 104Q584 50 565 25Q546 0 506 0H432Q389 0 367.5 16.5Q346 33 342 78H224Q210 33 188 16.5Q166 0 123 0H52Q12 0 -6 25Q-24 50 -1 104L139 420Q158 462 182.5 481Q207 500 249 500Z" glyph-name="acircumflex.smcp" horiz-adv-x="608" unicode="&#57891;" /><glyph d="M423 750Q462 750 473.5 725Q485 700 463 670L408 597Q387 569 370 559.5Q353 550 324 550H299Q270 550 256 566.5Q242 583 253 611L282 692Q303 750 359 750Z" glyph-name="acute" horiz-adv-x="534" unicode="&#180;" /><glyph d="M445 900Q458 900 468.5 895Q479 890 484 881.5Q489 873 486 861Q483 849 469 836L445 813Q429 797 415.5 793.5Q402 790 375 790H301Q275 790 264 806Q253 822 263 847L266 854Q278 883 294 891.5Q310 900 338 900Z" glyph-name="acute.cap" horiz-adv-x="534" unicode="&#58402;" /><glyph d="M235 250Q231 219 231 199.5Q231 180 234.5 168.5Q238 157 245 153Q252 149 263 149Q274 149 284 152Q294 155 300 158L322 342Q317 345 308 348Q299 351 288 351Q277 351 269 347Q261 343 254.5 331.5Q248 320 243.5 300.5Q239 281 235 250ZM518 60Q510 0 451 0H399Q369 0 356 11.5Q343 23 338 42Q298 10 258 -4Q218 -18 176 -18Q127 -18 91.5 -4.5Q56 9 34.5 40.5Q13 72 6.5 123.5Q0 175 9 250Q18 325 37.5 376Q57 427 86 458.5Q115 490 154 504Q193 518 242 518Q284 518 320.5 504Q357 490 389 458Q399 477 414.5 488.5Q430 500 460 500H512Q571 500 565 440ZM334 650Q334 674 343.5 695.5Q353 717 369 733Q385 749 406.5 758.5Q428 768 452 768Q476 768 497.5 758.5Q519 749 535 733Q551 717 560.5 695.5Q570 674 570 650Q570 626 560.5 604.5Q551 583 535 567Q519 551 497.5 541.5Q476 532 452 532Q428 532 406.5 541.5Q385 551 369 567Q353 583 343.5 604.5Q334 626 334 650ZM68 650Q68 674 77.5 695.5Q87 717 103 733Q119 749 140.5 758.5Q162 768 186 768Q210 768 231.5 758.5Q253 749 269 733Q285 717 294.5 695.5Q304 674 304 650Q304 626 294.5 604.5Q285 583 269 567Q253 551 231.5 541.5Q210 532 186 532Q162 532 140.5 541.5Q119 551 103 567Q87 583 77.5 604.5Q68 626 68 650Z" glyph-name="adieresis" horiz-adv-x="562" unicode="&#228;" /><glyph d="M261 188H333L318 361ZM421 500Q463 500 483 481Q503 462 511 420L573 104Q584 50 565 25Q546 0 506 0H432Q389 0 367.5 16.5Q346 33 342 78H224Q210 33 188 16.5Q166 0 123 0H52Q12 0 -6 25Q-24 50 -1 104L139 420Q158 462 182.5 481Q207 500 249 500ZM368 650Q368 674 377.5 695.5Q387 717 403 733Q419 749 440.5 758.5Q462 768 486 768Q510 768 531.5 758.5Q553 749 569 733Q585 717 594.5 695.5Q604 674 604 650Q604 626 594.5 604.5Q585 583 569 567Q553 551 531.5 541.5Q510 532 486 532Q462 532 440.5 541.5Q419 551 403 567Q387 583 377.5 604.5Q368 626 368 650ZM102 650Q102 674 111.5 695.5Q121 717 137 733Q153 749 174.5 758.5Q196 768 220 768Q244 768 265.5 758.5Q287 749 303 733Q319 717 328.5 695.5Q338 674 338 650Q338 626 328.5 604.5Q319 583 303 567Q287 551 265.5 541.5Q244 532 220 532Q196 532 174.5 541.5Q153 551 137 567Q121 583 111.5 604.5Q102 626 102 650Z" glyph-name="adieresis.smcp" horiz-adv-x="608" unicode="&#57892;" /><glyph d="M562 296Q581 296 589.5 307.5Q598 319 600 331Q602 343 595.5 354Q589 365 570 365Q541 365 526.5 349.5Q512 334 509 296ZM532 -18Q463 -18 417 -5.5Q371 7 342 33Q306 10 261.5 -4Q217 -18 147 -18Q59 -18 25 26.5Q-9 71 1 150Q6 193 23 222Q40 251 67 269Q94 287 132 296.5Q170 306 217 309L305 315L307 332Q309 344 298.5 352.5Q288 361 250 361Q218 361 183.5 355Q149 349 117 339Q99 333 86.5 335Q74 337 67 343.5Q60 350 57.5 359.5Q55 369 56 378L63 436Q68 480 115 493Q149 503 199 510.5Q249 518 313 518Q358 518 390.5 509Q423 500 446 486Q475 501 514 509.5Q553 518 595 518Q659 518 703 507.5Q747 497 772.5 476.5Q798 456 807 425Q816 394 811 354Q806 313 790 283.5Q774 254 743.5 234.5Q713 215 666.5 205.5Q620 196 556 196H497Q495 185 496.5 175Q498 165 506 157Q514 149 530 144.5Q546 140 572 140Q592 140 613.5 141.5Q635 143 654.5 145.5Q674 148 691 151Q708 154 720 157Q751 164 765 149Q779 134 776 110L770 64Q768 42 758.5 28Q749 14 725 6Q694 -4 642 -11Q590 -18 532 -18ZM230 124Q262 124 291 145Q286 179 291 223L246 218Q226 216 210.5 204.5Q195 193 192 168Q189 143 201.5 133.5Q214 124 230 124Z" glyph-name="ae" horiz-adv-x="810" unicode="&#230;" /><glyph d="M277 194H335L350 360ZM786 252Q782 206 734 206H557L558 163H724Q766 163 782.5 144Q799 125 794 83L793 80Q784 0 704 0H399Q356 0 338.5 17.5Q321 35 325 80H228Q209 35 184.5 17.5Q160 0 117 0H47Q27 0 12 7Q-3 14 -10.5 27.5Q-18 41 -16 60.5Q-14 80 0 104L183 420Q207 462 234 481Q261 500 303 500H765Q845 500 835 420V418Q825 338 745 338H557V299H745Q792 299 786 252Z" glyph-name="ae.smcp" horiz-adv-x="847" unicode="&#57905;" /><glyph d="M286 445Q303 483 311.5 519.5Q320 556 320 584Q320 598 316 603Q312 608 307 608Q299 608 292.5 597.5Q286 587 286 563ZM56 496Q56 575 72 627.5Q88 680 117 711.5Q146 743 186.5 755.5Q227 768 276 768Q320 768 351.5 756.5Q383 745 402.5 723Q422 701 431 669.5Q440 638 440 598Q440 539 426.5 489Q413 439 391 396.5Q369 354 341.5 318.5Q314 283 286 253V192Q286 173 295.5 166Q305 159 320 159Q327 159 334 160Q339 161 345 161.5Q351 162 355 162Q372 162 381 152.5Q390 143 390 128V36Q390 16 379 4.5Q368 -7 353 -10Q338 -13 312 -15.5Q286 -18 254 -18Q156 -18 110 20Q64 58 57 128Q42 116 28.5 122.5Q15 129 15 144V233Q15 246 19.5 254Q24 262 31 268L56 289Z" glyph-name="afii61289" horiz-adv-x="445" unicode="&#8467;" /><glyph d="M845 564Q845 522 849.5 510Q854 498 866 498Q878 498 882.5 510Q887 522 887 564Q887 606 882.5 618Q878 630 866 630Q854 630 849.5 618Q845 606 845 564ZM1064 564Q1064 510 1053.5 471.5Q1043 433 1019.5 408Q996 383 958.5 371.5Q921 360 866 360Q811 360 773.5 371.5Q736 383 712.5 408Q689 433 678.5 471.5Q668 510 668 564Q668 618 678.5 656.5Q689 695 712.5 720Q736 745 773.5 756.5Q811 768 866 768Q921 768 958.5 756.5Q996 745 1019.5 720Q1043 695 1053.5 656.5Q1064 618 1064 564ZM482 0Q452 0 430.5 11Q409 22 395 51L254 331V80Q254 0 174 0H109Q29 0 29 80V670Q29 750 109 750H187Q217 750 238.5 739Q260 728 274 699L415 419V670Q415 750 495 750H560Q640 750 640 670V80Q640 0 560 0Z" glyph-name="afii61352" horiz-adv-x="1076" unicode="&#8470;" /><glyph d="M303 750Q358 750 364 692L375 611Q378 583 362.5 566.5Q347 550 318 550H288Q259 550 244.5 559.5Q230 569 216 597L179 670Q164 700 175 725Q186 750 225 750ZM235 250Q231 219 231 199.5Q231 180 234.5 168.5Q238 157 245 153Q252 149 263 149Q274 149 284 152Q294 155 300 158L322 342Q317 345 308 348Q299 351 288 351Q277 351 269 347Q261 343 254.5 331.5Q248 320 243.5 300.5Q239 281 235 250ZM518 60Q510 0 451 0H399Q369 0 356 11.5Q343 23 338 42Q298 10 258 -4Q218 -18 176 -18Q127 -18 91.5 -4.5Q56 9 34.5 40.5Q13 72 6.5 123.5Q0 175 9 250Q18 325 37.5 376Q57 427 86 458.5Q115 490 154 504Q193 518 242 518Q284 518 320.5 504Q357 490 389 458Q399 477 414.5 488.5Q430 500 460 500H512Q571 500 565 440Z" glyph-name="agrave" horiz-adv-x="562" unicode="&#224;" /><glyph d="M337 750Q392 750 398 692L409 611Q412 583 396.5 566.5Q381 550 352 550H322Q293 550 278.5 559.5Q264 569 250 597L213 670Q198 700 209 725Q220 750 259 750ZM261 188H333L318 361ZM421 500Q463 500 483 481Q503 462 511 420L573 104Q584 50 565 25Q546 0 506 0H432Q389 0 367.5 16.5Q346 33 342 78H224Q210 33 188 16.5Q166 0 123 0H52Q12 0 -6 25Q-24 50 -1 104L139 420Q158 462 182.5 481Q207 500 249 500Z" glyph-name="agrave.smcp" horiz-adv-x="608" unicode="&#57890;" /><glyph d="M381 -145Q374 -198 326.5 -224Q279 -250 204 -250Q172 -250 153.5 -247Q135 -244 127 -242Q110 -238 103 -224.5Q96 -211 98 -192L99 -180Q102 -159 114 -147Q126 -135 144 -135Q151 -135 164.5 -137Q178 -139 187 -139Q213 -139 230.5 -132Q248 -125 250 -112Q252 -100 241.5 -92Q231 -84 203 -79Q185 -76 180.5 -68Q176 -60 179 -47Q185 -23 213 -26Q264 -31 297.5 -42.5Q331 -54 350.5 -69.5Q370 -85 377 -104.5Q384 -124 381 -145Z" glyph-name="altcedilla" horiz-adv-x="534" unicode="&#58390;" /><glyph d="M235 250Q231 219 231 199.5Q231 180 234.5 168.5Q238 157 245 153Q252 149 263 149Q274 149 284 152Q294 155 300 158L322 342Q317 345 308 348Q299 351 288 351Q277 351 269 347Q261 343 254.5 331.5Q248 320 243.5 300.5Q239 281 235 250ZM518 60Q510 0 451 0H399Q369 0 356 11.5Q343 23 338 42Q298 10 258 -4Q218 -18 176 -18Q127 -18 91.5 -4.5Q56 9 34.5 40.5Q13 72 6.5 123.5Q0 175 9 250Q18 325 37.5 376Q57 427 86 458.5Q115 490 154 504Q193 518 242 518Q284 518 320.5 504Q357 490 389 458Q399 477 414.5 488.5Q430 500 460 500H512Q571 500 565 440ZM425 720Q484 720 478 660L475 640Q467 580 408 580H214Q153 580 161 640L164 660Q170 720 231 720Z" glyph-name="amacron" horiz-adv-x="562" unicode="&#257;" /><glyph d="M261 188H333L318 361ZM421 500Q463 500 483 481Q503 462 511 420L573 104Q584 50 565 25Q546 0 506 0H432Q389 0 367.5 16.5Q346 33 342 78H224Q210 33 188 16.5Q166 0 123 0H52Q12 0 -6 25Q-24 50 -1 104L139 420Q158 462 182.5 481Q207 500 249 500ZM459 720Q518 720 512 660L509 640Q501 580 442 580H248Q187 580 195 640L198 660Q204 720 265 720Z" glyph-name="amacron.smcp" horiz-adv-x="608" unicode="&#57896;" /><glyph d="M201 337Q241 352 275 378Q309 404 334 445Q286 445 250.5 415Q215 385 201 337ZM724 428Q784 428 777 368L770 310Q763 256 712 250Q691 114 593 48Q495 -18 329 -18Q255 -18 193.5 0Q132 18 90 57.5Q48 97 27.5 158.5Q7 220 16 307Q22 372 47.5 427.5Q73 483 118 523.5Q163 564 227 587Q291 610 374 610Q385 610 396 609.5Q407 609 414 608Q424 629 429 648Q434 667 436 690Q442 750 504 750H579Q609 750 624.5 735Q640 720 636 690Q629 636 606 566.5Q583 497 538 426.5Q493 356 422.5 290.5Q352 225 249 180Q285 158 347 158Q433 158 478.5 202Q524 246 535 329L540 368Q547 428 607 428Z" glyph-name="ampersand" horiz-adv-x="790" unicode="&amp;" /><glyph d="M350 551Q349 543 352 527Q355 511 360 503L368 506Q390 517 399 528.5Q408 540 410 551Q412 562 406.5 571Q401 580 385 580Q367 580 359.5 571Q352 562 350 551ZM345 158Q318 186 296.5 210.5Q275 235 257 258Q252 265 247 271.5Q242 278 237 285Q229 276 226 264.5Q223 253 221 241Q218 215 226 198Q234 181 248.5 171.5Q263 162 281 158.5Q299 155 316 155Q322 155 327 155Q332 155 336 156Q340 157 345 158ZM709 184Q736 170 740 144.5Q744 119 729 93L696 36Q663 -20 598 1Q574 9 557 16.5Q540 24 519 35Q468 10 409.5 -4Q351 -18 285 -18Q217 -18 162.5 -6Q108 6 71 34Q34 62 18 108.5Q2 155 10 223Q15 266 28.5 298.5Q42 331 61.5 355Q81 379 105.5 397Q130 415 159 429Q136 496 143 559Q155 658 223.5 713Q292 768 413 768Q532 768 581.5 712.5Q631 657 619 559Q611 494 570.5 451.5Q530 409 465 379L444 370Q451 359 459 348Q467 337 478 326Q499 305 521 290Q541 311 554 336Q567 361 570 390Q577 450 638 450H731Q761 450 776.5 435Q792 420 788 390Q781 333 759.5 283.5Q738 234 702 188Z" glyph-name="ampersand.alt" horiz-adv-x="790" /><glyph d="M257 258Q252 265 247 271.5Q242 278 237 285Q229 276 226 264.5Q223 253 221 241Q218 215 226 198Q234 181 248.5 171.5Q263 162 281 158.5Q299 155 316 155Q322 155 327 155Q332 155 336 156Q340 157 345 158Q318 186 296.5 210.5Q275 235 257 258ZM519 35Q468 10 409.5 -4Q351 -18 285 -18Q217 -18 162.5 -6Q108 6 71 34Q34 62 18 108.5Q2 155 10 223Q15 266 28.5 298.5Q42 331 61.5 355Q81 379 105.5 397Q130 415 159 429L158 433Q153 445 155.5 457Q158 469 165.5 478.5Q173 488 184.5 494Q196 500 209 500H333Q355 500 365.5 491.5Q376 483 383 469Q405 419 439.5 369Q474 319 521 290Q550 321 562 361.5Q574 402 579 440Q582 467 598.5 483.5Q615 500 644 500H733Q759 500 778 486Q797 472 792 438Q788 403 783 372.5Q778 342 768.5 313Q759 284 743.5 253.5Q728 223 702 188Q704 186 707 185Q711 182 715 181Q729 175 736.5 164.5Q744 154 746 141.5Q748 129 745 115.5Q742 102 735 90L701 29Q684 0 657.5 -8.5Q631 -17 603 -6Q583 2 562.5 11.5Q542 21 519 35Z" glyph-name="ampersand.smcp" horiz-adv-x="790" unicode="&#58369;" /><glyph d="M207 721Q221 756 238.5 769.5Q256 783 291 783H332Q365 783 376.5 764Q388 745 374 710L198 277L267 -156Q273 -191 256.5 -210Q240 -229 207 -229H166Q131 -229 117 -215.5Q103 -202 98 -167L42 239Q39 262 42 280Q45 298 51 315Z" glyph-name="anglebracketleft" horiz-adv-x="347" unicode="&#12296;" /><glyph d="M219 819Q233 854 250.5 867.5Q268 881 303 881H344Q377 881 388.5 862Q400 843 386 808L210 375L279 -58Q285 -93 268.5 -112Q252 -131 219 -131H178Q143 -131 129 -117.5Q115 -104 110 -69L54 337Q51 360 54 378Q57 396 63 413Z" glyph-name="anglebracketleft.cap" horiz-adv-x="347" unicode="&#58519;" /><glyph d="M148 -167Q134 -202 116.5 -215.5Q99 -229 64 -229H23Q-10 -229 -21.5 -210Q-33 -191 -19 -156L157 277L88 710Q82 745 98.5 764Q115 783 148 783H189Q224 783 238 769.5Q252 756 257 721L313 315Q316 292 313 274Q310 256 304 239Z" glyph-name="anglebracketright" horiz-adv-x="347" unicode="&#12297;" /><glyph d="M161 -69Q147 -104 129.5 -117.5Q112 -131 77 -131H36Q3 -131 -8.5 -112Q-20 -93 -6 -58L170 375L101 808Q95 843 111.5 862Q128 881 161 881H202Q237 881 251 867.5Q265 854 270 819L326 413Q329 390 326 372Q323 354 317 337Z" glyph-name="anglebracketright.cap" horiz-adv-x="347" unicode="&#58520;" /><glyph d="M318 361 224 78Q210 33 188 16.5Q166 0 123 0H52Q12 0 -6 25Q-24 50 -1 104L139 420Q158 462 182.5 481Q207 500 249 500H421Q463 500 483 481Q503 462 511 420L573 104Q584 50 565 25Q546 0 506 0H432Q389 0 367.5 16.5Q346 33 342 78Z" glyph-name="anocross.smcp" horiz-adv-x="608" unicode="&#57888;" /><glyph d="M235 250Q231 219 231 199.5Q231 180 234.5 168.5Q238 157 245 153Q252 149 263 149Q274 149 284 152Q294 155 300 158L322 342Q317 345 308 348Q299 351 288 351Q277 351 269 347Q261 343 254.5 331.5Q248 320 243.5 300.5Q239 281 235 250ZM447 -136Q456 -136 460.5 -135.5Q465 -135 472 -135Q490 -135 499 -149Q508 -163 506 -184L505 -190Q503 -209 491.5 -223.5Q480 -238 458 -243Q448 -245 431 -247.5Q414 -250 382 -250Q300 -250 260.5 -216Q221 -182 228 -127Q233 -78 264 -43.5Q295 -9 348 19Q341 29 338 42Q298 10 258 -4Q218 -18 176 -18Q127 -18 91.5 -4.5Q56 9 34.5 40.5Q13 72 6.5 123.5Q0 175 9 250Q18 325 37.5 376Q57 427 86 458.5Q115 490 154 504Q193 518 242 518Q284 518 320.5 504Q357 490 389 458Q399 477 414.5 488.5Q430 500 460 500H512Q571 500 565 440L518 60Q512 21 486 7Q441 -17 418 -43Q395 -69 392 -95Q390 -112 400.5 -124Q411 -136 447 -136Z" glyph-name="aogonek" horiz-adv-x="562" unicode="&#261;" /><glyph d="M261 188H333L318 361ZM506 -136Q515 -136 519.5 -135.5Q524 -135 531 -135Q549 -135 558 -149Q567 -163 565 -184L564 -190Q562 -209 550.5 -223.5Q539 -238 517 -243Q507 -245 490 -247.5Q473 -250 441 -250Q359 -250 319.5 -216Q280 -182 287 -127Q291 -93 307 -66.5Q323 -40 350 -18L342 78H224Q210 33 188 16.5Q166 0 123 0H52Q32 0 17 6Q2 12 -6 25Q-14 38 -13.5 57.5Q-13 77 -1 104L139 420Q158 462 182.5 481Q207 500 249 500H421Q463 500 483 481Q503 462 511 420L573 104Q581 63 572 39Q563 15 542 4Q497 -19 475.5 -44Q454 -69 451 -95Q449 -112 459.5 -124Q470 -136 506 -136Z" glyph-name="aogonek.smcp" horiz-adv-x="608" unicode="&#57903;" /><glyph d="M475 324Q419 324 380.5 335Q342 346 308 359Q274 372 240 383Q206 394 161 394Q149 394 133 392Q117 390 101 385Q75 377 59.5 387Q44 397 48 424L62 542Q64 561 74 571Q84 581 95 586Q105 590 128.5 597.5Q152 605 178 605Q233 605 272 594Q311 583 345 570Q379 557 413 546Q447 535 492 535Q504 535 520 537Q536 539 552 544Q578 552 593.5 542Q609 532 606 505L591 387Q589 368 579 358Q569 348 558 343Q548 339 524.5 331.5Q501 324 475 324ZM445 77Q389 77 350.5 88Q312 99 278 112Q244 125 210 136Q176 147 131 147Q119 147 102.5 145Q86 143 70 138Q44 130 29 140Q14 150 17 177L32 295Q34 314 43.5 324Q53 334 65 339Q75 343 98 350.5Q121 358 147 358Q202 358 241.5 347Q281 336 314.5 323Q348 310 382.5 299Q417 288 462 288Q474 288 490 290Q506 292 522 297Q548 305 563.5 295Q579 285 575 258L561 140Q559 121 549 111Q539 101 527 96Q518 92 494.5 84.5Q471 77 445 77Z" glyph-name="approxequal" horiz-adv-x="600" unicode="&#8776;" /><glyph d="M235 250Q231 219 231 199.5Q231 180 234.5 168.5Q238 157 245 153Q252 149 263 149Q274 149 284 152Q294 155 300 158L322 342Q317 345 308 348Q299 351 288 351Q277 351 269 347Q261 343 254.5 331.5Q248 320 243.5 300.5Q239 281 235 250ZM518 60Q510 0 451 0H399Q369 0 356 11.5Q343 23 338 42Q298 10 258 -4Q218 -18 176 -18Q127 -18 91.5 -4.5Q56 9 34.5 40.5Q13 72 6.5 123.5Q0 175 9 250Q18 325 37.5 376Q57 427 86 458.5Q115 490 154 504Q193 518 242 518Q284 518 320.5 504Q357 490 389 458Q399 477 414.5 488.5Q430 500 460 500H512Q571 500 565 440ZM288 650Q286 634 294 627Q302 620 316 620Q330 620 339 627Q348 634 350 650Q352 666 344.5 673Q337 680 323 680Q309 680 299.5 673Q290 666 288 650ZM334 768Q401 768 427 739.5Q453 711 446 651Q438 590 405.5 561Q373 532 305 532Q237 532 210.5 560.5Q184 589 192 649Q200 710 233 739Q266 768 334 768Z" glyph-name="aring" horiz-adv-x="562" unicode="&#229;" /><glyph d="M261 188H333L318 361ZM421 500Q463 500 483 481Q503 462 511 420L573 104Q584 50 565 25Q546 0 506 0H432Q389 0 367.5 16.5Q346 33 342 78H224Q210 33 188 16.5Q166 0 123 0H52Q12 0 -6 25Q-24 50 -1 104L139 420Q158 462 182.5 481Q207 500 249 500ZM322 650Q320 634 328 627Q336 620 350 620Q364 620 373 627Q382 634 384 650Q386 666 378.5 673Q371 680 357 680Q343 680 333.5 673Q324 666 322 650ZM368 768Q435 768 461 739.5Q487 711 480 651Q472 590 439.5 561Q407 532 339 532Q271 532 244.5 560.5Q218 589 226 649Q234 710 267 739Q300 768 368 768Z" glyph-name="aring.smcp" horiz-adv-x="608" unicode="&#57894;" /><glyph d="M312 345V682Q312 750 381 750H449Q518 750 518 682V345L718 557Q728 568 740.5 571.5Q753 575 764 571.5Q775 568 782.5 558.5Q790 549 790 534V348Q790 331 786 318.5Q782 306 770 294L474 1L473 0Q456 -21 417 -21H413Q372 -21 356 1L60 294Q48 306 44 318.5Q40 331 40 348V534Q40 549 47.5 558.5Q55 568 66 571.5Q77 575 89.5 571.5Q102 568 112 557Z" glyph-name="arrowdown" horiz-adv-x="830" unicode="&#8595;" /><glyph d="M393 478H730Q798 478 798 409V341Q798 272 730 272H393L605 72Q616 62 619.5 49.5Q623 37 619.5 26Q616 15 606.5 7.5Q597 0 582 0H396Q379 0 366.5 4Q354 8 342 20L49 316H48Q27 332 27 373V377Q27 418 49 434L342 730Q354 742 366.5 746Q379 750 396 750H582Q597 750 606.5 742.5Q616 735 619.5 724Q623 713 619.5 700.5Q616 688 605 678Z" glyph-name="arrowleft" horiz-adv-x="830" unicode="&#8592;" /><glyph d="M436 272H100Q32 272 32 341V409Q32 478 100 478H436L225 678Q214 688 210.5 700.5Q207 713 210.5 724Q214 735 223.5 742.5Q233 750 248 750H434Q451 750 463.5 746Q476 742 488 730L781 434Q803 418 803 377V373Q803 332 781 316L488 20Q476 8 463.5 4Q451 0 434 0H248Q233 0 223.5 7.5Q214 15 210.5 26Q207 37 210.5 49.5Q214 62 225 72Z" glyph-name="arrowright" horiz-adv-x="830" unicode="&#8594;" /><glyph d="M518 404V68Q518 0 449 0H381Q312 0 312 68V404L112 193Q102 182 89.5 178.5Q77 175 66 178.5Q55 182 47.5 191.5Q40 201 40 216V402Q40 419 44 431.5Q48 444 60 456L356 749Q372 771 413 771H417Q458 771 474 749L770 456Q782 444 786 431.5Q790 419 790 402V216Q790 201 782.5 191.5Q775 182 764 178.5Q753 175 740.5 178.5Q728 182 718 193Z" glyph-name="arrowup" horiz-adv-x="830" unicode="&#8593;" /><glyph d="M344 768Q365 768 380 764.5Q395 761 405 752.5Q415 744 421.5 729.5Q428 715 433 693L489 453Q497 417 481 396Q465 375 435 375H369Q310 375 303 435L287 549L243 435Q220 375 158 375H102Q72 375 58 396Q44 417 61 453L177 693Q187 715 197.5 729.5Q208 744 220 752.5Q232 761 247.5 764.5Q263 768 284 768Z" glyph-name="asciicircum" horiz-adv-x="500" unicode="^" /><glyph d="M367 218Q330 218 300.5 227.5Q271 237 244.5 248Q218 259 193.5 268.5Q169 278 142 278Q130 278 116 276Q102 274 87 269Q61 261 45.5 271Q30 281 33 308L44 394Q46 413 56 423Q66 433 77 438Q87 442 107.5 447Q128 452 154 452Q191 452 221 442.5Q251 433 277.5 422Q304 411 328.5 401.5Q353 392 380 392Q392 392 405.5 394Q419 396 435 401Q461 409 476 399Q491 389 488 362L477 276Q475 257 465.5 247Q456 237 444 232Q434 228 413.5 223Q393 218 367 218Z" glyph-name="asciitilde" horiz-adv-x="500" unicode="~" /><glyph d="M442 641 481 659Q508 671 532 661Q556 651 561 624L580 531Q585 504 568.5 481Q552 458 523 453L482 446L507 417Q524 396 518.5 370Q513 344 489 327L402 269Q377 252 352 258Q327 264 316 290L301 325L278 290Q270 277 258.5 269Q247 261 235 258.5Q223 256 210.5 258.5Q198 261 188 269L115 327Q94 344 95 370Q96 396 119 417L150 446L111 453Q84 458 72.5 481Q61 504 74 531L115 624Q128 651 153.5 661Q179 671 203 659L238 641L237 681Q237 710 256.5 730Q276 750 305 750H403Q432 750 446.5 730Q461 710 453 681Z" glyph-name="asterisk" horiz-adv-x="584" unicode="*" /><glyph d="M552 295Q541 301 526 301Q497 301 485 288Q473 275 470 250Q467 225 476 212Q485 199 514 199Q529 199 541 205ZM767 202H769Q787 202 804 206Q821 210 835.5 224.5Q850 239 860.5 267Q871 295 877 343Q884 401 873.5 438.5Q863 476 828 498.5Q793 521 730 530Q667 539 570 539Q472 539 401 524.5Q330 510 281.5 476Q233 442 205.5 386.5Q178 331 168 250Q158 169 172 113.5Q186 58 226 24Q266 -10 333.5 -24.5Q401 -39 499 -39Q615 -39 697 -23Q779 -7 822 6Q847 13 856 -0.5Q865 -14 864 -30L859 -78Q857 -97 848 -107.5Q839 -118 815 -126Q799 -131 765.5 -138Q732 -145 687 -152Q642 -159 589.5 -163.5Q537 -168 483 -168Q327 -168 229.5 -135.5Q132 -103 80 -47Q28 9 14.5 85.5Q1 162 12 250Q23 338 55.5 414.5Q88 491 153.5 547Q219 603 324.5 635.5Q430 668 586 668Q734 668 826 646Q918 624 967 582.5Q1016 541 1029 480.5Q1042 420 1033 343Q1023 266 994 210.5Q965 155 920 119.5Q875 84 817 67Q759 50 691 50H632Q608 50 597.5 56Q587 62 582 73L579 79Q547 57 509.5 44.5Q472 32 428 32Q323 32 277 81Q231 130 245 250Q260 370 318.5 419Q377 468 482 468Q526 468 560.5 455.5Q595 443 621 421L625 426Q634 437 645.5 443.5Q657 450 681 450H738Q797 450 790 390Z" glyph-name="at" horiz-adv-x="1033" unicode="@" /><glyph d="M476 250Q472 219 472 199.5Q472 180 475.5 168.5Q479 157 486 153Q493 149 504 149Q515 149 525 152Q535 155 541 158L563 342Q558 345 549 348Q540 351 529 351Q518 351 510 347Q502 343 495.5 331.5Q489 320 484.5 300.5Q480 281 476 250ZM766 152Q868 152 892 343Q900 412 890 467Q880 522 845 560Q810 598 747 618.5Q684 639 587 639Q489 639 415.5 611.5Q342 584 290.5 533.5Q239 483 209 411Q179 339 168 250Q157 161 169.5 89Q182 17 221 -33.5Q260 -84 326.5 -111.5Q393 -139 491 -139Q549 -139 598 -134Q647 -129 686.5 -121.5Q726 -114 756.5 -105.5Q787 -97 808 -91Q833 -84 842 -97.5Q851 -111 850 -127L845 -175Q843 -194 834 -204.5Q825 -215 801 -223Q785 -228 752.5 -235.5Q720 -243 676.5 -250.5Q633 -258 581.5 -263Q530 -268 476 -268Q327 -268 231 -225.5Q135 -183 82 -112Q29 -41 14 53Q-1 147 12 250Q25 353 63 447Q101 541 171.5 612Q242 683 348 725.5Q454 768 603 768Q751 768 843.5 734.5Q936 701 985 643.5Q1034 586 1046.5 508.5Q1059 431 1048 343Q1039 266 1012 203Q985 140 942.5 95Q900 50 844 25Q788 0 720 0H640Q610 0 597 11.5Q584 23 579 42Q539 10 499 -4Q459 -18 417 -18Q368 -18 332.5 -4.5Q297 9 275.5 40.5Q254 72 247.5 123.5Q241 175 250 250Q259 325 278.5 376Q298 427 327 458.5Q356 490 395 504Q434 518 483 518Q525 518 561.5 504Q598 490 630 458Q640 477 655.5 488.5Q671 500 701 500H748Q808 500 801 440Z" glyph-name="at.cap" horiz-adv-x="1048" unicode="&#58643;" /><glyph d="M235 250Q231 219 231 199.5Q231 180 234.5 168.5Q238 157 245 153Q252 149 263 149Q274 149 284 152Q294 155 300 158L322 342Q317 345 308 348Q299 351 288 351Q277 351 269 347Q261 343 254.5 331.5Q248 320 243.5 300.5Q239 281 235 250ZM518 60Q510 0 451 0H399Q369 0 356 11.5Q343 23 338 42Q298 10 258 -4Q218 -18 176 -18Q127 -18 91.5 -4.5Q56 9 34.5 40.5Q13 72 6.5 123.5Q0 175 9 250Q18 325 37.5 376Q57 427 86 458.5Q115 490 154 504Q193 518 242 518Q284 518 320.5 504Q357 490 389 458Q399 477 414.5 488.5Q430 500 460 500H512Q571 500 565 440ZM388 532Q358 532 338 542Q318 552 303 563.5Q288 575 275.5 585Q263 595 248 595Q235 595 227 589.5Q219 584 215 577Q207 563 194 556.5Q181 550 161 550H138Q77 550 85 610Q88 635 99.5 663Q111 691 131 714.5Q151 738 181 753Q211 768 251 768Q281 768 301 758Q321 748 336 736.5Q351 725 363.5 715Q376 705 391 705Q404 705 411.5 710.5Q419 716 423 723Q439 750 478 750H501Q560 750 553 690Q550 664 539 636.5Q528 609 507.5 585.5Q487 562 457.5 547Q428 532 388 532Z" glyph-name="atilde" horiz-adv-x="562" unicode="&#227;" /><glyph d="M261 188H333L318 361ZM421 500Q463 500 483 481Q503 462 511 420L573 104Q584 50 565 25Q546 0 506 0H432Q389 0 367.5 16.5Q346 33 342 78H224Q210 33 188 16.5Q166 0 123 0H52Q12 0 -6 25Q-24 50 -1 104L139 420Q158 462 182.5 481Q207 500 249 500ZM422 532Q392 532 372 542Q352 552 337 563.5Q322 575 309.5 585Q297 595 282 595Q269 595 261 589.5Q253 584 249 577Q241 563 228 556.5Q215 550 195 550H172Q111 550 119 610Q122 635 133.5 663Q145 691 165 714.5Q185 738 215 753Q245 768 285 768Q315 768 335 758Q355 748 370 736.5Q385 725 397.5 715Q410 705 425 705Q438 705 445.5 710.5Q453 716 457 723Q473 750 512 750H535Q594 750 587 690Q584 664 573 636.5Q562 609 541.5 585.5Q521 562 491.5 547Q462 532 422 532Z" glyph-name="atilde.smcp" horiz-adv-x="608" unicode="&#57893;" /><glyph d="M327 250Q331 281 331 300.5Q331 320 328 331.5Q325 343 318 347Q311 351 300 351Q289 351 278.5 348Q268 345 262 342L240 158Q245 155 254.5 152Q264 149 275 149Q286 149 294 153Q302 157 308 168.5Q314 180 318.5 199.5Q323 219 327 250ZM282 498Q307 507 333 512.5Q359 518 386 518Q435 518 470.5 504Q506 490 527.5 458.5Q549 427 555.5 376Q562 325 553 250Q544 175 524.5 123.5Q505 72 476 40.5Q447 9 408 -4.5Q369 -18 320 -18Q278 -18 242 -4Q206 10 174 42Q164 23 148.5 11.5Q133 0 103 0H51Q-10 0 -2 60L75 690Q82 750 143 750H253Q312 750 305 690Z" glyph-name="b" horiz-adv-x="562" unicode="b" /><glyph d="M350 336Q352 359 343.5 365Q335 371 324 371H264L255 299H315Q327 299 337 306.5Q347 314 350 336ZM335 168Q338 194 327 200Q316 206 305 206H244L234 129H297Q308 129 320 135Q332 141 335 168ZM60 420Q70 500 150 500H396Q451 500 484.5 489Q518 478 535 458.5Q552 439 556.5 412Q561 385 557 353Q554 327 538 304.5Q522 282 499 265Q524 251 538 224.5Q552 198 547 159Q543 126 531 97Q519 68 495 46.5Q471 25 432.5 12.5Q394 0 337 0H89Q9 0 18 80Z" glyph-name="b.smcp" horiz-adv-x="575" unicode="&#57858;" /><glyph d="M212 465Q216 496 212 505.5Q208 515 197 515Q185 515 177 511L166 419Q169 417 174 415.5Q179 414 184 414Q195 414 201 423.5Q207 433 212 465ZM187 589Q215 599 242 599Q294 599 317.5 569.5Q341 540 332 465Q322 390 291.5 360.5Q261 331 209 331Q189 331 169 338Q149 345 133 361Q128 351 120 345.5Q112 340 97 340H66Q35 340 40 370L79 685Q82 715 112 715H172Q202 715 199 685Z" glyph-name="b.superior" horiz-adv-x="313" unicode="&#58210;" /><glyph d="M74 712Q63 755 81.5 777.5Q100 800 133 800H241Q276 800 291 785Q306 770 314 738L517 -112Q528 -155 509.5 -177.5Q491 -200 458 -200H345Q310 -200 297 -185Q284 -170 277 -138Z" glyph-name="backslash" horiz-adv-x="578" unicode="\" /><glyph d="M332 225H282V275H332ZM137 0Q57 0 57 80V420Q57 500 137 500H477Q557 500 557 420V80Q557 0 477 0ZM263 294V206H351V294Z" glyph-name="ballotboxwithx" horiz-adv-x="614" unicode="&#9746;" /><glyph d="M213 -140Q205 -200 146 -200H34Q-27 -200 -19 -140L89 740Q96 800 157 800H269Q328 800 321 740Z" glyph-name="bar" horiz-adv-x="290" unicode="|" /><glyph d="M39 375Q39 456 70 528Q101 600 154 653Q207 706 279 737Q351 768 432 768Q513 768 585 737Q657 706 710 653Q763 600 794 528Q825 456 825 375Q825 294 794 222Q763 150 710 97Q657 44 585 13Q513 -18 432 -18Q351 -18 279 13Q207 44 154 97Q101 150 70 222Q39 294 39 375Z" glyph-name="blackcircle" horiz-adv-x="864" unicode="&#9679;" /><glyph d="M137 0Q57 0 57 80V420Q57 500 137 500H477Q557 500 557 420V80Q557 0 477 0Z" glyph-name="blacksmallsquare" horiz-adv-x="614" unicode="&#9642;" /><glyph d="M137 0Q57 0 57 80V670Q57 750 137 750H727Q807 750 807 670V80Q807 0 727 0Z" glyph-name="blacksquare" horiz-adv-x="864" unicode="&#9632;" /><glyph d="M185 277Q205 265 211.5 244.5Q218 224 213 201L165 -51Q163 -62 166.5 -67Q170 -72 175 -74Q183 -77 191.5 -80.5Q200 -84 206.5 -90.5Q213 -97 217 -108Q221 -119 219 -137L216 -161Q207 -229 138 -229H123Q93 -229 69 -222Q45 -215 29 -200Q13 -185 6.5 -161Q0 -137 6 -104L58 180Q60 192 57 197Q54 202 46 205Q26 213 18.5 227.5Q11 242 15 269L17 285Q21 312 31 326.5Q41 341 63 349Q72 352 76 357Q80 362 81 374L99 658Q104 725 146 754Q188 783 248 783H263Q332 783 323 715L320 691Q318 673 311.5 662Q305 651 297 644.5Q289 638 279.5 634.5Q270 631 262 628Q255 626 251 621Q247 616 246 605L232 353Q230 330 219 309.5Q208 289 185 277Z" glyph-name="braceleft" horiz-adv-x="285" unicode="{" /><glyph d="M197 375Q217 363 223.5 342.5Q230 322 225 299L177 47Q175 36 178.5 31Q182 26 187 24Q195 21 203.5 17.5Q212 14 218.5 7.5Q225 1 229 -10Q233 -21 231 -39L228 -63Q219 -131 150 -131H135Q105 -131 81 -124Q57 -117 41 -102Q25 -87 18.5 -63Q12 -39 18 -6L70 278Q72 290 69 295Q66 300 58 303Q38 311 30.5 325.5Q23 340 27 367L29 383Q33 410 43 424.5Q53 439 75 447Q84 450 88 455Q92 460 93 472L111 756Q116 823 158 852Q200 881 260 881H275Q344 881 335 813L332 789Q330 771 323.5 760Q317 749 309 742.5Q301 736 291.5 732.5Q282 729 274 726Q267 724 263 719Q259 714 258 703L244 451Q242 428 231 407.5Q220 387 197 375Z" glyph-name="braceleft.cap" horiz-adv-x="285" unicode="&#58517;" /><glyph d="M107 277Q87 289 80.5 309.5Q74 330 79 353L127 605Q129 616 125.5 621Q122 626 117 628Q109 631 100.5 634.5Q92 638 85 644.5Q78 651 74.5 662Q71 673 73 691L76 715Q85 783 154 783H169Q199 783 223 776Q247 769 263 754Q279 739 285.5 715Q292 691 286 658L234 374Q232 362 235 357Q238 352 246 349Q266 341 273.5 326.5Q281 312 277 285L275 269Q271 242 261 227.5Q251 213 229 205Q220 202 216 197Q212 192 211 180L193 -104Q188 -171 146 -200Q104 -229 44 -229H29Q-40 -229 -31 -161L-28 -137Q-26 -119 -19.5 -108Q-13 -97 -5 -90.5Q3 -84 12.5 -80.5Q22 -77 30 -74Q37 -72 41 -67Q45 -62 46 -51L60 201Q62 224 73 244.5Q84 265 107 277Z" glyph-name="braceright" horiz-adv-x="285" unicode="}" /><glyph d="M120 375Q100 387 93.5 407.5Q87 428 92 451L140 703Q142 714 138.5 719Q135 724 130 726Q122 729 113.5 732.5Q105 736 98 742.5Q91 749 87.5 760Q84 771 86 789L89 813Q98 881 167 881H182Q212 881 236 874Q260 867 276 852Q292 837 298.5 813Q305 789 299 756L247 472Q245 460 248 455Q251 450 259 447Q279 439 286.5 424.5Q294 410 290 383L288 367Q284 340 274 325.5Q264 311 242 303Q233 300 229 295Q225 290 224 278L206 -6Q201 -73 159 -102Q117 -131 57 -131H42Q-27 -131 -18 -63L-15 -39Q-13 -21 -6.5 -10Q0 1 8 7.5Q16 14 25.5 17.5Q35 21 43 24Q50 26 54 31Q58 36 59 47L73 299Q75 322 86 342.5Q97 363 120 375Z" glyph-name="braceright.cap" horiz-adv-x="285" unicode="&#58518;" /><glyph d="M168 -75H170Q240 -75 231 -143L229 -160Q220 -228 152 -228H67Q-3 -228 6 -160L113 715Q122 783 191 783H276Q345 783 336 715L334 698Q325 630 257 630H255Z" glyph-name="bracketleft" horiz-adv-x="295" unicode="[" /><glyph d="M180 23H182Q252 23 243 -45L241 -62Q232 -130 164 -130H79Q9 -130 18 -62L125 813Q134 881 203 881H288Q357 881 348 813L346 796Q337 728 269 728H267Z" glyph-name="bracketleft.cap" horiz-adv-x="295" unicode="&#58515;" /><glyph d="M134 630H132Q62 630 71 698L73 715Q82 783 151 783H236Q305 783 296 715L189 -160Q180 -228 112 -228H27Q-42 -228 -33 -160L-31 -143Q-24 -75 45 -75H47Z" glyph-name="bracketright" horiz-adv-x="295" unicode="]" /><glyph d="M146 728H144Q74 728 83 796L85 813Q94 881 163 881H248Q317 881 308 813L201 -62Q192 -130 124 -130H39Q-31 -130 -22 -62L-20 -45Q-11 23 57 23H59Z" glyph-name="bracketright.cap" horiz-adv-x="295" unicode="&#58516;" /><glyph d="M304 550Q251 550 216.5 563Q182 576 162 597.5Q142 619 134 646.5Q126 674 127 704Q129 750 176 750H211Q231 750 240 743.5Q249 737 252 721Q256 702 270.5 691Q285 680 320 680Q355 680 372.5 691Q390 702 398 721Q406 737 416.5 743.5Q427 750 447 750H482Q530 750 519 704Q512 674 497.5 646.5Q483 619 457.5 597.5Q432 576 394 563Q356 550 304 550Z" glyph-name="breve" horiz-adv-x="534" unicode="&#728;" /><glyph d="M332 780Q240 780 199 796.5Q158 813 154 848Q148 900 193 900H236Q253 900 259.5 895Q266 890 271 880Q276 870 290 864.5Q304 859 342 859Q380 859 395.5 864.5Q411 870 419 880Q426 890 433.5 895Q441 900 458 900H501Q546 900 528 848Q515 813 469.5 796.5Q424 780 332 780Z" glyph-name="breve.cap" horiz-adv-x="534" unicode="&#58406;" /><glyph d="M213 -140Q205 -200 146 -200H34Q-27 -200 -19 -140L25 215Q32 275 92 275H204Q264 275 257 215ZM278 385Q270 325 210 325H98Q38 325 46 385L89 740Q96 800 157 800H269Q328 800 321 740Z" glyph-name="brokenbar" horiz-adv-x="290" unicode="&#166;" /><glyph d="M58 375Q58 403 68.5 427.5Q79 452 97.5 470.5Q116 489 140.5 499.5Q165 510 193 510Q221 510 245.5 499.5Q270 489 288.5 470.5Q307 452 317.5 427.5Q328 403 328 375Q328 347 317.5 322.5Q307 298 288.5 279.5Q270 261 245.5 250.5Q221 240 193 240Q165 240 140.5 250.5Q116 261 97.5 279.5Q79 298 68.5 322.5Q58 347 58 375Z" glyph-name="bullet" horiz-adv-x="354" unicode="&#8226;" /><glyph d="M71 331Q62 322 56.5 315Q51 308 50 303V321ZM405 750H444L433 619Q428 617 424.5 614.5Q421 612 416 610ZM458 750H499L459 617L453 626Q445 624 441 622ZM392 750 410 605 397 594 351 750ZM513 750H560L475 593L464 609ZM800 321V300Q775 306 747 315Q719 324 695 336Q671 348 653.5 362.5Q636 377 633 394Q631 398 631 401ZM337 750 393 590 383 579 290 750ZM50 410 264 461Q238 451 213 443.5Q188 436 166 422Q144 408 127.5 393.5Q111 379 98 365L50 345ZM578 750H638L487 574L479 587ZM272 750 379 574 371 563 212 750ZM800 410V345L624 418Q616 431 606 441Q596 451 584 461ZM800 490V430L568 474L542 496ZM317 496Q312 488 307 483.5Q302 479 296 476L50 430V490ZM800 569V510L536 503L524 517ZM662 750H750L498 557L491 568ZM50 510V569L340 515Q335 507 330 503ZM188 750 368 559 362 549 100 750ZM800 655V589L521 523Q518 526 514 534L513 535ZM50 655 350 530 344 520 50 589ZM788 750H800V678L509 540L502 552ZM50 750H62L359 544Q354 538 353 534L50 678Z" glyph-name="bullseye" horiz-adv-x="850" unicode="&#9678;" /><glyph d="M235 250Q230 204 247.5 185.5Q265 167 304 167Q312 167 319 167.5Q326 168 332 169Q361 173 375.5 160Q390 147 386 121L378 50Q374 24 358.5 8Q343 -8 310 -13Q290 -16 272 -17Q254 -18 230 -18Q93 -18 43 51Q-7 120 9 250Q17 315 37 365Q57 415 91.5 449Q126 483 176.5 500.5Q227 518 296 518Q320 518 337.5 517Q355 516 374 513Q406 508 418 492Q430 476 427 450L418 379Q415 353 398 340Q381 327 352 331Q346 332 339 332.5Q332 333 325 333Q283 333 262 314.5Q241 296 235 250Z" glyph-name="c" horiz-adv-x="417" unicode="c" /><glyph d="M22 250Q38 380 114.5 449Q191 518 343 518Q372 518 396.5 515.5Q421 513 444 507Q475 499 488 484Q501 469 498 440L488 362Q484 332 462.5 320.5Q441 309 411 316Q393 321 377.5 323Q362 325 342 325Q304 325 277 309Q250 293 245 250Q240 207 263 191Q286 175 324 175Q344 175 359.5 177Q375 179 395 184Q427 191 445.5 179.5Q464 168 460 138L451 60Q447 31 430.5 16Q414 1 381 -7Q357 -13 331.5 -15.5Q306 -18 277 -18Q125 -18 65.5 51Q6 120 22 250Z" glyph-name="c.smcp" horiz-adv-x="505" unicode="&#57859;" /><glyph d="M38 465Q46 530 80.5 564.5Q115 599 187 599Q212 599 232 596Q261 592 258 565L253 528Q251 515 242.5 509Q234 503 220 505Q215 506 211 506Q207 506 205 506Q182 506 169.5 497Q157 488 155 465Q152 442 162 433Q172 424 195 424Q197 424 201 424Q205 424 210 425Q241 430 238 402L233 365Q230 338 200 334Q179 331 154 331Q82 331 56 365.5Q30 400 38 465Z" glyph-name="c.superior" horiz-adv-x="236" unicode="&#58211;" /><glyph d="M235 250Q230 204 247.5 185.5Q265 167 304 167Q312 167 319 167.5Q326 168 332 169Q361 173 375.5 160Q390 147 386 121L378 50Q374 24 358.5 8Q343 -8 310 -13Q290 -16 272 -17Q254 -18 230 -18Q93 -18 43 51Q-7 120 9 250Q17 315 37 365Q57 415 91.5 449Q126 483 176.5 500.5Q227 518 296 518Q320 518 337.5 517Q355 516 374 513Q406 508 418 492Q430 476 427 450L418 379Q415 353 398 340Q381 327 352 331Q346 332 339 332.5Q332 333 325 333Q283 333 262 314.5Q241 296 235 250ZM391 750Q430 750 441.5 725Q453 700 431 670L376 597Q355 569 338 559.5Q321 550 292 550H267Q238 550 224 566.5Q210 583 221 611L250 692Q271 750 327 750Z" glyph-name="cacute" horiz-adv-x="417" unicode="&#263;" /><glyph d="M418 750Q457 750 468.5 725Q480 700 458 670L403 597Q382 569 365 559.5Q348 550 319 550H294Q265 550 251 566.5Q237 583 248 611L277 692Q298 750 354 750ZM22 250Q38 380 114.5 449Q191 518 343 518Q372 518 396.5 515.5Q421 513 444 507Q475 499 488 484Q501 469 498 440L488 362Q484 332 462.5 320.5Q441 309 411 316Q393 321 377.5 323Q362 325 342 325Q304 325 277 309Q250 293 245 250Q240 207 263 191Q286 175 324 175Q344 175 359.5 177Q375 179 395 184Q427 191 445.5 179.5Q464 168 460 138L451 60Q447 31 430.5 16Q414 1 381 -7Q357 -13 331.5 -15.5Q306 -18 277 -18Q125 -18 65.5 51Q6 120 22 250Z" glyph-name="cacute.smcp" horiz-adv-x="505" unicode="&#57908;" /><glyph d="M264 550Q244 550 229.5 555.5Q215 561 201 578L118 677Q107 690 104.5 703Q102 716 105.5 726.5Q109 737 118 743.5Q127 750 139 750H230Q253 750 268 742Q283 734 298 717L321 689L352 717Q372 734 388.5 742Q405 750 428 750H501Q513 750 523 743.5Q533 737 537.5 726.5Q542 716 539 703Q536 690 522 677L415 578Q397 561 385.5 555.5Q374 550 354 550Z" glyph-name="caron" horiz-adv-x="534" unicode="&#711;" /><glyph d="M279 790Q251 790 234 791.5Q217 793 200 804L127 848Q118 854 114 862.5Q110 871 112 879.5Q114 888 121 894Q128 900 141 900H245Q273 900 288.5 896Q304 892 324 880L343 869L364 880Q376 886 385 890Q394 894 403.5 896Q413 898 424 899Q435 900 449 900H537Q550 900 557.5 893.5Q565 887 567 878.5Q569 870 565.5 861.5Q562 853 553 848L470 804Q460 799 452.5 796Q445 793 437.5 791.5Q430 790 420.5 790Q411 790 397 790Z" glyph-name="caron.cap" horiz-adv-x="534" unicode="&#58413;" /><glyph d="M437 750Q448 750 458.5 746.5Q469 743 476 735Q483 727 483.5 714Q484 701 476 682L435 591Q427 573 414.5 561.5Q402 550 381 550H370Q349 550 339 562.5Q329 575 334 595L354 698Q359 721 371.5 735.5Q384 750 410 750Z" glyph-name="caronSlovak" horiz-adv-x="534" unicode="&#58387;" /><glyph d="M232 550Q212 550 197.5 555.5Q183 561 169 578L86 677Q75 690 72.5 703Q70 716 73.5 726.5Q77 737 86 743.5Q95 750 107 750H198Q221 750 236 742Q251 734 266 717L289 689L320 717Q340 734 356.5 742Q373 750 396 750H469Q481 750 491 743.5Q501 737 505.5 726.5Q510 716 507 703Q504 690 490 677L383 578Q365 561 353.5 555.5Q342 550 322 550ZM235 250Q230 204 247.5 185.5Q265 167 304 167Q312 167 319 167.5Q326 168 332 169Q361 173 375.5 160Q390 147 386 121L378 50Q374 24 358.5 8Q343 -8 310 -13Q290 -16 272 -17Q254 -18 230 -18Q93 -18 43 51Q-7 120 9 250Q17 315 37 365Q57 415 91.5 449Q126 483 176.5 500.5Q227 518 296 518Q320 518 337.5 517Q355 516 374 513Q406 508 418 492Q430 476 427 450L418 379Q415 353 398 340Q381 327 352 331Q346 332 339 332.5Q332 333 325 333Q283 333 262 314.5Q241 296 235 250Z" glyph-name="ccaron" horiz-adv-x="417" unicode="&#269;" /><glyph d="M259 550Q239 550 224.5 555.5Q210 561 196 578L113 677Q102 690 99.5 703Q97 716 100.5 726.5Q104 737 113 743.5Q122 750 134 750H225Q248 750 263 742Q278 734 293 717L316 689L347 717Q367 734 383.5 742Q400 750 423 750H496Q508 750 518 743.5Q528 737 532.5 726.5Q537 716 534 703Q531 690 517 677L410 578Q392 561 380.5 555.5Q369 550 349 550ZM22 250Q38 380 114.5 449Q191 518 343 518Q372 518 396.5 515.5Q421 513 444 507Q475 499 488 484Q501 469 498 440L488 362Q484 332 462.5 320.5Q441 309 411 316Q393 321 377.5 323Q362 325 342 325Q304 325 277 309Q250 293 245 250Q240 207 263 191Q286 175 324 175Q344 175 359.5 177Q375 179 395 184Q427 191 445.5 179.5Q464 168 460 138L451 60Q447 31 430.5 16Q414 1 381 -7Q357 -13 331.5 -15.5Q306 -18 277 -18Q125 -18 65.5 51Q6 120 22 250Z" glyph-name="ccaron.smcp" horiz-adv-x="505" unicode="&#57910;" /><glyph d="M235 250Q230 204 247.5 185.5Q265 167 304 167Q312 167 319 167.5Q326 168 332 169Q361 173 375.5 160Q390 147 386 121L378 50Q374 24 358.5 8Q343 -8 310 -13Q294 -15 280 -16Q266 -17 250 -18L249 -31Q249 -42 256 -44Q299 -56 325 -80Q351 -104 347 -145Q340 -198 292.5 -224Q245 -250 170 -250Q138 -250 119.5 -247Q101 -244 93 -242Q76 -238 69 -224.5Q62 -211 64 -192L65 -180Q67 -159 79.5 -147Q92 -135 110 -135Q117 -135 130.5 -137Q144 -139 153 -139Q179 -139 196.5 -132Q214 -125 216 -112Q218 -100 207.5 -92.5Q197 -85 183 -82Q161 -77 153 -66Q145 -55 150 -33L155 -11Q62 6 28.5 73Q-5 140 9 250Q17 315 37 365Q57 415 91.5 449Q126 483 176.5 500.5Q227 518 296 518Q320 518 337.5 517Q355 516 374 513Q406 508 418 492Q430 476 427 450L418 379Q415 353 398 340Q381 327 352 331Q346 332 339 332.5Q332 333 325 333Q283 333 262 314.5Q241 296 235 250Z" glyph-name="ccedilla" horiz-adv-x="417" unicode="&#231;" /><glyph d="M180 -139Q206 -139 223.5 -132Q241 -125 243 -112Q245 -100 234.5 -92.5Q224 -85 210 -82Q188 -77 180 -66Q172 -55 177 -33L182 -9Q83 11 45.5 76.5Q8 142 22 250Q38 380 114.5 449Q191 518 343 518Q372 518 396.5 515.5Q421 513 444 507Q475 499 488 484Q501 469 498 440L488 362Q484 332 462.5 320.5Q441 309 411 316Q393 321 377.5 323Q362 325 342 325Q304 325 277 309Q250 293 245 250Q240 207 263 191Q286 175 324 175Q344 175 359.5 177Q375 179 395 184Q427 191 445.5 179.5Q464 168 460 138L451 60Q447 31 430.5 16Q414 1 381 -7Q357 -13 331.5 -15.5Q306 -18 277 -18L276 -31Q276 -42 283 -44Q326 -56 352 -80Q378 -104 374 -145Q367 -198 319.5 -224Q272 -250 197 -250Q165 -250 146.5 -247Q128 -244 120 -242Q103 -238 96 -224.5Q89 -211 91 -192L92 -180Q94 -159 106.5 -147Q119 -135 137 -135Q144 -135 157.5 -137Q171 -139 180 -139Z" glyph-name="ccedilla.smcp" horiz-adv-x="505" unicode="&#57912;" /><glyph d="M337 750Q357 750 371.5 744.5Q386 739 400 722L483 623Q494 610 496.5 597Q499 584 495.5 573.5Q492 563 483 556.5Q474 550 462 550H371Q348 550 333 558Q318 566 303 583L280 611L249 583Q229 566 212.5 558Q196 550 173 550H100Q88 550 78 556.5Q68 563 63.5 573.5Q59 584 62 597Q65 610 79 623L186 722Q204 739 215.5 744.5Q227 750 247 750ZM235 250Q230 204 247.5 185.5Q265 167 304 167Q312 167 319 167.5Q326 168 332 169Q361 173 375.5 160Q390 147 386 121L378 50Q374 24 358.5 8Q343 -8 310 -13Q290 -16 272 -17Q254 -18 230 -18Q93 -18 43 51Q-7 120 9 250Q17 315 37 365Q57 415 91.5 449Q126 483 176.5 500.5Q227 518 296 518Q320 518 337.5 517Q355 516 374 513Q406 508 418 492Q430 476 427 450L418 379Q415 353 398 340Q381 327 352 331Q346 332 339 332.5Q332 333 325 333Q283 333 262 314.5Q241 296 235 250Z" glyph-name="ccircumflex" horiz-adv-x="417" unicode="&#265;" /><glyph d="M364 750Q384 750 398.5 744.5Q413 739 427 722L510 623Q521 610 523.5 597Q526 584 522.5 573.5Q519 563 510 556.5Q501 550 489 550H398Q375 550 360 558Q345 566 330 583L307 611L276 583Q256 566 239.5 558Q223 550 200 550H127Q115 550 105 556.5Q95 563 90.5 573.5Q86 584 89 597Q92 610 106 623L213 722Q231 739 242.5 744.5Q254 750 274 750ZM22 250Q38 380 114.5 449Q191 518 343 518Q372 518 396.5 515.5Q421 513 444 507Q475 499 488 484Q501 469 498 440L488 362Q484 332 462.5 320.5Q441 309 411 316Q393 321 377.5 323Q362 325 342 325Q304 325 277 309Q250 293 245 250Q240 207 263 191Q286 175 324 175Q344 175 359.5 177Q375 179 395 184Q427 191 445.5 179.5Q464 168 460 138L451 60Q447 31 430.5 16Q414 1 381 -7Q357 -13 331.5 -15.5Q306 -18 277 -18Q125 -18 65.5 51Q6 120 22 250Z" glyph-name="ccircumflex.smcp" horiz-adv-x="505" unicode="&#57909;" /><glyph d="M235 250Q230 204 247.5 185.5Q265 167 304 167Q312 167 319 167.5Q326 168 332 169Q361 173 375.5 160Q390 147 386 121L378 50Q374 24 358.5 8Q343 -8 310 -13Q290 -16 272 -17Q254 -18 230 -18Q93 -18 43 51Q-7 120 9 250Q17 315 37 365Q57 415 91.5 449Q126 483 176.5 500.5Q227 518 296 518Q320 518 337.5 517Q355 516 374 513Q406 508 418 492Q430 476 427 450L418 379Q415 353 398 340Q381 327 352 331Q346 332 339 332.5Q332 333 325 333Q283 333 262 314.5Q241 296 235 250ZM166 650Q166 674 175.5 695.5Q185 717 201 733Q217 749 238.5 758.5Q260 768 284 768Q308 768 329.5 758.5Q351 749 367 733Q383 717 392.5 695.5Q402 674 402 650Q402 626 392.5 604.5Q383 583 367 567Q351 551 329.5 541.5Q308 532 284 532Q260 532 238.5 541.5Q217 551 201 567Q185 583 175.5 604.5Q166 626 166 650Z" glyph-name="cdotaccent" horiz-adv-x="417" unicode="&#267;" /><glyph d="M22 250Q38 380 114.5 449Q191 518 343 518Q372 518 396.5 515.5Q421 513 444 507Q475 499 488 484Q501 469 498 440L488 362Q484 332 462.5 320.5Q441 309 411 316Q393 321 377.5 323Q362 325 342 325Q304 325 277 309Q250 293 245 250Q240 207 263 191Q286 175 324 175Q344 175 359.5 177Q375 179 395 184Q427 191 445.5 179.5Q464 168 460 138L451 60Q447 31 430.5 16Q414 1 381 -7Q357 -13 331.5 -15.5Q306 -18 277 -18Q125 -18 65.5 51Q6 120 22 250ZM193 650Q193 674 202.5 695.5Q212 717 228 733Q244 749 265.5 758.5Q287 768 311 768Q335 768 356.5 758.5Q378 749 394 733Q410 717 419.5 695.5Q429 674 429 650Q429 626 419.5 604.5Q410 583 394 567Q378 551 356.5 541.5Q335 532 311 532Q287 532 265.5 541.5Q244 551 228 567Q212 583 202.5 604.5Q193 626 193 650Z" glyph-name="cdotaccent.smcp" horiz-adv-x="505" unicode="&#57911;" /><glyph d="M187 -139Q213 -139 230.5 -132Q248 -125 250 -112Q252 -100 241.5 -92.5Q231 -85 217 -82Q195 -77 187.5 -66Q180 -55 184 -33L192 0H285L283 -32Q282 -41 290 -44Q333 -56 359 -80Q385 -104 381 -145Q374 -198 326.5 -224Q279 -250 204 -250Q172 -250 153.5 -247Q135 -244 127 -242Q110 -238 103 -224.5Q96 -211 98 -192L99 -180Q102 -159 114 -147Q126 -135 144 -135Q151 -135 164.5 -137Q178 -139 187 -139Z" glyph-name="cedilla" horiz-adv-x="534" unicode="&#184;" /><glyph d="M436 120Q424 117 407.5 114.5Q391 112 373 110.5Q355 109 337 108Q319 107 304 107H283L252 42Q232 0 191 0H138Q109 0 97.5 19.5Q86 39 102 69L136 137Q72 168 49.5 228Q27 288 38 375Q52 494 120 563Q188 632 328 642L360 708Q380 750 422 750H476Q505 750 515.5 730.5Q526 711 511 681L487 632Q489 632 492 631Q498 629 501 629Q533 621 545 608.5Q557 596 553 567L544 492Q540 462 525 452Q510 442 484 449Q475 451 461 453Q447 455 432.5 456.5Q418 458 404 459Q390 460 380 460Q348 460 326 454Q304 448 290.5 437Q277 426 270 410.5Q263 395 261 375Q258 355 261 339.5Q264 324 275 313Q286 302 306.5 296Q327 290 359 290Q369 290 383.5 291Q398 292 413 293.5Q428 295 442 297Q456 299 465 301Q494 308 506.5 298Q519 288 515 258L506 183Q502 154 486 141Q470 128 436 120Z" glyph-name="cent" horiz-adv-x="535" unicode="&#162;" /><glyph d="M436 120Q424 117 407.5 114.5Q391 112 373 110.5Q355 109 337 108Q319 107 304 107H283L252 42Q232 0 191 0H138Q109 0 97.5 19.5Q86 39 102 69L136 137Q72 168 49.5 228Q27 288 38 375Q52 494 120 563Q188 632 328 642L360 708Q380 750 422 750H476Q505 750 515.5 730.5Q526 711 511 681L487 632Q489 632 492 631Q498 629 501 629Q533 621 545 608.5Q557 596 553 567L544 492Q540 462 525 452Q510 442 484 449Q475 451 461 453Q447 455 432.5 456.5Q418 458 404 459Q390 460 380 460Q348 460 326 454Q304 448 290.5 437Q277 426 270 410.5Q263 395 261 375Q258 355 261 339.5Q264 324 275 313Q286 302 306.5 296Q327 290 359 290Q369 290 383.5 291Q398 292 413 293.5Q428 295 442 297Q456 299 465 301Q494 308 506.5 298Q519 288 515 258L506 183Q502 154 486 141Q470 128 436 120Z" glyph-name="cent.LP" horiz-adv-x="535" unicode="&#58659;" /><glyph d="M420 -5Q408 -8 391.5 -10.5Q375 -13 357 -14.5Q339 -16 321 -17Q303 -18 288 -18H267L236 -83Q216 -125 175 -125H122Q93 -125 81.5 -105.5Q70 -86 86 -56L120 12Q56 43 33.5 103Q11 163 22 250Q36 369 104 438Q172 507 312 517L344 583Q364 625 406 625H460Q489 625 499.5 605.5Q510 586 495 556L471 507Q473 507 476 506Q482 504 485 504Q517 496 529 483.5Q541 471 537 442L528 367Q524 337 509 327Q494 317 468 324Q459 326 445 328Q431 330 416.5 331.5Q402 333 388 334Q374 335 364 335Q332 335 310 329Q288 323 274.5 312Q261 301 254 285.5Q247 270 245 250Q242 230 245 214.5Q248 199 259 188Q270 177 290.5 171Q311 165 343 165Q353 165 367.5 166Q382 167 397 168.5Q412 170 426 172Q440 174 449 176Q478 183 490.5 173Q503 163 499 133L490 58Q486 29 470 16Q454 3 420 -5Z" glyph-name="cent.OP" horiz-adv-x="535" /><glyph d="M430 58Q418 55 401.5 52.5Q385 50 367 48.5Q349 47 331 46Q313 45 298 45H277L246 -20Q226 -62 185 -62H132Q103 -62 91.5 -42.5Q80 -23 96 7L130 75Q66 106 43.5 166Q21 226 32 313Q46 432 114 501Q182 570 322 580L354 646Q374 688 416 688H470Q499 688 509.5 668.5Q520 649 505 619L481 570Q483 570 486 569Q492 567 495 567Q527 559 539 546.5Q551 534 547 505L538 430Q534 400 519 390Q504 380 478 387Q469 389 455 391Q441 393 426.5 394.5Q412 396 398 397Q384 398 374 398Q342 398 320 392Q298 386 284.5 375Q271 364 264 348.5Q257 333 255 313Q252 293 255 277.5Q258 262 269 251Q280 240 300.5 234Q321 228 353 228Q363 228 377.5 229Q392 230 407 231.5Q422 233 436 235Q450 237 459 239Q488 246 500.5 236Q513 226 509 196L500 121Q496 92 480 79Q464 66 430 58Z" glyph-name="cent.hybrid" horiz-adv-x="535" /><glyph d="M369 750Q389 750 403.5 744.5Q418 739 432 722L515 623Q526 610 528.5 597Q531 584 527.5 573.5Q524 563 515 556.5Q506 550 494 550H403Q380 550 365 558Q350 566 335 583L312 611L281 583Q261 566 244.5 558Q228 550 205 550H132Q120 550 110 556.5Q100 563 95.5 573.5Q91 584 94 597Q97 610 111 623L218 722Q236 739 247.5 744.5Q259 750 279 750Z" glyph-name="circumflex" horiz-adv-x="534" unicode="&#710;" /><glyph d="M401 900Q429 900 446 898.5Q463 897 480 886L553 842Q562 836 566 827.5Q570 819 568 810.5Q566 802 559 796Q552 790 539 790H435Q421 790 410.5 791Q400 792 391.5 794Q383 796 374.5 800Q366 804 356 810L337 821L316 810Q293 798 276 794Q259 790 231 790H143Q130 790 122.5 796.5Q115 803 113 811.5Q111 820 114.5 828.5Q118 837 127 842L210 886Q220 891 227.5 894Q235 897 242.5 898.5Q250 900 259.5 900Q269 900 283 900Z" glyph-name="circumflex.cap" horiz-adv-x="534" unicode="&#58403;" /><glyph d="M451 307Q454 262 459.5 226Q465 190 474 159.5Q483 129 496.5 101.5Q510 74 530 47Q542 30 534.5 15Q527 0 510 0H354Q337 0 329.5 15Q322 30 334 47Q354 74 367.5 101.5Q381 129 390 159.5Q399 190 404.5 226Q410 262 413 307L410 308Q398 278 380 250Q362 222 338 200.5Q314 179 284 166Q254 153 218 153Q182 153 151 166Q120 179 97 201.5Q74 224 61 254.5Q48 285 48 321Q48 358 60 390Q72 422 94.5 445Q117 468 147.5 481Q178 494 216 494Q241 494 260.5 487.5Q280 481 297 472L299 474Q283 498 272.5 526.5Q262 555 262 587Q262 623 275 654.5Q288 686 310.5 709.5Q333 733 364 746.5Q395 760 432 760Q469 760 500 746.5Q531 733 553.5 709.5Q576 686 589 654.5Q602 623 602 587Q602 555 591.5 526.5Q581 498 565 474L567 472Q584 481 603.5 487.5Q623 494 648 494Q685 494 716 481Q747 468 769.5 445Q792 422 804 390Q816 358 816 321Q816 285 803 254.5Q790 224 767 201.5Q744 179 713 166Q682 153 646 153Q610 153 580 166Q550 179 526 200.5Q502 222 484 250Q466 278 454 308Z" glyph-name="club" horiz-adv-x="864" unicode="&#9827;" /><glyph d="M43 400Q43 424 52.5 445.5Q62 467 78 483Q94 499 115.5 508.5Q137 518 161 518Q185 518 206.5 508.5Q228 499 244 483Q260 467 269.5 445.5Q279 424 279 400Q279 376 269.5 354.5Q260 333 244 317Q228 301 206.5 291.5Q185 282 161 282Q137 282 115.5 291.5Q94 301 78 317Q62 333 52.5 354.5Q43 376 43 400ZM6 100Q6 124 15.5 145.5Q25 167 41 183Q57 199 78.5 208.5Q100 218 124 218Q148 218 169.5 208.5Q191 199 207 183Q223 167 232.5 145.5Q242 124 242 100Q242 76 232.5 54.5Q223 33 207 17Q191 1 169.5 -8.5Q148 -18 124 -18Q100 -18 78.5 -8.5Q57 1 41 17Q25 33 15.5 54.5Q6 76 6 100Z" glyph-name="colon" horiz-adv-x="284" unicode=":" /><glyph d="M178 200Q199 200 212.5 192.5Q226 185 232.5 172.5Q239 160 238.5 143.5Q238 127 229 110L141 -72Q126 -104 108 -114.5Q90 -125 61 -125H13Q-16 -125 -30.5 -108.5Q-45 -92 -38 -64L10 142Q24 200 86 200Z" glyph-name="comma" horiz-adv-x="284" unicode="," /><glyph d="M266 -50Q285 -50 296.5 -57.5Q308 -65 312.5 -76.5Q317 -88 314.5 -102Q312 -116 303 -130L260 -197Q240 -229 224.5 -239.5Q209 -250 181 -250H149Q120 -250 104 -235Q88 -220 96 -189L117 -108Q126 -76 145.5 -63Q165 -50 193 -50Z" glyph-name="commaaccent" horiz-adv-x="534" unicode="&#58388;" /><glyph d="M194 313Q206 410 263.5 462Q321 514 435 514Q462 514 484.5 511.5Q507 509 523 504Q543 499 552 488Q561 477 558 453L549 381Q547 364 536 360Q525 356 512 359Q499 362 478.5 365.5Q458 369 435 369Q406 369 386 357Q366 345 362 313Q358 281 375 269Q392 257 421 257Q444 257 465.5 260.5Q487 264 500 267Q514 270 524.5 266Q535 262 533 245L524 173Q521 149 509 138Q497 127 476 122Q459 117 435.5 114.5Q412 112 385 112Q271 112 226.5 163.5Q182 215 194 313ZM366 63Q418 63 466.5 76.5Q515 90 553.5 119.5Q592 149 618.5 196.5Q645 244 653 312Q661 380 646.5 427.5Q632 475 601 505Q570 535 525 548.5Q480 562 428 562Q375 562 326.5 548.5Q278 535 239 505Q200 475 173.5 427.5Q147 380 139 312Q131 244 145.5 196.5Q160 149 191.5 119.5Q223 90 268 76.5Q313 63 366 63ZM355 -14Q287 -14 228 3.5Q169 21 128 60Q87 99 67.5 161Q48 223 59 312Q70 402 104.5 464Q139 526 189.5 565Q240 604 303.5 621.5Q367 639 435 639Q504 639 563.5 621.5Q623 604 664 565Q705 526 724.5 464Q744 402 733 312Q722 223 687.5 161Q653 99 602 60Q551 21 487.5 3.5Q424 -14 355 -14Z" glyph-name="copyright" horiz-adv-x="776" unicode="&#169;" /><glyph d="M51 564Q63 663 118 715.5Q173 768 282 768Q302 768 321.5 766.5Q341 765 352 763Q367 760 376 750Q385 740 383 723L374 648Q372 631 362 621Q352 611 329 615Q325 616 317 616.5Q309 617 305 617Q272 617 254.5 606.5Q237 596 233 564Q229 532 244 521.5Q259 511 292 511Q296 511 304 511.5Q312 512 316 513Q340 517 347.5 507Q355 497 353 480L344 405Q342 388 330.5 378Q319 368 303 365Q291 363 271.5 361.5Q252 360 232 360Q123 360 81 412.5Q39 465 51 564Z" glyph-name="cordinal" horiz-adv-x="338" unicode="&#57729;" /><glyph d="M233 564Q228 532 246.5 521.5Q265 511 307 511Q323 511 335 512.5Q347 514 353 515Q376 519 384 508.5Q392 498 390 478L382 412Q380 392 371.5 381Q363 370 345 366Q334 364 309 362Q284 360 252 360Q190 360 148.5 373.5Q107 387 83.5 413Q60 439 52.5 477Q45 515 51 564Q57 613 74 651Q91 689 121 715Q151 741 195.5 754.5Q240 768 302 768Q334 768 358.5 766Q383 764 394 762Q425 755 419 716L411 650Q409 630 398 619.5Q387 609 365 613Q359 614 347.5 615.5Q336 617 320 617Q278 617 257.5 606.5Q237 596 233 564Z" glyph-name="cordinal.smcp" horiz-adv-x="378" unicode="&#58195;" /><glyph d="M696 375Q696 287 662 222L723 161Q772 112 722 64L704 46Q656 -4 607 45L543 109Q509 93 477 85Q445 77 400 77Q355 77 323 85Q291 93 257 109L193 45Q144 -4 96 46L78 64Q28 112 77 161L138 222Q104 287 104 375Q104 463 138 528L77 589Q28 638 78 686L96 704Q144 754 193 705L257 641Q291 657 323 665Q355 673 400 673Q445 673 477 665Q509 657 543 641L607 705Q656 754 704 704L722 686Q772 638 723 589L662 528Q696 463 696 375ZM492 375Q492 429 468.5 451.5Q445 474 400 474Q355 474 331.5 451.5Q308 429 308 375Q308 321 331.5 298.5Q355 276 400 276Q445 276 468.5 298.5Q492 321 492 375Z" glyph-name="currency" horiz-adv-x="800" unicode="&#164;" /><glyph d="M235 250Q231 219 231 199.5Q231 180 234.5 168.5Q238 157 245 153Q252 149 263 149Q274 149 284 152Q294 155 300 158L322 342Q317 345 308 348Q299 351 288 351Q277 351 269 347Q261 343 254.5 331.5Q248 320 243.5 300.5Q239 281 235 250ZM365 690Q372 750 433 750H543Q602 750 595 690L518 60Q510 0 451 0H399Q369 0 356 11.5Q343 23 338 42Q298 10 258 -4Q218 -18 176 -18Q127 -18 91.5 -4.5Q56 9 34.5 40.5Q13 72 6.5 123.5Q0 175 9 250Q18 325 37.5 376Q57 427 86 458.5Q115 490 154 504Q193 518 242 518Q269 518 294 512.5Q319 507 342 498Z" glyph-name="d" horiz-adv-x="562" unicode="d" /><glyph d="M266 345 243 155H273Q304 155 317.5 178.5Q331 202 337 250Q343 298 335 321.5Q327 345 296 345ZM60 420Q70 500 150 500H337Q413 500 460.5 481Q508 462 533.5 428Q559 394 565 348.5Q571 303 564 250Q558 197 540.5 151.5Q523 106 489.5 72Q456 38 404 19Q352 0 276 0H89Q9 0 18 80Z" glyph-name="d.smcp" horiz-adv-x="586" unicode="&#57860;" /><glyph d="M156 465Q151 433 155.5 423.5Q160 414 171 414Q176 414 182 415.5Q188 417 191 419L202 511Q194 515 184 515Q173 515 166.5 505.5Q160 496 156 465ZM224 685Q227 715 257 715H317Q347 715 344 685L305 370Q300 340 271 340H240Q225 340 218.5 345.5Q212 351 210 361Q190 345 168 338Q146 331 126 331Q74 331 51 360.5Q28 390 38 465Q47 540 77 569.5Q107 599 159 599Q187 599 212 589Z" glyph-name="d.superior" horiz-adv-x="313" unicode="&#58212;" /><glyph d="M352 310Q352 280 333 265Q314 250 284 250H168Q138 250 123 265.5Q108 281 116 310L150 451L94 443Q63 438 50 455.5Q37 473 41 503L52 594Q56 624 73.5 641.5Q91 659 120 654L174 646L172 690Q171 720 190.5 735Q210 750 240 750H336Q366 750 381 735Q396 720 388 690L376 646L432 654Q463 659 475.5 641.5Q488 624 484 594L473 503Q469 473 452 455.5Q435 438 406 443L352 451Z" glyph-name="dagger" horiz-adv-x="452" unicode="&#8224;" /><glyph d="M321 60Q321 30 302.5 15Q284 0 254 0H138Q108 0 92.5 15.5Q77 31 85 60L119 201L63 193Q32 188 19.5 205.5Q7 223 11 253L22 344Q26 374 43 391.5Q60 409 89 404L137 397L143 423V450L94 443Q63 438 50 455.5Q37 473 41 503L52 594Q56 624 73.5 641.5Q91 659 120 654L174 646L172 690Q171 720 190.5 735Q210 750 240 750H336Q366 750 381 735Q396 720 388 690L376 646L432 654Q463 659 475.5 641.5Q488 624 484 594L473 503Q469 473 452 455.5Q435 438 406 443L358 450L351 423V397L401 404Q432 409 445 391.5Q458 374 454 344L443 253Q439 223 421.5 205.5Q404 188 375 193L321 201Z" glyph-name="daggerdbl" horiz-adv-x="452" unicode="&#8225;" /><glyph d="M710 750Q721 750 731.5 746.5Q742 743 749 735Q756 727 756.5 714Q757 701 749 682L708 591Q700 573 687.5 561.5Q675 550 654 550H643Q622 550 612 562.5Q602 575 607 595L627 698Q632 721 644.5 735.5Q657 750 683 750ZM235 250Q231 219 231 199.5Q231 180 234.5 168.5Q238 157 245 153Q252 149 263 149Q274 149 284 152Q294 155 300 158L322 342Q317 345 308 348Q299 351 288 351Q277 351 269 347Q261 343 254.5 331.5Q248 320 243.5 300.5Q239 281 235 250ZM365 690Q372 750 433 750H543Q602 750 595 690L518 60Q510 0 451 0H399Q369 0 356 11.5Q343 23 338 42Q298 10 258 -4Q218 -18 176 -18Q127 -18 91.5 -4.5Q56 9 34.5 40.5Q13 72 6.5 123.5Q0 175 9 250Q18 325 37.5 376Q57 427 86 458.5Q115 490 154 504Q193 518 242 518Q269 518 294 512.5Q319 507 342 498Z" glyph-name="dcaron" horiz-adv-x="562" unicode="&#271;" /><glyph d="M266 345 243 155H273Q304 155 317.5 178.5Q331 202 337 250Q343 298 335 321.5Q327 345 296 345ZM266 550Q246 550 231.5 555.5Q217 561 203 578L120 677Q109 690 106.5 703Q104 716 107.5 726.5Q111 737 120 743.5Q129 750 141 750H232Q255 750 270 742Q285 734 300 717L323 689L354 717Q374 734 390.5 742Q407 750 430 750H503Q515 750 525 743.5Q535 737 539.5 726.5Q544 716 541 703Q538 690 524 677L417 578Q399 561 387.5 555.5Q376 550 356 550ZM60 420Q70 500 150 500H337Q413 500 460.5 481Q508 462 533.5 428Q559 394 565 348.5Q571 303 564 250Q558 197 540.5 151.5Q523 106 489.5 72Q456 38 404 19Q352 0 276 0H89Q9 0 18 80Z" glyph-name="dcaron.smcp" horiz-adv-x="596" unicode="&#57913;" /><glyph d="M235 250Q231 219 231 199.5Q231 180 234.5 168.5Q238 157 245 153Q252 149 263 149Q274 149 284 152Q294 155 300 158L322 342Q317 345 308 348Q299 351 288 351Q277 351 269 347Q261 343 254.5 331.5Q248 320 243.5 300.5Q239 281 235 250ZM363 676 365 690Q372 750 433 750H543Q602 750 595 690L593 676H605Q664 676 657 616L655 596Q647 536 587 536H576L518 60Q510 0 451 0H399Q369 0 356 11.5Q343 23 338 42Q298 10 258 -4Q218 -18 176 -18Q127 -18 91.5 -4.5Q56 9 34.5 40.5Q13 72 6.5 123.5Q0 175 9 250Q18 325 37.5 376Q57 427 86 458.5Q115 490 154 504Q193 518 242 518Q269 518 294 512.5Q319 507 342 498L346 536H307Q247 536 255 596L257 616Q264 676 325 676Z" glyph-name="dcroat" horiz-adv-x="562" unicode="&#273;" /><glyph d="M266 345 262 310H268Q322 310 316 255L315 250Q309 195 253 195H248L243 155H273Q304 155 317.5 178.5Q331 202 337 250Q343 298 335 321.5Q327 345 296 345ZM60 420Q70 500 150 500H337Q413 500 460.5 481Q508 462 533.5 428Q559 394 565 348.5Q571 303 564 250Q558 197 540.5 151.5Q523 106 489.5 72Q456 38 404 19Q352 0 276 0H89Q9 0 18 80L32 196Q-5 202 0 250L1 255Q5 301 46 309Z" glyph-name="dcroat.smcp" horiz-adv-x="612" unicode="&#57916;" /><glyph d="M216 592Q214 577 221.5 567Q229 557 252 557Q275 557 284.5 567Q294 577 296 592Q298 607 290.5 617Q283 627 260 627Q237 627 227.5 617Q218 607 216 592ZM443 592Q422 416 235 416Q48 416 69 592Q91 768 278 768Q465 768 443 592Z" glyph-name="degree" horiz-adv-x="428" unicode="&#176;" /><glyph d="M432 -10Q412 -10 401 -0.5Q390 9 383 23Q339 108 268 186Q197 264 104 330Q93 338 86 348Q79 358 79 375Q79 392 86 402Q93 412 104 420Q197 486 268 564Q339 642 383 727Q390 741 401 750.5Q412 760 432 760Q452 760 463 750.5Q474 741 481 727Q525 642 596 564Q667 486 760 420Q771 412 778 402Q785 392 785 375Q785 358 778 348Q771 338 760 330Q667 264 596 186Q525 108 481 23Q474 9 463 -0.5Q452 -10 432 -10Z" glyph-name="diamond" horiz-adv-x="864" unicode="&#9830;" /><glyph d="M331 650Q331 674 340.5 695.5Q350 717 366 733Q382 749 403.5 758.5Q425 768 449 768Q473 768 494.5 758.5Q516 749 532 733Q548 717 557.5 695.5Q567 674 567 650Q567 626 557.5 604.5Q548 583 532 567Q516 551 494.5 541.5Q473 532 449 532Q425 532 403.5 541.5Q382 551 366 567Q350 583 340.5 604.5Q331 626 331 650ZM65 650Q65 674 74.5 695.5Q84 717 100 733Q116 749 137.5 758.5Q159 768 183 768Q207 768 228.5 758.5Q250 749 266 733Q282 717 291.5 695.5Q301 674 301 650Q301 626 291.5 604.5Q282 583 266 567Q250 551 228.5 541.5Q207 532 183 532Q159 532 137.5 541.5Q116 551 100 567Q84 583 74.5 604.5Q65 626 65 650Z" glyph-name="dieresis" horiz-adv-x="534" unicode="&#168;" /><glyph d="M355 845Q360 883 388 896.5Q416 910 481 910Q546 910 571 896.5Q596 883 591 845Q586 806 558 793Q530 780 465 780Q400 780 375 793Q350 806 355 845ZM89 845Q94 883 122 896.5Q150 910 215 910Q280 910 305 896.5Q330 883 325 845Q320 806 292 793Q264 780 199 780Q134 780 109 793Q84 806 89 845Z" glyph-name="dieresis.cap" horiz-adv-x="534" unicode="&#58409;" /><glyph d="M534 447Q594 447 587 387L576 295Q568 235 508 235H88Q28 235 36 295L47 387Q54 447 114 447ZM164 100Q164 124 173.5 145.5Q183 167 199 183Q215 199 236.5 208.5Q258 218 282 218Q306 218 327.5 208.5Q349 199 365 183Q381 167 390.5 145.5Q400 124 400 100Q400 76 390.5 54.5Q381 33 365 17Q349 1 327.5 -8.5Q306 -18 282 -18Q258 -18 236.5 -8.5Q215 1 199 17Q183 33 173.5 54.5Q164 76 164 100ZM223 582Q223 606 232.5 627.5Q242 649 258 665Q274 681 295.5 690.5Q317 700 341 700Q365 700 386.5 690.5Q408 681 424 665Q440 649 449.5 627.5Q459 606 459 582Q459 558 449.5 536.5Q440 515 424 499Q408 483 386.5 473.5Q365 464 341 464Q317 464 295.5 473.5Q274 483 258 499Q242 515 232.5 536.5Q223 558 223 582Z" glyph-name="divide" horiz-adv-x="600" unicode="&#247;" /><glyph d="M138 269Q77 269 85 329L96 421Q103 481 164 481H794Q853 481 846 421L835 329Q827 269 768 269ZM381 650Q381 674 390.5 695.5Q400 717 416 733Q432 749 453.5 758.5Q475 768 499 768Q523 768 544.5 758.5Q566 749 582 733Q598 717 607.5 695.5Q617 674 617 650Q617 626 607.5 604.5Q598 583 582 567Q566 551 544.5 541.5Q523 532 499 532Q475 532 453.5 541.5Q432 551 416 567Q400 583 390.5 604.5Q381 626 381 650ZM314 100Q314 124 323.5 145.5Q333 167 349 183Q365 199 386.5 208.5Q408 218 432 218Q456 218 477.5 208.5Q499 199 515 183Q531 167 540.5 145.5Q550 124 550 100Q550 76 540.5 54.5Q531 33 515 17Q499 1 477.5 -8.5Q456 -18 432 -18Q408 -18 386.5 -8.5Q365 1 349 17Q333 33 323.5 54.5Q314 76 314 100Z" glyph-name="divide.cap" horiz-adv-x="900" unicode="&#58772;" /><glyph d="M306 474Q270 474 269 458Q268 450 272.5 447Q277 444 285 443Q348 437 396 429.5Q444 422 475.5 406Q507 390 520.5 361.5Q534 333 528 285Q523 247 508 214Q493 181 462.5 157Q432 133 383.5 119.5Q335 106 265 106H262L231 42Q211 0 170 0H116Q87 0 76 19.5Q65 39 80 69L105 118Q97 119 82.5 121.5Q68 124 61 126Q28 134 19 149Q10 164 14 193L23 261Q26 291 44.5 300Q63 309 88 301Q100 298 120.5 293Q141 288 165.5 284Q190 280 217.5 277Q245 274 271 274Q288 274 297.5 277Q307 280 308 290Q309 299 304.5 301.5Q300 304 292 305Q227 311 178.5 319Q130 327 99.5 343.5Q69 360 55.5 388Q42 416 48 463Q53 503 70 536.5Q87 570 118 593Q149 616 195 629Q241 642 306 642H308L339 708Q359 750 401 750H456Q485 750 495.5 730.5Q506 711 491 681L466 631Q474 630 482 629Q489 628 495.5 626.5Q502 625 507 624Q538 616 545.5 601.5Q553 587 549 558L541 494Q537 464 519.5 456Q502 448 476 453Q463 456 443 459.5Q423 463 399.5 466Q376 469 351.5 471.5Q327 474 306 474Z" glyph-name="dollar" horiz-adv-x="546" unicode="$" /><glyph d="M306 474Q270 474 269 458Q268 450 272.5 447Q277 444 285 443Q348 437 396 429.5Q444 422 475.5 406Q507 390 520.5 361.5Q534 333 528 285Q523 247 508 214Q493 181 462.5 157Q432 133 383.5 119.5Q335 106 265 106H262L231 42Q211 0 170 0H116Q87 0 76 19.5Q65 39 80 69L105 118Q97 119 82.5 121.5Q68 124 61 126Q28 134 19 149Q10 164 14 193L23 261Q26 291 44.5 300Q63 309 88 301Q100 298 120.5 293Q141 288 165.5 284Q190 280 217.5 277Q245 274 271 274Q288 274 297.5 277Q307 280 308 290Q309 299 304.5 301.5Q300 304 292 305Q227 311 178.5 319Q130 327 99.5 343.5Q69 360 55.5 388Q42 416 48 463Q53 503 70 536.5Q87 570 118 593Q149 616 195 629Q241 642 306 642H308L339 708Q359 750 401 750H456Q485 750 495.5 730.5Q506 711 491 681L466 631Q474 630 482 629Q489 628 495.5 626.5Q502 625 507 624Q538 616 545.5 601.5Q553 587 549 558L541 494Q537 464 519.5 456Q502 448 476 453Q463 456 443 459.5Q423 463 399.5 466Q376 469 351.5 471.5Q327 474 306 474Z" glyph-name="dollar.LP" horiz-adv-x="546" unicode="&#58658;" /><glyph d="M291 349Q255 349 254 333Q253 325 257.5 322Q262 319 270 318Q333 312 381 304.5Q429 297 460.5 281Q492 265 505.5 236.5Q519 208 513 160Q508 122 493 89Q478 56 447.5 32Q417 8 368.5 -5.5Q320 -19 250 -19H247L216 -83Q196 -125 155 -125H101Q72 -125 61 -105.5Q50 -86 65 -56L90 -7Q82 -6 67.5 -3.5Q53 -1 46 1Q13 9 4 24Q-5 39 -1 68L8 136Q11 166 29.5 175Q48 184 73 176Q85 173 105.5 168Q126 163 150.5 159Q175 155 202.5 152Q230 149 256 149Q273 149 282.5 152Q292 155 293 165Q294 174 289.5 176.5Q285 179 277 180Q212 186 163.5 194Q115 202 84.5 218.5Q54 235 40.5 263Q27 291 33 338Q38 378 55 411.5Q72 445 103 468Q134 491 180 504Q226 517 291 517H293L324 583Q344 625 386 625H441Q470 625 480.5 605.5Q491 586 476 556L451 506Q459 505 467 504Q474 503 480.5 501.5Q487 500 492 499Q523 491 530.5 476.5Q538 462 534 433L526 369Q522 339 504.5 331Q487 323 461 328Q448 331 428 334.5Q408 338 384.5 341Q361 344 336.5 346.5Q312 349 291 349Z" glyph-name="dollar.OP" horiz-adv-x="546" /><glyph d="M266 212Q291 212 302 216Q313 220 315 233Q317 247 309 249.5Q301 252 291 253Q226 258 178 264Q130 270 100 285Q70 300 57.5 327Q45 354 51 401Q56 440 72 472Q88 504 118 527.5Q148 551 193 564.5Q238 578 300 580L332 645Q351 687 393 687H447Q476 687 486.5 667.5Q497 648 482 618L459 571L499 565Q532 558 541 542.5Q550 527 547 498L539 434Q535 404 517.5 396Q500 388 474 393Q448 398 405.5 405Q363 412 320 412Q291 412 279.5 407Q268 402 267 391Q265 378 272.5 375Q280 372 291 371Q354 366 401.5 360.5Q449 355 480 340Q511 325 524 298Q537 271 531 223Q526 185 510 152Q494 119 462 95Q430 71 380 57.5Q330 44 257 44H254L223 -20Q203 -62 162 -62H108Q79 -62 68 -42.5Q57 -23 72 7L97 57Q88 59 80.5 60.5Q73 62 66 64Q34 72 25 87Q16 102 20 131L28 196Q31 226 49.5 235Q68 244 93 236Q105 233 124 228.5Q143 224 166.5 220.5Q190 217 215.5 214.5Q241 212 266 212Z" glyph-name="dollar.hybrid" horiz-adv-x="560" /><glyph d="M198 650Q198 674 207.5 695.5Q217 717 233 733Q249 749 270.5 758.5Q292 768 316 768Q340 768 361.5 758.5Q383 749 399 733Q415 717 424.5 695.5Q434 674 434 650Q434 626 424.5 604.5Q415 583 399 567Q383 551 361.5 541.5Q340 532 316 532Q292 532 270.5 541.5Q249 551 233 567Q217 583 207.5 604.5Q198 626 198 650Z" glyph-name="dotaccent" horiz-adv-x="534" unicode="&#729;" /><glyph d="M222 845Q227 883 255 896.5Q283 910 348 910Q413 910 438 896.5Q463 883 458 845Q453 806 425 793Q397 780 332 780Q267 780 242 793Q217 806 222 845Z" glyph-name="dotaccent.cap" horiz-adv-x="534" unicode="&#58408;" /><glyph d="M155 -18Q78 -18 37.5 18.5Q-3 55 7 134L45 440Q52 500 112 500H222Q282 500 275 440L245 199Q244 191 246.5 185.5Q249 180 259 177Q268 174 274 167.5Q280 161 278 142L266 41Q263 18 239 0Q215 -18 155 -18Z" glyph-name="dotlessi" horiz-adv-x="294" unicode="&#305;" /><glyph d="M-29 -268Q-81 -268 -101.5 -253Q-122 -238 -117 -204L-106 -120Q-104 -100 -90.5 -88Q-77 -76 -57 -76Q-19 -76 -14 -36L45 440Q52 500 112 500H222Q282 500 275 440L214 -53Q200 -162 139 -215Q78 -268 -29 -268Z" glyph-name="dotlessj" horiz-adv-x="276" unicode="&#567;" /><glyph d="M496 -140Q488 -200 429 -200H317Q256 -200 264 -140L372 740Q379 800 440 800H552Q611 800 604 740ZM213 -140Q205 -200 146 -200H34Q-27 -200 -19 -140L89 740Q96 800 157 800H269Q328 800 321 740Z" glyph-name="doublebar" horiz-adv-x="573" unicode="&#8214;" /><glyph d="M189 750Q244 750 250 692L261 611Q264 583 248.5 566.5Q233 550 204 550H194Q165 550 150.5 559.5Q136 569 122 597L85 670Q70 700 83 725Q96 750 135 750ZM389 750Q444 750 450 692L461 611Q464 583 448.5 566.5Q433 550 404 550H394Q365 550 350.5 559.5Q336 569 322 597L285 670Q270 700 283 725Q296 750 335 750Z" glyph-name="doublegrave" horiz-adv-x="534" unicode="&#58386;" /><glyph d="M446 900Q474 900 487.5 891.5Q501 883 506 854L507 847Q511 822 499 806Q487 790 461 790H411Q384 790 372 793.5Q360 797 347 813L329 836Q311 859 319.5 879.5Q328 900 354 900ZM246 900Q274 900 287.5 891.5Q301 883 306 854L307 847Q311 822 299 806Q287 790 261 790H211Q184 790 172 793.5Q160 797 147 813L129 836Q111 859 119.5 879.5Q128 900 154 900Z" glyph-name="doublegrave.cap" horiz-adv-x="534" unicode="&#58412;" /><glyph d="M277 296Q296 296 304.5 307.5Q313 319 315 331Q317 343 310.5 354Q304 365 285 365Q256 365 241.5 349.5Q227 334 224 296ZM247 -18Q170 -18 120 -1.5Q70 15 42.5 48Q15 81 8 131.5Q1 182 9 250Q18 319 39 369.5Q60 420 96.5 453Q133 486 186 502Q239 518 310 518Q374 518 418 507.5Q462 497 487.5 476.5Q513 456 522 425Q531 394 526 354Q521 313 505 283.5Q489 254 458.5 234.5Q428 215 381.5 205.5Q335 196 271 196H212Q210 185 211.5 175Q213 165 221 157Q229 149 245 144.5Q261 140 287 140Q307 140 328.5 141.5Q350 143 369.5 145.5Q389 148 406 151Q423 154 435 157Q466 164 480 149Q494 134 491 110L485 64Q483 42 473.5 28Q464 14 440 6Q409 -4 357 -11Q305 -18 247 -18Z" glyph-name="e" horiz-adv-x="525" unicode="e" /><glyph d="M87 0Q7 0 16 80L58 420Q68 500 148 500H473Q515 500 532 482.5Q549 465 544 423L543 415Q538 373 516.5 355.5Q495 338 453 338H270L265 299H453Q500 299 494 252Q488 206 442 206H254L249 163H432Q474 163 491 145Q508 127 503 85L502 77Q497 35 475.5 17.5Q454 0 412 0Z" glyph-name="e.smcp" horiz-adv-x="555" unicode="&#57861;" /><glyph d="M187 416Q207 416 227.5 418.5Q248 421 261 424Q276 427 283.5 420Q291 413 289 401L285 372Q283 361 278.5 354Q274 347 263 343Q247 338 220 334.5Q193 331 164 331Q82 331 55.5 363.5Q29 396 38 465Q46 534 81 566.5Q116 599 191 599Q227 599 251 592Q275 585 289 572.5Q303 560 307.5 542.5Q312 525 310 505Q305 464 275 450.5Q245 437 188 437H146Q144 426 152 421Q160 416 187 416ZM176 488Q196 488 199 505Q199 511 195 515.5Q191 520 182 520Q169 520 162 514Q155 508 150 488Z" glyph-name="e.superior" horiz-adv-x="287" unicode="&#58213;" /><glyph d="M421 750Q460 750 471.5 725Q483 700 461 670L406 597Q385 569 368 559.5Q351 550 322 550H297Q268 550 254 566.5Q240 583 251 611L280 692Q301 750 357 750ZM277 296Q296 296 304.5 307.5Q313 319 315 331Q317 343 310.5 354Q304 365 285 365Q256 365 241.5 349.5Q227 334 224 296ZM247 -18Q170 -18 120 -1.5Q70 15 42.5 48Q15 81 8 131.5Q1 182 9 250Q18 319 39 369.5Q60 420 96.5 453Q133 486 186 502Q239 518 310 518Q374 518 418 507.5Q462 497 487.5 476.5Q513 456 522 425Q531 394 526 354Q521 313 505 283.5Q489 254 458.5 234.5Q428 215 381.5 205.5Q335 196 271 196H212Q210 185 211.5 175Q213 165 221 157Q229 149 245 144.5Q261 140 287 140Q307 140 328.5 141.5Q350 143 369.5 145.5Q389 148 406 151Q423 154 435 157Q466 164 480 149Q494 134 491 110L485 64Q483 42 473.5 28Q464 14 440 6Q409 -4 357 -11Q305 -18 247 -18Z" glyph-name="eacute" horiz-adv-x="525" unicode="&#233;" /><glyph d="M87 0Q7 0 16 80L58 420Q68 500 148 500H473Q515 500 532 482.5Q549 465 544 423L543 415Q538 373 516.5 355.5Q495 338 453 338H270L265 299H453Q500 299 494 252Q488 206 442 206H254L249 163H432Q474 163 491 145Q508 127 503 85L502 77Q497 35 475.5 17.5Q454 0 412 0ZM441 750Q480 750 491.5 725Q503 700 481 670L426 597Q405 569 388 559.5Q371 550 342 550H317Q288 550 274 566.5Q260 583 271 611L300 692Q321 750 377 750Z" glyph-name="eacute.smcp" horiz-adv-x="555" unicode="&#57917;" /><glyph d="M277 296Q296 296 304.5 307.5Q313 319 315 331Q317 343 310.5 354Q304 365 285 365Q256 365 241.5 349.5Q227 334 224 296ZM247 -18Q170 -18 120 -1.5Q70 15 42.5 48Q15 81 8 131.5Q1 182 9 250Q18 319 39 369.5Q60 420 96.5 453Q133 486 186 502Q239 518 310 518Q374 518 418 507.5Q462 497 487.5 476.5Q513 456 522 425Q531 394 526 354Q521 313 505 283.5Q489 254 458.5 234.5Q428 215 381.5 205.5Q335 196 271 196H212Q210 185 211.5 175Q213 165 221 157Q229 149 245 144.5Q261 140 287 140Q307 140 328.5 141.5Q350 143 369.5 145.5Q389 148 406 151Q423 154 435 157Q466 164 480 149Q494 134 491 110L485 64Q483 42 473.5 28Q464 14 440 6Q409 -4 357 -11Q305 -18 247 -18ZM302 550Q249 550 214.5 563Q180 576 160 597.5Q140 619 132 646.5Q124 674 125 704Q127 750 174 750H209Q229 750 238 743.5Q247 737 250 721Q254 702 268.5 691Q283 680 318 680Q353 680 370.5 691Q388 702 396 721Q404 737 414.5 743.5Q425 750 445 750H480Q528 750 517 704Q510 674 495.5 646.5Q481 619 455.5 597.5Q430 576 392 563Q354 550 302 550Z" glyph-name="ebreve" horiz-adv-x="525" unicode="&#277;" /><glyph d="M87 0Q7 0 16 80L58 420Q68 500 148 500H473Q515 500 532 482.5Q549 465 544 423L543 415Q538 373 516.5 355.5Q495 338 453 338H270L265 299H453Q500 299 494 252Q488 206 442 206H254L249 163H432Q474 163 491 145Q508 127 503 85L502 77Q497 35 475.5 17.5Q454 0 412 0ZM322 550Q269 550 234.5 563Q200 576 180 597.5Q160 619 152 646.5Q144 674 145 704Q147 750 194 750H229Q249 750 258 743.5Q267 737 270 721Q274 702 288.5 691Q303 680 338 680Q373 680 390.5 691Q408 702 416 721Q424 737 434.5 743.5Q445 750 465 750H500Q548 750 537 704Q530 674 515.5 646.5Q501 619 475.5 597.5Q450 576 412 563Q374 550 322 550Z" glyph-name="ebreve.smcp" horiz-adv-x="555" unicode="&#57923;" /><glyph d="M277 296Q296 296 304.5 307.5Q313 319 315 331Q317 343 310.5 354Q304 365 285 365Q256 365 241.5 349.5Q227 334 224 296ZM262 550Q242 550 227.5 555.5Q213 561 199 578L116 677Q105 690 102.5 703Q100 716 103.5 726.5Q107 737 116 743.5Q125 750 137 750H228Q251 750 266 742Q281 734 296 717L319 689L350 717Q370 734 386.5 742Q403 750 426 750H499Q511 750 521 743.5Q531 737 535.5 726.5Q540 716 537 703Q534 690 520 677L413 578Q395 561 383.5 555.5Q372 550 352 550ZM247 -18Q170 -18 120 -1.5Q70 15 42.5 48Q15 81 8 131.5Q1 182 9 250Q18 319 39 369.5Q60 420 96.5 453Q133 486 186 502Q239 518 310 518Q374 518 418 507.5Q462 497 487.5 476.5Q513 456 522 425Q531 394 526 354Q521 313 505 283.5Q489 254 458.5 234.5Q428 215 381.5 205.5Q335 196 271 196H212Q210 185 211.5 175Q213 165 221 157Q229 149 245 144.5Q261 140 287 140Q307 140 328.5 141.5Q350 143 369.5 145.5Q389 148 406 151Q423 154 435 157Q466 164 480 149Q494 134 491 110L485 64Q483 42 473.5 28Q464 14 440 6Q409 -4 357 -11Q305 -18 247 -18Z" glyph-name="ecaron" horiz-adv-x="525" unicode="&#283;" /><glyph d="M282 550Q262 550 247.5 555.5Q233 561 219 578L136 677Q125 690 122.5 703Q120 716 123.5 726.5Q127 737 136 743.5Q145 750 157 750H248Q271 750 286 742Q301 734 316 717L339 689L370 717Q390 734 406.5 742Q423 750 446 750H519Q531 750 541 743.5Q551 737 555.5 726.5Q560 716 557 703Q554 690 540 677L433 578Q415 561 403.5 555.5Q392 550 372 550ZM87 0Q7 0 16 80L58 420Q68 500 148 500H473Q515 500 532 482.5Q549 465 544 423L543 415Q538 373 516.5 355.5Q495 338 453 338H270L265 299H453Q500 299 494 252Q488 206 442 206H254L249 163H432Q474 163 491 145Q508 127 503 85L502 77Q497 35 475.5 17.5Q454 0 412 0Z" glyph-name="ecaron.smcp" horiz-adv-x="555" unicode="&#57921;" /><glyph d="M277 296Q296 296 304.5 307.5Q313 319 315 331Q317 343 310.5 354Q304 365 285 365Q256 365 241.5 349.5Q227 334 224 296ZM367 750Q387 750 401.5 744.5Q416 739 430 722L513 623Q524 610 526.5 597Q529 584 525.5 573.5Q522 563 513 556.5Q504 550 492 550H401Q378 550 363 558Q348 566 333 583L310 611L279 583Q259 566 242.5 558Q226 550 203 550H130Q118 550 108 556.5Q98 563 93.5 573.5Q89 584 92 597Q95 610 109 623L216 722Q234 739 245.5 744.5Q257 750 277 750ZM247 -18Q170 -18 120 -1.5Q70 15 42.5 48Q15 81 8 131.5Q1 182 9 250Q18 319 39 369.5Q60 420 96.5 453Q133 486 186 502Q239 518 310 518Q374 518 418 507.5Q462 497 487.5 476.5Q513 456 522 425Q531 394 526 354Q521 313 505 283.5Q489 254 458.5 234.5Q428 215 381.5 205.5Q335 196 271 196H212Q210 185 211.5 175Q213 165 221 157Q229 149 245 144.5Q261 140 287 140Q307 140 328.5 141.5Q350 143 369.5 145.5Q389 148 406 151Q423 154 435 157Q466 164 480 149Q494 134 491 110L485 64Q483 42 473.5 28Q464 14 440 6Q409 -4 357 -11Q305 -18 247 -18Z" glyph-name="ecircumflex" horiz-adv-x="525" unicode="&#234;" /><glyph d="M387 750Q407 750 421.5 744.5Q436 739 450 722L533 623Q544 610 546.5 597Q549 584 545.5 573.5Q542 563 533 556.5Q524 550 512 550H421Q398 550 383 558Q368 566 353 583L330 611L299 583Q279 566 262.5 558Q246 550 223 550H150Q138 550 128 556.5Q118 563 113.5 573.5Q109 584 112 597Q115 610 129 623L236 722Q254 739 265.5 744.5Q277 750 297 750ZM87 0Q7 0 16 80L58 420Q68 500 148 500H473Q515 500 532 482.5Q549 465 544 423L543 415Q538 373 516.5 355.5Q495 338 453 338H270L265 299H453Q500 299 494 252Q488 206 442 206H254L249 163H432Q474 163 491 145Q508 127 503 85L502 77Q497 35 475.5 17.5Q454 0 412 0Z" glyph-name="ecircumflex.smcp" horiz-adv-x="555" unicode="&#57919;" /><glyph d="M277 296Q296 296 304.5 307.5Q313 319 315 331Q317 343 310.5 354Q304 365 285 365Q256 365 241.5 349.5Q227 334 224 296ZM247 -18Q170 -18 120 -1.5Q70 15 42.5 48Q15 81 8 131.5Q1 182 9 250Q18 319 39 369.5Q60 420 96.5 453Q133 486 186 502Q239 518 310 518Q374 518 418 507.5Q462 497 487.5 476.5Q513 456 522 425Q531 394 526 354Q521 313 505 283.5Q489 254 458.5 234.5Q428 215 381.5 205.5Q335 196 271 196H212Q210 185 211.5 175Q213 165 221 157Q229 149 245 144.5Q261 140 287 140Q307 140 328.5 141.5Q350 143 369.5 145.5Q389 148 406 151Q423 154 435 157Q466 164 480 149Q494 134 491 110L485 64Q483 42 473.5 28Q464 14 440 6Q409 -4 357 -11Q305 -18 247 -18ZM329 650Q329 674 338.5 695.5Q348 717 364 733Q380 749 401.5 758.5Q423 768 447 768Q471 768 492.5 758.5Q514 749 530 733Q546 717 555.5 695.5Q565 674 565 650Q565 626 555.5 604.5Q546 583 530 567Q514 551 492.5 541.5Q471 532 447 532Q423 532 401.5 541.5Q380 551 364 567Q348 583 338.5 604.5Q329 626 329 650ZM63 650Q63 674 72.5 695.5Q82 717 98 733Q114 749 135.5 758.5Q157 768 181 768Q205 768 226.5 758.5Q248 749 264 733Q280 717 289.5 695.5Q299 674 299 650Q299 626 289.5 604.5Q280 583 264 567Q248 551 226.5 541.5Q205 532 181 532Q157 532 135.5 541.5Q114 551 98 567Q82 583 72.5 604.5Q63 626 63 650Z" glyph-name="edieresis" horiz-adv-x="525" unicode="&#235;" /><glyph d="M87 0Q7 0 16 80L58 420Q68 500 148 500H473Q515 500 532 482.5Q549 465 544 423L543 415Q538 373 516.5 355.5Q495 338 453 338H270L265 299H453Q500 299 494 252Q488 206 442 206H254L249 163H432Q474 163 491 145Q508 127 503 85L502 77Q497 35 475.5 17.5Q454 0 412 0ZM349 650Q349 674 358.5 695.5Q368 717 384 733Q400 749 421.5 758.5Q443 768 467 768Q491 768 512.5 758.5Q534 749 550 733Q566 717 575.5 695.5Q585 674 585 650Q585 626 575.5 604.5Q566 583 550 567Q534 551 512.5 541.5Q491 532 467 532Q443 532 421.5 541.5Q400 551 384 567Q368 583 358.5 604.5Q349 626 349 650ZM83 650Q83 674 92.5 695.5Q102 717 118 733Q134 749 155.5 758.5Q177 768 201 768Q225 768 246.5 758.5Q268 749 284 733Q300 717 309.5 695.5Q319 674 319 650Q319 626 309.5 604.5Q300 583 284 567Q268 551 246.5 541.5Q225 532 201 532Q177 532 155.5 541.5Q134 551 118 567Q102 583 92.5 604.5Q83 626 83 650Z" glyph-name="edieresis.smcp" horiz-adv-x="555" unicode="&#57904;" /><glyph d="M277 296Q296 296 304.5 307.5Q313 319 315 331Q317 343 310.5 354Q304 365 285 365Q256 365 241.5 349.5Q227 334 224 296ZM247 -18Q170 -18 120 -1.5Q70 15 42.5 48Q15 81 8 131.5Q1 182 9 250Q18 319 39 369.5Q60 420 96.5 453Q133 486 186 502Q239 518 310 518Q374 518 418 507.5Q462 497 487.5 476.5Q513 456 522 425Q531 394 526 354Q521 313 505 283.5Q489 254 458.5 234.5Q428 215 381.5 205.5Q335 196 271 196H212Q210 185 211.5 175Q213 165 221 157Q229 149 245 144.5Q261 140 287 140Q307 140 328.5 141.5Q350 143 369.5 145.5Q389 148 406 151Q423 154 435 157Q466 164 480 149Q494 134 491 110L485 64Q483 42 473.5 28Q464 14 440 6Q409 -4 357 -11Q305 -18 247 -18ZM196 650Q196 674 205.5 695.5Q215 717 231 733Q247 749 268.5 758.5Q290 768 314 768Q338 768 359.5 758.5Q381 749 397 733Q413 717 422.5 695.5Q432 674 432 650Q432 626 422.5 604.5Q413 583 397 567Q381 551 359.5 541.5Q338 532 314 532Q290 532 268.5 541.5Q247 551 231 567Q215 583 205.5 604.5Q196 626 196 650Z" glyph-name="edotaccent" horiz-adv-x="525" unicode="&#279;" /><glyph d="M87 0Q7 0 16 80L58 420Q68 500 148 500H473Q515 500 532 482.5Q549 465 544 423L543 415Q538 373 516.5 355.5Q495 338 453 338H270L265 299H453Q500 299 494 252Q488 206 442 206H254L249 163H432Q474 163 491 145Q508 127 503 85L502 77Q497 35 475.5 17.5Q454 0 412 0ZM216 650Q216 674 225.5 695.5Q235 717 251 733Q267 749 288.5 758.5Q310 768 334 768Q358 768 379.5 758.5Q401 749 417 733Q433 717 442.5 695.5Q452 674 452 650Q452 626 442.5 604.5Q433 583 417 567Q401 551 379.5 541.5Q358 532 334 532Q310 532 288.5 541.5Q267 551 251 567Q235 583 225.5 604.5Q216 626 216 650Z" glyph-name="edotaccent.smcp" horiz-adv-x="555" unicode="&#57926;" /><glyph d="M298 750Q353 750 359 692L370 611Q373 583 357.5 566.5Q342 550 313 550H283Q254 550 239.5 559.5Q225 569 211 597L174 670Q159 700 170 725Q181 750 220 750ZM277 296Q296 296 304.5 307.5Q313 319 315 331Q317 343 310.5 354Q304 365 285 365Q256 365 241.5 349.5Q227 334 224 296ZM247 -18Q170 -18 120 -1.5Q70 15 42.5 48Q15 81 8 131.5Q1 182 9 250Q18 319 39 369.5Q60 420 96.5 453Q133 486 186 502Q239 518 310 518Q374 518 418 507.5Q462 497 487.5 476.5Q513 456 522 425Q531 394 526 354Q521 313 505 283.5Q489 254 458.5 234.5Q428 215 381.5 205.5Q335 196 271 196H212Q210 185 211.5 175Q213 165 221 157Q229 149 245 144.5Q261 140 287 140Q307 140 328.5 141.5Q350 143 369.5 145.5Q389 148 406 151Q423 154 435 157Q466 164 480 149Q494 134 491 110L485 64Q483 42 473.5 28Q464 14 440 6Q409 -4 357 -11Q305 -18 247 -18Z" glyph-name="egrave" horiz-adv-x="525" unicode="&#232;" /><glyph d="M87 0Q7 0 16 80L58 420Q68 500 148 500H473Q515 500 532 482.5Q549 465 544 423L543 415Q538 373 516.5 355.5Q495 338 453 338H270L265 299H453Q500 299 494 252Q488 206 442 206H254L249 163H432Q474 163 491 145Q508 127 503 85L502 77Q497 35 475.5 17.5Q454 0 412 0ZM318 750Q373 750 379 692L390 611Q393 583 377.5 566.5Q362 550 333 550H303Q274 550 259.5 559.5Q245 569 231 597L194 670Q179 700 190 725Q201 750 240 750Z" glyph-name="egrave.smcp" horiz-adv-x="555" unicode="&#57918;" /><glyph d="M327 467Q388 467 395 522Q399 554 384 565.5Q369 577 340 577Q311 577 294 565.5Q277 554 273 522Q266 467 327 467ZM222 246Q217 212 233 193.5Q249 175 291 175Q333 175 353 193.5Q373 212 378 246Q382 280 366 298.5Q350 317 308 317Q266 317 246 298.5Q226 280 222 246ZM267 -18Q132 -18 62.5 42Q-7 102 8 222Q16 284 48 327Q80 370 118 393Q95 416 79 454.5Q63 493 69 544Q82 650 153.5 709Q225 768 364 768Q503 768 559.5 709Q616 650 603 544Q597 493 572 454.5Q547 416 518 393Q534 382 548 365.5Q562 349 571.5 327Q581 305 585.5 279Q590 253 586 222Q571 102 486.5 42Q402 -18 267 -18Z" glyph-name="eight" horiz-adv-x="600" unicode="8" /><glyph d="M331 467Q392 467 399 522Q403 554 388 565.5Q373 577 344 577Q315 577 298 565.5Q281 554 277 522Q270 467 331 467ZM226 246Q221 212 237 193.5Q253 175 295 175Q337 175 357 193.5Q377 212 382 246Q386 280 370 298.5Q354 317 312 317Q270 317 250 298.5Q230 280 226 246ZM271 -18Q136 -18 66.5 42Q-3 102 12 222Q20 284 52 327Q84 370 122 393Q99 416 83 454.5Q67 493 73 544Q86 650 157.5 709Q229 768 368 768Q507 768 563.5 709Q620 650 607 544Q601 493 576 454.5Q551 416 522 393Q538 382 552 365.5Q566 349 575.5 327Q585 305 589.5 279Q594 253 590 222Q575 102 490.5 42Q406 -18 271 -18Z" glyph-name="eight.LP" horiz-adv-x="608" unicode="&#58685;" /><glyph d="M327 467Q388 467 395 522Q399 554 384 565.5Q369 577 340 577Q311 577 294 565.5Q277 554 273 522Q266 467 327 467ZM222 246Q217 212 233 193.5Q249 175 291 175Q333 175 353 193.5Q373 212 378 246Q382 280 366 298.5Q350 317 308 317Q266 317 246 298.5Q226 280 222 246ZM267 -18Q132 -18 62.5 42Q-7 102 8 222Q16 284 48 327Q80 370 118 393Q95 416 79 454.5Q63 493 69 544Q82 650 153.5 709Q225 768 364 768Q503 768 559.5 709Q616 650 603 544Q597 493 572 454.5Q547 416 518 393Q534 382 548 365.5Q562 349 571.5 327Q581 305 585.5 279Q590 253 586 222Q571 102 486.5 42Q402 -18 267 -18Z" glyph-name="eight.LT" horiz-adv-x="600" unicode="&#58696;" /><glyph d="M331 467Q392 467 399 522Q403 554 388 565.5Q373 577 344 577Q315 577 298 565.5Q281 554 277 522Q270 467 331 467ZM226 246Q221 212 237 193.5Q253 175 295 175Q337 175 357 193.5Q377 212 382 246Q386 280 370 298.5Q354 317 312 317Q270 317 250 298.5Q230 280 226 246ZM271 -18Q136 -18 66.5 42Q-3 102 12 222Q20 284 52 327Q84 370 122 393Q99 416 83 454.5Q67 493 73 544Q86 650 157.5 709Q229 768 368 768Q507 768 563.5 709Q620 650 607 544Q601 493 576 454.5Q551 416 522 393Q538 382 552 365.5Q566 349 575.5 327Q585 305 589.5 279Q594 253 590 222Q575 102 490.5 42Q406 -18 271 -18Z" glyph-name="eight.OP" horiz-adv-x="608" unicode="&#58707;" /><glyph d="M327 467Q388 467 395 522Q399 554 384 565.5Q369 577 340 577Q311 577 294 565.5Q277 554 273 522Q266 467 327 467ZM222 246Q217 212 233 193.5Q249 175 291 175Q333 175 353 193.5Q373 212 378 246Q382 280 366 298.5Q350 317 308 317Q266 317 246 298.5Q226 280 222 246ZM267 -18Q132 -18 62.5 42Q-7 102 8 222Q16 284 48 327Q80 370 118 393Q95 416 79 454.5Q63 493 69 544Q82 650 153.5 709Q225 768 364 768Q503 768 559.5 709Q616 650 603 544Q597 493 572 454.5Q547 416 518 393Q534 382 548 365.5Q562 349 571.5 327Q581 305 585.5 279Q590 253 586 222Q571 102 486.5 42Q402 -18 267 -18Z" glyph-name="eight.OT" horiz-adv-x="600" unicode="&#58718;" /><glyph d="M254 -18Q181 -18 130.5 -7.5Q80 3 49.5 24.5Q19 46 7.5 78Q-4 110 1 152Q7 200 33 230.5Q59 261 90 274Q83 277 74.5 284.5Q66 292 59.5 304.5Q53 317 49.5 334.5Q46 352 49 376Q53 413 70.5 440Q88 467 121 484Q154 501 203 509.5Q252 518 320 518Q455 518 510.5 484Q566 450 557 376Q554 352 546 334.5Q538 317 528.5 304.5Q519 292 508.5 284.5Q498 277 490 274Q518 261 536.5 230.5Q555 200 549 152Q538 67 468.5 24.5Q399 -18 254 -18ZM294 302Q323 302 334.5 307.5Q346 313 348 324Q350 334 339 341Q328 348 299 348Q270 348 258 341Q246 334 244 324Q242 313 253.5 307.5Q265 302 294 302ZM275 150Q310 150 322.5 157Q335 164 337 176Q339 188 327.5 195Q316 202 281 202Q246 202 233.5 195Q221 188 219 176Q217 164 228.5 157Q240 150 275 150Z" glyph-name="eight.XP" horiz-adv-x="574" /><glyph d="M267 -18Q117 -18 52.5 24Q-12 66 -1 151Q5 199 31 230Q57 261 88 274Q81 277 72.5 285Q64 293 57.5 305.5Q51 318 47.5 336Q44 354 47 378Q56 453 124.5 485.5Q193 518 333 518Q472 518 533 485Q594 452 585 378Q582 354 574 336Q566 318 556.5 305.5Q547 293 536.5 285Q526 277 518 274Q546 261 564.5 230Q583 199 577 151Q566 66 491.5 24Q417 -18 267 -18ZM306 299Q343 299 358.5 305.5Q374 312 376 324Q378 335 364 344Q350 353 313 353Q276 353 260 344Q244 335 242 324Q240 312 254.5 305.5Q269 299 306 299ZM287 146Q331 146 347 154.5Q363 163 365 176Q367 189 353 197Q339 205 295 205Q251 205 235 197Q219 189 217 176Q216 170 219 164.5Q222 159 229.5 155Q237 151 251 148.5Q265 146 287 146Z" glyph-name="eight.XT" horiz-adv-x="600" /><glyph d="M331 467Q392 467 399 522Q403 554 388 565.5Q373 577 344 577Q315 577 298 565.5Q281 554 277 522Q270 467 331 467ZM226 246Q221 212 237 193.5Q253 175 295 175Q337 175 357 193.5Q377 212 382 246Q386 280 370 298.5Q354 317 312 317Q270 317 250 298.5Q230 280 226 246ZM271 -18Q136 -18 66.5 42Q-3 102 12 222Q20 284 52 327Q84 370 122 393Q99 416 83 454.5Q67 493 73 544Q86 650 157.5 709Q229 768 368 768Q507 768 563.5 709Q620 650 607 544Q601 493 576 454.5Q551 416 522 393Q538 382 552 365.5Q566 349 575.5 327Q585 305 589.5 279Q594 253 590 222Q575 102 490.5 42Q406 -18 271 -18Z" glyph-name="eight.hybrid" horiz-adv-x="608" /><glyph d="M177 -268Q55 -268 6.5 -233Q-42 -198 -34 -127Q-29 -87 -7.5 -61.5Q14 -36 40 -25Q34 -22 27 -16Q20 -10 14.5 0.5Q9 11 6 25.5Q3 40 5 60Q13 122 65.5 150Q118 178 232 178Q344 178 390 150Q436 122 428 60Q423 20 405 0Q387 -20 373 -25Q396 -36 411.5 -61.5Q427 -87 422 -127Q414 -198 355.5 -233Q297 -268 177 -268ZM210 -2Q234 -2 243.5 2.5Q253 7 255 16Q256 24 247 30Q238 36 214 36Q189 36 179 30Q169 24 168 16Q166 7 175.5 2.5Q185 -2 210 -2ZM194 -128Q223 -128 233.5 -122.5Q244 -117 246 -107Q248 -96 238.5 -90.5Q229 -85 200 -85Q171 -85 160.5 -90.5Q150 -96 148 -107Q146 -117 155.5 -122.5Q165 -128 194 -128Z" glyph-name="eight.inf" horiz-adv-x="482" unicode="&#58745;" /><glyph d="M1056 100Q1056 124 1065.5 145.5Q1075 167 1091 183Q1107 199 1128.5 208.5Q1150 218 1174 218Q1198 218 1219.5 208.5Q1241 199 1257 183Q1273 167 1282.5 145.5Q1292 124 1292 100Q1292 76 1282.5 54.5Q1273 33 1257 17Q1241 1 1219.5 -8.5Q1198 -18 1174 -18Q1150 -18 1128.5 -8.5Q1107 1 1091 17Q1075 33 1065.5 54.5Q1056 76 1056 100ZM606 100Q606 124 615.5 145.5Q625 167 641 183Q657 199 678.5 208.5Q700 218 724 218Q748 218 769.5 208.5Q791 199 807 183Q823 167 832.5 145.5Q842 124 842 100Q842 76 832.5 54.5Q823 33 807 17Q791 1 769.5 -8.5Q748 -18 724 -18Q700 -18 678.5 -8.5Q657 1 641 17Q625 33 615.5 54.5Q606 76 606 100ZM156 100Q156 124 165.5 145.5Q175 167 191 183Q207 199 228.5 208.5Q250 218 274 218Q298 218 319.5 208.5Q341 199 357 183Q373 167 382.5 145.5Q392 124 392 100Q392 76 382.5 54.5Q373 33 357 17Q341 1 319.5 -8.5Q298 -18 274 -18Q250 -18 228.5 -8.5Q207 1 191 17Q175 33 165.5 54.5Q156 76 156 100Z" glyph-name="ellipsis" horiz-adv-x="1484" unicode="&#8230;" /><glyph d="M277 296Q296 296 304.5 307.5Q313 319 315 331Q317 343 310.5 354Q304 365 285 365Q256 365 241.5 349.5Q227 334 224 296ZM247 -18Q170 -18 120 -1.5Q70 15 42.5 48Q15 81 8 131.5Q1 182 9 250Q18 319 39 369.5Q60 420 96.5 453Q133 486 186 502Q239 518 310 518Q374 518 418 507.5Q462 497 487.5 476.5Q513 456 522 425Q531 394 526 354Q521 313 505 283.5Q489 254 458.5 234.5Q428 215 381.5 205.5Q335 196 271 196H212Q210 185 211.5 175Q213 165 221 157Q229 149 245 144.5Q261 140 287 140Q307 140 328.5 141.5Q350 143 369.5 145.5Q389 148 406 151Q423 154 435 157Q466 164 480 149Q494 134 491 110L485 64Q483 42 473.5 28Q464 14 440 6Q409 -4 357 -11Q305 -18 247 -18ZM420 720Q479 720 473 660L470 640Q462 580 403 580H209Q148 580 156 640L159 660Q165 720 226 720Z" glyph-name="emacron" horiz-adv-x="525" unicode="&#275;" /><glyph d="M87 0Q7 0 16 80L58 420Q68 500 148 500H473Q515 500 532 482.5Q549 465 544 423L543 415Q538 373 516.5 355.5Q495 338 453 338H270L265 299H453Q500 299 494 252Q488 206 442 206H254L249 163H432Q474 163 491 145Q508 127 503 85L502 77Q497 35 475.5 17.5Q454 0 412 0ZM440 720Q499 720 493 660L490 640Q482 580 423 580H229Q168 580 176 640L179 660Q185 720 246 720Z" glyph-name="emacron.smcp" horiz-adv-x="555" unicode="&#57922;" /><glyph d="M939 420Q999 420 992 360L986 310Q978 250 918 250H82Q22 250 30 310L36 360Q43 420 103 420Z" glyph-name="emdash" horiz-adv-x="1000" unicode="&#8212;" /><glyph d="M694 460Q754 460 747 400L740 350Q734 290 673 290H87Q28 290 34 350L41 400Q48 460 108 460Z" glyph-name="emdash.cap" horiz-adv-x="750" unicode="&#58502;" /><glyph glyph-name="emspace" horiz-adv-x="1000" unicode="&#8195;" /><glyph d="M439 420Q499 420 492 360L486 310Q478 250 418 250H82Q22 250 30 310L36 360Q43 420 103 420Z" glyph-name="endash" horiz-adv-x="500" unicode="&#8211;" /><glyph d="M277 460Q337 460 330 400L323 350Q317 290 256 290H87Q28 290 34 350L41 400Q48 460 108 460Z" glyph-name="endash.cap" horiz-adv-x="333" unicode="&#58500;" /><glyph d="M262 -268Q209 -268 189 -253Q169 -238 173 -204L184 -120Q186 -100 199.5 -88Q213 -76 233 -76Q272 -76 277 -36L300 152Q300 157 301 160L321 325Q323 334 317.5 338.5Q312 343 304 343Q291 343 280.5 340Q270 337 261 332L228 60Q220 0 161 0H51Q-10 0 -2 60L45 440Q51 500 112 500H164Q194 500 206.5 488Q219 476 224 453Q251 483 298 500.5Q345 518 395 518Q453 518 487 504Q521 490 537 465Q553 440 555 407Q557 374 553 336L541 245V240L505 -53Q491 -162 430 -215Q369 -268 262 -268Z" glyph-name="eng" horiz-adv-x="561" unicode="&#331;" /><glyph d="M320 -268Q267 -268 248 -253Q229 -238 233 -204L244 -120Q246 -100 259.5 -88Q273 -76 293 -76Q332 -76 337 -36L348 55V56L237 211L228 80Q224 0 139 0H87Q7 0 16 80L58 420Q68 500 148 500H193Q223 500 244 487.5Q265 475 284 449L398 289L407 420Q413 500 497 500H549Q629 500 619 420L586 153Q586 150 585.5 146.5Q585 143 585 140L561 -53Q534 -268 320 -268Z" glyph-name="eng.smcp" horiz-adv-x="635" unicode="&#58155;" /><glyph glyph-name="enspace" horiz-adv-x="500" unicode="&#8194;" /><glyph d="M277 296Q296 296 304.5 307.5Q313 319 315 331Q317 343 310.5 354Q304 365 285 365Q256 365 241.5 349.5Q227 334 224 296ZM352 -136Q361 -136 365.5 -135.5Q370 -135 377 -135Q395 -135 404 -149Q413 -163 411 -184L410 -190Q408 -209 396.5 -223.5Q385 -238 363 -243Q353 -245 336 -247.5Q319 -250 287 -250Q205 -250 165.5 -216Q126 -182 133 -127Q140 -65 194 -16Q133 -10 94 9Q55 28 33.5 61Q12 94 6.5 141Q1 188 9 250Q18 319 39 369.5Q60 420 96.5 453Q133 486 186 502Q239 518 310 518Q374 518 418 507.5Q462 497 487.5 476.5Q513 456 522 425Q531 394 526 354Q521 313 505 283.5Q489 254 458.5 234.5Q428 215 381.5 205.5Q335 196 271 196H212Q210 185 211.5 175Q213 165 221 157Q229 149 245 144.5Q261 140 287 140Q307 140 328.5 141.5Q350 143 369.5 145.5Q389 148 406 151Q423 154 435 157Q466 164 480 149Q494 134 491 110L485 64Q483 42 471 26Q459 10 422 1Q355 -15 327.5 -42Q300 -69 297 -95Q295 -112 305.5 -124Q316 -136 352 -136Z" glyph-name="eogonek" horiz-adv-x="525" unicode="&#281;" /><glyph d="M428 -136Q437 -136 441.5 -135.5Q446 -135 453 -135Q471 -135 480 -149Q489 -163 487 -184L486 -190Q484 -209 472.5 -223.5Q461 -238 439 -243Q429 -245 412 -247.5Q395 -250 363 -250Q281 -250 241.5 -216Q202 -182 209 -127Q214 -87 234.5 -56.5Q255 -26 290 0H87Q7 0 16 80L58 420Q68 500 148 500H473Q515 500 532 482.5Q549 465 544 423L543 415Q538 373 516.5 355.5Q495 338 453 338H270L265 299H453Q500 299 494 252Q488 206 442 206H254L249 163H432Q474 163 491 145Q508 127 503 85L502 77Q498 48 486.5 32Q475 16 455 6Q413 -14 394.5 -42Q376 -70 373 -95Q371 -112 381.5 -124Q392 -136 428 -136Z" glyph-name="eogonek.smcp" horiz-adv-x="555" unicode="&#57929;" /><glyph d="M550 572Q609 572 602 512L591 420Q583 360 524 360H104Q43 360 51 420L62 512Q69 572 130 572ZM519 322Q579 322 572 262L560 170Q552 110 493 110H73Q12 110 20 170L32 262Q39 322 99 322Z" glyph-name="equal" horiz-adv-x="600" unicode="=" /><glyph d="M116 96Q56 96 64 156L75 248Q82 308 142 308H772Q832 308 825 248L814 156Q806 96 746 96ZM159 442Q98 442 106 502L117 594Q124 654 185 654H815Q874 654 867 594L856 502Q848 442 789 442Z" glyph-name="equal.cap" horiz-adv-x="900" unicode="&#58773;" /><glyph d="M326 135Q375 135 369 85L360 12Q354 -37 304 -37H44Q-6 -37 0 12L9 85Q15 135 66 135ZM302 -53Q352 -53 346 -103L337 -176Q331 -225 281 -225H21Q-29 -225 -23 -176L-14 -103Q-8 -53 42 -53Z" glyph-name="equal.inf" horiz-adv-x="420" unicode="&#58749;" /><glyph d="M283 292V225Q306 202 337.5 194Q369 186 406 186Q443 186 475 195.5Q507 205 519 225Q535 251 569 251H701Q718 251 728 243.5Q738 236 742 225Q746 214 744.5 200Q743 186 737 173Q717 132 691 97Q665 62 626.5 36.5Q588 11 534.5 -3.5Q481 -18 406 -18Q308 -18 239.5 16Q171 50 128 105Q85 160 65.5 230.5Q46 301 46 375Q46 448 65.5 519Q85 590 128 645Q171 700 239.5 734Q308 768 406 768Q504 768 572.5 734Q641 700 684 645Q727 590 746.5 519Q766 448 766 375V352Q766 292 706 292ZM406 564Q369 564 337.5 556Q306 548 283 525V458H529V525Q505 548 474 556Q443 564 406 564Z" glyph-name="estimated" horiz-adv-x="812" unicode="&#8494;" /><glyph d="M230 250Q226 218 225.5 198.5Q225 179 228 168.5Q231 158 238.5 154Q246 150 258 150Q270 150 278 154Q286 158 292 168.5Q298 179 302 198.5Q306 218 310 250Q314 281 314.5 301Q315 321 311.5 331.5Q308 342 301 346Q294 350 282 350Q270 350 262 346Q254 342 248 331.5Q242 321 238 301Q234 281 230 250ZM330 511Q317 541 305 563L137 519Q120 514 109.5 520Q99 526 101 543L108 602Q111 622 118 632Q125 642 141 646L198 661Q180 669 158 675.5Q136 682 110 687Q96 690 90.5 700Q85 710 87 721Q89 732 98.5 741Q108 750 124 750H314Q338 750 357.5 742Q377 734 396 719Q398 717 398.5 716Q399 715 401 714L527 747Q544 752 554.5 746Q565 740 563 723L556 664Q552 627 524 620L490 611Q524 552 536 465.5Q548 379 530 250L528 236Q519 168 498.5 120Q478 72 443.5 41.5Q409 11 358 -3.5Q307 -18 237 -18Q165 -18 117.5 -3Q70 12 43 44.5Q16 77 8.5 128Q1 179 10 250Q19 321 38 372Q57 423 87.5 455.5Q118 488 160 503Q202 518 257 518Q277 518 295 516Q313 514 330 511Z" glyph-name="eth" horiz-adv-x="540" unicode="&#240;" /><glyph d="M266 345 262 310H268Q322 310 316 255L315 250Q309 195 253 195H248L243 155H273Q304 155 317.5 178.5Q331 202 337 250Q343 298 335 321.5Q327 345 296 345ZM60 420Q70 500 150 500H337Q413 500 460.5 481Q508 462 533.5 428Q559 394 565 348.5Q571 303 564 250Q558 197 540.5 151.5Q523 106 489.5 72Q456 38 404 19Q352 0 276 0H89Q9 0 18 80L32 196Q-5 202 0 250L1 255Q5 301 46 309Z" glyph-name="eth.smcp" horiz-adv-x="612" unicode="&#58156;" /><glyph d="M267 750Q281 750 293.5 746.5Q306 743 314.5 735Q323 727 325.5 712Q328 697 322 675L224 292Q213 250 171 250H113Q70 250 70 292L66 675Q65 720 83.5 735Q102 750 131 750ZM6 100Q6 124 15.5 145.5Q25 167 41 183Q57 199 78.5 208.5Q100 218 124 218Q148 218 169.5 208.5Q191 199 207 183Q223 167 232.5 145.5Q242 124 242 100Q242 76 232.5 54.5Q223 33 207 17Q191 1 169.5 -8.5Q148 -18 124 -18Q100 -18 78.5 -8.5Q57 1 41 17Q25 33 15.5 54.5Q6 76 6 100Z" glyph-name="exclam" horiz-adv-x="284" unicode="!" /><glyph d="M18 -250Q4 -250 -9 -246.5Q-22 -243 -30 -235Q-38 -227 -40.5 -212.5Q-43 -198 -37 -175L61 208Q71 250 114 250H172Q215 250 215 208L219 -175Q220 -220 201.5 -235Q183 -250 154 -250ZM279 400Q279 376 269.5 354.5Q260 333 244 317Q228 301 206.5 291.5Q185 282 161 282Q137 282 115.5 291.5Q94 301 78 317Q62 333 52.5 354.5Q43 376 43 400Q43 424 52.5 445.5Q62 467 78 483Q94 499 115.5 508.5Q137 518 161 518Q185 518 206.5 508.5Q228 499 244 483Q260 467 269.5 445.5Q279 424 279 400Z" glyph-name="exclamdown" horiz-adv-x="284" unicode="&#161;" /><glyph d="M48 0Q34 0 21 3.5Q8 7 0 15Q-8 23 -10.5 37.5Q-13 52 -7 75L91 458Q101 500 144 500H202Q245 500 245 458L249 75Q250 30 231.5 15Q213 0 184 0ZM309 650Q309 626 299.5 604.5Q290 583 274 567Q258 551 236.5 541.5Q215 532 191 532Q167 532 145.5 541.5Q124 551 108 567Q92 583 82.5 604.5Q73 626 73 650Q73 674 82.5 695.5Q92 717 108 733Q124 749 145.5 758.5Q167 768 191 768Q215 768 236.5 758.5Q258 749 274 733Q290 717 299.5 695.5Q309 674 309 650Z" glyph-name="exclamdown.cap" horiz-adv-x="284" unicode="&#58433;" /><glyph d="M88 336H71Q10 336 18 396L21 423Q25 454 39 467Q53 480 89 490L107 495L118 579Q123 622 138 656.5Q153 691 180 716Q207 741 247 754.5Q287 768 341 768Q364 768 389.5 766.5Q415 765 431 761Q457 755 466 739.5Q475 724 473 701L464 631Q461 607 447 597Q433 587 413 587Q407 587 401.5 587.5Q396 588 391 588Q348 588 344 550L338 500H382Q441 500 435 440L429 396Q421 336 362 336H318L253 -190Q245 -250 186 -250H76Q15 -250 23 -190Z" glyph-name="f" horiz-adv-x="417" unicode="f" /><glyph d="M463 198Q458 163 440.5 147Q423 131 388 131H245L238 80Q229 0 149 0H87Q7 0 16 80L58 420Q68 500 148 500H448Q528 500 518 420L516 400Q506 320 426 320H268L261 265H404Q439 265 453 249Q467 233 463 198Z" glyph-name="f.smcp" horiz-adv-x="518" unicode="&#57862;" /><glyph d="M70 505H59Q29 505 32 535L34 550Q36 566 42.5 572.5Q49 579 67 584L80 587L85 629Q90 676 117.5 700Q145 724 202 724Q213 724 229 723Q245 722 253 720Q276 715 273 690L269 655Q266 633 243 633Q240 633 234.5 633.5Q229 634 226 634Q206 634 203 615L200 590H227Q257 590 253 560L250 535Q247 505 217 505H190L158 245Q153 215 124 215H64Q35 215 38 245Z" glyph-name="f.superior" horiz-adv-x="221" unicode="&#58214;" /><glyph d="M88 336H71Q10 336 18 396L21 423Q25 454 39 467Q53 480 89 490L107 495L118 579Q123 622 138 656.5Q153 691 180 716Q207 741 247 754.5Q287 768 341 768Q364 768 389.5 766.5Q415 765 431 761Q457 755 466 739.5Q475 724 473 701L464 631Q461 607 447 597Q433 587 413 587Q407 587 401.5 587.5Q396 588 391 588Q348 588 344 550L338 500H382Q441 500 435 440L429 396Q421 336 362 336H318L253 -190Q245 -250 186 -250H76Q15 -250 23 -190ZM572 -18Q495 -18 454.5 18.5Q414 55 424 134L462 440Q468 500 529 500H639Q698 500 692 440L662 199Q661 191 663.5 186Q666 181 676 177Q685 174 691 167.5Q697 161 695 142L683 41Q680 18 656 0Q632 -18 572 -18Z" glyph-name="f_dotlessi" horiz-adv-x="711" /><glyph d="M88 336H71Q10 336 18 396L21 423Q25 454 39 467Q53 480 89 490L107 495L118 579Q123 622 138 656.5Q153 691 180 716Q207 741 247 754.5Q287 768 341 768Q364 768 389.5 766.5Q415 765 431 761Q457 755 466 739.5Q475 724 473 701L464 631Q461 607 447 597Q433 587 413 587Q407 587 401.5 587.5Q396 588 391 588Q348 588 344 550L338 500H382Q441 500 435 440L429 396Q421 336 362 336H318L253 -190Q245 -250 186 -250H76Q15 -250 23 -190ZM572 -18Q495 -18 454.5 18.5Q414 55 424 134L462 440Q468 500 529 500H639Q698 500 692 440L662 199Q661 191 663.5 186Q666 181 676 177Q685 174 691 167.5Q697 161 695 142L683 41Q680 18 656 0Q632 -18 572 -18ZM484 650Q484 674 493.5 695.5Q503 717 519 733Q535 749 556.5 758.5Q578 768 602 768Q626 768 647.5 758.5Q669 749 685 733Q701 717 710.5 695.5Q720 674 720 650Q720 626 710.5 604.5Q701 583 685 567Q669 551 647.5 541.5Q626 532 602 532Q578 532 556.5 541.5Q535 551 519 567Q503 583 493.5 604.5Q484 626 484 650Z" glyph-name="fi" horiz-adv-x="711" unicode="&#64257;" /><glyph d="M539 420Q599 420 592 360L586 310Q578 250 518 250H82Q22 250 30 310L36 360Q43 420 103 420Z" glyph-name="figuredash" horiz-adv-x="600" unicode="&#8210;" /><glyph d="M944 460Q1004 460 997 400L990 350Q984 290 923 290H87Q28 290 34 350L41 400Q48 460 108 460Z" glyph-name="figuredash.cap" horiz-adv-x="1000" unicode="&#58503;" /><glyph glyph-name="figurespace" horiz-adv-x="554" unicode="&#8199;" /><glyph d="M238 -18Q213 -18 185 -16.5Q157 -15 129.5 -12.5Q102 -10 77.5 -6Q53 -2 35 4Q10 12 2 27Q-6 42 -4 64L7 150Q10 177 31.5 189Q53 201 79 193Q102 186 147.5 179Q193 172 243 172Q293 172 327 186.5Q361 201 366 243Q371 285 353 299Q335 313 293 313H105Q44 313 52 373L91 690Q98 750 159 750H558Q617 750 610 690L602 626Q594 566 535 566H291L280 475H341Q398 475 446 466Q494 457 527 431.5Q560 406 575 361.5Q590 317 581 245Q571 167 539.5 116Q508 65 461.5 35Q415 5 357.5 -6.5Q300 -18 238 -18Z" glyph-name="five" horiz-adv-x="600" unicode="5" /><glyph d="M203 181Q223 181 241.5 183.5Q260 186 274.5 193Q289 200 298.5 213Q308 226 311 247Q314 268 308.5 281Q303 294 292.5 301Q282 308 267.5 310.5Q253 313 237 313H99Q38 313 46 373L85 690Q92 750 153 750H507Q566 750 559 690L551 626Q543 566 484 566H285L274 475H290Q341 475 387.5 469.5Q434 464 468 441Q502 418 518.5 372Q535 326 525 245Q515 167 483 116Q451 65 405.5 35Q360 5 305.5 -6.5Q251 -18 197 -18Q147 -18 106 -13Q65 -8 29 3Q4 11 -4 26Q-12 41 -10 63L1 154Q5 181 26.5 193Q48 205 74 197Q97 190 125 185.5Q153 181 203 181Z" glyph-name="five.LP" horiz-adv-x="538" unicode="&#58682;" /><glyph d="M238 -18Q213 -18 185 -16.5Q157 -15 129.5 -12.5Q102 -10 77.5 -6Q53 -2 35 4Q10 12 2 27Q-6 42 -4 64L7 150Q10 177 31.5 189Q53 201 79 193Q102 186 147.5 179Q193 172 243 172Q293 172 327 186.5Q361 201 366 243Q371 285 353 299Q335 313 293 313H105Q44 313 52 373L91 690Q98 750 159 750H558Q617 750 610 690L602 626Q594 566 535 566H291L280 475H341Q398 475 446 466Q494 457 527 431.5Q560 406 575 361.5Q590 317 581 245Q571 167 539.5 116Q508 65 461.5 35Q415 5 357.5 -6.5Q300 -18 238 -18Z" glyph-name="five.LT" horiz-adv-x="600" unicode="&#58693;" /><glyph d="M172 -69Q192 -69 210.5 -66.5Q229 -64 243.5 -57Q258 -50 267.5 -37Q277 -24 280 -3Q283 18 277.5 31Q272 44 261.5 51Q251 58 236.5 60.5Q222 63 206 63H68Q8 63 16 123L55 440Q61 500 122 500H476Q535 500 529 440L521 376Q513 316 453 316H254L243 225H259Q310 225 356.5 219.5Q403 214 437 191Q471 168 487.5 122Q504 76 494 -5Q484 -83 452 -134Q420 -185 375 -215Q330 -245 275.5 -256.5Q221 -268 167 -268Q117 -268 75.5 -263Q34 -258 -2 -247Q-26 -239 -34 -224Q-42 -209 -39 -187L-29 -96Q-26 -69 -4.5 -57Q17 -45 43 -53Q66 -60 94 -64.5Q122 -69 172 -69Z" glyph-name="five.OP" horiz-adv-x="538" unicode="&#58688;" /><glyph d="M208 -268Q183 -268 155 -266.5Q127 -265 99.5 -262.5Q72 -260 47 -256Q22 -252 4 -246Q-20 -238 -28 -223Q-36 -208 -33 -186L-24 -100Q-20 -73 1.5 -61Q23 -49 49 -57Q71 -64 116.5 -71Q162 -78 212 -78Q237 -78 258.5 -75Q280 -72 296.5 -63.5Q313 -55 323 -41.5Q333 -28 336 -7Q341 35 322.5 49Q304 63 262 63H74Q14 63 22 123L61 440Q67 500 128 500H527Q586 500 580 440L572 376Q564 316 504 316H260L249 225H310Q367 225 415 216Q463 207 496 181.5Q529 156 544 111.5Q559 67 550 -5Q540 -83 508.5 -134Q477 -185 431 -215Q385 -245 327.5 -256.5Q270 -268 208 -268Z" glyph-name="five.OT" horiz-adv-x="600" unicode="&#58715;" /><glyph d="M215 165Q262 165 281.5 171Q301 177 303 189Q305 200 294 203Q283 206 263 206H85Q24 206 32 266L54 440Q60 500 121 500H463Q522 500 516 440L508 381Q500 321 441 321H231L229 302H272Q341 302 387 296.5Q433 291 459.5 275Q486 259 494.5 229Q503 199 497 151Q486 62 412 22Q338 -18 198 -18Q103 -18 29 2Q3 9 -4.5 24.5Q-12 40 -10 62L-1 134Q2 161 23 174Q44 187 70 181Q96 175 134.5 170Q173 165 215 165Z" glyph-name="five.XP" horiz-adv-x="522" /><glyph d="M254 165Q318 165 344 171Q370 177 372 189Q374 200 363 203Q352 206 332 206H94Q33 206 41 266L63 440Q69 500 130 500H532Q591 500 585 440L577 381Q569 321 510 321H240L238 302H341Q410 302 455.5 296Q501 290 527.5 272.5Q554 255 562.5 224.5Q571 194 565 146Q554 57 469.5 19.5Q385 -18 237 -18Q213 -18 186 -16.5Q159 -15 132 -12.5Q105 -10 80.5 -6.5Q56 -3 38 2Q12 9 4.5 24.5Q-3 40 -1 62L8 134Q11 161 32 174Q53 187 79 181Q92 178 113 175Q134 172 158.5 170Q183 168 208 166.5Q233 165 254 165Z" glyph-name="five.XT" horiz-adv-x="600" /><glyph d="M188 56Q208 56 226.5 58.5Q245 61 259.5 68Q274 75 283.5 88Q293 101 296 122Q299 143 293.5 156Q288 169 277.5 176Q267 183 252.5 185.5Q238 188 222 188H84Q24 188 32 248L71 565Q77 625 138 625H492Q551 625 545 565L537 501Q529 441 469 441H270L259 350H275Q326 350 372.5 344.5Q419 339 453 316Q487 293 503.5 247Q520 201 510 120Q500 42 468 -9Q436 -60 391 -90Q346 -120 291.5 -131.5Q237 -143 183 -143Q133 -143 91.5 -138Q50 -133 14 -122Q-10 -114 -18 -99Q-26 -84 -23 -62L-13 29Q-10 56 11.5 68Q33 80 59 72Q82 65 110 60.5Q138 56 188 56Z" glyph-name="five.hybrid" horiz-adv-x="538" /><glyph d="M144 -116Q183 -116 199.5 -111Q216 -106 217 -96Q219 -86 210 -84Q201 -82 184 -82H36Q-14 -82 -8 -32L9 110Q17 160 66 160H350Q376 160 385.5 147.5Q395 135 393 110L388 62Q383 12 331 12L158 14L155 -5H190Q247 -5 285.5 -9Q324 -13 346 -26Q368 -39 375.5 -63Q383 -87 378 -127Q369 -202 308 -235Q247 -268 130 -268Q52 -268 -11 -251Q-32 -245 -39.5 -231.5Q-47 -218 -44 -199L-35 -142Q-31 -119 -15 -108Q1 -97 23 -102Q45 -107 77 -111.5Q109 -116 144 -116Z" glyph-name="five.inf" horiz-adv-x="438" unicode="&#58742;" /><glyph d="M88 336H71Q10 336 18 396L21 423Q25 454 39 467Q53 480 89 490L107 495L118 579Q123 622 138 656.5Q153 691 180 716Q207 741 247 754.5Q287 768 341 768Q364 768 389.5 766.5Q415 765 431 761Q457 755 466 739.5Q475 724 473 701L464 631Q461 607 447 597Q433 587 413 587Q407 587 401.5 587.5Q396 588 391 588Q348 588 344 550L338 500H382Q441 500 435 440L429 396Q421 336 362 336H318L253 -190Q245 -250 186 -250H76Q15 -250 23 -190ZM572 -18Q495 -18 454.5 18.5Q414 55 424 134L492 690Q499 750 560 750H670Q729 750 722 690L662 199Q661 191 663.5 186Q666 181 676 177Q685 174 691 167.5Q697 161 695 142L683 41Q680 18 656 0Q632 -18 572 -18Z" glyph-name="fl" horiz-adv-x="711" unicode="&#64258;" /><glyph d="M129 375H81Q33 375 38 423L42 452Q48 500 96 500H144L146 514Q153 571 173 617.5Q193 664 229 697.5Q265 731 319.5 749.5Q374 768 449 768Q501 768 541 763Q581 758 612 748Q635 741 641 730Q647 719 644 700L633 604Q631 585 616.5 573Q602 561 575 569Q546 577 519 580.5Q492 584 466 584Q427 584 402.5 570Q378 556 373 516L371 500H512Q560 500 554 452L550 423Q545 375 497 375H356L315 48Q309 0 262 0H131Q82 0 88 48Z" glyph-name="florin" horiz-adv-x="584" unicode="&#402;" /><glyph d="M129 375H81Q33 375 38 423L42 452Q48 500 96 500H144L146 514Q153 571 173 617.5Q193 664 229 697.5Q265 731 319.5 749.5Q374 768 449 768Q501 768 541 763Q581 758 612 748Q635 741 641 730Q647 719 644 700L633 604Q631 585 616.5 573Q602 561 575 569Q546 577 519 580.5Q492 584 466 584Q427 584 402.5 570Q378 556 373 516L371 500H512Q560 500 554 452L550 423Q545 375 497 375H356L315 48Q309 0 262 0H131Q82 0 88 48Z" glyph-name="florin.LP" horiz-adv-x="584" unicode="&#58661;" /><glyph d="M100 303Q107 349 122 388Q137 427 168 456Q199 485 248.5 501.5Q298 518 374 518Q434 518 475 512.5Q516 507 548 497Q570 490 576 479Q582 468 580 449L568 354Q566 335 551.5 323Q537 311 511 319Q482 327 458 330.5Q434 334 399 334Q368 334 351.5 326.5Q335 319 329 303H448Q473 303 483.5 292Q494 281 490 255L489 248Q485 222 472.5 211Q460 200 435 200H314L265 -202Q259 -250 211 -250H80Q32 -250 38 -202L87 200H60Q35 200 24.5 211Q14 222 18 248L19 255Q23 281 35.5 292Q48 303 73 303Z" glyph-name="florin.OP" horiz-adv-x="584" /><glyph d="M94 250H66Q18 250 23 298L27 327Q33 375 81 375H109L111 389Q118 446 138 492.5Q158 539 194 572.5Q230 606 284.5 624.5Q339 643 414 643Q466 643 506 638Q546 633 577 623Q600 616 606 605Q612 594 609 575L598 479Q596 460 581.5 448Q567 436 540 444Q511 452 484 455.5Q457 459 431 459Q392 459 367.5 445Q343 431 338 391L336 375H477Q525 375 519 327L515 298Q510 250 462 250H321L280 -77Q274 -125 227 -125H96Q47 -125 53 -77Z" glyph-name="florin.hybrid" horiz-adv-x="584" /><glyph d="M300 309 320 452 218 307ZM278 129H49Q-11 129 -3 189L2 233Q5 259 10 273.5Q15 288 29 307L346 726Q361 746 378.5 757Q396 768 425 768H523Q582 768 575 708L526 309H543Q603 309 596 249L589 189Q581 129 521 129H504L496 60Q488 0 429 0H323Q262 0 270 60Z" glyph-name="four" horiz-adv-x="600" unicode="4" /><glyph d="M324 340 343 480 247 338ZM302 160H53Q-5 160 1 220L5 256Q8 282 14 297Q20 312 34 331L332 726Q347 746 364.5 757Q382 768 411 768H543Q602 768 595 708L550 340H587Q647 340 640 280L633 220Q625 160 565 160H528L516 60Q508 0 449 0H343Q282 0 290 60Z" glyph-name="four.LP" horiz-adv-x="640" unicode="&#58681;" /><glyph d="M300 309 320 452 218 307ZM278 129H49Q-11 129 -3 189L2 233Q5 259 10 273.5Q15 288 29 307L346 726Q361 746 378.5 757Q396 768 425 768H523Q582 768 575 708L526 309H543Q603 309 596 249L589 189Q581 129 521 129H504L496 60Q488 0 429 0H323Q262 0 270 60Z" glyph-name="four.LT" horiz-adv-x="600" unicode="&#58692;" /><glyph d="M305 90 324 230 227 88ZM282 -90H33Q-27 -90 -19 -30L-15 6Q-12 32 -6 47Q0 62 14 81L311 476Q326 496 343.5 507Q361 518 390 518H523Q583 518 576 458L531 90H568Q627 90 620 30L613 -30Q605 -90 545 -90H508L496 -190Q488 -250 429 -250H323Q262 -250 270 -190Z" glyph-name="four.OP" horiz-adv-x="662" unicode="&#58703;" /><glyph d="M274 90 291 213 211 88ZM251 -90H22Q-36 -90 -30 -30L-26 6Q-25 19 -23 28.5Q-21 38 -18 46Q-15 54 -10.5 62Q-6 70 1 80L281 475Q296 497 314 507.5Q332 518 361 518H492Q552 518 545 458L500 90H517Q576 90 569 30L562 -30Q554 -90 494 -90H477L465 -190Q457 -250 398 -250H292Q231 -250 239 -190Z" glyph-name="four.OT" horiz-adv-x="600" unicode="&#58714;" /><glyph d="M290 244 307 328 225 242ZM270 78H46Q-13 78 -7 138L-2 178Q2 204 8 220Q14 236 27 249L257 476Q277 496 295 507Q313 518 342 518H486Q546 518 539 458L512 244H529Q589 244 582 184L576 138Q570 78 509 78H492L490 60Q482 0 423 0H321Q262 0 268 60Z" glyph-name="four.XP" horiz-adv-x="597" /><glyph d="M291 244 308 328 226 242ZM271 78H47Q-12 78 -6 138L-1 178Q3 204 9 220Q15 236 28 249L258 476Q278 496 296 507Q314 518 343 518H487Q547 518 540 458L513 244H530Q590 244 583 184L577 138Q571 78 510 78H493L491 60Q483 0 424 0H322Q263 0 269 60Z" glyph-name="four.XT" horiz-adv-x="600" /><glyph d="M305 180 328 355 221 180ZM283 0H34Q-27 0 -19 60L-15 96Q-14 109 -12 118.5Q-10 128 -7 136Q-4 144 0.5 152Q5 160 12 170L318 601Q333 622 350.5 632.5Q368 643 397 643H527Q587 643 580 583L531 180H568Q627 180 620 120L613 60Q605 0 546 0H509L501 -65Q493 -125 433 -125H327Q267 -125 275 -65Z" glyph-name="four.hybrid" horiz-adv-x="640" /><glyph d="M206 -47 220 23 156 -49ZM189 -185H3Q-47 -185 -41 -135L-37 -102Q-35 -81 -29.5 -67.5Q-24 -54 -13 -43L160 143Q176 160 191 169Q206 178 230 178H369Q419 178 413 128L391 -47H405Q455 -47 449 -97L444 -135Q438 -185 388 -185H374L372 -200Q366 -250 316 -250H231Q181 -250 187 -200Z" glyph-name="four.inf" horiz-adv-x="499" unicode="&#58741;" /><glyph glyph-name="fourperemspace" horiz-adv-x="250" unicode="&#8197;" /><glyph d="M-62 24Q-73 10 -85 5Q-97 0 -114 0H-178Q-195 0 -203 15Q-211 30 -197 47L379 726Q390 740 402 745Q414 750 431 750H495Q512 750 520 734.5Q528 719 514 703Z" glyph-name="fraction" horiz-adv-x="284" unicode="&#8260;" /><glyph d="M235 250Q231 219 231 199.5Q231 180 234.5 168.5Q238 157 245 153Q252 149 263 149Q274 149 284 152Q294 155 300 158L322 342Q317 345 308 348Q299 351 288 351Q277 351 269 347Q261 343 254.5 331.5Q248 320 243.5 300.5Q239 281 235 250ZM187 -268Q139 -268 90 -262.5Q41 -257 9 -246Q-13 -238 -19.5 -224.5Q-26 -211 -24 -188L-15 -115Q-11 -89 8 -74Q27 -59 57 -68Q72 -72 83.5 -75.5Q95 -79 108 -81.5Q121 -84 135.5 -85.5Q150 -87 171 -87Q200 -87 220 -82Q240 -77 252 -67Q264 -57 270.5 -43.5Q277 -30 279 -13L281 2Q255 -7 228.5 -12.5Q202 -18 176 -18Q127 -18 91.5 -4.5Q56 9 34.5 40.5Q13 72 6.5 123.5Q0 175 9 250Q18 325 37.5 376Q57 427 86 458.5Q115 490 154 504Q193 518 242 518Q284 518 320.5 504Q357 490 389 458Q399 477 414.5 488.5Q430 500 460 500H512Q571 500 565 440L514 27Q508 -23 493 -75.5Q478 -128 443 -170.5Q408 -213 347 -240.5Q286 -268 187 -268Z" glyph-name="g" horiz-adv-x="562" unicode="g" /><glyph d="M377 329Q339 329 315 323.5Q291 318 276 308Q261 298 254 283Q247 268 245 250Q240 212 259 189.5Q278 167 340 167L342 185Q352 265 432 265H464Q544 265 534 185L521 76Q517 44 501 26.5Q485 9 459 2Q425 -6 379.5 -12Q334 -18 277 -18Q201 -18 149 2Q97 22 66.5 57.5Q36 93 25.5 142Q15 191 22 250Q30 314 53 363.5Q76 413 117 447.5Q158 482 219.5 500Q281 518 365 518Q394 518 415 516.5Q436 515 453 512.5Q470 510 484 507Q498 504 513 501Q546 494 555 476.5Q564 459 560 430L553 367Q549 337 528.5 324Q508 311 476 318Q450 323 426 326Q402 329 377 329Z" glyph-name="g.smcp" horiz-adv-x="577" unicode="&#57863;" /><glyph d="M156 465Q152 434 156 424Q160 414 171 414Q176 414 182 415.5Q188 417 191 419L202 511Q194 515 184 515Q173 515 166.5 506Q160 497 156 465ZM302 590Q332 590 328 560L298 316Q292 263 248.5 234.5Q205 206 141 206Q114 206 88 208.5Q62 211 43 217Q31 221 27 230Q23 239 25 249L29 275Q31 289 41 297Q51 305 68 300Q79 297 98 293Q117 289 138 289Q175 289 178 312L181 341Q169 336 154.5 333.5Q140 331 126 331Q74 331 51 360.5Q28 390 38 465Q47 540 77 569.5Q107 599 159 599Q179 599 199 592Q219 585 235 569Q240 579 248 584.5Q256 590 271 590Z" glyph-name="g.superior" horiz-adv-x="303" unicode="&#58215;" /><glyph d="M307 550Q254 550 219.5 563Q185 576 165 597.5Q145 619 137 646.5Q129 674 130 704Q132 750 179 750H214Q234 750 243 743.5Q252 737 255 721Q259 702 273.5 691Q288 680 323 680Q358 680 375.5 691Q393 702 401 721Q409 737 419.5 743.5Q430 750 450 750H485Q533 750 522 704Q515 674 500.5 646.5Q486 619 460.5 597.5Q435 576 397 563Q359 550 307 550ZM235 250Q231 219 231 199.5Q231 180 234.5 168.5Q238 157 245 153Q252 149 263 149Q274 149 284 152Q294 155 300 158L322 342Q317 345 308 348Q299 351 288 351Q277 351 269 347Q261 343 254.5 331.5Q248 320 243.5 300.5Q239 281 235 250ZM187 -268Q139 -268 90 -262.5Q41 -257 9 -246Q-13 -238 -19.5 -224.5Q-26 -211 -24 -188L-15 -115Q-11 -89 8 -74Q27 -59 57 -68Q72 -72 83.5 -75.5Q95 -79 108 -81.5Q121 -84 135.5 -85.5Q150 -87 171 -87Q200 -87 220 -82Q240 -77 252 -67Q264 -57 270.5 -43.5Q277 -30 279 -13L281 2Q255 -7 228.5 -12.5Q202 -18 176 -18Q127 -18 91.5 -4.5Q56 9 34.5 40.5Q13 72 6.5 123.5Q0 175 9 250Q18 325 37.5 376Q57 427 86 458.5Q115 490 154 504Q193 518 242 518Q284 518 320.5 504Q357 490 389 458Q399 477 414.5 488.5Q430 500 460 500H512Q571 500 565 440L514 27Q508 -23 493 -75.5Q478 -128 443 -170.5Q408 -213 347 -240.5Q286 -268 187 -268Z" glyph-name="gbreve" horiz-adv-x="562" unicode="&#287;" /><glyph d="M377 329Q339 329 315 323.5Q291 318 276 308Q261 298 254 283Q247 268 245 250Q240 212 259 189.5Q278 167 340 167L342 185Q352 265 432 265H464Q544 265 534 185L521 76Q517 44 501 26.5Q485 9 459 2Q425 -6 379.5 -12Q334 -18 277 -18Q201 -18 149 2Q97 22 66.5 57.5Q36 93 25.5 142Q15 191 22 250Q30 314 53 363.5Q76 413 117 447.5Q158 482 219.5 500Q281 518 365 518Q394 518 415 516.5Q436 515 453 512.5Q470 510 484 507Q498 504 513 501Q546 494 555 476.5Q564 459 560 430L553 367Q549 337 528.5 324Q508 311 476 318Q450 323 426 326Q402 329 377 329ZM325 550Q272 550 237.5 563Q203 576 183 597.5Q163 619 155 646.5Q147 674 148 704Q150 750 197 750H232Q252 750 261 743.5Q270 737 273 721Q277 702 291.5 691Q306 680 341 680Q376 680 393.5 691Q411 702 419 721Q427 737 437.5 743.5Q448 750 468 750H503Q551 750 540 704Q533 674 518.5 646.5Q504 619 478.5 597.5Q453 576 415 563Q377 550 325 550Z" glyph-name="gbreve.smcp" horiz-adv-x="577" unicode="&#57934;" /><glyph d="M235 250Q231 219 231 199.5Q231 180 234.5 168.5Q238 157 245 153Q252 149 263 149Q274 149 284 152Q294 155 300 158L322 342Q317 345 308 348Q299 351 288 351Q277 351 269 347Q261 343 254.5 331.5Q248 320 243.5 300.5Q239 281 235 250ZM372 750Q392 750 406.5 744.5Q421 739 435 722L518 623Q529 610 531.5 597Q534 584 530.5 573.5Q527 563 518 556.5Q509 550 497 550H406Q383 550 368 558Q353 566 338 583L315 611L284 583Q264 566 247.5 558Q231 550 208 550H135Q123 550 113 556.5Q103 563 98.5 573.5Q94 584 97 597Q100 610 114 623L221 722Q239 739 250.5 744.5Q262 750 282 750ZM187 -268Q139 -268 90 -262.5Q41 -257 9 -246Q-13 -238 -19.5 -224.5Q-26 -211 -24 -188L-15 -115Q-11 -89 8 -74Q27 -59 57 -68Q72 -72 83.5 -75.5Q95 -79 108 -81.5Q121 -84 135.5 -85.5Q150 -87 171 -87Q200 -87 220 -82Q240 -77 252 -67Q264 -57 270.5 -43.5Q277 -30 279 -13L281 2Q255 -7 228.5 -12.5Q202 -18 176 -18Q127 -18 91.5 -4.5Q56 9 34.5 40.5Q13 72 6.5 123.5Q0 175 9 250Q18 325 37.5 376Q57 427 86 458.5Q115 490 154 504Q193 518 242 518Q284 518 320.5 504Q357 490 389 458Q399 477 414.5 488.5Q430 500 460 500H512Q571 500 565 440L514 27Q508 -23 493 -75.5Q478 -128 443 -170.5Q408 -213 347 -240.5Q286 -268 187 -268Z" glyph-name="gcircumflex" horiz-adv-x="562" unicode="&#285;" /><glyph d="M390 750Q410 750 424.5 744.5Q439 739 453 722L536 623Q547 610 549.5 597Q552 584 548.5 573.5Q545 563 536 556.5Q527 550 515 550H424Q401 550 386 558Q371 566 356 583L333 611L302 583Q282 566 265.5 558Q249 550 226 550H153Q141 550 131 556.5Q121 563 116.5 573.5Q112 584 115 597Q118 610 132 623L239 722Q257 739 268.5 744.5Q280 750 300 750ZM377 329Q339 329 315 323.5Q291 318 276 308Q261 298 254 283Q247 268 245 250Q240 212 259 189.5Q278 167 340 167L342 185Q352 265 432 265H464Q544 265 534 185L521 76Q517 44 501 26.5Q485 9 459 2Q425 -6 379.5 -12Q334 -18 277 -18Q201 -18 149 2Q97 22 66.5 57.5Q36 93 25.5 142Q15 191 22 250Q30 314 53 363.5Q76 413 117 447.5Q158 482 219.5 500Q281 518 365 518Q394 518 415 516.5Q436 515 453 512.5Q470 510 484 507Q498 504 513 501Q546 494 555 476.5Q564 459 560 430L553 367Q549 337 528.5 324Q508 311 476 318Q450 323 426 326Q402 329 377 329Z" glyph-name="gcircumflex.smcp" horiz-adv-x="577" unicode="&#57931;" /><glyph d="M288 550Q249 550 233.5 575Q218 600 236 630L281 703Q298 731 314 740.5Q330 750 359 750H387Q416 750 430.5 733.5Q445 717 438 689L420 608Q406 550 352 550ZM235 250Q231 219 231 199.5Q231 180 234.5 168.5Q238 157 245 153Q252 149 263 149Q274 149 284 152Q294 155 300 158L322 342Q317 345 308 348Q299 351 288 351Q277 351 269 347Q261 343 254.5 331.5Q248 320 243.5 300.5Q239 281 235 250ZM187 -268Q139 -268 90 -262.5Q41 -257 9 -246Q-13 -238 -19.5 -224.5Q-26 -211 -24 -188L-15 -115Q-11 -89 8 -74Q27 -59 57 -68Q72 -72 83.5 -75.5Q95 -79 108 -81.5Q121 -84 135.5 -85.5Q150 -87 171 -87Q200 -87 220 -82Q240 -77 252 -67Q264 -57 270.5 -43.5Q277 -30 279 -13L281 2Q255 -7 228.5 -12.5Q202 -18 176 -18Q127 -18 91.5 -4.5Q56 9 34.5 40.5Q13 72 6.5 123.5Q0 175 9 250Q18 325 37.5 376Q57 427 86 458.5Q115 490 154 504Q193 518 242 518Q284 518 320.5 504Q357 490 389 458Q399 477 414.5 488.5Q430 500 460 500H512Q571 500 565 440L514 27Q508 -23 493 -75.5Q478 -128 443 -170.5Q408 -213 347 -240.5Q286 -268 187 -268Z" glyph-name="gcommaaccent" horiz-adv-x="562" unicode="&#291;" /><glyph d="M316 -50Q335 -50 346.5 -57.5Q358 -65 362.5 -76.5Q367 -88 364.5 -102Q362 -116 353 -130L310 -197Q290 -229 274.5 -239.5Q259 -250 231 -250H199Q170 -250 154 -235Q138 -220 146 -189L167 -108Q176 -76 195.5 -63Q215 -50 243 -50ZM377 329Q339 329 315 323.5Q291 318 276 308Q261 298 254 283Q247 268 245 250Q240 212 259 189.5Q278 167 340 167L342 185Q352 265 432 265H464Q544 265 534 185L521 76Q517 44 501 26.5Q485 9 459 2Q425 -6 379.5 -12Q334 -18 277 -18Q201 -18 149 2Q97 22 66.5 57.5Q36 93 25.5 142Q15 191 22 250Q30 314 53 363.5Q76 413 117 447.5Q158 482 219.5 500Q281 518 365 518Q394 518 415 516.5Q436 515 453 512.5Q470 510 484 507Q498 504 513 501Q546 494 555 476.5Q564 459 560 430L553 367Q549 337 528.5 324Q508 311 476 318Q450 323 426 326Q402 329 377 329Z" glyph-name="gcommaaccent.smcp" horiz-adv-x="577" unicode="&#57920;" /><glyph d="M235 250Q231 219 231 199.5Q231 180 234.5 168.5Q238 157 245 153Q252 149 263 149Q274 149 284 152Q294 155 300 158L322 342Q317 345 308 348Q299 351 288 351Q277 351 269 347Q261 343 254.5 331.5Q248 320 243.5 300.5Q239 281 235 250ZM187 -268Q139 -268 90 -262.5Q41 -257 9 -246Q-13 -238 -19.5 -224.5Q-26 -211 -24 -188L-15 -115Q-11 -89 8 -74Q27 -59 57 -68Q72 -72 83.5 -75.5Q95 -79 108 -81.5Q121 -84 135.5 -85.5Q150 -87 171 -87Q200 -87 220 -82Q240 -77 252 -67Q264 -57 270.5 -43.5Q277 -30 279 -13L281 2Q255 -7 228.5 -12.5Q202 -18 176 -18Q127 -18 91.5 -4.5Q56 9 34.5 40.5Q13 72 6.5 123.5Q0 175 9 250Q18 325 37.5 376Q57 427 86 458.5Q115 490 154 504Q193 518 242 518Q284 518 320.5 504Q357 490 389 458Q399 477 414.5 488.5Q430 500 460 500H512Q571 500 565 440L514 27Q508 -23 493 -75.5Q478 -128 443 -170.5Q408 -213 347 -240.5Q286 -268 187 -268ZM201 650Q201 674 210.5 695.5Q220 717 236 733Q252 749 273.5 758.5Q295 768 319 768Q343 768 364.5 758.5Q386 749 402 733Q418 717 427.5 695.5Q437 674 437 650Q437 626 427.5 604.5Q418 583 402 567Q386 551 364.5 541.5Q343 532 319 532Q295 532 273.5 541.5Q252 551 236 567Q220 583 210.5 604.5Q201 626 201 650Z" glyph-name="gdotaccent" horiz-adv-x="562" unicode="&#289;" /></font>
</defs>
</svg>
