<?xml version="1.0" standalone="no"?><!DOCTYPE svg PUBLIC "-//W3C//DTD SVG 1.1//EN" "http://www.w3.org/Graphics/SVG/1.1/DTD/svg11.dtd" ><svg version="1.1" xmlns="http://www.w3.org/2000/svg"><defs><font horiz-adv-x="0" id="font"><font-face ascent="750" bbox="-64.4444 -270 1322 921" cap-height="750" descent="-250" font-family="Apex Rounded Book" font-stretch="normal" font-style="normal" font-weight="500" units-per-em="1000" x-height="500" /><missing-glyph d="M136 629V121L390 375ZM744 121V629L490 375ZM181 66H699L440 325ZM440 425 699 684H181ZM65 750H815V0H65Z" horiz-adv-x="880" /><glyph d="M185 269H445L315 646ZM281 734Q286 748 292 754Q298 760 312 760H318Q332 760 338 754Q344 748 349 734L604 32Q610 16 602.5 8Q595 0 584 0H564Q548 0 540.5 8Q533 16 529 27L466 210H164L101 27Q97 16 89.5 8Q82 0 66 0H46Q35 0 27.5 8Q20 16 26 32Z" glyph-name="A" horiz-adv-x="630" unicode="A" /><glyph d="M412 655 219 269H475ZM850 422Q880 422 880 393V388Q880 359 850 359H529L577 63H885Q915 63 915 34V29Q915 0 885 0H549Q519 0 514 31L484 210H190L93 16Q89 8 82.5 4Q76 0 63 0H46Q30 0 25.5 11.5Q21 23 27 34L382 722Q389 736 398.5 743Q408 750 423 750H885Q915 750 915 721V716Q915 687 885 687H475L518 422Z" glyph-name="AE" horiz-adv-x="975" unicode="&#198;" /><glyph d="M185 269H445L315 646ZM281 734Q286 748 292 754Q298 760 312 760H318Q332 760 338 754Q344 748 349 734L604 32Q610 16 602.5 8Q595 0 584 0H564Q548 0 540.5 8Q533 16 529 27L466 210H164L101 27Q97 16 89.5 8Q82 0 66 0H46Q35 0 27.5 8Q20 16 26 32ZM328 876Q340 900 364 900H383Q396 900 401.5 887.5Q407 875 397 864L355 817Q340 800 327 800H318Q307 800 302.5 808.5Q298 817 303 827Z" glyph-name="Aacute" horiz-adv-x="630" unicode="&#193;" /><glyph d="M185 269H445L315 646ZM281 734Q286 748 292 754Q298 760 312 760H318Q332 760 338 754Q344 748 349 734L604 32Q610 16 602.5 8Q595 0 584 0H564Q548 0 540.5 8Q533 16 529 27L466 210H164L101 27Q97 16 89.5 8Q82 0 66 0H46Q35 0 27.5 8Q20 16 26 32ZM315 790Q276 790 251 797Q226 804 210 815.5Q194 827 186.5 840.5Q179 854 175 867Q170 882 177.5 891Q185 900 196 900H199Q210 900 216 894.5Q222 889 227 877Q231 866 250 855.5Q269 845 315 845Q361 845 380 855.5Q399 866 403 877Q408 889 414 894.5Q420 900 431 900H434Q445 900 452.5 891Q460 882 455 867Q451 854 443.5 840.5Q436 827 420 815.5Q404 804 379 797Q354 790 315 790Z" glyph-name="Abreve" horiz-adv-x="630" unicode="&#258;" /><glyph d="M185 269H445L315 646ZM281 734Q286 748 292 754Q298 760 312 760H318Q332 760 338 754Q344 748 349 734L604 32Q610 16 602.5 8Q595 0 584 0H564Q548 0 540.5 8Q533 16 529 27L466 210H164L101 27Q97 16 89.5 8Q82 0 66 0H46Q35 0 27.5 8Q20 16 26 32ZM441 825Q450 817 446.5 808.5Q443 800 435 800H430Q420 800 411.5 803.5Q403 807 393 812L315 856L237 812Q227 807 218.5 803.5Q210 800 200 800H195Q187 800 183.5 808.5Q180 817 189 825L249 878Q263 890 273.5 895Q284 900 296 900H334Q346 900 356.5 895Q367 890 381 878Z" glyph-name="Acircumflex" horiz-adv-x="630" unicode="&#194;" /><glyph d="M185 269H445L315 646ZM281 734Q286 748 292 754Q298 760 312 760H318Q332 760 338 754Q344 748 349 734L604 32Q610 16 602.5 8Q595 0 584 0H564Q548 0 540.5 8Q533 16 529 27L466 210H164L101 27Q97 16 89.5 8Q82 0 66 0H46Q35 0 27.5 8Q20 16 26 32ZM360 850Q360 871 374.5 885.5Q389 900 410 900Q431 900 445.5 885.5Q460 871 460 850Q460 829 445.5 814.5Q431 800 410 800Q389 800 374.5 814.5Q360 829 360 850ZM170 850Q170 871 184.5 885.5Q199 900 220 900Q241 900 255.5 885.5Q270 871 270 850Q270 829 255.5 814.5Q241 800 220 800Q199 800 184.5 814.5Q170 829 170 850Z" glyph-name="Adieresis" horiz-adv-x="630" unicode="&#196;" /><glyph d="M185 269H445L315 646ZM281 734Q286 748 292 754Q298 760 312 760H318Q332 760 338 754Q344 748 349 734L604 32Q610 16 602.5 8Q595 0 584 0H564Q548 0 540.5 8Q533 16 529 27L466 210H164L101 27Q97 16 89.5 8Q82 0 66 0H46Q35 0 27.5 8Q20 16 26 32ZM327 827Q332 817 327.5 808.5Q323 800 312 800H303Q290 800 275 817L233 864Q228 870 227 876Q226 882 228.5 887.5Q231 893 236 896.5Q241 900 247 900H266Q290 900 302 876Z" glyph-name="Agrave" horiz-adv-x="630" unicode="&#192;" /><glyph d="M185 269H445L315 646ZM281 734Q286 748 292 754Q298 760 312 760H318Q332 760 338 754Q344 748 349 734L604 32Q610 16 602.5 8Q595 0 584 0H564Q548 0 540.5 8Q533 16 529 27L466 210H164L101 27Q97 16 89.5 8Q82 0 66 0H46Q35 0 27.5 8Q20 16 26 32ZM423 880Q452 880 452 852V848Q452 820 423 820H207Q178 820 178 848V852Q178 880 207 880Z" glyph-name="Amacron" horiz-adv-x="630" unicode="&#256;" /><glyph d="M315 646 101 27Q97 16 89.5 8Q82 0 66 0H46Q35 0 27.5 8Q20 16 26 32L281 734Q286 748 292 754Q298 760 312 760H318Q332 760 338 754Q344 748 349 734L604 32Q610 16 602.5 8Q595 0 584 0H564Q548 0 540.5 8Q533 16 529 27Z" glyph-name="Anocross" horiz-adv-x="630" /><glyph d="M185 269H445L315 646ZM281 734Q286 748 292 754Q298 760 312 760H318Q332 760 338 754Q344 748 349 734L604 32Q608 21 605 13.5Q602 6 595 2Q582 -6 565.5 -21Q549 -36 534 -55.5Q519 -75 509 -97Q499 -119 499 -142Q499 -168 511.5 -183.5Q524 -199 553 -199Q563 -199 572 -198Q581 -197 585 -196Q599 -193 604.5 -198.5Q610 -204 610 -212V-218Q610 -226 606 -234Q602 -242 588 -245Q578 -247 567 -248.5Q556 -250 539 -250Q489 -250 463.5 -223Q438 -196 438 -155Q438 -127 446 -102.5Q454 -78 467.5 -58Q481 -38 498.5 -21Q516 -4 535 9L466 210H164L101 27Q97 16 89.5 8Q82 0 66 0H46Q35 0 27.5 8Q20 16 26 32Z" glyph-name="Aogonek" horiz-adv-x="630" unicode="&#260;" /><glyph d="M185 269H445L315 646ZM281 734Q286 748 292 754Q298 760 312 760H318Q332 760 338 754Q344 748 349 734L604 32Q610 16 602.5 8Q595 0 584 0H564Q548 0 540.5 8Q533 16 529 27L466 210H164L101 27Q97 16 89.5 8Q82 0 66 0H46Q35 0 27.5 8Q20 16 26 32ZM315 828Q359 828 359 850Q359 872 315 872Q271 872 271 850Q271 828 315 828ZM315 921Q334 921 351 917.5Q368 914 381 906Q394 898 401.5 884.5Q409 871 409 850Q409 829 401.5 815.5Q394 802 381 794Q368 786 351 782.5Q334 779 315 779Q296 779 279 782.5Q262 786 249 794Q236 802 228.5 815.5Q221 829 221 850Q221 871 228.5 884.5Q236 898 249 906Q262 914 279 917.5Q296 921 315 921Z" glyph-name="Aring" horiz-adv-x="630" unicode="&#197;" /><glyph d="M185 269H445L315 646ZM281 734Q286 748 292 754Q298 760 312 760H318Q332 760 338 754Q344 748 349 734L604 32Q610 16 602.5 8Q595 0 584 0H564Q548 0 540.5 8Q533 16 529 27L466 210H164L101 27Q97 16 89.5 8Q82 0 66 0H46Q35 0 27.5 8Q20 16 26 32ZM239 910Q270 910 290 900.5Q310 891 326 879.5Q342 868 356.5 858.5Q371 849 391 849Q415 849 424 858Q433 867 436 876Q444 900 466 900H468Q482 900 489 891Q496 882 494 868Q490 835 463 812.5Q436 790 391 790Q360 790 340 799.5Q320 809 304 820.5Q288 832 273 841.5Q258 851 239 851Q215 851 206 842Q197 833 194 824Q186 800 164 800H162Q148 800 141 809Q134 818 136 832Q140 865 167 887.5Q194 910 239 910Z" glyph-name="Atilde" horiz-adv-x="630" unicode="&#195;" /><glyph d="M471 552Q471 577 465.5 601Q460 625 444 644Q428 663 399 675Q370 687 322 687H143V422H330Q372 422 399.5 433.5Q427 445 443 463Q459 481 465 504.5Q471 528 471 552ZM143 63H328Q381 63 414 76Q447 89 465 110Q483 131 489.5 157.5Q496 184 496 211Q496 287 459 323Q422 359 330 359H143ZM105 0Q75 0 75 32V718Q75 750 105 750H312Q378 750 422.5 734.5Q467 719 494 692Q521 665 533 629Q545 593 545 552Q545 503 520.5 460Q496 417 447 396Q479 387 502.5 368.5Q526 350 541 325Q556 300 563 270.5Q570 241 570 211Q570 167 557 128.5Q544 90 514.5 61.5Q485 33 437 16.5Q389 0 319 0Z" glyph-name="B" horiz-adv-x="615" unicode="B" /><glyph d="M60 375Q60 455 74.5 525Q89 595 123.5 647.5Q158 700 214.5 730Q271 760 355 760Q424 760 465.5 750.5Q507 741 524 735Q539 730 544.5 721Q550 712 550 701V687Q550 679 543 671.5Q536 664 519 670Q490 681 451 689Q412 697 355 697Q293 697 250.5 672Q208 647 182 603.5Q156 560 144 501.5Q132 443 132 375Q132 307 144 248.5Q156 190 182 146.5Q208 103 250.5 78Q293 53 355 53Q412 53 451 61Q490 69 519 80Q536 86 543 78.5Q550 71 550 63V49Q550 38 544.5 29Q539 20 524 15Q507 9 465.5 -0.5Q424 -10 355 -10Q271 -10 214.5 20Q158 50 123.5 102.5Q89 155 74.5 225Q60 295 60 375Z" glyph-name="C" horiz-adv-x="610" unicode="C" /><glyph d="M60 375Q60 455 74.5 525Q89 595 123.5 647.5Q158 700 214.5 730Q271 760 355 760Q424 760 465.5 750.5Q507 741 524 735Q539 730 544.5 721Q550 712 550 701V687Q550 679 543 671.5Q536 664 519 670Q490 681 451 689Q412 697 355 697Q293 697 250.5 672Q208 647 182 603.5Q156 560 144 501.5Q132 443 132 375Q132 307 144 248.5Q156 190 182 146.5Q208 103 250.5 78Q293 53 355 53Q412 53 451 61Q490 69 519 80Q536 86 543 78.5Q550 71 550 63V49Q550 38 544.5 29Q539 20 524 15Q507 9 465.5 -0.5Q424 -10 355 -10Q271 -10 214.5 20Q158 50 123.5 102.5Q89 155 74.5 225Q60 295 60 375ZM368 876Q380 900 404 900H423Q436 900 441.5 887.5Q447 875 437 864L395 817Q380 800 367 800H358Q347 800 342.5 808.5Q338 817 343 827Z" glyph-name="Cacute" horiz-adv-x="610" unicode="&#262;" /><glyph d="M60 375Q60 455 74.5 525Q89 595 123.5 647.5Q158 700 214.5 730Q271 760 355 760Q424 760 465.5 750.5Q507 741 524 735Q539 730 544.5 721Q550 712 550 701V687Q550 679 543 671.5Q536 664 519 670Q490 681 451 689Q412 697 355 697Q293 697 250.5 672Q208 647 182 603.5Q156 560 144 501.5Q132 443 132 375Q132 307 144 248.5Q156 190 182 146.5Q208 103 250.5 78Q293 53 355 53Q412 53 451 61Q490 69 519 80Q536 86 543 78.5Q550 71 550 63V49Q550 38 544.5 29Q539 20 524 15Q507 9 465.5 -0.5Q424 -10 355 -10Q271 -10 214.5 20Q158 50 123.5 102.5Q89 155 74.5 225Q60 295 60 375ZM229 875Q220 883 223.5 891.5Q227 900 235 900H240Q250 900 258.5 896.5Q267 893 277 888L355 844L433 888Q443 893 451.5 896.5Q460 900 470 900H475Q483 900 486.5 891.5Q490 883 481 875L421 822Q407 810 396.5 805Q386 800 374 800H336Q324 800 313.5 805Q303 810 289 822Z" glyph-name="Ccaron" horiz-adv-x="610" unicode="&#268;" /><glyph d="M60 375Q60 455 74.5 525Q89 595 123.5 647.5Q158 700 214.5 730Q271 760 355 760Q424 760 465.5 750.5Q507 741 524 735Q539 730 544.5 721Q550 712 550 701V687Q550 679 543 671.5Q536 664 519 670Q490 681 451 689Q412 697 355 697Q293 697 250.5 672Q208 647 182 603.5Q156 560 144 501.5Q132 443 132 375Q132 307 144 248.5Q156 190 182 146.5Q208 103 250.5 78Q293 53 355 53Q412 53 451 61Q490 69 519 80Q536 86 543 78.5Q550 71 550 63V49Q550 38 544.5 29Q539 20 524 15Q508 9 472 0.5Q436 -8 376 -10L380 -64Q395 -68 411.5 -75Q428 -82 442.5 -93Q457 -104 466 -121Q475 -138 475 -161Q475 -202 446 -226Q417 -250 364 -250Q345 -250 327 -248Q309 -246 292 -241Q278 -236 274 -229Q270 -222 270 -214V-209Q270 -201 276 -195.5Q282 -190 295 -193Q322 -199 347 -199Q378 -199 396 -190.5Q414 -182 414 -163Q414 -136 396 -122.5Q378 -109 350 -104Q325 -100 328 -73L334 -9Q256 -5 203.5 26.5Q151 58 119 109.5Q87 161 73.5 229.5Q60 298 60 375Z" glyph-name="Ccedilla" horiz-adv-x="610" unicode="&#199;" /><glyph d="M60 375Q60 455 74.5 525Q89 595 123.5 647.5Q158 700 214.5 730Q271 760 355 760Q424 760 465.5 750.5Q507 741 524 735Q539 730 544.5 721Q550 712 550 701V687Q550 679 543 671.5Q536 664 519 670Q490 681 451 689Q412 697 355 697Q293 697 250.5 672Q208 647 182 603.5Q156 560 144 501.5Q132 443 132 375Q132 307 144 248.5Q156 190 182 146.5Q208 103 250.5 78Q293 53 355 53Q412 53 451 61Q490 69 519 80Q536 86 543 78.5Q550 71 550 63V49Q550 38 544.5 29Q539 20 524 15Q507 9 465.5 -0.5Q424 -10 355 -10Q271 -10 214.5 20Q158 50 123.5 102.5Q89 155 74.5 225Q60 295 60 375ZM481 825Q490 817 486.5 808.5Q483 800 475 800H470Q460 800 451.5 803.5Q443 807 433 812L355 856L277 812Q267 807 258.5 803.5Q250 800 240 800H235Q227 800 223.5 808.5Q220 817 229 825L289 878Q303 890 313.5 895Q324 900 336 900H374Q386 900 396.5 895Q407 890 421 878Z" glyph-name="Ccircumflex" horiz-adv-x="610" unicode="&#264;" /><glyph d="M60 375Q60 455 74.5 525Q89 595 123.5 647.5Q158 700 214.5 730Q271 760 355 760Q424 760 465.5 750.5Q507 741 524 735Q539 730 544.5 721Q550 712 550 701V687Q550 679 543 671.5Q536 664 519 670Q490 681 451 689Q412 697 355 697Q293 697 250.5 672Q208 647 182 603.5Q156 560 144 501.5Q132 443 132 375Q132 307 144 248.5Q156 190 182 146.5Q208 103 250.5 78Q293 53 355 53Q412 53 451 61Q490 69 519 80Q536 86 543 78.5Q550 71 550 63V49Q550 38 544.5 29Q539 20 524 15Q507 9 465.5 -0.5Q424 -10 355 -10Q271 -10 214.5 20Q158 50 123.5 102.5Q89 155 74.5 225Q60 295 60 375ZM305 850Q305 871 319.5 885.5Q334 900 355 900Q376 900 390.5 885.5Q405 871 405 850Q405 829 390.5 814.5Q376 800 355 800Q334 800 319.5 814.5Q305 829 305 850Z" glyph-name="Cdotaccent" horiz-adv-x="610" unicode="&#266;" /><glyph d="M143 63H283Q350 63 396 86.5Q442 110 470.5 151.5Q499 193 511 250Q523 307 523 375Q523 442 511 499.5Q499 557 470.5 598.5Q442 640 396 663.5Q350 687 283 687H143ZM105 0Q75 0 75 32V718Q75 750 105 750H279Q371 750 432 721.5Q493 693 529 642.5Q565 592 580 523.5Q595 455 595 375Q595 295 580 226.5Q565 158 529 107.5Q493 57 432 28.5Q371 0 279 0Z" glyph-name="D" horiz-adv-x="655" unicode="D" /><glyph d="M143 63H283Q350 63 396 86.5Q442 110 470.5 151.5Q499 193 511 250Q523 307 523 375Q523 442 511 499.5Q499 557 470.5 598.5Q442 640 396 663.5Q350 687 283 687H143ZM105 0Q75 0 75 32V718Q75 750 105 750H279Q371 750 432 721.5Q493 693 529 642.5Q565 592 580 523.5Q595 455 595 375Q595 295 580 226.5Q565 158 529 107.5Q493 57 432 28.5Q371 0 279 0ZM174 875Q165 883 168.5 891.5Q172 900 180 900H185Q195 900 203.5 896.5Q212 893 222 888L300 844L378 888Q388 893 396.5 896.5Q405 900 415 900H420Q428 900 431.5 891.5Q435 883 426 875L366 822Q352 810 341.5 805Q331 800 319 800H281Q269 800 258.5 805Q248 810 234 822Z" glyph-name="Dcaron" horiz-adv-x="655" unicode="&#270;" /><glyph d="M173 415H331Q356 415 356 391V386Q356 362 331 362H173V63H313Q380 63 426 86.5Q472 110 500.5 151.5Q529 193 541 250Q553 307 553 375Q553 442 541 499.5Q529 557 500.5 598.5Q472 640 426 663.5Q380 687 313 687H173ZM105 415V718Q105 750 135 750H309Q401 750 462 721.5Q523 693 559 642.5Q595 592 610 523.5Q625 455 625 375Q625 295 610 226.5Q595 158 559 107.5Q523 57 462 28.5Q401 0 309 0H135Q105 0 105 32V362H40Q15 362 15 386V391Q15 415 40 415Z" glyph-name="Dcroat" horiz-adv-x="685" unicode="&#272;" /><glyph d="M350 686 96 61H604ZM357 760Q387 760 397 734L666 77Q672 63 676 52Q680 41 680 32V26Q680 0 653 0H47Q20 0 20 26V32Q20 41 24 52Q28 63 34 77L303 734Q313 760 343 760Z" glyph-name="Delta" horiz-adv-x="700" unicode="&#8710;" /><glyph d="M143 422H445Q475 422 475 393V388Q475 359 445 359H143V63H480Q510 63 510 34V29Q510 0 480 0H105Q75 0 75 32V718Q75 750 105 750H480Q510 750 510 721V716Q510 687 480 687H143Z" glyph-name="E" horiz-adv-x="570" unicode="E" /><glyph d="M143 422H445Q475 422 475 393V388Q475 359 445 359H143V63H480Q510 63 510 34V29Q510 0 480 0H105Q75 0 75 32V718Q75 750 105 750H480Q510 750 510 721V716Q510 687 480 687H143ZM313 876Q325 900 349 900H368Q381 900 386.5 887.5Q392 875 382 864L340 817Q325 800 312 800H303Q292 800 287.5 808.5Q283 817 288 827Z" glyph-name="Eacute" horiz-adv-x="570" unicode="&#201;" /><glyph d="M143 422H445Q475 422 475 393V388Q475 359 445 359H143V63H480Q510 63 510 34V29Q510 0 480 0H105Q75 0 75 32V718Q75 750 105 750H480Q510 750 510 721V716Q510 687 480 687H143ZM300 790Q261 790 236 797Q211 804 195 815.5Q179 827 171.5 840.5Q164 854 160 867Q155 882 162.5 891Q170 900 181 900H184Q195 900 201 894.5Q207 889 212 877Q216 866 235 855.5Q254 845 300 845Q346 845 365 855.5Q384 866 388 877Q393 889 399 894.5Q405 900 416 900H419Q430 900 437.5 891Q445 882 440 867Q436 854 428.5 840.5Q421 827 405 815.5Q389 804 364 797Q339 790 300 790Z" glyph-name="Ebreve" horiz-adv-x="570" unicode="&#276;" /><glyph d="M143 422H445Q475 422 475 393V388Q475 359 445 359H143V63H480Q510 63 510 34V29Q510 0 480 0H105Q75 0 75 32V718Q75 750 105 750H480Q510 750 510 721V716Q510 687 480 687H143ZM174 875Q165 883 168.5 891.5Q172 900 180 900H185Q195 900 203.5 896.5Q212 893 222 888L300 844L378 888Q388 893 396.5 896.5Q405 900 415 900H420Q428 900 431.5 891.5Q435 883 426 875L366 822Q352 810 341.5 805Q331 800 319 800H281Q269 800 258.5 805Q248 810 234 822Z" glyph-name="Ecaron" horiz-adv-x="570" unicode="&#282;" /><glyph d="M143 422H445Q475 422 475 393V388Q475 359 445 359H143V63H480Q510 63 510 34V29Q510 0 480 0H105Q75 0 75 32V718Q75 750 105 750H480Q510 750 510 721V716Q510 687 480 687H143ZM426 825Q435 817 431.5 808.5Q428 800 420 800H415Q405 800 396.5 803.5Q388 807 378 812L300 856L222 812Q212 807 203.5 803.5Q195 800 185 800H180Q172 800 168.5 808.5Q165 817 174 825L234 878Q248 890 258.5 895Q269 900 281 900H319Q331 900 341.5 895Q352 890 366 878Z" glyph-name="Ecircumflex" horiz-adv-x="570" unicode="&#202;" /><glyph d="M143 422H445Q475 422 475 393V388Q475 359 445 359H143V63H480Q510 63 510 34V29Q510 0 480 0H105Q75 0 75 32V718Q75 750 105 750H480Q510 750 510 721V716Q510 687 480 687H143ZM345 850Q345 871 359.5 885.5Q374 900 395 900Q416 900 430.5 885.5Q445 871 445 850Q445 829 430.5 814.5Q416 800 395 800Q374 800 359.5 814.5Q345 829 345 850ZM155 850Q155 871 169.5 885.5Q184 900 205 900Q226 900 240.5 885.5Q255 871 255 850Q255 829 240.5 814.5Q226 800 205 800Q184 800 169.5 814.5Q155 829 155 850Z" glyph-name="Edieresis" horiz-adv-x="570" unicode="&#203;" /><glyph d="M143 422H445Q475 422 475 393V388Q475 359 445 359H143V63H480Q510 63 510 34V29Q510 0 480 0H105Q75 0 75 32V718Q75 750 105 750H480Q510 750 510 721V716Q510 687 480 687H143ZM250 850Q250 871 264.5 885.5Q279 900 300 900Q321 900 335.5 885.5Q350 871 350 850Q350 829 335.5 814.5Q321 800 300 800Q279 800 264.5 814.5Q250 829 250 850Z" glyph-name="Edotaccent" horiz-adv-x="570" unicode="&#278;" /><glyph d="M143 422H445Q475 422 475 393V388Q475 359 445 359H143V63H480Q510 63 510 34V29Q510 0 480 0H105Q75 0 75 32V718Q75 750 105 750H480Q510 750 510 721V716Q510 687 480 687H143ZM312 827Q317 817 312.5 808.5Q308 800 297 800H288Q275 800 260 817L218 864Q213 870 212 876Q211 882 213.5 887.5Q216 893 221 896.5Q226 900 232 900H251Q275 900 287 876Z" glyph-name="Egrave" horiz-adv-x="570" unicode="&#200;" /><glyph d="M143 422H445Q475 422 475 393V388Q475 359 445 359H143V63H480Q510 63 510 34V29Q510 0 480 0H105Q75 0 75 32V718Q75 750 105 750H480Q510 750 510 721V716Q510 687 480 687H143ZM408 880Q437 880 437 852V848Q437 820 408 820H192Q163 820 163 848V852Q163 880 192 880Z" glyph-name="Emacron" horiz-adv-x="570" unicode="&#274;" /><glyph d="M431 -255Q399 -255 399 -228V-223Q399 -196 431 -196Q482 -196 505.5 -170.5Q529 -145 529 -99V23L141 611L143 32Q143 0 113 0H105Q75 0 75 32V718Q75 750 105 750H110Q120 750 125 746.5Q130 743 135 736L529 139L527 718Q527 750 557 750H565Q595 750 595 718V-105Q595 -142 582.5 -170Q570 -198 548.5 -217Q527 -236 497 -245.5Q467 -255 431 -255Z" glyph-name="Eng" horiz-adv-x="670" unicode="&#330;" /><glyph d="M143 422H445Q475 422 475 393V388Q475 359 445 359H143V63H480Q510 63 510 34V29Q510 10 495 2Q481 -6 465.5 -21Q450 -36 436 -55.5Q422 -75 413 -97.5Q404 -120 404 -142Q404 -168 416.5 -183.5Q429 -199 458 -199Q468 -199 477 -198Q486 -197 490 -196Q504 -193 509.5 -198.5Q515 -204 515 -212V-218Q515 -226 511 -234Q507 -242 493 -245Q483 -247 472 -248.5Q461 -250 444 -250Q394 -250 368.5 -223Q343 -196 343 -155Q343 -101 368 -63.5Q393 -26 427 0H105Q75 0 75 32V718Q75 750 105 750H480Q510 750 510 721V716Q510 687 480 687H143Z" glyph-name="Eogonek" horiz-adv-x="570" unicode="&#280;" /><glyph d="M173 415H331Q356 415 356 391V386Q356 362 331 362H173V63H313Q380 63 426 86.5Q472 110 500.5 151.5Q529 193 541 250Q553 307 553 375Q553 442 541 499.5Q529 557 500.5 598.5Q472 640 426 663.5Q380 687 313 687H173ZM105 415V718Q105 750 135 750H309Q401 750 462 721.5Q523 693 559 642.5Q595 592 610 523.5Q625 455 625 375Q625 295 610 226.5Q595 158 559 107.5Q523 57 462 28.5Q401 0 309 0H135Q105 0 105 32V362H40Q15 362 15 386V391Q15 415 40 415Z" glyph-name="Eth" horiz-adv-x="685" unicode="&#208;" /><glyph d="M105 332V418H75Q45 418 45 447V455Q45 484 75 484H109Q114 548 129 599Q144 650 173 686Q202 722 247.5 741Q293 760 360 760Q405 760 441 753.5Q477 747 495 741Q510 736 514.5 727.5Q519 719 519 710V701Q519 691 510.5 684Q502 677 485 682Q461 689 431 693.5Q401 698 360 698Q313 698 280.5 683Q248 668 227 640Q206 612 194.5 572.5Q183 533 179 484H432Q445 484 449.5 475Q454 466 449 455L444 442Q436 418 411 418H175V332H359Q372 332 376.5 323Q381 314 376 303L371 290Q363 266 338 266H179Q183 217 194.5 177.5Q206 138 227 110Q248 82 280.5 67Q313 52 360 52Q401 52 431 56.5Q461 61 485 68Q502 73 510.5 66Q519 59 519 49V40Q519 31 514.5 22.5Q510 14 495 9Q477 3 441 -3.5Q405 -10 360 -10Q293 -10 247.5 9Q202 28 173 64Q144 100 129 151Q114 202 109 266H75Q45 266 45 295V303Q45 332 75 332Z" glyph-name="Euro" horiz-adv-x="570" unicode="&#8364;" /><glyph d="M105 332V418H75Q45 418 45 447V455Q45 484 75 484H109Q114 548 129 599Q144 650 173 686Q202 722 247.5 741Q293 760 360 760Q405 760 441 753.5Q477 747 495 741Q510 736 514.5 727.5Q519 719 519 710V701Q519 691 510.5 684Q502 677 485 682Q461 689 431 693.5Q401 698 360 698Q313 698 280.5 683Q248 668 227 640Q206 612 194.5 572.5Q183 533 179 484H432Q445 484 449.5 475Q454 466 449 455L444 442Q436 418 411 418H175V332H359Q372 332 376.5 323Q381 314 376 303L371 290Q363 266 338 266H179Q183 217 194.5 177.5Q206 138 227 110Q248 82 280.5 67Q313 52 360 52Q401 52 431 56.5Q461 61 485 68Q502 73 510.5 66Q519 59 519 49V40Q519 31 514.5 22.5Q510 14 495 9Q477 3 441 -3.5Q405 -10 360 -10Q293 -10 247.5 9Q202 28 173 64Q144 100 129 151Q114 202 109 266H75Q45 266 45 295V303Q45 332 75 332Z" glyph-name="Euro.LP" horiz-adv-x="570" unicode="&#58657;" /><glyph d="M85 250Q85 258 85 266.5Q85 275 86 283H55Q25 283 25 312V320Q25 349 55 349H97Q117 424 174 467Q231 510 329 510Q383 510 418 502.5Q453 495 468 490Q480 486 484 478Q488 470 488 462V449Q488 439 481.5 432.5Q475 426 459 431Q439 436 408 442Q377 448 328 448Q264 448 226 421Q188 394 171 349H371Q384 349 388.5 340Q393 331 388 320L383 307Q375 283 350 283H156Q155 275 155 266.5Q155 258 155 250Q155 241 155 233Q155 225 156 217H325Q338 217 342.5 208Q347 199 342 188L337 175Q329 151 304 151H171Q188 106 226 79Q264 52 328 52Q377 52 408 58Q439 64 459 69Q475 74 481.5 67.5Q488 61 488 51V38Q488 30 484 22Q480 14 468 10Q453 5 418 -2.5Q383 -10 329 -10Q231 -10 174 33Q117 76 97 151H55Q25 151 25 180V188Q25 217 55 217H86Q85 225 85 233Q85 241 85 250Z" glyph-name="Euro.OP" horiz-adv-x="530" /><glyph d="M163 208Q171 173 185.5 144.5Q200 116 223 95.5Q246 75 279 64Q312 53 359 53Q402 53 430.5 59Q459 65 483 72Q500 77 508.5 71Q517 65 517 55V42Q517 33 512.5 24.5Q508 16 493 11Q475 5 441.5 -2.5Q408 -10 357 -10Q295 -10 249 5.5Q203 21 170.5 49.5Q138 78 118.5 118Q99 158 89 208H50Q20 208 20 237V245Q20 274 50 274H81Q80 283 80 292.5Q80 302 80 312Q80 322 80 331Q80 340 81 350H50Q20 350 20 379V387Q20 416 50 416H89Q99 466 118.5 506.5Q138 547 170.5 575.5Q203 604 249 619.5Q295 635 357 635Q408 635 441.5 627.5Q475 620 493 614Q508 609 512.5 600.5Q517 592 517 583V570Q517 560 508.5 554Q500 548 483 553Q459 560 430.5 566Q402 572 359 572Q312 572 279 560.5Q246 549 223 528.5Q200 508 185.5 479.5Q171 451 163 416H386Q399 416 403.5 407Q408 398 403 387L398 374Q390 350 365 350H153Q152 340 152 331Q152 322 152 312Q152 302 152 292.5Q152 283 153 274H337Q350 274 354.5 265Q359 256 354 245L349 232Q341 208 316 208Z" glyph-name="Euro.hybrid" horiz-adv-x="567" /><glyph d="M143 359V32Q143 0 113 0H105Q75 0 75 32V718Q75 750 105 750H470Q500 750 500 721V716Q500 687 470 687H143V422H435Q465 422 465 393V388Q465 359 435 359Z" glyph-name="F" horiz-adv-x="550" unicode="F" /><glyph d="M555 394Q585 394 585 362V53Q585 44 579.5 34.5Q574 25 559 20Q534 11 483.5 0.5Q433 -10 355 -10Q271 -10 214.5 20Q158 50 123.5 102.5Q89 155 74.5 225Q60 295 60 375Q60 455 74.5 525Q89 595 123.5 647.5Q158 700 214.5 730Q271 760 355 760Q427 760 470.5 749.5Q514 739 539 730Q554 725 559.5 715.5Q565 706 565 697V680Q565 670 557.5 663Q550 656 534 662Q504 674 460.5 685.5Q417 697 355 697Q293 697 250.5 672Q208 647 182 603.5Q156 560 144 501.5Q132 443 132 375Q132 307 144 248.5Q156 190 182 146.5Q208 103 250.5 78Q293 53 355 53Q376 53 399 54Q422 55 444 57.5Q466 60 485 64.5Q504 69 517 75V331H390Q360 331 360 360V365Q360 394 390 394Z" glyph-name="G" horiz-adv-x="660" unicode="G" /><glyph d="M555 394Q585 394 585 362V53Q585 44 579.5 34.5Q574 25 559 20Q534 11 483.5 0.5Q433 -10 355 -10Q271 -10 214.5 20Q158 50 123.5 102.5Q89 155 74.5 225Q60 295 60 375Q60 455 74.5 525Q89 595 123.5 647.5Q158 700 214.5 730Q271 760 355 760Q427 760 470.5 749.5Q514 739 539 730Q554 725 559.5 715.5Q565 706 565 697V680Q565 670 557.5 663Q550 656 534 662Q504 674 460.5 685.5Q417 697 355 697Q293 697 250.5 672Q208 647 182 603.5Q156 560 144 501.5Q132 443 132 375Q132 307 144 248.5Q156 190 182 146.5Q208 103 250.5 78Q293 53 355 53Q376 53 399 54Q422 55 444 57.5Q466 60 485 64.5Q504 69 517 75V331H390Q360 331 360 360V365Q360 394 390 394ZM355 790Q316 790 291 797Q266 804 250 815.5Q234 827 226.5 840.5Q219 854 215 867Q210 882 217.5 891Q225 900 236 900H239Q250 900 256 894.5Q262 889 267 877Q271 866 290 855.5Q309 845 355 845Q401 845 420 855.5Q439 866 443 877Q448 889 454 894.5Q460 900 471 900H474Q485 900 492.5 891Q500 882 495 867Q491 854 483.5 840.5Q476 827 460 815.5Q444 804 419 797Q394 790 355 790Z" glyph-name="Gbreve" horiz-adv-x="660" unicode="&#286;" /><glyph d="M555 394Q585 394 585 362V53Q585 44 579.5 34.5Q574 25 559 20Q534 11 483.5 0.5Q433 -10 355 -10Q271 -10 214.5 20Q158 50 123.5 102.5Q89 155 74.5 225Q60 295 60 375Q60 455 74.5 525Q89 595 123.5 647.5Q158 700 214.5 730Q271 760 355 760Q427 760 470.5 749.5Q514 739 539 730Q554 725 559.5 715.5Q565 706 565 697V680Q565 670 557.5 663Q550 656 534 662Q504 674 460.5 685.5Q417 697 355 697Q293 697 250.5 672Q208 647 182 603.5Q156 560 144 501.5Q132 443 132 375Q132 307 144 248.5Q156 190 182 146.5Q208 103 250.5 78Q293 53 355 53Q376 53 399 54Q422 55 444 57.5Q466 60 485 64.5Q504 69 517 75V331H390Q360 331 360 360V365Q360 394 390 394ZM481 825Q490 817 486.5 808.5Q483 800 475 800H470Q460 800 451.5 803.5Q443 807 433 812L355 856L277 812Q267 807 258.5 803.5Q250 800 240 800H235Q227 800 223.5 808.5Q220 817 229 825L289 878Q303 890 313.5 895Q324 900 336 900H374Q386 900 396.5 895Q407 890 421 878Z" glyph-name="Gcircumflex" horiz-adv-x="660" unicode="&#284;" /><glyph d="M555 394Q585 394 585 362V53Q585 44 579.5 34.5Q574 25 559 20Q534 11 483.5 0.5Q433 -10 355 -10Q271 -10 214.5 20Q158 50 123.5 102.5Q89 155 74.5 225Q60 295 60 375Q60 455 74.5 525Q89 595 123.5 647.5Q158 700 214.5 730Q271 760 355 760Q427 760 470.5 749.5Q514 739 539 730Q554 725 559.5 715.5Q565 706 565 697V680Q565 670 557.5 663Q550 656 534 662Q504 674 460.5 685.5Q417 697 355 697Q293 697 250.5 672Q208 647 182 603.5Q156 560 144 501.5Q132 443 132 375Q132 307 144 248.5Q156 190 182 146.5Q208 103 250.5 78Q293 53 355 53Q376 53 399 54Q422 55 444 57.5Q466 60 485 64.5Q504 69 517 75V331H390Q360 331 360 360V365Q360 394 390 394ZM318 -78Q321 -50 350 -50H366Q381 -50 388.5 -61Q396 -72 392 -86L352 -227Q345 -250 324 -250H321Q309 -250 303 -242.5Q297 -235 299 -226Z" glyph-name="Gcommaaccent" horiz-adv-x="660" unicode="&#290;" /><glyph d="M555 394Q585 394 585 362V53Q585 44 579.5 34.5Q574 25 559 20Q534 11 483.5 0.5Q433 -10 355 -10Q271 -10 214.5 20Q158 50 123.5 102.5Q89 155 74.5 225Q60 295 60 375Q60 455 74.5 525Q89 595 123.5 647.5Q158 700 214.5 730Q271 760 355 760Q427 760 470.5 749.5Q514 739 539 730Q554 725 559.5 715.5Q565 706 565 697V680Q565 670 557.5 663Q550 656 534 662Q504 674 460.5 685.5Q417 697 355 697Q293 697 250.5 672Q208 647 182 603.5Q156 560 144 501.5Q132 443 132 375Q132 307 144 248.5Q156 190 182 146.5Q208 103 250.5 78Q293 53 355 53Q376 53 399 54Q422 55 444 57.5Q466 60 485 64.5Q504 69 517 75V331H390Q360 331 360 360V365Q360 394 390 394ZM305 850Q305 871 319.5 885.5Q334 900 355 900Q376 900 390.5 885.5Q405 871 405 850Q405 829 390.5 814.5Q376 800 355 800Q334 800 319.5 814.5Q305 829 305 850Z" glyph-name="Gdotaccent" horiz-adv-x="660" unicode="&#288;" /><glyph d="M517 359H143V32Q143 0 113 0H105Q75 0 75 32V718Q75 750 105 750H113Q143 750 143 718V422H517V718Q517 750 547 750H555Q585 750 585 718V32Q585 0 555 0H547Q517 0 517 32Z" glyph-name="H" horiz-adv-x="660" unicode="H" /><glyph d="M143 422H517V543H143ZM517 359H143V32Q143 0 113 0H105Q75 0 75 32V718Q75 750 105 750H113Q143 750 143 718V606H517V718Q517 750 547 750H555Q585 750 585 718V32Q585 0 555 0H547Q517 0 517 32Z" glyph-name="Hbar" horiz-adv-x="660" unicode="&#294;" /><glyph d="M517 359H143V32Q143 0 113 0H105Q75 0 75 32V718Q75 750 105 750H113Q143 750 143 718V422H517V718Q517 750 547 750H555Q585 750 585 718V32Q585 0 555 0H547Q517 0 517 32ZM456 825Q465 817 461.5 808.5Q458 800 450 800H445Q435 800 426.5 803.5Q418 807 408 812L330 856L252 812Q242 807 233.5 803.5Q225 800 215 800H210Q202 800 198.5 808.5Q195 817 204 825L264 878Q278 890 288.5 895Q299 900 311 900H349Q361 900 371.5 895Q382 890 396 878Z" glyph-name="Hcircumflex" horiz-adv-x="660" unicode="&#292;" /><glyph d="M165 32Q165 0 135 0H125Q95 0 95 32V718Q95 750 125 750H135Q165 750 165 718Z" glyph-name="I" horiz-adv-x="260" unicode="I" /><glyph d="M544 140Q544 68 501.5 29Q459 -10 365 -10Q355 -10 344 -9.5Q333 -9 324 -8Q295 -5 295 22V31Q295 42 303 49.5Q311 57 324 55Q330 54 340.5 53.5Q351 53 365 53Q414 53 444 71Q474 89 474 138V718Q474 750 504 750H514Q544 750 544 718ZM165 32Q165 0 135 0H125Q95 0 95 32V718Q95 750 125 750H135Q165 750 165 718Z" glyph-name="IJ" horiz-adv-x="639" unicode="&#306;" /><glyph d="M165 32Q165 0 135 0H125Q95 0 95 32V718Q95 750 125 750H135Q165 750 165 718ZM143 876Q155 900 179 900H198Q211 900 216.5 887.5Q222 875 212 864L170 817Q155 800 142 800H133Q122 800 117.5 808.5Q113 817 118 827Z" glyph-name="Iacute" horiz-adv-x="260" unicode="&#205;" /><glyph d="M165 32Q165 0 135 0H125Q95 0 95 32V718Q95 750 125 750H135Q165 750 165 718ZM130 790Q91 790 66 797Q41 804 25 815.5Q9 827 1.5 840.5Q-6 854 -10 867Q-15 882 -7.5 891Q0 900 11 900H14Q25 900 31 894.5Q37 889 42 877Q46 866 65 855.5Q84 845 130 845Q176 845 195 855.5Q214 866 218 877Q223 889 229 894.5Q235 900 246 900H249Q260 900 267.5 891Q275 882 270 867Q266 854 258.5 840.5Q251 827 235 815.5Q219 804 194 797Q169 790 130 790Z" glyph-name="Ibreve" horiz-adv-x="260" unicode="&#300;" /><glyph d="M165 32Q165 0 135 0H125Q95 0 95 32V718Q95 750 125 750H135Q165 750 165 718ZM256 825Q265 817 261.5 808.5Q258 800 250 800H245Q235 800 226.5 803.5Q218 807 208 812L130 856L52 812Q42 807 33.5 803.5Q25 800 15 800H10Q2 800 -1.5 808.5Q-5 817 4 825L64 878Q78 890 88.5 895Q99 900 111 900H149Q161 900 171.5 895Q182 890 196 878Z" glyph-name="Icircumflex" horiz-adv-x="260" unicode="&#206;" /><glyph d="M165 32Q165 0 135 0H125Q95 0 95 32V718Q95 750 125 750H135Q165 750 165 718ZM155 850Q155 871 169.5 885.5Q184 900 205 900Q226 900 240.5 885.5Q255 871 255 850Q255 829 240.5 814.5Q226 800 205 800Q184 800 169.5 814.5Q155 829 155 850ZM5 850Q5 871 19.5 885.5Q34 900 55 900Q76 900 90.5 885.5Q105 871 105 850Q105 829 90.5 814.5Q76 800 55 800Q34 800 19.5 814.5Q5 829 5 850Z" glyph-name="Idieresis" horiz-adv-x="260" unicode="&#207;" /><glyph d="M165 32Q165 0 135 0H125Q95 0 95 32V718Q95 750 125 750H135Q165 750 165 718ZM80 850Q80 871 94.5 885.5Q109 900 130 900Q151 900 165.5 885.5Q180 871 180 850Q180 829 165.5 814.5Q151 800 130 800Q109 800 94.5 814.5Q80 829 80 850Z" glyph-name="Idotaccent" horiz-adv-x="260" unicode="&#304;" /><glyph d="M165 32Q165 0 135 0H125Q95 0 95 32V718Q95 750 125 750H135Q165 750 165 718ZM142 827Q147 817 142.5 808.5Q138 800 127 800H118Q105 800 90 817L48 864Q43 870 42 876Q41 882 43.5 887.5Q46 893 51 896.5Q56 900 62 900H81Q105 900 117 876Z" glyph-name="Igrave" horiz-adv-x="260" unicode="&#204;" /><glyph d="M165 32Q165 0 135 0H125Q95 0 95 32V718Q95 750 125 750H135Q165 750 165 718ZM238 880Q267 880 267 852V848Q267 820 238 820H22Q-7 820 -7 848V852Q-7 880 22 880Z" glyph-name="Imacron" horiz-adv-x="260" unicode="&#298;" /><glyph d="M165 32Q165 15 154 5Q125 -21 102 -59.5Q79 -98 79 -142Q79 -168 91.5 -183.5Q104 -199 133 -199Q143 -199 152 -198Q161 -197 165 -196Q179 -193 184.5 -198.5Q190 -204 190 -212V-218Q190 -226 186 -234Q182 -242 168 -245Q158 -247 147 -248.5Q136 -250 119 -250Q69 -250 43.5 -223Q18 -196 18 -155Q18 -101 40.5 -60.5Q63 -20 95 7V718Q95 750 125 750H135Q165 750 165 718Z" glyph-name="Iogonek" horiz-adv-x="260" unicode="&#302;" /><glyph d="M165 32Q165 0 135 0H125Q95 0 95 32V718Q95 750 125 750H135Q165 750 165 718ZM54 910Q85 910 105 900.5Q125 891 141 879.5Q157 868 171.5 858.5Q186 849 206 849Q230 849 239 858Q248 867 251 876Q259 900 281 900H283Q297 900 304 891Q311 882 309 868Q305 835 278 812.5Q251 790 206 790Q175 790 155 799.5Q135 809 119 820.5Q103 832 88 841.5Q73 851 54 851Q30 851 21 842Q12 833 9 824Q1 800 -21 800H-23Q-37 800 -44 809Q-51 818 -49 832Q-45 865 -18 887.5Q9 910 54 910Z" glyph-name="Itilde" horiz-adv-x="260" unicode="&#296;" /><glyph d="M284 140Q284 68 241.5 29Q199 -10 105 -10Q95 -10 84 -9.5Q73 -9 64 -8Q35 -5 35 22V31Q35 42 43 49.5Q51 57 64 55Q70 54 80.5 53.5Q91 53 105 53Q154 53 184 71Q214 89 214 138V718Q214 750 244 750H254Q284 750 284 718Z" glyph-name="J" horiz-adv-x="379" unicode="J" /><glyph d="M284 140Q284 68 241.5 29Q199 -10 105 -10Q95 -10 84 -9.5Q73 -9 64 -8Q35 -5 35 22V31Q35 42 43 49.5Q51 57 64 55Q70 54 80.5 53.5Q91 53 105 53Q154 53 184 71Q214 89 214 138V718Q214 750 244 750H254Q284 750 284 718ZM375 825Q384 817 380.5 808.5Q377 800 369 800H364Q354 800 345.5 803.5Q337 807 327 812L249 856L171 812Q161 807 152.5 803.5Q144 800 134 800H129Q121 800 117.5 808.5Q114 817 123 825L183 878Q197 890 207.5 895Q218 900 230 900H268Q280 900 290.5 895Q301 890 315 878Z" glyph-name="Jcircumflex" horiz-adv-x="379" unicode="&#308;" /><glyph d="M143 370 450 716Q469 738 479 744Q489 750 506 750H519Q532 750 537 737.5Q542 725 532 714L260 411L563 38Q572 27 568.5 13.5Q565 0 548 0H540Q527 0 518.5 2Q510 4 503 8.5Q496 13 489.5 20.5Q483 28 474 39L215 361L143 281V32Q143 0 113 0H105Q75 0 75 32V718Q75 750 105 750H113Q143 750 143 718Z" glyph-name="K" horiz-adv-x="595" unicode="K" /><glyph d="M143 370 450 716Q469 738 479 744Q489 750 506 750H519Q532 750 537 737.5Q542 725 532 714L260 411L563 38Q572 27 568.5 13.5Q565 0 548 0H540Q527 0 518.5 2Q510 4 503 8.5Q496 13 489.5 20.5Q483 28 474 39L215 361L143 281V32Q143 0 113 0H105Q75 0 75 32V718Q75 750 105 750H113Q143 750 143 718ZM258 -78Q261 -50 290 -50H306Q321 -50 328.5 -61Q336 -72 332 -86L292 -227Q285 -250 264 -250H261Q249 -250 243 -242.5Q237 -235 239 -226Z" glyph-name="Kcommaaccent" horiz-adv-x="595" unicode="&#310;" /><glyph d="M105 0Q75 0 75 32V718Q75 750 105 750H113Q143 750 143 718V63H460Q490 63 490 34V29Q490 0 460 0Z" glyph-name="L" horiz-adv-x="530" unicode="L" /><glyph d="M105 0Q75 0 75 32V718Q75 750 105 750H113Q143 750 143 718V63H460Q490 63 490 34V29Q490 0 460 0ZM119 876Q131 900 155 900H174Q187 900 192.5 887.5Q198 875 188 864L146 817Q131 800 118 800H109Q98 800 93.5 808.5Q89 817 94 827Z" glyph-name="Lacute" horiz-adv-x="530" unicode="&#313;" /><glyph d="M105 0Q75 0 75 32V718Q75 750 105 750H113Q143 750 143 718V63H460Q490 63 490 34V29Q490 0 460 0ZM237 722Q240 750 268 750H281Q298 750 305.5 739.5Q313 729 309 714L275 573Q268 550 249 550H246Q234 550 228.5 557.5Q223 565 225 574Z" glyph-name="Lcaron" horiz-adv-x="530" unicode="&#317;" /><glyph d="M105 0Q75 0 75 32V718Q75 750 105 750H113Q143 750 143 718V63H460Q490 63 490 34V29Q490 0 460 0ZM248 -78Q251 -50 280 -50H296Q311 -50 318.5 -61Q326 -72 322 -86L282 -227Q275 -250 254 -250H251Q239 -250 233 -242.5Q227 -235 229 -226Z" glyph-name="Lcommaaccent" horiz-adv-x="530" unicode="&#315;" /><glyph d="M105 0Q75 0 75 32V718Q75 750 105 750H113Q143 750 143 718V63H460Q490 63 490 34V29Q490 0 460 0ZM324 375Q324 396 338.5 410.5Q353 425 374 425Q395 425 409.5 410.5Q424 396 424 375Q424 354 409.5 339.5Q395 325 374 325Q353 325 338.5 339.5Q324 354 324 375Z" glyph-name="Ldot" horiz-adv-x="530" unicode="&#319;" /><glyph d="M171 321V63H488Q518 63 518 34V29Q518 0 488 0H133Q103 0 103 32V280L39 241Q25 233 15 239.5Q5 246 5 259V262Q5 274 8.5 280Q12 286 22 292L103 341V718Q103 750 133 750H141Q171 750 171 718V383L346 490Q360 498 370 491.5Q380 485 380 472V469Q380 457 376.5 451Q373 445 363 439Z" glyph-name="Lslash" horiz-adv-x="560" unicode="&#321;" /><glyph d="M412 115Q392 115 385 130L139 661L143 32Q143 0 113 0H105Q75 0 75 32V718Q75 750 105 750H147Q167 750 175 733L420 198L665 733Q673 750 693 750H735Q765 750 765 718V32Q765 0 735 0H727Q697 0 697 32L701 661L455 130Q448 115 428 115Z" glyph-name="M" horiz-adv-x="840" unicode="M" /><glyph d="M529 139 527 718Q527 750 557 750H565Q595 750 595 718V32Q595 0 565 0H560Q550 0 545 3.5Q540 7 535 14L141 611L143 32Q143 0 113 0H105Q75 0 75 32V718Q75 750 105 750H110Q120 750 125 746.5Q130 743 135 736Z" glyph-name="N" horiz-adv-x="670" unicode="N" /><glyph d="M529 139 527 718Q527 750 557 750H565Q595 750 595 718V32Q595 0 565 0H560Q550 0 545 3.5Q540 7 535 14L141 611L143 32Q143 0 113 0H105Q75 0 75 32V718Q75 750 105 750H110Q120 750 125 746.5Q130 743 135 736ZM348 876Q360 900 384 900H403Q416 900 421.5 887.5Q427 875 417 864L375 817Q360 800 347 800H338Q327 800 322.5 808.5Q318 817 323 827Z" glyph-name="Nacute" horiz-adv-x="670" unicode="&#323;" /><glyph d="M529 139 527 718Q527 750 557 750H565Q595 750 595 718V32Q595 0 565 0H560Q550 0 545 3.5Q540 7 535 14L141 611L143 32Q143 0 113 0H105Q75 0 75 32V718Q75 750 105 750H110Q120 750 125 746.5Q130 743 135 736ZM209 875Q200 883 203.5 891.5Q207 900 215 900H220Q230 900 238.5 896.5Q247 893 257 888L335 844L413 888Q423 893 431.5 896.5Q440 900 450 900H455Q463 900 466.5 891.5Q470 883 461 875L401 822Q387 810 376.5 805Q366 800 354 800H316Q304 800 293.5 805Q283 810 269 822Z" glyph-name="Ncaron" horiz-adv-x="670" unicode="&#327;" /><glyph d="M529 139 527 718Q527 750 557 750H565Q595 750 595 718V32Q595 0 565 0H560Q550 0 545 3.5Q540 7 535 14L141 611L143 32Q143 0 113 0H105Q75 0 75 32V718Q75 750 105 750H110Q120 750 125 746.5Q130 743 135 736ZM298 -78Q301 -50 330 -50H346Q361 -50 368.5 -61Q376 -72 372 -86L332 -227Q325 -250 304 -250H301Q289 -250 283 -242.5Q277 -235 279 -226Z" glyph-name="Ncommaaccent" horiz-adv-x="670" unicode="&#325;" /><glyph d="M529 139 527 718Q527 750 557 750H565Q595 750 595 718V32Q595 0 565 0H560Q550 0 545 3.5Q540 7 535 14L141 611L143 32Q143 0 113 0H105Q75 0 75 32V718Q75 750 105 750H110Q120 750 125 746.5Q130 743 135 736ZM259 910Q290 910 310 900.5Q330 891 346 879.5Q362 868 376.5 858.5Q391 849 411 849Q435 849 444 858Q453 867 456 876Q464 900 486 900H488Q502 900 509 891Q516 882 514 868Q510 835 483 812.5Q456 790 411 790Q380 790 360 799.5Q340 809 324 820.5Q308 832 293 841.5Q278 851 259 851Q235 851 226 842Q217 833 214 824Q206 800 184 800H182Q168 800 161 809Q154 818 156 832Q160 865 187 887.5Q214 910 259 910Z" glyph-name="Ntilde" horiz-adv-x="670" unicode="&#209;" /><glyph d="M340 -10Q248 -10 193 22.5Q138 55 108.5 109Q79 163 69.5 232Q60 301 60 375Q60 448 69.5 517.5Q79 587 108.5 641Q138 695 193 727.5Q248 760 340 760Q432 760 487 727.5Q542 695 571.5 641Q601 587 610.5 517.5Q620 448 620 375Q620 301 610.5 232Q601 163 571.5 109Q542 55 487 22.5Q432 -10 340 -10ZM340 53Q408 53 449 78Q490 103 512 146.5Q534 190 541 248.5Q548 307 548 375Q548 442 541 501Q534 560 512 603.5Q490 647 449 672Q408 697 340 697Q272 697 231 672Q190 647 168 603.5Q146 560 139 501Q132 442 132 375Q132 307 139 248.5Q146 190 168 146.5Q190 103 231 78Q272 53 340 53Z" glyph-name="O" horiz-adv-x="680" unicode="O" /><glyph d="M437 687H372Q304 687 258.5 663.5Q213 640 184.5 598.5Q156 557 144 499.5Q132 442 132 375Q132 307 144 250Q156 193 184.5 151.5Q213 110 258.5 86.5Q304 63 372 63H437ZM505 359V63H800Q830 63 830 34V29Q830 0 800 0H376Q284 0 223 28.5Q162 57 126 107.5Q90 158 75 226.5Q60 295 60 375Q60 455 75 523.5Q90 592 126 642.5Q162 693 223 721.5Q284 750 376 750H800Q830 750 830 721V716Q830 687 800 687H505V422H765Q795 422 795 393V388Q795 359 765 359Z" glyph-name="OE" horiz-adv-x="890" unicode="&#338;" /><glyph d="M340 -10Q248 -10 193 22.5Q138 55 108.5 109Q79 163 69.5 232Q60 301 60 375Q60 448 69.5 517.5Q79 587 108.5 641Q138 695 193 727.5Q248 760 340 760Q432 760 487 727.5Q542 695 571.5 641Q601 587 610.5 517.5Q620 448 620 375Q620 301 610.5 232Q601 163 571.5 109Q542 55 487 22.5Q432 -10 340 -10ZM340 53Q408 53 449 78Q490 103 512 146.5Q534 190 541 248.5Q548 307 548 375Q548 442 541 501Q534 560 512 603.5Q490 647 449 672Q408 697 340 697Q272 697 231 672Q190 647 168 603.5Q146 560 139 501Q132 442 132 375Q132 307 139 248.5Q146 190 168 146.5Q190 103 231 78Q272 53 340 53ZM353 876Q365 900 389 900H408Q421 900 426.5 887.5Q432 875 422 864L380 817Q365 800 352 800H343Q332 800 327.5 808.5Q323 817 328 827Z" glyph-name="Oacute" horiz-adv-x="680" unicode="&#211;" /><glyph d="M340 -10Q248 -10 193 22.5Q138 55 108.5 109Q79 163 69.5 232Q60 301 60 375Q60 448 69.5 517.5Q79 587 108.5 641Q138 695 193 727.5Q248 760 340 760Q432 760 487 727.5Q542 695 571.5 641Q601 587 610.5 517.5Q620 448 620 375Q620 301 610.5 232Q601 163 571.5 109Q542 55 487 22.5Q432 -10 340 -10ZM340 53Q408 53 449 78Q490 103 512 146.5Q534 190 541 248.5Q548 307 548 375Q548 442 541 501Q534 560 512 603.5Q490 647 449 672Q408 697 340 697Q272 697 231 672Q190 647 168 603.5Q146 560 139 501Q132 442 132 375Q132 307 139 248.5Q146 190 168 146.5Q190 103 231 78Q272 53 340 53ZM340 790Q301 790 276 797Q251 804 235 815.5Q219 827 211.5 840.5Q204 854 200 867Q195 882 202.5 891Q210 900 221 900H224Q235 900 241 894.5Q247 889 252 877Q256 866 275 855.5Q294 845 340 845Q386 845 405 855.5Q424 866 428 877Q433 889 439 894.5Q445 900 456 900H459Q470 900 477.5 891Q485 882 480 867Q476 854 468.5 840.5Q461 827 445 815.5Q429 804 404 797Q379 790 340 790Z" glyph-name="Obreve" horiz-adv-x="680" unicode="&#334;" /><glyph d="M340 -10Q248 -10 193 22.5Q138 55 108.5 109Q79 163 69.5 232Q60 301 60 375Q60 448 69.5 517.5Q79 587 108.5 641Q138 695 193 727.5Q248 760 340 760Q432 760 487 727.5Q542 695 571.5 641Q601 587 610.5 517.5Q620 448 620 375Q620 301 610.5 232Q601 163 571.5 109Q542 55 487 22.5Q432 -10 340 -10ZM340 53Q408 53 449 78Q490 103 512 146.5Q534 190 541 248.5Q548 307 548 375Q548 442 541 501Q534 560 512 603.5Q490 647 449 672Q408 697 340 697Q272 697 231 672Q190 647 168 603.5Q146 560 139 501Q132 442 132 375Q132 307 139 248.5Q146 190 168 146.5Q190 103 231 78Q272 53 340 53ZM466 825Q475 817 471.5 808.5Q468 800 460 800H455Q445 800 436.5 803.5Q428 807 418 812L340 856L262 812Q252 807 243.5 803.5Q235 800 225 800H220Q212 800 208.5 808.5Q205 817 214 825L274 878Q288 890 298.5 895Q309 900 321 900H359Q371 900 381.5 895Q392 890 406 878Z" glyph-name="Ocircumflex" horiz-adv-x="680" unicode="&#212;" /><glyph d="M340 -10Q248 -10 193 22.5Q138 55 108.5 109Q79 163 69.5 232Q60 301 60 375Q60 448 69.5 517.5Q79 587 108.5 641Q138 695 193 727.5Q248 760 340 760Q432 760 487 727.5Q542 695 571.5 641Q601 587 610.5 517.5Q620 448 620 375Q620 301 610.5 232Q601 163 571.5 109Q542 55 487 22.5Q432 -10 340 -10ZM340 53Q408 53 449 78Q490 103 512 146.5Q534 190 541 248.5Q548 307 548 375Q548 442 541 501Q534 560 512 603.5Q490 647 449 672Q408 697 340 697Q272 697 231 672Q190 647 168 603.5Q146 560 139 501Q132 442 132 375Q132 307 139 248.5Q146 190 168 146.5Q190 103 231 78Q272 53 340 53ZM385 850Q385 871 399.5 885.5Q414 900 435 900Q456 900 470.5 885.5Q485 871 485 850Q485 829 470.5 814.5Q456 800 435 800Q414 800 399.5 814.5Q385 829 385 850ZM195 850Q195 871 209.5 885.5Q224 900 245 900Q266 900 280.5 885.5Q295 871 295 850Q295 829 280.5 814.5Q266 800 245 800Q224 800 209.5 814.5Q195 829 195 850Z" glyph-name="Odieresis" horiz-adv-x="680" unicode="&#214;" /><glyph d="M340 -10Q248 -10 193 22.5Q138 55 108.5 109Q79 163 69.5 232Q60 301 60 375Q60 448 69.5 517.5Q79 587 108.5 641Q138 695 193 727.5Q248 760 340 760Q432 760 487 727.5Q542 695 571.5 641Q601 587 610.5 517.5Q620 448 620 375Q620 301 610.5 232Q601 163 571.5 109Q542 55 487 22.5Q432 -10 340 -10ZM340 53Q408 53 449 78Q490 103 512 146.5Q534 190 541 248.5Q548 307 548 375Q548 442 541 501Q534 560 512 603.5Q490 647 449 672Q408 697 340 697Q272 697 231 672Q190 647 168 603.5Q146 560 139 501Q132 442 132 375Q132 307 139 248.5Q146 190 168 146.5Q190 103 231 78Q272 53 340 53ZM352 827Q357 817 352.5 808.5Q348 800 337 800H328Q315 800 300 817L258 864Q253 870 252 876Q251 882 253.5 887.5Q256 893 261 896.5Q266 900 272 900H291Q315 900 327 876Z" glyph-name="Ograve" horiz-adv-x="680" unicode="&#210;" /><glyph d="M340 -10Q248 -10 193 22.5Q138 55 108.5 109Q79 163 69.5 232Q60 301 60 375Q60 448 69.5 517.5Q79 587 108.5 641Q138 695 193 727.5Q248 760 340 760Q432 760 487 727.5Q542 695 571.5 641Q601 587 610.5 517.5Q620 448 620 375Q620 301 610.5 232Q601 163 571.5 109Q542 55 487 22.5Q432 -10 340 -10ZM340 53Q408 53 449 78Q490 103 512 146.5Q534 190 541 248.5Q548 307 548 375Q548 442 541 501Q534 560 512 603.5Q490 647 449 672Q408 697 340 697Q272 697 231 672Q190 647 168 603.5Q146 560 139 501Q132 442 132 375Q132 307 139 248.5Q146 190 168 146.5Q190 103 231 78Q272 53 340 53ZM413 876Q425 900 449 900H468Q481 900 486.5 887.5Q492 875 482 864L440 817Q425 800 412 800H403Q392 800 387.5 808.5Q383 817 388 827ZM293 876Q305 900 329 900H348Q361 900 366.5 887.5Q372 875 362 864L320 817Q305 800 292 800H283Q272 800 267.5 808.5Q263 817 268 827Z" glyph-name="Ohungarumlaut" horiz-adv-x="680" unicode="&#336;" /><glyph d="M340 -10Q248 -10 193 22.5Q138 55 108.5 109Q79 163 69.5 232Q60 301 60 375Q60 448 69.5 517.5Q79 587 108.5 641Q138 695 193 727.5Q248 760 340 760Q432 760 487 727.5Q542 695 571.5 641Q601 587 610.5 517.5Q620 448 620 375Q620 301 610.5 232Q601 163 571.5 109Q542 55 487 22.5Q432 -10 340 -10ZM340 53Q408 53 449 78Q490 103 512 146.5Q534 190 541 248.5Q548 307 548 375Q548 442 541 501Q534 560 512 603.5Q490 647 449 672Q408 697 340 697Q272 697 231 672Q190 647 168 603.5Q146 560 139 501Q132 442 132 375Q132 307 139 248.5Q146 190 168 146.5Q190 103 231 78Q272 53 340 53ZM448 880Q477 880 477 852V848Q477 820 448 820H232Q203 820 203 848V852Q203 880 232 880Z" glyph-name="Omacron" horiz-adv-x="680" unicode="&#332;" /><glyph d="M132 375Q132 307 138.5 249Q145 191 167 147L477 651Q454 673 420.5 685Q387 697 340 697Q272 697 231 672Q190 647 168 603.5Q146 560 139 501Q132 442 132 375ZM340 53Q408 53 449 78Q490 103 512 146.5Q534 190 541 248.5Q548 307 548 375Q548 442 541 500Q534 558 512 602L203 98Q226 76 259.5 64.5Q293 53 340 53ZM553 669Q574 642 587 608Q600 574 607.5 536Q615 498 617.5 457.5Q620 417 620 375Q620 301 610.5 232Q601 163 571.5 109Q542 55 487 22.5Q432 -10 340 -10Q282 -10 240 3Q198 16 167 39L153 17Q147 7 140 3.5Q133 0 121 0H113Q100 0 94.5 10Q89 20 98 34L126 80Q105 108 92.5 141.5Q80 175 72.5 213Q65 251 62.5 292Q60 333 60 375Q60 448 69.5 517.5Q79 587 108.5 641Q138 695 193 727.5Q248 760 340 760Q397 760 439.5 746.5Q482 733 513 710L527 733Q533 743 540 746.5Q547 750 559 750H567Q580 750 585.5 740Q591 730 582 716Z" glyph-name="Oslash" horiz-adv-x="660" unicode="&#216;" /><glyph d="M340 -10Q248 -10 193 22.5Q138 55 108.5 109Q79 163 69.5 232Q60 301 60 375Q60 448 69.5 517.5Q79 587 108.5 641Q138 695 193 727.5Q248 760 340 760Q432 760 487 727.5Q542 695 571.5 641Q601 587 610.5 517.5Q620 448 620 375Q620 301 610.5 232Q601 163 571.5 109Q542 55 487 22.5Q432 -10 340 -10ZM340 53Q408 53 449 78Q490 103 512 146.5Q534 190 541 248.5Q548 307 548 375Q548 442 541 501Q534 560 512 603.5Q490 647 449 672Q408 697 340 697Q272 697 231 672Q190 647 168 603.5Q146 560 139 501Q132 442 132 375Q132 307 139 248.5Q146 190 168 146.5Q190 103 231 78Q272 53 340 53ZM264 910Q295 910 315 900.5Q335 891 351 879.5Q367 868 381.5 858.5Q396 849 416 849Q440 849 449 858Q458 867 461 876Q469 900 491 900H493Q507 900 514 891Q521 882 519 868Q515 835 488 812.5Q461 790 416 790Q385 790 365 799.5Q345 809 329 820.5Q313 832 298 841.5Q283 851 264 851Q240 851 231 842Q222 833 219 824Q211 800 189 800H187Q173 800 166 809Q159 818 161 832Q165 865 192 887.5Q219 910 264 910Z" glyph-name="Otilde" horiz-adv-x="680" unicode="&#213;" /><glyph d="M143 363H313Q366 363 399 378Q432 393 450 417Q468 441 474.5 469.5Q481 498 481 525Q481 552 474.5 580.5Q468 609 450 633Q432 657 399 672Q366 687 313 687H143ZM143 32Q143 0 113 0H105Q75 0 75 32V718Q75 750 105 750H304Q374 750 422 731.5Q470 713 499.5 681.5Q529 650 542 609.5Q555 569 555 525Q555 481 542 440.5Q529 400 499.5 368.5Q470 337 422 318.5Q374 300 304 300H143Z" glyph-name="P" horiz-adv-x="590" unicode="P" /><glyph d="M340 53Q408 53 449 78Q490 103 512 146.5Q534 190 541 248.5Q548 307 548 375Q548 442 541 501Q534 560 512 603.5Q490 647 449 672Q408 697 340 697Q272 697 231 672Q190 647 168 603.5Q146 560 139 501Q132 442 132 375Q132 307 139 248.5Q146 190 168 146.5Q190 103 231 78Q272 53 340 53ZM681 -46Q710 -52 710 -78V-93Q710 -107 700 -113Q690 -119 676 -115L248 0Q186 16 149 52.5Q112 89 92.5 139Q73 189 66.5 249.5Q60 310 60 375Q60 455 70 525.5Q80 596 110 648Q140 700 195 730Q250 760 340 760Q431 760 486 730Q541 700 571 648Q601 596 610.5 525.5Q620 455 620 375Q620 305 614 243.5Q608 182 587.5 134Q567 86 528 53Q489 20 423 7V6Z" glyph-name="Q" horiz-adv-x="680" unicode="Q" /><glyph d="M143 391H328Q378 391 408 403Q438 415 454.5 435Q471 455 476 482Q481 509 481 539Q481 569 476 596Q471 623 454.5 643Q438 663 408 675Q378 687 328 687H143ZM577 36Q585 22 577 11Q569 0 556 0H548Q533 0 521.5 7Q510 14 501 31L349 329Q341 328 332.5 328Q324 328 316 328H143V32Q143 0 113 0H105Q75 0 75 32V718Q75 750 105 750H310Q380 750 427 735Q474 720 502.5 692.5Q531 665 543 626Q555 587 555 539Q555 464 524.5 412Q494 360 417 340Z" glyph-name="R" horiz-adv-x="621" unicode="R" /><glyph d="M143 391H328Q378 391 408 403Q438 415 454.5 435Q471 455 476 482Q481 509 481 539Q481 569 476 596Q471 623 454.5 643Q438 663 408 675Q378 687 328 687H143ZM577 36Q585 22 577 11Q569 0 556 0H548Q533 0 521.5 7Q510 14 501 31L349 329Q341 328 332.5 328Q324 328 316 328H143V32Q143 0 113 0H105Q75 0 75 32V718Q75 750 105 750H310Q380 750 427 735Q474 720 502.5 692.5Q531 665 543 626Q555 587 555 539Q555 464 524.5 412Q494 360 417 340ZM303 876Q315 900 339 900H358Q371 900 376.5 887.5Q382 875 372 864L330 817Q315 800 302 800H293Q282 800 277.5 808.5Q273 817 278 827Z" glyph-name="Racute" horiz-adv-x="621" unicode="&#340;" /><glyph d="M143 391H328Q378 391 408 403Q438 415 454.5 435Q471 455 476 482Q481 509 481 539Q481 569 476 596Q471 623 454.5 643Q438 663 408 675Q378 687 328 687H143ZM577 36Q585 22 577 11Q569 0 556 0H548Q533 0 521.5 7Q510 14 501 31L349 329Q341 328 332.5 328Q324 328 316 328H143V32Q143 0 113 0H105Q75 0 75 32V718Q75 750 105 750H310Q380 750 427 735Q474 720 502.5 692.5Q531 665 543 626Q555 587 555 539Q555 464 524.5 412Q494 360 417 340ZM164 875Q155 883 158.5 891.5Q162 900 170 900H175Q185 900 193.5 896.5Q202 893 212 888L290 844L368 888Q378 893 386.5 896.5Q395 900 405 900H410Q418 900 421.5 891.5Q425 883 416 875L356 822Q342 810 331.5 805Q321 800 309 800H271Q259 800 248.5 805Q238 810 224 822Z" glyph-name="Rcaron" horiz-adv-x="621" unicode="&#344;" /><glyph d="M143 391H328Q378 391 408 403Q438 415 454.5 435Q471 455 476 482Q481 509 481 539Q481 569 476 596Q471 623 454.5 643Q438 663 408 675Q378 687 328 687H143ZM577 36Q585 22 577 11Q569 0 556 0H548Q533 0 521.5 7Q510 14 501 31L349 329Q341 328 332.5 328Q324 328 316 328H143V32Q143 0 113 0H105Q75 0 75 32V718Q75 750 105 750H310Q380 750 427 735Q474 720 502.5 692.5Q531 665 543 626Q555 587 555 539Q555 464 524.5 412Q494 360 417 340ZM273 -78Q276 -50 305 -50H321Q336 -50 343.5 -61Q351 -72 347 -86L307 -227Q300 -250 279 -250H276Q264 -250 258 -242.5Q252 -235 254 -226Z" glyph-name="Rcommaaccent" horiz-adv-x="621" unicode="&#342;" /><glyph d="M265 53Q323 53 362.5 66Q402 79 425 101Q448 123 458 152.5Q468 182 468 216Q468 256 459 281.5Q450 307 430 322.5Q410 338 378 346Q346 354 299 360Q233 368 186 381Q139 394 110 415.5Q81 437 67.5 470Q54 503 54 551Q54 584 64 620.5Q74 657 101.5 688Q129 719 178 739.5Q227 760 306 760Q375 760 416.5 750.5Q458 741 474 736Q490 731 495.5 721.5Q501 712 501 702V688Q501 677 492 671Q483 665 466 672Q441 682 401 689.5Q361 697 305 697Q249 697 214 685Q179 673 158.5 653Q138 633 130.5 606.5Q123 580 123 550Q123 510 134.5 486.5Q146 463 168.5 449.5Q191 436 225 430Q259 424 303 418Q358 411 402 399Q446 387 477 365Q508 343 524.5 307Q541 271 541 216Q541 178 529 138Q517 98 486 65Q455 32 401.5 11Q348 -10 264 -10Q233 -10 203.5 -6.5Q174 -3 149.5 2Q125 7 107 12Q89 17 80 20Q65 25 59.5 35Q54 45 54 54V65Q54 75 61.5 82Q69 89 86 84Q112 75 157 64Q202 53 265 53Z" glyph-name="S" horiz-adv-x="595" unicode="S" /><glyph d="M265 53Q323 53 362.5 66Q402 79 425 101Q448 123 458 152.5Q468 182 468 216Q468 256 459 281.5Q450 307 430 322.5Q410 338 378 346Q346 354 299 360Q233 368 186 381Q139 394 110 415.5Q81 437 67.5 470Q54 503 54 551Q54 584 64 620.5Q74 657 101.5 688Q129 719 178 739.5Q227 760 306 760Q375 760 416.5 750.5Q458 741 474 736Q490 731 495.5 721.5Q501 712 501 702V688Q501 677 492 671Q483 665 466 672Q441 682 401 689.5Q361 697 305 697Q249 697 214 685Q179 673 158.5 653Q138 633 130.5 606.5Q123 580 123 550Q123 510 134.5 486.5Q146 463 168.5 449.5Q191 436 225 430Q259 424 303 418Q358 411 402 399Q446 387 477 365Q508 343 524.5 307Q541 271 541 216Q541 178 529 138Q517 98 486 65Q455 32 401.5 11Q348 -10 264 -10Q233 -10 203.5 -6.5Q174 -3 149.5 2Q125 7 107 12Q89 17 80 20Q65 25 59.5 35Q54 45 54 54V65Q54 75 61.5 82Q69 89 86 84Q112 75 157 64Q202 53 265 53ZM319 876Q331 900 355 900H374Q387 900 392.5 887.5Q398 875 388 864L346 817Q331 800 318 800H309Q298 800 293.5 808.5Q289 817 294 827Z" glyph-name="Sacute" horiz-adv-x="595" unicode="&#346;" /><glyph d="M265 53Q323 53 362.5 66Q402 79 425 101Q448 123 458 152.5Q468 182 468 216Q468 256 459 281.5Q450 307 430 322.5Q410 338 378 346Q346 354 299 360Q233 368 186 381Q139 394 110 415.5Q81 437 67.5 470Q54 503 54 551Q54 584 64 620.5Q74 657 101.5 688Q129 719 178 739.5Q227 760 306 760Q375 760 416.5 750.5Q458 741 474 736Q490 731 495.5 721.5Q501 712 501 702V688Q501 677 492 671Q483 665 466 672Q441 682 401 689.5Q361 697 305 697Q249 697 214 685Q179 673 158.5 653Q138 633 130.5 606.5Q123 580 123 550Q123 510 134.5 486.5Q146 463 168.5 449.5Q191 436 225 430Q259 424 303 418Q358 411 402 399Q446 387 477 365Q508 343 524.5 307Q541 271 541 216Q541 178 529 138Q517 98 486 65Q455 32 401.5 11Q348 -10 264 -10Q233 -10 203.5 -6.5Q174 -3 149.5 2Q125 7 107 12Q89 17 80 20Q65 25 59.5 35Q54 45 54 54V65Q54 75 61.5 82Q69 89 86 84Q112 75 157 64Q202 53 265 53ZM180 875Q171 883 174.5 891.5Q178 900 186 900H191Q201 900 209.5 896.5Q218 893 228 888L306 844L384 888Q394 893 402.5 896.5Q411 900 421 900H426Q434 900 437.5 891.5Q441 883 432 875L372 822Q358 810 347.5 805Q337 800 325 800H287Q275 800 264.5 805Q254 810 240 822Z" glyph-name="Scaron" horiz-adv-x="595" unicode="&#352;" /><glyph d="M265 53Q323 53 362.5 66Q402 79 425 101Q448 123 458 152.5Q468 182 468 216Q468 256 459 281.5Q450 307 430 322.5Q410 338 378 346Q346 354 299 360Q233 368 186 381Q139 394 110 415.5Q81 437 67.5 470Q54 503 54 551Q54 584 64 620.5Q74 657 101.5 688Q129 719 178 739.5Q227 760 306 760Q375 760 416.5 750.5Q458 741 474 736Q490 731 495.5 721.5Q501 712 501 702V688Q501 677 492 671Q483 665 466 672Q441 682 401 689.5Q361 697 305 697Q249 697 214 685Q179 673 158.5 653Q138 633 130.5 606.5Q123 580 123 550Q123 510 134.5 486.5Q146 463 168.5 449.5Q191 436 225 430Q259 424 303 418Q358 411 402 399Q446 387 477 365Q508 343 524.5 307Q541 271 541 216Q541 180 530.5 142Q520 104 492.5 72.5Q465 41 418.5 18.5Q372 -4 300 -8L305 -64Q320 -68 336.5 -75Q353 -82 367.5 -93Q382 -104 391 -121Q400 -138 400 -161Q400 -202 371 -226Q342 -250 289 -250Q270 -250 252 -248Q234 -246 217 -241Q203 -236 199 -229Q195 -222 195 -214V-209Q195 -201 201 -195.5Q207 -190 220 -193Q247 -199 272 -199Q303 -199 321 -190.5Q339 -182 339 -163Q339 -136 321 -122.5Q303 -109 275 -104Q250 -100 253 -73L259 -10Q229 -10 200.5 -6Q172 -2 148 2.5Q124 7 106.5 12Q89 17 80 20Q65 25 59.5 35Q54 45 54 54V65Q54 75 61.5 82Q69 89 86 84Q112 75 157 64Q202 53 265 53Z" glyph-name="Scedilla" horiz-adv-x="595" unicode="&#350;" /><glyph d="M265 53Q323 53 362.5 66Q402 79 425 101Q448 123 458 152.5Q468 182 468 216Q468 256 459 281.5Q450 307 430 322.5Q410 338 378 346Q346 354 299 360Q233 368 186 381Q139 394 110 415.5Q81 437 67.5 470Q54 503 54 551Q54 584 64 620.5Q74 657 101.5 688Q129 719 178 739.5Q227 760 306 760Q375 760 416.5 750.5Q458 741 474 736Q490 731 495.5 721.5Q501 712 501 702V688Q501 677 492 671Q483 665 466 672Q441 682 401 689.5Q361 697 305 697Q249 697 214 685Q179 673 158.5 653Q138 633 130.5 606.5Q123 580 123 550Q123 510 134.5 486.5Q146 463 168.5 449.5Q191 436 225 430Q259 424 303 418Q358 411 402 399Q446 387 477 365Q508 343 524.5 307Q541 271 541 216Q541 178 529 138Q517 98 486 65Q455 32 401.5 11Q348 -10 264 -10Q233 -10 203.5 -6.5Q174 -3 149.5 2Q125 7 107 12Q89 17 80 20Q65 25 59.5 35Q54 45 54 54V65Q54 75 61.5 82Q69 89 86 84Q112 75 157 64Q202 53 265 53ZM432 825Q441 817 437.5 808.5Q434 800 426 800H421Q411 800 402.5 803.5Q394 807 384 812L306 856L228 812Q218 807 209.5 803.5Q201 800 191 800H186Q178 800 174.5 808.5Q171 817 180 825L240 878Q254 890 264.5 895Q275 900 287 900H325Q337 900 347.5 895Q358 890 372 878Z" glyph-name="Scircumflex" horiz-adv-x="595" unicode="&#348;" /><glyph d="M265 53Q323 53 362.5 66Q402 79 425 101Q448 123 458 152.5Q468 182 468 216Q468 256 459 281.5Q450 307 430 322.5Q410 338 378 346Q346 354 299 360Q233 368 186 381Q139 394 110 415.5Q81 437 67.5 470Q54 503 54 551Q54 584 64 620.5Q74 657 101.5 688Q129 719 178 739.5Q227 760 306 760Q375 760 416.5 750.5Q458 741 474 736Q490 731 495.5 721.5Q501 712 501 702V688Q501 677 492 671Q483 665 466 672Q441 682 401 689.5Q361 697 305 697Q249 697 214 685Q179 673 158.5 653Q138 633 130.5 606.5Q123 580 123 550Q123 510 134.5 486.5Q146 463 168.5 449.5Q191 436 225 430Q259 424 303 418Q358 411 402 399Q446 387 477 365Q508 343 524.5 307Q541 271 541 216Q541 178 529 138Q517 98 486 65Q455 32 401.5 11Q348 -10 264 -10Q233 -10 203.5 -6.5Q174 -3 149.5 2Q125 7 107 12Q89 17 80 20Q65 25 59.5 35Q54 45 54 54V65Q54 75 61.5 82Q69 89 86 84Q112 75 157 64Q202 53 265 53ZM238 -78Q241 -50 270 -50H286Q301 -50 308.5 -61Q316 -72 312 -86L272 -227Q265 -250 244 -250H241Q229 -250 223 -242.5Q217 -235 219 -226Z" glyph-name="Scommaaccent" horiz-adv-x="595" unicode="&#536;" /><glyph d="M491 750Q521 750 521 721V716Q521 687 491 687H314V32Q314 0 284 0H276Q246 0 246 32V687H69Q39 687 39 716V721Q39 750 69 750Z" glyph-name="T" horiz-adv-x="560" unicode="T" /><glyph d="M491 750Q521 750 521 721V716Q521 687 491 687H314V421H412Q439 421 439 395V386Q439 360 412 360H314V32Q314 0 284 0H276Q246 0 246 32V360H148Q121 360 121 386V395Q121 421 148 421H246V687H69Q39 687 39 716V721Q39 750 69 750Z" glyph-name="Tbar" horiz-adv-x="560" unicode="&#358;" /><glyph d="M491 750Q521 750 521 721V716Q521 687 491 687H314V32Q314 0 284 0H276Q246 0 246 32V687H69Q39 687 39 716V721Q39 750 69 750ZM154 875Q145 883 148.5 891.5Q152 900 160 900H165Q175 900 183.5 896.5Q192 893 202 888L280 844L358 888Q368 893 376.5 896.5Q385 900 395 900H400Q408 900 411.5 891.5Q415 883 406 875L346 822Q332 810 321.5 805Q311 800 299 800H261Q249 800 238.5 805Q228 810 214 822Z" glyph-name="Tcaron" horiz-adv-x="560" unicode="&#356;" /><glyph d="M491 750Q521 750 521 721V716Q521 687 491 687H314V32Q314 0 284 0H276Q246 0 246 32V687H69Q39 687 39 716V721Q39 750 69 750ZM241 -78Q244 -50 273 -50H289Q304 -50 311.5 -61Q319 -72 315 -86L275 -227Q268 -250 247 -250H244Q232 -250 226 -242.5Q220 -235 222 -226Z" glyph-name="Tcommaaccent" horiz-adv-x="560" unicode="&#354;" /><glyph d="M143 213H313Q366 213 399 228Q432 243 450 267Q468 291 474.5 319.5Q481 348 481 375Q481 402 474.5 430.5Q468 459 450 483Q432 507 399 522Q366 537 313 537H143ZM143 600H304Q374 600 422 581.5Q470 563 499.5 531.5Q529 500 542 459.5Q555 419 555 375Q555 331 542 290.5Q529 250 499.5 218.5Q470 187 422 168.5Q374 150 304 150H143V32Q143 0 113 0H105Q75 0 75 32V718Q75 750 105 750H113Q143 750 143 718Z" glyph-name="Thorn" horiz-adv-x="570" unicode="&#222;" /><glyph d="M70 718Q70 750 100 750H108Q138 750 138 718V246Q138 178 159.5 139.5Q181 101 211.5 82Q242 63 276 58Q310 53 335 53Q360 53 394 58Q428 63 458.5 82Q489 101 510.5 139.5Q532 178 532 246V718Q532 750 562 750H570Q600 750 600 718V235Q600 182 586.5 143Q573 104 551 77Q529 50 501 33Q473 16 443.5 6.5Q414 -3 386 -6.5Q358 -10 335 -10Q301 -10 255.5 -1.5Q210 7 168.5 33Q127 59 98.5 107Q70 155 70 235Z" glyph-name="U" horiz-adv-x="670" unicode="U" /><glyph d="M70 718Q70 750 100 750H108Q138 750 138 718V246Q138 178 159.5 139.5Q181 101 211.5 82Q242 63 276 58Q310 53 335 53Q360 53 394 58Q428 63 458.5 82Q489 101 510.5 139.5Q532 178 532 246V718Q532 750 562 750H570Q600 750 600 718V235Q600 182 586.5 143Q573 104 551 77Q529 50 501 33Q473 16 443.5 6.5Q414 -3 386 -6.5Q358 -10 335 -10Q301 -10 255.5 -1.5Q210 7 168.5 33Q127 59 98.5 107Q70 155 70 235ZM348 876Q360 900 384 900H403Q416 900 421.5 887.5Q427 875 417 864L375 817Q360 800 347 800H338Q327 800 322.5 808.5Q318 817 323 827Z" glyph-name="Uacute" horiz-adv-x="670" unicode="&#218;" /><glyph d="M70 718Q70 750 100 750H108Q138 750 138 718V246Q138 178 159.5 139.5Q181 101 211.5 82Q242 63 276 58Q310 53 335 53Q360 53 394 58Q428 63 458.5 82Q489 101 510.5 139.5Q532 178 532 246V718Q532 750 562 750H570Q600 750 600 718V235Q600 182 586.5 143Q573 104 551 77Q529 50 501 33Q473 16 443.5 6.5Q414 -3 386 -6.5Q358 -10 335 -10Q301 -10 255.5 -1.5Q210 7 168.5 33Q127 59 98.5 107Q70 155 70 235ZM335 790Q296 790 271 797Q246 804 230 815.5Q214 827 206.5 840.5Q199 854 195 867Q190 882 197.5 891Q205 900 216 900H219Q230 900 236 894.5Q242 889 247 877Q251 866 270 855.5Q289 845 335 845Q381 845 400 855.5Q419 866 423 877Q428 889 434 894.5Q440 900 451 900H454Q465 900 472.5 891Q480 882 475 867Q471 854 463.5 840.5Q456 827 440 815.5Q424 804 399 797Q374 790 335 790Z" glyph-name="Ubreve" horiz-adv-x="670" unicode="&#364;" /><glyph d="M70 718Q70 750 100 750H108Q138 750 138 718V246Q138 178 159.5 139.5Q181 101 211.5 82Q242 63 276 58Q310 53 335 53Q360 53 394 58Q428 63 458.5 82Q489 101 510.5 139.5Q532 178 532 246V718Q532 750 562 750H570Q600 750 600 718V235Q600 182 586.5 143Q573 104 551 77Q529 50 501 33Q473 16 443.5 6.5Q414 -3 386 -6.5Q358 -10 335 -10Q301 -10 255.5 -1.5Q210 7 168.5 33Q127 59 98.5 107Q70 155 70 235ZM461 825Q470 817 466.5 808.5Q463 800 455 800H450Q440 800 431.5 803.5Q423 807 413 812L335 856L257 812Q247 807 238.5 803.5Q230 800 220 800H215Q207 800 203.5 808.5Q200 817 209 825L269 878Q283 890 293.5 895Q304 900 316 900H354Q366 900 376.5 895Q387 890 401 878Z" glyph-name="Ucircumflex" horiz-adv-x="670" unicode="&#219;" /><glyph d="M70 718Q70 750 100 750H108Q138 750 138 718V246Q138 178 159.5 139.5Q181 101 211.5 82Q242 63 276 58Q310 53 335 53Q360 53 394 58Q428 63 458.5 82Q489 101 510.5 139.5Q532 178 532 246V718Q532 750 562 750H570Q600 750 600 718V235Q600 182 586.5 143Q573 104 551 77Q529 50 501 33Q473 16 443.5 6.5Q414 -3 386 -6.5Q358 -10 335 -10Q301 -10 255.5 -1.5Q210 7 168.5 33Q127 59 98.5 107Q70 155 70 235ZM380 850Q380 871 394.5 885.5Q409 900 430 900Q451 900 465.5 885.5Q480 871 480 850Q480 829 465.5 814.5Q451 800 430 800Q409 800 394.5 814.5Q380 829 380 850ZM190 850Q190 871 204.5 885.5Q219 900 240 900Q261 900 275.5 885.5Q290 871 290 850Q290 829 275.5 814.5Q261 800 240 800Q219 800 204.5 814.5Q190 829 190 850Z" glyph-name="Udieresis" horiz-adv-x="670" unicode="&#220;" /><glyph d="M70 718Q70 750 100 750H108Q138 750 138 718V246Q138 178 159.5 139.5Q181 101 211.5 82Q242 63 276 58Q310 53 335 53Q360 53 394 58Q428 63 458.5 82Q489 101 510.5 139.5Q532 178 532 246V718Q532 750 562 750H570Q600 750 600 718V235Q600 182 586.5 143Q573 104 551 77Q529 50 501 33Q473 16 443.5 6.5Q414 -3 386 -6.5Q358 -10 335 -10Q301 -10 255.5 -1.5Q210 7 168.5 33Q127 59 98.5 107Q70 155 70 235ZM347 827Q352 817 347.5 808.5Q343 800 332 800H323Q310 800 295 817L253 864Q248 870 247 876Q246 882 248.5 887.5Q251 893 256 896.5Q261 900 267 900H286Q310 900 322 876Z" glyph-name="Ugrave" horiz-adv-x="670" unicode="&#217;" /><glyph d="M70 718Q70 750 100 750H108Q138 750 138 718V246Q138 178 159.5 139.5Q181 101 211.5 82Q242 63 276 58Q310 53 335 53Q360 53 394 58Q428 63 458.5 82Q489 101 510.5 139.5Q532 178 532 246V718Q532 750 562 750H570Q600 750 600 718V235Q600 182 586.5 143Q573 104 551 77Q529 50 501 33Q473 16 443.5 6.5Q414 -3 386 -6.5Q358 -10 335 -10Q301 -10 255.5 -1.5Q210 7 168.5 33Q127 59 98.5 107Q70 155 70 235ZM408 876Q420 900 444 900H463Q476 900 481.5 887.5Q487 875 477 864L435 817Q420 800 407 800H398Q387 800 382.5 808.5Q378 817 383 827ZM288 876Q300 900 324 900H343Q356 900 361.5 887.5Q367 875 357 864L315 817Q300 800 287 800H278Q267 800 262.5 808.5Q258 817 263 827Z" glyph-name="Uhungarumlaut" horiz-adv-x="670" unicode="&#368;" /><glyph d="M70 718Q70 750 100 750H108Q138 750 138 718V246Q138 178 159.5 139.5Q181 101 211.5 82Q242 63 276 58Q310 53 335 53Q360 53 394 58Q428 63 458.5 82Q489 101 510.5 139.5Q532 178 532 246V718Q532 750 562 750H570Q600 750 600 718V235Q600 182 586.5 143Q573 104 551 77Q529 50 501 33Q473 16 443.5 6.5Q414 -3 386 -6.5Q358 -10 335 -10Q301 -10 255.5 -1.5Q210 7 168.5 33Q127 59 98.5 107Q70 155 70 235ZM443 880Q472 880 472 852V848Q472 820 443 820H227Q198 820 198 848V852Q198 880 227 880Z" glyph-name="Umacron" horiz-adv-x="670" unicode="&#362;" /><glyph d="M70 718Q70 750 100 750H108Q138 750 138 718V246Q138 178 159.5 139.5Q181 101 211.5 82Q242 63 276 58Q310 53 335 53Q360 53 394 58Q428 63 458.5 82Q489 101 510.5 139.5Q532 178 532 246V718Q532 750 562 750H570Q600 750 600 718V235Q600 176 585.5 136.5Q571 97 547 70.5Q523 44 492.5 28.5Q462 13 431 3Q404 -6 382.5 -22Q361 -38 346 -58.5Q331 -79 323 -101Q315 -123 315 -142Q315 -168 327.5 -183.5Q340 -199 369 -199Q379 -199 388 -198Q397 -197 401 -196Q415 -193 420.5 -198.5Q426 -204 426 -212V-218Q426 -226 422 -234Q418 -242 404 -245Q394 -247 383 -248.5Q372 -250 355 -250Q305 -250 279.5 -223Q254 -196 254 -155Q254 -107 276 -71.5Q298 -36 329 -10Q295 -9 250 0Q205 9 165 35Q125 61 97.5 109Q70 157 70 235Z" glyph-name="Uogonek" horiz-adv-x="670" unicode="&#370;" /><glyph d="M70 718Q70 750 100 750H108Q138 750 138 718V246Q138 178 159.5 139.5Q181 101 211.5 82Q242 63 276 58Q310 53 335 53Q360 53 394 58Q428 63 458.5 82Q489 101 510.5 139.5Q532 178 532 246V718Q532 750 562 750H570Q600 750 600 718V235Q600 182 586.5 143Q573 104 551 77Q529 50 501 33Q473 16 443.5 6.5Q414 -3 386 -6.5Q358 -10 335 -10Q301 -10 255.5 -1.5Q210 7 168.5 33Q127 59 98.5 107Q70 155 70 235ZM335 828Q379 828 379 850Q379 872 335 872Q291 872 291 850Q291 828 335 828ZM335 921Q354 921 371 917.5Q388 914 401 906Q414 898 421.5 884.5Q429 871 429 850Q429 829 421.5 815.5Q414 802 401 794Q388 786 371 782.5Q354 779 335 779Q316 779 299 782.5Q282 786 269 794Q256 802 248.5 815.5Q241 829 241 850Q241 871 248.5 884.5Q256 898 269 906Q282 914 299 917.5Q316 921 335 921Z" glyph-name="Uring" horiz-adv-x="670" unicode="&#366;" /><glyph d="M70 718Q70 750 100 750H108Q138 750 138 718V246Q138 178 159.5 139.5Q181 101 211.5 82Q242 63 276 58Q310 53 335 53Q360 53 394 58Q428 63 458.5 82Q489 101 510.5 139.5Q532 178 532 246V718Q532 750 562 750H570Q600 750 600 718V235Q600 182 586.5 143Q573 104 551 77Q529 50 501 33Q473 16 443.5 6.5Q414 -3 386 -6.5Q358 -10 335 -10Q301 -10 255.5 -1.5Q210 7 168.5 33Q127 59 98.5 107Q70 155 70 235ZM259 910Q290 910 310 900.5Q330 891 346 879.5Q362 868 376.5 858.5Q391 849 411 849Q435 849 444 858Q453 867 456 876Q464 900 486 900H488Q502 900 509 891Q516 882 514 868Q510 835 483 812.5Q456 790 411 790Q380 790 360 799.5Q340 809 324 820.5Q308 832 293 841.5Q278 851 259 851Q235 851 226 842Q217 833 214 824Q206 800 184 800H182Q168 800 161 809Q154 818 156 832Q160 865 187 887.5Q214 910 259 910Z" glyph-name="Utilde" horiz-adv-x="670" unicode="&#360;" /><glyph d="M354 16Q349 2 343 -4Q337 -10 323 -10H317Q303 -10 297 -4Q291 2 286 16L31 718Q25 734 32.5 742Q40 750 51 750H71Q87 750 94.5 742Q102 734 106 723L320 104L534 723Q538 734 545.5 742Q553 750 569 750H589Q600 750 607.5 742Q615 734 609 718Z" glyph-name="V" horiz-adv-x="640" unicode="V" /><glyph d="M449 750Q479 750 486 719L654 96L782 721Q788 750 815 750H828Q841 750 848.5 741Q856 732 853 717L697 19Q693 2 683.5 -4Q674 -10 660 -10H648Q619 -10 611 19L440 660L269 19Q261 -10 232 -10H220Q206 -10 196.5 -4Q187 2 183 19L27 717Q24 732 31.5 741Q39 750 52 750H65Q92 750 98 721L226 96L394 719Q401 750 431 750Z" glyph-name="W" horiz-adv-x="880" unicode="W" /><glyph d="M566 825Q575 817 571.5 808.5Q568 800 560 800H555Q545 800 536.5 803.5Q528 807 518 812L440 856L362 812Q352 807 343.5 803.5Q335 800 325 800H320Q312 800 308.5 808.5Q305 817 314 825L374 878Q388 890 398.5 895Q409 900 421 900H459Q471 900 481.5 895Q492 890 506 878ZM449 750Q479 750 486 719L654 96L782 721Q788 750 815 750H828Q841 750 848.5 741Q856 732 853 717L697 19Q693 2 683.5 -4Q674 -10 660 -10H648Q619 -10 611 19L440 660L269 19Q261 -10 232 -10H220Q206 -10 196.5 -4Q187 2 183 19L27 717Q24 732 31.5 741Q39 750 52 750H65Q92 750 98 721L226 96L394 719Q401 750 431 750Z" glyph-name="Wcircumflex" horiz-adv-x="880" unicode="&#372;" /><glyph d="M97 21Q92 13 82 6.5Q72 0 58 0H36Q22 0 16.5 11.5Q11 23 19 36L255 380L25 713Q16 726 22.5 738Q29 750 43 750H60Q76 750 86 742Q96 734 102 724L300 424L498 724Q504 734 514 742Q524 750 540 750H557Q571 750 577.5 738Q584 726 575 713L345 380L581 36Q589 23 583.5 11.5Q578 0 564 0H542Q528 0 518 6.5Q508 13 503 21L300 334Z" glyph-name="X" horiz-adv-x="630" unicode="X" /><glyph d="M369 308V32Q369 0 339 0H331Q301 0 301 32V308L36 712Q28 725 33 737.5Q38 750 54 750H63Q78 750 87 743.5Q96 737 103 726L335 365L567 726Q574 737 583 743.5Q592 750 607 750H616Q632 750 637 737.5Q642 725 634 712Z" glyph-name="Y" horiz-adv-x="670" unicode="Y" /><glyph d="M369 308V32Q369 0 339 0H331Q301 0 301 32V308L36 712Q28 725 33 737.5Q38 750 54 750H63Q78 750 87 743.5Q96 737 103 726L335 365L567 726Q574 737 583 743.5Q592 750 607 750H616Q632 750 637 737.5Q642 725 634 712ZM348 876Q360 900 384 900H403Q416 900 421.5 887.5Q427 875 417 864L375 817Q360 800 347 800H338Q327 800 322.5 808.5Q318 817 323 827Z" glyph-name="Yacute" horiz-adv-x="670" unicode="&#221;" /><glyph d="M369 308V32Q369 0 339 0H331Q301 0 301 32V308L36 712Q28 725 33 737.5Q38 750 54 750H63Q78 750 87 743.5Q96 737 103 726L335 365L567 726Q574 737 583 743.5Q592 750 607 750H616Q632 750 637 737.5Q642 725 634 712ZM461 825Q470 817 466.5 808.5Q463 800 455 800H450Q440 800 431.5 803.5Q423 807 413 812L335 856L257 812Q247 807 238.5 803.5Q230 800 220 800H215Q207 800 203.5 808.5Q200 817 209 825L269 878Q283 890 293.5 895Q304 900 316 900H354Q366 900 376.5 895Q387 890 401 878Z" glyph-name="Ycircumflex" horiz-adv-x="670" unicode="&#374;" /><glyph d="M369 308V32Q369 0 339 0H331Q301 0 301 32V308L36 712Q28 725 33 737.5Q38 750 54 750H63Q78 750 87 743.5Q96 737 103 726L335 365L567 726Q574 737 583 743.5Q592 750 607 750H616Q632 750 637 737.5Q642 725 634 712ZM380 850Q380 871 394.5 885.5Q409 900 430 900Q451 900 465.5 885.5Q480 871 480 850Q480 829 465.5 814.5Q451 800 430 800Q409 800 394.5 814.5Q380 829 380 850ZM190 850Q190 871 204.5 885.5Q219 900 240 900Q261 900 275.5 885.5Q290 871 290 850Q290 829 275.5 814.5Q261 800 240 800Q219 800 204.5 814.5Q190 829 190 850Z" glyph-name="Ydieresis" horiz-adv-x="670" unicode="&#376;" /><glyph d="M525 750Q555 750 555 721V718Q555 708 551.5 700Q548 692 534 672L128 61L540 63Q570 63 570 34V29Q570 0 540 0H70Q40 0 40 29V32Q40 42 43.5 50Q47 58 61 78L467 689L90 687Q60 687 60 716V721Q60 750 90 750Z" glyph-name="Z" horiz-adv-x="610" unicode="Z" /><glyph d="M525 750Q555 750 555 721V718Q555 708 551.5 700Q548 692 534 672L128 61L540 63Q570 63 570 34V29Q570 0 540 0H70Q40 0 40 29V32Q40 42 43.5 50Q47 58 61 78L467 689L90 687Q60 687 60 716V721Q60 750 90 750ZM318 876Q330 900 354 900H373Q386 900 391.5 887.5Q397 875 387 864L345 817Q330 800 317 800H308Q297 800 292.5 808.5Q288 817 293 827Z" glyph-name="Zacute" horiz-adv-x="610" unicode="&#377;" /><glyph d="M525 750Q555 750 555 721V718Q555 708 551.5 700Q548 692 534 672L128 61L540 63Q570 63 570 34V29Q570 0 540 0H70Q40 0 40 29V32Q40 42 43.5 50Q47 58 61 78L467 689L90 687Q60 687 60 716V721Q60 750 90 750ZM179 875Q170 883 173.5 891.5Q177 900 185 900H190Q200 900 208.5 896.5Q217 893 227 888L305 844L383 888Q393 893 401.5 896.5Q410 900 420 900H425Q433 900 436.5 891.5Q440 883 431 875L371 822Q357 810 346.5 805Q336 800 324 800H286Q274 800 263.5 805Q253 810 239 822Z" glyph-name="Zcaron" horiz-adv-x="610" unicode="&#381;" /><glyph d="M525 750Q555 750 555 721V718Q555 708 551.5 700Q548 692 534 672L128 61L540 63Q570 63 570 34V29Q570 0 540 0H70Q40 0 40 29V32Q40 42 43.5 50Q47 58 61 78L467 689L90 687Q60 687 60 716V721Q60 750 90 750ZM255 850Q255 871 269.5 885.5Q284 900 305 900Q326 900 340.5 885.5Q355 871 355 850Q355 829 340.5 814.5Q326 800 305 800Q284 800 269.5 814.5Q255 829 255 850Z" glyph-name="Zdotaccent" horiz-adv-x="610" unicode="&#379;" /><glyph d="M241 448Q196 448 166.5 442Q137 436 122 431Q103 426 94 433Q85 440 85 450V462Q85 470 89 477.5Q93 485 107 490Q127 498 163 504Q199 510 241 510Q297 510 333.5 498Q370 486 391.5 463.5Q413 441 421.5 410Q430 379 430 342V23Q430 0 409 0H407Q396 0 391.5 5.5Q387 11 382 24L376 40Q342 15 302.5 2.5Q263 -10 225 -10Q176 -10 142.5 3.5Q109 17 88.5 39Q68 61 59 90Q50 119 50 151Q50 183 59.5 210Q69 237 90 257.5Q111 278 145 291Q179 304 228 307L360 315V343Q360 370 354.5 390Q349 410 335.5 423Q322 436 299 442Q276 448 241 448ZM223 253Q169 248 145 221.5Q121 195 121 151Q121 134 124 116.5Q127 99 138 84.5Q149 70 170 61Q191 52 227 52Q268 52 298 62.5Q328 73 360 92V266Z" glyph-name="a" horiz-adv-x="495" unicode="a" /><glyph d="M125 250Q125 213 129 177.5Q133 142 147.5 114Q162 86 188.5 69Q215 52 260 52Q309 52 340 60Q371 68 400 84V416Q371 432 340 440Q309 448 260 448Q215 448 188.5 431Q162 414 147.5 386Q133 358 129 322.5Q125 287 125 250ZM55 250Q55 304 64.5 351.5Q74 399 97 434Q120 469 160 489.5Q200 510 260 510Q301 510 339 497Q377 484 416 459L422 475Q427 488 431.5 494Q436 500 447 500H449Q470 500 470 477V23Q470 0 449 0H447Q436 0 431.5 6Q427 12 422 25L416 41Q377 16 339 3Q301 -10 260 -10Q200 -10 160 10.5Q120 31 97 66Q74 101 64.5 148.5Q55 196 55 250Z" glyph-name="a.school" horiz-adv-x="536" unicode="&#57681;" /><glyph d="M163 172H366L265 427ZM271 510Q291 510 303 483L495 36Q501 22 494.5 11Q488 0 473 0H461Q435 0 425 26L387 120H142L105 26Q95 0 69 0H57Q42 0 35.5 11Q29 22 35 36L227 483Q239 510 259 510Z" glyph-name="a.smcp" horiz-adv-x="530" unicode="&#57857;" /><glyph d="M120 455Q101 453 91 445Q81 437 81 417Q81 403 88.5 391.5Q96 380 119 380Q136 380 148.5 384Q161 388 173 396V461ZM229 356Q229 340 213 340H207Q199 340 196 343Q193 346 189 354L187 360Q172 347 152 340.5Q132 334 111 334Q63 334 44 359Q25 384 25 414Q25 455 49.5 473.5Q74 492 117 495L173 500V512Q173 532 162.5 540Q152 548 124 548Q103 548 87 544Q71 540 64 538Q56 535 51 539Q46 543 46 549V568Q46 582 60 586Q70 589 89 592.5Q108 596 128 596Q159 596 178.5 589.5Q198 583 209 571.5Q220 560 224.5 543.5Q229 527 229 507Z" glyph-name="a.superior" horiz-adv-x="269" unicode="&#58209;" /><glyph d="M30 465Q30 527 52.5 561.5Q75 596 130 596Q156 596 175 589Q194 582 211 570L214 575Q217 583 220.5 586.5Q224 590 232 590H237Q253 590 253 573V356Q253 340 237 340H232Q224 340 220.5 343Q217 346 214 354L211 360Q194 348 175 341Q156 334 130 334Q75 334 52.5 368.5Q30 403 30 465ZM143 381Q163 381 176 386Q189 391 197 396V534Q189 538 176 543Q163 548 143 548Q125 548 114 541.5Q103 535 97 523.5Q91 512 89 497Q87 482 87 465Q87 448 89 432.5Q91 417 97 405.5Q103 394 114 387.5Q125 381 143 381Z" glyph-name="a.superiorschool" horiz-adv-x="293" /><glyph d="M241 448Q196 448 166.5 442Q137 436 122 431Q103 426 94 433Q85 440 85 450V462Q85 470 89 477.5Q93 485 107 490Q127 498 163 504Q199 510 241 510Q297 510 333.5 498Q370 486 391.5 463.5Q413 441 421.5 410Q430 379 430 342V23Q430 0 409 0H407Q396 0 391.5 5.5Q387 11 382 24L376 40Q342 15 302.5 2.5Q263 -10 225 -10Q176 -10 142.5 3.5Q109 17 88.5 39Q68 61 59 90Q50 119 50 151Q50 183 59.5 210Q69 237 90 257.5Q111 278 145 291Q179 304 228 307L360 315V343Q360 370 354.5 390Q349 410 335.5 423Q322 436 299 442Q276 448 241 448ZM223 253Q169 248 145 221.5Q121 195 121 151Q121 134 124 116.5Q127 99 138 84.5Q149 70 170 61Q191 52 227 52Q268 52 298 62.5Q328 73 360 92V266ZM259 723Q265 750 294 750H309Q324 750 330 739Q336 728 331 714L275 573Q266 550 245 550H242Q230 550 225 557.5Q220 565 222 574Z" glyph-name="aacute" horiz-adv-x="495" unicode="&#225;" /><glyph d="M125 250Q125 213 129 177.5Q133 142 147.5 114Q162 86 188.5 69Q215 52 260 52Q309 52 340 60Q371 68 400 84V416Q371 432 340 440Q309 448 260 448Q215 448 188.5 431Q162 414 147.5 386Q133 358 129 322.5Q125 287 125 250ZM55 250Q55 304 64.5 351.5Q74 399 97 434Q120 469 160 489.5Q200 510 260 510Q301 510 339 497Q377 484 416 459L422 475Q427 488 431.5 494Q436 500 447 500H449Q470 500 470 477V23Q470 0 449 0H447Q436 0 431.5 6Q427 12 422 25L416 41Q377 16 339 3Q301 -10 260 -10Q200 -10 160 10.5Q120 31 97 66Q74 101 64.5 148.5Q55 196 55 250ZM283 723Q289 750 318 750H333Q348 750 354 739Q360 728 355 714L299 573Q290 550 269 550H266Q254 550 249 557.5Q244 565 246 574Z" glyph-name="aacute.school" horiz-adv-x="535" unicode="&#57683;" /><glyph d="M163 172H366L265 427ZM271 510Q291 510 303 483L495 36Q501 22 494.5 11Q488 0 473 0H461Q435 0 425 26L387 120H142L105 26Q95 0 69 0H57Q42 0 35.5 11Q29 22 35 36L227 483Q239 510 259 510ZM283 723Q289 750 318 750H333Q348 750 354 739Q360 728 355 714L299 573Q290 550 269 550H266Q254 550 249 557.5Q244 565 246 574Z" glyph-name="aacute.smcp" horiz-adv-x="530" unicode="&#57889;" /><glyph d="M241 448Q196 448 166.5 442Q137 436 122 431Q103 426 94 433Q85 440 85 450V462Q85 470 89 477.5Q93 485 107 490Q127 498 163 504Q199 510 241 510Q297 510 333.5 498Q370 486 391.5 463.5Q413 441 421.5 410Q430 379 430 342V23Q430 0 409 0H407Q396 0 391.5 5.5Q387 11 382 24L376 40Q342 15 302.5 2.5Q263 -10 225 -10Q176 -10 142.5 3.5Q109 17 88.5 39Q68 61 59 90Q50 119 50 151Q50 183 59.5 210Q69 237 90 257.5Q111 278 145 291Q179 304 228 307L360 315V343Q360 370 354.5 390Q349 410 335.5 423Q322 436 299 442Q276 448 241 448ZM223 253Q169 248 145 221.5Q121 195 121 151Q121 134 124 116.5Q127 99 138 84.5Q149 70 170 61Q191 52 227 52Q268 52 298 62.5Q328 73 360 92V266ZM241 550Q192 550 159 565.5Q126 581 105.5 606Q85 631 76 662Q67 693 67 724Q67 750 91 750H94Q116 750 118 726Q122 671 148 640.5Q174 610 241 610Q308 610 334 640.5Q360 671 364 726Q366 750 388 750H391Q415 750 415 724Q415 693 406 662Q397 631 376.5 606Q356 581 323 565.5Q290 550 241 550Z" glyph-name="abreve" horiz-adv-x="495" unicode="&#259;" /><glyph d="M125 250Q125 213 129 177.5Q133 142 147.5 114Q162 86 188.5 69Q215 52 260 52Q309 52 340 60Q371 68 400 84V416Q371 432 340 440Q309 448 260 448Q215 448 188.5 431Q162 414 147.5 386Q133 358 129 322.5Q125 287 125 250ZM55 250Q55 304 64.5 351.5Q74 399 97 434Q120 469 160 489.5Q200 510 260 510Q301 510 339 497Q377 484 416 459L422 475Q427 488 431.5 494Q436 500 447 500H449Q470 500 470 477V23Q470 0 449 0H447Q436 0 431.5 6Q427 12 422 25L416 41Q377 16 339 3Q301 -10 260 -10Q200 -10 160 10.5Q120 31 97 66Q74 101 64.5 148.5Q55 196 55 250ZM265 550Q216 550 183 565.5Q150 581 129.5 606Q109 631 100 662Q91 693 91 724Q91 750 115 750H118Q140 750 142 726Q146 671 172 640.5Q198 610 265 610Q332 610 358 640.5Q384 671 388 726Q390 750 412 750H415Q439 750 439 724Q439 693 430 662Q421 631 400.5 606Q380 581 347 565.5Q314 550 265 550Z" glyph-name="abreve.school" horiz-adv-x="535" unicode="&#57690;" /><glyph d="M163 172H366L265 427ZM271 510Q291 510 303 483L495 36Q501 22 494.5 11Q488 0 473 0H461Q435 0 425 26L387 120H142L105 26Q95 0 69 0H57Q42 0 35.5 11Q29 22 35 36L227 483Q239 510 259 510ZM265 550Q216 550 183 565.5Q150 581 129.5 606Q109 631 100 662Q91 693 91 724Q91 750 115 750H118Q140 750 142 726Q146 671 172 640.5Q198 610 265 610Q332 610 358 640.5Q384 671 388 726Q390 750 412 750H415Q439 750 439 724Q439 693 430 662Q421 631 400.5 606Q380 581 347 565.5Q314 550 265 550Z" glyph-name="abreve.smcp" horiz-adv-x="530" unicode="&#57897;" /><glyph d="M241 448Q196 448 166.5 442Q137 436 122 431Q103 426 94 433Q85 440 85 450V462Q85 470 89 477.5Q93 485 107 490Q127 498 163 504Q199 510 241 510Q297 510 333.5 498Q370 486 391.5 463.5Q413 441 421.5 410Q430 379 430 342V23Q430 0 409 0H407Q396 0 391.5 5.5Q387 11 382 24L376 40Q342 15 302.5 2.5Q263 -10 225 -10Q176 -10 142.5 3.5Q109 17 88.5 39Q68 61 59 90Q50 119 50 151Q50 183 59.5 210Q69 237 90 257.5Q111 278 145 291Q179 304 228 307L360 315V343Q360 370 354.5 390Q349 410 335.5 423Q322 436 299 442Q276 448 241 448ZM223 253Q169 248 145 221.5Q121 195 121 151Q121 134 124 116.5Q127 99 138 84.5Q149 70 170 61Q191 52 227 52Q268 52 298 62.5Q328 73 360 92V266ZM408 576Q415 567 411 558.5Q407 550 397 550H391Q379 550 371.5 553.5Q364 557 355 567L241 691L127 567Q118 557 110.5 553.5Q103 550 91 550H85Q75 550 71 558.5Q67 567 74 576L188 731Q196 743 203.5 746.5Q211 750 223 750H259Q271 750 278.5 746.5Q286 743 294 731Z" glyph-name="acircumflex" horiz-adv-x="495" unicode="&#226;" /><glyph d="M125 250Q125 213 129 177.5Q133 142 147.5 114Q162 86 188.5 69Q215 52 260 52Q309 52 340 60Q371 68 400 84V416Q371 432 340 440Q309 448 260 448Q215 448 188.5 431Q162 414 147.5 386Q133 358 129 322.5Q125 287 125 250ZM55 250Q55 304 64.5 351.5Q74 399 97 434Q120 469 160 489.5Q200 510 260 510Q301 510 339 497Q377 484 416 459L422 475Q427 488 431.5 494Q436 500 447 500H449Q470 500 470 477V23Q470 0 449 0H447Q436 0 431.5 6Q427 12 422 25L416 41Q377 16 339 3Q301 -10 260 -10Q200 -10 160 10.5Q120 31 97 66Q74 101 64.5 148.5Q55 196 55 250ZM432 576Q439 567 435 558.5Q431 550 421 550H415Q403 550 395.5 553.5Q388 557 379 567L265 691L151 567Q142 557 134.5 553.5Q127 550 115 550H109Q99 550 95 558.5Q91 567 98 576L212 731Q220 743 227.5 746.5Q235 750 247 750H283Q295 750 302.5 746.5Q310 743 318 731Z" glyph-name="acircumflex.school" horiz-adv-x="535" unicode="&#57684;" /><glyph d="M163 172H366L265 427ZM271 510Q291 510 303 483L495 36Q501 22 494.5 11Q488 0 473 0H461Q435 0 425 26L387 120H142L105 26Q95 0 69 0H57Q42 0 35.5 11Q29 22 35 36L227 483Q239 510 259 510ZM432 576Q439 567 435 558.5Q431 550 421 550H415Q403 550 395.5 553.5Q388 557 379 567L265 691L151 567Q142 557 134.5 553.5Q127 550 115 550H109Q99 550 95 558.5Q91 567 98 576L212 731Q220 743 227.5 746.5Q235 750 247 750H283Q295 750 302.5 746.5Q310 743 318 731Z" glyph-name="acircumflex.smcp" horiz-adv-x="530" unicode="&#57891;" /><glyph d="M303 723Q309 750 338 750H353Q368 750 374 739Q380 728 375 714L319 573Q310 550 289 550H286Q274 550 269 557.5Q264 565 266 574Z" glyph-name="acute" horiz-adv-x="570" unicode="&#180;" /><glyph d="M298 876Q310 900 334 900H353Q366 900 371.5 887.5Q377 875 367 864L325 817Q310 800 297 800H288Q277 800 272.5 808.5Q268 817 273 827Z" glyph-name="acute.cap" horiz-adv-x="570" unicode="&#58402;" /><glyph d="M241 448Q196 448 166.5 442Q137 436 122 431Q103 426 94 433Q85 440 85 450V462Q85 470 89 477.5Q93 485 107 490Q127 498 163 504Q199 510 241 510Q297 510 333.5 498Q370 486 391.5 463.5Q413 441 421.5 410Q430 379 430 342V23Q430 0 409 0H407Q396 0 391.5 5.5Q387 11 382 24L376 40Q342 15 302.5 2.5Q263 -10 225 -10Q176 -10 142.5 3.5Q109 17 88.5 39Q68 61 59 90Q50 119 50 151Q50 183 59.5 210Q69 237 90 257.5Q111 278 145 291Q179 304 228 307L360 315V343Q360 370 354.5 390Q349 410 335.5 423Q322 436 299 442Q276 448 241 448ZM223 253Q169 248 145 221.5Q121 195 121 151Q121 134 124 116.5Q127 99 138 84.5Q149 70 170 61Q191 52 227 52Q268 52 298 62.5Q328 73 360 92V266ZM286 650Q286 671 300.5 685.5Q315 700 336 700Q357 700 371.5 685.5Q386 671 386 650Q386 629 371.5 614.5Q357 600 336 600Q315 600 300.5 614.5Q286 629 286 650ZM96 650Q96 671 110.5 685.5Q125 700 146 700Q167 700 181.5 685.5Q196 671 196 650Q196 629 181.5 614.5Q167 600 146 600Q125 600 110.5 614.5Q96 629 96 650Z" glyph-name="adieresis" horiz-adv-x="495" unicode="&#228;" /><glyph d="M125 250Q125 213 129 177.5Q133 142 147.5 114Q162 86 188.5 69Q215 52 260 52Q309 52 340 60Q371 68 400 84V416Q371 432 340 440Q309 448 260 448Q215 448 188.5 431Q162 414 147.5 386Q133 358 129 322.5Q125 287 125 250ZM55 250Q55 304 64.5 351.5Q74 399 97 434Q120 469 160 489.5Q200 510 260 510Q301 510 339 497Q377 484 416 459L422 475Q427 488 431.5 494Q436 500 447 500H449Q470 500 470 477V23Q470 0 449 0H447Q436 0 431.5 6Q427 12 422 25L416 41Q377 16 339 3Q301 -10 260 -10Q200 -10 160 10.5Q120 31 97 66Q74 101 64.5 148.5Q55 196 55 250ZM310 650Q310 671 324.5 685.5Q339 700 360 700Q381 700 395.5 685.5Q410 671 410 650Q410 629 395.5 614.5Q381 600 360 600Q339 600 324.5 614.5Q310 629 310 650ZM120 650Q120 671 134.5 685.5Q149 700 170 700Q191 700 205.5 685.5Q220 671 220 650Q220 629 205.5 614.5Q191 600 170 600Q149 600 134.5 614.5Q120 629 120 650Z" glyph-name="adieresis.school" horiz-adv-x="535" unicode="&#57685;" /><glyph d="M163 172H366L265 427ZM271 510Q291 510 303 483L495 36Q501 22 494.5 11Q488 0 473 0H461Q435 0 425 26L387 120H142L105 26Q95 0 69 0H57Q42 0 35.5 11Q29 22 35 36L227 483Q239 510 259 510ZM310 650Q310 671 324.5 685.5Q339 700 360 700Q381 700 395.5 685.5Q410 671 410 650Q410 629 395.5 614.5Q381 600 360 600Q339 600 324.5 614.5Q310 629 310 650ZM120 650Q120 671 134.5 685.5Q149 700 170 700Q191 700 205.5 685.5Q220 671 220 650Q220 629 205.5 614.5Q191 600 170 600Q149 600 134.5 614.5Q120 629 120 650Z" glyph-name="adieresis.smcp" horiz-adv-x="530" unicode="&#57892;" /><glyph d="M249 510Q321 510 363.5 491.5Q406 473 426 441Q450 473 489.5 491.5Q529 510 590 510Q654 510 691.5 489.5Q729 469 748.5 434.5Q768 400 774 354Q780 308 780 256Q780 224 750 224H450V218Q451 185 457.5 155Q464 125 479.5 102Q495 79 521.5 65.5Q548 52 590 52Q647 52 677.5 58.5Q708 65 728 72Q744 77 751.5 71.5Q759 66 759 56V40Q759 32 755 25Q751 18 737 13Q713 4 676 -3Q639 -10 590 -10Q530 -10 490.5 8Q451 26 427 58L396 34Q362 9 319.5 -0.5Q277 -10 239 -10Q188 -10 152.5 1.5Q117 13 94 33.5Q71 54 60.5 81.5Q50 109 50 141Q50 170 58 195.5Q66 221 86.5 240Q107 259 142.5 270Q178 281 234 281H380V343Q380 398 350.5 423Q321 448 249 448Q198 448 167.5 442Q137 436 122 431Q103 426 94 433Q85 440 85 450V462Q85 470 89 477.5Q93 485 107 490Q127 498 165 504Q203 510 249 510ZM590 448Q547 448 520.5 434Q494 420 479 397Q464 374 457.5 344Q451 314 450 281H710Q710 313 707 343Q704 373 692 396.5Q680 420 656 434Q632 448 590 448ZM229 224Q197 224 176 218Q155 212 143 201Q131 190 126 174.5Q121 159 121 141Q121 124 126 108Q131 92 144.5 79.5Q158 67 181 59.5Q204 52 241 52Q283 52 321 64.5Q359 77 382 97L399 112Q383 160 380 223V224Z" glyph-name="ae" horiz-adv-x="835" unicode="&#230;" /><glyph d="M175 172H356L308 424ZM147 120 98 26Q84 0 59 0H47Q33 0 27.5 11Q22 22 30 36L272 472Q279 484 287.5 492Q296 500 313 500H674Q704 500 704 471V468Q704 439 674 439H368L399 287H639Q669 287 669 258V255Q669 226 639 226H412L446 61H674Q704 61 704 32V29Q704 0 674 0H418Q389 0 383 31L366 120Z" glyph-name="ae.smcp" horiz-adv-x="764" unicode="&#57905;" /><glyph d="M195 45Q209 45 216 46Q223 47 229 48Q239 50 246.5 43.5Q254 37 254 26V23Q254 0 229 -6Q222 -8 213 -9Q204 -10 195 -10Q166 -10 140.5 -3.5Q115 3 96 18.5Q77 34 65.5 59Q54 84 54 121V211L47 206Q34 197 22 203Q10 209 10 222V236Q10 254 28 266Q34 271 39.5 274Q45 277 54 285V519Q54 589 64.5 635.5Q75 682 93.5 710Q112 738 136.5 749Q161 760 190 760Q244 760 266.5 725.5Q289 691 289 629Q289 569 274 516Q259 463 235.5 418Q212 373 182.5 336Q153 299 124 271V123Q124 77 141 61Q158 45 195 45ZM124 353Q145 377 164.5 406.5Q184 436 199.5 472Q215 508 224.5 549.5Q234 591 234 639Q234 674 225 689.5Q216 705 190 705Q161 705 142.5 660.5Q124 616 124 517Z" glyph-name="afii61289" horiz-adv-x="310" unicode="&#8467;" /><glyph d="M529 139 527 718Q527 750 557 750H565Q595 750 595 718V32Q595 0 565 0H560Q550 0 545 3.5Q540 7 535 14L141 611L143 32Q143 0 113 0H105Q75 0 75 32V718Q75 750 105 750H110Q120 750 125 746.5Q130 743 135 736ZM759 565Q759 491 784 460.5Q809 430 866 430Q925 430 953 461Q981 492 981 565Q981 638 953 669Q925 700 866 700Q809 700 784 669.5Q759 639 759 565ZM695 565Q695 662 735 711Q775 760 866 760Q957 760 1000.5 711Q1044 662 1044 565Q1044 468 1000.5 419Q957 370 866 370Q775 370 735 419Q695 468 695 565Z" glyph-name="afii61352" horiz-adv-x="1089" unicode="&#8470;" /><glyph d="M241 448Q196 448 166.5 442Q137 436 122 431Q103 426 94 433Q85 440 85 450V462Q85 470 89 477.5Q93 485 107 490Q127 498 163 504Q199 510 241 510Q297 510 333.5 498Q370 486 391.5 463.5Q413 441 421.5 410Q430 379 430 342V23Q430 0 409 0H407Q396 0 391.5 5.5Q387 11 382 24L376 40Q342 15 302.5 2.5Q263 -10 225 -10Q176 -10 142.5 3.5Q109 17 88.5 39Q68 61 59 90Q50 119 50 151Q50 183 59.5 210Q69 237 90 257.5Q111 278 145 291Q179 304 228 307L360 315V343Q360 370 354.5 390Q349 410 335.5 423Q322 436 299 442Q276 448 241 448ZM223 253Q169 248 145 221.5Q121 195 121 151Q121 134 124 116.5Q127 99 138 84.5Q149 70 170 61Q191 52 227 52Q268 52 298 62.5Q328 73 360 92V266ZM260 574Q262 565 257 557.5Q252 550 240 550H237Q216 550 207 573L151 714Q146 728 152 739Q158 750 173 750H188Q217 750 223 723Z" glyph-name="agrave" horiz-adv-x="495" unicode="&#224;" /><glyph d="M125 250Q125 213 129 177.5Q133 142 147.5 114Q162 86 188.5 69Q215 52 260 52Q309 52 340 60Q371 68 400 84V416Q371 432 340 440Q309 448 260 448Q215 448 188.5 431Q162 414 147.5 386Q133 358 129 322.5Q125 287 125 250ZM55 250Q55 304 64.5 351.5Q74 399 97 434Q120 469 160 489.5Q200 510 260 510Q301 510 339 497Q377 484 416 459L422 475Q427 488 431.5 494Q436 500 447 500H449Q470 500 470 477V23Q470 0 449 0H447Q436 0 431.5 6Q427 12 422 25L416 41Q377 16 339 3Q301 -10 260 -10Q200 -10 160 10.5Q120 31 97 66Q74 101 64.5 148.5Q55 196 55 250ZM284 574Q286 565 281 557.5Q276 550 264 550H261Q240 550 231 573L175 714Q170 728 176 739Q182 750 197 750H212Q241 750 247 723Z" glyph-name="agrave.school" horiz-adv-x="535" unicode="&#57682;" /><glyph d="M163 172H366L265 427ZM271 510Q291 510 303 483L495 36Q501 22 494.5 11Q488 0 473 0H461Q435 0 425 26L387 120H142L105 26Q95 0 69 0H57Q42 0 35.5 11Q29 22 35 36L227 483Q239 510 259 510ZM284 574Q286 565 281 557.5Q276 550 264 550H261Q240 550 231 573L175 714Q170 728 176 739Q182 750 197 750H212Q241 750 247 723Z" glyph-name="agrave.smcp" horiz-adv-x="530" unicode="&#57890;" /><glyph d="M271 -53Q296 -57 318.5 -65Q341 -73 358 -86.5Q375 -100 385 -118.5Q395 -137 395 -161Q395 -202 366 -226Q337 -250 284 -250Q265 -250 247 -248Q229 -246 212 -241Q198 -236 194 -229Q190 -222 190 -214V-209Q190 -201 196 -195.5Q202 -190 215 -193Q242 -199 267 -199Q298 -199 316 -190.5Q334 -182 334 -163Q334 -136 315 -121Q296 -106 267 -99Q254 -96 250 -90Q246 -84 247 -76L248 -68Q249 -60 255 -55.5Q261 -51 271 -53Z" glyph-name="altcedilla" horiz-adv-x="570" unicode="&#58390;" /><glyph d="M241 448Q196 448 166.5 442Q137 436 122 431Q103 426 94 433Q85 440 85 450V462Q85 470 89 477.5Q93 485 107 490Q127 498 163 504Q199 510 241 510Q297 510 333.5 498Q370 486 391.5 463.5Q413 441 421.5 410Q430 379 430 342V23Q430 0 409 0H407Q396 0 391.5 5.5Q387 11 382 24L376 40Q342 15 302.5 2.5Q263 -10 225 -10Q176 -10 142.5 3.5Q109 17 88.5 39Q68 61 59 90Q50 119 50 151Q50 183 59.5 210Q69 237 90 257.5Q111 278 145 291Q179 304 228 307L360 315V343Q360 370 354.5 390Q349 410 335.5 423Q322 436 299 442Q276 448 241 448ZM223 253Q169 248 145 221.5Q121 195 121 151Q121 134 124 116.5Q127 99 138 84.5Q149 70 170 61Q191 52 227 52Q268 52 298 62.5Q328 73 360 92V266ZM349 680Q378 680 378 652V648Q378 620 349 620H133Q104 620 104 648V652Q104 680 133 680Z" glyph-name="amacron" horiz-adv-x="495" unicode="&#257;" /><glyph d="M125 250Q125 213 129 177.5Q133 142 147.5 114Q162 86 188.5 69Q215 52 260 52Q309 52 340 60Q371 68 400 84V416Q371 432 340 440Q309 448 260 448Q215 448 188.5 431Q162 414 147.5 386Q133 358 129 322.5Q125 287 125 250ZM55 250Q55 304 64.5 351.5Q74 399 97 434Q120 469 160 489.5Q200 510 260 510Q301 510 339 497Q377 484 416 459L422 475Q427 488 431.5 494Q436 500 447 500H449Q470 500 470 477V23Q470 0 449 0H447Q436 0 431.5 6Q427 12 422 25L416 41Q377 16 339 3Q301 -10 260 -10Q200 -10 160 10.5Q120 31 97 66Q74 101 64.5 148.5Q55 196 55 250ZM373 680Q402 680 402 652V648Q402 620 373 620H157Q128 620 128 648V652Q128 680 157 680Z" glyph-name="amacron.school" horiz-adv-x="535" unicode="&#57689;" /><glyph d="M163 172H366L265 427ZM271 510Q291 510 303 483L495 36Q501 22 494.5 11Q488 0 473 0H461Q435 0 425 26L387 120H142L105 26Q95 0 69 0H57Q42 0 35.5 11Q29 22 35 36L227 483Q239 510 259 510ZM373 680Q402 680 402 652V648Q402 620 373 620H157Q128 620 128 648V652Q128 680 157 680Z" glyph-name="amacron.smcp" horiz-adv-x="530" unicode="&#57896;" /><glyph d="M655 1Q619 16 584 33.5Q549 51 514 71Q465 32 406.5 11Q348 -10 279 -10Q232 -10 189.5 0.5Q147 11 115 35.5Q83 60 64 100Q45 140 45 198Q45 246 56.5 280Q68 314 87 339Q106 364 131 381Q156 398 184 412Q164 454 152.5 498.5Q141 543 141 592Q141 622 150 652Q159 682 179.5 706Q200 730 233 745Q266 760 315 760Q364 760 397 745Q430 730 450 706Q470 682 479 652Q488 622 488 592Q488 552 472.5 523Q457 494 431 471.5Q405 449 371 431.5Q337 414 300 397L274 385Q299 346 327 312Q368 262 411.5 223Q455 184 502 153Q552 207 580.5 287.5Q609 368 614 468Q616 500 644 500H652Q684 500 682 468Q677 356 645.5 267.5Q614 179 560 116Q589 100 618 86Q647 72 676 59Q689 54 694.5 44.5Q700 35 695 21L693 16Q688 3 678 -0.5Q668 -4 655 1ZM210 592Q210 551 219 513.5Q228 476 245 440L272 453Q300 466 326.5 479Q353 492 374 508Q395 524 407.5 544.5Q420 565 420 592Q420 612 415 631Q410 650 398 665Q386 680 365.5 689Q345 698 315 698Q285 698 264.5 689Q244 680 232 665Q220 650 215 631Q210 612 210 592ZM278 269Q243 311 215 356Q194 345 175.5 331.5Q157 318 143.5 300Q130 282 122.5 257Q115 232 115 198Q115 155 130 127.5Q145 100 168.5 83.5Q192 67 221 60.5Q250 54 279 54Q377 54 452 109Q405 141 362 179.5Q319 218 278 269Z" glyph-name="ampersand" horiz-adv-x="705" unicode="&amp;" /><glyph d="M646 -9Q601 -7 562.5 2.5Q524 12 489 27Q448 8 405 -1Q362 -10 320 -10Q260 -10 208.5 3Q157 16 119.5 44Q82 72 61 117Q40 162 40 225Q40 262 50.5 293Q61 324 79 349Q97 374 120.5 392.5Q144 411 170 423Q149 501 149 575Q149 605 157.5 638Q166 671 186.5 698Q207 725 241 742.5Q275 760 325 760Q370 760 399 750.5Q428 741 445 724.5Q462 708 468.5 685.5Q475 663 475 638Q475 633 474.5 625.5Q474 618 472 613Q470 604 463.5 597Q457 590 446 590H427Q416 590 411 596.5Q406 603 408 612Q409 618 409.5 623Q410 628 410 638Q410 649 407 660Q404 671 395 679.5Q386 688 369.5 693Q353 698 325 698Q292 698 271 686.5Q250 675 238 657Q226 639 222 617Q218 595 218 575Q218 525 233 458.5Q248 392 281 324.5Q314 257 365.5 196.5Q417 136 490 99Q534 127 562 172.5Q590 218 590 285Q590 328 580.5 357Q571 386 554.5 404Q538 422 515 430Q492 438 465 438Q429 438 411 436Q393 434 377 430Q364 427 354.5 433Q345 439 345 451V459Q345 471 351 478Q357 485 366 487Q382 492 406.5 496Q431 500 465 500Q507 500 542.5 487.5Q578 475 604.5 448.5Q631 422 645.5 381.5Q660 341 660 285Q660 213 632.5 160.5Q605 108 560 71Q580 65 601.5 62Q623 59 646 57Q675 55 675 28V18Q675 -11 646 -9ZM320 52Q343 52 367.5 55Q392 58 416 65Q335 118 278.5 196Q222 274 190 360Q158 343 134 311.5Q110 280 110 225Q110 179 125.5 146.5Q141 114 169 93Q197 72 235.5 62Q274 52 320 52Z" glyph-name="ampersand.alt" horiz-adv-x="705" /><glyph d="M231 475Q248 427 273 387.5Q298 348 327 312Q368 262 411.5 223Q455 184 502 153Q552 207 580.5 287.5Q609 368 614 468Q616 500 644 500H652Q684 500 682 468Q677 356 645.5 267.5Q614 179 560 116Q589 100 618 86Q647 72 676 59Q689 54 694.5 44.5Q700 35 695 21L693 16Q688 3 678 -0.5Q668 -4 655 1Q619 16 584 33.5Q549 51 514 71Q465 32 406.5 11Q348 -10 279 -10Q232 -10 189.5 0.5Q147 11 115 35.5Q83 60 64 100Q45 140 45 198Q45 246 56.5 280Q68 314 87 339Q106 364 131 381Q156 398 184 412Q177 426 173 435.5Q169 445 162 465Q156 482 164.5 491Q173 500 184 500H196Q222 500 231 475ZM278 269Q243 311 215 356Q194 345 175.5 331.5Q157 318 143.5 300Q130 282 122.5 257Q115 232 115 198Q115 155 130 127.5Q145 100 168.5 83.5Q192 67 221 60.5Q250 54 279 54Q377 54 452 109Q405 141 362 179.5Q319 218 278 269Z" glyph-name="ampersand.smcp" horiz-adv-x="705" unicode="&#58369;" /><glyph d="M42 305Q42 311 43 315.5Q44 320 45 324L169 793Q175 816 200 816H221Q234 816 240 808.5Q246 801 243 788L118 305L243 -178Q246 -191 240 -198.5Q234 -206 221 -206H200Q175 -206 169 -183L45 286Q44 290 43 294.5Q42 299 42 305Z" glyph-name="anglebracketleft" horiz-adv-x="280" unicode="&#12296;" /><glyph d="M42 375Q42 381 43 385.5Q44 390 45 394L169 863Q175 886 200 886H221Q234 886 240 878.5Q246 871 243 858L118 375L243 -108Q246 -121 240 -128.5Q234 -136 221 -136H200Q175 -136 169 -113L45 356Q44 360 43 364.5Q42 369 42 375Z" glyph-name="anglebracketleft.cap" horiz-adv-x="280" unicode="&#58519;" /><glyph d="M238 305Q238 299 237 294.5Q236 290 235 286L111 -183Q105 -206 80 -206H59Q46 -206 40 -198.5Q34 -191 37 -178L162 305L37 788Q34 801 40 808.5Q46 816 59 816H80Q105 816 111 793L235 324Q236 320 237 315.5Q238 311 238 305Z" glyph-name="anglebracketright" horiz-adv-x="280" unicode="&#12297;" /><glyph d="M238 375Q238 369 237 364.5Q236 360 235 356L111 -113Q105 -136 80 -136H59Q46 -136 40 -128.5Q34 -121 37 -108L162 375L37 858Q34 871 40 878.5Q46 886 59 886H80Q105 886 111 863L235 394Q236 390 237 385.5Q238 381 238 375Z" glyph-name="anglebracketright.cap" horiz-adv-x="280" unicode="&#58520;" /><glyph d="M265 427 105 26Q95 0 69 0H57Q42 0 35.5 11Q29 22 35 36L227 483Q239 510 259 510H271Q291 510 303 483L495 36Q501 22 494.5 11Q488 0 473 0H461Q435 0 425 26Z" glyph-name="anocross.smcp" horiz-adv-x="530" unicode="&#57888;" /><glyph d="M223 253Q169 248 145 221.5Q121 195 121 151Q121 134 124 116.5Q127 99 138 84.5Q149 70 170 61Q191 52 227 52Q268 52 298 62.5Q328 73 360 92V266ZM383 21Q382 23 380 27.5Q378 32 376 40Q342 15 302.5 2.5Q263 -10 225 -10Q176 -10 142.5 3.5Q109 17 88.5 39Q68 61 59 90Q50 119 50 151Q50 183 59.5 210Q69 237 90 257.5Q111 278 145 291Q179 304 228 307L360 315V343Q360 370 354.5 390Q349 410 335.5 423Q322 436 299 442Q276 448 241 448Q196 448 166.5 442Q137 436 122 431Q103 426 94 433Q85 440 85 450V462Q85 470 89 477.5Q93 485 107 490Q127 498 163 504Q199 510 241 510Q297 510 333.5 498Q370 486 391.5 463.5Q413 441 421.5 410Q430 379 430 342V23Q430 8 419 2Q407 -5 391 -19.5Q375 -34 360 -53.5Q345 -73 334.5 -95.5Q324 -118 324 -142Q324 -168 336.5 -183.5Q349 -199 378 -199Q388 -199 397 -198Q406 -197 410 -196Q424 -193 429.5 -198.5Q435 -204 435 -212V-218Q435 -226 431 -234Q427 -242 413 -245Q403 -247 392 -248.5Q381 -250 364 -250Q314 -250 288.5 -223Q263 -196 263 -155Q263 -104 293.5 -57.5Q324 -11 383 21Z" glyph-name="aogonek" horiz-adv-x="495" unicode="&#261;" /><glyph d="M125 250Q125 213 129 177.5Q133 142 147.5 114Q162 86 188.5 69Q215 52 260 52Q309 52 340 60Q371 68 400 84V416Q371 432 340 440Q309 448 260 448Q215 448 188.5 431Q162 414 147.5 386Q133 358 129 322.5Q125 287 125 250ZM416 41Q377 16 339 3Q301 -10 260 -10Q200 -10 160 10.5Q120 31 97 66Q74 101 64.5 148.5Q55 196 55 250Q55 304 64.5 351.5Q74 399 97 434Q120 469 160 489.5Q200 510 260 510Q301 510 339 497Q377 484 416 459L422 475Q427 488 431.5 494Q436 500 447 500H449Q470 500 470 477V23Q470 8 459 2Q447 -5 431 -19.5Q415 -34 400 -53.5Q385 -73 374.5 -95.5Q364 -118 364 -142Q364 -168 376.5 -183.5Q389 -199 418 -199Q428 -199 437 -198Q446 -197 450 -196Q464 -193 469.5 -198.5Q475 -204 475 -212V-218Q475 -226 471 -234Q467 -242 453 -245Q443 -247 432 -248.5Q421 -250 404 -250Q354 -250 328.5 -223Q303 -196 303 -155Q303 -104 333.5 -57.5Q364 -11 423 21Z" glyph-name="aogonek.school" horiz-adv-x="535" unicode="&#57680;" /><glyph d="M163 172H366L265 427ZM271 510Q291 510 303 483L495 36Q505 13 485 1Q472 -7 456 -22Q440 -37 426.5 -56.5Q413 -76 403.5 -98Q394 -120 394 -142Q394 -168 406.5 -183.5Q419 -199 448 -199Q458 -199 467 -198Q476 -197 480 -196Q494 -193 499.5 -198.5Q505 -204 505 -212V-218Q505 -226 501 -234Q497 -242 483 -245Q473 -247 462 -248.5Q451 -250 434 -250Q384 -250 358.5 -223Q333 -196 333 -155Q333 -126 341.5 -101Q350 -76 363.5 -56Q377 -36 394.5 -19.5Q412 -3 431 10L387 120H142L105 26Q95 0 69 0H57Q42 0 35.5 11Q29 22 35 36L227 483Q239 510 259 510Z" glyph-name="aogonek.smcp" horiz-adv-x="530" unicode="&#57903;" /><glyph d="M342 268Q365 268 380.5 272.5Q396 277 416 287Q432 295 438.5 289.5Q445 284 445 274V261Q445 253 441 244Q437 235 423 228Q403 217 381.5 213Q360 209 344 209Q306 209 281.5 220.5Q257 232 237 245.5Q217 259 197 270.5Q177 282 148 282Q125 282 109.5 277.5Q94 273 74 263Q58 255 51.5 260.5Q45 266 45 276V289Q45 297 49 306Q53 315 67 322Q87 333 108.5 337Q130 341 146 341Q184 341 208.5 329.5Q233 318 253 304.5Q273 291 293 279.5Q313 268 342 268ZM342 400Q365 400 380.5 404.5Q396 409 416 419Q432 427 438.5 421.5Q445 416 445 406V393Q445 385 441 376Q437 367 423 360Q403 349 381.5 345Q360 341 344 341Q306 341 281.5 352.5Q257 364 237 377.5Q217 391 197 402.5Q177 414 148 414Q125 414 109.5 409.5Q94 405 74 395Q58 387 51.5 392.5Q45 398 45 408V421Q45 429 49 438Q53 447 67 454Q87 465 108.5 469Q130 473 146 473Q184 473 208.5 461.5Q233 450 253 436.5Q273 423 293 411.5Q313 400 342 400Z" glyph-name="approxequal" horiz-adv-x="490" unicode="&#8776;" /><glyph d="M241 448Q196 448 166.5 442Q137 436 122 431Q103 426 94 433Q85 440 85 450V462Q85 470 89 477.5Q93 485 107 490Q127 498 163 504Q199 510 241 510Q297 510 333.5 498Q370 486 391.5 463.5Q413 441 421.5 410Q430 379 430 342V23Q430 0 409 0H407Q396 0 391.5 5.5Q387 11 382 24L376 40Q342 15 302.5 2.5Q263 -10 225 -10Q176 -10 142.5 3.5Q109 17 88.5 39Q68 61 59 90Q50 119 50 151Q50 183 59.5 210Q69 237 90 257.5Q111 278 145 291Q179 304 228 307L360 315V343Q360 370 354.5 390Q349 410 335.5 423Q322 436 299 442Q276 448 241 448ZM223 253Q169 248 145 221.5Q121 195 121 151Q121 134 124 116.5Q127 99 138 84.5Q149 70 170 61Q191 52 227 52Q268 52 298 62.5Q328 73 360 92V266ZM241 549Q196 549 166.5 573.5Q137 598 137 650Q137 702 166.5 726.5Q196 751 241 751Q286 751 315.5 726.5Q345 702 345 650Q345 598 315.5 573.5Q286 549 241 549ZM241 702Q218 702 202.5 690Q187 678 187 650Q187 622 202.5 610Q218 598 241 598Q264 598 279.5 610Q295 622 295 650Q295 678 279.5 690Q264 702 241 702Z" glyph-name="aring" horiz-adv-x="495" unicode="&#229;" /><glyph d="M125 250Q125 213 129 177.5Q133 142 147.5 114Q162 86 188.5 69Q215 52 260 52Q309 52 340 60Q371 68 400 84V416Q371 432 340 440Q309 448 260 448Q215 448 188.5 431Q162 414 147.5 386Q133 358 129 322.5Q125 287 125 250ZM55 250Q55 304 64.5 351.5Q74 399 97 434Q120 469 160 489.5Q200 510 260 510Q301 510 339 497Q377 484 416 459L422 475Q427 488 431.5 494Q436 500 447 500H449Q470 500 470 477V23Q470 0 449 0H447Q436 0 431.5 6Q427 12 422 25L416 41Q377 16 339 3Q301 -10 260 -10Q200 -10 160 10.5Q120 31 97 66Q74 101 64.5 148.5Q55 196 55 250ZM265 549Q220 549 190.5 573.5Q161 598 161 650Q161 702 190.5 726.5Q220 751 265 751Q310 751 339.5 726.5Q369 702 369 650Q369 598 339.5 573.5Q310 549 265 549ZM265 702Q242 702 226.5 690Q211 678 211 650Q211 622 226.5 610Q242 598 265 598Q288 598 303.5 610Q319 622 319 650Q319 678 303.5 690Q288 702 265 702Z" glyph-name="aring.school" horiz-adv-x="535" unicode="&#57687;" /><glyph d="M163 172H366L265 427ZM271 510Q291 510 303 483L495 36Q501 22 494.5 11Q488 0 473 0H461Q435 0 425 26L387 120H142L105 26Q95 0 69 0H57Q42 0 35.5 11Q29 22 35 36L227 483Q239 510 259 510ZM265 549Q220 549 190.5 573.5Q161 598 161 650Q161 702 190.5 726.5Q220 751 265 751Q310 751 339.5 726.5Q369 702 369 650Q369 598 339.5 573.5Q310 549 265 549ZM265 702Q242 702 226.5 690Q211 678 211 650Q211 622 226.5 610Q242 598 265 598Q288 598 303.5 610Q319 622 319 650Q319 678 303.5 690Q288 702 265 702Z" glyph-name="aring.smcp" horiz-adv-x="530" unicode="&#57894;" /><glyph d="M752 414Q760 423 772.5 421Q785 419 785 406V364Q785 348 773 336L434 -3H433Q427 -11 411 -11H409Q394 -11 386 -3L47 336Q35 348 35 364V406Q35 419 47.5 421Q60 423 68 414L377 96V720Q377 750 406 750H414Q443 750 443 720V96Z" glyph-name="arrowdown" horiz-adv-x="830" unicode="&#8595;" /><glyph d="M141 408H765Q795 408 795 379V371Q795 342 765 342H141L459 33Q468 25 466 12.5Q464 0 451 0H409Q393 0 381 12L42 351H41Q34 358 34 374V376Q34 392 41 398Q42 399 42 399L381 738Q393 750 409 750H451Q464 750 466 737.5Q468 725 459 717Z" glyph-name="arrowleft" horiz-adv-x="830" unicode="&#8592;" /><glyph d="M374 717Q365 725 367 737.5Q369 750 382 750H424Q440 750 452 738L791 399V398Q799 392 799 376V374Q799 359 791 351L452 12Q440 0 424 0H382Q369 0 367 12.5Q365 25 374 33L692 342H68Q38 342 38 371V379Q38 408 68 408H692Z" glyph-name="arrowright" horiz-adv-x="830" unicode="&#8594;" /><glyph d="M68 336Q60 327 47.5 329Q35 331 35 344V386Q35 402 47 414L386 753Q394 761 409 761H411Q427 761 433 753H434L773 414Q785 402 785 386V344Q785 331 772.5 329Q760 327 752 336L443 654V30Q443 0 414 0H406Q377 0 377 30V654Z" glyph-name="arrowup" horiz-adv-x="830" unicode="&#8593;" /><glyph d="M528 404Q535 393 531.5 384Q528 375 515 375H499Q473 375 458 399L280 686L102 399Q87 375 61 375H45Q32 375 28.5 384Q25 393 32 404L232 736Q240 750 249.5 755Q259 760 273 760H287Q301 760 310.5 755Q320 750 328 736Z" glyph-name="asciicircum" horiz-adv-x="560" unicode="^" /><glyph d="M342 334Q365 334 380.5 338.5Q396 343 416 353Q432 361 438.5 355.5Q445 350 445 340V327Q445 319 441 310Q437 301 423 294Q403 283 381.5 279Q360 275 344 275Q306 275 281.5 286.5Q257 298 237 311.5Q217 325 197 336.5Q177 348 148 348Q125 348 109.5 343.5Q94 339 74 329Q58 321 51.5 326.5Q45 332 45 342V355Q45 363 49 372Q53 381 67 388Q87 399 108.5 403Q130 407 146 407Q184 407 208.5 395.5Q233 384 253 370.5Q273 357 293 345.5Q313 334 342 334Z" glyph-name="asciitilde" horiz-adv-x="490" unicode="~" /><glyph d="M311 649Q323 655 333 650.5Q343 646 348 632L352 619Q357 605 351.5 595Q346 585 332 583L241 567Q221 564 217 579L215 585Q210 601 227 609ZM129 609Q146 601 141 585L139 579Q135 564 115 567L24 583Q10 585 4.5 595Q-1 605 4 619L8 632Q13 646 23 650.5Q33 655 45 649ZM200 628Q197 609 181 609H175Q158 609 156 628L143 720Q141 734 148.5 742Q156 750 171 750H185Q200 750 207.5 742Q215 734 213 720ZM294 469Q303 459 302 448Q301 437 289 429L278 420Q252 402 237 428L194 510Q185 527 198 537L203 540Q216 550 230 536ZM126 536Q140 550 153 540L158 537Q171 527 162 510L119 428Q104 402 78 420L67 429Q55 437 54 448Q53 459 62 469Z" glyph-name="asterisk" horiz-adv-x="355" unicode="*" /><glyph d="M583 50Q572 50 567.5 56Q563 62 558 75L553 87Q518 61 484 50.5Q450 40 417 40Q379 40 345.5 52.5Q312 65 287 91Q262 117 247 156.5Q232 196 232 250Q232 304 247 343.5Q262 383 287 409Q312 435 345.5 447.5Q379 460 417 460Q449 460 483.5 449.5Q518 439 553 413L558 425Q563 438 567.5 444Q572 450 583 450H586Q607 450 607 427V107Q696 106 731 159Q766 212 766 313Q766 384 746.5 434Q727 484 686.5 515.5Q646 547 585 561.5Q524 576 440 576Q356 576 294 558Q232 540 191 500.5Q150 461 129.5 399Q109 337 109 250Q109 163 129.5 101Q150 39 191 -0.5Q232 -40 294 -58Q356 -76 440 -76Q481 -76 517 -72.5Q553 -69 582.5 -64Q612 -59 632.5 -53.5Q653 -48 663 -45Q679 -40 687.5 -46Q696 -52 696 -62V-75Q696 -83 692 -90.5Q688 -98 674 -103Q663 -107 639.5 -112.5Q616 -118 584.5 -123Q553 -128 516 -131.5Q479 -135 440 -135Q344 -135 269.5 -112.5Q195 -90 144 -43Q93 4 66.5 76.5Q40 149 40 250Q40 350 66.5 423Q93 496 144 543Q195 590 269.5 612.5Q344 635 440 635Q633 635 731.5 553.5Q830 472 830 308Q830 270 822.5 225Q815 180 791 141Q767 102 723 76Q679 50 607 50ZM427 102Q456 102 482 110Q508 118 537 134V366Q508 382 482 390Q456 398 427 398Q361 398 331.5 361.5Q302 325 302 250Q302 175 331.5 138.5Q361 102 427 102Z" glyph-name="at" horiz-adv-x="870" unicode="@" /><glyph d="M350 375Q350 338 354 302.5Q358 267 372.5 239Q387 211 413.5 194Q440 177 485 177Q534 177 565 185Q596 193 625 209V541Q596 557 565 565Q534 573 485 573Q440 573 413.5 556Q387 539 372.5 511Q358 483 354 447.5Q350 412 350 375ZM510 -135Q410 -135 336.5 -116Q263 -97 210.5 -62.5Q158 -28 125 19.5Q92 67 73 123.5Q54 180 47 244Q40 308 40 375Q40 442 47 506Q54 570 73 626.5Q92 683 125 730.5Q158 778 210.5 812.5Q263 847 336.5 866Q410 885 510 885Q610 885 683 871Q756 857 807 831.5Q858 806 890 769Q922 732 939.5 685.5Q957 639 963.5 585Q970 531 970 470Q970 390 958.5 326Q947 262 916.5 217.5Q886 173 832.5 149Q779 125 695 125H672Q661 125 656.5 131Q652 137 647 150L641 166Q602 141 564 128Q526 115 485 115Q425 115 385 135.5Q345 156 322 191Q299 226 289.5 273.5Q280 321 280 375Q280 429 289.5 476.5Q299 524 322 559Q345 594 385 614.5Q425 635 485 635Q526 635 564 622Q602 609 641 584L647 600Q652 613 656.5 619Q661 625 672 625H674Q695 625 695 602V182Q756 182 796 201.5Q836 221 859.5 258.5Q883 296 892 349Q901 402 901 470Q901 549 889 614.5Q877 680 836.5 727Q796 774 718.5 800Q641 826 510 826Q423 826 359 809Q295 792 250.5 761Q206 730 178.5 688Q151 646 135.5 595.5Q120 545 114.5 489Q109 433 109 375Q109 317 114.5 261Q120 205 135.5 154.5Q151 104 178.5 62Q206 20 250.5 -11Q295 -42 359 -59Q423 -76 510 -76Q598 -76 657 -64Q716 -52 736 -44Q750 -39 758 -46Q766 -53 766 -64V-77Q766 -85 762 -93Q758 -101 744 -106Q721 -114 658 -124.5Q595 -135 510 -135Z" glyph-name="at.cap" horiz-adv-x="1010" unicode="&#58643;" /><glyph d="M241 448Q196 448 166.5 442Q137 436 122 431Q103 426 94 433Q85 440 85 450V462Q85 470 89 477.5Q93 485 107 490Q127 498 163 504Q199 510 241 510Q297 510 333.5 498Q370 486 391.5 463.5Q413 441 421.5 410Q430 379 430 342V23Q430 0 409 0H407Q396 0 391.5 5.5Q387 11 382 24L376 40Q342 15 302.5 2.5Q263 -10 225 -10Q176 -10 142.5 3.5Q109 17 88.5 39Q68 61 59 90Q50 119 50 151Q50 183 59.5 210Q69 237 90 257.5Q111 278 145 291Q179 304 228 307L360 315V343Q360 370 354.5 390Q349 410 335.5 423Q322 436 299 442Q276 448 241 448ZM223 253Q169 248 145 221.5Q121 195 121 151Q121 134 124 116.5Q127 99 138 84.5Q149 70 170 61Q191 52 227 52Q268 52 298 62.5Q328 73 360 92V266ZM165 715Q196 715 216 704Q236 693 252 679.5Q268 666 282.5 655Q297 644 317 644Q341 644 350 653Q359 662 362 671Q370 695 392 695H394Q408 695 415 686Q422 677 420 663Q416 630 389 607.5Q362 585 317 585Q286 585 266 596Q246 607 230 620.5Q214 634 199 645Q184 656 165 656Q141 656 132 647Q123 638 120 629Q112 605 90 605H88Q74 605 67 614Q60 623 62 637Q66 670 93 692.5Q120 715 165 715Z" glyph-name="atilde" horiz-adv-x="495" unicode="&#227;" /><glyph d="M125 250Q125 213 129 177.5Q133 142 147.5 114Q162 86 188.5 69Q215 52 260 52Q309 52 340 60Q371 68 400 84V416Q371 432 340 440Q309 448 260 448Q215 448 188.5 431Q162 414 147.5 386Q133 358 129 322.5Q125 287 125 250ZM55 250Q55 304 64.5 351.5Q74 399 97 434Q120 469 160 489.5Q200 510 260 510Q301 510 339 497Q377 484 416 459L422 475Q427 488 431.5 494Q436 500 447 500H449Q470 500 470 477V23Q470 0 449 0H447Q436 0 431.5 6Q427 12 422 25L416 41Q377 16 339 3Q301 -10 260 -10Q200 -10 160 10.5Q120 31 97 66Q74 101 64.5 148.5Q55 196 55 250ZM189 715Q220 715 240 704Q260 693 276 679.5Q292 666 306.5 655Q321 644 341 644Q365 644 374 653Q383 662 386 671Q394 695 416 695H418Q432 695 439 686Q446 677 444 663Q440 630 413 607.5Q386 585 341 585Q310 585 290 596Q270 607 254 620.5Q238 634 223 645Q208 656 189 656Q165 656 156 647Q147 638 144 629Q136 605 114 605H112Q98 605 91 614Q84 623 86 637Q90 670 117 692.5Q144 715 189 715Z" glyph-name="atilde.school" horiz-adv-x="535" unicode="&#57686;" /><glyph d="M163 172H366L265 427ZM271 510Q291 510 303 483L495 36Q501 22 494.5 11Q488 0 473 0H461Q435 0 425 26L387 120H142L105 26Q95 0 69 0H57Q42 0 35.5 11Q29 22 35 36L227 483Q239 510 259 510ZM189 715Q220 715 240 704Q260 693 276 679.5Q292 666 306.5 655Q321 644 341 644Q365 644 374 653Q383 662 386 671Q394 695 416 695H418Q432 695 439 686Q446 677 444 663Q440 630 413 607.5Q386 585 341 585Q310 585 290 596Q270 607 254 620.5Q238 634 223 645Q208 656 189 656Q165 656 156 647Q147 638 144 629Q136 605 114 605H112Q98 605 91 614Q84 623 86 637Q90 670 117 692.5Q144 715 189 715Z" glyph-name="atilde.smcp" horiz-adv-x="530" unicode="&#57893;" /><glyph d="M275 448Q226 448 195 440Q164 432 135 416V84Q164 68 195 60Q226 52 275 52Q320 52 346.5 69Q373 86 387.5 114Q402 142 406 177.5Q410 213 410 250Q410 287 406 322.5Q402 358 387.5 386Q373 414 346.5 431Q320 448 275 448ZM135 469Q167 490 203.5 500Q240 510 275 510Q335 510 375 489.5Q415 469 438 434Q461 399 470.5 351.5Q480 304 480 250Q480 196 470.5 148.5Q461 101 438 66Q415 31 375 10.5Q335 -10 275 -10Q234 -10 196 3Q158 16 119 41L113 25Q108 12 103.5 6Q99 0 88 0H86Q65 0 65 23V718Q65 750 95 750H105Q135 750 135 718Z" glyph-name="b" horiz-adv-x="535" unicode="b" /><glyph d="M308 302Q332 302 347 307Q362 312 370.5 321Q379 330 381.5 342.5Q384 355 384 370Q384 385 381 398Q378 411 369 420Q360 429 344 434Q328 439 302 439H141V302ZM404 151Q404 169 400.5 185.5Q397 202 386.5 214.5Q376 227 356.5 234Q337 241 306 241H141V61H306Q337 61 356.5 68Q376 75 386.5 87.5Q397 100 400.5 116.5Q404 133 404 151ZM105 0Q75 0 75 32V468Q75 500 105 500H294Q381 500 416 466.5Q451 433 451 370Q451 341 437 315Q423 289 400 277Q435 263 455 227Q475 191 475 151Q475 119 467 91Q459 63 439.5 43Q420 23 388.5 11.5Q357 0 311 0Z" glyph-name="b.smcp" horiz-adv-x="520" unicode="&#57858;" /><glyph d="M150 548Q130 548 117 543Q104 538 96 534V396Q104 391 117 386Q130 381 150 381Q168 381 179.5 387.5Q191 394 197 405.5Q203 417 205 432Q207 447 207 465Q207 482 205 497Q203 512 197 523.5Q191 535 179.5 541.5Q168 548 150 548ZM80 354Q76 346 73 343Q70 340 62 340H56Q40 340 40 356V695Q40 715 59 715H77Q96 715 96 695V576Q110 585 127 590.5Q144 596 163 596Q218 596 240.5 561Q263 526 263 465Q263 403 240.5 368.5Q218 334 163 334Q138 334 118.5 341Q99 348 82 360Z" glyph-name="b.superior" horiz-adv-x="293" unicode="&#58210;" /><glyph d="M-5 787Q-9 798 -5 807Q-1 816 12 816H33Q58 816 66 792L395 -177Q399 -188 395 -197Q391 -206 378 -206H357Q332 -206 324 -182Z" glyph-name="backslash" horiz-adv-x="390" unicode="\" /><glyph d="M315 204 227 116Q206 93 186 115L180 121Q158 141 181 162L269 250L181 338Q158 359 180 379L186 385Q206 407 227 384L315 296L403 384Q424 407 444 385L450 379Q472 359 449 338L361 250L449 162Q472 141 450 121L444 115Q424 93 403 116ZM499 439H131V61H499ZM95 0Q65 0 65 32V468Q65 500 95 500H535Q565 500 565 468V32Q565 0 535 0Z" glyph-name="ballotboxwithx" horiz-adv-x="630" unicode="&#9746;" /><glyph d="M158 -174Q158 -206 128 -206H117Q87 -206 87 -174V784Q87 816 117 816H128Q158 816 158 784Z" glyph-name="bar" horiz-adv-x="245" unicode="|" /><glyph d="M55 375Q55 455 85 525Q115 595 167.5 647.5Q220 700 290 730Q360 760 440 760Q520 760 590 730Q660 700 712.5 647.5Q765 595 795 525Q825 455 825 375Q825 295 795 225Q765 155 712.5 102.5Q660 50 590 20Q520 -10 440 -10Q360 -10 290 20Q220 50 167.5 102.5Q115 155 85 225Q55 295 55 375Z" glyph-name="blackcircle" horiz-adv-x="880" unicode="&#9679;" /><glyph d="M95 0Q65 0 65 32V468Q65 500 95 500H535Q565 500 565 468V32Q565 0 535 0Z" glyph-name="blacksmallsquare" horiz-adv-x="630" unicode="&#9642;" /><glyph d="M95 0Q65 0 65 32V718Q65 750 95 750H785Q815 750 815 718V32Q815 0 785 0Z" glyph-name="blacksquare" horiz-adv-x="880" unicode="&#9632;" /><glyph d="M18 311Q18 325 26 331.5Q34 338 48 340Q56 342 63.5 349.5Q71 357 70 377L52 707Q50 736 58 756.5Q66 777 80 790.5Q94 804 112 810Q130 816 150 816Q180 816 180 787V779Q180 752 150 749Q138 747 130 738.5Q122 730 123 711L141 381Q142 335 108 305Q142 275 141 229L123 -101Q122 -120 130 -128.5Q138 -137 150 -139Q180 -142 180 -169V-177Q180 -206 150 -206Q130 -206 112 -200Q94 -194 80 -180.5Q66 -167 58 -146.5Q50 -126 52 -97L70 233Q71 253 63.5 260.5Q56 268 48 270Q34 272 26 278.5Q18 285 18 299Z" glyph-name="braceleft" horiz-adv-x="210" unicode="{" /><glyph d="M18 381Q18 395 26 401.5Q34 408 48 410Q56 412 63.5 419.5Q71 427 70 447L52 777Q50 806 58 826.5Q66 847 80 860.5Q94 874 112 880Q130 886 150 886Q180 886 180 857V849Q180 822 150 819Q138 817 130 808.5Q122 800 123 781L141 451Q142 405 108 375Q142 345 141 299L123 -31Q122 -50 130 -58.5Q138 -67 150 -69Q180 -72 180 -99V-107Q180 -136 150 -136Q130 -136 112 -130Q94 -124 80 -110.5Q66 -97 58 -76.5Q50 -56 52 -27L70 303Q71 323 63.5 330.5Q56 338 48 340Q34 342 26 348.5Q18 355 18 369Z" glyph-name="braceleft.cap" horiz-adv-x="210" unicode="&#58517;" /><glyph d="M192 299Q192 285 184 278.5Q176 272 162 270Q154 268 146.5 260.5Q139 253 140 233L158 -97Q159 -126 151.5 -146.5Q144 -167 130 -180.5Q116 -194 97.5 -200Q79 -206 60 -206Q30 -206 30 -177V-169Q30 -142 60 -139Q72 -137 80 -128.5Q88 -120 87 -101L69 229Q68 275 102 305Q68 335 69 381L87 711Q88 730 80 738.5Q72 747 60 749Q30 752 30 779V787Q30 816 60 816Q79 816 97.5 810Q116 804 130 790.5Q144 777 151.5 756.5Q159 736 158 707L140 377Q139 357 146.5 349.5Q154 342 162 340Q176 338 184 331.5Q192 325 192 311Z" glyph-name="braceright" horiz-adv-x="210" unicode="}" /><glyph d="M192 369Q192 355 184 348.5Q176 342 162 340Q154 338 146.5 330.5Q139 323 140 303L158 -27Q159 -56 151.5 -76.5Q144 -97 130 -110.5Q116 -124 97.5 -130Q79 -136 60 -136Q30 -136 30 -107V-99Q30 -72 60 -69Q72 -67 80 -58.5Q88 -50 87 -31L69 299Q68 345 102 375Q68 405 69 451L87 781Q88 800 80 808.5Q72 817 60 819Q30 822 30 849V857Q30 886 60 886Q79 886 97.5 880Q116 874 130 860.5Q144 847 151.5 826.5Q159 806 158 777L140 447Q139 427 146.5 419.5Q154 412 162 410Q176 408 184 401.5Q192 395 192 381Z" glyph-name="braceright.cap" horiz-adv-x="210" unicode="&#58518;" /><glyph d="M136 -140H170Q200 -140 200 -169V-177Q200 -206 170 -206H95Q65 -206 65 -174V784Q65 816 95 816H170Q200 816 200 787V779Q200 750 170 750H136Z" glyph-name="bracketleft" horiz-adv-x="230" unicode="[" /><glyph d="M136 -70H170Q200 -70 200 -99V-107Q200 -136 170 -136H95Q65 -136 65 -104V854Q65 886 95 886H170Q200 886 200 857V849Q200 820 170 820H136Z" glyph-name="bracketleft.cap" horiz-adv-x="230" unicode="&#58515;" /><glyph d="M94 750H60Q30 750 30 779V787Q30 816 60 816H135Q165 816 165 784V-174Q165 -206 135 -206H60Q30 -206 30 -177V-169Q30 -140 60 -140H94Z" glyph-name="bracketright" horiz-adv-x="230" unicode="]" /><glyph d="M94 820H60Q30 820 30 849V857Q30 886 60 886H135Q165 886 165 854V-104Q165 -136 135 -136H60Q30 -136 30 -107V-99Q30 -70 60 -70H94Z" glyph-name="bracketright.cap" horiz-adv-x="230" unicode="&#58516;" /><glyph d="M285 550Q236 550 203 565.5Q170 581 149.5 606Q129 631 120 662Q111 693 111 724Q111 750 135 750H138Q160 750 162 726Q166 671 192 640.5Q218 610 285 610Q352 610 378 640.5Q404 671 408 726Q410 750 432 750H435Q459 750 459 724Q459 693 450 662Q441 631 420.5 606Q400 581 367 565.5Q334 550 285 550Z" glyph-name="breve" horiz-adv-x="570" unicode="&#728;" /><glyph d="M285 790Q246 790 221 797Q196 804 180 815.5Q164 827 156.5 840.5Q149 854 145 867Q140 882 147.5 891Q155 900 166 900H169Q180 900 186 894.5Q192 889 197 877Q201 866 220 855.5Q239 845 285 845Q331 845 350 855.5Q369 866 373 877Q378 889 384 894.5Q390 900 401 900H404Q415 900 422.5 891Q430 882 425 867Q421 854 413.5 840.5Q406 827 390 815.5Q374 804 349 797Q324 790 285 790Z" glyph-name="breve.cap" horiz-adv-x="570" unicode="&#58406;" /><glyph d="M158 -174Q158 -206 128 -206H117Q87 -206 87 -174V240Q87 272 117 272H128Q158 272 158 240ZM158 370Q158 338 128 338H117Q87 338 87 370V784Q87 816 117 816H128Q158 816 158 784Z" glyph-name="brokenbar" horiz-adv-x="245" unicode="&#166;" /><glyph d="M50 375Q50 403 60.5 427.5Q71 452 89.5 470.5Q108 489 132.5 499.5Q157 510 185 510Q213 510 237.5 499.5Q262 489 280.5 470.5Q299 452 309.5 427.5Q320 403 320 375Q320 347 309.5 322.5Q299 298 280.5 279.5Q262 261 237.5 250.5Q213 240 185 240Q157 240 132.5 250.5Q108 261 89.5 279.5Q71 298 60.5 322.5Q50 347 50 375Z" glyph-name="bullet" horiz-adv-x="370" unicode="&#8226;" /><glyph d="M71 331Q62 322 56.5 315Q51 308 50 303V321ZM405 750H444L433 619Q428 617 424.5 614.5Q421 612 416 610ZM458 750H499L459 617L453 626Q445 624 441 622ZM392 750 410 605 397 594 351 750ZM513 750H560L475 593L464 609ZM800 321V300Q775 306 747 315Q719 324 695 336Q671 348 653.5 362.5Q636 377 633 394Q631 398 631 401ZM337 750 393 590 383 579 290 750ZM50 410 264 461Q238 451 213 443.5Q188 436 166 422Q144 408 127.5 393.5Q111 379 98 365L50 345ZM578 750H638L487 574L479 587ZM272 750 379 574 371 563 212 750ZM800 410V345L624 418Q616 431 606 441Q596 451 584 461ZM800 490V430L568 474L542 496ZM317 496Q312 488 307 483.5Q302 479 296 476L50 430V490ZM800 569V510L536 503L524 517ZM662 750H750L498 557L491 568ZM50 510V569L340 515Q335 507 330 503ZM188 750 368 559 362 549 100 750ZM800 655V589L521 523Q518 526 514 534L513 535ZM50 655 350 530 344 520 50 589ZM788 750H800V678L509 540L502 552ZM50 750H62L359 544Q354 538 353 534L50 678Z" glyph-name="bullseye" horiz-adv-x="850" unicode="&#9678;" /><glyph d="M125 250Q125 213 129 177.5Q133 142 147.5 114Q162 86 190 69Q218 52 265 52Q310 52 342.5 58.5Q375 65 386 68Q404 73 411.5 66Q419 59 419 50V36Q419 28 415 20.5Q411 13 397 8Q379 2 343.5 -4Q308 -10 266 -10Q203 -10 162 10.5Q121 31 97 66Q73 101 64 148.5Q55 196 55 250Q55 304 64 351.5Q73 399 97 434Q121 469 162 489.5Q203 510 266 510Q308 510 343.5 504Q379 498 397 492Q411 487 415 479.5Q419 472 419 464V450Q419 441 411.5 434Q404 427 386 432Q375 435 342.5 441.5Q310 448 265 448Q218 448 190 431Q162 414 147.5 386Q133 358 129 322.5Q125 287 125 250Z" glyph-name="c" horiz-adv-x="460" unicode="c" /><glyph d="M60 250Q60 304 73 351.5Q86 399 114.5 434Q143 469 188 489.5Q233 510 296 510Q342 510 375.5 504Q409 498 427 492Q441 487 445 479.5Q449 472 449 464V450Q449 441 441.5 434Q434 427 416 432Q405 435 375 441.5Q345 448 295 448Q248 448 216 431Q184 414 165 386Q146 358 138 322.5Q130 287 130 250Q130 213 138 177.5Q146 142 165 114Q184 86 216 69Q248 52 295 52Q345 52 375 58.5Q405 65 416 68Q434 73 441.5 66Q449 59 449 50V36Q449 28 445 20.5Q441 13 427 8Q409 2 375.5 -4Q342 -10 296 -10Q233 -10 188 10.5Q143 31 114.5 66Q86 101 73 148.5Q60 196 60 250Z" glyph-name="c.smcp" horiz-adv-x="505" unicode="&#57859;" /><glyph d="M30 465Q30 494 35.5 518Q41 542 54.5 559.5Q68 577 90.5 586.5Q113 596 146 596Q163 596 176.5 593.5Q190 591 201 588Q215 584 215 570V551Q215 544 210 540.5Q205 537 197 540Q189 542 179.5 544Q170 546 149 546Q113 546 100 523.5Q87 501 87 465Q87 428 100 405.5Q113 383 149 383Q170 383 179.5 385.5Q189 388 197 390Q205 392 210 388.5Q215 385 215 379V360Q215 345 201 341Q190 338 176.5 336Q163 334 146 334Q113 334 90.5 343.5Q68 353 54.5 370Q41 387 35.5 411.5Q30 436 30 465Z" glyph-name="c.superior" horiz-adv-x="235" unicode="&#58211;" /><glyph d="M125 250Q125 213 129 177.5Q133 142 147.5 114Q162 86 190 69Q218 52 265 52Q310 52 342.5 58.5Q375 65 386 68Q404 73 411.5 66Q419 59 419 50V36Q419 28 415 20.5Q411 13 397 8Q379 2 343.5 -4Q308 -10 266 -10Q203 -10 162 10.5Q121 31 97 66Q73 101 64 148.5Q55 196 55 250Q55 304 64 351.5Q73 399 97 434Q121 469 162 489.5Q203 510 266 510Q308 510 343.5 504Q379 498 397 492Q411 487 415 479.5Q419 472 419 464V450Q419 441 411.5 434Q404 427 386 432Q375 435 342.5 441.5Q310 448 265 448Q218 448 190 431Q162 414 147.5 386Q133 358 129 322.5Q125 287 125 250ZM284 723Q290 750 319 750H334Q349 750 355 739Q361 728 356 714L300 573Q291 550 270 550H267Q255 550 250 557.5Q245 565 247 574Z" glyph-name="cacute" horiz-adv-x="460" unicode="&#263;" /><glyph d="M60 250Q60 304 73 351.5Q86 399 114.5 434Q143 469 188 489.5Q233 510 296 510Q342 510 375.5 504Q409 498 427 492Q441 487 445 479.5Q449 472 449 464V450Q449 441 441.5 434Q434 427 416 432Q405 435 375 441.5Q345 448 295 448Q248 448 216 431Q184 414 165 386Q146 358 138 322.5Q130 287 130 250Q130 213 138 177.5Q146 142 165 114Q184 86 216 69Q248 52 295 52Q345 52 375 58.5Q405 65 416 68Q434 73 441.5 66Q449 59 449 50V36Q449 28 445 20.5Q441 13 427 8Q409 2 375.5 -4Q342 -10 296 -10Q233 -10 188 10.5Q143 31 114.5 66Q86 101 73 148.5Q60 196 60 250ZM304 723Q310 750 339 750H354Q369 750 375 739Q381 728 376 714L320 573Q311 550 290 550H287Q275 550 270 557.5Q265 565 267 574Z" glyph-name="cacute.smcp" horiz-adv-x="505" unicode="&#57908;" /><glyph d="M118 724Q111 733 115 741.5Q119 750 129 750H135Q147 750 154.5 746.5Q162 743 171 733L285 609L399 733Q408 743 415.5 746.5Q423 750 435 750H441Q451 750 455 741.5Q459 733 452 724L338 569Q330 557 322.5 553.5Q315 550 303 550H267Q255 550 247.5 553.5Q240 557 232 569Z" glyph-name="caron" horiz-adv-x="570" unicode="&#711;" /><glyph d="M159 875Q150 883 153.5 891.5Q157 900 165 900H170Q180 900 188.5 896.5Q197 893 207 888L285 844L363 888Q373 893 381.5 896.5Q390 900 400 900H405Q413 900 416.5 891.5Q420 883 411 875L351 822Q337 810 326.5 805Q316 800 304 800H266Q254 800 243.5 805Q233 810 219 822Z" glyph-name="caron.cap" horiz-adv-x="570" unicode="&#58413;" /><glyph d="M349 722Q352 750 380 750H393Q410 750 417.5 739.5Q425 729 421 714L387 573Q380 550 361 550H358Q346 550 340.5 557.5Q335 565 337 574Z" glyph-name="caronSlovak" horiz-adv-x="570" unicode="&#58387;" /><glyph d="M125 250Q125 213 129 177.5Q133 142 147.5 114Q162 86 190 69Q218 52 265 52Q310 52 342.5 58.5Q375 65 386 68Q404 73 411.5 66Q419 59 419 50V36Q419 28 415 20.5Q411 13 397 8Q379 2 343.5 -4Q308 -10 266 -10Q203 -10 162 10.5Q121 31 97 66Q73 101 64 148.5Q55 196 55 250Q55 304 64 351.5Q73 399 97 434Q121 469 162 489.5Q203 510 266 510Q308 510 343.5 504Q379 498 397 492Q411 487 415 479.5Q419 472 419 464V450Q419 441 411.5 434Q404 427 386 432Q375 435 342.5 441.5Q310 448 265 448Q218 448 190 431Q162 414 147.5 386Q133 358 129 322.5Q125 287 125 250ZM99 724Q92 733 96 741.5Q100 750 110 750H116Q128 750 135.5 746.5Q143 743 152 733L266 609L380 733Q389 743 396.5 746.5Q404 750 416 750H422Q432 750 436 741.5Q440 733 433 724L319 569Q311 557 303.5 553.5Q296 550 284 550H248Q236 550 228.5 553.5Q221 557 213 569Z" glyph-name="ccaron" horiz-adv-x="460" unicode="&#269;" /><glyph d="M60 250Q60 304 73 351.5Q86 399 114.5 434Q143 469 188 489.5Q233 510 296 510Q342 510 375.5 504Q409 498 427 492Q441 487 445 479.5Q449 472 449 464V450Q449 441 441.5 434Q434 427 416 432Q405 435 375 441.5Q345 448 295 448Q248 448 216 431Q184 414 165 386Q146 358 138 322.5Q130 287 130 250Q130 213 138 177.5Q146 142 165 114Q184 86 216 69Q248 52 295 52Q345 52 375 58.5Q405 65 416 68Q434 73 441.5 66Q449 59 449 50V36Q449 28 445 20.5Q441 13 427 8Q409 2 375.5 -4Q342 -10 296 -10Q233 -10 188 10.5Q143 31 114.5 66Q86 101 73 148.5Q60 196 60 250ZM119 724Q112 733 116 741.5Q120 750 130 750H136Q148 750 155.5 746.5Q163 743 172 733L286 609L400 733Q409 743 416.5 746.5Q424 750 436 750H442Q452 750 456 741.5Q460 733 453 724L339 569Q331 557 323.5 553.5Q316 550 304 550H268Q256 550 248.5 553.5Q241 557 233 569Z" glyph-name="ccaron.smcp" horiz-adv-x="505" unicode="&#57910;" /><glyph d="M125 250Q125 213 129 177.5Q133 142 147.5 114Q162 86 190 69Q218 52 265 52Q310 52 342.5 58.5Q375 65 386 68Q404 73 411.5 66Q419 59 419 50V36Q419 28 415 20.5Q411 13 397 8Q380 2 347.5 -3.5Q315 -9 277 -10L281 -64Q296 -68 312.5 -75Q329 -82 343.5 -93Q358 -104 367 -121Q376 -138 376 -161Q376 -202 347 -226Q318 -250 265 -250Q246 -250 228 -248Q210 -246 193 -241Q179 -236 175 -229Q171 -222 171 -214V-209Q171 -201 177 -195.5Q183 -190 196 -193Q223 -199 248 -199Q279 -199 297 -190.5Q315 -182 315 -163Q315 -136 297 -122.5Q279 -109 251 -104Q226 -100 229 -73L235 -8Q181 -3 146.5 19Q112 41 91.5 75.5Q71 110 63 154.5Q55 199 55 250Q55 304 64 351.5Q73 399 97 434Q121 469 162 489.5Q203 510 266 510Q308 510 343.5 504Q379 498 397 492Q411 487 415 479.5Q419 472 419 464V450Q419 441 411.5 434Q404 427 386 432Q375 435 342.5 441.5Q310 448 265 448Q218 448 190 431Q162 414 147.5 386Q133 358 129 322.5Q125 287 125 250Z" glyph-name="ccedilla" horiz-adv-x="460" unicode="&#231;" /><glyph d="M60 250Q60 304 73 351.5Q86 399 114.5 434Q143 469 188 489.5Q233 510 296 510Q342 510 375.5 504Q409 498 427 492Q441 487 445 479.5Q449 472 449 464V450Q449 441 441.5 434Q434 427 416 432Q405 435 375 441.5Q345 448 295 448Q248 448 216 431Q184 414 165 386Q146 358 138 322.5Q130 287 130 250Q130 213 138 177.5Q146 142 165 114Q184 86 216 69Q248 52 295 52Q345 52 375 58.5Q405 65 416 68Q434 73 441.5 66Q449 59 449 50V36Q449 28 445 20.5Q441 13 427 8Q410 2 379.5 -3.5Q349 -9 307 -10L311 -64Q326 -68 342.5 -75Q359 -82 373.5 -93Q388 -104 397 -121Q406 -138 406 -161Q406 -202 377 -226Q348 -250 295 -250Q276 -250 258 -248Q240 -246 223 -241Q209 -236 205 -229Q201 -222 201 -214V-209Q201 -201 207 -195.5Q213 -190 226 -193Q253 -199 278 -199Q309 -199 327 -190.5Q345 -182 345 -163Q345 -136 327 -122.5Q309 -109 281 -104Q256 -100 259 -73L265 -8Q210 -3 171 19Q132 41 107.5 75.5Q83 110 71.5 154.5Q60 199 60 250Z" glyph-name="ccedilla.smcp" horiz-adv-x="505" unicode="&#57912;" /><glyph d="M125 250Q125 213 129 177.5Q133 142 147.5 114Q162 86 190 69Q218 52 265 52Q310 52 342.5 58.5Q375 65 386 68Q404 73 411.5 66Q419 59 419 50V36Q419 28 415 20.5Q411 13 397 8Q379 2 343.5 -4Q308 -10 266 -10Q203 -10 162 10.5Q121 31 97 66Q73 101 64 148.5Q55 196 55 250Q55 304 64 351.5Q73 399 97 434Q121 469 162 489.5Q203 510 266 510Q308 510 343.5 504Q379 498 397 492Q411 487 415 479.5Q419 472 419 464V450Q419 441 411.5 434Q404 427 386 432Q375 435 342.5 441.5Q310 448 265 448Q218 448 190 431Q162 414 147.5 386Q133 358 129 322.5Q125 287 125 250ZM433 576Q440 567 436 558.5Q432 550 422 550H416Q404 550 396.5 553.5Q389 557 380 567L266 691L152 567Q143 557 135.5 553.5Q128 550 116 550H110Q100 550 96 558.5Q92 567 99 576L213 731Q221 743 228.5 746.5Q236 750 248 750H284Q296 750 303.5 746.5Q311 743 319 731Z" glyph-name="ccircumflex" horiz-adv-x="460" unicode="&#265;" /><glyph d="M60 250Q60 304 73 351.5Q86 399 114.5 434Q143 469 188 489.5Q233 510 296 510Q342 510 375.5 504Q409 498 427 492Q441 487 445 479.5Q449 472 449 464V450Q449 441 441.5 434Q434 427 416 432Q405 435 375 441.5Q345 448 295 448Q248 448 216 431Q184 414 165 386Q146 358 138 322.5Q130 287 130 250Q130 213 138 177.5Q146 142 165 114Q184 86 216 69Q248 52 295 52Q345 52 375 58.5Q405 65 416 68Q434 73 441.5 66Q449 59 449 50V36Q449 28 445 20.5Q441 13 427 8Q409 2 375.5 -4Q342 -10 296 -10Q233 -10 188 10.5Q143 31 114.5 66Q86 101 73 148.5Q60 196 60 250ZM453 576Q460 567 456 558.5Q452 550 442 550H436Q424 550 416.5 553.5Q409 557 400 567L286 691L172 567Q163 557 155.5 553.5Q148 550 136 550H130Q120 550 116 558.5Q112 567 119 576L233 731Q241 743 248.5 746.5Q256 750 268 750H304Q316 750 323.5 746.5Q331 743 339 731Z" glyph-name="ccircumflex.smcp" horiz-adv-x="505" unicode="&#57909;" /><glyph d="M125 250Q125 213 129 177.5Q133 142 147.5 114Q162 86 190 69Q218 52 265 52Q310 52 342.5 58.5Q375 65 386 68Q404 73 411.5 66Q419 59 419 50V36Q419 28 415 20.5Q411 13 397 8Q379 2 343.5 -4Q308 -10 266 -10Q203 -10 162 10.5Q121 31 97 66Q73 101 64 148.5Q55 196 55 250Q55 304 64 351.5Q73 399 97 434Q121 469 162 489.5Q203 510 266 510Q308 510 343.5 504Q379 498 397 492Q411 487 415 479.5Q419 472 419 464V450Q419 441 411.5 434Q404 427 386 432Q375 435 342.5 441.5Q310 448 265 448Q218 448 190 431Q162 414 147.5 386Q133 358 129 322.5Q125 287 125 250ZM216 650Q216 671 230.5 685.5Q245 700 266 700Q287 700 301.5 685.5Q316 671 316 650Q316 629 301.5 614.5Q287 600 266 600Q245 600 230.5 614.5Q216 629 216 650Z" glyph-name="cdotaccent" horiz-adv-x="460" unicode="&#267;" /><glyph d="M60 250Q60 304 73 351.5Q86 399 114.5 434Q143 469 188 489.5Q233 510 296 510Q342 510 375.5 504Q409 498 427 492Q441 487 445 479.5Q449 472 449 464V450Q449 441 441.5 434Q434 427 416 432Q405 435 375 441.5Q345 448 295 448Q248 448 216 431Q184 414 165 386Q146 358 138 322.5Q130 287 130 250Q130 213 138 177.5Q146 142 165 114Q184 86 216 69Q248 52 295 52Q345 52 375 58.5Q405 65 416 68Q434 73 441.5 66Q449 59 449 50V36Q449 28 445 20.5Q441 13 427 8Q409 2 375.5 -4Q342 -10 296 -10Q233 -10 188 10.5Q143 31 114.5 66Q86 101 73 148.5Q60 196 60 250ZM235 650Q235 671 249.5 685.5Q264 700 285 700Q306 700 320.5 685.5Q335 671 335 650Q335 629 320.5 614.5Q306 600 285 600Q264 600 249.5 614.5Q235 629 235 650Z" glyph-name="cdotaccent.smcp" horiz-adv-x="505" unicode="&#57911;" /><glyph d="M310 -64Q325 -68 341.5 -75Q358 -82 372.5 -93Q387 -104 396 -121Q405 -138 405 -161Q405 -202 376 -226Q347 -250 294 -250Q275 -250 257 -248Q239 -246 222 -241Q208 -236 204 -229Q200 -222 200 -214V-209Q200 -201 206 -195.5Q212 -190 225 -193Q252 -199 277 -199Q308 -199 326 -190.5Q344 -182 344 -163Q344 -136 326 -122.5Q308 -109 280 -104Q255 -100 258 -73L264 -13Q265 5 283 5H287Q304 5 306 -13Z" glyph-name="cedilla" horiz-adv-x="570" unicode="&#184;" /><glyph d="M233 126Q149 149 102 211Q55 273 55 375Q55 439 74.5 487.5Q94 536 130 569Q166 602 217 618.5Q268 635 331 635L362 726Q370 750 395 750H417Q430 750 434.5 741Q439 732 434 721L399 630Q425 626 445.5 621.5Q466 617 481 612Q493 608 496.5 600Q500 592 500 584V572Q500 562 493 555.5Q486 549 470 554Q450 559 414.5 566Q379 573 330 573Q235 573 180 521.5Q125 470 125 375Q125 280 180 228.5Q235 177 330 177Q379 177 414.5 184Q450 191 470 196Q486 201 493 194.5Q500 188 500 178V165Q500 157 495.5 149Q491 141 479 137Q464 132 425 123.5Q386 115 331 115Q323 115 315 115Q307 115 299 116L268 24Q260 0 235 0H213Q200 0 195.5 9Q191 18 196 29Z" glyph-name="cent" horiz-adv-x="570" unicode="&#162;" /><glyph d="M233 126Q149 149 102 211Q55 273 55 375Q55 439 74.5 487.5Q94 536 130 569Q166 602 217 618.5Q268 635 331 635L362 726Q370 750 395 750H417Q430 750 434.5 741Q439 732 434 721L399 630Q425 626 445.5 621.5Q466 617 481 612Q493 608 496.5 600Q500 592 500 584V572Q500 562 493 555.5Q486 549 470 554Q450 559 414.5 566Q379 573 330 573Q235 573 180 521.5Q125 470 125 375Q125 280 180 228.5Q235 177 330 177Q379 177 414.5 184Q450 191 470 196Q486 201 493 194.5Q500 188 500 178V165Q500 157 495.5 149Q491 141 479 137Q464 132 425 123.5Q386 115 331 115Q323 115 315 115Q307 115 299 116L268 24Q260 0 235 0H213Q200 0 195.5 9Q191 18 196 29Z" glyph-name="cent.LP" horiz-adv-x="570" unicode="&#58659;" /><glyph d="M202 3Q126 29 90.5 92.5Q55 156 55 250Q55 309 69.5 357Q84 405 114 439Q144 473 190 491.5Q236 510 299 510L329 599Q337 625 363 625H381Q394 625 399.5 615Q405 605 400 592L367 505Q389 502 406 498.5Q423 495 438 490Q450 486 454 478Q458 470 458 462V449Q458 439 451.5 432.5Q445 426 429 431Q409 436 378 442Q347 448 298 448Q251 448 218 433Q185 418 164.5 391Q144 364 134.5 328Q125 292 125 250Q125 208 134.5 171.5Q144 135 164.5 108.5Q185 82 218 67Q251 52 298 52Q347 52 378 58Q409 64 429 69Q445 74 451.5 67.5Q458 61 458 51V38Q458 30 454 22Q450 14 438 10Q423 5 388 -2.5Q353 -10 299 -10Q291 -10 283 -10Q275 -10 267 -9L237 -99Q229 -125 203 -125H187Q174 -125 167.5 -114.5Q161 -104 166 -91Z" glyph-name="cent.OP" horiz-adv-x="515" /><glyph d="M202 66Q126 92 90.5 155.5Q55 219 55 313Q55 372 69.5 420Q84 468 114 502Q144 536 190 554.5Q236 573 299 573L329 662Q337 688 363 688H381Q394 688 399.5 678Q405 668 400 655L367 568Q389 565 406 561.5Q423 558 438 553Q450 549 454 541Q458 533 458 525V512Q458 502 451.5 495.5Q445 489 429 494Q409 499 378 505Q347 511 298 511Q251 511 218 496Q185 481 164.5 454Q144 427 134.5 391Q125 355 125 313Q125 271 134.5 234.5Q144 198 164.5 171.5Q185 145 218 130Q251 115 298 115Q347 115 378 121Q409 127 429 132Q445 137 451.5 130.5Q458 124 458 114V101Q458 93 454 85Q450 77 438 73Q423 68 388 60.5Q353 53 299 53Q291 53 283 53Q275 53 267 54L237 -36Q229 -62 203 -62H187Q174 -62 167.5 -51.5Q161 -41 166 -28Z" glyph-name="cent.hybrid" horiz-adv-x="515" /><glyph d="M452 576Q459 567 455 558.5Q451 550 441 550H435Q423 550 415.5 553.5Q408 557 399 567L285 691L171 567Q162 557 154.5 553.5Q147 550 135 550H129Q119 550 115 558.5Q111 567 118 576L232 731Q240 743 247.5 746.5Q255 750 267 750H303Q315 750 322.5 746.5Q330 743 338 731Z" glyph-name="circumflex" horiz-adv-x="570" unicode="&#710;" /><glyph d="M411 825Q420 817 416.5 808.5Q413 800 405 800H400Q390 800 381.5 803.5Q373 807 363 812L285 856L207 812Q197 807 188.5 803.5Q180 800 170 800H165Q157 800 153.5 808.5Q150 817 159 825L219 878Q233 890 243.5 895Q254 900 266 900H304Q316 900 326.5 895Q337 890 351 878Z" glyph-name="circumflex.cap" horiz-adv-x="570" unicode="&#58403;" /><glyph d="M451 307Q454 262 459.5 226Q465 190 474 159.5Q483 129 496.5 101.5Q510 74 530 47Q542 30 534.5 15Q527 0 510 0H354Q337 0 329.5 15Q322 30 334 47Q354 74 367.5 101.5Q381 129 390 159.5Q399 190 404.5 226Q410 262 413 307L410 308Q398 278 380 250Q362 222 338 200.5Q314 179 284 166Q254 153 218 153Q182 153 151 166Q120 179 97 201.5Q74 224 61 254.5Q48 285 48 321Q48 358 60 390Q72 422 94.5 445Q117 468 147.5 481Q178 494 216 494Q241 494 260.5 487.5Q280 481 297 472L299 474Q283 498 272.5 526.5Q262 555 262 587Q262 623 275 654.5Q288 686 310.5 709.5Q333 733 364 746.5Q395 760 432 760Q469 760 500 746.5Q531 733 553.5 709.5Q576 686 589 654.5Q602 623 602 587Q602 555 591.5 526.5Q581 498 565 474L567 472Q584 481 603.5 487.5Q623 494 648 494Q685 494 716 481Q747 468 769.5 445Q792 422 804 390Q816 358 816 321Q816 285 803 254.5Q790 224 767 201.5Q744 179 713 166Q682 153 646 153Q610 153 580 166Q550 179 526 200.5Q502 222 484 250Q466 278 454 308Z" glyph-name="club" horiz-adv-x="864" unicode="&#9827;" /><glyph d="M45 375Q45 396 59.5 410.5Q74 425 95 425Q116 425 130.5 410.5Q145 396 145 375Q145 354 130.5 339.5Q116 325 95 325Q74 325 59.5 339.5Q45 354 45 375ZM45 40Q45 61 59.5 75.5Q74 90 95 90Q116 90 130.5 75.5Q145 61 145 40Q145 19 130.5 4.5Q116 -10 95 -10Q74 -10 59.5 4.5Q45 19 45 40Z" glyph-name="colon" horiz-adv-x="190" unicode=":" /><glyph d="M46 36Q48 50 57.5 58Q67 66 82 66H106Q120 66 127 56.5Q134 47 129 33L83 -101Q75 -125 51 -125H48Q38 -125 32 -118.5Q26 -112 28 -101Z" glyph-name="comma" horiz-adv-x="190" unicode="," /><glyph d="M248 -78Q251 -50 280 -50H296Q311 -50 318.5 -61Q326 -72 322 -86L282 -227Q275 -250 254 -250H251Q239 -250 233 -242.5Q227 -235 229 -226Z" glyph-name="commaaccent" horiz-adv-x="570" unicode="&#58388;" /><glyph d="M196 313Q196 367 213 404.5Q230 442 257.5 466Q285 490 321.5 500.5Q358 511 397 511Q429 511 452.5 507Q476 503 496 496Q505 493 511 486.5Q517 480 517 468V459Q517 447 507.5 440.5Q498 434 485 438Q468 443 448.5 446Q429 449 405 449Q342 449 304 418Q266 387 266 313Q266 239 304 208Q342 177 405 177Q429 177 448.5 180Q468 183 485 188Q498 192 507.5 185.5Q517 179 517 167V158Q517 146 511 139.5Q505 133 496 130Q476 123 452.5 119Q429 115 397 115Q358 115 321.5 125.5Q285 136 257.5 160Q230 184 213 221.5Q196 259 196 313ZM387 -10Q318 -10 257.5 11.5Q197 33 152 74Q107 115 81 175Q55 235 55 313Q55 391 81 451Q107 511 152 552Q197 593 257.5 614Q318 635 387 635Q456 635 516.5 614Q577 593 622 552Q667 511 693 451Q719 391 719 313Q719 235 693 175Q667 115 622 74Q577 33 516.5 11.5Q456 -10 387 -10ZM387 52Q447 52 495 69Q543 86 577 119.5Q611 153 629.5 201.5Q648 250 648 313Q648 375 629.5 423.5Q611 472 577 505Q543 538 495 555.5Q447 573 387 573Q327 573 279 555.5Q231 538 197 505Q163 472 144.5 423.5Q126 375 126 313Q126 250 144.5 201.5Q163 153 197 119.5Q231 86 279 69Q327 52 387 52Z" glyph-name="copyright" horiz-adv-x="774" unicode="&#169;" /><glyph d="M35 563Q35 660 77.5 710Q120 760 211 760Q259 760 294 753Q307 751 310.5 743.5Q314 736 314 728V713Q314 704 306 698Q298 692 281 696Q270 698 251.5 700Q233 702 211 702Q154 702 125.5 670Q97 638 97 563Q97 488 125.5 455.5Q154 423 211 423Q233 423 251.5 425Q270 427 281 429Q298 433 306 427Q314 421 314 412V397Q314 389 310.5 381.5Q307 374 294 372Q259 365 211 365Q120 365 77.5 415.5Q35 466 35 563Z" glyph-name="cordinal" horiz-adv-x="336" unicode="&#57729;" /><glyph d="M45 565Q45 662 85 711Q125 760 216 760Q242 760 263 758.5Q284 757 300 753Q313 750 317 743Q321 736 321 728V712Q321 703 312.5 697Q304 691 287 695Q262 700 216 700Q159 700 134 669.5Q109 639 109 565Q109 491 134 460.5Q159 430 216 430Q262 430 287 435Q304 439 312.5 433Q321 427 321 418V402Q321 394 317 387Q313 380 300 377Q284 373 263 371.5Q242 370 216 370Q125 370 85 419Q45 468 45 565Z" glyph-name="cordinal.smcp" horiz-adv-x="366" unicode="&#58195;" /><glyph d="M320 114Q363 114 399.5 121Q436 128 462 149Q488 170 503 209Q518 248 518 312Q518 376 503 415Q488 454 462 475Q436 496 399.5 503Q363 510 320 510Q277 510 240.5 503Q204 496 178 475Q152 454 137 415Q122 376 122 312Q122 248 137 209Q152 170 178 149Q204 128 240.5 121Q277 114 320 114ZM320 52Q278 52 239.5 58Q201 64 169 80L110 10Q91 -12 68 6L62 11Q40 30 59 53L115 120Q87 149 71 196Q55 243 55 312Q55 381 71 428Q87 475 115 504L59 571Q40 594 62 613L68 618Q91 636 110 614L169 544Q201 560 239.5 566Q278 572 320 572Q362 572 400.5 566Q439 560 471 544L530 614Q549 636 572 618L578 613Q600 594 581 571L525 504Q553 475 569 428Q585 381 585 312Q585 243 569 196Q553 149 525 120L581 53Q600 30 578 11L572 6Q549 -12 530 10L471 80Q439 64 400.5 58Q362 52 320 52Z" glyph-name="currency" horiz-adv-x="640" unicode="&#164;" /><glyph d="M260 448Q215 448 188.5 431Q162 414 147.5 386Q133 358 129 322.5Q125 287 125 250Q125 213 129 177.5Q133 142 147.5 114Q162 86 188.5 69Q215 52 260 52Q309 52 340 60Q371 68 400 84V416Q371 432 340 440Q309 448 260 448ZM400 718Q400 750 430 750H440Q470 750 470 718V23Q470 0 449 0H447Q436 0 431.5 6Q427 12 422 25L416 41Q377 16 339 3Q301 -10 260 -10Q200 -10 160 10.5Q120 31 97 66Q74 101 64.5 148.5Q55 196 55 250Q55 304 64.5 351.5Q74 399 97 434Q120 469 160 489.5Q200 510 260 510Q295 510 331.5 500Q368 490 400 469Z" glyph-name="d" horiz-adv-x="535" unicode="d" /><glyph d="M242 61Q292 61 325 74.5Q358 88 378 113Q398 138 406.5 173Q415 208 415 250Q415 292 406.5 327Q398 362 378 387Q358 412 325 425.5Q292 439 242 439H141V61ZM105 0Q75 0 75 32V468Q75 500 105 500H243Q307 500 353 482.5Q399 465 428.5 432.5Q458 400 471.5 353.5Q485 307 485 250Q485 193 471.5 146.5Q458 100 428.5 67.5Q399 35 353 17.5Q307 0 243 0Z" glyph-name="d.smcp" horiz-adv-x="545" unicode="&#57860;" /><glyph d="M143 548Q125 548 114 541.5Q103 535 97 523.5Q91 512 89 497Q87 482 87 465Q87 447 89 432Q91 417 97 405.5Q103 394 114 387.5Q125 381 143 381Q163 381 176 386Q189 391 197 396V534Q189 538 176 543Q163 548 143 548ZM211 360Q194 348 175 341Q156 334 130 334Q75 334 52.5 368.5Q30 403 30 465Q30 526 52.5 561Q75 596 130 596Q149 596 166 590.5Q183 585 197 576V695Q197 715 216 715H234Q253 715 253 695V356Q253 340 237 340H232Q224 340 220.5 343Q217 346 214 354Z" glyph-name="d.superior" horiz-adv-x="293" unicode="&#58212;" /><glyph d="M151 577Q151 559 133 558L42 545Q28 543 19 551Q10 559 10 575V585Q10 601 19 609Q28 617 42 615L133 602Q151 600 151 583ZM177 609Q159 609 158 627L145 718Q143 732 151 741Q159 750 175 750H185Q201 750 209 741Q217 732 215 718L202 627Q200 609 183 609ZM209 583Q209 600 227 602L318 615Q332 617 341 609Q350 601 350 585V575Q350 559 341 551Q332 543 318 545L227 558Q209 559 209 577ZM183 551Q200 551 202 533L226 333Q228 319 220 310Q212 301 196 301H164Q148 301 140 310Q132 319 134 333L158 533Q159 551 177 551Z" glyph-name="dagger" horiz-adv-x="360" unicode="&#8224;" /><glyph d="M207 480V472Q207 468 206.5 463Q206 458 205 453L202 428Q200 410 183 410H177Q159 410 158 428L155 453Q154 458 153.5 463Q153 468 153 472V480V488Q153 492 153.5 497Q154 502 155 507L158 532Q159 550 177 550H183Q200 550 202 532L205 507Q206 502 206.5 497Q207 492 207 488ZM209 583Q209 600 227 602L318 615Q332 617 341 609Q350 601 350 585V575Q350 559 341 551Q332 543 318 545L227 558Q209 559 209 577ZM151 378Q151 360 133 359L42 346Q28 344 19 352Q10 360 10 376V386Q10 402 19 410Q28 418 42 416L133 403Q151 401 151 384ZM151 577Q151 559 133 558L42 545Q28 543 19 551Q10 559 10 575V585Q10 601 19 609Q28 617 42 615L133 602Q151 600 151 583ZM209 384Q209 401 227 403L318 416Q332 418 341 410Q350 402 350 386V376Q350 360 341 352Q332 344 318 346L227 359Q209 360 209 378ZM177 609Q159 609 158 627L145 718Q143 732 151 741Q159 750 175 750H185Q201 750 209 741Q217 732 215 718L202 627Q200 609 183 609ZM183 352Q200 352 202 334L226 134Q228 120 220 111Q212 102 196 102H164Q148 102 140 111Q132 120 134 134L158 334Q159 352 177 352Z" glyph-name="daggerdbl" horiz-adv-x="360" unicode="&#8225;" /><glyph d="M260 448Q215 448 188.5 431Q162 414 147.5 386Q133 358 129 322.5Q125 287 125 250Q125 213 129 177.5Q133 142 147.5 114Q162 86 188.5 69Q215 52 260 52Q309 52 340 60Q371 68 400 84V416Q371 432 340 440Q309 448 260 448ZM400 718Q400 750 430 750H440Q470 750 470 718V23Q470 0 449 0H447Q436 0 431.5 6Q427 12 422 25L416 41Q377 16 339 3Q301 -10 260 -10Q200 -10 160 10.5Q120 31 97 66Q74 101 64.5 148.5Q55 196 55 250Q55 304 64.5 351.5Q74 399 97 434Q120 469 160 489.5Q200 510 260 510Q295 510 331.5 500Q368 490 400 469ZM534 722Q537 750 565 750H578Q595 750 602.5 739.5Q610 729 606 714L572 573Q565 550 546 550H543Q531 550 525.5 557.5Q520 565 522 574Z" glyph-name="dcaron" horiz-adv-x="555" unicode="&#271;" /><glyph d="M83 724Q76 733 80 741.5Q84 750 94 750H100Q112 750 119.5 746.5Q127 743 136 733L250 609L364 733Q373 743 380.5 746.5Q388 750 400 750H406Q416 750 420 741.5Q424 733 417 724L303 569Q295 557 287.5 553.5Q280 550 268 550H232Q220 550 212.5 553.5Q205 557 197 569ZM242 61Q292 61 325 74.5Q358 88 378 113Q398 138 406.5 173Q415 208 415 250Q415 292 406.5 327Q398 362 378 387Q358 412 325 425.5Q292 439 242 439H141V61ZM105 0Q75 0 75 32V468Q75 500 105 500H243Q307 500 353 482.5Q399 465 428.5 432.5Q458 400 471.5 353.5Q485 307 485 250Q485 193 471.5 146.5Q458 100 428.5 67.5Q399 35 353 17.5Q307 0 243 0Z" glyph-name="dcaron.smcp" horiz-adv-x="545" unicode="&#57913;" /><glyph d="M260 448Q215 448 188.5 431Q162 414 147.5 386Q133 358 129 322.5Q125 287 125 250Q125 213 129 177.5Q133 142 147.5 114Q162 86 188.5 69Q215 52 260 52Q309 52 340 60Q371 68 400 84V416Q371 432 340 440Q309 448 260 448ZM400 654V718Q400 750 430 750H440Q470 750 470 718V654H535Q560 654 560 630V627Q560 603 535 603H470V23Q470 0 449 0H447Q436 0 431.5 6Q427 12 422 25L416 41Q377 16 339 3Q301 -10 260 -10Q200 -10 160 10.5Q120 31 97 66Q74 101 64.5 148.5Q55 196 55 250Q55 304 64.5 351.5Q74 399 97 434Q120 469 160 489.5Q200 510 260 510Q295 510 331.5 500Q368 490 400 469V603H290Q265 603 265 627V630Q265 654 290 654Z" glyph-name="dcroat" horiz-adv-x="535" unicode="&#273;" /><glyph d="M282 61Q332 61 365 74.5Q398 88 418 113Q438 138 446.5 173Q455 208 455 250Q455 292 446.5 327Q438 362 418 387Q398 412 365 425.5Q332 439 282 439H181V277H274Q301 277 301 251V248Q301 222 274 222H181V61ZM145 0Q115 0 115 32V222H52Q25 222 25 248V251Q25 277 52 277H115V468Q115 500 145 500H283Q347 500 393 482.5Q439 465 468.5 432.5Q498 400 511.5 353.5Q525 307 525 250Q525 193 511.5 146.5Q498 100 468.5 67.5Q439 35 393 17.5Q347 0 283 0Z" glyph-name="dcroat.smcp" horiz-adv-x="585" unicode="&#57916;" /><glyph d="M168 705Q132 705 110.5 687Q89 669 89 625Q89 581 110.5 563Q132 545 168 545Q204 545 225.5 563Q247 581 247 625Q247 669 225.5 687Q204 705 168 705ZM168 490Q142 490 117.5 496.5Q93 503 73.5 518.5Q54 534 42 560Q30 586 30 625Q30 665 42 691Q54 717 73.5 732.5Q93 748 117.5 754Q142 760 168 760Q193 760 218 754Q243 748 262.5 732.5Q282 717 294 691Q306 665 306 625Q306 586 294 560Q282 534 262.5 518.5Q243 503 218 496.5Q193 490 168 490Z" glyph-name="degree" horiz-adv-x="336" unicode="&#176;" /><glyph d="M432 -10Q412 -10 401 -0.5Q390 9 383 23Q339 108 268 186Q197 264 104 330Q93 338 86 348Q79 358 79 375Q79 392 86 402Q93 412 104 420Q197 486 268 564Q339 642 383 727Q390 741 401 750.5Q412 760 432 760Q452 760 463 750.5Q474 741 481 727Q525 642 596 564Q667 486 760 420Q771 412 778 402Q785 392 785 375Q785 358 778 348Q771 338 760 330Q667 264 596 186Q525 108 481 23Q474 9 463 -0.5Q452 -10 432 -10Z" glyph-name="diamond" horiz-adv-x="864" unicode="&#9830;" /><glyph d="M330 650Q330 671 344.5 685.5Q359 700 380 700Q401 700 415.5 685.5Q430 671 430 650Q430 629 415.5 614.5Q401 600 380 600Q359 600 344.5 614.5Q330 629 330 650ZM140 650Q140 671 154.5 685.5Q169 700 190 700Q211 700 225.5 685.5Q240 671 240 650Q240 629 225.5 614.5Q211 600 190 600Q169 600 154.5 614.5Q140 629 140 650Z" glyph-name="dieresis" horiz-adv-x="570" unicode="&#168;" /><glyph d="M330 850Q330 871 344.5 885.5Q359 900 380 900Q401 900 415.5 885.5Q430 871 430 850Q430 829 415.5 814.5Q401 800 380 800Q359 800 344.5 814.5Q330 829 330 850ZM140 850Q140 871 154.5 885.5Q169 900 190 900Q211 900 225.5 885.5Q240 871 240 850Q240 829 225.5 814.5Q211 800 190 800Q169 800 154.5 814.5Q140 829 140 850Z" glyph-name="dieresis.cap" horiz-adv-x="570" unicode="&#58409;" /><glyph d="M415 374Q445 374 445 345V337Q445 308 415 308H75Q45 308 45 337V345Q45 374 75 374ZM195 501Q195 522 209.5 536.5Q224 551 245 551Q266 551 280.5 536.5Q295 522 295 501Q295 480 280.5 465.5Q266 451 245 451Q224 451 209.5 465.5Q195 480 195 501ZM195 181Q195 202 209.5 216.5Q224 231 245 231Q266 231 280.5 216.5Q295 202 295 181Q295 160 280.5 145.5Q266 131 245 131Q224 131 209.5 145.5Q195 160 195 181Z" glyph-name="divide" horiz-adv-x="490" unicode="&#247;" /><glyph d="M785 408Q815 408 815 379V371Q815 342 785 342H95Q65 342 65 371V379Q65 408 95 408ZM390 40Q390 61 404.5 75.5Q419 90 440 90Q461 90 475.5 75.5Q490 61 490 40Q490 19 475.5 4.5Q461 -10 440 -10Q419 -10 404.5 4.5Q390 19 390 40ZM390 710Q390 731 404.5 745.5Q419 760 440 760Q461 760 475.5 745.5Q490 731 490 710Q490 689 475.5 674.5Q461 660 440 660Q419 660 404.5 674.5Q390 689 390 710Z" glyph-name="divide.cap" horiz-adv-x="880" unicode="&#58772;" /><glyph d="M465 557Q430 565 384 570Q338 575 295 575Q254 575 221 571.5Q188 568 164 557.5Q140 547 127 529Q114 511 114 483Q114 460 127 447Q140 434 163 427.5Q186 421 218.5 418Q251 415 289 412Q345 407 388 400Q431 393 460.5 378Q490 363 505 338Q520 313 520 271Q520 193 454.5 154Q389 115 264 115H244L213 25Q205 1 180 1H158Q145 1 140.5 10Q136 19 141 30L176 121Q150 124 125 128.5Q100 133 80 138Q68 141 64 149Q60 157 60 165V177Q60 187 66 193Q72 199 88 195Q104 191 125.5 187.5Q147 184 170.5 181Q194 178 218 176.5Q242 175 265 175Q307 175 342 179.5Q377 184 402 195.5Q427 207 440.5 225Q454 243 454 270Q454 295 442 310Q430 325 408 334Q386 343 354.5 347Q323 351 284 354Q227 359 183 365.5Q139 372 109.5 385.5Q80 399 65 422Q50 445 50 483Q50 565 115 600Q180 635 296 635Q302 635 310 635Q318 635 326 634L357 726Q365 750 390 750H412Q425 750 429.5 741Q434 732 429 721L394 629Q416 626 436.5 622.5Q457 619 475 614Q487 611 491 603Q495 595 495 587V575Q495 565 488.5 559Q482 553 465 557Z" glyph-name="dollar" horiz-adv-x="570" unicode="$" /><glyph d="M465 557Q430 565 384 570Q338 575 295 575Q254 575 221 571.5Q188 568 164 557.5Q140 547 127 529Q114 511 114 483Q114 460 127 447Q140 434 163 427.5Q186 421 218.5 418Q251 415 289 412Q345 407 388 400Q431 393 460.5 378Q490 363 505 338Q520 313 520 271Q520 193 454.5 154Q389 115 264 115H244L213 25Q205 1 180 1H158Q145 1 140.5 10Q136 19 141 30L176 121Q150 124 125 128.5Q100 133 80 138Q68 141 64 149Q60 157 60 165V177Q60 187 66 193Q72 199 88 195Q104 191 125.5 187.5Q147 184 170.5 181Q194 178 218 176.5Q242 175 265 175Q307 175 342 179.5Q377 184 402 195.5Q427 207 440.5 225Q454 243 454 270Q454 295 442 310Q430 325 408 334Q386 343 354.5 347Q323 351 284 354Q227 359 183 365.5Q139 372 109.5 385.5Q80 399 65 422Q50 445 50 483Q50 565 115 600Q180 635 296 635Q302 635 310 635Q318 635 326 634L357 726Q365 750 390 750H412Q425 750 429.5 741Q434 732 429 721L394 629Q416 626 436.5 622.5Q457 619 475 614Q487 611 491 603Q495 595 495 587V575Q495 565 488.5 559Q482 553 465 557Z" glyph-name="dollar.LP" horiz-adv-x="570" unicode="&#58658;" /><glyph d="M195 -98Q187 -124 161 -124H145Q132 -124 125.5 -113.5Q119 -103 124 -90L157 -4Q135 -2 114.5 2Q94 6 79 11Q67 15 63 22.5Q59 30 59 38V50Q59 60 65.5 66.5Q72 73 88 68Q108 63 147.5 57Q187 51 236 51Q318 51 357.5 75Q397 99 397 144Q397 187 364.5 205Q332 223 255 229Q199 234 160 243Q121 252 97 267.5Q73 283 62 305.5Q51 328 51 360Q51 432 108 471Q165 510 282 510L312 599Q320 625 346 625H364Q377 625 382.5 615Q388 605 383 592L350 505Q391 499 419 491Q431 487 435 479.5Q439 472 439 464V451Q439 441 432.5 434.5Q426 428 410 433Q390 438 352.5 443.5Q315 449 266 449Q188 449 152 428.5Q116 408 116 360Q116 321 151 307.5Q186 294 260 287Q315 282 353.5 273Q392 264 416.5 247.5Q441 231 452.5 206Q464 181 464 145Q464 77 406 33.5Q348 -10 225 -10Z" glyph-name="dollar.OP" horiz-adv-x="515" /><glyph d="M195 -36Q187 -62 161 -62H145Q132 -62 125.5 -51.5Q119 -41 124 -28L157 58Q135 60 114.5 64Q94 68 79 73Q67 77 63 84.5Q59 92 59 100V112Q59 122 65.5 128.5Q72 135 88 130Q108 125 147.5 119Q187 113 236 113Q318 113 357.5 137Q397 161 397 206Q397 249 364.5 267Q332 285 255 291Q199 296 160 305Q121 314 97 329.5Q73 345 62 367.5Q51 390 51 422Q51 494 108 533Q165 572 282 572L312 661Q320 687 346 687H364Q377 687 382.5 677Q388 667 383 654L350 567Q391 561 419 553Q431 549 435 541.5Q439 534 439 526V513Q439 503 432.5 496.5Q426 490 410 495Q390 500 352.5 505.5Q315 511 266 511Q188 511 152 490.5Q116 470 116 422Q116 383 151 369.5Q186 356 260 349Q315 344 353.5 335Q392 326 416.5 309.5Q441 293 452.5 268Q464 243 464 207Q464 139 406 95.5Q348 52 225 52Z" glyph-name="dollar.hybrid" horiz-adv-x="515" /><glyph d="M235 650Q235 671 249.5 685.5Q264 700 285 700Q306 700 320.5 685.5Q335 671 335 650Q335 629 320.5 614.5Q306 600 285 600Q264 600 249.5 614.5Q235 629 235 650Z" glyph-name="dotaccent" horiz-adv-x="570" unicode="&#729;" /><glyph d="M235 850Q235 871 249.5 885.5Q264 900 285 900Q306 900 320.5 885.5Q335 871 335 850Q335 829 320.5 814.5Q306 800 285 800Q264 800 249.5 814.5Q235 829 235 850Z" glyph-name="dotaccent.cap" horiz-adv-x="570" unicode="&#58408;" /><glyph d="M235 -150Q235 -129 249.5 -114.5Q264 -100 285 -100Q306 -100 320.5 -114.5Q335 -129 335 -150Q335 -171 320.5 -185.5Q306 -200 285 -200Q264 -200 249.5 -185.5Q235 -171 235 -150Z" glyph-name="dotbelow" horiz-adv-x="570" unicode="&#58389;" /><glyph d="M149 75Q149 61 154 55.5Q159 50 172 48Q195 45 195 24V18Q195 -6 167 -6Q120 -6 100.5 18Q81 42 81 76V468Q81 500 111 500H119Q149 500 149 468Z" glyph-name="dotlessi" horiz-adv-x="240" unicode="&#305;" /><glyph d="M-15 -255Q-47 -255 -47 -228V-223Q-47 -196 -15 -196Q36 -196 58.5 -171Q81 -146 81 -100V468Q81 500 111 500H119Q149 500 149 468V-105Q149 -142 136.5 -170Q124 -198 102.5 -217Q81 -236 51 -245.5Q21 -255 -15 -255Z" glyph-name="dotlessj" horiz-adv-x="230" unicode="&#567;" /><glyph d="M288 -174Q288 -206 258 -206H247Q217 -206 217 -174V784Q217 816 247 816H258Q288 816 288 784ZM158 -174Q158 -206 128 -206H117Q87 -206 87 -174V784Q87 816 117 816H128Q158 816 158 784Z" glyph-name="doublebar" horiz-adv-x="375" unicode="&#8214;" /><glyph d="M364 574Q366 565 361 557.5Q356 550 344 550H341Q320 550 311 573L255 714Q250 728 256 739Q262 750 277 750H292Q321 750 327 723ZM244 574Q246 565 241 557.5Q236 550 224 550H221Q200 550 191 573L135 714Q130 728 136 739Q142 750 157 750H172Q201 750 207 723Z" glyph-name="doublegrave" horiz-adv-x="570" unicode="&#58386;" /><glyph d="M357 827Q362 817 357.5 808.5Q353 800 342 800H333Q320 800 305 817L263 864Q258 870 257 876Q256 882 258.5 887.5Q261 893 266 896.5Q271 900 277 900H296Q320 900 332 876ZM237 827Q242 817 237.5 808.5Q233 800 222 800H213Q200 800 185 817L143 864Q138 870 137 876Q136 882 138.5 887.5Q141 893 146 896.5Q151 900 157 900H176Q200 900 212 876Z" glyph-name="doublegrave.cap" horiz-adv-x="570" unicode="&#58412;" /><glyph d="M265 -10Q202 -10 161 10.5Q120 31 96.5 66Q73 101 64 148.5Q55 196 55 250Q55 304 64 351.5Q73 399 96.5 434Q120 469 161 489.5Q202 510 265 510Q329 510 366.5 489.5Q404 469 423.5 434Q443 399 449 351.5Q455 304 455 250Q455 218 425 218H125Q126 185 132.5 155Q139 125 154 102Q169 79 196 65.5Q223 52 265 52Q322 52 352.5 58.5Q383 65 403 72Q419 77 426.5 71.5Q434 66 434 56V40Q434 32 430 25Q426 18 412 13Q388 4 351 -3Q314 -10 265 -10ZM265 448Q221 448 194.5 433.5Q168 419 153 395Q138 371 132 340Q126 309 125 275H385Q385 308 382.5 339.5Q380 371 368 395Q356 419 332 433.5Q308 448 265 448Z" glyph-name="e" horiz-adv-x="510" unicode="e" /><glyph d="M141 287H375Q405 287 405 258V255Q405 226 375 226H141V61H410Q440 61 440 32V29Q440 0 410 0H105Q75 0 75 32V468Q75 500 105 500H410Q440 500 440 471V468Q440 439 410 439H141Z" glyph-name="e.smcp" horiz-adv-x="500" unicode="&#57861;" /><glyph d="M87 444Q88 416 101 399Q114 382 152 382Q175 382 192 386.5Q209 391 216 393Q224 395 229 391.5Q234 388 234 381V363Q234 349 220 344Q209 341 188.5 337.5Q168 334 144 334Q81 334 55.5 369Q30 404 30 465Q30 525 55 560.5Q80 596 141 596Q174 596 194 586Q214 576 225 558.5Q236 541 239.5 518Q243 495 243 469V464Q243 444 224 444ZM141 547Q110 547 99.5 529.5Q89 512 87 483H187Q187 496 186 507.5Q185 519 180.5 528Q176 537 166.5 542Q157 547 141 547Z" glyph-name="e.superior" horiz-adv-x="273" unicode="&#58213;" /><glyph d="M265 -10Q202 -10 161 10.5Q120 31 96.5 66Q73 101 64 148.5Q55 196 55 250Q55 304 64 351.5Q73 399 96.5 434Q120 469 161 489.5Q202 510 265 510Q329 510 366.5 489.5Q404 469 423.5 434Q443 399 449 351.5Q455 304 455 250Q455 218 425 218H125Q126 185 132.5 155Q139 125 154 102Q169 79 196 65.5Q223 52 265 52Q322 52 352.5 58.5Q383 65 403 72Q419 77 426.5 71.5Q434 66 434 56V40Q434 32 430 25Q426 18 412 13Q388 4 351 -3Q314 -10 265 -10ZM265 448Q221 448 194.5 433.5Q168 419 153 395Q138 371 132 340Q126 309 125 275H385Q385 308 382.5 339.5Q380 371 368 395Q356 419 332 433.5Q308 448 265 448ZM283 723Q289 750 318 750H333Q348 750 354 739Q360 728 355 714L299 573Q290 550 269 550H266Q254 550 249 557.5Q244 565 246 574Z" glyph-name="eacute" horiz-adv-x="510" unicode="&#233;" /><glyph d="M141 287H375Q405 287 405 258V255Q405 226 375 226H141V61H410Q440 61 440 32V29Q440 0 410 0H105Q75 0 75 32V468Q75 500 105 500H410Q440 500 440 471V468Q440 439 410 439H141ZM283 723Q289 750 318 750H333Q348 750 354 739Q360 728 355 714L299 573Q290 550 269 550H266Q254 550 249 557.5Q244 565 246 574Z" glyph-name="eacute.smcp" horiz-adv-x="500" unicode="&#57917;" /><glyph d="M265 -10Q202 -10 161 10.5Q120 31 96.5 66Q73 101 64 148.5Q55 196 55 250Q55 304 64 351.5Q73 399 96.5 434Q120 469 161 489.5Q202 510 265 510Q329 510 366.5 489.5Q404 469 423.5 434Q443 399 449 351.5Q455 304 455 250Q455 218 425 218H125Q126 185 132.5 155Q139 125 154 102Q169 79 196 65.5Q223 52 265 52Q322 52 352.5 58.5Q383 65 403 72Q419 77 426.5 71.5Q434 66 434 56V40Q434 32 430 25Q426 18 412 13Q388 4 351 -3Q314 -10 265 -10ZM265 448Q221 448 194.5 433.5Q168 419 153 395Q138 371 132 340Q126 309 125 275H385Q385 308 382.5 339.5Q380 371 368 395Q356 419 332 433.5Q308 448 265 448ZM265 550Q216 550 183 565.5Q150 581 129.5 606Q109 631 100 662Q91 693 91 724Q91 750 115 750H118Q140 750 142 726Q146 671 172 640.5Q198 610 265 610Q332 610 358 640.5Q384 671 388 726Q390 750 412 750H415Q439 750 439 724Q439 693 430 662Q421 631 400.5 606Q380 581 347 565.5Q314 550 265 550Z" glyph-name="ebreve" horiz-adv-x="510" unicode="&#277;" /><glyph d="M141 287H375Q405 287 405 258V255Q405 226 375 226H141V61H410Q440 61 440 32V29Q440 0 410 0H105Q75 0 75 32V468Q75 500 105 500H410Q440 500 440 471V468Q440 439 410 439H141ZM265 550Q216 550 183 565.5Q150 581 129.5 606Q109 631 100 662Q91 693 91 724Q91 750 115 750H118Q140 750 142 726Q146 671 172 640.5Q198 610 265 610Q332 610 358 640.5Q384 671 388 726Q390 750 412 750H415Q439 750 439 724Q439 693 430 662Q421 631 400.5 606Q380 581 347 565.5Q314 550 265 550Z" glyph-name="ebreve.smcp" horiz-adv-x="500" unicode="&#57923;" /><glyph d="M265 -10Q202 -10 161 10.5Q120 31 96.5 66Q73 101 64 148.5Q55 196 55 250Q55 304 64 351.5Q73 399 96.5 434Q120 469 161 489.5Q202 510 265 510Q329 510 366.5 489.5Q404 469 423.5 434Q443 399 449 351.5Q455 304 455 250Q455 218 425 218H125Q126 185 132.5 155Q139 125 154 102Q169 79 196 65.5Q223 52 265 52Q322 52 352.5 58.5Q383 65 403 72Q419 77 426.5 71.5Q434 66 434 56V40Q434 32 430 25Q426 18 412 13Q388 4 351 -3Q314 -10 265 -10ZM265 448Q221 448 194.5 433.5Q168 419 153 395Q138 371 132 340Q126 309 125 275H385Q385 308 382.5 339.5Q380 371 368 395Q356 419 332 433.5Q308 448 265 448ZM98 724Q91 733 95 741.5Q99 750 109 750H115Q127 750 134.5 746.5Q142 743 151 733L265 609L379 733Q388 743 395.5 746.5Q403 750 415 750H421Q431 750 435 741.5Q439 733 432 724L318 569Q310 557 302.5 553.5Q295 550 283 550H247Q235 550 227.5 553.5Q220 557 212 569Z" glyph-name="ecaron" horiz-adv-x="510" unicode="&#283;" /><glyph d="M141 287H375Q405 287 405 258V255Q405 226 375 226H141V61H410Q440 61 440 32V29Q440 0 410 0H105Q75 0 75 32V468Q75 500 105 500H410Q440 500 440 471V468Q440 439 410 439H141ZM98 724Q91 733 95 741.5Q99 750 109 750H115Q127 750 134.5 746.5Q142 743 151 733L265 609L379 733Q388 743 395.5 746.5Q403 750 415 750H421Q431 750 435 741.5Q439 733 432 724L318 569Q310 557 302.5 553.5Q295 550 283 550H247Q235 550 227.5 553.5Q220 557 212 569Z" glyph-name="ecaron.smcp" horiz-adv-x="500" unicode="&#57921;" /><glyph d="M265 -10Q202 -10 161 10.5Q120 31 96.5 66Q73 101 64 148.5Q55 196 55 250Q55 304 64 351.5Q73 399 96.5 434Q120 469 161 489.5Q202 510 265 510Q329 510 366.5 489.5Q404 469 423.5 434Q443 399 449 351.5Q455 304 455 250Q455 218 425 218H125Q126 185 132.5 155Q139 125 154 102Q169 79 196 65.5Q223 52 265 52Q322 52 352.5 58.5Q383 65 403 72Q419 77 426.5 71.5Q434 66 434 56V40Q434 32 430 25Q426 18 412 13Q388 4 351 -3Q314 -10 265 -10ZM265 448Q221 448 194.5 433.5Q168 419 153 395Q138 371 132 340Q126 309 125 275H385Q385 308 382.5 339.5Q380 371 368 395Q356 419 332 433.5Q308 448 265 448ZM432 576Q439 567 435 558.5Q431 550 421 550H415Q403 550 395.5 553.5Q388 557 379 567L265 691L151 567Q142 557 134.5 553.5Q127 550 115 550H109Q99 550 95 558.5Q91 567 98 576L212 731Q220 743 227.5 746.5Q235 750 247 750H283Q295 750 302.5 746.5Q310 743 318 731Z" glyph-name="ecircumflex" horiz-adv-x="510" unicode="&#234;" /><glyph d="M141 287H375Q405 287 405 258V255Q405 226 375 226H141V61H410Q440 61 440 32V29Q440 0 410 0H105Q75 0 75 32V468Q75 500 105 500H410Q440 500 440 471V468Q440 439 410 439H141ZM432 576Q439 567 435 558.5Q431 550 421 550H415Q403 550 395.5 553.5Q388 557 379 567L265 691L151 567Q142 557 134.5 553.5Q127 550 115 550H109Q99 550 95 558.5Q91 567 98 576L212 731Q220 743 227.5 746.5Q235 750 247 750H283Q295 750 302.5 746.5Q310 743 318 731Z" glyph-name="ecircumflex.smcp" horiz-adv-x="500" unicode="&#57919;" /><glyph d="M265 -10Q202 -10 161 10.5Q120 31 96.5 66Q73 101 64 148.5Q55 196 55 250Q55 304 64 351.5Q73 399 96.5 434Q120 469 161 489.5Q202 510 265 510Q329 510 366.5 489.5Q404 469 423.5 434Q443 399 449 351.5Q455 304 455 250Q455 218 425 218H125Q126 185 132.5 155Q139 125 154 102Q169 79 196 65.5Q223 52 265 52Q322 52 352.5 58.5Q383 65 403 72Q419 77 426.5 71.5Q434 66 434 56V40Q434 32 430 25Q426 18 412 13Q388 4 351 -3Q314 -10 265 -10ZM265 448Q221 448 194.5 433.5Q168 419 153 395Q138 371 132 340Q126 309 125 275H385Q385 308 382.5 339.5Q380 371 368 395Q356 419 332 433.5Q308 448 265 448ZM310 650Q310 671 324.5 685.5Q339 700 360 700Q381 700 395.5 685.5Q410 671 410 650Q410 629 395.5 614.5Q381 600 360 600Q339 600 324.5 614.5Q310 629 310 650ZM120 650Q120 671 134.5 685.5Q149 700 170 700Q191 700 205.5 685.5Q220 671 220 650Q220 629 205.5 614.5Q191 600 170 600Q149 600 134.5 614.5Q120 629 120 650Z" glyph-name="edieresis" horiz-adv-x="510" unicode="&#235;" /><glyph d="M141 287H375Q405 287 405 258V255Q405 226 375 226H141V61H410Q440 61 440 32V29Q440 0 410 0H105Q75 0 75 32V468Q75 500 105 500H410Q440 500 440 471V468Q440 439 410 439H141ZM310 650Q310 671 324.5 685.5Q339 700 360 700Q381 700 395.5 685.5Q410 671 410 650Q410 629 395.5 614.5Q381 600 360 600Q339 600 324.5 614.5Q310 629 310 650ZM120 650Q120 671 134.5 685.5Q149 700 170 700Q191 700 205.5 685.5Q220 671 220 650Q220 629 205.5 614.5Q191 600 170 600Q149 600 134.5 614.5Q120 629 120 650Z" glyph-name="edieresis.smcp" horiz-adv-x="500" unicode="&#57904;" /><glyph d="M265 -10Q202 -10 161 10.5Q120 31 96.5 66Q73 101 64 148.5Q55 196 55 250Q55 304 64 351.5Q73 399 96.5 434Q120 469 161 489.5Q202 510 265 510Q329 510 366.5 489.5Q404 469 423.5 434Q443 399 449 351.5Q455 304 455 250Q455 218 425 218H125Q126 185 132.5 155Q139 125 154 102Q169 79 196 65.5Q223 52 265 52Q322 52 352.5 58.5Q383 65 403 72Q419 77 426.5 71.5Q434 66 434 56V40Q434 32 430 25Q426 18 412 13Q388 4 351 -3Q314 -10 265 -10ZM265 448Q221 448 194.5 433.5Q168 419 153 395Q138 371 132 340Q126 309 125 275H385Q385 308 382.5 339.5Q380 371 368 395Q356 419 332 433.5Q308 448 265 448ZM215 650Q215 671 229.5 685.5Q244 700 265 700Q286 700 300.5 685.5Q315 671 315 650Q315 629 300.5 614.5Q286 600 265 600Q244 600 229.5 614.5Q215 629 215 650Z" glyph-name="edotaccent" horiz-adv-x="510" unicode="&#279;" /><glyph d="M141 287H375Q405 287 405 258V255Q405 226 375 226H141V61H410Q440 61 440 32V29Q440 0 410 0H105Q75 0 75 32V468Q75 500 105 500H410Q440 500 440 471V468Q440 439 410 439H141ZM215 650Q215 671 229.5 685.5Q244 700 265 700Q286 700 300.5 685.5Q315 671 315 650Q315 629 300.5 614.5Q286 600 265 600Q244 600 229.5 614.5Q215 629 215 650Z" glyph-name="edotaccent.smcp" horiz-adv-x="500" unicode="&#57926;" /><glyph d="M265 -10Q202 -10 161 10.5Q120 31 96.5 66Q73 101 64 148.5Q55 196 55 250Q55 304 64 351.5Q73 399 96.5 434Q120 469 161 489.5Q202 510 265 510Q329 510 366.5 489.5Q404 469 423.5 434Q443 399 449 351.5Q455 304 455 250Q455 218 425 218H125Q126 185 132.5 155Q139 125 154 102Q169 79 196 65.5Q223 52 265 52Q322 52 352.5 58.5Q383 65 403 72Q419 77 426.5 71.5Q434 66 434 56V40Q434 32 430 25Q426 18 412 13Q388 4 351 -3Q314 -10 265 -10ZM265 448Q221 448 194.5 433.5Q168 419 153 395Q138 371 132 340Q126 309 125 275H385Q385 308 382.5 339.5Q380 371 368 395Q356 419 332 433.5Q308 448 265 448ZM284 574Q286 565 281 557.5Q276 550 264 550H261Q240 550 231 573L175 714Q170 728 176 739Q182 750 197 750H212Q241 750 247 723Z" glyph-name="egrave" horiz-adv-x="510" unicode="&#232;" /><glyph d="M141 287H375Q405 287 405 258V255Q405 226 375 226H141V61H410Q440 61 440 32V29Q440 0 410 0H105Q75 0 75 32V468Q75 500 105 500H410Q440 500 440 471V468Q440 439 410 439H141ZM284 574Q286 565 281 557.5Q276 550 264 550H261Q240 550 231 573L175 714Q170 728 176 739Q182 750 197 750H212Q241 750 247 723Z" glyph-name="egrave.smcp" horiz-adv-x="500" unicode="&#57918;" /><glyph d="M300 420Q342 420 371.5 431.5Q401 443 419.5 462Q438 481 446 504.5Q454 528 454 552Q454 577 448 603Q442 629 425 650Q408 671 378 684.5Q348 698 300 698Q252 698 222 684.5Q192 671 175 650Q158 629 152 603Q146 577 146 552Q146 528 154 504.5Q162 481 180.5 462Q199 443 228.5 431.5Q258 420 300 420ZM300 358Q212 358 166.5 322.5Q121 287 121 211Q121 184 129 156Q137 128 157.5 104.5Q178 81 212.5 66.5Q247 52 300 52Q353 52 387.5 66.5Q422 81 442.5 104.5Q463 128 471 156Q479 184 479 211Q479 287 433.5 322.5Q388 358 300 358ZM300 -10Q230 -10 181.5 8Q133 26 103 56.5Q73 87 60 127Q47 167 47 211Q47 239 54.5 268Q62 297 77 322Q92 347 115.5 366.5Q139 386 171 395Q122 418 97 460.5Q72 503 72 552Q72 593 83.5 630.5Q95 668 122 697Q149 726 192.5 743Q236 760 300 760Q364 760 407.5 743Q451 726 478 697Q505 668 516.5 630.5Q528 593 528 552Q528 503 503 460.5Q478 418 429 395Q461 386 484.5 366.5Q508 347 523 322Q538 297 545.5 268Q553 239 553 211Q553 167 540 127Q527 87 497 56.5Q467 26 418.5 8Q370 -10 300 -10Z" glyph-name="eight" horiz-adv-x="600" unicode="8" /><glyph d="M285 420Q327 420 356.5 431.5Q386 443 404.5 462Q423 481 431 504.5Q439 528 439 552Q439 577 433 603Q427 629 410 650Q393 671 363 684.5Q333 698 285 698Q237 698 207 684.5Q177 671 160 650Q143 629 137 603Q131 577 131 552Q131 528 139 504.5Q147 481 165.5 462Q184 443 213.5 431.5Q243 420 285 420ZM285 358Q197 358 151.5 322.5Q106 287 106 211Q106 184 114 156Q122 128 142.5 104.5Q163 81 197.5 66.5Q232 52 285 52Q338 52 372.5 66.5Q407 81 427.5 104.5Q448 128 456 156Q464 184 464 211Q464 287 418.5 322.5Q373 358 285 358ZM285 -10Q215 -10 166.5 8Q118 26 88 56.5Q58 87 45 127Q32 167 32 211Q32 239 39.5 268Q47 297 62 322Q77 347 100.5 366.5Q124 386 156 395Q107 418 82 460.5Q57 503 57 552Q57 593 68.5 630.5Q80 668 107 697Q134 726 177.5 743Q221 760 285 760Q349 760 392.5 743Q436 726 463 697Q490 668 501.5 630.5Q513 593 513 552Q513 503 488 460.5Q463 418 414 395Q446 386 469.5 366.5Q493 347 508 322Q523 297 530.5 268Q538 239 538 211Q538 167 525 127Q512 87 482 56.5Q452 26 403.5 8Q355 -10 285 -10Z" glyph-name="eight.LP" horiz-adv-x="570" unicode="&#58685;" /><glyph d="M300 420Q342 420 371.5 431.5Q401 443 419.5 462Q438 481 446 504.5Q454 528 454 552Q454 577 448 603Q442 629 425 650Q408 671 378 684.5Q348 698 300 698Q252 698 222 684.5Q192 671 175 650Q158 629 152 603Q146 577 146 552Q146 528 154 504.5Q162 481 180.5 462Q199 443 228.5 431.5Q258 420 300 420ZM300 358Q212 358 166.5 322.5Q121 287 121 211Q121 184 129 156Q137 128 157.5 104.5Q178 81 212.5 66.5Q247 52 300 52Q353 52 387.5 66.5Q422 81 442.5 104.5Q463 128 471 156Q479 184 479 211Q479 287 433.5 322.5Q388 358 300 358ZM300 -10Q230 -10 181.5 8Q133 26 103 56.5Q73 87 60 127Q47 167 47 211Q47 239 54.5 268Q62 297 77 322Q92 347 115.5 366.5Q139 386 171 395Q122 418 97 460.5Q72 503 72 552Q72 593 83.5 630.5Q95 668 122 697Q149 726 192.5 743Q236 760 300 760Q364 760 407.5 743Q451 726 478 697Q505 668 516.5 630.5Q528 593 528 552Q528 503 503 460.5Q478 418 429 395Q461 386 484.5 366.5Q508 347 523 322Q538 297 545.5 268Q553 239 553 211Q553 167 540 127Q527 87 497 56.5Q467 26 418.5 8Q370 -10 300 -10Z" glyph-name="eight.LT" horiz-adv-x="600" unicode="&#58696;" /><glyph d="M285 420Q327 420 356.5 431.5Q386 443 404.5 462Q423 481 431 504.5Q439 528 439 552Q439 577 433 603Q427 629 410 650Q393 671 363 684.5Q333 698 285 698Q237 698 207 684.5Q177 671 160 650Q143 629 137 603Q131 577 131 552Q131 528 139 504.5Q147 481 165.5 462Q184 443 213.5 431.5Q243 420 285 420ZM285 358Q197 358 151.5 322.5Q106 287 106 211Q106 184 114 156Q122 128 142.5 104.5Q163 81 197.5 66.5Q232 52 285 52Q338 52 372.5 66.5Q407 81 427.5 104.5Q448 128 456 156Q464 184 464 211Q464 287 418.5 322.5Q373 358 285 358ZM285 -10Q215 -10 166.5 8Q118 26 88 56.5Q58 87 45 127Q32 167 32 211Q32 239 39.5 268Q47 297 62 322Q77 347 100.5 366.5Q124 386 156 395Q107 418 82 460.5Q57 503 57 552Q57 593 68.5 630.5Q80 668 107 697Q134 726 177.5 743Q221 760 285 760Q349 760 392.5 743Q436 726 463 697Q490 668 501.5 630.5Q513 593 513 552Q513 503 488 460.5Q463 418 414 395Q446 386 469.5 366.5Q493 347 508 322Q523 297 530.5 268Q538 239 538 211Q538 167 525 127Q512 87 482 56.5Q452 26 403.5 8Q355 -10 285 -10Z" glyph-name="eight.OP" horiz-adv-x="570" unicode="&#58707;" /><glyph d="M300 420Q342 420 371.5 431.5Q401 443 419.5 462Q438 481 446 504.5Q454 528 454 552Q454 577 448 603Q442 629 425 650Q408 671 378 684.5Q348 698 300 698Q252 698 222 684.5Q192 671 175 650Q158 629 152 603Q146 577 146 552Q146 528 154 504.5Q162 481 180.5 462Q199 443 228.5 431.5Q258 420 300 420ZM300 358Q212 358 166.5 322.5Q121 287 121 211Q121 184 129 156Q137 128 157.5 104.5Q178 81 212.5 66.5Q247 52 300 52Q353 52 387.5 66.5Q422 81 442.5 104.5Q463 128 471 156Q479 184 479 211Q479 287 433.5 322.5Q388 358 300 358ZM300 -10Q230 -10 181.5 8Q133 26 103 56.5Q73 87 60 127Q47 167 47 211Q47 239 54.5 268Q62 297 77 322Q92 347 115.5 366.5Q139 386 171 395Q122 418 97 460.5Q72 503 72 552Q72 593 83.5 630.5Q95 668 122 697Q149 726 192.5 743Q236 760 300 760Q364 760 407.5 743Q451 726 478 697Q505 668 516.5 630.5Q528 593 528 552Q528 503 503 460.5Q478 418 429 395Q461 386 484.5 366.5Q508 347 523 322Q538 297 545.5 268Q553 239 553 211Q553 167 540 127Q527 87 497 56.5Q467 26 418.5 8Q370 -10 300 -10Z" glyph-name="eight.OT" horiz-adv-x="600" unicode="&#58718;" /><glyph d="M241 51Q281 51 307 59Q333 67 348.5 80Q364 93 370 110.5Q376 128 376 146Q376 164 370 181.5Q364 199 348.5 212Q333 225 307 233Q281 241 241 241Q201 241 175 233Q149 225 133.5 212Q118 199 112 181.5Q106 164 106 146Q106 128 112 110.5Q118 93 133.5 80Q149 67 175 59Q201 51 241 51ZM241 -10Q180 -10 140.5 2.5Q101 15 77.5 36Q54 57 44.5 85.5Q35 114 35 146Q35 191 57.5 226Q80 261 115 275Q92 287 75.5 312.5Q59 338 59 375Q59 406 67.5 431.5Q76 457 97 474Q118 491 153 500.5Q188 510 241 510Q294 510 329 500.5Q364 491 385 474Q406 457 414.5 431.5Q423 406 423 375Q423 338 406.5 312.5Q390 287 367 275Q402 261 424.5 226Q447 191 447 146Q447 114 437.5 85.5Q428 57 404.5 36Q381 15 341.5 2.5Q302 -10 241 -10ZM241 302Q275 302 297.5 307.5Q320 313 333 323Q346 333 351 346.5Q356 360 356 375Q356 390 351 403.5Q346 417 333 427Q320 437 297.5 443Q275 449 241 449Q207 449 185 443Q163 437 150 427Q137 417 131.5 403.5Q126 390 126 375Q126 360 131.5 346.5Q137 333 150 323Q163 313 185 307.5Q207 302 241 302Z" glyph-name="eight.XP" horiz-adv-x="482" /><glyph d="M300 -10Q227 -10 180.5 3.5Q134 17 107 39.5Q80 62 70 91.5Q60 121 60 153Q60 175 68.5 195Q77 215 90.5 231Q104 247 122 258Q140 269 158 274Q131 281 107.5 306.5Q84 332 84 369Q84 400 94 426Q104 452 128.5 471Q153 490 195 500Q237 510 300 510Q363 510 405 500Q447 490 471.5 471Q496 452 506 426Q516 400 516 369Q516 332 492.5 306.5Q469 281 442 274Q460 269 478 258Q496 247 509.5 231Q523 215 531.5 195Q540 175 540 153Q540 121 530 91.5Q520 62 493 39.5Q466 17 419.5 3.5Q373 -10 300 -10ZM300 51Q353 51 386 59Q419 67 437.5 80Q456 93 462.5 110.5Q469 128 469 146Q469 166 464.5 183Q460 200 442.5 212.5Q425 225 391.5 232Q358 239 300 239Q242 239 208.5 232Q175 225 157.5 212.5Q140 200 135.5 183Q131 166 131 146Q131 128 137.5 110.5Q144 93 162.5 80Q181 67 214 59Q247 51 300 51ZM300 299Q349 299 378.5 305Q408 311 424 321.5Q440 332 444.5 346Q449 360 449 375Q449 390 442.5 403.5Q436 417 419.5 427Q403 437 374 443Q345 449 300 449Q255 449 226 443Q197 437 180.5 427Q164 417 157.5 403.5Q151 390 151 375Q151 360 155.5 346Q160 332 176 321.5Q192 311 221 305Q250 299 300 299Z" glyph-name="eight.XT" horiz-adv-x="600" /><glyph d="M285 420Q327 420 356.5 431.5Q386 443 404.5 462Q423 481 431 504.5Q439 528 439 552Q439 577 433 603Q427 629 410 650Q393 671 363 684.5Q333 698 285 698Q237 698 207 684.5Q177 671 160 650Q143 629 137 603Q131 577 131 552Q131 528 139 504.5Q147 481 165.5 462Q184 443 213.5 431.5Q243 420 285 420ZM285 358Q197 358 151.5 322.5Q106 287 106 211Q106 184 114 156Q122 128 142.5 104.5Q163 81 197.5 66.5Q232 52 285 52Q338 52 372.5 66.5Q407 81 427.5 104.5Q448 128 456 156Q464 184 464 211Q464 287 418.5 322.5Q373 358 285 358ZM285 -10Q215 -10 166.5 8Q118 26 88 56.5Q58 87 45 127Q32 167 32 211Q32 239 39.5 268Q47 297 62 322Q77 347 100.5 366.5Q124 386 156 395Q107 418 82 460.5Q57 503 57 552Q57 593 68.5 630.5Q80 668 107 697Q134 726 177.5 743Q221 760 285 760Q349 760 392.5 743Q436 726 463 697Q490 668 501.5 630.5Q513 593 513 552Q513 503 488 460.5Q463 418 414 395Q446 386 469.5 366.5Q493 347 508 322Q523 297 530.5 268Q538 239 538 211Q538 167 525 127Q512 87 482 56.5Q452 26 403.5 8Q355 -10 285 -10Z" glyph-name="eight.hybrid" horiz-adv-x="570" /><glyph d="M206 -199Q265 -199 286.5 -178.5Q308 -158 308 -130Q308 -103 286.5 -83Q265 -63 206 -63Q147 -63 125 -83Q103 -103 103 -130Q103 -158 125 -178.5Q147 -199 206 -199ZM206 -260Q158 -260 125.5 -250.5Q93 -241 73 -223.5Q53 -206 44 -182.5Q35 -159 35 -132Q35 -96 52 -67.5Q69 -39 95 -28Q78 -19 66 2Q54 23 54 51Q54 78 61.5 100Q69 122 87 137Q105 152 134 160.5Q163 169 206 169Q248 169 277 160.5Q306 152 324 137Q342 122 349.5 100Q357 78 357 51Q357 23 345 2Q333 -19 316 -28Q343 -39 359.5 -67.5Q376 -96 376 -132Q376 -159 367.5 -182.5Q359 -206 339 -223.5Q319 -241 286.5 -250.5Q254 -260 206 -260ZM206 -5Q233 -5 250 -0.5Q267 4 276 11.5Q285 19 288.5 29.5Q292 40 292 51Q292 62 288.5 72Q285 82 276 90Q267 98 250 102.5Q233 107 206 107Q179 107 162 102.5Q145 98 135.5 90Q126 82 122.5 72Q119 62 119 51Q119 40 122.5 29.5Q126 19 135.5 11.5Q145 4 162 -0.5Q179 -5 206 -5Z" glyph-name="eight.inf" horiz-adv-x="411" unicode="&#58745;" /><glyph d="M760 40Q760 61 774.5 75.5Q789 90 810 90Q831 90 845.5 75.5Q860 61 860 40Q860 19 845.5 4.5Q831 -10 810 -10Q789 -10 774.5 4.5Q760 19 760 40ZM430 40Q430 61 444.5 75.5Q459 90 480 90Q501 90 515.5 75.5Q530 61 530 40Q530 19 515.5 4.5Q501 -10 480 -10Q459 -10 444.5 4.5Q430 19 430 40ZM100 40Q100 61 114.5 75.5Q129 90 150 90Q171 90 185.5 75.5Q200 61 200 40Q200 19 185.5 4.5Q171 -10 150 -10Q129 -10 114.5 4.5Q100 19 100 40Z" glyph-name="ellipsis" horiz-adv-x="960" unicode="&#8230;" /><glyph d="M265 -10Q202 -10 161 10.5Q120 31 96.5 66Q73 101 64 148.5Q55 196 55 250Q55 304 64 351.5Q73 399 96.5 434Q120 469 161 489.5Q202 510 265 510Q329 510 366.5 489.5Q404 469 423.5 434Q443 399 449 351.5Q455 304 455 250Q455 218 425 218H125Q126 185 132.5 155Q139 125 154 102Q169 79 196 65.5Q223 52 265 52Q322 52 352.5 58.5Q383 65 403 72Q419 77 426.5 71.5Q434 66 434 56V40Q434 32 430 25Q426 18 412 13Q388 4 351 -3Q314 -10 265 -10ZM265 448Q221 448 194.5 433.5Q168 419 153 395Q138 371 132 340Q126 309 125 275H385Q385 308 382.5 339.5Q380 371 368 395Q356 419 332 433.5Q308 448 265 448ZM373 680Q402 680 402 652V648Q402 620 373 620H157Q128 620 128 648V652Q128 680 157 680Z" glyph-name="emacron" horiz-adv-x="510" unicode="&#275;" /><glyph d="M141 287H375Q405 287 405 258V255Q405 226 375 226H141V61H410Q440 61 440 32V29Q440 0 410 0H105Q75 0 75 32V468Q75 500 105 500H410Q440 500 440 471V468Q440 439 410 439H141ZM373 680Q402 680 402 652V648Q402 620 373 620H157Q128 620 128 648V652Q128 680 157 680Z" glyph-name="emacron.smcp" horiz-adv-x="500" unicode="&#57922;" /><glyph d="M925 338Q955 338 955 309V301Q955 272 925 272H75Q45 272 45 301V309Q45 338 75 338Z" glyph-name="emdash" horiz-adv-x="1000" unicode="&#8212;" /><glyph d="M925 408Q955 408 955 379V371Q955 342 925 342H75Q45 342 45 371V379Q45 408 75 408Z" glyph-name="emdash.cap" horiz-adv-x="1000" unicode="&#58502;" /><glyph glyph-name="emspace" horiz-adv-x="1000" unicode="&#8195;" /><glyph d="M425 338Q455 338 455 309V301Q455 272 425 272H75Q45 272 45 301V309Q45 338 75 338Z" glyph-name="endash" horiz-adv-x="500" unicode="&#8211;" /><glyph d="M425 408Q455 408 455 379V371Q455 342 425 342H75Q45 342 45 371V379Q45 408 75 408Z" glyph-name="endash.cap" horiz-adv-x="500" unicode="&#58500;" /><glyph d="M276 -255Q244 -255 244 -228V-223Q244 -196 276 -196Q327 -196 348.5 -170.5Q370 -145 370 -99V363Q370 412 343.5 430Q317 448 270 448Q221 448 191.5 439.5Q162 431 135 416V32Q135 0 105 0H95Q65 0 65 32V477Q65 500 86 500H88Q99 500 103.5 494Q108 488 113 475L119 458Q189 510 270 510Q360 510 400 471Q440 432 440 360V-105Q440 -142 427.5 -170Q415 -198 393.5 -217Q372 -236 342 -245.5Q312 -255 276 -255Z" glyph-name="eng" horiz-adv-x="500" unicode="&#331;" /><glyph d="M495 32Q495 17 489 8.5Q483 0 468 0H465Q451 0 437 17L140 378L141 32Q141 0 111 0H105Q75 0 75 32V468Q75 483 81 491.5Q87 500 102 500H105Q119 500 133 483L430 122L429 468Q429 500 459 500H465Q495 500 495 468Z" glyph-name="eng.smcp" horiz-adv-x="570" unicode="&#58155;" /><glyph glyph-name="enspace" horiz-adv-x="500" unicode="&#8194;" /><glyph d="M265 -10Q202 -10 161 10.5Q120 31 96.5 66Q73 101 64 148.5Q55 196 55 250Q55 304 64 351.5Q73 399 96.5 434Q120 469 161 489.5Q202 510 265 510Q329 510 366.5 489.5Q404 469 423.5 434Q443 399 449 351.5Q455 304 455 250Q455 218 425 218H125Q126 185 132.5 155Q139 125 154 102Q169 79 196 65.5Q223 52 265 52Q322 52 352.5 58.5Q383 65 403 72Q419 77 426.5 71.5Q434 66 434 56V40Q434 32 430 25Q426 18 412 13Q403 9 393.5 6Q384 3 372 -1Q343 -10 322.5 -26Q302 -42 288.5 -61.5Q275 -81 268.5 -102Q262 -123 262 -142Q262 -168 274.5 -183.5Q287 -199 316 -199Q326 -199 335 -198Q344 -197 348 -196Q362 -193 367.5 -198.5Q373 -204 373 -212V-218Q373 -226 369 -234Q365 -242 351 -245Q341 -247 330 -248.5Q319 -250 302 -250Q252 -250 226.5 -223Q201 -196 201 -155Q201 -115 220 -77.5Q239 -40 276 -10ZM265 448Q221 448 194.5 433.5Q168 419 153 395Q138 371 132 340Q126 309 125 275H385Q385 308 382.5 339.5Q380 371 368 395Q356 419 332 433.5Q308 448 265 448Z" glyph-name="eogonek" horiz-adv-x="510" unicode="&#281;" /><glyph d="M141 287H375Q405 287 405 258V255Q405 226 375 226H141V61H410Q440 61 440 32V29Q440 11 426 2Q414 -6 398 -21.5Q382 -37 367.5 -56.5Q353 -76 343.5 -98Q334 -120 334 -142Q334 -168 346.5 -183.5Q359 -199 388 -199Q398 -199 407 -198Q416 -197 420 -196Q434 -193 439.5 -198.5Q445 -204 445 -212V-218Q445 -226 441 -234Q437 -242 423 -245Q413 -247 402 -248.5Q391 -250 374 -250Q324 -250 298.5 -223Q273 -196 273 -155Q273 -101 298 -63.5Q323 -26 357 0H105Q75 0 75 32V468Q75 500 105 500H410Q440 500 440 471V468Q440 439 410 439H141Z" glyph-name="eogonek.smcp" horiz-adv-x="500" unicode="&#57929;" /><glyph d="M415 308Q445 308 445 279V271Q445 242 415 242H75Q45 242 45 271V279Q45 308 75 308ZM415 440Q445 440 445 411V403Q445 374 415 374H75Q45 374 45 403V411Q45 440 75 440Z" glyph-name="equal" horiz-adv-x="490" unicode="=" /><glyph d="M785 308Q815 308 815 279V271Q815 242 785 242H95Q65 242 65 271V279Q65 308 95 308ZM785 508Q815 508 815 479V471Q815 442 785 442H95Q65 442 65 471V479Q65 508 95 508Z" glyph-name="equal.cap" horiz-adv-x="880" unicode="&#58773;" /><glyph d="M315 -78Q345 -78 345 -107V-115Q345 -144 315 -144H75Q45 -144 45 -115V-107Q45 -78 75 -78ZM315 54Q345 54 345 25V17Q345 -12 315 -12H75Q45 -12 45 17V25Q45 54 75 54Z" glyph-name="equal.inf" horiz-adv-x="390" unicode="&#58749;" /><glyph d="M385 696Q324 696 276.5 677.5Q229 659 194 624V408H576V624Q541 659 493.5 677.5Q446 696 385 696ZM735 371Q735 342 705 342H194V126Q229 91 276.5 72.5Q324 54 385 54Q427 54 462.5 63Q498 72 525.5 87.5Q553 103 573 123Q593 143 605 165Q612 178 620.5 184Q629 190 643 190H666Q677 190 685 180.5Q693 171 684 154Q677 140 658.5 113Q640 86 605 58.5Q570 31 516 10.5Q462 -10 385 -10Q293 -10 227 22.5Q161 55 118 109Q75 163 55 232Q35 301 35 375Q35 448 55 517.5Q75 587 118 641Q161 695 227 727.5Q293 760 385 760Q478 760 544 727.5Q610 695 652.5 641Q695 587 715 517.5Q735 448 735 375Z" glyph-name="estimated" horiz-adv-x="770" unicode="&#8494;" /><glyph d="M425 250Q425 292 420 328.5Q415 365 399 391.5Q383 418 353.5 433Q324 448 275 448Q225 448 195.5 433Q166 418 150.5 391.5Q135 365 130 328.5Q125 292 125 250Q125 208 130 171.5Q135 135 150.5 108.5Q166 82 195.5 67Q225 52 275 52Q324 52 353.5 67Q383 82 399 108.5Q415 135 420 171.5Q425 208 425 250ZM245 661Q194 699 128 723Q114 728 115 739Q116 750 129 750H199Q216 750 228 745.5Q240 741 254 732Q281 714 306 692L391 736Q405 744 415 737Q425 730 425 717V713Q425 701 421.5 695Q418 689 408 683L347 652Q416 576 455.5 472.5Q495 369 495 250Q495 193 485 145Q475 97 449.5 62.5Q424 28 381.5 9Q339 -10 275 -10Q211 -10 168.5 9Q126 28 101 62.5Q76 97 65.5 145Q55 193 55 250Q55 307 65.5 355Q76 403 101 437.5Q126 472 168.5 491Q211 510 275 510Q306 510 332 503Q358 496 381 484Q364 519 342 554.5Q320 590 289 622L169 560Q155 552 145 559Q135 566 135 579V583Q135 595 138.5 601Q142 607 152 613Z" glyph-name="eth" horiz-adv-x="550" unicode="&#240;" /><glyph d="M282 61Q332 61 365 74.5Q398 88 418 113Q438 138 446.5 173Q455 208 455 250Q455 292 446.5 327Q438 362 418 387Q398 412 365 425.5Q332 439 282 439H181V277H274Q301 277 301 251V248Q301 222 274 222H181V61ZM145 0Q115 0 115 32V222H52Q25 222 25 248V251Q25 277 52 277H115V468Q115 500 145 500H283Q347 500 393 482.5Q439 465 468.5 432.5Q498 400 511.5 353.5Q525 307 525 250Q525 193 511.5 146.5Q498 100 468.5 67.5Q439 35 393 17.5Q347 0 283 0Z" glyph-name="eth.smcp" horiz-adv-x="585" unicode="&#58156;" /><glyph d="M45 40Q45 61 59.5 75.5Q74 90 95 90Q116 90 130.5 75.5Q145 61 145 40Q145 19 130.5 4.5Q116 -10 95 -10Q74 -10 59.5 4.5Q45 19 45 40ZM93 210Q75 210 74 228L47 718Q46 731 53.5 740.5Q61 750 77 750H113Q129 750 136.5 740.5Q144 731 143 718L116 228Q114 210 97 210Z" glyph-name="exclam" horiz-adv-x="190" unicode="!" /><glyph d="M145 460Q145 439 130.5 424.5Q116 410 95 410Q74 410 59.5 424.5Q45 439 45 460Q45 481 59.5 495.5Q74 510 95 510Q116 510 130.5 495.5Q145 481 145 460ZM97 290Q114 290 116 272L143 -218Q144 -231 136.5 -240.5Q129 -250 113 -250H77Q61 -250 53.5 -240.5Q46 -231 47 -218L74 272Q75 290 93 290Z" glyph-name="exclamdown" horiz-adv-x="190" unicode="&#161;" /><glyph d="M145 710Q145 689 130.5 674.5Q116 660 95 660Q74 660 59.5 674.5Q45 689 45 710Q45 731 59.5 745.5Q74 760 95 760Q116 760 130.5 745.5Q145 731 145 710ZM97 540Q114 540 116 522L143 32Q144 19 136.5 9.5Q129 0 113 0H77Q61 0 53.5 9.5Q46 19 47 32L74 522Q75 540 93 540Z" glyph-name="exclamdown.cap" horiz-adv-x="190" unicode="&#58433;" /><glyph d="M120 610Q120 682 163 721Q206 760 300 760Q325 760 346 757Q361 755 365.5 746.5Q370 738 370 730V718Q370 708 362.5 701Q355 694 338 696Q332 697 324 697.5Q316 698 300 698Q251 698 219 678.5Q187 659 187 610V500H318Q345 500 345 474V471Q345 445 318 445H187V32Q187 0 157 0H150Q120 0 120 32V445H38Q30 445 23 449Q16 453 16 463Q16 472 21.5 476.5Q27 481 38 484L120 503Z" glyph-name="f" horiz-adv-x="375" unicode="f" /><glyph d="M141 226V32Q141 0 111 0H105Q75 0 75 32V468Q75 500 105 500H400Q430 500 430 471V468Q430 439 400 439H141V287H365Q395 287 395 258V255Q395 226 365 226Z" glyph-name="f.smcp" horiz-adv-x="480" unicode="&#57862;" /><glyph d="M152 672Q133 672 120 664Q107 656 107 634V590H158Q177 590 177 570V562Q177 542 158 542H107V360Q107 340 88 340H70Q51 340 51 360V542H22Q5 542 5 558V563Q5 577 20 581L51 590V639Q51 680 74 700.5Q97 721 148 721Q163 721 175 718Q189 715 189 700V681Q189 665 171 670Q166 671 161.5 671.5Q157 672 152 672Z" glyph-name="f.superior" horiz-adv-x="194" unicode="&#58214;" /><glyph d="M524 75Q524 61 529 55.5Q534 50 547 48Q570 45 570 24V18Q570 -6 542 -6Q495 -6 475.5 18Q456 42 456 76V468Q456 500 486 500H494Q524 500 524 468ZM120 610Q120 682 163 721Q206 760 300 760Q325 760 346 757Q361 755 365.5 746.5Q370 738 370 730V718Q370 708 362.5 701Q355 694 338 696Q332 697 324 697.5Q316 698 300 698Q251 698 219 678.5Q187 659 187 610V500H318Q345 500 345 474V471Q345 445 318 445H187V32Q187 0 157 0H150Q120 0 120 32V445H38Q30 445 23 449Q16 453 16 463Q16 472 21.5 476.5Q27 481 38 484L120 503Z" glyph-name="f_dotlessi" horiz-adv-x="615" /><glyph d="M524 75Q524 61 529 55.5Q534 50 547 48Q570 45 570 24V18Q570 -6 542 -6Q495 -6 475.5 18Q456 42 456 76V468Q456 500 486 500H494Q524 500 524 468ZM440 650Q440 671 454.5 685.5Q469 700 490 700Q511 700 525.5 685.5Q540 671 540 650Q540 629 525.5 614.5Q511 600 490 600Q469 600 454.5 614.5Q440 629 440 650ZM120 610Q120 682 163 721Q206 760 300 760Q325 760 346 757Q361 755 365.5 746.5Q370 738 370 730V718Q370 708 362.5 701Q355 694 338 696Q332 697 324 697.5Q316 698 300 698Q251 698 219 678.5Q187 659 187 610V500H318Q345 500 345 474V471Q345 445 318 445H187V32Q187 0 157 0H150Q120 0 120 32V445H38Q30 445 23 449Q16 453 16 463Q16 472 21.5 476.5Q27 481 38 484L120 503Z" glyph-name="fi" horiz-adv-x="615" unicode="&#64257;" /><glyph d="M495 338Q525 338 525 309V301Q525 272 495 272H75Q45 272 45 301V309Q45 338 75 338Z" glyph-name="figuredash" horiz-adv-x="570" unicode="&#8210;" /><glyph d="M495 408Q525 408 525 379V371Q525 342 495 342H75Q45 342 45 371V379Q45 408 75 408Z" glyph-name="figuredash.cap" horiz-adv-x="570" unicode="&#58503;" /><glyph glyph-name="figurespace" horiz-adv-x="570" unicode="&#8199;" /><glyph d="M244 -10Q166 -10 102 13Q88 18 84 25Q80 32 80 40V53Q80 64 88 71.5Q96 79 110 74Q135 66 167.5 59Q200 52 245 52Q276 52 312 58Q348 64 378 83.5Q408 103 428 138.5Q448 174 448 233Q448 290 430.5 320.5Q413 351 385 365Q357 379 321.5 381Q286 383 250 383H140Q110 383 110 415V718Q110 750 140 750H475Q505 750 505 721V717Q505 688 475 688H178V443Q201 445 227 446.5Q253 448 273 448Q318 448 362.5 441.5Q407 435 442 412.5Q477 390 498.5 347.5Q520 305 520 233Q520 152 493 104Q466 56 425 30.5Q384 5 335.5 -2.5Q287 -10 244 -10Z" glyph-name="five" horiz-adv-x="600" unicode="5" /><glyph d="M223 -10Q145 -10 81 13Q67 18 63 25Q59 32 59 40V53Q59 64 67 71.5Q75 79 89 74Q114 66 146.5 59Q179 52 224 52Q255 52 291 58Q327 64 357 83.5Q387 103 407 138.5Q427 174 427 233Q427 290 409.5 320.5Q392 351 364 365Q336 379 300.5 381Q265 383 229 383H119Q89 383 89 415V718Q89 750 119 750H454Q484 750 484 721V717Q484 688 454 688H157V443Q180 445 206 446.5Q232 448 252 448Q297 448 341.5 441.5Q386 435 421 412.5Q456 390 477.5 347.5Q499 305 499 233Q499 152 472 104Q445 56 404 30.5Q363 5 314.5 -2.5Q266 -10 223 -10Z" glyph-name="five.LP" horiz-adv-x="570" unicode="&#58682;" /><glyph d="M244 -10Q166 -10 102 13Q88 18 84 25Q80 32 80 40V53Q80 64 88 71.5Q96 79 110 74Q135 66 167.5 59Q200 52 245 52Q276 52 312 58Q348 64 378 83.5Q408 103 428 138.5Q448 174 448 233Q448 290 430.5 320.5Q413 351 385 365Q357 379 321.5 381Q286 383 250 383H140Q110 383 110 415V718Q110 750 140 750H475Q505 750 505 721V717Q505 688 475 688H178V443Q201 445 227 446.5Q253 448 273 448Q318 448 362.5 441.5Q407 435 442 412.5Q477 390 498.5 347.5Q520 305 520 233Q520 152 493 104Q466 56 425 30.5Q384 5 335.5 -2.5Q287 -10 244 -10Z" glyph-name="five.LT" horiz-adv-x="600" unicode="&#58693;" /><glyph d="M203 -260Q125 -260 61 -237Q47 -232 43 -225Q39 -218 39 -210V-197Q39 -186 47 -178.5Q55 -171 69 -176Q94 -184 126.5 -191Q159 -198 204 -198Q235 -198 271 -192Q307 -186 337 -166.5Q367 -147 387 -111.5Q407 -76 407 -17Q407 40 389.5 70.5Q372 101 344 115Q316 129 280.5 131Q245 133 209 133H99Q69 133 69 165V468Q69 500 99 500H434Q464 500 464 471V467Q464 438 434 438H137V193Q160 195 186 196.5Q212 198 232 198Q277 198 321.5 191.5Q366 185 401 162.5Q436 140 457.5 97.5Q479 55 479 -17Q479 -98 452 -146Q425 -194 384 -219.5Q343 -245 294.5 -252.5Q246 -260 203 -260Z" glyph-name="five.OP" horiz-adv-x="500" unicode="&#58688;" /><glyph d="M248 -260Q170 -260 106 -237Q92 -232 88 -225Q84 -218 84 -210V-197Q84 -186 92 -178.5Q100 -171 114 -176Q139 -184 171.5 -191Q204 -198 249 -198Q280 -198 316 -192Q352 -186 382 -166.5Q412 -147 432 -111.5Q452 -76 452 -17Q452 40 434.5 70.5Q417 101 389 115Q361 129 325.5 131Q290 133 254 133H144Q114 133 114 165V468Q114 500 144 500H479Q509 500 509 471V467Q509 438 479 438H182V193Q205 195 231 196.5Q257 198 277 198Q322 198 366.5 191.5Q411 185 446 162.5Q481 140 502.5 97.5Q524 55 524 -17Q524 -98 497 -146Q470 -194 429 -219.5Q388 -245 339.5 -252.5Q291 -260 248 -260Z" glyph-name="five.OT" horiz-adv-x="600" unicode="&#58715;" /><glyph d="M224 54Q385 54 385 148Q385 175 378.5 192.5Q372 210 355 220Q338 230 309.5 234Q281 238 238 238H83Q53 238 53 270V468Q53 500 83 500H408Q438 500 438 471V467Q438 438 408 438H119V298Q139 299 161 300Q180 301 202.5 301.5Q225 302 246 302Q310 302 351 291.5Q392 281 415.5 261.5Q439 242 447.5 213.5Q456 185 456 148Q456 72 400.5 31Q345 -10 223 -10Q168 -10 130 -2.5Q92 5 58 16Q44 21 40 28.5Q36 36 36 44V58Q36 69 44 76Q52 83 66 78Q92 69 129.5 61.5Q167 54 224 54Z" glyph-name="five.XP" horiz-adv-x="491" /><glyph d="M277 -10Q206 -10 161 -2.5Q116 5 82 16Q68 21 64 28.5Q60 36 60 44V58Q60 69 68 76Q76 83 90 78Q116 69 161 61.5Q206 54 278 54Q367 54 418 77Q469 100 469 151Q469 178 461.5 195Q454 212 437 221.5Q420 231 392 234.5Q364 238 322 238H107Q77 238 77 270V468Q77 500 107 500H492Q522 500 522 471V467Q522 438 492 438H143V298Q175 299 208 300Q235 301 266 301.5Q297 302 320 302Q387 302 430 292Q473 282 497.5 263Q522 244 531 216Q540 188 540 151Q540 69 476.5 29.5Q413 -10 277 -10Z" glyph-name="five.XT" horiz-adv-x="600" /><glyph d="M203 -135Q125 -135 61 -112Q47 -107 43 -100Q39 -93 39 -85V-72Q39 -61 47 -53.5Q55 -46 69 -51Q94 -59 126.5 -66Q159 -73 204 -73Q235 -73 271 -67Q307 -61 337 -41.5Q367 -22 387 13.5Q407 49 407 108Q407 165 389.5 195.5Q372 226 344 240Q316 254 280.5 256Q245 258 209 258H99Q69 258 69 290V593Q69 625 99 625H434Q464 625 464 596V592Q464 563 434 563H137V318Q160 320 186 321.5Q212 323 232 323Q277 323 321.5 316.5Q366 310 401 287.5Q436 265 457.5 222.5Q479 180 479 108Q479 27 452 -21Q425 -69 384 -94.5Q343 -120 294.5 -127.5Q246 -135 203 -135Z" glyph-name="five.hybrid" horiz-adv-x="500" /><glyph d="M79 -63Q49 -63 49 -31V127Q49 159 79 159H340Q370 159 370 130V127Q370 98 340 98H114V-4Q118 -4 128 -3.5Q138 -3 151.5 -2.5Q165 -2 180 -1.5Q195 -1 209 -1Q258 -1 292 -9Q326 -17 346 -33.5Q366 -50 375 -74Q384 -98 384 -129Q384 -193 338.5 -226.5Q293 -260 197 -260Q118 -260 57 -245Q43 -242 39 -233.5Q35 -225 35 -217V-204Q35 -193 43 -186.5Q51 -180 65 -184Q94 -192 132 -195.5Q170 -199 199 -199Q316 -199 316 -129Q316 -92 292.5 -77.5Q269 -63 206 -63Z" glyph-name="five.inf" horiz-adv-x="414" unicode="&#58742;" /><glyph d="M524 75Q524 61 529 55.5Q534 50 547 48Q570 45 570 24V18Q570 -6 542 -6Q495 -6 475.5 18Q456 42 456 76V718Q456 750 486 750H494Q524 750 524 718ZM120 610Q120 682 163 721Q206 760 300 760Q325 760 346 757Q361 755 365.5 746.5Q370 738 370 730V718Q370 708 362.5 701Q355 694 338 696Q332 697 324 697.5Q316 698 300 698Q251 698 219 678.5Q187 659 187 610V500H318Q345 500 345 474V471Q345 445 318 445H187V32Q187 0 157 0H150Q120 0 120 32V445H38Q30 445 23 449Q16 453 16 463Q16 472 21.5 476.5Q27 481 38 484L120 503Z" glyph-name="fl" horiz-adv-x="615" unicode="&#64258;" /><glyph d="M202 28Q202 0 172 0H165Q135 0 135 28V445H53Q44 445 39.5 450Q35 455 35 463Q35 476 52 481L135 505V595Q135 671 178 715.5Q221 760 315 760Q360 760 392 754.5Q424 749 443 743Q457 738 461 731Q465 724 465 716V702Q465 692 458 686Q451 680 435 684Q420 688 391 693Q362 698 315 698Q266 698 234 672Q202 646 202 595V500H413Q440 500 440 474V471Q440 445 413 445H202Z" glyph-name="florin" horiz-adv-x="520" unicode="&#402;" /><glyph d="M202 28Q202 0 172 0H165Q135 0 135 28V445H53Q44 445 39.5 450Q35 455 35 463Q35 476 52 481L135 505V595Q135 671 178 715.5Q221 760 315 760Q360 760 392 754.5Q424 749 443 743Q457 738 461 731Q465 724 465 716V702Q465 692 458 686Q451 680 435 684Q420 688 391 693Q362 698 315 698Q266 698 234 672Q202 646 202 595V500H413Q440 500 440 474V471Q440 445 413 445H202Z" glyph-name="florin.LP" horiz-adv-x="520" unicode="&#58661;" /><glyph d="M115 287V345Q115 421 158 465.5Q201 510 295 510Q340 510 372 504.5Q404 499 423 493Q437 488 441 481Q445 474 445 466V452Q445 442 438 436Q431 430 415 434Q400 438 371 443Q342 448 295 448Q246 448 214 422Q182 396 182 345V287H390Q420 287 420 259V254Q420 226 390 226H182V-222Q182 -250 152 -250H145Q115 -250 115 -222V226H45Q15 226 15 254V259Q15 287 45 287Z" glyph-name="florin.OP" horiz-adv-x="500" /><glyph d="M390 355Q420 355 420 327V322Q420 294 390 294H182V-97Q182 -125 152 -125H145Q115 -125 115 -97V294H45Q15 294 15 322V327Q15 355 45 355H115V470Q115 546 158 590.5Q201 635 295 635Q340 635 372 629.5Q404 624 423 618Q437 613 441 606Q445 599 445 591V577Q445 567 438 561Q431 555 415 559Q400 563 371 568Q342 573 295 573Q246 573 214 547Q182 521 182 470V355Z" glyph-name="florin.hybrid" horiz-adv-x="500" /><glyph d="M375 219H77Q50 219 50 245V250Q50 258 53.5 265.5Q57 273 65 284L377 738Q384 749 391.5 754.5Q399 760 410 760H413Q443 760 443 728V281H523Q550 281 550 255V245Q550 219 523 219H443V32Q443 0 413 0H405Q375 0 375 32ZM377 642 129 279 375 281Z" glyph-name="four" horiz-adv-x="600" unicode="4" /><glyph d="M365 219H67Q40 219 40 245V250Q40 258 43.5 265.5Q47 273 55 284L367 738Q374 749 381.5 754.5Q389 760 400 760H403Q433 760 433 728V281H513Q540 281 540 255V245Q540 219 513 219H433V32Q433 0 403 0H395Q365 0 365 32ZM367 642 119 279 365 281Z" glyph-name="four.LP" horiz-adv-x="570" unicode="&#58681;" /><glyph d="M375 219H77Q50 219 50 245V250Q50 258 53.5 265.5Q57 273 65 284L377 738Q384 749 391.5 754.5Q399 760 410 760H413Q443 760 443 728V281H523Q550 281 550 255V245Q550 219 523 219H443V32Q443 0 413 0H405Q375 0 375 32ZM377 642 129 279 375 281Z" glyph-name="four.LT" horiz-adv-x="600" unicode="&#58692;" /><glyph d="M365 -31H67Q40 -31 40 -5V0Q40 8 43.5 15.5Q47 23 55 34L367 488Q374 499 381.5 504.5Q389 510 400 510H403Q433 510 433 478V31H513Q540 31 540 5V-5Q540 -31 513 -31H433V-218Q433 -250 403 -250H395Q365 -250 365 -218ZM367 392 119 29 365 31Z" glyph-name="four.OP" horiz-adv-x="570" unicode="&#58703;" /><glyph d="M380 -31H82Q55 -31 55 -5V0Q55 8 58.5 15.5Q62 23 70 34L382 488Q389 499 396.5 504.5Q404 510 415 510H418Q448 510 448 478V31H528Q555 31 555 5V-5Q555 -31 528 -31H448V-218Q448 -250 418 -250H410Q380 -250 380 -218ZM382 392 134 29 380 31Z" glyph-name="four.OT" horiz-adv-x="600" unicode="&#58714;" /><glyph d="M449 190Q481 190 481 161V158Q481 129 449 129H374V27Q374 0 348 0H334Q308 0 308 27V129H47Q32 129 23.5 136.5Q15 144 15 156V158Q15 167 20.5 175.5Q26 184 37 195L305 490Q319 505 326.5 507.5Q334 510 342 510H348Q374 510 374 483V190ZM308 190 311 411 103 187Z" glyph-name="four.XP" horiz-adv-x="506" /><glyph d="M543 190Q575 190 575 161V158Q575 129 543 129H448V27Q448 0 422 0H408Q382 0 382 27V129H67Q52 129 43.5 136.5Q35 144 35 156V158Q35 167 41.5 175.5Q48 184 62 196L376 491Q390 504 397.5 507Q405 510 413 510H422Q448 510 448 483V190ZM382 190 385 417 136 187Z" glyph-name="four.XT" horiz-adv-x="600" /><glyph d="M365 94H67Q40 94 40 120V125Q40 133 43.5 140.5Q47 148 55 159L367 613Q374 624 381.5 629.5Q389 635 400 635H403Q433 635 433 603V156H513Q540 156 540 130V120Q540 94 513 94H433V-93Q433 -125 403 -125H395Q365 -125 365 -93ZM367 517 119 154 365 156Z" glyph-name="four.hybrid" horiz-adv-x="570" /><glyph d="M371 -71Q403 -71 403 -100V-103Q403 -132 371 -132H318V-223Q318 -250 292 -250H279Q253 -250 253 -223V-132H52Q37 -132 28.5 -124.5Q20 -117 20 -105V-103Q20 -94 26 -86.5Q32 -79 44 -66L250 148Q264 162 271.5 165.5Q279 169 287 169H292Q318 169 318 142V-71ZM253 -71V68L118 -71Z" glyph-name="four.inf" horiz-adv-x="423" unicode="&#58741;" /><glyph glyph-name="fourperemspace" horiz-adv-x="250" unicode="&#8197;" /><glyph d="M14 24Q-3 0 -27 0H-39Q-52 0 -58.5 11.5Q-65 23 -55 37L432 726Q449 750 473 750H485Q498 750 504.5 738.5Q511 727 501 713Z" glyph-name="fraction" horiz-adv-x="447" unicode="&#8260;" /><glyph d="M472 500Q482 500 489 496Q496 492 496 481Q496 470 489 464.5Q482 459 471 456L408 438Q424 414 430.5 384.5Q437 355 437 322Q437 283 428 249Q419 215 396.5 189.5Q374 164 336.5 149Q299 134 242 134Q204 134 176 140Q168 132 162.5 122Q157 112 157 103Q157 68 195 64L365 44Q436 36 469 6Q502 -24 502 -90Q502 -136 481 -168Q460 -200 424 -220.5Q388 -241 341 -250.5Q294 -260 242 -260Q189 -260 147.5 -252Q106 -244 77.5 -226Q49 -208 33.5 -179Q18 -150 18 -109Q18 -58 48.5 -24.5Q79 9 121 23V24Q107 34 98 49.5Q89 65 89 90Q89 111 100 128Q111 145 127 158Q82 183 64.5 226Q47 269 47 322Q47 361 56 395Q65 429 87.5 454.5Q110 480 147.5 495Q185 510 242 510Q265 510 285 507.5Q305 505 322 500ZM242 195Q286 195 311.5 205.5Q337 216 350.5 233.5Q364 251 368 274Q372 297 372 322Q372 347 368 370Q364 393 350.5 410.5Q337 428 311.5 438.5Q286 449 242 449Q198 449 172.5 438.5Q147 428 133.5 410.5Q120 393 116 370Q112 347 112 322Q112 297 116 274Q120 251 133.5 233.5Q147 216 172.5 205.5Q198 195 242 195ZM205 5Q180 -1 158 -9.5Q136 -18 119.5 -31.5Q103 -45 93 -63Q83 -81 83 -105Q83 -161 124 -180.5Q165 -200 242 -200Q279 -200 314 -195Q349 -190 376 -177Q403 -164 419.5 -143Q436 -122 436 -90Q436 -52 416.5 -34.5Q397 -17 351 -12Z" glyph-name="g" horiz-adv-x="510" unicode="g" /><glyph d="M470 -40Q470 -87 463.5 -127Q457 -167 435 -197Q413 -227 372.5 -244Q332 -261 265 -261Q192 -261 150.5 -250Q109 -239 86 -229Q72 -223 67 -216Q62 -209 62 -198V-183Q62 -171 71 -164Q80 -157 95 -164Q102 -167 117.5 -173.5Q133 -180 155.5 -186Q178 -192 205.5 -197Q233 -202 265 -202Q315 -202 342.5 -186.5Q370 -171 382.5 -147Q395 -123 397.5 -94.5Q400 -66 400 -40V31Q368 10 331.5 0Q295 -10 260 -10Q200 -10 160 10.5Q120 31 97 66Q74 101 64.5 148.5Q55 196 55 250Q55 304 64.5 351.5Q74 399 97 434Q120 469 160 489.5Q200 510 260 510Q301 510 339 497Q377 484 416 459L422 475Q427 488 431.5 494Q436 500 447 500H449Q470 500 470 477ZM260 52Q309 52 340 60Q371 68 400 84V416Q371 432 340 440Q309 448 260 448Q215 448 188.5 431Q162 414 147.5 386Q133 358 129 322.5Q125 287 125 250Q125 213 129 177.5Q133 142 147.5 114Q162 86 188.5 69Q215 52 260 52Z" glyph-name="g.school" horiz-adv-x="535" unicode="&#57697;" /><glyph d="M295 448Q248 448 216 431Q184 414 165 386Q146 358 138 322.5Q130 287 130 250Q130 213 138 177.5Q146 142 165 114Q184 86 216 69Q248 52 295 52Q333 52 361 55.5Q389 59 409 63V198H330Q300 198 300 227V230Q300 259 330 259H445Q475 259 475 227V46Q475 37 469.5 27.5Q464 18 449 13Q429 6 387 -2Q345 -10 296 -10Q233 -10 188 10.5Q143 31 114.5 66Q86 101 73 148.5Q60 196 60 250Q60 304 73 351.5Q86 399 114.5 434Q143 469 188 489.5Q233 510 296 510Q353 510 392.5 501.5Q432 493 447 488Q461 483 465 476Q469 469 469 461V449Q469 438 461 431Q453 424 439 428Q424 432 389.5 440Q355 448 295 448Z" glyph-name="g.smcp" horiz-adv-x="550" unicode="&#57863;" /><glyph d="M73 501Q73 479 82.5 464.5Q92 450 124 450Q156 450 166 464.5Q176 479 176 501Q176 522 166 536.5Q156 551 124 551Q92 551 82.5 536.5Q73 522 73 501ZM107 332Q87 329 72.5 319.5Q58 310 58 292Q58 271 73.5 262Q89 253 124 253Q157 253 182 263Q207 273 207 296Q207 320 178 323ZM240 590Q257 590 257 574V568Q257 554 242 550L221 544Q229 523 229 501Q229 458 205.5 432Q182 406 124 406Q116 406 109 406Q102 406 95 408Q88 401 88 393Q88 380 103 379L194 368Q231 363 246 346Q261 329 261 298Q261 274 249 257Q237 240 217.5 229.5Q198 219 172.5 214Q147 209 120 209Q69 209 37 226Q5 243 5 282Q5 308 21 323Q37 338 57 344Q47 349 42 358.5Q37 368 37 379Q37 393 44 402.5Q51 412 60 419Q38 431 29 452Q20 473 20 501Q20 544 43.5 570Q67 596 124 596Q150 596 170 590Z" glyph-name="g.superior" horiz-adv-x="272" unicode="&#58215;" /><glyph d="M143 381Q163 381 176 386Q189 391 197 396V534Q189 538 176 543Q163 548 143 548Q125 548 114 541.5Q103 535 97 523.5Q91 512 89 497Q87 482 87 465Q87 448 89 432.5Q91 417 97 405.5Q103 394 114 387.5Q125 381 143 381ZM197 353Q183 345 166 339.5Q149 334 130 334Q75 334 52.5 368.5Q30 403 30 465Q30 527 52.5 561.5Q75 596 130 596Q155 596 174.5 589Q194 582 211 570L213 575Q217 583 220 586.5Q223 590 231 590H237Q253 590 253 573V322Q253 299 248.5 278.5Q244 258 231 242.5Q218 227 194 218Q170 209 131 209Q106 209 85.5 212.5Q65 216 53 221Q39 226 39 240V257Q39 265 45 269Q51 273 60 270Q70 266 86.5 261Q103 256 131 256Q172 256 184.5 273.5Q197 291 197 315Z" glyph-name="g.superiorschool" horiz-adv-x="293" /><glyph d="M472 500Q482 500 489 496Q496 492 496 481Q496 470 489 464.5Q482 459 471 456L408 438Q424 414 430.5 384.5Q437 355 437 322Q437 283 428 249Q419 215 396.5 189.5Q374 164 336.5 149Q299 134 242 134Q204 134 176 140Q168 132 162.5 122Q157 112 157 103Q157 68 195 64L365 44Q436 36 469 6Q502 -24 502 -90Q502 -136 481 -168Q460 -200 424 -220.5Q388 -241 341 -250.5Q294 -260 242 -260Q189 -260 147.5 -252Q106 -244 77.5 -226Q49 -208 33.5 -179Q18 -150 18 -109Q18 -58 48.5 -24.5Q79 9 121 23V24Q107 34 98 49.5Q89 65 89 90Q89 111 100 128Q111 145 127 158Q82 183 64.5 226Q47 269 47 322Q47 361 56 395Q65 429 87.5 454.5Q110 480 147.5 495Q185 510 242 510Q265 510 285 507.5Q305 505 322 500ZM242 195Q286 195 311.5 205.5Q337 216 350.5 233.5Q364 251 368 274Q372 297 372 322Q372 347 368 370Q364 393 350.5 410.5Q337 428 311.5 438.5Q286 449 242 449Q198 449 172.5 438.5Q147 428 133.5 410.5Q120 393 116 370Q112 347 112 322Q112 297 116 274Q120 251 133.5 233.5Q147 216 172.5 205.5Q198 195 242 195ZM205 5Q180 -1 158 -9.5Q136 -18 119.5 -31.5Q103 -45 93 -63Q83 -81 83 -105Q83 -161 124 -180.5Q165 -200 242 -200Q279 -200 314 -195Q349 -190 376 -177Q403 -164 419.5 -143Q436 -122 436 -90Q436 -52 416.5 -34.5Q397 -17 351 -12ZM242 550Q193 550 160 565.5Q127 581 106.5 606Q86 631 77 662Q68 693 68 724Q68 750 92 750H95Q117 750 119 726Q123 671 149 640.5Q175 610 242 610Q309 610 335 640.5Q361 671 365 726Q367 750 389 750H392Q416 750 416 724Q416 693 407 662Q398 631 377.5 606Q357 581 324 565.5Q291 550 242 550Z" glyph-name="gbreve" horiz-adv-x="510" unicode="&#287;" /><glyph d="M470 -40Q470 -87 463.5 -127Q457 -167 435 -197Q413 -227 372.5 -244Q332 -261 265 -261Q192 -261 150.5 -250Q109 -239 86 -229Q72 -223 67 -216Q62 -209 62 -198V-183Q62 -171 71 -164Q80 -157 95 -164Q102 -167 117.5 -173.5Q133 -180 155.5 -186Q178 -192 205.5 -197Q233 -202 265 -202Q315 -202 342.5 -186.5Q370 -171 382.5 -147Q395 -123 397.5 -94.5Q400 -66 400 -40V31Q368 10 331.5 0Q295 -10 260 -10Q200 -10 160 10.5Q120 31 97 66Q74 101 64.5 148.5Q55 196 55 250Q55 304 64.5 351.5Q74 399 97 434Q120 469 160 489.5Q200 510 260 510Q301 510 339 497Q377 484 416 459L422 475Q427 488 431.5 494Q436 500 447 500H449Q470 500 470 477ZM260 52Q309 52 340 60Q371 68 400 84V416Q371 432 340 440Q309 448 260 448Q215 448 188.5 431Q162 414 147.5 386Q133 358 129 322.5Q125 287 125 250Q125 213 129 177.5Q133 142 147.5 114Q162 86 188.5 69Q215 52 260 52ZM260 550Q211 550 178 565.5Q145 581 124.5 606Q104 631 95 662Q86 693 86 724Q86 750 110 750H113Q135 750 137 726Q141 671 167 640.5Q193 610 260 610Q327 610 353 640.5Q379 671 383 726Q385 750 407 750H410Q434 750 434 724Q434 693 425 662Q416 631 395.5 606Q375 581 342 565.5Q309 550 260 550Z" glyph-name="gbreve.school" horiz-adv-x="535" unicode="&#57702;" /><glyph d="M295 448Q248 448 216 431Q184 414 165 386Q146 358 138 322.5Q130 287 130 250Q130 213 138 177.5Q146 142 165 114Q184 86 216 69Q248 52 295 52Q333 52 361 55.5Q389 59 409 63V198H330Q300 198 300 227V230Q300 259 330 259H445Q475 259 475 227V46Q475 37 469.5 27.5Q464 18 449 13Q429 6 387 -2Q345 -10 296 -10Q233 -10 188 10.5Q143 31 114.5 66Q86 101 73 148.5Q60 196 60 250Q60 304 73 351.5Q86 399 114.5 434Q143 469 188 489.5Q233 510 296 510Q353 510 392.5 501.5Q432 493 447 488Q461 483 465 476Q469 469 469 461V449Q469 438 461 431Q453 424 439 428Q424 432 389.5 440Q355 448 295 448ZM295 550Q246 550 213 565.5Q180 581 159.5 606Q139 631 130 662Q121 693 121 724Q121 750 145 750H148Q170 750 172 726Q176 671 202 640.5Q228 610 295 610Q362 610 388 640.5Q414 671 418 726Q420 750 442 750H445Q469 750 469 724Q469 693 460 662Q451 631 430.5 606Q410 581 377 565.5Q344 550 295 550Z" glyph-name="gbreve.smcp" horiz-adv-x="550" unicode="&#57934;" /></font>
</defs>
</svg>
