<?xml version="1.0" standalone="no"?><!DOCTYPE svg PUBLIC "-//W3C//DTD SVG 1.1//EN" "http://www.w3.org/Graphics/SVG/1.1/DTD/svg11.dtd" ><svg version="1.1" xmlns="http://www.w3.org/2000/svg"><defs><font horiz-adv-x="0" id="font"><font-face ascent="750" bbox="-180.7838 -270 1637 960" cap-height="750" descent="-250" font-family="Apex Rounded Ultra" font-stretch="normal" font-style="normal" font-weight="500" units-per-em="1000" x-height="500" /><missing-glyph d="M136 629V121L390 375ZM744 121V629L490 375ZM181 66H699L440 325ZM440 425 699 684H181ZM65 750H815V0H65Z" horiz-adv-x="880" /><glyph d="M279 289H365L322 551ZM411 750Q453 750 473.5 734.5Q494 719 504 677L635 109Q647 57 630 28.5Q613 0 566 0H491Q448 0 427 17.5Q406 35 399 80L392 119H251L245 80Q238 35 217 17.5Q196 0 153 0H78Q31 0 14 28.5Q-3 57 9 109L140 677Q150 719 170.5 734.5Q191 750 233 750Z" glyph-name="A" horiz-adv-x="644" unicode="A" /><glyph d="M305 285H391L373 525ZM819 750Q899 750 899 670V630Q899 550 819 550H585L592 485H791Q871 485 871 405V365Q871 285 791 285H616L626 200H819Q899 200 899 120V80Q899 0 819 0H490Q447 0 429 17.5Q411 35 407 80L404 115H257L245 71Q239 51 232.5 37.5Q226 24 215.5 15.5Q205 7 189.5 3.5Q174 0 150 0H69Q49 0 34.5 9Q20 18 11.5 33Q3 48 2 68.5Q1 89 10 112L217 670Q235 719 260.5 734.5Q286 750 327 750Z" glyph-name="AE" horiz-adv-x="920" unicode="&#198;" /><glyph d="M279 289H365L322 551ZM430 900Q443 900 452.5 895Q462 890 466 881.5Q470 873 467 861Q464 849 452 836L431 813Q417 797 404 793.5Q391 790 364 790H284Q258 790 248 806Q238 822 245 847L247 854Q255 883 270 891.5Q285 900 313 900ZM411 750Q453 750 473.5 734.5Q494 719 504 677L635 109Q647 57 630 28.5Q613 0 566 0H491Q448 0 427 17.5Q406 35 399 80L392 119H251L245 80Q238 35 217 17.5Q196 0 153 0H78Q31 0 14 28.5Q-3 57 9 109L140 677Q150 719 170.5 734.5Q191 750 233 750Z" glyph-name="Aacute" horiz-adv-x="644" unicode="&#193;" /><glyph d="M279 289H365L322 551ZM411 750Q453 750 473.5 734.5Q494 719 504 677L635 109Q647 57 630 28.5Q613 0 566 0H491Q448 0 427 17.5Q406 35 399 80L392 119H251L245 80Q238 35 217 17.5Q196 0 153 0H78Q31 0 14 28.5Q-3 57 9 109L140 677Q150 719 170.5 734.5Q191 750 233 750ZM322 780Q230 780 186.5 796.5Q143 813 135 848Q123 900 168 900H211Q228 900 235 895Q242 890 248 880Q254 870 269 864.5Q284 859 322 859Q360 859 375 864.5Q390 870 396 880Q402 890 409 895Q416 900 433 900H476Q521 900 509 848Q501 813 457.5 796.5Q414 780 322 780Z" glyph-name="Abreve" horiz-adv-x="644" unicode="&#258;" /><glyph d="M279 289H365L322 551ZM386 900Q400 900 409 900Q418 900 425.5 898.5Q433 897 440.5 894Q448 891 457 886L535 842Q544 837 547.5 828.5Q551 820 549.5 811.5Q548 803 541.5 796.5Q535 790 522 790H424Q410 790 399.5 791Q389 792 380 794Q371 796 362 800Q353 804 342 810L322 821L302 810Q291 804 282 800Q273 796 264 794Q255 792 244.5 791Q234 790 220 790H122Q109 790 102.5 796.5Q96 803 94.5 811.5Q93 820 96.5 828.5Q100 837 109 842L187 886Q196 891 203 894Q210 897 217.5 898.5Q225 900 234.5 900Q244 900 258 900ZM411 750Q453 750 473.5 734.5Q494 719 504 677L635 109Q647 57 630 28.5Q613 0 566 0H491Q448 0 427 17.5Q406 35 399 80L392 119H251L245 80Q238 35 217 17.5Q196 0 153 0H78Q31 0 14 28.5Q-3 57 9 109L140 677Q150 719 170.5 734.5Q191 750 233 750Z" glyph-name="Acircumflex" horiz-adv-x="644" unicode="&#194;" /><glyph d="M279 289H365L322 551ZM411 750Q453 750 473.5 734.5Q494 719 504 677L635 109Q647 57 630 28.5Q613 0 566 0H491Q448 0 427 17.5Q406 35 399 80L392 119H251L245 80Q238 35 217 17.5Q196 0 153 0H78Q31 0 14 28.5Q-3 57 9 109L140 677Q150 719 170.5 734.5Q191 750 233 750ZM337 845Q337 883 363.5 896.5Q390 910 455 910Q520 910 546.5 896.5Q573 883 573 845Q573 806 546.5 793Q520 780 455 780Q390 780 363.5 793Q337 806 337 845ZM71 845Q71 883 97.5 896.5Q124 910 189 910Q254 910 280.5 896.5Q307 883 307 845Q307 806 280.5 793Q254 780 189 780Q124 780 97.5 793Q71 806 71 845Z" glyph-name="Adieresis" horiz-adv-x="644" unicode="&#196;" /><glyph d="M279 289H365L322 551ZM331 900Q359 900 374 891.5Q389 883 397 854L399 847Q406 822 396 806Q386 790 360 790H280Q253 790 240 793.5Q227 797 213 813L192 836Q180 849 177 861Q174 873 178 881.5Q182 890 191.5 895Q201 900 214 900ZM411 750Q453 750 473.5 734.5Q494 719 504 677L635 109Q647 57 630 28.5Q613 0 566 0H491Q448 0 427 17.5Q406 35 399 80L392 119H251L245 80Q238 35 217 17.5Q196 0 153 0H78Q31 0 14 28.5Q-3 57 9 109L140 677Q150 719 170.5 734.5Q191 750 233 750Z" glyph-name="Agrave" horiz-adv-x="644" unicode="&#192;" /><glyph d="M279 289H365L322 551ZM411 750Q453 750 473.5 734.5Q494 719 504 677L635 109Q647 57 630 28.5Q613 0 566 0H491Q448 0 427 17.5Q406 35 399 80L392 119H251L245 80Q238 35 217 17.5Q196 0 153 0H78Q31 0 14 28.5Q-3 57 9 109L140 677Q150 719 170.5 734.5Q191 750 233 750ZM217 790Q165 790 165 843V847Q165 900 217 900H427Q479 900 479 847V843Q479 790 427 790Z" glyph-name="Amacron" horiz-adv-x="644" unicode="&#256;" /><glyph d="M245 80Q237 35 216.5 17.5Q196 0 153 0H78Q31 0 14 28.5Q-3 57 9 109L140 677Q150 719 170.5 734.5Q191 750 233 750H411Q453 750 473.5 734.5Q494 719 504 677L635 109Q647 57 630 28.5Q613 0 566 0H491Q448 0 427.5 17.5Q407 35 399 80L322 551Z" glyph-name="Anocross" horiz-adv-x="644" /><glyph d="M279 289H365L322 551ZM602 -136Q611 -136 615.5 -135.5Q620 -135 627 -135Q645 -135 656 -149Q667 -163 667 -184V-190Q667 -209 657 -223.5Q647 -238 626 -243Q617 -245 600 -247.5Q583 -250 551 -250Q469 -250 425.5 -216Q382 -182 382 -127Q382 -72 418 -31L392 119H251L245 80Q238 35 217 17.5Q196 0 153 0H78Q31 0 14 28.5Q-3 57 9 109L140 677Q150 719 170.5 734.5Q191 750 233 750H411Q453 750 473.5 734.5Q494 719 504 677L635 109Q643 72 637.5 48.5Q632 25 610 10Q572 -16 557 -41Q542 -66 542 -89Q542 -110 554 -123Q566 -136 602 -136Z" glyph-name="Aogonek" horiz-adv-x="644" unicode="&#260;" /><glyph d="M279 289H365L322 551ZM411 750Q453 750 473.5 734.5Q494 719 504 677L635 109Q647 57 630 28.5Q613 0 566 0H491Q448 0 427 17.5Q406 35 399 80L392 119H251L245 80Q238 35 217 17.5Q196 0 153 0H78Q31 0 14 28.5Q-3 57 9 109L140 677Q150 719 170.5 734.5Q191 750 233 750ZM195 870Q195 893 201 910Q207 927 221 938Q235 949 259.5 954.5Q284 960 322 960Q359 960 384 954.5Q409 949 423 938Q437 927 443 910Q449 893 449 870Q449 847 443 830Q437 813 423 802Q409 791 384 785.5Q359 780 322 780Q284 780 259.5 785.5Q235 791 221 802Q207 813 201 830Q195 847 195 870ZM291 870Q291 860 297 856Q303 852 322 852Q341 852 347 856Q353 860 353 870Q353 880 347 884Q341 888 322 888Q303 888 297 884Q291 880 291 870Z" glyph-name="Aring" horiz-adv-x="644" unicode="&#197;" /><glyph d="M279 289H365L322 551ZM411 750Q453 750 473.5 734.5Q494 719 504 677L635 109Q647 57 630 28.5Q613 0 566 0H491Q448 0 427 17.5Q406 35 399 80L392 119H251L245 80Q238 35 217 17.5Q196 0 153 0H78Q31 0 14 28.5Q-3 57 9 109L140 677Q150 719 170.5 734.5Q191 750 233 750ZM422 780Q391 780 365 785Q339 790 317.5 796Q296 802 278.5 807Q261 812 246 812Q227 812 218 803Q212 797 205.5 793.5Q199 790 182 790H131Q108 790 98.5 803.5Q89 817 96 843Q107 883 139 896.5Q171 910 222 910Q253 910 279 905Q305 900 326.5 894Q348 888 365.5 883Q383 878 398 878Q417 878 426 887Q432 893 438.5 896.5Q445 900 462 900H513Q536 900 545.5 886.5Q555 873 548 847Q537 807 505 793.5Q473 780 422 780Z" glyph-name="Atilde" horiz-adv-x="644" unicode="&#195;" /><glyph d="M357 518Q357 553 342 566Q327 579 307 579H251V456H307Q327 456 342 469.5Q357 483 357 518ZM251 171H320Q345 171 362 185Q379 199 379 243Q379 287 362 301.5Q345 316 320 316H251ZM29 670Q29 750 109 750H333Q411 750 461 733.5Q511 717 539.5 687.5Q568 658 579 618Q590 578 590 530Q590 492 572 454.5Q554 417 523 398Q562 381 586 339Q610 297 610 238Q610 188 598 144.5Q586 101 555.5 69Q525 37 472 18.5Q419 0 337 0H109Q29 0 29 80Z" glyph-name="B" horiz-adv-x="619" unicode="B" /><glyph d="M17 375Q18 573 102 670.5Q186 768 360 768Q375 768 392.5 767Q410 766 428 764Q446 762 462 759Q478 756 490 753Q529 741 540.5 719.5Q552 698 552 666V623Q552 586 532.5 565Q513 544 473 552Q456 555 436 557.5Q416 560 388 560Q358 560 332.5 551Q307 542 288.5 521Q270 500 260 464.5Q250 429 250 375Q250 321 260 285.5Q270 250 288.5 229Q307 208 332.5 199Q358 190 388 190Q416 190 436 192.5Q456 195 473 198Q513 206 532.5 185Q552 164 552 127V84Q552 52 540.5 30.5Q529 9 490 -3Q478 -6 462 -9Q446 -12 428 -14Q410 -16 392.5 -17Q375 -18 360 -18Q186 -18 102 79.5Q18 177 17 375Z" glyph-name="C" horiz-adv-x="564" unicode="C" /><glyph d="M450 900Q463 900 472.5 895Q482 890 486 881.5Q490 873 487 861Q484 849 472 836L451 813Q437 797 424 793.5Q411 790 384 790H304Q278 790 268 806Q258 822 265 847L267 854Q275 883 290 891.5Q305 900 333 900ZM17 375Q18 573 102 670.5Q186 768 360 768Q375 768 392.5 767Q410 766 428 764Q446 762 462 759Q478 756 490 753Q529 741 540.5 719.5Q552 698 552 666V623Q552 586 532.5 565Q513 544 473 552Q456 555 436 557.5Q416 560 388 560Q358 560 332.5 551Q307 542 288.5 521Q270 500 260 464.5Q250 429 250 375Q250 321 260 285.5Q270 250 288.5 229Q307 208 332.5 199Q358 190 388 190Q416 190 436 192.5Q456 195 473 198Q513 206 532.5 185Q552 164 552 127V84Q552 52 540.5 30.5Q529 9 490 -3Q478 -6 462 -9Q446 -12 428 -14Q410 -16 392.5 -17Q375 -18 360 -18Q186 -18 102 79.5Q18 177 17 375Z" glyph-name="Cacute" horiz-adv-x="564" unicode="&#262;" /><glyph d="M278 790Q264 790 254.5 790Q245 790 237.5 791.5Q230 793 223 796Q216 799 207 804L129 848Q120 853 116.5 861.5Q113 870 114.5 878.5Q116 887 122.5 893.5Q129 900 142 900H240Q254 900 264.5 899Q275 898 284 896Q293 894 302 890Q311 886 322 880L342 869L362 880Q373 886 382 890Q391 894 400 896Q409 898 419.5 899Q430 900 444 900H542Q555 900 561.5 893.5Q568 887 569.5 878.5Q571 870 567.5 861.5Q564 853 555 848L477 804Q468 799 460.5 796Q453 793 445.5 791.5Q438 790 429 790Q420 790 406 790ZM17 375Q18 573 102 670.5Q186 768 360 768Q375 768 392.5 767Q410 766 428 764Q446 762 462 759Q478 756 490 753Q529 741 540.5 719.5Q552 698 552 666V623Q552 586 532.5 565Q513 544 473 552Q456 555 436 557.5Q416 560 388 560Q358 560 332.5 551Q307 542 288.5 521Q270 500 260 464.5Q250 429 250 375Q250 321 260 285.5Q270 250 288.5 229Q307 208 332.5 199Q358 190 388 190Q416 190 436 192.5Q456 195 473 198Q513 206 532.5 185Q552 164 552 127V84Q552 52 540.5 30.5Q529 9 490 -3Q478 -6 462 -9Q446 -12 428 -14Q410 -16 392.5 -17Q375 -18 360 -18Q186 -18 102 79.5Q18 177 17 375Z" glyph-name="Ccaron" horiz-adv-x="564" unicode="&#268;" /><glyph d="M300 -139Q326 -139 342.5 -132Q359 -125 359 -112Q359 -100 348 -92.5Q337 -85 323 -82Q300 -77 291 -66Q282 -55 284 -33L286 -13Q149 7 83.5 103Q18 199 17 375Q18 573 102 670.5Q186 768 360 768Q375 768 392.5 767Q410 766 428 764Q446 762 462 759Q478 756 490 753Q529 741 540.5 719.5Q552 698 552 666V623Q552 586 532.5 565Q513 544 473 552Q456 555 436 557.5Q416 560 388 560Q358 560 332.5 551Q307 542 288.5 521Q270 500 260 464.5Q250 429 250 375Q250 321 260 285.5Q270 250 288.5 229Q307 208 332.5 199Q358 190 388 190Q416 190 436 192.5Q456 195 473 198Q513 206 532.5 185Q552 164 552 127V84Q552 52 540.5 30.5Q529 9 490 -3Q470 -8 439.5 -12Q409 -16 381 -17L382 -32Q382 -41 391 -44Q436 -56 465 -79.5Q494 -103 494 -145Q494 -198 449.5 -224Q405 -250 330 -250Q298 -250 279.5 -247Q261 -244 252 -242Q235 -238 226 -224.5Q217 -211 217 -192V-180Q217 -159 227.5 -147Q238 -135 256 -135Q263 -135 277 -137Q291 -139 300 -139Z" glyph-name="Ccedilla" horiz-adv-x="564" unicode="&#199;" /><glyph d="M406 900Q420 900 429 900Q438 900 445.5 898.5Q453 897 460.5 894Q468 891 477 886L555 842Q564 837 567.5 828.5Q571 820 569.5 811.5Q568 803 561.5 796.5Q555 790 542 790H444Q430 790 419.5 791Q409 792 400 794Q391 796 382 800Q373 804 362 810L342 821L322 810Q311 804 302 800Q293 796 284 794Q275 792 264.5 791Q254 790 240 790H142Q129 790 122.5 796.5Q116 803 114.5 811.5Q113 820 116.5 828.5Q120 837 129 842L207 886Q216 891 223 894Q230 897 237.5 898.5Q245 900 254.5 900Q264 900 278 900ZM17 375Q18 573 102 670.5Q186 768 360 768Q375 768 392.5 767Q410 766 428 764Q446 762 462 759Q478 756 490 753Q529 741 540.5 719.5Q552 698 552 666V623Q552 586 532.5 565Q513 544 473 552Q456 555 436 557.5Q416 560 388 560Q358 560 332.5 551Q307 542 288.5 521Q270 500 260 464.5Q250 429 250 375Q250 321 260 285.5Q270 250 288.5 229Q307 208 332.5 199Q358 190 388 190Q416 190 436 192.5Q456 195 473 198Q513 206 532.5 185Q552 164 552 127V84Q552 52 540.5 30.5Q529 9 490 -3Q478 -6 462 -9Q446 -12 428 -14Q410 -16 392.5 -17Q375 -18 360 -18Q186 -18 102 79.5Q18 177 17 375Z" glyph-name="Ccircumflex" horiz-adv-x="564" unicode="&#264;" /><glyph d="M17 375Q18 573 102 670.5Q186 768 360 768Q375 768 392.5 767Q410 766 428 764Q446 762 462 759Q478 756 490 753Q529 741 540.5 719.5Q552 698 552 666V623Q552 586 532.5 565Q513 544 473 552Q456 555 436 557.5Q416 560 388 560Q358 560 332.5 551Q307 542 288.5 521Q270 500 260 464.5Q250 429 250 375Q250 321 260 285.5Q270 250 288.5 229Q307 208 332.5 199Q358 190 388 190Q416 190 436 192.5Q456 195 473 198Q513 206 532.5 185Q552 164 552 127V84Q552 52 540.5 30.5Q529 9 490 -3Q478 -6 462 -9Q446 -12 428 -14Q410 -16 392.5 -17Q375 -18 360 -18Q186 -18 102 79.5Q18 177 17 375ZM224 845Q224 883 250.5 896.5Q277 910 342 910Q407 910 433.5 896.5Q460 883 460 845Q460 806 433.5 793Q407 780 342 780Q277 780 250.5 793Q224 806 224 845Z" glyph-name="Cdotaccent" horiz-adv-x="564" unicode="&#266;" /><glyph d="M261 197H297Q327 197 345.5 207.5Q364 218 375 239.5Q386 261 390 294.5Q394 328 394 375Q394 421 390 455Q386 489 375 510.5Q364 532 345.5 542.5Q327 553 297 553H261ZM109 0Q29 0 29 80V670Q29 750 109 750H298Q400 750 464.5 721Q529 692 566 642Q603 592 616.5 523Q630 454 630 375Q630 295 616.5 226.5Q603 158 566 108Q529 58 464.5 29Q400 0 298 0Z" glyph-name="D" horiz-adv-x="647" unicode="D" /><glyph d="M228 790Q214 790 204.5 790Q195 790 187.5 791.5Q180 793 173 796Q166 799 157 804L79 848Q70 853 66.5 861.5Q63 870 64.5 878.5Q66 887 72.5 893.5Q79 900 92 900H190Q204 900 214.5 899Q225 898 234 896Q243 894 252 890Q261 886 272 880L292 869L312 880Q323 886 332 890Q341 894 350 896Q359 898 369.5 899Q380 900 394 900H492Q505 900 511.5 893.5Q518 887 519.5 878.5Q521 870 517.5 861.5Q514 853 505 848L427 804Q418 799 410.5 796Q403 793 395.5 791.5Q388 790 379 790Q370 790 356 790ZM261 197H297Q327 197 345.5 207.5Q364 218 375 239.5Q386 261 390 294.5Q394 328 394 375Q394 421 390 455Q386 489 375 510.5Q364 532 345.5 542.5Q327 553 297 553H261ZM109 0Q29 0 29 80V670Q29 750 109 750H298Q400 750 464.5 721Q529 692 566 642Q603 592 616.5 523Q630 454 630 375Q630 295 616.5 226.5Q603 158 566 108Q529 58 464.5 29Q400 0 298 0Z" glyph-name="Dcaron" horiz-adv-x="647" unicode="&#270;" /><glyph d="M301 455H335Q395 455 395 395V375Q395 315 335 315H301V197H337Q367 197 385.5 207.5Q404 218 415 239.5Q426 261 430 294.5Q434 328 434 375Q434 421 430 455Q426 489 415 510.5Q404 532 385.5 542.5Q367 553 337 553H301ZM69 455V670Q69 750 149 750H338Q440 750 504.5 721Q569 692 606 642Q643 592 656.5 523Q670 454 670 375Q670 295 656.5 226.5Q643 158 606 108Q569 58 504.5 29Q440 0 338 0H149Q69 0 69 80V315H55Q-5 315 -5 375V395Q-5 455 55 455Z" glyph-name="Dcroat" horiz-adv-x="687" unicode="&#272;" /><glyph d="M260 200H559L410 504ZM71 0Q10 0 10 60V102Q10 112 12.5 125.5Q15 139 22 153L294 695Q303 714 311.5 727.5Q320 741 330 750Q340 759 354 763.5Q368 768 388 768H432Q452 768 466 763.5Q480 759 490 750Q500 741 508.5 727.5Q517 714 526 695L798 153Q805 139 807.5 125.5Q810 112 810 102V60Q810 0 749 0Z" glyph-name="Delta" horiz-adv-x="820" unicode="&#8710;" /><glyph d="M29 670Q29 750 109 750H479Q559 750 559 670V630Q559 550 479 550H261V485H451Q531 485 531 405V365Q531 285 451 285H261V200H479Q559 200 559 120V80Q559 0 479 0H109Q29 0 29 80Z" glyph-name="E" horiz-adv-x="582" unicode="E" /><glyph d="M410 900Q423 900 432.5 895Q442 890 446 881.5Q450 873 447 861Q444 849 432 836L411 813Q397 797 384 793.5Q371 790 344 790H264Q238 790 228 806Q218 822 225 847L227 854Q235 883 250 891.5Q265 900 293 900ZM29 670Q29 750 109 750H479Q559 750 559 670V630Q559 550 479 550H261V485H451Q531 485 531 405V365Q531 285 451 285H261V200H479Q559 200 559 120V80Q559 0 479 0H109Q29 0 29 80Z" glyph-name="Eacute" horiz-adv-x="584" unicode="&#201;" /><glyph d="M29 670Q29 750 109 750H479Q559 750 559 670V630Q559 550 479 550H261V485H451Q531 485 531 405V365Q531 285 451 285H261V200H479Q559 200 559 120V80Q559 0 479 0H109Q29 0 29 80ZM302 780Q210 780 166.5 796.5Q123 813 115 848Q103 900 148 900H191Q208 900 215 895Q222 890 228 880Q234 870 249 864.5Q264 859 302 859Q340 859 355 864.5Q370 870 376 880Q382 890 389 895Q396 900 413 900H456Q501 900 489 848Q481 813 437.5 796.5Q394 780 302 780Z" glyph-name="Ebreve" horiz-adv-x="584" unicode="&#276;" /><glyph d="M238 790Q224 790 214.5 790Q205 790 197.5 791.5Q190 793 183 796Q176 799 167 804L89 848Q80 853 76.5 861.5Q73 870 74.5 878.5Q76 887 82.5 893.5Q89 900 102 900H200Q214 900 224.5 899Q235 898 244 896Q253 894 262 890Q271 886 282 880L302 869L322 880Q333 886 342 890Q351 894 360 896Q369 898 379.5 899Q390 900 404 900H502Q515 900 521.5 893.5Q528 887 529.5 878.5Q531 870 527.5 861.5Q524 853 515 848L437 804Q428 799 420.5 796Q413 793 405.5 791.5Q398 790 389 790Q380 790 366 790ZM29 670Q29 750 109 750H479Q559 750 559 670V630Q559 550 479 550H261V485H451Q531 485 531 405V365Q531 285 451 285H261V200H479Q559 200 559 120V80Q559 0 479 0H109Q29 0 29 80Z" glyph-name="Ecaron" horiz-adv-x="584" unicode="&#282;" /><glyph d="M366 900Q380 900 389 900Q398 900 405.5 898.5Q413 897 420.5 894Q428 891 437 886L515 842Q524 837 527.5 828.5Q531 820 529.5 811.5Q528 803 521.5 796.5Q515 790 502 790H404Q390 790 379.5 791Q369 792 360 794Q351 796 342 800Q333 804 322 810L302 821L282 810Q271 804 262 800Q253 796 244 794Q235 792 224.5 791Q214 790 200 790H102Q89 790 82.5 796.5Q76 803 74.5 811.5Q73 820 76.5 828.5Q80 837 89 842L167 886Q176 891 183 894Q190 897 197.5 898.5Q205 900 214.5 900Q224 900 238 900ZM29 670Q29 750 109 750H479Q559 750 559 670V630Q559 550 479 550H261V485H451Q531 485 531 405V365Q531 285 451 285H261V200H479Q559 200 559 120V80Q559 0 479 0H109Q29 0 29 80Z" glyph-name="Ecircumflex" horiz-adv-x="584" unicode="&#202;" /><glyph d="M29 670Q29 750 109 750H479Q559 750 559 670V630Q559 550 479 550H261V485H451Q531 485 531 405V365Q531 285 451 285H261V200H479Q559 200 559 120V80Q559 0 479 0H109Q29 0 29 80ZM317 845Q317 883 343.5 896.5Q370 910 435 910Q500 910 526.5 896.5Q553 883 553 845Q553 806 526.5 793Q500 780 435 780Q370 780 343.5 793Q317 806 317 845ZM51 845Q51 883 77.5 896.5Q104 910 169 910Q234 910 260.5 896.5Q287 883 287 845Q287 806 260.5 793Q234 780 169 780Q104 780 77.5 793Q51 806 51 845Z" glyph-name="Edieresis" horiz-adv-x="584" unicode="&#203;" /><glyph d="M29 670Q29 750 109 750H479Q559 750 559 670V630Q559 550 479 550H261V485H451Q531 485 531 405V365Q531 285 451 285H261V200H479Q559 200 559 120V80Q559 0 479 0H109Q29 0 29 80ZM184 845Q184 883 210.5 896.5Q237 910 302 910Q367 910 393.5 896.5Q420 883 420 845Q420 806 393.5 793Q367 780 302 780Q237 780 210.5 793Q184 806 184 845Z" glyph-name="Edotaccent" horiz-adv-x="584" unicode="&#278;" /><glyph d="M311 900Q339 900 354 891.5Q369 883 377 854L379 847Q386 822 376 806Q366 790 340 790H260Q233 790 220 793.5Q207 797 193 813L172 836Q160 849 157 861Q154 873 158 881.5Q162 890 171.5 895Q181 900 194 900ZM29 670Q29 750 109 750H479Q559 750 559 670V630Q559 550 479 550H261V485H451Q531 485 531 405V365Q531 285 451 285H261V200H479Q559 200 559 120V80Q559 0 479 0H109Q29 0 29 80Z" glyph-name="Egrave" horiz-adv-x="584" unicode="&#200;" /><glyph d="M29 670Q29 750 109 750H479Q559 750 559 670V630Q559 550 479 550H261V485H451Q531 485 531 405V365Q531 285 451 285H261V200H479Q559 200 559 120V80Q559 0 479 0H109Q29 0 29 80ZM197 790Q145 790 145 843V847Q145 900 197 900H407Q459 900 459 847V843Q459 790 407 790Z" glyph-name="Emacron" horiz-adv-x="584" unicode="&#274;" /><glyph d="M423 -268Q370 -268 348.5 -253Q327 -238 327 -204V-120Q327 -100 339.5 -88Q352 -76 373 -76Q392 -76 403 -65.5Q414 -55 414 -36V14L254 331V80Q254 0 174 0H109Q29 0 29 80V670Q29 750 109 750H187Q217 750 238.5 739Q260 728 274 699L415 419V670Q415 750 495 750H560Q640 750 640 670V-53Q640 -162 585 -215Q530 -268 423 -268Z" glyph-name="Eng" horiz-adv-x="669" unicode="&#330;" /><glyph d="M512 -136Q521 -136 525.5 -135.5Q530 -135 537 -135Q555 -135 566 -149Q577 -163 577 -184V-190Q577 -209 567 -223.5Q557 -238 536 -243Q527 -245 510 -247.5Q493 -250 461 -250Q379 -250 335.5 -216Q292 -182 292 -127Q292 -87 308.5 -56.5Q325 -26 357 0H109Q29 0 29 80V670Q29 750 109 750H479Q559 750 559 670V630Q559 550 479 550H261V485H451Q531 485 531 405V365Q531 285 451 285H261V200H479Q559 200 559 120V80Q559 31 532 13Q489 -14 470.5 -41.5Q452 -69 452 -95Q452 -112 464 -124Q476 -136 512 -136Z" glyph-name="Eogonek" horiz-adv-x="584" unicode="&#280;" /><glyph d="M301 455H335Q395 455 395 395V375Q395 315 335 315H301V197H337Q367 197 385.5 207.5Q404 218 415 239.5Q426 261 430 294.5Q434 328 434 375Q434 421 430 455Q426 489 415 510.5Q404 532 385.5 542.5Q367 553 337 553H301ZM69 455V670Q69 750 149 750H338Q440 750 504.5 721Q569 692 606 642Q643 592 656.5 523Q670 454 670 375Q670 295 656.5 226.5Q643 158 606 108Q569 58 504.5 29Q440 0 338 0H149Q69 0 69 80V315H55Q-5 315 -5 375V395Q-5 455 55 455Z" glyph-name="Eth" horiz-adv-x="687" unicode="&#208;" /><glyph d="M65 250Q17 250 17 299V311Q17 360 65 360H72V390H65Q17 390 17 439V451Q17 500 65 500H82Q131 768 415 768Q430 768 447.5 767Q465 766 483 764Q501 762 517 759Q533 756 545 753Q584 741 595.5 719.5Q607 698 607 666V623Q607 586 587.5 565Q568 544 528 552Q511 555 491 557.5Q471 560 443 560Q405 560 376 546.5Q347 533 329 500H490Q498 500 506 497.5Q514 495 519.5 489.5Q525 484 526.5 474.5Q528 465 523 451L515 429Q507 409 496.5 399.5Q486 390 463 390H305V360H440Q448 360 456 357.5Q464 355 469.5 349.5Q475 344 476.5 334.5Q478 325 473 311L465 289Q457 269 446.5 259.5Q436 250 413 250H329Q347 217 376 203.5Q405 190 443 190Q471 190 491 192.5Q511 195 528 198Q568 206 587.5 185Q607 164 607 127V84Q607 52 595.5 30.5Q584 9 545 -3Q533 -6 517 -9Q501 -12 483 -14Q465 -16 447.5 -17Q430 -18 415 -18Q131 -18 82 250Z" glyph-name="Euro" horiz-adv-x="619" unicode="&#8364;" /><glyph d="M65 250Q17 250 17 299V311Q17 360 65 360H72V390H65Q17 390 17 439V451Q17 500 65 500H82Q131 768 415 768Q430 768 447.5 767Q465 766 483 764Q501 762 517 759Q533 756 545 753Q584 741 595.5 719.5Q607 698 607 666V623Q607 586 587.5 565Q568 544 528 552Q511 555 491 557.5Q471 560 443 560Q405 560 376 546.5Q347 533 329 500H490Q498 500 506 497.5Q514 495 519.5 489.5Q525 484 526.5 474.5Q528 465 523 451L515 429Q507 409 496.5 399.5Q486 390 463 390H305V360H440Q448 360 456 357.5Q464 355 469.5 349.5Q475 344 476.5 334.5Q478 325 473 311L465 289Q457 269 446.5 259.5Q436 250 413 250H329Q347 217 376 203.5Q405 190 443 190Q471 190 491 192.5Q511 195 528 198Q568 206 587.5 185Q607 164 607 127V84Q607 52 595.5 30.5Q584 9 545 -3Q533 -6 517 -9Q501 -12 483 -14Q465 -16 447.5 -17Q430 -18 415 -18Q131 -18 82 250Z" glyph-name="Euro.LP" horiz-adv-x="619" unicode="&#58657;" /><glyph d="M466 239Q458 219 447.5 209.5Q437 200 414 200H302Q313 183 336 174Q359 165 400 165Q410 165 424 166Q438 167 453 168.5Q468 170 482 172Q496 174 505 176Q532 183 546 173Q560 163 560 133V58Q560 29 545 16Q530 3 498 -5Q486 -8 469.5 -10.5Q453 -13 435 -14.5Q417 -16 399.5 -17Q382 -18 367 -18Q292 -18 238 -2.5Q184 13 149 41.5Q114 70 95.5 110Q77 150 71 200H66Q18 200 18 249V254Q18 303 66 303H71Q77 351 96 391Q115 431 150.5 459Q186 487 239 502.5Q292 518 367 518Q382 518 399.5 517Q417 516 435 514.5Q453 513 469.5 510.5Q486 508 498 505Q530 497 545 484Q560 471 560 442V367Q560 337 546 327Q532 317 505 324Q496 326 482 328Q468 330 453 331.5Q438 333 424 334Q410 335 400 335Q361 335 338 326.5Q315 318 304 303H439Q447 303 455.5 300.5Q464 298 469 292Q474 286 475.5 276.5Q477 267 472 254Z" glyph-name="Euro.OP" horiz-adv-x="579" /><glyph d="M439 240Q430 219 420.5 209.5Q411 200 388 200H321Q325 190 335 183.5Q345 177 358.5 173Q372 169 387.5 167.5Q403 166 419 166Q442 166 461 167.5Q480 169 500 174Q532 181 549 166Q566 151 566 125V55Q566 38 558 20.5Q550 3 525 -3Q497 -10 467.5 -14Q438 -18 387 -18Q323 -18 270.5 -5.5Q218 7 178.5 33.5Q139 60 113.5 101Q88 142 78 200H65Q17 200 17 249V254Q17 303 65 303H68V323H65Q17 323 17 372V377Q17 426 65 426H78Q98 541 178.5 592.5Q259 644 387 644Q438 644 467.5 640Q497 636 525 629Q550 623 558 605.5Q566 588 566 571V501Q566 475 549 460Q532 445 500 452Q480 457 461 458.5Q442 460 419 460Q403 460 387.5 458.5Q372 457 358.5 453Q345 449 335 442.5Q325 436 321 426H463Q480 426 492 415Q504 404 493 377L487 363Q478 342 468.5 332.5Q459 323 436 323H295V303H415Q432 303 444 292Q456 281 445 254Z" glyph-name="Euro.hybrid" horiz-adv-x="579" /><glyph d="M29 670Q29 750 109 750H474Q554 750 554 670V630Q554 550 474 550H261V465H446Q526 465 526 385V345Q526 265 446 265H261V80Q261 0 181 0H109Q29 0 29 80Z" glyph-name="F" horiz-adv-x="569" unicode="F" /><glyph d="M537 543Q509 549 475 554.5Q441 560 388 560Q315 560 282.5 514Q250 468 250 374Q250 317 259.5 279Q269 241 286.5 217.5Q304 194 329 184.5Q354 175 386 175H388V285H384Q342 285 324 304Q306 323 306 365V385Q306 465 386 465H540Q620 465 620 385V95Q620 74 613.5 60Q607 46 597.5 36.5Q588 27 576.5 21.5Q565 16 556 13Q531 4 483 -7Q435 -18 360 -18Q17 -18 17 375Q17 768 360 768Q426 768 474 761Q522 754 554 744Q593 732 604.5 710.5Q616 689 616 657V614Q616 577 596 555.5Q576 534 537 543Z" glyph-name="G" horiz-adv-x="649" unicode="G" /><glyph d="M537 543Q509 549 475 554.5Q441 560 388 560Q315 560 282.5 514Q250 468 250 374Q250 317 259.5 279Q269 241 286.5 217.5Q304 194 329 184.5Q354 175 386 175H388V285H384Q342 285 324 304Q306 323 306 365V385Q306 465 386 465H540Q620 465 620 385V95Q620 74 613.5 60Q607 46 597.5 36.5Q588 27 576.5 21.5Q565 16 556 13Q531 4 483 -7Q435 -18 360 -18Q17 -18 17 375Q17 768 360 768Q426 768 474 761Q522 754 554 744Q593 732 604.5 710.5Q616 689 616 657V614Q616 577 596 555.5Q576 534 537 543ZM354 780Q262 780 218.5 796.5Q175 813 167 848Q155 900 200 900H243Q260 900 267 895Q274 890 280 880Q286 870 301 864.5Q316 859 354 859Q392 859 407 864.5Q422 870 428 880Q434 890 441 895Q448 900 465 900H508Q553 900 541 848Q533 813 489.5 796.5Q446 780 354 780Z" glyph-name="Gbreve" horiz-adv-x="649" unicode="&#286;" /><glyph d="M418 900Q432 900 441 900Q450 900 457.5 898.5Q465 897 472.5 894Q480 891 489 886L567 842Q576 837 579.5 828.5Q583 820 581.5 811.5Q580 803 573.5 796.5Q567 790 554 790H456Q442 790 431.5 791Q421 792 412 794Q403 796 394 800Q385 804 374 810L354 821L334 810Q323 804 314 800Q305 796 296 794Q287 792 276.5 791Q266 790 252 790H154Q141 790 134.5 796.5Q128 803 126.5 811.5Q125 820 128.5 828.5Q132 837 141 842L219 886Q228 891 235 894Q242 897 249.5 898.5Q257 900 266.5 900Q276 900 290 900ZM537 543Q509 549 475 554.5Q441 560 388 560Q315 560 282.5 514Q250 468 250 374Q250 317 259.5 279Q269 241 286.5 217.5Q304 194 329 184.5Q354 175 386 175H388V285H384Q342 285 324 304Q306 323 306 365V385Q306 465 386 465H540Q620 465 620 385V95Q620 74 613.5 60Q607 46 597.5 36.5Q588 27 576.5 21.5Q565 16 556 13Q531 4 483 -7Q435 -18 360 -18Q17 -18 17 375Q17 768 360 768Q426 768 474 761Q522 754 554 744Q593 732 604.5 710.5Q616 689 616 657V614Q616 577 596 555.5Q576 534 537 543Z" glyph-name="Gcircumflex" horiz-adv-x="649" unicode="&#284;" /><glyph d="M537 543Q509 549 475 554.5Q441 560 388 560Q315 560 282.5 514Q250 468 250 374Q250 317 259.5 279Q269 241 286.5 217.5Q304 194 329 184.5Q354 175 386 175H388V285H384Q342 285 324 304Q306 323 306 365V385Q306 465 386 465H540Q620 465 620 385V95Q620 74 613.5 60Q607 46 597.5 36.5Q588 27 576.5 21.5Q565 16 556 13Q531 4 483 -7Q435 -18 360 -18Q17 -18 17 375Q17 768 360 768Q426 768 474 761Q522 754 554 744Q593 732 604.5 710.5Q616 689 616 657V614Q616 577 596 555.5Q576 534 537 543ZM384 -50Q426 -50 439.5 -74Q453 -98 436 -130L402 -197Q394 -213 387 -223.5Q380 -234 371.5 -240Q363 -246 353 -248Q343 -250 329 -250H292Q263 -250 247.5 -235Q232 -220 237 -189L248 -108Q253 -76 271 -63Q289 -50 317 -50Z" glyph-name="Gcommaaccent" horiz-adv-x="649" unicode="&#290;" /><glyph d="M537 543Q509 549 475 554.5Q441 560 388 560Q315 560 282.5 514Q250 468 250 374Q250 317 259.5 279Q269 241 286.5 217.5Q304 194 329 184.5Q354 175 386 175H388V285H384Q342 285 324 304Q306 323 306 365V385Q306 465 386 465H540Q620 465 620 385V95Q620 74 613.5 60Q607 46 597.5 36.5Q588 27 576.5 21.5Q565 16 556 13Q531 4 483 -7Q435 -18 360 -18Q17 -18 17 375Q17 768 360 768Q426 768 474 761Q522 754 554 744Q593 732 604.5 710.5Q616 689 616 657V614Q616 577 596 555.5Q576 534 537 543ZM236 845Q236 883 262.5 896.5Q289 910 354 910Q419 910 445.5 896.5Q472 883 472 845Q472 806 445.5 793Q419 780 354 780Q289 780 262.5 793Q236 806 236 845Z" glyph-name="Gdotaccent" horiz-adv-x="649" unicode="&#288;" /><glyph d="M393 670Q393 750 473 750H545Q625 750 625 670V80Q625 0 545 0H473Q393 0 393 80V285H261V80Q261 0 181 0H109Q29 0 29 80V670Q29 750 109 750H181Q261 750 261 670V485H393Z" glyph-name="H" horiz-adv-x="654" unicode="H" /><glyph d="M393 547H261V485H393ZM181 750Q253 750 260 687H394Q401 750 473 750H545Q625 750 625 670V80Q625 0 545 0H473Q393 0 393 80V285H261V80Q261 0 181 0H109Q29 0 29 80V670Q29 750 109 750Z" glyph-name="Hbar" horiz-adv-x="654" unicode="&#294;" /><glyph d="M391 900Q405 900 414 900Q423 900 430.5 898.5Q438 897 445.5 894Q453 891 462 886L540 842Q549 837 552.5 828.5Q556 820 554.5 811.5Q553 803 546.5 796.5Q540 790 527 790H429Q415 790 404.5 791Q394 792 385 794Q376 796 367 800Q358 804 347 810L327 821L307 810Q296 804 287 800Q278 796 269 794Q260 792 249.5 791Q239 790 225 790H127Q114 790 107.5 796.5Q101 803 99.5 811.5Q98 820 101.5 828.5Q105 837 114 842L192 886Q201 891 208 894Q215 897 222.5 898.5Q230 900 239.5 900Q249 900 263 900ZM393 670Q393 750 473 750H545Q625 750 625 670V80Q625 0 545 0H473Q393 0 393 80V285H261V80Q261 0 181 0H109Q29 0 29 80V670Q29 750 109 750H181Q261 750 261 670V485H393Z" glyph-name="Hcircumflex" horiz-adv-x="654" unicode="&#292;" /><glyph d="M29 670Q29 750 109 750H181Q261 750 261 670V80Q261 0 181 0H109Q29 0 29 80Z" glyph-name="I" horiz-adv-x="290" unicode="I" /><glyph d="M378 182Q410 182 422 196Q434 210 434 239V670Q434 750 514 750H586Q666 750 666 670V178Q666 79 606.5 30.5Q547 -18 417 -18Q394 -18 368.5 -14Q343 -10 329 -4Q304 7 295 24.5Q286 42 286 71V115Q286 157 306.5 173.5Q327 190 356 185Q361 184 367 183Q373 182 378 182ZM29 670Q29 750 109 750H181Q261 750 261 670V80Q261 0 181 0H109Q29 0 29 80Z" glyph-name="IJ" horiz-adv-x="690" unicode="&#306;" /><glyph d="M253 900Q266 900 275.5 895Q285 890 289 881.5Q293 873 290 861Q287 849 275 836L254 813Q240 797 227 793.5Q214 790 187 790H107Q81 790 71 806Q61 822 68 847L70 854Q78 883 93 891.5Q108 900 136 900ZM29 670Q29 750 109 750H181Q261 750 261 670V80Q261 0 181 0H109Q29 0 29 80Z" glyph-name="Iacute" horiz-adv-x="290" unicode="&#205;" /><glyph d="M29 670Q29 750 109 750H181Q261 750 261 670V80Q261 0 181 0H109Q29 0 29 80ZM145 780Q53 780 9.5 796.5Q-34 813 -42 848Q-54 900 -9 900H34Q51 900 58 895Q65 890 71 880Q77 870 92 864.5Q107 859 145 859Q183 859 198 864.5Q213 870 219 880Q225 890 232 895Q239 900 256 900H299Q344 900 332 848Q324 813 280.5 796.5Q237 780 145 780Z" glyph-name="Ibreve" horiz-adv-x="290" unicode="&#300;" /><glyph d="M209 900Q223 900 232 900Q241 900 248.5 898.5Q256 897 263.5 894Q271 891 280 886L358 842Q367 837 370.5 828.5Q374 820 372.5 811.5Q371 803 364.5 796.5Q358 790 345 790H247Q233 790 222.5 791Q212 792 203 794Q194 796 185 800Q176 804 165 810L145 821L125 810Q114 804 105 800Q96 796 87 794Q78 792 67.5 791Q57 790 43 790H-55Q-68 790 -74.5 796.5Q-81 803 -82.5 811.5Q-84 820 -80.5 828.5Q-77 837 -68 842L10 886Q19 891 26 894Q33 897 40.5 898.5Q48 900 57.5 900Q67 900 81 900ZM29 670Q29 750 109 750H181Q261 750 261 670V80Q261 0 181 0H109Q29 0 29 80Z" glyph-name="Icircumflex" horiz-adv-x="290" unicode="&#206;" /><glyph d="M29 670Q29 750 109 750H181Q261 750 261 670V80Q261 0 181 0H109Q29 0 29 80ZM160 845Q160 883 186.5 896.5Q213 910 278 910Q343 910 369.5 896.5Q396 883 396 845Q396 806 369.5 793Q343 780 278 780Q213 780 186.5 793Q160 806 160 845ZM-106 845Q-106 883 -79.5 896.5Q-53 910 12 910Q77 910 103.5 896.5Q130 883 130 845Q130 806 103.5 793Q77 780 12 780Q-53 780 -79.5 793Q-106 806 -106 845Z" glyph-name="Idieresis" horiz-adv-x="290" unicode="&#207;" /><glyph d="M29 670Q29 750 109 750H181Q261 750 261 670V80Q261 0 181 0H109Q29 0 29 80ZM27 845Q27 883 53.5 896.5Q80 910 145 910Q210 910 236.5 896.5Q263 883 263 845Q263 806 236.5 793Q210 780 145 780Q80 780 53.5 793Q27 806 27 845Z" glyph-name="Idotaccent" horiz-adv-x="290" unicode="&#304;" /><glyph d="M154 900Q182 900 197 891.5Q212 883 220 854L222 847Q229 822 219 806Q209 790 183 790H103Q76 790 63 793.5Q50 797 36 813L15 836Q3 849 0 861Q-3 873 1 881.5Q5 890 14.5 895Q24 900 37 900ZM29 670Q29 750 109 750H181Q261 750 261 670V80Q261 0 181 0H109Q29 0 29 80Z" glyph-name="Igrave" horiz-adv-x="290" unicode="&#204;" /><glyph d="M29 670Q29 750 109 750H181Q261 750 261 670V80Q261 0 181 0H109Q29 0 29 80ZM40 790Q-12 790 -12 843V847Q-12 900 40 900H250Q302 900 302 847V843Q302 790 250 790Z" glyph-name="Imacron" horiz-adv-x="290" unicode="&#298;" /><glyph d="M214 -136Q223 -136 227.5 -135.5Q232 -135 239 -135Q257 -135 268 -149Q279 -163 279 -184V-190Q279 -209 269 -223.5Q259 -238 238 -243Q229 -245 212 -247.5Q195 -250 163 -250Q81 -250 37.5 -216Q-6 -182 -6 -127Q-6 -71 29 -30V670Q29 750 109 750H181Q261 750 261 670V80Q261 52 252 35.5Q243 19 225 8Q183 -17 168.5 -43Q154 -69 154 -95Q154 -112 166 -124Q178 -136 214 -136Z" glyph-name="Iogonek" horiz-adv-x="290" unicode="&#302;" /><glyph d="M29 670Q29 750 109 750H181Q261 750 261 670V80Q261 0 181 0H109Q29 0 29 80ZM245 780Q214 780 188 785Q162 790 140.5 796Q119 802 101.5 807Q84 812 69 812Q50 812 41 803Q35 797 28.5 793.5Q22 790 5 790H-46Q-69 790 -78.5 803.5Q-88 817 -81 843Q-70 883 -38 896.5Q-6 910 45 910Q76 910 102 905Q128 900 149.5 894Q171 888 188.5 883Q206 878 221 878Q240 878 249 887Q255 893 261.5 896.5Q268 900 285 900H336Q359 900 368.5 886.5Q378 873 371 847Q360 807 328 793.5Q296 780 245 780Z" glyph-name="Itilde" horiz-adv-x="290" unicode="&#296;" /><glyph d="M92 182Q124 182 136 196Q148 210 148 239V670Q148 750 228 750H300Q380 750 380 670V178Q380 79 320.5 30.5Q261 -18 131 -18Q108 -18 82.5 -14Q57 -10 43 -4Q18 7 9 24.5Q0 42 0 71V115Q0 157 20.5 173.5Q41 190 70 185Q75 184 81 183Q87 182 92 182Z" glyph-name="J" horiz-adv-x="404" unicode="J" /><glyph d="M328 900Q342 900 351 900Q360 900 367.5 898.5Q375 897 382.5 894Q390 891 399 886L477 842Q486 837 489.5 828.5Q493 820 491.5 811.5Q490 803 483.5 796.5Q477 790 464 790H366Q352 790 341.5 791Q331 792 322 794Q313 796 304 800Q295 804 284 810L264 821L244 810Q233 804 224 800Q215 796 206 794Q197 792 186.5 791Q176 790 162 790H64Q51 790 44.5 796.5Q38 803 36.5 811.5Q35 820 38.5 828.5Q42 837 51 842L129 886Q138 891 145 894Q152 897 159.5 898.5Q167 900 176.5 900Q186 900 200 900ZM92 182Q124 182 136 196Q148 210 148 239V670Q148 750 228 750H300Q380 750 380 670V178Q380 79 320.5 30.5Q261 -18 131 -18Q108 -18 82.5 -14Q57 -10 43 -4Q18 7 9 24.5Q0 42 0 71V115Q0 157 20.5 173.5Q41 190 70 185Q75 184 81 183Q87 182 92 182Z" glyph-name="Jcircumflex" horiz-adv-x="404" unicode="&#308;" /><glyph d="M261 472 382 681Q405 721 429 735.5Q453 750 489 750H611Q627 750 640 740.5Q653 731 658.5 715.5Q664 700 660.5 680Q657 660 639 638L462 415L652 126Q667 103 671 80.5Q675 58 668.5 40Q662 22 646.5 11Q631 0 608 0H497Q475 0 459.5 3.5Q444 7 432 15.5Q420 24 409.5 38.5Q399 53 388 75L261 327V80Q261 0 181 0H109Q29 0 29 80V670Q29 750 109 750H181Q261 750 261 670Z" glyph-name="K" horiz-adv-x="678" unicode="K" /><glyph d="M261 472 382 681Q405 721 429 735.5Q453 750 489 750H611Q627 750 640 740.5Q653 731 658.5 715.5Q664 700 660.5 680Q657 660 639 638L462 415L652 126Q667 103 671 80.5Q675 58 668.5 40Q662 22 646.5 11Q631 0 608 0H497Q475 0 459.5 3.5Q444 7 432 15.5Q420 24 409.5 38.5Q399 53 388 75L261 327V80Q261 0 181 0H109Q29 0 29 80V670Q29 750 109 750H181Q261 750 261 670ZM367 -50Q409 -50 422.5 -74Q436 -98 419 -130L385 -197Q377 -213 370 -223.5Q363 -234 354.5 -240Q346 -246 336 -248Q326 -250 312 -250H275Q246 -250 230.5 -235Q215 -220 220 -189L231 -108Q236 -76 254 -63Q272 -50 300 -50Z" glyph-name="Kcommaaccent" horiz-adv-x="678" unicode="&#310;" /><glyph d="M442 200Q522 200 522 120V80Q522 0 442 0H109Q29 0 29 80V670Q29 750 109 750H181Q261 750 261 670V200Z" glyph-name="L" horiz-adv-x="530" unicode="L" /><glyph d="M251 900Q264 900 273.5 895Q283 890 287 881.5Q291 873 288 861Q285 849 273 836L252 813Q238 797 225 793.5Q212 790 185 790H105Q79 790 69 806Q59 822 66 847L68 854Q76 883 91 891.5Q106 900 134 900ZM442 200Q522 200 522 120V80Q522 0 442 0H109Q29 0 29 80V670Q29 750 109 750H181Q261 750 261 670V200Z" glyph-name="Lacute" horiz-adv-x="530" unicode="&#313;" /><glyph d="M436 750Q447 750 457.5 746.5Q468 743 475 735Q482 727 484 714Q486 701 480 682L450 591Q444 573 433 561.5Q422 550 401 550H386Q365 550 355.5 562.5Q346 575 348 595L356 698Q358 721 368.5 735.5Q379 750 405 750ZM442 200Q522 200 522 120V80Q522 0 442 0H109Q29 0 29 80V670Q29 750 109 750H181Q261 750 261 670V200Z" glyph-name="Lcaron" horiz-adv-x="530" unicode="&#317;" /><glyph d="M442 200Q522 200 522 120V80Q522 0 442 0H109Q29 0 29 80V670Q29 750 109 750H181Q261 750 261 670V200ZM324 -50Q366 -50 379.5 -74Q393 -98 376 -130L342 -197Q334 -213 327 -223.5Q320 -234 311.5 -240Q303 -246 293 -248Q283 -250 269 -250H232Q203 -250 187.5 -235Q172 -220 177 -189L188 -108Q193 -76 211 -63Q229 -50 257 -50Z" glyph-name="Lcommaaccent" horiz-adv-x="530" unicode="&#315;" /><glyph d="M442 200Q522 200 522 120V80Q522 0 442 0H109Q29 0 29 80V670Q29 750 109 750H181Q261 750 261 670V200ZM304 375Q304 399 313.5 420.5Q323 442 339 458Q355 474 376.5 483.5Q398 493 422 493Q446 493 467.5 483.5Q489 474 505 458Q521 442 530.5 420.5Q540 399 540 375Q540 351 530.5 329.5Q521 308 505 292Q489 276 467.5 266.5Q446 257 422 257Q398 257 376.5 266.5Q355 276 339 292Q323 308 313.5 329.5Q304 351 304 375Z" glyph-name="Ldot" horiz-adv-x="554" unicode="&#319;" /><glyph d="M69 350V670Q69 750 149 750H221Q301 750 301 670V453L423 507Q437 513 449.5 506.5Q462 500 462 483V419Q462 399 456 388.5Q450 378 435 371L301 312V200H482Q562 200 562 120V80Q562 0 482 0H149Q69 0 69 80V209L34 194Q20 188 7.5 194.5Q-5 201 -5 218V282Q-5 302 1 312.5Q7 323 22 330Z" glyph-name="Lslash" horiz-adv-x="570" unicode="&#321;" /><glyph d="M409 85Q379 85 354.5 98.5Q330 112 321 147L253 397V80Q253 0 173 0H109Q29 0 29 80V670Q29 750 109 750H267Q297 750 320 735.5Q343 721 351 691L432 352L513 691Q520 721 543.5 735.5Q567 750 597 750H755Q835 750 835 670V80Q835 0 755 0H691Q611 0 611 80V397L543 147Q533 112 509 98.5Q485 85 455 85Z" glyph-name="M" horiz-adv-x="864" unicode="M" /><glyph d="M482 0Q452 0 430.5 11Q409 22 395 51L254 331V80Q254 0 174 0H109Q29 0 29 80V670Q29 750 109 750H187Q217 750 238.5 739Q260 728 274 699L415 419V670Q415 750 495 750H560Q640 750 640 670V80Q640 0 560 0Z" glyph-name="N" horiz-adv-x="669" unicode="N" /><glyph d="M442 900Q455 900 464.5 895Q474 890 478 881.5Q482 873 479 861Q476 849 464 836L443 813Q429 797 416 793.5Q403 790 376 790H296Q270 790 260 806Q250 822 257 847L259 854Q267 883 282 891.5Q297 900 325 900ZM482 0Q452 0 430.5 11Q409 22 395 51L254 331V80Q254 0 174 0H109Q29 0 29 80V670Q29 750 109 750H187Q217 750 238.5 739Q260 728 274 699L415 419V670Q415 750 495 750H560Q640 750 640 670V80Q640 0 560 0Z" glyph-name="Nacute" horiz-adv-x="669" unicode="&#323;" /><glyph d="M270 790Q256 790 246.5 790Q237 790 229.5 791.5Q222 793 215 796Q208 799 199 804L121 848Q112 853 108.5 861.5Q105 870 106.5 878.5Q108 887 114.5 893.5Q121 900 134 900H232Q246 900 256.5 899Q267 898 276 896Q285 894 294 890Q303 886 314 880L334 869L354 880Q365 886 374 890Q383 894 392 896Q401 898 411.5 899Q422 900 436 900H534Q547 900 553.5 893.5Q560 887 561.5 878.5Q563 870 559.5 861.5Q556 853 547 848L469 804Q460 799 452.5 796Q445 793 437.5 791.5Q430 790 421 790Q412 790 398 790ZM482 0Q452 0 430.5 11Q409 22 395 51L254 331V80Q254 0 174 0H109Q29 0 29 80V670Q29 750 109 750H187Q217 750 238.5 739Q260 728 274 699L415 419V670Q415 750 495 750H560Q640 750 640 670V80Q640 0 560 0Z" glyph-name="Ncaron" horiz-adv-x="669" unicode="&#327;" /><glyph d="M482 0Q452 0 430.5 11Q409 22 395 51L254 331V80Q254 0 174 0H109Q29 0 29 80V670Q29 750 109 750H187Q217 750 238.5 739Q260 728 274 699L415 419V670Q415 750 495 750H560Q640 750 640 670V80Q640 0 560 0ZM364 -50Q406 -50 419.5 -74Q433 -98 416 -130L382 -197Q374 -213 367 -223.5Q360 -234 351.5 -240Q343 -246 333 -248Q323 -250 309 -250H272Q243 -250 227.5 -235Q212 -220 217 -189L228 -108Q233 -76 251 -63Q269 -50 297 -50Z" glyph-name="Ncommaaccent" horiz-adv-x="669" unicode="&#325;" /><glyph d="M482 0Q452 0 430.5 11Q409 22 395 51L254 331V80Q254 0 174 0H109Q29 0 29 80V670Q29 750 109 750H187Q217 750 238.5 739Q260 728 274 699L415 419V670Q415 750 495 750H560Q640 750 640 670V80Q640 0 560 0ZM434 780Q403 780 377 785Q351 790 329.5 796Q308 802 290.5 807Q273 812 258 812Q239 812 230 803Q224 797 217.5 793.5Q211 790 194 790H143Q120 790 110.5 803.5Q101 817 108 843Q119 883 151 896.5Q183 910 234 910Q265 910 291 905Q317 900 338.5 894Q360 888 377.5 883Q395 878 410 878Q429 878 438 887Q444 893 450.5 896.5Q457 900 474 900H525Q548 900 557.5 886.5Q567 873 560 847Q549 807 517 793.5Q485 780 434 780Z" glyph-name="Ntilde" horiz-adv-x="669" unicode="&#209;" /><glyph d="M401 375Q401 435 398 472.5Q395 510 386.5 530.5Q378 551 363.5 558.5Q349 566 327 566Q304 566 290 558.5Q276 551 267.5 530.5Q259 510 256 472.5Q253 435 253 375Q253 315 256 277.5Q259 240 267.5 219.5Q276 199 290 191.5Q304 184 327 184Q349 184 363.5 191.5Q378 199 386.5 219.5Q395 240 398 277.5Q401 315 401 375ZM637 375Q637 283 625 210Q613 137 579.5 86.5Q546 36 485 9Q424 -18 327 -18Q229 -18 168.5 9Q108 36 74.5 86.5Q41 137 29 210Q17 283 17 375Q17 467 29 540Q41 613 74.5 663.5Q108 714 168.5 741Q229 768 327 768Q424 768 485 741Q546 714 579.5 663.5Q613 613 625 540Q637 467 637 375Z" glyph-name="O" horiz-adv-x="654" unicode="O" /><glyph d="M386 200V550H351Q321 550 302.5 540Q284 530 273 509Q262 488 258 454.5Q254 421 254 375Q254 328 258 295Q262 262 273 241Q284 220 302.5 210Q321 200 351 200ZM618 485H808Q888 485 888 405V365Q888 285 808 285H618V200H836Q916 200 916 120V80Q916 0 836 0H349Q247 0 182.5 29Q118 58 81 108Q44 158 30.5 226.5Q17 295 17 375Q17 454 30.5 523Q44 592 81 642Q118 692 182.5 721Q247 750 349 750H836Q916 750 916 670V630Q916 550 836 550H618Z" glyph-name="OE" horiz-adv-x="941" unicode="&#338;" /><glyph d="M435 900Q448 900 457.5 895Q467 890 471 881.5Q475 873 472 861Q469 849 457 836L436 813Q422 797 409 793.5Q396 790 369 790H289Q263 790 253 806Q243 822 250 847L252 854Q260 883 275 891.5Q290 900 318 900ZM401 375Q401 435 398 472.5Q395 510 386.5 530.5Q378 551 363.5 558.5Q349 566 327 566Q304 566 290 558.5Q276 551 267.5 530.5Q259 510 256 472.5Q253 435 253 375Q253 315 256 277.5Q259 240 267.5 219.5Q276 199 290 191.5Q304 184 327 184Q349 184 363.5 191.5Q378 199 386.5 219.5Q395 240 398 277.5Q401 315 401 375ZM637 375Q637 283 625 210Q613 137 579.5 86.5Q546 36 485 9Q424 -18 327 -18Q229 -18 168.5 9Q108 36 74.5 86.5Q41 137 29 210Q17 283 17 375Q17 467 29 540Q41 613 74.5 663.5Q108 714 168.5 741Q229 768 327 768Q424 768 485 741Q546 714 579.5 663.5Q613 613 625 540Q637 467 637 375Z" glyph-name="Oacute" horiz-adv-x="654" unicode="&#211;" /><glyph d="M401 375Q401 435 398 472.5Q395 510 386.5 530.5Q378 551 363.5 558.5Q349 566 327 566Q304 566 290 558.5Q276 551 267.5 530.5Q259 510 256 472.5Q253 435 253 375Q253 315 256 277.5Q259 240 267.5 219.5Q276 199 290 191.5Q304 184 327 184Q349 184 363.5 191.5Q378 199 386.5 219.5Q395 240 398 277.5Q401 315 401 375ZM637 375Q637 283 625 210Q613 137 579.5 86.5Q546 36 485 9Q424 -18 327 -18Q229 -18 168.5 9Q108 36 74.5 86.5Q41 137 29 210Q17 283 17 375Q17 467 29 540Q41 613 74.5 663.5Q108 714 168.5 741Q229 768 327 768Q424 768 485 741Q546 714 579.5 663.5Q613 613 625 540Q637 467 637 375ZM327 780Q235 780 191.5 796.5Q148 813 140 848Q128 900 173 900H216Q233 900 240 895Q247 890 253 880Q259 870 274 864.5Q289 859 327 859Q365 859 380 864.5Q395 870 401 880Q407 890 414 895Q421 900 438 900H481Q526 900 514 848Q506 813 462.5 796.5Q419 780 327 780Z" glyph-name="Obreve" horiz-adv-x="654" unicode="&#334;" /><glyph d="M391 900Q405 900 414 900Q423 900 430.5 898.5Q438 897 445.5 894Q453 891 462 886L540 842Q549 837 552.5 828.5Q556 820 554.5 811.5Q553 803 546.5 796.5Q540 790 527 790H429Q415 790 404.5 791Q394 792 385 794Q376 796 367 800Q358 804 347 810L327 821L307 810Q296 804 287 800Q278 796 269 794Q260 792 249.5 791Q239 790 225 790H127Q114 790 107.5 796.5Q101 803 99.5 811.5Q98 820 101.5 828.5Q105 837 114 842L192 886Q201 891 208 894Q215 897 222.5 898.5Q230 900 239.5 900Q249 900 263 900ZM401 375Q401 435 398 472.5Q395 510 386.5 530.5Q378 551 363.5 558.5Q349 566 327 566Q304 566 290 558.5Q276 551 267.5 530.5Q259 510 256 472.5Q253 435 253 375Q253 315 256 277.5Q259 240 267.5 219.5Q276 199 290 191.5Q304 184 327 184Q349 184 363.5 191.5Q378 199 386.5 219.5Q395 240 398 277.5Q401 315 401 375ZM637 375Q637 283 625 210Q613 137 579.5 86.5Q546 36 485 9Q424 -18 327 -18Q229 -18 168.5 9Q108 36 74.5 86.5Q41 137 29 210Q17 283 17 375Q17 467 29 540Q41 613 74.5 663.5Q108 714 168.5 741Q229 768 327 768Q424 768 485 741Q546 714 579.5 663.5Q613 613 625 540Q637 467 637 375Z" glyph-name="Ocircumflex" horiz-adv-x="654" unicode="&#212;" /><glyph d="M401 375Q401 435 398 472.5Q395 510 386.5 530.5Q378 551 363.5 558.5Q349 566 327 566Q304 566 290 558.5Q276 551 267.5 530.5Q259 510 256 472.5Q253 435 253 375Q253 315 256 277.5Q259 240 267.5 219.5Q276 199 290 191.5Q304 184 327 184Q349 184 363.5 191.5Q378 199 386.5 219.5Q395 240 398 277.5Q401 315 401 375ZM637 375Q637 283 625 210Q613 137 579.5 86.5Q546 36 485 9Q424 -18 327 -18Q229 -18 168.5 9Q108 36 74.5 86.5Q41 137 29 210Q17 283 17 375Q17 467 29 540Q41 613 74.5 663.5Q108 714 168.5 741Q229 768 327 768Q424 768 485 741Q546 714 579.5 663.5Q613 613 625 540Q637 467 637 375ZM342 845Q342 883 368.5 896.5Q395 910 460 910Q525 910 551.5 896.5Q578 883 578 845Q578 806 551.5 793Q525 780 460 780Q395 780 368.5 793Q342 806 342 845ZM76 845Q76 883 102.5 896.5Q129 910 194 910Q259 910 285.5 896.5Q312 883 312 845Q312 806 285.5 793Q259 780 194 780Q129 780 102.5 793Q76 806 76 845Z" glyph-name="Odieresis" horiz-adv-x="654" unicode="&#214;" /><glyph d="M336 900Q364 900 379 891.5Q394 883 402 854L404 847Q411 822 401 806Q391 790 365 790H285Q258 790 245 793.5Q232 797 218 813L197 836Q185 849 182 861Q179 873 183 881.5Q187 890 196.5 895Q206 900 219 900ZM401 375Q401 435 398 472.5Q395 510 386.5 530.5Q378 551 363.5 558.5Q349 566 327 566Q304 566 290 558.5Q276 551 267.5 530.5Q259 510 256 472.5Q253 435 253 375Q253 315 256 277.5Q259 240 267.5 219.5Q276 199 290 191.5Q304 184 327 184Q349 184 363.5 191.5Q378 199 386.5 219.5Q395 240 398 277.5Q401 315 401 375ZM637 375Q637 283 625 210Q613 137 579.5 86.5Q546 36 485 9Q424 -18 327 -18Q229 -18 168.5 9Q108 36 74.5 86.5Q41 137 29 210Q17 283 17 375Q17 467 29 540Q41 613 74.5 663.5Q108 714 168.5 741Q229 768 327 768Q424 768 485 741Q546 714 579.5 663.5Q613 613 625 540Q637 467 637 375Z" glyph-name="Ograve" horiz-adv-x="654" unicode="&#210;" /><glyph d="M315 900Q328 900 337.5 895Q347 890 351 881.5Q355 873 352 861Q349 849 337 836L316 813Q302 797 289 793.5Q276 790 249 790H199Q173 790 163 806Q153 822 160 847L162 854Q170 883 185 891.5Q200 900 228 900ZM515 900Q528 900 537.5 895Q547 890 551 881.5Q555 873 552 861Q549 849 537 836L516 813Q502 797 489 793.5Q476 790 449 790H399Q373 790 363 806Q353 822 360 847L362 854Q370 883 385 891.5Q400 900 428 900ZM401 375Q401 435 398 472.5Q395 510 386.5 530.5Q378 551 363.5 558.5Q349 566 327 566Q304 566 290 558.5Q276 551 267.5 530.5Q259 510 256 472.5Q253 435 253 375Q253 315 256 277.5Q259 240 267.5 219.5Q276 199 290 191.5Q304 184 327 184Q349 184 363.5 191.5Q378 199 386.5 219.5Q395 240 398 277.5Q401 315 401 375ZM637 375Q637 283 625 210Q613 137 579.5 86.5Q546 36 485 9Q424 -18 327 -18Q229 -18 168.5 9Q108 36 74.5 86.5Q41 137 29 210Q17 283 17 375Q17 467 29 540Q41 613 74.5 663.5Q108 714 168.5 741Q229 768 327 768Q424 768 485 741Q546 714 579.5 663.5Q613 613 625 540Q637 467 637 375Z" glyph-name="Ohungarumlaut" horiz-adv-x="654" unicode="&#336;" /><glyph d="M401 375Q401 435 398 472.5Q395 510 386.5 530.5Q378 551 363.5 558.5Q349 566 327 566Q304 566 290 558.5Q276 551 267.5 530.5Q259 510 256 472.5Q253 435 253 375Q253 315 256 277.5Q259 240 267.5 219.5Q276 199 290 191.5Q304 184 327 184Q349 184 363.5 191.5Q378 199 386.5 219.5Q395 240 398 277.5Q401 315 401 375ZM637 375Q637 283 625 210Q613 137 579.5 86.5Q546 36 485 9Q424 -18 327 -18Q229 -18 168.5 9Q108 36 74.5 86.5Q41 137 29 210Q17 283 17 375Q17 467 29 540Q41 613 74.5 663.5Q108 714 168.5 741Q229 768 327 768Q424 768 485 741Q546 714 579.5 663.5Q613 613 625 540Q637 467 637 375ZM222 790Q170 790 170 843V847Q170 900 222 900H432Q484 900 484 847V843Q484 790 432 790Z" glyph-name="Omacron" horiz-adv-x="654" unicode="&#332;" /><glyph d="M253 339 379 545Q370 557 357.5 561.5Q345 566 327 566Q304 566 290 558.5Q276 551 267.5 530.5Q259 510 256 472.5Q253 435 253 375ZM401 412 275 205Q283 193 296 188.5Q309 184 327 184Q349 184 363.5 191.5Q378 199 386.5 219.5Q395 240 398 277.5Q401 315 401 375ZM565 682Q608 631 622.5 553.5Q637 476 637 375Q637 283 625 210Q613 137 579.5 86.5Q546 36 485 9Q424 -18 327 -18Q273 -18 231.5 -10Q190 -2 158 14Q153 6 148 3Q143 0 130 0H78Q64 0 59.5 7.5Q55 15 65 31L88 68Q46 119 31.5 196.5Q17 274 17 375Q17 467 29 540Q41 613 74.5 663.5Q108 714 168.5 741Q229 768 327 768Q380 768 421.5 760Q463 752 495 736Q500 744 505 747Q510 750 523 750H575Q589 750 593.5 742.5Q598 735 588 719Z" glyph-name="Oslash" horiz-adv-x="654" unicode="&#216;" /><glyph d="M401 375Q401 435 398 472.5Q395 510 386.5 530.5Q378 551 363.5 558.5Q349 566 327 566Q304 566 290 558.5Q276 551 267.5 530.5Q259 510 256 472.5Q253 435 253 375Q253 315 256 277.5Q259 240 267.5 219.5Q276 199 290 191.5Q304 184 327 184Q349 184 363.5 191.5Q378 199 386.5 219.5Q395 240 398 277.5Q401 315 401 375ZM637 375Q637 283 625 210Q613 137 579.5 86.5Q546 36 485 9Q424 -18 327 -18Q229 -18 168.5 9Q108 36 74.5 86.5Q41 137 29 210Q17 283 17 375Q17 467 29 540Q41 613 74.5 663.5Q108 714 168.5 741Q229 768 327 768Q424 768 485 741Q546 714 579.5 663.5Q613 613 625 540Q637 467 637 375ZM427 780Q396 780 370 785Q344 790 322.5 796Q301 802 283.5 807Q266 812 251 812Q232 812 223 803Q217 797 210.5 793.5Q204 790 187 790H136Q113 790 103.5 803.5Q94 817 101 843Q112 883 144 896.5Q176 910 227 910Q258 910 284 905Q310 900 331.5 894Q353 888 370.5 883Q388 878 403 878Q422 878 431 887Q437 893 443.5 896.5Q450 900 467 900H518Q541 900 550.5 886.5Q560 873 553 847Q542 807 510 793.5Q478 780 427 780Z" glyph-name="Otilde" horiz-adv-x="654" unicode="&#213;" /><glyph d="M259 427H315Q368 427 368 495Q368 563 315 563H259ZM259 80Q259 0 179 0H109Q29 0 29 80V670Q29 750 109 750H308Q390 750 446 732.5Q502 715 536.5 682.5Q571 650 586.5 603Q602 556 602 497Q602 438 586.5 391Q571 344 536.5 311Q502 278 446 260.5Q390 243 308 243H259Z" glyph-name="P" horiz-adv-x="605" unicode="P" /><glyph d="M401 375Q401 435 398 472.5Q395 510 386.5 530.5Q378 551 363.5 558.5Q349 566 327 566Q304 566 290 558.5Q276 551 267.5 530.5Q259 510 256 472.5Q253 435 253 375Q253 315 256 277.5Q259 240 267.5 219.5Q276 199 290 191.5Q304 184 327 184Q349 184 363.5 191.5Q378 199 386.5 219.5Q395 240 398 277.5Q401 315 401 375ZM637 375Q637 270 621.5 191Q606 112 559 61L615 49Q660 39 676 12Q692 -15 692 -58V-69Q692 -93 682 -109.5Q672 -126 656 -135Q640 -144 620 -145Q600 -146 579 -138L196 -1Q141 16 106 49Q71 82 51.5 130Q32 178 24.5 239.5Q17 301 17 375Q17 467 29 540Q41 613 74.5 663.5Q108 714 168.5 741Q229 768 327 768Q424 768 485 741Q546 714 579.5 663.5Q613 613 625 540Q637 467 637 375Z" glyph-name="Q" horiz-adv-x="654" unicode="Q" /><glyph d="M256 440H319Q345 440 356.5 454.5Q368 469 368 498Q368 527 356.5 541.5Q345 556 319 556H256ZM256 80Q256 0 176 0H109Q29 0 29 80V670Q29 750 109 750H328Q410 750 464.5 733Q519 716 552 684Q585 652 598.5 607Q612 562 612 505Q612 436 592 385Q572 334 521 302L613 130Q626 105 628 81.5Q630 58 621.5 40Q613 22 596 11Q579 0 554 0H476Q433 0 407.5 17.5Q382 35 367 80L305 260H256Z" glyph-name="R" horiz-adv-x="634" unicode="R" /><glyph d="M256 440H319Q345 440 356.5 454.5Q368 469 368 498Q368 527 356.5 541.5Q345 556 319 556H256ZM388 900Q401 900 410.5 895Q420 890 424 881.5Q428 873 425 861Q422 849 410 836L389 813Q375 797 362 793.5Q349 790 322 790H242Q216 790 206 806Q196 822 203 847L205 854Q213 883 228 891.5Q243 900 271 900ZM256 80Q256 0 176 0H109Q29 0 29 80V670Q29 750 109 750H328Q410 750 464.5 733Q519 716 552 684Q585 652 598.5 607Q612 562 612 505Q612 436 592 385Q572 334 521 302L613 130Q626 105 628 81.5Q630 58 621.5 40Q613 22 596 11Q579 0 554 0H476Q433 0 407.5 17.5Q382 35 367 80L305 260H256Z" glyph-name="Racute" horiz-adv-x="634" unicode="&#340;" /><glyph d="M256 440H319Q345 440 356.5 454.5Q368 469 368 498Q368 527 356.5 541.5Q345 556 319 556H256ZM218 790Q204 790 194.5 790Q185 790 177.5 791.5Q170 793 163 796Q156 799 147 804L69 848Q60 853 56.5 861.5Q53 870 54.5 878.5Q56 887 62.5 893.5Q69 900 82 900H180Q194 900 204.5 899Q215 898 224 896Q233 894 242 890Q251 886 262 880L282 869L302 880Q313 886 322 890Q331 894 340 896Q349 898 359.5 899Q370 900 384 900H482Q495 900 501.5 893.5Q508 887 509.5 878.5Q511 870 507.5 861.5Q504 853 495 848L417 804Q408 799 400.5 796Q393 793 385.5 791.5Q378 790 369 790Q360 790 346 790ZM256 80Q256 0 176 0H109Q29 0 29 80V670Q29 750 109 750H328Q410 750 464.5 733Q519 716 552 684Q585 652 598.5 607Q612 562 612 505Q612 436 592 385Q572 334 521 302L613 130Q626 105 628 81.5Q630 58 621.5 40Q613 22 596 11Q579 0 554 0H476Q433 0 407.5 17.5Q382 35 367 80L305 260H256Z" glyph-name="Rcaron" horiz-adv-x="634" unicode="&#344;" /><glyph d="M256 440H319Q345 440 356.5 454.5Q368 469 368 498Q368 527 356.5 541.5Q345 556 319 556H256ZM356 -50Q398 -50 411.5 -74Q425 -98 408 -130L374 -197Q366 -213 359 -223.5Q352 -234 343.5 -240Q335 -246 325 -248Q315 -250 301 -250H264Q235 -250 219.5 -235Q204 -220 209 -189L220 -108Q225 -76 243 -63Q261 -50 289 -50ZM256 80Q256 0 176 0H109Q29 0 29 80V670Q29 750 109 750H328Q410 750 464.5 733Q519 716 552 684Q585 652 598.5 607Q612 562 612 505Q612 436 592 385Q572 334 521 302L613 130Q626 105 628 81.5Q630 58 621.5 40Q613 22 596 11Q579 0 554 0H476Q433 0 407.5 17.5Q382 35 367 80L305 260H256Z" glyph-name="Rcommaaccent" horiz-adv-x="634" unicode="&#342;" /><glyph d="M346 564Q245 564 245 518Q245 493 268.5 486Q292 479 325 475Q392 468 441.5 454.5Q491 441 523 415Q555 389 570.5 345.5Q586 302 586 235Q586 162 564 113.5Q542 65 501.5 35.5Q461 6 403.5 -6Q346 -18 276 -18Q210 -18 162.5 -10Q115 -2 80 12Q42 27 30 48.5Q18 70 18 102V146Q18 183 42 203.5Q66 224 104 211Q138 199 174 192.5Q210 186 258 186Q310 186 334.5 196.5Q359 207 359 231Q359 244 352.5 252.5Q346 261 335 266.5Q324 272 309.5 275Q295 278 279 280Q211 287 162 299.5Q113 312 81 337.5Q49 363 33.5 405.5Q18 448 18 516Q18 635 93 701.5Q168 768 328 768Q382 768 429 761Q476 754 499 747Q538 735 549.5 713.5Q561 692 561 660V617Q561 599 556 583.5Q551 568 541 558Q531 548 516 544.5Q501 541 482 546Q462 551 427.5 557.5Q393 564 346 564Z" glyph-name="S" horiz-adv-x="600" unicode="S" /><glyph d="M416 900Q429 900 438.5 895Q448 890 452 881.5Q456 873 453 861Q450 849 438 836L417 813Q403 797 390 793.5Q377 790 350 790H270Q244 790 234 806Q224 822 231 847L233 854Q241 883 256 891.5Q271 900 299 900ZM346 564Q245 564 245 518Q245 493 268.5 486Q292 479 325 475Q392 468 441.5 454.5Q491 441 523 415Q555 389 570.5 345.5Q586 302 586 235Q586 162 564 113.5Q542 65 501.5 35.5Q461 6 403.5 -6Q346 -18 276 -18Q210 -18 162.5 -10Q115 -2 80 12Q42 27 30 48.5Q18 70 18 102V146Q18 183 42 203.5Q66 224 104 211Q138 199 174 192.5Q210 186 258 186Q310 186 334.5 196.5Q359 207 359 231Q359 244 352.5 252.5Q346 261 335 266.5Q324 272 309.5 275Q295 278 279 280Q211 287 162 299.5Q113 312 81 337.5Q49 363 33.5 405.5Q18 448 18 516Q18 635 93 701.5Q168 768 328 768Q382 768 429 761Q476 754 499 747Q538 735 549.5 713.5Q561 692 561 660V617Q561 599 556 583.5Q551 568 541 558Q531 548 516 544.5Q501 541 482 546Q462 551 427.5 557.5Q393 564 346 564Z" glyph-name="Sacute" horiz-adv-x="600" unicode="&#346;" /><glyph d="M244 790Q230 790 220.5 790Q211 790 203.5 791.5Q196 793 189 796Q182 799 173 804L95 848Q86 853 82.5 861.5Q79 870 80.5 878.5Q82 887 88.5 893.5Q95 900 108 900H206Q220 900 230.5 899Q241 898 250 896Q259 894 268 890Q277 886 288 880L308 869L328 880Q339 886 348 890Q357 894 366 896Q375 898 385.5 899Q396 900 410 900H508Q521 900 527.5 893.5Q534 887 535.5 878.5Q537 870 533.5 861.5Q530 853 521 848L443 804Q434 799 426.5 796Q419 793 411.5 791.5Q404 790 395 790Q386 790 372 790ZM346 564Q245 564 245 518Q245 493 268.5 486Q292 479 325 475Q392 468 441.5 454.5Q491 441 523 415Q555 389 570.5 345.5Q586 302 586 235Q586 162 564 113.5Q542 65 501.5 35.5Q461 6 403.5 -6Q346 -18 276 -18Q210 -18 162.5 -10Q115 -2 80 12Q42 27 30 48.5Q18 70 18 102V146Q18 183 42 203.5Q66 224 104 211Q138 199 174 192.5Q210 186 258 186Q310 186 334.5 196.5Q359 207 359 231Q359 244 352.5 252.5Q346 261 335 266.5Q324 272 309.5 275Q295 278 279 280Q211 287 162 299.5Q113 312 81 337.5Q49 363 33.5 405.5Q18 448 18 516Q18 635 93 701.5Q168 768 328 768Q382 768 429 761Q476 754 499 747Q538 735 549.5 713.5Q561 692 561 660V617Q561 599 556 583.5Q551 568 541 558Q531 548 516 544.5Q501 541 482 546Q462 551 427.5 557.5Q393 564 346 564Z" glyph-name="Scaron" horiz-adv-x="600" unicode="&#352;" /><glyph d="M259 -139Q285 -139 301.5 -132Q318 -125 318 -112Q318 -100 307 -92.5Q296 -85 282 -82Q259 -77 250 -66Q241 -55 243 -33L244 -17Q190 -15 150.5 -7.5Q111 0 80 12Q42 27 30 48.5Q18 70 18 102V146Q18 183 42 203.5Q66 224 104 211Q138 199 174 192.5Q210 186 258 186Q310 186 334.5 196.5Q359 207 359 231Q359 244 352.5 252.5Q346 261 335 266.5Q324 272 309.5 275Q295 278 279 280Q211 287 162 299.5Q113 312 81 337.5Q49 363 33.5 405.5Q18 448 18 516Q18 635 93 701.5Q168 768 328 768Q382 768 429 761Q476 754 499 747Q538 735 549.5 713.5Q561 692 561 660V617Q561 599 556 583.5Q551 568 541 558Q531 548 516 544.5Q501 541 482 546Q462 551 427.5 557.5Q393 564 346 564Q245 564 245 518Q245 493 268.5 486Q292 479 325 475Q392 468 441.5 454.5Q491 441 523 415Q555 389 570.5 345.5Q586 302 586 235Q586 171 569 125.5Q552 80 520 50.5Q488 21 442.5 5.5Q397 -10 340 -15L341 -32Q341 -41 350 -44Q395 -56 424 -79.5Q453 -103 453 -145Q453 -198 408.5 -224Q364 -250 289 -250Q257 -250 238.5 -247Q220 -244 211 -242Q194 -238 185 -224.5Q176 -211 176 -192V-180Q176 -159 186.5 -147Q197 -135 215 -135Q222 -135 236 -137Q250 -139 259 -139Z" glyph-name="Scedilla" horiz-adv-x="600" unicode="&#350;" /><glyph d="M372 900Q386 900 395 900Q404 900 411.5 898.5Q419 897 426.5 894Q434 891 443 886L521 842Q530 837 533.5 828.5Q537 820 535.5 811.5Q534 803 527.5 796.5Q521 790 508 790H410Q396 790 385.5 791Q375 792 366 794Q357 796 348 800Q339 804 328 810L308 821L288 810Q277 804 268 800Q259 796 250 794Q241 792 230.5 791Q220 790 206 790H108Q95 790 88.5 796.5Q82 803 80.5 811.5Q79 820 82.5 828.5Q86 837 95 842L173 886Q182 891 189 894Q196 897 203.5 898.5Q211 900 220.5 900Q230 900 244 900ZM346 564Q245 564 245 518Q245 493 268.5 486Q292 479 325 475Q392 468 441.5 454.5Q491 441 523 415Q555 389 570.5 345.5Q586 302 586 235Q586 162 564 113.5Q542 65 501.5 35.5Q461 6 403.5 -6Q346 -18 276 -18Q210 -18 162.5 -10Q115 -2 80 12Q42 27 30 48.5Q18 70 18 102V146Q18 183 42 203.5Q66 224 104 211Q138 199 174 192.5Q210 186 258 186Q310 186 334.5 196.5Q359 207 359 231Q359 244 352.5 252.5Q346 261 335 266.5Q324 272 309.5 275Q295 278 279 280Q211 287 162 299.5Q113 312 81 337.5Q49 363 33.5 405.5Q18 448 18 516Q18 635 93 701.5Q168 768 328 768Q382 768 429 761Q476 754 499 747Q538 735 549.5 713.5Q561 692 561 660V617Q561 599 556 583.5Q551 568 541 558Q531 548 516 544.5Q501 541 482 546Q462 551 427.5 557.5Q393 564 346 564Z" glyph-name="Scircumflex" horiz-adv-x="600" unicode="&#348;" /><glyph d="M346 564Q245 564 245 518Q245 493 268.5 486Q292 479 325 475Q392 468 441.5 454.5Q491 441 523 415Q555 389 570.5 345.5Q586 302 586 235Q586 162 564 113.5Q542 65 501.5 35.5Q461 6 403.5 -6Q346 -18 276 -18Q210 -18 162.5 -10Q115 -2 80 12Q42 27 30 48.5Q18 70 18 102V146Q18 183 42 203.5Q66 224 104 211Q138 199 174 192.5Q210 186 258 186Q310 186 334.5 196.5Q359 207 359 231Q359 244 352.5 252.5Q346 261 335 266.5Q324 272 309.5 275Q295 278 279 280Q211 287 162 299.5Q113 312 81 337.5Q49 363 33.5 405.5Q18 448 18 516Q18 635 93 701.5Q168 768 328 768Q382 768 429 761Q476 754 499 747Q538 735 549.5 713.5Q561 692 561 660V617Q561 599 556 583.5Q551 568 541 558Q531 548 516 544.5Q501 541 482 546Q462 551 427.5 557.5Q393 564 346 564ZM327 -50Q369 -50 382.5 -74Q396 -98 379 -130L345 -197Q337 -213 330 -223.5Q323 -234 314.5 -240Q306 -246 296 -248Q286 -250 272 -250H235Q206 -250 190.5 -235Q175 -220 180 -189L191 -108Q196 -76 214 -63Q232 -50 260 -50Z" glyph-name="Scommaaccent" horiz-adv-x="600" unicode="&#536;" /><glyph d="M408 80Q408 0 328 0H256Q176 0 176 80V550H85Q5 550 5 630V670Q5 750 85 750H499Q579 750 579 670V630Q579 550 499 550H408Z" glyph-name="T" horiz-adv-x="584" unicode="T" /><glyph d="M176 455V550H85Q5 550 5 630V670Q5 750 85 750H499Q579 750 579 670V630Q579 550 499 550H408V455H452Q512 455 512 395V375Q512 315 452 315H408V80Q408 0 328 0H256Q176 0 176 80V315H132Q72 315 72 375V395Q72 455 132 455Z" glyph-name="Tbar" horiz-adv-x="584" unicode="&#358;" /><glyph d="M228 790Q214 790 204.5 790Q195 790 187.5 791.5Q180 793 173 796Q166 799 157 804L79 848Q70 853 66.5 861.5Q63 870 64.5 878.5Q66 887 72.5 893.5Q79 900 92 900H190Q204 900 214.5 899Q225 898 234 896Q243 894 252 890Q261 886 272 880L292 869L312 880Q323 886 332 890Q341 894 350 896Q359 898 369.5 899Q380 900 394 900H492Q505 900 511.5 893.5Q518 887 519.5 878.5Q521 870 517.5 861.5Q514 853 505 848L427 804Q418 799 410.5 796Q403 793 395.5 791.5Q388 790 379 790Q370 790 356 790ZM408 80Q408 0 328 0H256Q176 0 176 80V550H85Q5 550 5 630V670Q5 750 85 750H499Q579 750 579 670V630Q579 550 499 550H408Z" glyph-name="Tcaron" horiz-adv-x="584" unicode="&#356;" /><glyph d="M408 80Q408 0 328 0H256Q176 0 176 80V550H85Q5 550 5 630V670Q5 750 85 750H499Q579 750 579 670V630Q579 550 499 550H408ZM324 -50Q366 -50 379.5 -74Q393 -98 376 -130L342 -197Q334 -213 327 -223.5Q320 -234 311.5 -240Q303 -246 293 -248Q283 -250 269 -250H232Q203 -250 187.5 -235Q172 -220 177 -189L188 -108Q193 -76 211 -63Q229 -50 257 -50Z" glyph-name="Tcommaaccent" horiz-adv-x="584" unicode="&#354;" /><glyph d="M358 375Q358 396 346.5 414.5Q335 433 309 433H261V317H309Q335 317 346.5 335.5Q358 354 358 375ZM29 670Q29 750 109 750H181Q261 750 261 670V630H308Q390 630 446 608.5Q502 587 536.5 551.5Q571 516 586.5 470Q602 424 602 375Q602 326 586.5 280Q571 234 536.5 198.5Q502 163 446 141.5Q390 120 308 120H261V80Q261 0 181 0H109Q29 0 29 80Z" glyph-name="Thorn" horiz-adv-x="611" unicode="&#222;" /><glyph d="M327 -18Q269 -18 214.5 -5.5Q160 7 117.5 37.5Q75 68 49.5 119.5Q24 171 24 250V670Q24 750 104 750H176Q256 750 256 670V271Q256 244 261 227Q266 210 275 200.5Q284 191 297 187.5Q310 184 327 184Q344 184 357 187.5Q370 191 379 200.5Q388 210 393 227Q398 244 398 271V670Q398 750 478 750H550Q630 750 630 670V250Q630 171 604.5 119.5Q579 68 536.5 37.5Q494 7 439.5 -5.5Q385 -18 327 -18Z" glyph-name="U" horiz-adv-x="654" unicode="U" /><glyph d="M435 900Q448 900 457.5 895Q467 890 471 881.5Q475 873 472 861Q469 849 457 836L436 813Q422 797 409 793.5Q396 790 369 790H289Q263 790 253 806Q243 822 250 847L252 854Q260 883 275 891.5Q290 900 318 900ZM327 -18Q269 -18 214.5 -5.5Q160 7 117.5 37.5Q75 68 49.5 119.5Q24 171 24 250V670Q24 750 104 750H176Q256 750 256 670V271Q256 244 261 227Q266 210 275 200.5Q284 191 297 187.5Q310 184 327 184Q344 184 357 187.5Q370 191 379 200.5Q388 210 393 227Q398 244 398 271V670Q398 750 478 750H550Q630 750 630 670V250Q630 171 604.5 119.5Q579 68 536.5 37.5Q494 7 439.5 -5.5Q385 -18 327 -18Z" glyph-name="Uacute" horiz-adv-x="654" unicode="&#218;" /><glyph d="M327 -18Q269 -18 214.5 -5.5Q160 7 117.5 37.5Q75 68 49.5 119.5Q24 171 24 250V670Q24 750 104 750H176Q256 750 256 670V271Q256 244 261 227Q266 210 275 200.5Q284 191 297 187.5Q310 184 327 184Q344 184 357 187.5Q370 191 379 200.5Q388 210 393 227Q398 244 398 271V670Q398 750 478 750H550Q630 750 630 670V250Q630 171 604.5 119.5Q579 68 536.5 37.5Q494 7 439.5 -5.5Q385 -18 327 -18ZM327 780Q235 780 191.5 796.5Q148 813 140 848Q128 900 173 900H216Q233 900 240 895Q247 890 253 880Q259 870 274 864.5Q289 859 327 859Q365 859 380 864.5Q395 870 401 880Q407 890 414 895Q421 900 438 900H481Q526 900 514 848Q506 813 462.5 796.5Q419 780 327 780Z" glyph-name="Ubreve" horiz-adv-x="654" unicode="&#364;" /><glyph d="M391 900Q405 900 414 900Q423 900 430.5 898.5Q438 897 445.5 894Q453 891 462 886L540 842Q549 837 552.5 828.5Q556 820 554.5 811.5Q553 803 546.5 796.5Q540 790 527 790H429Q415 790 404.5 791Q394 792 385 794Q376 796 367 800Q358 804 347 810L327 821L307 810Q296 804 287 800Q278 796 269 794Q260 792 249.5 791Q239 790 225 790H127Q114 790 107.5 796.5Q101 803 99.5 811.5Q98 820 101.5 828.5Q105 837 114 842L192 886Q201 891 208 894Q215 897 222.5 898.5Q230 900 239.5 900Q249 900 263 900ZM327 -18Q269 -18 214.5 -5.5Q160 7 117.5 37.5Q75 68 49.5 119.5Q24 171 24 250V670Q24 750 104 750H176Q256 750 256 670V271Q256 244 261 227Q266 210 275 200.5Q284 191 297 187.5Q310 184 327 184Q344 184 357 187.5Q370 191 379 200.5Q388 210 393 227Q398 244 398 271V670Q398 750 478 750H550Q630 750 630 670V250Q630 171 604.5 119.5Q579 68 536.5 37.5Q494 7 439.5 -5.5Q385 -18 327 -18Z" glyph-name="Ucircumflex" horiz-adv-x="654" unicode="&#219;" /><glyph d="M327 -18Q269 -18 214.5 -5.5Q160 7 117.5 37.5Q75 68 49.5 119.5Q24 171 24 250V670Q24 750 104 750H176Q256 750 256 670V271Q256 244 261 227Q266 210 275 200.5Q284 191 297 187.5Q310 184 327 184Q344 184 357 187.5Q370 191 379 200.5Q388 210 393 227Q398 244 398 271V670Q398 750 478 750H550Q630 750 630 670V250Q630 171 604.5 119.5Q579 68 536.5 37.5Q494 7 439.5 -5.5Q385 -18 327 -18ZM342 845Q342 883 368.5 896.5Q395 910 460 910Q525 910 551.5 896.5Q578 883 578 845Q578 806 551.5 793Q525 780 460 780Q395 780 368.5 793Q342 806 342 845ZM76 845Q76 883 102.5 896.5Q129 910 194 910Q259 910 285.5 896.5Q312 883 312 845Q312 806 285.5 793Q259 780 194 780Q129 780 102.5 793Q76 806 76 845Z" glyph-name="Udieresis" horiz-adv-x="654" unicode="&#220;" /><glyph d="M336 900Q364 900 379 891.5Q394 883 402 854L404 847Q411 822 401 806Q391 790 365 790H285Q258 790 245 793.5Q232 797 218 813L197 836Q185 849 182 861Q179 873 183 881.5Q187 890 196.5 895Q206 900 219 900ZM327 -18Q269 -18 214.5 -5.5Q160 7 117.5 37.5Q75 68 49.5 119.5Q24 171 24 250V670Q24 750 104 750H176Q256 750 256 670V271Q256 244 261 227Q266 210 275 200.5Q284 191 297 187.5Q310 184 327 184Q344 184 357 187.5Q370 191 379 200.5Q388 210 393 227Q398 244 398 271V670Q398 750 478 750H550Q630 750 630 670V250Q630 171 604.5 119.5Q579 68 536.5 37.5Q494 7 439.5 -5.5Q385 -18 327 -18Z" glyph-name="Ugrave" horiz-adv-x="654" unicode="&#217;" /><glyph d="M315 900Q328 900 337.5 895Q347 890 351 881.5Q355 873 352 861Q349 849 337 836L316 813Q302 797 289 793.5Q276 790 249 790H199Q173 790 163 806Q153 822 160 847L162 854Q170 883 185 891.5Q200 900 228 900ZM515 900Q528 900 537.5 895Q547 890 551 881.5Q555 873 552 861Q549 849 537 836L516 813Q502 797 489 793.5Q476 790 449 790H399Q373 790 363 806Q353 822 360 847L362 854Q370 883 385 891.5Q400 900 428 900ZM327 -18Q269 -18 214.5 -5.5Q160 7 117.5 37.5Q75 68 49.5 119.5Q24 171 24 250V670Q24 750 104 750H176Q256 750 256 670V271Q256 244 261 227Q266 210 275 200.5Q284 191 297 187.5Q310 184 327 184Q344 184 357 187.5Q370 191 379 200.5Q388 210 393 227Q398 244 398 271V670Q398 750 478 750H550Q630 750 630 670V250Q630 171 604.5 119.5Q579 68 536.5 37.5Q494 7 439.5 -5.5Q385 -18 327 -18Z" glyph-name="Uhungarumlaut" horiz-adv-x="654" unicode="&#368;" /><glyph d="M327 -18Q269 -18 214.5 -5.5Q160 7 117.5 37.5Q75 68 49.5 119.5Q24 171 24 250V670Q24 750 104 750H176Q256 750 256 670V271Q256 244 261 227Q266 210 275 200.5Q284 191 297 187.5Q310 184 327 184Q344 184 357 187.5Q370 191 379 200.5Q388 210 393 227Q398 244 398 271V670Q398 750 478 750H550Q630 750 630 670V250Q630 171 604.5 119.5Q579 68 536.5 37.5Q494 7 439.5 -5.5Q385 -18 327 -18ZM222 790Q170 790 170 843V847Q170 900 222 900H432Q484 900 484 847V843Q484 790 432 790Z" glyph-name="Umacron" horiz-adv-x="654" unicode="&#362;" /><glyph d="M413 -136Q422 -136 426.5 -135.5Q431 -135 438 -135Q456 -135 467 -149Q478 -163 478 -184V-190Q478 -209 468 -223.5Q458 -238 437 -243Q428 -245 411 -247.5Q394 -250 362 -250Q280 -250 236.5 -216Q193 -182 193 -127Q193 -63 246 -12Q200 -5 159.5 12.5Q119 30 89 61Q59 92 41.5 138.5Q24 185 24 250V670Q24 750 104 750H176Q256 750 256 670V271Q256 244 261 227Q266 210 275 200.5Q284 191 297 187.5Q310 184 327 184Q344 184 357 187.5Q370 191 379 200.5Q388 210 393 227Q398 244 398 271V670Q398 750 478 750H550Q630 750 630 670V250Q630 193 616 150.5Q602 108 578 77.5Q554 47 521 27.5Q488 8 451 -3Q397 -19 375 -44Q353 -69 353 -95Q353 -112 365 -124Q377 -136 413 -136Z" glyph-name="Uogonek" horiz-adv-x="654" unicode="&#370;" /><glyph d="M327 -18Q269 -18 214.5 -5.5Q160 7 117.5 37.5Q75 68 49.5 119.5Q24 171 24 250V670Q24 750 104 750H176Q256 750 256 670V271Q256 244 261 227Q266 210 275 200.5Q284 191 297 187.5Q310 184 327 184Q344 184 357 187.5Q370 191 379 200.5Q388 210 393 227Q398 244 398 271V670Q398 750 478 750H550Q630 750 630 670V250Q630 171 604.5 119.5Q579 68 536.5 37.5Q494 7 439.5 -5.5Q385 -18 327 -18ZM200 870Q200 893 206 910Q212 927 226 938Q240 949 264.5 954.5Q289 960 327 960Q364 960 389 954.5Q414 949 428 938Q442 927 448 910Q454 893 454 870Q454 847 448 830Q442 813 428 802Q414 791 389 785.5Q364 780 327 780Q289 780 264.5 785.5Q240 791 226 802Q212 813 206 830Q200 847 200 870ZM296 870Q296 860 302 856Q308 852 327 852Q346 852 352 856Q358 860 358 870Q358 880 352 884Q346 888 327 888Q308 888 302 884Q296 880 296 870Z" glyph-name="Uring" horiz-adv-x="654" unicode="&#366;" /><glyph d="M327 -18Q269 -18 214.5 -5.5Q160 7 117.5 37.5Q75 68 49.5 119.5Q24 171 24 250V670Q24 750 104 750H176Q256 750 256 670V271Q256 244 261 227Q266 210 275 200.5Q284 191 297 187.5Q310 184 327 184Q344 184 357 187.5Q370 191 379 200.5Q388 210 393 227Q398 244 398 271V670Q398 750 478 750H550Q630 750 630 670V250Q630 171 604.5 119.5Q579 68 536.5 37.5Q494 7 439.5 -5.5Q385 -18 327 -18ZM427 780Q396 780 370 785Q344 790 322.5 796Q301 802 283.5 807Q266 812 251 812Q232 812 223 803Q217 797 210.5 793.5Q204 790 187 790H136Q113 790 103.5 803.5Q94 817 101 843Q112 883 144 896.5Q176 910 227 910Q258 910 284 905Q310 900 331.5 894Q353 888 370.5 883Q388 878 403 878Q422 878 431 887Q437 893 443.5 896.5Q450 900 467 900H518Q541 900 550.5 886.5Q560 873 553 847Q542 807 510 793.5Q478 780 427 780Z" glyph-name="Utilde" horiz-adv-x="654" unicode="&#360;" /><glyph d="M260 0Q218 0 194.5 19Q171 38 160 80L10 646Q2 676 4.5 696Q7 716 17 728Q27 740 43 745Q59 750 77 750H165Q208 750 225.5 734Q243 718 251 675L322 279L393 675Q397 697 403 711.5Q409 726 418.5 734.5Q428 743 443 746.5Q458 750 479 750H567Q585 750 601 745Q617 740 627 728Q637 716 639.5 696Q642 676 634 646L484 80Q473 38 449.5 19Q426 0 384 0Z" glyph-name="V" horiz-adv-x="644" unicode="V" /><glyph d="M593 0Q513 0 500 80L442 425L384 80Q371 0 291 0H190Q148 0 126.5 19Q105 38 98 80L5 655Q0 685 4.5 703.5Q9 722 19.5 732.5Q30 743 45 746.5Q60 750 76 750H149Q192 750 211 732.5Q230 715 233 670L257 324L317 670Q324 715 344.5 732.5Q365 750 408 750H476Q519 750 539.5 732.5Q560 715 567 670L627 324L651 670Q654 715 673 732.5Q692 750 735 750H808Q824 750 839 746.5Q854 743 864.5 732.5Q875 722 879.5 703.5Q884 685 879 655L786 80Q779 38 757.5 19Q736 0 694 0Z" glyph-name="W" horiz-adv-x="884" unicode="W" /><glyph d="M506 900Q520 900 529 900Q538 900 545.5 898.5Q553 897 560.5 894Q568 891 577 886L655 842Q664 837 667.5 828.5Q671 820 669.5 811.5Q668 803 661.5 796.5Q655 790 642 790H544Q530 790 519.5 791Q509 792 500 794Q491 796 482 800Q473 804 462 810L442 821L422 810Q411 804 402 800Q393 796 384 794Q375 792 364.5 791Q354 790 340 790H242Q229 790 222.5 796.5Q216 803 214.5 811.5Q213 820 216.5 828.5Q220 837 229 842L307 886Q316 891 323 894Q330 897 337.5 898.5Q345 900 354.5 900Q364 900 378 900ZM593 0Q513 0 500 80L442 425L384 80Q371 0 291 0H190Q148 0 126.5 19Q105 38 98 80L5 655Q0 685 4.5 703.5Q9 722 19.5 732.5Q30 743 45 746.5Q60 750 76 750H149Q192 750 211 732.5Q230 715 233 670L257 324L317 670Q324 715 344.5 732.5Q365 750 408 750H476Q519 750 539.5 732.5Q560 715 567 670L627 324L651 670Q654 715 673 732.5Q692 750 735 750H808Q824 750 839 746.5Q854 743 864.5 732.5Q875 722 879.5 703.5Q884 685 879 655L786 80Q779 38 757.5 19Q736 0 694 0Z" glyph-name="Wcircumflex" horiz-adv-x="884" unicode="&#372;" /><glyph d="M271 82Q263 63 255.5 47.5Q248 32 237.5 21.5Q227 11 213 5.5Q199 0 179 0H62Q43 0 29.5 9Q16 18 9 33.5Q2 49 4 70Q6 91 18 114L166 391L24 641Q9 666 8 686.5Q7 707 15 721Q23 735 37 742.5Q51 750 66 750H185Q221 750 240.5 733.5Q260 717 274 682L337 518L400 682Q414 717 433.5 733.5Q453 750 489 750H608Q623 750 637 742.5Q651 735 659 721Q667 707 666 686.5Q665 666 650 641L507 391L656 114Q668 91 670 70Q672 49 665 33.5Q658 18 644.5 9Q631 0 612 0H495Q475 0 461 5.5Q447 11 436.5 21.5Q426 32 418 47.5Q410 63 403 82L337 241Z" glyph-name="X" horiz-adv-x="674" unicode="X" /><glyph d="M453 80Q453 0 373 0H301Q221 0 221 80V286L19 637Q3 664 1 685Q-1 706 6.5 720.5Q14 735 28.5 742.5Q43 750 61 750H166Q206 750 226.5 729.5Q247 709 262 675L337 499L412 675Q419 692 427.5 706Q436 720 447 729.5Q458 739 473 744.5Q488 750 508 750H613Q631 750 645.5 742.5Q660 735 667.5 720.5Q675 706 673 685Q671 664 655 637L453 286Z" glyph-name="Y" horiz-adv-x="674" unicode="Y" /><glyph d="M445 900Q458 900 467.5 895Q477 890 481 881.5Q485 873 482 861Q479 849 467 836L446 813Q432 797 419 793.5Q406 790 379 790H299Q273 790 263 806Q253 822 260 847L262 854Q270 883 285 891.5Q300 900 328 900ZM453 80Q453 0 373 0H301Q221 0 221 80V286L19 637Q3 664 1 685Q-1 706 6.5 720.5Q14 735 28.5 742.5Q43 750 61 750H166Q206 750 226.5 729.5Q247 709 262 675L337 499L412 675Q419 692 427.5 706Q436 720 447 729.5Q458 739 473 744.5Q488 750 508 750H613Q631 750 645.5 742.5Q660 735 667.5 720.5Q675 706 673 685Q671 664 655 637L453 286Z" glyph-name="Yacute" horiz-adv-x="674" unicode="&#221;" /><glyph d="M401 900Q415 900 424 900Q433 900 440.5 898.5Q448 897 455.5 894Q463 891 472 886L550 842Q559 837 562.5 828.5Q566 820 564.5 811.5Q563 803 556.5 796.5Q550 790 537 790H439Q425 790 414.5 791Q404 792 395 794Q386 796 377 800Q368 804 357 810L337 821L317 810Q306 804 297 800Q288 796 279 794Q270 792 259.5 791Q249 790 235 790H137Q124 790 117.5 796.5Q111 803 109.5 811.5Q108 820 111.5 828.5Q115 837 124 842L202 886Q211 891 218 894Q225 897 232.5 898.5Q240 900 249.5 900Q259 900 273 900ZM453 80Q453 0 373 0H301Q221 0 221 80V286L19 637Q3 664 1 685Q-1 706 6.5 720.5Q14 735 28.5 742.5Q43 750 61 750H166Q206 750 226.5 729.5Q247 709 262 675L337 499L412 675Q419 692 427.5 706Q436 720 447 729.5Q458 739 473 744.5Q488 750 508 750H613Q631 750 645.5 742.5Q660 735 667.5 720.5Q675 706 673 685Q671 664 655 637L453 286Z" glyph-name="Ycircumflex" horiz-adv-x="674" unicode="&#374;" /><glyph d="M453 80Q453 0 373 0H301Q221 0 221 80V286L19 637Q3 664 1 685Q-1 706 6.5 720.5Q14 735 28.5 742.5Q43 750 61 750H166Q206 750 226.5 729.5Q247 709 262 675L337 499L412 675Q419 692 427.5 706Q436 720 447 729.5Q458 739 473 744.5Q488 750 508 750H613Q631 750 645.5 742.5Q660 735 667.5 720.5Q675 706 673 685Q671 664 655 637L453 286ZM352 845Q352 883 378.5 896.5Q405 910 470 910Q535 910 561.5 896.5Q588 883 588 845Q588 806 561.5 793Q535 780 470 780Q405 780 378.5 793Q352 806 352 845ZM86 845Q86 883 112.5 896.5Q139 910 204 910Q269 910 295.5 896.5Q322 883 322 845Q322 806 295.5 793Q269 780 204 780Q139 780 112.5 793Q86 806 86 845Z" glyph-name="Ydieresis" horiz-adv-x="674" unicode="&#376;" /><glyph d="M5 94Q5 110 13.5 129Q22 148 36 169L290 545H105Q25 545 25 625V670Q25 750 105 750H509Q589 750 589 670V656Q589 640 580.5 621Q572 602 558 581L304 205H519Q599 205 599 125V80Q599 0 519 0H85Q5 0 5 80Z" glyph-name="Z" horiz-adv-x="604" unicode="Z" /><glyph d="M410 900Q423 900 432.5 895Q442 890 446 881.5Q450 873 447 861Q444 849 432 836L411 813Q397 797 384 793.5Q371 790 344 790H264Q238 790 228 806Q218 822 225 847L227 854Q235 883 250 891.5Q265 900 293 900ZM5 94Q5 110 13.5 129Q22 148 36 169L290 545H105Q25 545 25 625V670Q25 750 105 750H509Q589 750 589 670V656Q589 640 580.5 621Q572 602 558 581L304 205H519Q599 205 599 125V80Q599 0 519 0H85Q5 0 5 80Z" glyph-name="Zacute" horiz-adv-x="624" unicode="&#377;" /><glyph d="M238 790Q224 790 214.5 790Q205 790 197.5 791.5Q190 793 183 796Q176 799 167 804L89 848Q80 853 76.5 861.5Q73 870 74.5 878.5Q76 887 82.5 893.5Q89 900 102 900H200Q214 900 224.5 899Q235 898 244 896Q253 894 262 890Q271 886 282 880L302 869L322 880Q333 886 342 890Q351 894 360 896Q369 898 379.5 899Q390 900 404 900H502Q515 900 521.5 893.5Q528 887 529.5 878.5Q531 870 527.5 861.5Q524 853 515 848L437 804Q428 799 420.5 796Q413 793 405.5 791.5Q398 790 389 790Q380 790 366 790ZM5 94Q5 110 13.5 129Q22 148 36 169L290 545H105Q25 545 25 625V670Q25 750 105 750H509Q589 750 589 670V656Q589 640 580.5 621Q572 602 558 581L304 205H519Q599 205 599 125V80Q599 0 519 0H85Q5 0 5 80Z" glyph-name="Zcaron" horiz-adv-x="624" unicode="&#381;" /><glyph d="M5 94Q5 110 13.5 129Q22 148 36 169L290 545H105Q25 545 25 625V670Q25 750 105 750H509Q589 750 589 670V656Q589 640 580.5 621Q572 602 558 581L304 205H519Q599 205 599 125V80Q599 0 519 0H85Q5 0 5 80ZM184 845Q184 883 210.5 896.5Q237 910 302 910Q367 910 393.5 896.5Q420 883 420 845Q420 806 393.5 793Q367 780 302 780Q237 780 210.5 793Q184 806 184 845Z" glyph-name="Zdotaccent" horiz-adv-x="624" unicode="&#379;" /><glyph d="M335 34Q309 13 273.5 -2.5Q238 -18 180 -18Q92 -18 52.5 26.5Q13 71 13 150Q13 193 26 222Q39 251 64.5 269Q90 287 126.5 296.5Q163 306 210 309L297 315V332Q297 344 285.5 352.5Q274 361 236 361Q204 361 170 355Q136 349 106 339Q88 333 75.5 335Q63 337 55 343.5Q47 350 43.5 359.5Q40 369 40 378V436Q40 480 85 493Q117 503 166.5 510.5Q216 518 280 518Q350 518 394 505.5Q438 493 463 469Q488 445 497 410Q506 375 506 331V60Q506 0 446 0H384Q367 0 356 9Q345 18 337 31ZM250 218Q230 216 216 204.5Q202 193 202 168Q202 143 215.5 133.5Q229 124 245 124Q262 124 275 129Q288 134 296 141V223Z" glyph-name="a" horiz-adv-x="524" unicode="a" /><glyph d="M235 250Q235 219 237 199.5Q239 180 244 168.5Q249 157 256.5 153Q264 149 275 149Q286 149 296 152Q306 155 311 158V342Q306 345 296 348Q286 351 275 351Q264 351 256.5 347Q249 343 244 331.5Q239 320 237 300.5Q235 281 235 250ZM541 60Q541 0 481 0H429Q399 0 385 11.5Q371 23 363 42Q327 10 289 -4Q251 -18 209 -18Q160 -18 123 -4.5Q86 9 60.5 40.5Q35 72 22 123.5Q9 175 9 250Q9 325 22 376Q35 427 60.5 458.5Q86 490 123 504Q160 518 209 518Q251 518 289 504Q327 490 363 458Q371 477 385 488.5Q399 500 429 500H481Q541 500 541 440Z" glyph-name="a.school" horiz-adv-x="562" unicode="&#57681;" /><glyph d="M268 188H340L304 361ZM390 500Q432 500 454 481Q476 462 490 420L591 104Q608 50 592 25Q576 0 536 0H455Q412 0 392 16.5Q372 33 363 78H245Q236 33 216 16.5Q196 0 153 0H72Q32 0 16 25Q0 50 17 104L118 420Q132 462 154 481Q176 500 218 500Z" glyph-name="a.smcp" horiz-adv-x="608" unicode="&#57857;" /><glyph d="M141 446Q118 443 118 424Q118 413 124 409Q130 405 138 405Q144 405 152.5 407Q161 409 165 412V448ZM184 357Q171 346 152.5 338.5Q134 331 105 331Q16 331 16 412Q16 457 43 474.5Q70 492 121 497L164 501V502Q164 508 158.5 510.5Q153 513 134 513Q118 513 98 509.5Q78 506 63 501Q45 496 37.5 503.5Q30 511 30 521V559Q30 581 52 587Q69 592 97 595.5Q125 599 157 599Q192 599 214.5 592.5Q237 586 250.5 574Q264 562 269.5 544.5Q275 527 275 505V370Q275 340 245 340H209Q200 340 194.5 344.5Q189 349 185 355Z" glyph-name="a.superior" horiz-adv-x="296" unicode="&#58209;" /><glyph d="M290 370Q290 340 260 340H229Q214 340 207 345.5Q200 351 196 361Q178 345 157 338Q136 331 116 331Q64 331 37.5 360.5Q11 390 11 465Q11 540 37.5 569.5Q64 599 116 599Q136 599 157 592Q178 585 196 569Q200 579 207 584.5Q214 590 229 590H260Q290 590 290 560ZM129 465Q129 434 134.5 424Q140 414 151 414Q156 414 161.5 415.5Q167 417 170 419V511Q162 515 151 515Q140 515 134.5 506Q129 497 129 465Z" glyph-name="a.superiorschool" horiz-adv-x="313" /><glyph d="M335 34Q309 13 273.5 -2.5Q238 -18 180 -18Q92 -18 52.5 26.5Q13 71 13 150Q13 193 26 222Q39 251 64.5 269Q90 287 126.5 296.5Q163 306 210 309L297 315V332Q297 344 285.5 352.5Q274 361 236 361Q204 361 170 355Q136 349 106 339Q88 333 75.5 335Q63 337 55 343.5Q47 350 43.5 359.5Q40 369 40 378V436Q40 480 85 493Q117 503 166.5 510.5Q216 518 280 518Q350 518 394 505.5Q438 493 463 469Q488 445 497 410Q506 375 506 331V60Q506 0 446 0H384Q367 0 356 9Q345 18 337 31ZM250 218Q230 216 216 204.5Q202 193 202 168Q202 143 215.5 133.5Q229 124 245 124Q262 124 275 129Q288 134 296 141V223ZM366 750Q405 750 415 725Q425 700 406 670L360 597Q343 569 327 559.5Q311 550 282 550H252Q223 550 209.5 566.5Q196 583 203 611L223 692Q237 750 292 750Z" glyph-name="aacute" horiz-adv-x="524" unicode="&#225;" /><glyph d="M235 250Q235 219 237 199.5Q239 180 244 168.5Q249 157 256.5 153Q264 149 275 149Q286 149 296 152Q306 155 311 158V342Q306 345 296 348Q286 351 275 351Q264 351 256.5 347Q249 343 244 331.5Q239 320 237 300.5Q235 281 235 250ZM541 60Q541 0 481 0H429Q399 0 385 11.5Q371 23 363 42Q327 10 289 -4Q251 -18 209 -18Q160 -18 123 -4.5Q86 9 60.5 40.5Q35 72 22 123.5Q9 175 9 250Q9 325 22 376Q35 427 60.5 458.5Q86 490 123 504Q160 518 209 518Q251 518 289 504Q327 490 363 458Q371 477 385 488.5Q399 500 429 500H481Q541 500 541 440ZM374 750Q413 750 423 725Q433 700 414 670L368 597Q351 569 335 559.5Q319 550 290 550H260Q231 550 217.5 566.5Q204 583 211 611L231 692Q245 750 300 750Z" glyph-name="aacute.school" horiz-adv-x="562" unicode="&#57683;" /><glyph d="M268 188H340L304 361ZM390 500Q432 500 454 481Q476 462 490 420L591 104Q608 50 592 25Q576 0 536 0H455Q412 0 392 16.5Q372 33 363 78H245Q236 33 216 16.5Q196 0 153 0H72Q32 0 16 25Q0 50 17 104L118 420Q132 462 154 481Q176 500 218 500ZM408 750Q447 750 457 725Q467 700 448 670L402 597Q385 569 369 559.5Q353 550 324 550H294Q265 550 251.5 566.5Q238 583 245 611L265 692Q279 750 334 750Z" glyph-name="aacute.smcp" horiz-adv-x="608" unicode="&#57889;" /><glyph d="M335 34Q309 13 273.5 -2.5Q238 -18 180 -18Q92 -18 52.5 26.5Q13 71 13 150Q13 193 26 222Q39 251 64.5 269Q90 287 126.5 296.5Q163 306 210 309L297 315V332Q297 344 285.5 352.5Q274 361 236 361Q204 361 170 355Q136 349 106 339Q88 333 75.5 335Q63 337 55 343.5Q47 350 43.5 359.5Q40 369 40 378V436Q40 480 85 493Q117 503 166.5 510.5Q216 518 280 518Q350 518 394 505.5Q438 493 463 469Q488 445 497 410Q506 375 506 331V60Q506 0 446 0H384Q367 0 356 9Q345 18 337 31ZM250 218Q230 216 216 204.5Q202 193 202 168Q202 143 215.5 133.5Q229 124 245 124Q262 124 275 129Q288 134 296 141V223ZM262 550Q209 550 173 563Q137 576 114.5 597.5Q92 619 80.5 646.5Q69 674 66 704Q61 750 109 750H144Q164 750 174 743.5Q184 737 189 721Q195 702 211 691Q227 680 262 680Q297 680 313 691Q329 702 335 721Q340 737 350 743.5Q360 750 380 750H415Q463 750 458 704Q455 674 443.5 646.5Q432 619 409.5 597.5Q387 576 350.5 563Q314 550 262 550Z" glyph-name="abreve" horiz-adv-x="524" unicode="&#259;" /><glyph d="M235 250Q235 219 237 199.5Q239 180 244 168.5Q249 157 256.5 153Q264 149 275 149Q286 149 296 152Q306 155 311 158V342Q306 345 296 348Q286 351 275 351Q264 351 256.5 347Q249 343 244 331.5Q239 320 237 300.5Q235 281 235 250ZM541 60Q541 0 481 0H429Q399 0 385 11.5Q371 23 363 42Q327 10 289 -4Q251 -18 209 -18Q160 -18 123 -4.5Q86 9 60.5 40.5Q35 72 22 123.5Q9 175 9 250Q9 325 22 376Q35 427 60.5 458.5Q86 490 123 504Q160 518 209 518Q251 518 289 504Q327 490 363 458Q371 477 385 488.5Q399 500 429 500H481Q541 500 541 440ZM270 550Q217 550 181 563Q145 576 122.5 597.5Q100 619 88.5 646.5Q77 674 74 704Q69 750 117 750H152Q172 750 182 743.5Q192 737 197 721Q203 702 219 691Q235 680 270 680Q305 680 321 691Q337 702 343 721Q348 737 358 743.5Q368 750 388 750H423Q471 750 466 704Q463 674 451.5 646.5Q440 619 417.5 597.5Q395 576 358.5 563Q322 550 270 550Z" glyph-name="abreve.school" horiz-adv-x="562" unicode="&#57690;" /><glyph d="M268 188H340L304 361ZM390 500Q432 500 454 481Q476 462 490 420L591 104Q608 50 592 25Q576 0 536 0H455Q412 0 392 16.5Q372 33 363 78H245Q236 33 216 16.5Q196 0 153 0H72Q32 0 16 25Q0 50 17 104L118 420Q132 462 154 481Q176 500 218 500ZM304 550Q251 550 215 563Q179 576 156.5 597.5Q134 619 122.5 646.5Q111 674 108 704Q103 750 151 750H186Q206 750 216 743.5Q226 737 231 721Q237 702 253 691Q269 680 304 680Q339 680 355 691Q371 702 377 721Q382 737 392 743.5Q402 750 422 750H457Q505 750 500 704Q497 674 485.5 646.5Q474 619 451.5 597.5Q429 576 392.5 563Q356 550 304 550Z" glyph-name="abreve.smcp" horiz-adv-x="608" unicode="&#57897;" /><glyph d="M250 218Q230 216 216 204.5Q202 193 202 168Q202 143 215.5 133.5Q229 124 245 124Q262 124 275 129Q288 134 296 141V223ZM312 750Q332 750 342.5 744.5Q353 739 369 722L464 623Q477 610 479.5 597Q482 584 478 573.5Q474 563 465 556.5Q456 550 444 550H361Q338 550 322 558Q306 566 289 583L262 611L235 583Q218 566 202 558Q186 550 163 550H80Q68 550 59 556.5Q50 563 46 573.5Q42 584 44.5 597Q47 610 60 623L155 722Q171 739 181.5 744.5Q192 750 212 750ZM335 34Q309 13 273.5 -2.5Q238 -18 180 -18Q92 -18 52.5 26.5Q13 71 13 150Q13 193 26 222Q39 251 64.5 269Q90 287 126.5 296.5Q163 306 210 309L297 315V332Q297 344 285.5 352.5Q274 361 236 361Q204 361 170 355Q136 349 106 339Q88 333 75.5 335Q63 337 55 343.5Q47 350 43.5 359.5Q40 369 40 378V436Q40 480 85 493Q117 503 166.5 510.5Q216 518 280 518Q350 518 394 505.5Q438 493 463 469Q488 445 497 410Q506 375 506 331V60Q506 0 446 0H384Q367 0 356 9Q345 18 337 31Z" glyph-name="acircumflex" horiz-adv-x="524" unicode="&#226;" /><glyph d="M235 250Q235 219 237 199.5Q239 180 244 168.5Q249 157 256.5 153Q264 149 275 149Q286 149 296 152Q306 155 311 158V342Q306 345 296 348Q286 351 275 351Q264 351 256.5 347Q249 343 244 331.5Q239 320 237 300.5Q235 281 235 250ZM320 750Q340 750 350.5 744.5Q361 739 377 722L472 623Q485 610 487.5 597Q490 584 486 573.5Q482 563 473 556.5Q464 550 452 550H369Q346 550 330 558Q314 566 297 583L270 611L243 583Q226 566 210 558Q194 550 171 550H88Q76 550 67 556.5Q58 563 54 573.5Q50 584 52.5 597Q55 610 68 623L163 722Q179 739 189.5 744.5Q200 750 220 750ZM541 60Q541 0 481 0H429Q399 0 385 11.5Q371 23 363 42Q327 10 289 -4Q251 -18 209 -18Q160 -18 123 -4.5Q86 9 60.5 40.5Q35 72 22 123.5Q9 175 9 250Q9 325 22 376Q35 427 60.5 458.5Q86 490 123 504Q160 518 209 518Q251 518 289 504Q327 490 363 458Q371 477 385 488.5Q399 500 429 500H481Q541 500 541 440Z" glyph-name="acircumflex.school" horiz-adv-x="562" unicode="&#57684;" /><glyph d="M268 188H340L304 361ZM354 750Q374 750 384.5 744.5Q395 739 411 722L506 623Q519 610 521.5 597Q524 584 520 573.5Q516 563 507 556.5Q498 550 486 550H403Q380 550 364 558Q348 566 331 583L304 611L277 583Q260 566 244 558Q228 550 205 550H122Q110 550 101 556.5Q92 563 88 573.5Q84 584 86.5 597Q89 610 102 623L197 722Q213 739 223.5 744.5Q234 750 254 750ZM390 500Q432 500 454 481Q476 462 490 420L591 104Q608 50 592 25Q576 0 536 0H455Q412 0 392 16.5Q372 33 363 78H245Q236 33 216 16.5Q196 0 153 0H72Q32 0 16 25Q0 50 17 104L118 420Q132 462 154 481Q176 500 218 500Z" glyph-name="acircumflex.smcp" horiz-adv-x="608" unicode="&#57891;" /><glyph d="M371 750Q410 750 420 725Q430 700 411 670L365 597Q348 569 332 559.5Q316 550 287 550H257Q228 550 214.5 566.5Q201 583 208 611L228 692Q242 750 297 750Z" glyph-name="acute" horiz-adv-x="534" unicode="&#180;" /><glyph d="M375 900Q388 900 397.5 895Q407 890 411 881.5Q415 873 412 861Q409 849 397 836L376 813Q362 797 349 793.5Q336 790 309 790H229Q203 790 193 806Q183 822 190 847L192 854Q200 883 215 891.5Q230 900 258 900Z" glyph-name="acute.cap" horiz-adv-x="534" unicode="&#58402;" /><glyph d="M335 34Q309 13 273.5 -2.5Q238 -18 180 -18Q92 -18 52.5 26.5Q13 71 13 150Q13 193 26 222Q39 251 64.5 269Q90 287 126.5 296.5Q163 306 210 309L297 315V332Q297 344 285.5 352.5Q274 361 236 361Q204 361 170 355Q136 349 106 339Q88 333 75.5 335Q63 337 55 343.5Q47 350 43.5 359.5Q40 369 40 378V436Q40 480 85 493Q117 503 166.5 510.5Q216 518 280 518Q350 518 394 505.5Q438 493 463 469Q488 445 497 410Q506 375 506 331V60Q506 0 446 0H384Q367 0 356 9Q345 18 337 31ZM250 218Q230 216 216 204.5Q202 193 202 168Q202 143 215.5 133.5Q229 124 245 124Q262 124 275 129Q288 134 296 141V223ZM277 650Q277 674 286.5 695.5Q296 717 312 733Q328 749 349.5 758.5Q371 768 395 768Q419 768 440.5 758.5Q462 749 478 733Q494 717 503.5 695.5Q513 674 513 650Q513 626 503.5 604.5Q494 583 478 567Q462 551 440.5 541.5Q419 532 395 532Q371 532 349.5 541.5Q328 551 312 567Q296 583 286.5 604.5Q277 626 277 650ZM11 650Q11 674 20.5 695.5Q30 717 46 733Q62 749 83.5 758.5Q105 768 129 768Q153 768 174.5 758.5Q196 749 212 733Q228 717 237.5 695.5Q247 674 247 650Q247 626 237.5 604.5Q228 583 212 567Q196 551 174.5 541.5Q153 532 129 532Q105 532 83.5 541.5Q62 551 46 567Q30 583 20.5 604.5Q11 626 11 650Z" glyph-name="adieresis" horiz-adv-x="524" unicode="&#228;" /><glyph d="M235 250Q235 219 237 199.5Q239 180 244 168.5Q249 157 256.5 153Q264 149 275 149Q286 149 296 152Q306 155 311 158V342Q306 345 296 348Q286 351 275 351Q264 351 256.5 347Q249 343 244 331.5Q239 320 237 300.5Q235 281 235 250ZM541 60Q541 0 481 0H429Q399 0 385 11.5Q371 23 363 42Q327 10 289 -4Q251 -18 209 -18Q160 -18 123 -4.5Q86 9 60.5 40.5Q35 72 22 123.5Q9 175 9 250Q9 325 22 376Q35 427 60.5 458.5Q86 490 123 504Q160 518 209 518Q251 518 289 504Q327 490 363 458Q371 477 385 488.5Q399 500 429 500H481Q541 500 541 440ZM285 650Q285 674 294.5 695.5Q304 717 320 733Q336 749 357.5 758.5Q379 768 403 768Q427 768 448.5 758.5Q470 749 486 733Q502 717 511.5 695.5Q521 674 521 650Q521 626 511.5 604.5Q502 583 486 567Q470 551 448.5 541.5Q427 532 403 532Q379 532 357.5 541.5Q336 551 320 567Q304 583 294.5 604.5Q285 626 285 650ZM19 650Q19 674 28.5 695.5Q38 717 54 733Q70 749 91.5 758.5Q113 768 137 768Q161 768 182.5 758.5Q204 749 220 733Q236 717 245.5 695.5Q255 674 255 650Q255 626 245.5 604.5Q236 583 220 567Q204 551 182.5 541.5Q161 532 137 532Q113 532 91.5 541.5Q70 551 54 567Q38 583 28.5 604.5Q19 626 19 650Z" glyph-name="adieresis.school" horiz-adv-x="562" unicode="&#57685;" /><glyph d="M268 188H340L304 361ZM390 500Q432 500 454 481Q476 462 490 420L591 104Q608 50 592 25Q576 0 536 0H455Q412 0 392 16.5Q372 33 363 78H245Q236 33 216 16.5Q196 0 153 0H72Q32 0 16 25Q0 50 17 104L118 420Q132 462 154 481Q176 500 218 500ZM319 650Q319 674 328.5 695.5Q338 717 354 733Q370 749 391.5 758.5Q413 768 437 768Q461 768 482.5 758.5Q504 749 520 733Q536 717 545.5 695.5Q555 674 555 650Q555 626 545.5 604.5Q536 583 520 567Q504 551 482.5 541.5Q461 532 437 532Q413 532 391.5 541.5Q370 551 354 567Q338 583 328.5 604.5Q319 626 319 650ZM53 650Q53 674 62.5 695.5Q72 717 88 733Q104 749 125.5 758.5Q147 768 171 768Q195 768 216.5 758.5Q238 749 254 733Q270 717 279.5 695.5Q289 674 289 650Q289 626 279.5 604.5Q270 583 254 567Q238 551 216.5 541.5Q195 532 171 532Q147 532 125.5 541.5Q104 551 88 567Q72 583 62.5 604.5Q53 626 53 650Z" glyph-name="adieresis.smcp" horiz-adv-x="608" unicode="&#57892;" /><glyph d="M556 365Q527 365 514 349.5Q501 334 503 296H598Q600 330 591.5 347.5Q583 365 556 365ZM180 -18Q92 -18 52.5 26.5Q13 71 13 150Q13 193 26 222Q39 251 64.5 269Q90 287 126.5 296.5Q163 306 210 309L297 315V332Q297 344 285.5 352.5Q274 361 236 361Q204 361 170 355Q136 349 106 339Q88 333 75.5 335Q63 337 55 343.5Q47 350 43.5 359.5Q40 369 40 378V436Q40 480 85 493Q117 503 166.5 510.5Q216 518 280 518Q325 518 358.5 509Q392 500 417 486Q444 501 482 509.5Q520 518 562 518Q637 518 684 498.5Q731 479 757 445.5Q783 412 792 367.5Q801 323 801 273V256Q801 196 741 196H503Q503 185 505.5 175Q508 165 517 157Q526 149 542.5 144.5Q559 140 585 140Q605 140 626 141.5Q647 143 666.5 145.5Q686 148 702.5 151Q719 154 731 157Q761 164 777 149Q793 134 793 110V64Q793 42 785.5 28Q778 14 755 6Q725 -4 674 -11Q623 -18 565 -18Q496 -18 448 -5.5Q400 7 368 33Q335 10 292.5 -4Q250 -18 180 -18ZM245 124Q277 124 304 145Q296 177 294 223L250 218Q230 216 216 204.5Q202 193 202 168Q202 143 215.5 133.5Q229 124 245 124Z" glyph-name="ae" horiz-adv-x="810" unicode="&#230;" /><glyph d="M284 194H342L336 360ZM786 252Q786 206 739 206H562L568 163H734Q814 163 814 83V80Q814 0 734 0H429Q386 0 367 17.5Q348 35 346 80H249Q235 36 212.5 18Q190 0 147 0H67Q27 0 11 27.5Q-5 55 18 104L162 420Q181 462 205.5 481Q230 500 272 500H734Q814 500 814 420V418Q814 338 734 338H546L551 299H739Q786 299 786 252Z" glyph-name="ae.smcp" horiz-adv-x="847" unicode="&#57905;" /><glyph d="M286 445Q303 483 311.5 519.5Q320 556 320 584Q320 598 316 603Q312 608 307 608Q299 608 292.5 597.5Q286 587 286 563ZM56 496Q56 575 72 627.5Q88 680 117 711.5Q146 743 186.5 755.5Q227 768 276 768Q320 768 351.5 756.5Q383 745 402.5 723Q422 701 431 669.5Q440 638 440 598Q440 539 426.5 489Q413 439 391 396.5Q369 354 341.5 318.5Q314 283 286 253V192Q286 173 295.5 166Q305 159 320 159Q327 159 334 160Q339 161 345 161.5Q351 162 355 162Q372 162 381 152.5Q390 143 390 128V36Q390 16 379 4.5Q368 -7 353 -10Q338 -13 312 -15.5Q286 -18 254 -18Q156 -18 110 20Q64 58 57 128Q42 116 28.5 122.5Q15 129 15 144V233Q15 246 19.5 254Q24 262 31 268L56 289Z" glyph-name="afii61289" horiz-adv-x="445" unicode="&#8467;" /><glyph d="M845 564Q845 522 849.5 510Q854 498 866 498Q878 498 882.5 510Q887 522 887 564Q887 606 882.5 618Q878 630 866 630Q854 630 849.5 618Q845 606 845 564ZM1064 564Q1064 510 1053.5 471.5Q1043 433 1019.5 408Q996 383 958.5 371.5Q921 360 866 360Q811 360 773.5 371.5Q736 383 712.5 408Q689 433 678.5 471.5Q668 510 668 564Q668 618 678.5 656.5Q689 695 712.5 720Q736 745 773.5 756.5Q811 768 866 768Q921 768 958.5 756.5Q996 745 1019.5 720Q1043 695 1053.5 656.5Q1064 618 1064 564ZM482 0Q452 0 430.5 11Q409 22 395 51L254 331V80Q254 0 174 0H109Q29 0 29 80V670Q29 750 109 750H187Q217 750 238.5 739Q260 728 274 699L415 419V670Q415 750 495 750H560Q640 750 640 670V80Q640 0 560 0Z" glyph-name="afii61352" horiz-adv-x="1076" unicode="&#8470;" /><glyph d="M335 34Q309 13 273.5 -2.5Q238 -18 180 -18Q92 -18 52.5 26.5Q13 71 13 150Q13 193 26 222Q39 251 64.5 269Q90 287 126.5 296.5Q163 306 210 309L297 315V332Q297 344 285.5 352.5Q274 361 236 361Q204 361 170 355Q136 349 106 339Q88 333 75.5 335Q63 337 55 343.5Q47 350 43.5 359.5Q40 369 40 378V436Q40 480 85 493Q117 503 166.5 510.5Q216 518 280 518Q350 518 394 505.5Q438 493 463 469Q488 445 497 410Q506 375 506 331V60Q506 0 446 0H384Q367 0 356 9Q345 18 337 31ZM250 218Q230 216 216 204.5Q202 193 202 168Q202 143 215.5 133.5Q229 124 245 124Q262 124 275 129Q288 134 296 141V223ZM233 750Q288 750 302 692L322 611Q329 583 315.5 566.5Q302 550 273 550H243Q214 550 198 559.5Q182 569 165 597L119 670Q100 700 110 725Q120 750 159 750Z" glyph-name="agrave" horiz-adv-x="524" unicode="&#224;" /><glyph d="M235 250Q235 219 237 199.5Q239 180 244 168.5Q249 157 256.5 153Q264 149 275 149Q286 149 296 152Q306 155 311 158V342Q306 345 296 348Q286 351 275 351Q264 351 256.5 347Q249 343 244 331.5Q239 320 237 300.5Q235 281 235 250ZM541 60Q541 0 481 0H429Q399 0 385 11.5Q371 23 363 42Q327 10 289 -4Q251 -18 209 -18Q160 -18 123 -4.5Q86 9 60.5 40.5Q35 72 22 123.5Q9 175 9 250Q9 325 22 376Q35 427 60.5 458.5Q86 490 123 504Q160 518 209 518Q251 518 289 504Q327 490 363 458Q371 477 385 488.5Q399 500 429 500H481Q541 500 541 440ZM241 750Q296 750 310 692L330 611Q337 583 323.5 566.5Q310 550 281 550H251Q222 550 206 559.5Q190 569 173 597L127 670Q108 700 118 725Q128 750 167 750Z" glyph-name="agrave.school" horiz-adv-x="562" unicode="&#57682;" /><glyph d="M268 188H340L304 361ZM390 500Q432 500 454 481Q476 462 490 420L591 104Q608 50 592 25Q576 0 536 0H455Q412 0 392 16.5Q372 33 363 78H245Q236 33 216 16.5Q196 0 153 0H72Q32 0 16 25Q0 50 17 104L118 420Q132 462 154 481Q176 500 218 500ZM275 750Q330 750 344 692L364 611Q371 583 357.5 566.5Q344 550 315 550H285Q256 550 240 559.5Q224 569 207 597L161 670Q142 700 152 725Q162 750 201 750Z" glyph-name="agrave.smcp" horiz-adv-x="608" unicode="&#57890;" /><glyph d="M429 -145Q429 -198 384.5 -224Q340 -250 265 -250Q233 -250 214.5 -247Q196 -244 187 -242Q170 -238 161 -224.5Q152 -211 152 -192V-180Q152 -159 162.5 -147Q173 -135 191 -135Q198 -135 212 -137Q226 -139 235 -139Q261 -139 277.5 -132Q294 -125 294 -112Q294 -100 283 -92Q272 -84 243 -79Q225 -76 219 -68Q213 -60 215 -47Q218 -23 247 -26Q298 -31 333 -42.5Q368 -54 389.5 -69.5Q411 -85 420 -104.5Q429 -124 429 -145Z" glyph-name="altcedilla" horiz-adv-x="534" unicode="&#58390;" /><glyph d="M335 34Q309 13 273.5 -2.5Q238 -18 180 -18Q92 -18 52.5 26.5Q13 71 13 150Q13 193 26 222Q39 251 64.5 269Q90 287 126.5 296.5Q163 306 210 309L297 315V332Q297 344 285.5 352.5Q274 361 236 361Q204 361 170 355Q136 349 106 339Q88 333 75.5 335Q63 337 55 343.5Q47 350 43.5 359.5Q40 369 40 378V436Q40 480 85 493Q117 503 166.5 510.5Q216 518 280 518Q350 518 394 505.5Q438 493 463 469Q488 445 497 410Q506 375 506 331V60Q506 0 446 0H384Q367 0 356 9Q345 18 337 31ZM250 218Q230 216 216 204.5Q202 193 202 168Q202 143 215.5 133.5Q229 124 245 124Q262 124 275 129Q288 134 296 141V223ZM359 720Q419 720 419 660V640Q419 580 359 580H165Q105 580 105 640V660Q105 720 165 720Z" glyph-name="amacron" horiz-adv-x="524" unicode="&#257;" /><glyph d="M235 250Q235 219 237 199.5Q239 180 244 168.5Q249 157 256.5 153Q264 149 275 149Q286 149 296 152Q306 155 311 158V342Q306 345 296 348Q286 351 275 351Q264 351 256.5 347Q249 343 244 331.5Q239 320 237 300.5Q235 281 235 250ZM541 60Q541 0 481 0H429Q399 0 385 11.5Q371 23 363 42Q327 10 289 -4Q251 -18 209 -18Q160 -18 123 -4.5Q86 9 60.5 40.5Q35 72 22 123.5Q9 175 9 250Q9 325 22 376Q35 427 60.5 458.5Q86 490 123 504Q160 518 209 518Q251 518 289 504Q327 490 363 458Q371 477 385 488.5Q399 500 429 500H481Q541 500 541 440ZM367 720Q427 720 427 660V640Q427 580 367 580H173Q113 580 113 640V660Q113 720 173 720Z" glyph-name="amacron.school" horiz-adv-x="562" unicode="&#57689;" /><glyph d="M268 188H340L304 361ZM390 500Q432 500 454 481Q476 462 490 420L591 104Q608 50 592 25Q576 0 536 0H455Q412 0 392 16.5Q372 33 363 78H245Q236 33 216 16.5Q196 0 153 0H72Q32 0 16 25Q0 50 17 104L118 420Q132 462 154 481Q176 500 218 500ZM401 720Q461 720 461 660V640Q461 580 401 580H207Q147 580 147 640V660Q147 720 207 720Z" glyph-name="amacron.smcp" horiz-adv-x="608" unicode="&#57896;" /><glyph d="M313 551Q313 543 318 527Q323 511 329 503L336 506Q357 517 365 528.5Q373 540 373 551Q373 562 366.5 571Q360 580 344 580Q326 580 319.5 571Q313 562 313 551ZM356 158Q326 186 301.5 210.5Q277 235 256 258Q250 265 244 271.5Q238 278 233 285Q226 276 224 264.5Q222 253 222 241Q222 215 232 198Q242 181 258 171.5Q274 162 292 158.5Q310 155 327 155Q333 155 338 155Q343 155 347 156Q351 157 356 158ZM717 184Q746 170 753 144.5Q760 119 748 93L722 36Q696 -20 628 1Q603 9 585.5 16.5Q568 24 545 35Q497 10 440.5 -4Q384 -18 318 -18Q250 -18 193.5 -6Q137 6 97 34Q57 62 35 108.5Q13 155 13 223Q13 266 22 298.5Q31 331 47.5 355Q64 379 87 397Q110 415 137 429Q122 461 113.5 494Q105 527 105 559Q105 658 166.5 713Q228 768 349 768Q469 768 525 713Q581 658 581 559Q581 494 545.5 451.5Q510 409 449 379L429 370Q447 346 468 326Q490 306 516 290Q533 311 543 336Q553 361 553 390Q553 450 613 450H711Q771 450 771 390Q771 280 709 188Z" glyph-name="ampersand" horiz-adv-x="790" unicode="&amp;" /><glyph d="M232 267Q228 259 225 249.5Q222 240 222 227Q222 191 245 173Q268 155 301 155H323Q328 155 333 156Q321 165 307 178.5Q293 192 279.5 207Q266 222 253.5 237.5Q241 253 232 267ZM530 28Q429 -18 301 -18Q215 -18 159.5 0.5Q104 19 71.5 51.5Q39 84 26 128Q13 172 13 223Q13 300 46 346.5Q79 393 132 420Q123 449 115 478.5Q107 508 107 538Q107 648 175.5 708Q244 768 381 768Q443 768 493 759.5Q543 751 578 730Q613 709 632 672.5Q651 636 651 580Q651 546 643.5 520.5Q636 495 633 487Q625 467 610 458.5Q595 450 578 450H468Q444 450 430 463.5Q416 477 421 511Q429 564 381 564Q357 564 346.5 550Q336 536 336 510Q336 476 347 445Q358 414 377.5 386.5Q397 359 422.5 335Q448 311 477 290Q485 307 485 320.5Q485 334 483 346Q479 373 492.5 386.5Q506 400 532 400H639Q656 400 668.5 393Q681 386 692 369Q698 359 704 338Q710 317 710 281Q710 253 703.5 231Q697 209 688 192L717 187Q744 183 756 167Q768 151 768 127V44Q768 18 756.5 0Q745 -18 714 -18Q699 -18 677 -15Q655 -12 629.5 -6Q604 0 578 8.5Q552 17 530 28Z" glyph-name="ampersand.alt" horiz-adv-x="775" /><glyph d="M256 258Q250 265 244 271.5Q238 278 233 285Q226 276 224 264.5Q222 253 222 241Q222 215 232 198Q242 181 258 171.5Q274 162 292 158.5Q310 155 327 155Q333 155 338 155Q343 155 347 156Q351 157 356 158Q326 186 301.5 210.5Q277 235 256 258ZM545 35Q497 10 440.5 -4Q384 -18 318 -18Q250 -18 193.5 -6Q137 6 97 34Q57 62 35 108.5Q13 155 13 223Q13 266 22 298.5Q31 331 47.5 355Q64 379 87 397Q110 415 137 429L135 433Q129 445 130 457Q131 469 137 478.5Q143 488 154 494Q165 500 178 500H302Q324 500 336 491.5Q348 483 356 469Q370 444 387.5 418.5Q405 393 425 369Q445 345 467.5 325Q490 305 516 290Q541 321 548 361.5Q555 402 555 440Q555 467 569.5 483.5Q584 500 613 500H707Q733 500 751 486Q769 472 769 438Q769 403 768 372.5Q767 342 761 313Q755 284 743 253.5Q731 223 709 188Q711 186 714 185Q717 183 723 181Q753 169 759 142Q765 115 754 90L728 29Q715 0 689 -8.5Q663 -17 634 -6Q594 8 545 35Z" glyph-name="ampersand.smcp" horiz-adv-x="790" unicode="&#58369;" /><glyph d="M37 277Q37 284 38 292.5Q39 301 43 315L149 721Q158 756 174 769.5Q190 783 225 783H266Q299 783 313 764Q327 745 317 710L194 277L317 -156Q327 -191 313 -210Q299 -229 266 -229H225Q190 -229 174 -215.5Q158 -202 149 -167L43 239Q39 253 38 261.5Q37 270 37 277Z" glyph-name="anglebracketleft" horiz-adv-x="347" unicode="&#12296;" /><glyph d="M37 375Q37 382 38 390.5Q39 399 43 413L149 819Q158 854 174 867.5Q190 881 225 881H266Q299 881 313 862Q327 843 317 808L194 375L317 -58Q327 -93 313 -112Q299 -131 266 -131H225Q190 -131 174 -117.5Q158 -104 149 -69L43 337Q39 351 38 359.5Q37 368 37 375Z" glyph-name="anglebracketleft.cap" horiz-adv-x="347" unicode="&#58519;" /><glyph d="M310 277Q310 270 309 261.5Q308 253 304 239L198 -167Q189 -202 173 -215.5Q157 -229 122 -229H81Q48 -229 34 -210Q20 -191 30 -156L153 277L30 710Q20 745 34 764Q48 783 81 783H122Q157 783 173 769.5Q189 756 198 721L304 315Q308 301 309 292.5Q310 284 310 277Z" glyph-name="anglebracketright" horiz-adv-x="347" unicode="&#12297;" /><glyph d="M310 375Q310 368 309 359.5Q308 351 304 337L198 -69Q189 -104 173 -117.5Q157 -131 122 -131H81Q48 -131 34 -112Q20 -93 30 -58L153 375L30 808Q20 843 34 862Q48 881 81 881H122Q157 881 173 867.5Q189 854 198 819L304 413Q308 399 309 390.5Q310 382 310 375Z" glyph-name="anglebracketright.cap" horiz-adv-x="347" unicode="&#58520;" /><glyph d="M304 361 245 78Q236 33 216 16.5Q196 0 153 0H72Q32 0 16 25Q0 50 17 104L118 420Q132 462 154 481Q176 500 218 500H390Q432 500 454 481Q476 462 490 420L591 104Q608 50 592 25Q576 0 536 0H455Q412 0 392 16.5Q372 33 363 78Z" glyph-name="anocross.smcp" horiz-adv-x="608" unicode="&#57888;" /><glyph d="M250 218Q230 216 216 204.5Q202 193 202 168Q202 143 215.5 133.5Q229 124 245 124Q262 124 275 129Q288 134 296 141V223ZM335 34Q309 13 273.5 -2.5Q238 -18 180 -18Q92 -18 52.5 26.5Q13 71 13 150Q13 193 26 222Q39 251 64.5 269Q90 287 126.5 296.5Q163 306 210 309L297 315V332Q297 344 285.5 352.5Q274 361 236 361Q204 361 170 355Q136 349 106 339Q88 333 75.5 335Q63 337 55 343.5Q47 350 43.5 359.5Q40 369 40 378V436Q40 480 85 493Q117 503 166.5 510.5Q216 518 280 518Q350 518 394 505.5Q438 493 463 469Q488 445 497 410Q506 375 506 331V60Q506 23 483 8Q399 -45 399 -95Q399 -112 411 -124Q423 -136 459 -136Q468 -136 472.5 -135.5Q477 -135 484 -135Q502 -135 513 -149Q524 -163 524 -184V-190Q524 -209 514 -223.5Q504 -238 483 -243Q474 -245 457 -247.5Q440 -250 408 -250Q326 -250 282.5 -216Q239 -182 239 -127Q239 -77 266 -42Q293 -7 343 21Z" glyph-name="aogonek" horiz-adv-x="524" unicode="&#261;" /><glyph d="M235 250Q235 219 237 199.5Q239 180 244 168.5Q249 157 256.5 153Q264 149 275 149Q286 149 296 152Q306 155 311 158V342Q306 345 296 348Q286 351 275 351Q264 351 256.5 347Q249 343 244 331.5Q239 320 237 300.5Q235 281 235 250ZM494 -136Q503 -136 507.5 -135.5Q512 -135 519 -135Q537 -135 548 -149Q559 -163 559 -184V-190Q559 -209 549 -223.5Q539 -238 518 -243Q509 -245 492 -247.5Q475 -250 443 -250Q361 -250 317.5 -216Q274 -182 274 -127Q274 -78 300.5 -43.5Q327 -9 376 19Q367 29 363 42Q327 10 289 -4Q251 -18 209 -18Q160 -18 123 -4.5Q86 9 60.5 40.5Q35 72 22 123.5Q9 175 9 250Q9 325 22 376Q35 427 60.5 458.5Q86 490 123 504Q160 518 209 518Q251 518 289 504Q327 490 363 458Q371 477 385 488.5Q399 500 429 500H481Q541 500 541 440V60Q541 23 518 8Q434 -45 434 -95Q434 -112 446 -124Q458 -136 494 -136Z" glyph-name="aogonek.school" horiz-adv-x="562" unicode="&#57680;" /><glyph d="M268 188H340L304 361ZM553 -136Q562 -136 566.5 -135.5Q571 -135 578 -135Q596 -135 607 -149Q618 -163 618 -184V-190Q618 -209 608 -223.5Q598 -238 577 -243Q568 -245 551 -247.5Q534 -250 502 -250Q420 -250 376.5 -216Q333 -182 333 -127Q333 -62 383 -17L363 78H245Q236 33 216 16.5Q196 0 153 0H72Q32 0 16 25Q0 50 17 104L118 420Q132 462 154 481Q176 500 218 500H390Q432 500 454 481Q476 462 490 420L591 104Q603 65 597.5 41.5Q592 18 573 7Q531 -16 512 -42.5Q493 -69 493 -95Q493 -112 505 -124Q517 -136 553 -136Z" glyph-name="aogonek.smcp" horiz-adv-x="608" unicode="&#57903;" /><glyph d="M466 324Q410 324 370 335Q330 346 294.5 359Q259 372 223.5 383Q188 394 143 394Q131 394 115 392Q99 390 84 385Q59 377 42.5 387Q26 397 26 424V542Q26 561 34.5 571Q43 581 54 586Q63 590 85.5 597.5Q108 605 134 605Q189 605 229.5 594Q270 583 305.5 570Q341 557 376.5 546Q412 535 457 535Q469 535 485 537Q501 539 516 544Q541 552 557.5 542Q574 532 574 505V387Q574 368 565.5 358Q557 348 546 343Q537 339 514.5 331.5Q492 324 466 324ZM466 77Q410 77 370 88Q330 99 294.5 112Q259 125 223.5 136Q188 147 143 147Q131 147 115 145Q99 143 84 138Q59 130 42.5 140Q26 150 26 177V295Q26 314 34.5 324Q43 334 54 339Q63 343 85.5 350.5Q108 358 134 358Q189 358 229.5 347Q270 336 305.5 323Q341 310 376.5 299Q412 288 457 288Q469 288 485 290Q501 292 516 297Q541 305 557.5 295Q574 285 574 258V140Q574 121 565.5 111Q557 101 546 96Q537 92 514.5 84.5Q492 77 466 77Z" glyph-name="approxequal" horiz-adv-x="600" unicode="&#8776;" /><glyph d="M335 34Q309 13 273.5 -2.5Q238 -18 180 -18Q92 -18 52.5 26.5Q13 71 13 150Q13 193 26 222Q39 251 64.5 269Q90 287 126.5 296.5Q163 306 210 309L297 315V332Q297 344 285.5 352.5Q274 361 236 361Q204 361 170 355Q136 349 106 339Q88 333 75.5 335Q63 337 55 343.5Q47 350 43.5 359.5Q40 369 40 378V436Q40 480 85 493Q117 503 166.5 510.5Q216 518 280 518Q350 518 394 505.5Q438 493 463 469Q488 445 497 410Q506 375 506 331V60Q506 0 446 0H384Q367 0 356 9Q345 18 337 31ZM250 218Q230 216 216 204.5Q202 193 202 168Q202 143 215.5 133.5Q229 124 245 124Q262 124 275 129Q288 134 296 141V223ZM231 650Q231 634 239.5 627Q248 620 262 620Q276 620 284.5 627Q293 634 293 650Q293 666 284.5 673Q276 680 262 680Q248 680 239.5 673Q231 666 231 650ZM262 768Q329 768 358.5 739.5Q388 711 389 651Q389 590 359.5 561Q330 532 262 532Q194 532 164.5 560.5Q135 589 135 649Q135 710 164.5 739Q194 768 262 768Z" glyph-name="aring" horiz-adv-x="524" unicode="&#229;" /><glyph d="M235 250Q235 219 237 199.5Q239 180 244 168.5Q249 157 256.5 153Q264 149 275 149Q286 149 296 152Q306 155 311 158V342Q306 345 296 348Q286 351 275 351Q264 351 256.5 347Q249 343 244 331.5Q239 320 237 300.5Q235 281 235 250ZM541 60Q541 0 481 0H429Q399 0 385 11.5Q371 23 363 42Q327 10 289 -4Q251 -18 209 -18Q160 -18 123 -4.5Q86 9 60.5 40.5Q35 72 22 123.5Q9 175 9 250Q9 325 22 376Q35 427 60.5 458.5Q86 490 123 504Q160 518 209 518Q251 518 289 504Q327 490 363 458Q371 477 385 488.5Q399 500 429 500H481Q541 500 541 440ZM239 650Q239 634 247.5 627Q256 620 270 620Q284 620 292.5 627Q301 634 301 650Q301 666 292.5 673Q284 680 270 680Q256 680 247.5 673Q239 666 239 650ZM270 768Q337 768 366.5 739.5Q396 711 397 651Q397 590 367.5 561Q338 532 270 532Q202 532 172.5 560.5Q143 589 143 649Q143 710 172.5 739Q202 768 270 768Z" glyph-name="aring.school" horiz-adv-x="562" unicode="&#57687;" /><glyph d="M268 188H340L304 361ZM390 500Q432 500 454 481Q476 462 490 420L591 104Q608 50 592 25Q576 0 536 0H455Q412 0 392 16.5Q372 33 363 78H245Q236 33 216 16.5Q196 0 153 0H72Q32 0 16 25Q0 50 17 104L118 420Q132 462 154 481Q176 500 218 500ZM273 650Q273 634 281.5 627Q290 620 304 620Q318 620 326.5 627Q335 634 335 650Q335 666 326.5 673Q318 680 304 680Q290 680 281.5 673Q273 666 273 650ZM304 768Q371 768 400.5 739.5Q430 711 431 651Q431 590 401.5 561Q372 532 304 532Q236 532 206.5 560.5Q177 589 177 649Q177 710 206.5 739Q236 768 304 768Z" glyph-name="aring.smcp" horiz-adv-x="608" unicode="&#57894;" /><glyph d="M312 345V682Q312 750 381 750H449Q518 750 518 682V345L718 557Q728 568 740.5 571.5Q753 575 764 571.5Q775 568 782.5 558.5Q790 549 790 534V348Q790 331 786 318.5Q782 306 770 294L474 1L473 0Q456 -21 417 -21H413Q372 -21 356 1L60 294Q48 306 44 318.5Q40 331 40 348V534Q40 549 47.5 558.5Q55 568 66 571.5Q77 575 89.5 571.5Q102 568 112 557Z" glyph-name="arrowdown" horiz-adv-x="830" unicode="&#8595;" /><glyph d="M393 478H730Q798 478 798 409V341Q798 272 730 272H393L605 72Q616 62 619.5 49.5Q623 37 619.5 26Q616 15 606.5 7.5Q597 0 582 0H396Q379 0 366.5 4Q354 8 342 20L49 316H48Q27 332 27 373V377Q27 418 49 434L342 730Q354 742 366.5 746Q379 750 396 750H582Q597 750 606.5 742.5Q616 735 619.5 724Q623 713 619.5 700.5Q616 688 605 678Z" glyph-name="arrowleft" horiz-adv-x="830" unicode="&#8592;" /><glyph d="M436 272H100Q32 272 32 341V409Q32 478 100 478H436L225 678Q214 688 210.5 700.5Q207 713 210.5 724Q214 735 223.5 742.5Q233 750 248 750H434Q451 750 463.5 746Q476 742 488 730L781 434Q803 418 803 377V373Q803 332 781 316L488 20Q476 8 463.5 4Q451 0 434 0H248Q233 0 223.5 7.5Q214 15 210.5 26Q207 37 210.5 49.5Q214 62 225 72Z" glyph-name="arrowright" horiz-adv-x="830" unicode="&#8594;" /><glyph d="M518 404V68Q518 0 449 0H381Q312 0 312 68V404L112 193Q102 182 89.5 178.5Q77 175 66 178.5Q55 182 47.5 191.5Q40 201 40 216V402Q40 419 44 431.5Q48 444 60 456L356 749Q372 771 413 771H417Q458 771 474 749L770 456Q782 444 786 431.5Q790 419 790 402V216Q790 201 782.5 191.5Q775 182 764 178.5Q753 175 740.5 178.5Q728 182 718 193Z" glyph-name="arrowup" horiz-adv-x="830" unicode="&#8593;" /><glyph d="M280 768Q301 768 316 764.5Q331 761 342.5 752.5Q354 744 362 729.5Q370 715 378 693L464 453Q477 417 465.5 396Q454 375 424 375H358Q328 375 308 390Q288 405 280 435L250 549L220 435Q212 405 192 390Q172 375 142 375H76Q46 375 34.5 396Q23 417 36 453L122 693Q130 715 138 729.5Q146 744 157.5 752.5Q169 761 184 764.5Q199 768 220 768Z" glyph-name="asciicircum" horiz-adv-x="500" unicode="^" /><glyph d="M371 218Q334 218 303 227.5Q272 237 244.5 248Q217 259 191 268.5Q165 278 138 278Q126 278 112.5 276Q99 274 84 269Q59 261 42.5 271Q26 281 26 308V394Q26 413 34.5 423Q43 433 54 438Q63 442 83 447Q103 452 129 452Q166 452 197 442.5Q228 433 255.5 422Q283 411 309 401.5Q335 392 362 392Q374 392 387.5 394Q401 396 416 401Q441 409 457.5 399Q474 389 474 362V276Q474 257 465.5 247Q457 237 446 232Q437 228 417 223Q397 218 371 218Z" glyph-name="asciitilde" horiz-adv-x="500" unicode="~" /><glyph d="M394 641 431 659Q457 671 481.5 661Q506 651 515 624L545 531Q554 504 540 481Q526 458 498 453L458 446L486 417Q506 396 504 370Q502 344 479 327L399 269Q376 252 350.5 258Q325 264 311 290L292 325L273 290Q259 264 233.5 258Q208 252 185 269L105 327Q82 344 80 370Q78 396 98 417L126 446L86 453Q58 458 44 481Q30 504 39 531L69 624Q78 651 102.5 661Q127 671 153 659L190 641L184 681Q180 710 197 730Q214 750 243 750H341Q370 750 387 730Q404 710 400 681Z" glyph-name="asterisk" horiz-adv-x="584" unicode="*" /><glyph d="M546 295Q535 301 520 301Q491 301 480.5 288Q470 275 470 250Q470 225 480.5 212Q491 199 520 199Q535 199 546 205ZM773 202H775Q793 202 809.5 206Q826 210 838.5 224.5Q851 239 858 267Q865 295 865 343Q865 401 850 438.5Q835 476 797 498.5Q759 521 695 530Q631 539 534 539Q436 539 366.5 524.5Q297 510 253 476Q209 442 188.5 386.5Q168 331 168 250Q168 169 188.5 113.5Q209 58 253 24Q297 -10 366.5 -24.5Q436 -39 534 -39Q592 -39 642 -34.5Q692 -30 733 -23Q774 -16 805 -9Q836 -2 857 4Q882 11 890.5 0Q899 -11 899 -27V-78Q899 -97 891.5 -107.5Q884 -118 861 -126Q846 -131 813 -138Q780 -145 736 -152Q692 -159 640 -163.5Q588 -168 534 -168Q378 -168 276.5 -135.5Q175 -103 116.5 -47Q58 9 35 85.5Q12 162 12 250Q12 338 35 414.5Q58 491 116.5 547Q175 603 276.5 635.5Q378 668 534 668Q682 668 777 646Q872 624 926 582.5Q980 541 1000.5 480.5Q1021 420 1021 343Q1021 266 998.5 210.5Q976 155 935.5 119.5Q895 84 839 67Q783 50 715 50H656Q632 50 621 56.5Q610 63 603 74L600 79Q571 57 535 44.5Q499 32 455 32Q350 32 297.5 81Q245 130 245 250Q245 370 297.5 419Q350 468 455 468Q499 468 535 455.5Q571 443 600 421L603 426Q610 437 621 443.5Q632 450 656 450H713Q773 450 773 390Z" glyph-name="at" horiz-adv-x="1033" unicode="@" /><glyph d="M483 250Q483 219 485 199.5Q487 180 492 168.5Q497 157 504.5 153Q512 149 523 149Q534 149 544 152Q554 155 559 158V342Q554 345 544 348Q534 351 523 351Q512 351 504.5 347Q497 343 492 331.5Q487 320 485 300.5Q483 281 483 250ZM547 -139Q605 -139 648.5 -134.5Q692 -130 726 -124Q760 -118 785 -111Q810 -104 831 -98Q856 -91 864.5 -102Q873 -113 873 -129V-180Q873 -199 865.5 -209.5Q858 -220 835 -228Q820 -233 793 -240Q766 -247 729.5 -253Q693 -259 647 -263.5Q601 -268 547 -268Q398 -268 297 -225.5Q196 -183 134.5 -112Q73 -41 46.5 53Q20 147 20 250Q20 353 46.5 447Q73 541 134.5 612Q196 683 297 725.5Q398 768 547 768Q695 768 791.5 734.5Q888 701 944 643.5Q1000 586 1022 508.5Q1044 431 1044 343Q1044 266 1025 203Q1006 140 969 95Q932 50 879 25Q826 0 758 0H677Q647 0 633 11.5Q619 23 611 42Q575 10 537 -4Q499 -18 457 -18Q408 -18 371 -4.5Q334 9 308.5 40.5Q283 72 270 123.5Q257 175 257 250Q257 325 270 376Q283 427 308.5 458.5Q334 490 371 504Q408 518 457 518Q499 518 537 504Q575 490 611 458Q619 477 633 488.5Q647 500 677 500H726Q786 500 786 440V152Q888 152 888 343Q888 412 871.5 467Q855 522 815 560Q775 598 709.5 618.5Q644 639 547 639Q449 639 379 611.5Q309 584 264 533.5Q219 483 197.5 411Q176 339 176 250Q176 161 197.5 89Q219 17 264 -33.5Q309 -84 379 -111.5Q449 -139 547 -139Z" glyph-name="at.cap" horiz-adv-x="1064" unicode="&#58643;" /><glyph d="M335 34Q309 13 273.5 -2.5Q238 -18 180 -18Q92 -18 52.5 26.5Q13 71 13 150Q13 193 26 222Q39 251 64.5 269Q90 287 126.5 296.5Q163 306 210 309L297 315V332Q297 344 285.5 352.5Q274 361 236 361Q204 361 170 355Q136 349 106 339Q88 333 75.5 335Q63 337 55 343.5Q47 350 43.5 359.5Q40 369 40 378V436Q40 480 85 493Q117 503 166.5 510.5Q216 518 280 518Q350 518 394 505.5Q438 493 463 469Q488 445 497 410Q506 375 506 331V60Q506 0 446 0H384Q367 0 356 9Q345 18 337 31ZM250 218Q230 216 216 204.5Q202 193 202 168Q202 143 215.5 133.5Q229 124 245 124Q262 124 275 129Q288 134 296 141V223ZM345 532Q315 532 294 542Q273 552 256.5 563.5Q240 575 226 585Q212 595 197 595Q184 595 177 589.5Q170 584 167 577Q160 563 148 556.5Q136 550 116 550H93Q33 550 33 610Q33 635 41 663Q49 691 66 714.5Q83 738 111 753Q139 768 179 768Q209 768 230 758Q251 748 267.5 736.5Q284 725 298 715Q312 705 327 705Q340 705 347 710.5Q354 716 357 723Q370 750 408 750H431Q491 750 491 690Q491 664 483 636.5Q475 609 458 585.5Q441 562 413 547Q385 532 345 532Z" glyph-name="atilde" horiz-adv-x="524" unicode="&#227;" /><glyph d="M235 250Q235 219 237 199.5Q239 180 244 168.5Q249 157 256.5 153Q264 149 275 149Q286 149 296 152Q306 155 311 158V342Q306 345 296 348Q286 351 275 351Q264 351 256.5 347Q249 343 244 331.5Q239 320 237 300.5Q235 281 235 250ZM541 60Q541 0 481 0H429Q399 0 385 11.5Q371 23 363 42Q327 10 289 -4Q251 -18 209 -18Q160 -18 123 -4.5Q86 9 60.5 40.5Q35 72 22 123.5Q9 175 9 250Q9 325 22 376Q35 427 60.5 458.5Q86 490 123 504Q160 518 209 518Q251 518 289 504Q327 490 363 458Q371 477 385 488.5Q399 500 429 500H481Q541 500 541 440ZM353 532Q323 532 302 542Q281 552 264.5 563.5Q248 575 234 585Q220 595 205 595Q192 595 185 589.5Q178 584 175 577Q168 563 156 556.5Q144 550 124 550H101Q41 550 41 610Q41 635 49 663Q57 691 74 714.5Q91 738 119 753Q147 768 187 768Q217 768 238 758Q259 748 275.5 736.5Q292 725 306 715Q320 705 335 705Q348 705 355 710.5Q362 716 365 723Q378 750 416 750H439Q499 750 499 690Q499 664 491 636.5Q483 609 466 585.5Q449 562 421 547Q393 532 353 532Z" glyph-name="atilde.school" horiz-adv-x="562" unicode="&#57686;" /><glyph d="M268 188H340L304 361ZM390 500Q432 500 454 481Q476 462 490 420L591 104Q608 50 592 25Q576 0 536 0H455Q412 0 392 16.5Q372 33 363 78H245Q236 33 216 16.5Q196 0 153 0H72Q32 0 16 25Q0 50 17 104L118 420Q132 462 154 481Q176 500 218 500ZM387 532Q357 532 336 542Q315 552 298.5 563.5Q282 575 268 585Q254 595 239 595Q226 595 219 589.5Q212 584 209 577Q202 563 190 556.5Q178 550 158 550H135Q75 550 75 610Q75 635 83 663Q91 691 108 714.5Q125 738 153 753Q181 768 221 768Q251 768 272 758Q293 748 309.5 736.5Q326 725 340 715Q354 705 369 705Q382 705 389 710.5Q396 716 399 723Q412 750 450 750H473Q533 750 533 690Q533 664 525 636.5Q517 609 500 585.5Q483 562 455 547Q427 532 387 532Z" glyph-name="atilde.smcp" horiz-adv-x="608" unicode="&#57893;" /><glyph d="M327 250Q327 281 325 300.5Q323 320 318 331.5Q313 343 305.5 347Q298 351 287 351Q276 351 266 348Q256 345 251 342V158Q256 155 266 152Q276 149 287 149Q298 149 305.5 153Q313 157 318 168.5Q323 180 325 199.5Q327 219 327 250ZM251 498Q275 507 300.5 512.5Q326 518 353 518Q402 518 439 504Q476 490 501.5 458.5Q527 427 540 376Q553 325 553 250Q553 175 540 123.5Q527 72 501.5 40.5Q476 9 439 -4.5Q402 -18 353 -18Q311 -18 273 -4Q235 10 199 42Q191 23 177 11.5Q163 0 133 0H81Q21 0 21 60V690Q21 750 81 750H191Q251 750 251 690Z" glyph-name="b" horiz-adv-x="562" unicode="b" /><glyph d="M339 336Q339 359 329.5 365Q320 371 309 371H249V299H309Q321 299 330 306.5Q339 314 339 336ZM345 168Q345 194 333 200Q321 206 310 206H249V129H312Q323 129 334 135Q345 141 345 168ZM39 420Q39 500 119 500H365Q420 500 454.5 489Q489 478 509 458.5Q529 439 536.5 412Q544 385 544 353Q544 327 530.5 304.5Q517 282 497 265Q523 251 540.5 224.5Q558 198 558 159Q558 126 549.5 97Q541 68 519.5 46.5Q498 25 461 12.5Q424 0 367 0H119Q39 0 39 80Z" glyph-name="b.smcp" horiz-adv-x="575" unicode="&#57858;" /><glyph d="M185 465Q185 496 180 505.5Q175 515 164 515Q153 515 145 511V419Q148 417 153.5 415.5Q159 414 164 414Q175 414 180 423.5Q185 433 185 465ZM145 589Q157 594 171 596.5Q185 599 199 599Q251 599 278 569.5Q305 540 305 465Q305 390 278 360.5Q251 331 199 331Q179 331 158 338Q137 345 119 361Q115 351 108 345.5Q101 340 86 340H55Q25 340 25 370V685Q25 715 55 715H115Q145 715 145 685Z" glyph-name="b.superior" horiz-adv-x="313" unicode="&#58210;" /><glyph d="M17 712Q1 755 16.5 777.5Q32 800 65 800H173Q208 800 225.5 785Q243 770 254 738L561 -112Q577 -155 561.5 -177.5Q546 -200 513 -200H400Q383 -200 371 -196.5Q359 -193 350.5 -185.5Q342 -178 336 -166Q330 -154 324 -138Z" glyph-name="backslash" horiz-adv-x="578" unicode="\" /><glyph d="M332 225H282V275H332ZM137 0Q57 0 57 80V420Q57 500 137 500H477Q557 500 557 420V80Q557 0 477 0ZM263 294V206H351V294Z" glyph-name="ballotboxwithx" horiz-adv-x="614" unicode="&#9746;" /><glyph d="M261 -140Q261 -200 201 -200H89Q29 -200 29 -140V740Q29 800 89 800H201Q261 800 261 740Z" glyph-name="bar" horiz-adv-x="290" unicode="|" /><glyph d="M39 375Q39 456 70 528Q101 600 154 653Q207 706 279 737Q351 768 432 768Q513 768 585 737Q657 706 710 653Q763 600 794 528Q825 456 825 375Q825 294 794 222Q763 150 710 97Q657 44 585 13Q513 -18 432 -18Q351 -18 279 13Q207 44 154 97Q101 150 70 222Q39 294 39 375Z" glyph-name="blackcircle" horiz-adv-x="864" unicode="&#9679;" /><glyph d="M137 0Q57 0 57 80V420Q57 500 137 500H477Q557 500 557 420V80Q557 0 477 0Z" glyph-name="blacksmallsquare" horiz-adv-x="614" unicode="&#9642;" /><glyph d="M137 0Q57 0 57 80V670Q57 750 137 750H727Q807 750 807 670V80Q807 0 727 0Z" glyph-name="blacksquare" horiz-adv-x="864" unicode="&#9632;" /><glyph d="M181 277Q203 265 211.5 244.5Q220 224 219 201L202 -51Q201 -62 205 -67Q209 -72 215 -74Q223 -77 232 -80.5Q241 -84 248.5 -90.5Q256 -97 261 -108Q266 -119 266 -137V-161Q266 -229 197 -229H182Q152 -229 127 -222Q102 -215 84 -200Q66 -185 56.5 -161Q47 -137 49 -104L66 180Q67 192 63 197Q59 202 51 205Q30 213 21 227.5Q12 242 12 269V285Q12 312 21 326.5Q30 341 51 349Q59 352 63 357Q67 362 66 374L49 658Q47 691 56.5 715Q66 739 84 754Q102 769 127 776Q152 783 182 783H197Q266 783 266 715V691Q266 673 261 662Q256 651 248.5 644.5Q241 638 232 634.5Q223 631 215 628Q209 626 205 621Q201 616 202 605L219 353Q220 330 211.5 309.5Q203 289 181 277Z" glyph-name="braceleft" horiz-adv-x="285" unicode="{" /><glyph d="M181 375Q203 363 211.5 342.5Q220 322 219 299L202 47Q201 36 205 31Q209 26 215 24Q223 21 232 17.5Q241 14 248.5 7.5Q256 1 261 -10Q266 -21 266 -39V-63Q266 -131 197 -131H182Q152 -131 127 -124Q102 -117 84 -102Q66 -87 56.5 -63Q47 -39 49 -6L66 278Q67 290 63 295Q59 300 51 303Q30 311 21 325.5Q12 340 12 367V383Q12 410 21 424.5Q30 439 51 447Q59 450 63 455Q67 460 66 472L49 756Q47 789 56.5 813Q66 837 84 852Q102 867 127 874Q152 881 182 881H197Q266 881 266 813V789Q266 771 261 760Q256 749 248.5 742.5Q241 736 232 732.5Q223 729 215 726Q209 724 205 719Q201 714 202 703L219 451Q220 428 211.5 407.5Q203 387 181 375Z" glyph-name="braceleft.cap" horiz-adv-x="285" unicode="&#58517;" /><glyph d="M104 277Q82 289 73.5 309.5Q65 330 66 353L83 605Q84 616 80 621Q76 626 70 628Q62 631 53 634.5Q44 638 36.5 644.5Q29 651 24 662Q19 673 19 691V715Q19 783 88 783H103Q133 783 158 776Q183 769 201 754Q219 739 228.5 715Q238 691 236 658L219 374Q218 362 222 357Q226 352 234 349Q255 341 264 326.5Q273 312 273 285V269Q273 242 264 227.5Q255 213 234 205Q226 202 222 197Q218 192 219 180L236 -104Q238 -137 228.5 -161Q219 -185 201 -200Q183 -215 158 -222Q133 -229 103 -229H88Q19 -229 19 -161V-137Q19 -119 24 -108Q29 -97 36.5 -90.5Q44 -84 53 -80.5Q62 -77 70 -74Q76 -72 80 -67Q84 -62 83 -51L66 201Q65 224 73.5 244.5Q82 265 104 277Z" glyph-name="braceright" horiz-adv-x="285" unicode="}" /><glyph d="M104 375Q82 387 73.5 407.5Q65 428 66 451L83 703Q84 714 80 719Q76 724 70 726Q62 729 53 732.5Q44 736 36.5 742.5Q29 749 24 760Q19 771 19 789V813Q19 881 88 881H103Q133 881 158 874Q183 867 201 852Q219 837 228.5 813Q238 789 236 756L219 472Q218 460 222 455Q226 450 234 447Q255 439 264 424.5Q273 410 273 383V367Q273 340 264 325.5Q255 311 234 303Q226 300 222 295Q218 290 219 278L236 -6Q238 -39 228.5 -63Q219 -87 201 -102Q183 -117 158 -124Q133 -131 103 -131H88Q19 -131 19 -63V-39Q19 -21 24 -10Q29 1 36.5 7.5Q44 14 53 17.5Q62 21 70 24Q76 26 80 31Q84 36 83 47L66 299Q65 322 73.5 342.5Q82 363 104 375Z" glyph-name="braceright.cap" horiz-adv-x="285" unicode="&#58518;" /><glyph d="M208 -75H210Q279 -75 279 -143V-160Q279 -228 210 -228H125Q56 -228 56 -160V715Q56 783 125 783H210Q279 783 279 715V698Q279 630 210 630H208Z" glyph-name="bracketleft" horiz-adv-x="295" unicode="[" /><glyph d="M208 23H210Q279 23 279 -45V-62Q279 -130 210 -130H125Q56 -130 56 -62V813Q56 881 125 881H210Q279 881 279 813V796Q279 728 210 728H208Z" glyph-name="bracketleft.cap" horiz-adv-x="295" unicode="&#58515;" /><glyph d="M87 630H85Q16 630 16 698V715Q16 783 85 783H170Q239 783 239 715V-160Q239 -228 170 -228H85Q16 -228 16 -160V-143Q16 -75 85 -75H87Z" glyph-name="bracketright" horiz-adv-x="295" unicode="]" /><glyph d="M87 728H85Q16 728 16 796V813Q16 881 85 881H170Q239 881 239 813V-62Q239 -130 170 -130H85Q16 -130 16 -62V-45Q16 23 85 23H87Z" glyph-name="bracketright.cap" horiz-adv-x="295" unicode="&#58516;" /><glyph d="M267 550Q214 550 178 563Q142 576 119.5 597.5Q97 619 85.5 646.5Q74 674 71 704Q66 750 114 750H149Q169 750 179 743.5Q189 737 194 721Q200 702 216 691Q232 680 267 680Q302 680 318 691Q334 702 340 721Q345 737 355 743.5Q365 750 385 750H420Q468 750 463 704Q460 674 448.5 646.5Q437 619 414.5 597.5Q392 576 355.5 563Q319 550 267 550Z" glyph-name="breve" horiz-adv-x="534" unicode="&#728;" /><glyph d="M267 780Q175 780 131.5 796.5Q88 813 80 848Q68 900 113 900H156Q173 900 180 895Q187 890 193 880Q199 870 214 864.5Q229 859 267 859Q305 859 320 864.5Q335 870 341 880Q347 890 354 895Q361 900 378 900H421Q466 900 454 848Q446 813 402.5 796.5Q359 780 267 780Z" glyph-name="breve.cap" horiz-adv-x="534" unicode="&#58406;" /><glyph d="M261 -140Q261 -200 201 -200H89Q29 -200 29 -140V215Q29 275 89 275H201Q261 275 261 215ZM261 385Q261 325 201 325H89Q29 325 29 385V740Q29 800 89 800H201Q261 800 261 740Z" glyph-name="brokenbar" horiz-adv-x="290" unicode="&#166;" /><glyph d="M42 375Q42 403 52.5 427.5Q63 452 81.5 470.5Q100 489 124.5 499.5Q149 510 177 510Q205 510 229.5 499.5Q254 489 272.5 470.5Q291 452 301.5 427.5Q312 403 312 375Q312 347 301.5 322.5Q291 298 272.5 279.5Q254 261 229.5 250.5Q205 240 177 240Q149 240 124.5 250.5Q100 261 81.5 279.5Q63 298 52.5 322.5Q42 347 42 375Z" glyph-name="bullet" horiz-adv-x="354" unicode="&#8226;" /><glyph d="M71 331Q62 322 56.5 315Q51 308 50 303V321ZM405 750H444L433 619Q428 617 424.5 614.5Q421 612 416 610ZM458 750H499L459 617L453 626Q445 624 441 622ZM392 750 410 605 397 594 351 750ZM513 750H560L475 593L464 609ZM800 321V300Q775 306 747 315Q719 324 695 336Q671 348 653.5 362.5Q636 377 633 394Q631 398 631 401ZM337 750 393 590 383 579 290 750ZM50 410 264 461Q238 451 213 443.5Q188 436 166 422Q144 408 127.5 393.5Q111 379 98 365L50 345ZM578 750H638L487 574L479 587ZM272 750 379 574 371 563 212 750ZM800 410V345L624 418Q616 431 606 441Q596 451 584 461ZM800 490V430L568 474L542 496ZM317 496Q312 488 307 483.5Q302 479 296 476L50 430V490ZM800 569V510L536 503L524 517ZM662 750H750L498 557L491 568ZM50 510V569L340 515Q335 507 330 503ZM188 750 368 559 362 549 100 750ZM800 655V589L521 523Q518 526 514 534L513 535ZM50 655 350 530 344 520 50 589ZM788 750H800V678L509 540L502 552ZM50 750H62L359 544Q354 538 353 534L50 678Z" glyph-name="bullseye" horiz-adv-x="850" unicode="&#9678;" /><glyph d="M235 250Q235 204 254 185.5Q273 167 321 167Q324 167 329 167Q334 167 340 168Q369 173 385.5 160Q402 147 402 121V50Q402 24 388 8Q374 -8 342 -13Q322 -16 304.5 -17Q287 -18 263 -18Q126 -18 67.5 51Q9 120 9 250Q9 380 67.5 449Q126 518 263 518Q287 518 304.5 517Q322 516 342 513Q374 508 388 492Q402 476 402 450V379Q402 353 385.5 340Q369 327 340 332Q334 333 329 333Q324 333 321 333Q273 333 254 314.5Q235 296 235 250Z" glyph-name="c" horiz-adv-x="417" unicode="c" /><glyph d="M22 250Q22 380 90 449Q158 518 310 518Q339 518 364 515.5Q389 513 412 507Q444 499 459 484Q474 469 474 440V362Q474 332 454 320.5Q434 309 403 316Q384 321 368.5 323Q353 325 333 325Q295 325 270 309Q245 293 245 250Q245 207 270 191Q295 175 333 175Q353 175 368.5 177Q384 179 403 184Q434 191 454 179.5Q474 168 474 138V60Q474 31 459 16Q444 1 412 -7Q389 -13 364 -15.5Q339 -18 310 -18Q158 -18 90 51Q22 120 22 250Z" glyph-name="c.smcp" horiz-adv-x="505" unicode="&#57859;" /><glyph d="M11 465Q11 530 41.5 564.5Q72 599 144 599Q169 599 189 596Q219 592 219 565V528Q219 500 188 505Q183 506 179 506Q175 506 173 506Q150 506 139 497Q128 488 128 465Q128 442 139 433Q150 424 173 424Q175 424 179 424Q183 424 188 425Q219 430 219 402V365Q219 338 189 334Q169 331 144 331Q72 331 41.5 365.5Q11 400 11 465Z" glyph-name="c.superior" horiz-adv-x="236" unicode="&#58211;" /><glyph d="M235 250Q235 204 254 185.5Q273 167 321 167Q324 167 329 167Q334 167 340 168Q369 173 385.5 160Q402 147 402 121V50Q402 24 388 8Q374 -8 342 -13Q322 -16 304.5 -17Q287 -18 263 -18Q126 -18 67.5 51Q9 120 9 250Q9 380 67.5 449Q126 518 263 518Q287 518 304.5 517Q322 516 342 513Q374 508 388 492Q402 476 402 450V379Q402 353 385.5 340Q369 327 340 332Q334 333 329 333Q324 333 321 333Q273 333 254 314.5Q235 296 235 250ZM339 750Q378 750 388 725Q398 700 379 670L333 597Q316 569 300 559.5Q284 550 255 550H225Q196 550 182.5 566.5Q169 583 176 611L196 692Q210 750 265 750Z" glyph-name="cacute" horiz-adv-x="417" unicode="&#263;" /><glyph d="M22 250Q22 380 90 449Q158 518 310 518Q339 518 364 515.5Q389 513 412 507Q444 499 459 484Q474 469 474 440V362Q474 332 454 320.5Q434 309 403 316Q384 321 368.5 323Q353 325 333 325Q295 325 270 309Q245 293 245 250Q245 207 270 191Q295 175 333 175Q353 175 368.5 177Q384 179 403 184Q434 191 454 179.5Q474 168 474 138V60Q474 31 459 16Q444 1 412 -7Q389 -13 364 -15.5Q339 -18 310 -18Q158 -18 90 51Q22 120 22 250ZM366 750Q405 750 415 725Q425 700 406 670L360 597Q343 569 327 559.5Q311 550 282 550H252Q223 550 209.5 566.5Q196 583 203 611L223 692Q237 750 292 750Z" glyph-name="cacute.smcp" horiz-adv-x="505" unicode="&#57908;" /><glyph d="M217 550Q197 550 186.5 555.5Q176 561 160 578L65 677Q52 690 49.5 703Q47 716 51 726.5Q55 737 64 743.5Q73 750 85 750H168Q191 750 207 742Q223 734 240 717L267 689L294 717Q311 734 327 742Q343 750 366 750H449Q461 750 470 743.5Q479 737 483 726.5Q487 716 484.5 703Q482 690 469 677L374 578Q358 561 347.5 555.5Q337 550 317 550Z" glyph-name="caron" horiz-adv-x="534" unicode="&#711;" /><glyph d="M203 790Q189 790 179.5 790Q170 790 162.5 791.5Q155 793 148 796Q141 799 132 804L54 848Q45 853 41.5 861.5Q38 870 39.5 878.5Q41 887 47.5 893.5Q54 900 67 900H165Q179 900 189.5 899Q200 898 209 896Q218 894 227 890Q236 886 247 880L267 869L287 880Q298 886 307 890Q316 894 325 896Q334 898 344.5 899Q355 900 369 900H467Q480 900 486.5 893.5Q493 887 494.5 878.5Q496 870 492.5 861.5Q489 853 480 848L402 804Q393 799 385.5 796Q378 793 370.5 791.5Q363 790 354 790Q345 790 331 790Z" glyph-name="caron.cap" horiz-adv-x="534" unicode="&#58413;" /><glyph d="M379 750Q390 750 400.5 746.5Q411 743 418 735Q425 727 427 714Q429 701 423 682L393 591Q387 573 376 561.5Q365 550 344 550H329Q308 550 298.5 562.5Q289 575 291 595L299 698Q301 721 311.5 735.5Q322 750 348 750Z" glyph-name="caronSlovak" horiz-adv-x="534" unicode="&#58387;" /><glyph d="M185 550Q165 550 154.5 555.5Q144 561 128 578L33 677Q20 690 17.5 703Q15 716 19 726.5Q23 737 32 743.5Q41 750 53 750H136Q159 750 175 742Q191 734 208 717L235 689L262 717Q279 734 295 742Q311 750 334 750H417Q429 750 438 743.5Q447 737 451 726.5Q455 716 452.5 703Q450 690 437 677L342 578Q326 561 315.5 555.5Q305 550 285 550ZM235 250Q235 204 254 185.5Q273 167 321 167Q324 167 329 167Q334 167 340 168Q369 173 385.5 160Q402 147 402 121V50Q402 24 388 8Q374 -8 342 -13Q322 -16 304.5 -17Q287 -18 263 -18Q126 -18 67.5 51Q9 120 9 250Q9 380 67.5 449Q126 518 263 518Q287 518 304.5 517Q322 516 342 513Q374 508 388 492Q402 476 402 450V379Q402 353 385.5 340Q369 327 340 332Q334 333 329 333Q324 333 321 333Q273 333 254 314.5Q235 296 235 250Z" glyph-name="ccaron" horiz-adv-x="417" unicode="&#269;" /><glyph d="M212 550Q192 550 181.5 555.5Q171 561 155 578L60 677Q47 690 44.5 703Q42 716 46 726.5Q50 737 59 743.5Q68 750 80 750H163Q186 750 202 742Q218 734 235 717L262 689L289 717Q306 734 322 742Q338 750 361 750H444Q456 750 465 743.5Q474 737 478 726.5Q482 716 479.5 703Q477 690 464 677L369 578Q353 561 342.5 555.5Q332 550 312 550ZM22 250Q22 380 90 449Q158 518 310 518Q339 518 364 515.5Q389 513 412 507Q444 499 459 484Q474 469 474 440V362Q474 332 454 320.5Q434 309 403 316Q384 321 368.5 323Q353 325 333 325Q295 325 270 309Q245 293 245 250Q245 207 270 191Q295 175 333 175Q353 175 368.5 177Q384 179 403 184Q434 191 454 179.5Q474 168 474 138V60Q474 31 459 16Q444 1 412 -7Q389 -13 364 -15.5Q339 -18 310 -18Q158 -18 90 51Q22 120 22 250Z" glyph-name="ccaron.smcp" horiz-adv-x="505" unicode="&#57910;" /><glyph d="M235 250Q235 204 254 185.5Q273 167 321 167Q324 167 329 167Q334 167 340 168Q369 173 385.5 160Q402 147 402 121V50Q402 24 388 8Q374 -8 342 -13Q327 -15 313.5 -16Q300 -17 284 -18L285 -32Q285 -41 294 -44Q339 -56 368 -79.5Q397 -103 397 -145Q397 -198 352.5 -224Q308 -250 233 -250Q201 -250 182.5 -247Q164 -244 155 -242Q138 -238 129 -224.5Q120 -211 120 -192V-180Q120 -159 130.5 -147Q141 -135 159 -135Q166 -135 180 -137Q194 -139 203 -139Q229 -139 245.5 -132Q262 -125 262 -112Q262 -100 251 -92.5Q240 -85 226 -82Q203 -77 194 -66Q185 -55 187 -33L189 -11Q92 6 50.5 72Q9 138 9 250Q9 380 67.5 449Q126 518 263 518Q287 518 304.5 517Q322 516 342 513Q374 508 388 492Q402 476 402 450V379Q402 353 385.5 340Q369 327 340 332Q334 333 329 333Q324 333 321 333Q273 333 254 314.5Q235 296 235 250Z" glyph-name="ccedilla" horiz-adv-x="417" unicode="&#231;" /><glyph d="M22 250Q22 380 90 449Q158 518 310 518Q339 518 364 515.5Q389 513 412 507Q444 499 459 484Q474 469 474 440V362Q474 332 454 320.5Q434 309 403 316Q384 321 368.5 323Q353 325 333 325Q295 325 270 309Q245 293 245 250Q245 207 270 191Q295 175 333 175Q353 175 368.5 177Q384 179 403 184Q434 191 454 179.5Q474 168 474 138V60Q474 31 459 16Q444 1 412 -7Q389 -13 364 -15.5Q339 -18 310 -18L311 -32Q311 -41 320 -44Q365 -56 394 -79.5Q423 -103 423 -145Q423 -198 378.5 -224Q334 -250 259 -250Q227 -250 208.5 -247Q190 -244 181 -242Q164 -238 155 -224.5Q146 -211 146 -192V-180Q146 -159 156.5 -147Q167 -135 185 -135Q192 -135 206 -137Q220 -139 229 -139Q255 -139 271.5 -132Q288 -125 288 -112Q288 -100 277 -92.5Q266 -85 252 -82Q229 -77 220 -66Q211 -55 213 -33L215 -9Q113 11 67.5 76.5Q22 142 22 250Z" glyph-name="ccedilla.smcp" horiz-adv-x="505" unicode="&#57912;" /><glyph d="M285 750Q305 750 315.5 744.5Q326 739 342 722L437 623Q450 610 452.5 597Q455 584 451 573.5Q447 563 438 556.5Q429 550 417 550H334Q311 550 295 558Q279 566 262 583L235 611L208 583Q191 566 175 558Q159 550 136 550H53Q41 550 32 556.5Q23 563 19 573.5Q15 584 17.5 597Q20 610 33 623L128 722Q144 739 154.5 744.5Q165 750 185 750ZM235 250Q235 204 254 185.5Q273 167 321 167Q324 167 329 167Q334 167 340 168Q369 173 385.5 160Q402 147 402 121V50Q402 24 388 8Q374 -8 342 -13Q322 -16 304.5 -17Q287 -18 263 -18Q126 -18 67.5 51Q9 120 9 250Q9 380 67.5 449Q126 518 263 518Q287 518 304.5 517Q322 516 342 513Q374 508 388 492Q402 476 402 450V379Q402 353 385.5 340Q369 327 340 332Q334 333 329 333Q324 333 321 333Q273 333 254 314.5Q235 296 235 250Z" glyph-name="ccircumflex" horiz-adv-x="417" unicode="&#265;" /><glyph d="M312 750Q332 750 342.5 744.5Q353 739 369 722L464 623Q477 610 479.5 597Q482 584 478 573.5Q474 563 465 556.5Q456 550 444 550H361Q338 550 322 558Q306 566 289 583L262 611L235 583Q218 566 202 558Q186 550 163 550H80Q68 550 59 556.5Q50 563 46 573.5Q42 584 44.5 597Q47 610 60 623L155 722Q171 739 181.5 744.5Q192 750 212 750ZM22 250Q22 380 90 449Q158 518 310 518Q339 518 364 515.5Q389 513 412 507Q444 499 459 484Q474 469 474 440V362Q474 332 454 320.5Q434 309 403 316Q384 321 368.5 323Q353 325 333 325Q295 325 270 309Q245 293 245 250Q245 207 270 191Q295 175 333 175Q353 175 368.5 177Q384 179 403 184Q434 191 454 179.5Q474 168 474 138V60Q474 31 459 16Q444 1 412 -7Q389 -13 364 -15.5Q339 -18 310 -18Q158 -18 90 51Q22 120 22 250Z" glyph-name="ccircumflex.smcp" horiz-adv-x="505" unicode="&#57909;" /><glyph d="M235 250Q235 204 254 185.5Q273 167 321 167Q324 167 329 167Q334 167 340 168Q369 173 385.5 160Q402 147 402 121V50Q402 24 388 8Q374 -8 342 -13Q322 -16 304.5 -17Q287 -18 263 -18Q126 -18 67.5 51Q9 120 9 250Q9 380 67.5 449Q126 518 263 518Q287 518 304.5 517Q322 516 342 513Q374 508 388 492Q402 476 402 450V379Q402 353 385.5 340Q369 327 340 332Q334 333 329 333Q324 333 321 333Q273 333 254 314.5Q235 296 235 250ZM117 650Q117 674 126.5 695.5Q136 717 152 733Q168 749 189.5 758.5Q211 768 235 768Q259 768 280.5 758.5Q302 749 318 733Q334 717 343.5 695.5Q353 674 353 650Q353 626 343.5 604.5Q334 583 318 567Q302 551 280.5 541.5Q259 532 235 532Q211 532 189.5 541.5Q168 551 152 567Q136 583 126.5 604.5Q117 626 117 650Z" glyph-name="cdotaccent" horiz-adv-x="417" unicode="&#267;" /><glyph d="M22 250Q22 380 90 449Q158 518 310 518Q339 518 364 515.5Q389 513 412 507Q444 499 459 484Q474 469 474 440V362Q474 332 454 320.5Q434 309 403 316Q384 321 368.5 323Q353 325 333 325Q295 325 270 309Q245 293 245 250Q245 207 270 191Q295 175 333 175Q353 175 368.5 177Q384 179 403 184Q434 191 454 179.5Q474 168 474 138V60Q474 31 459 16Q444 1 412 -7Q389 -13 364 -15.5Q339 -18 310 -18Q158 -18 90 51Q22 120 22 250ZM144 650Q144 674 153.5 695.5Q163 717 179 733Q195 749 216.5 758.5Q238 768 262 768Q286 768 307.5 758.5Q329 749 345 733Q361 717 370.5 695.5Q380 674 380 650Q380 626 370.5 604.5Q361 583 345 567Q329 551 307.5 541.5Q286 532 262 532Q238 532 216.5 541.5Q195 551 179 567Q163 583 153.5 604.5Q144 626 144 650Z" glyph-name="cdotaccent.smcp" horiz-adv-x="505" unicode="&#57911;" /><glyph d="M235 -139Q261 -139 277.5 -132Q294 -125 294 -112Q294 -100 283 -92.5Q272 -85 258 -82Q235 -77 226 -66Q217 -55 219 -33L222 0H315L317 -32Q317 -41 326 -44Q371 -56 400 -79.5Q429 -103 429 -145Q429 -198 384.5 -224Q340 -250 265 -250Q233 -250 214.5 -247Q196 -244 187 -242Q170 -238 161 -224.5Q152 -211 152 -192V-180Q152 -159 162.5 -147Q173 -135 191 -135Q198 -135 212 -137Q226 -139 235 -139Z" glyph-name="cedilla" horiz-adv-x="534" unicode="&#184;" /><glyph d="M452 120Q440 117 423.5 114.5Q407 112 389 110.5Q371 109 353.5 108Q336 107 321 107H300L277 42Q263 0 221 0H168Q139 0 125.5 19.5Q112 39 124 69L150 137Q82 168 52 228Q22 288 22 375Q22 435 36 482Q50 529 81 563Q112 597 161 617Q210 637 280 642L304 708Q318 750 360 750H414Q443 750 456 730.5Q469 711 458 681L440 632Q441 632 445.5 631.5Q450 631 452 630Q484 622 499 609Q514 596 514 567V492Q514 462 500 452Q486 442 459 449Q450 451 436 453Q422 455 407 456.5Q392 458 378 459Q364 460 354 460Q322 460 301 454Q280 448 267.5 437Q255 426 250 410.5Q245 395 245 375Q245 355 250 339.5Q255 324 267.5 313Q280 302 301 296Q322 290 354 290Q364 290 378 291Q392 292 407 293.5Q422 295 436 297Q450 299 459 301Q486 308 500 298Q514 288 514 258V183Q514 154 499 141Q484 128 452 120Z" glyph-name="cent" horiz-adv-x="535" unicode="&#162;" /><glyph d="M452 120Q440 117 423.5 114.5Q407 112 389 110.5Q371 109 353.5 108Q336 107 321 107H300L277 42Q263 0 221 0H168Q139 0 125.5 19.5Q112 39 124 69L150 137Q82 168 52 228Q22 288 22 375Q22 435 36 482Q50 529 81 563Q112 597 161 617Q210 637 280 642L304 708Q318 750 360 750H414Q443 750 456 730.5Q469 711 458 681L440 632Q441 632 445.5 631.5Q450 631 452 630Q484 622 499 609Q514 596 514 567V492Q514 462 500 452Q486 442 459 449Q450 451 436 453Q422 455 407 456.5Q392 458 378 459Q364 460 354 460Q322 460 301 454Q280 448 267.5 437Q255 426 250 410.5Q245 395 245 375Q245 355 250 339.5Q255 324 267.5 313Q280 302 301 296Q322 290 354 290Q364 290 378 291Q392 292 407 293.5Q422 295 436 297Q450 299 459 301Q486 308 500 298Q514 288 514 258V183Q514 154 499 141Q484 128 452 120Z" glyph-name="cent.LP" horiz-adv-x="535" unicode="&#58659;" /><glyph d="M452 -5Q440 -8 423.5 -10.5Q407 -13 389 -14.5Q371 -16 353.5 -17Q336 -18 321 -18H300L277 -83Q263 -125 221 -125H168Q139 -125 125.5 -105.5Q112 -86 124 -56L150 12Q82 43 52 103Q22 163 22 250Q22 310 36 357Q50 404 81 438Q112 472 161 492Q210 512 280 517L304 583Q318 625 360 625H414Q443 625 456 605.5Q469 586 458 556L440 507Q441 507 445.5 506.5Q450 506 452 505Q484 497 499 484Q514 471 514 442V367Q514 337 500 327Q486 317 459 324Q450 326 436 328Q422 330 407 331.5Q392 333 378 334Q364 335 354 335Q322 335 301 329Q280 323 267.5 312Q255 301 250 285.5Q245 270 245 250Q245 230 250 214.5Q255 199 267.5 188Q280 177 301 171Q322 165 354 165Q364 165 378 166Q392 167 407 168.5Q422 170 436 172Q450 174 459 176Q486 183 500 173Q514 163 514 133V58Q514 29 499 16Q484 3 452 -5Z" glyph-name="cent.OP" horiz-adv-x="535" /><glyph d="M245 313Q245 286 253.5 269.5Q262 253 277 244Q292 235 311.5 231.5Q331 228 353 228Q363 228 377 228.5Q391 229 405.5 230.5Q420 232 434 234Q448 236 457 238Q484 245 498 235Q512 225 512 195V121Q512 92 497 79Q482 66 450 58Q427 52 393 48.5Q359 45 330 45H300L277 -20Q263 -62 221 -62H167Q138 -62 125 -42.5Q112 -23 123 7L149 77Q81 108 51.5 167Q22 226 22 313Q22 373 36 420Q50 467 81 500.5Q112 534 161 554Q210 574 280 579L304 645Q318 687 360 687H414Q443 687 456 667.5Q469 648 458 618L440 570Q444 570 450 568Q482 560 497 547Q512 534 512 505V431Q512 401 498 391Q484 381 457 388Q448 390 434 392Q420 394 405.5 395.5Q391 397 377 397.5Q363 398 353 398Q331 398 311.5 394.5Q292 391 277 382Q262 373 253.5 356.5Q245 340 245 313Z" glyph-name="cent.hybrid" horiz-adv-x="535" /><glyph d="M317 750Q337 750 347.5 744.5Q358 739 374 722L469 623Q482 610 484.5 597Q487 584 483 573.5Q479 563 470 556.5Q461 550 449 550H366Q343 550 327 558Q311 566 294 583L267 611L240 583Q223 566 207 558Q191 550 168 550H85Q73 550 64 556.5Q55 563 51 573.5Q47 584 49.5 597Q52 610 65 623L160 722Q176 739 186.5 744.5Q197 750 217 750Z" glyph-name="circumflex" horiz-adv-x="534" unicode="&#710;" /><glyph d="M331 900Q345 900 354 900Q363 900 370.5 898.5Q378 897 385.5 894Q393 891 402 886L480 842Q489 837 492.5 828.5Q496 820 494.5 811.5Q493 803 486.5 796.5Q480 790 467 790H369Q355 790 344.5 791Q334 792 325 794Q316 796 307 800Q298 804 287 810L267 821L247 810Q236 804 227 800Q218 796 209 794Q200 792 189.5 791Q179 790 165 790H67Q54 790 47.5 796.5Q41 803 39.5 811.5Q38 820 41.5 828.5Q45 837 54 842L132 886Q141 891 148 894Q155 897 162.5 898.5Q170 900 179.5 900Q189 900 203 900Z" glyph-name="circumflex.cap" horiz-adv-x="534" unicode="&#58403;" /><glyph d="M451 307Q454 262 459.5 226Q465 190 474 159.5Q483 129 496.5 101.5Q510 74 530 47Q542 30 534.5 15Q527 0 510 0H354Q337 0 329.5 15Q322 30 334 47Q354 74 367.5 101.5Q381 129 390 159.5Q399 190 404.5 226Q410 262 413 307L410 308Q398 278 380 250Q362 222 338 200.5Q314 179 284 166Q254 153 218 153Q182 153 151 166Q120 179 97 201.5Q74 224 61 254.5Q48 285 48 321Q48 358 60 390Q72 422 94.5 445Q117 468 147.5 481Q178 494 216 494Q241 494 260.5 487.5Q280 481 297 472L299 474Q283 498 272.5 526.5Q262 555 262 587Q262 623 275 654.5Q288 686 310.5 709.5Q333 733 364 746.5Q395 760 432 760Q469 760 500 746.5Q531 733 553.5 709.5Q576 686 589 654.5Q602 623 602 587Q602 555 591.5 526.5Q581 498 565 474L567 472Q584 481 603.5 487.5Q623 494 648 494Q685 494 716 481Q747 468 769.5 445Q792 422 804 390Q816 358 816 321Q816 285 803 254.5Q790 224 767 201.5Q744 179 713 166Q682 153 646 153Q610 153 580 166Q550 179 526 200.5Q502 222 484 250Q466 278 454 308Z" glyph-name="club" horiz-adv-x="864" unicode="&#9827;" /><glyph d="M24 100Q24 124 33.5 145.5Q43 167 59 183Q75 199 96.5 208.5Q118 218 142 218Q166 218 187.5 208.5Q209 199 225 183Q241 167 250.5 145.5Q260 124 260 100Q260 76 250.5 54.5Q241 33 225 17Q209 1 187.5 -8.5Q166 -18 142 -18Q118 -18 96.5 -8.5Q75 1 59 17Q43 33 33.5 54.5Q24 76 24 100ZM24 400Q24 424 33.5 445.5Q43 467 59 483Q75 499 96.5 508.5Q118 518 142 518Q166 518 187.5 508.5Q209 499 225 483Q241 467 250.5 445.5Q260 424 260 400Q260 376 250.5 354.5Q241 333 225 317Q209 301 187.5 291.5Q166 282 142 282Q118 282 96.5 291.5Q75 301 59 317Q43 333 33.5 354.5Q24 376 24 400Z" glyph-name="colon" horiz-adv-x="284" unicode=":" /><glyph d="M194 200Q215 200 228 192.5Q241 185 247 172.5Q253 160 252.5 143.5Q252 127 246 110L180 -72Q169 -104 152.5 -114.5Q136 -125 107 -125H54Q25 -125 10.5 -108.5Q-4 -92 -1 -64L23 142Q29 200 92 200Z" glyph-name="comma" horiz-adv-x="284" unicode="," /><glyph d="M297 -50Q339 -50 352.5 -74Q366 -98 349 -130L315 -197Q307 -213 300 -223.5Q293 -234 284.5 -240Q276 -246 266 -248Q256 -250 242 -250H205Q176 -250 160.5 -235Q145 -220 150 -189L161 -108Q166 -76 184 -63Q202 -50 230 -50Z" glyph-name="commaaccent" horiz-adv-x="534" unicode="&#58388;" /><glyph d="M186 313Q186 410 237 462Q288 514 402 514Q429 514 452 511.5Q475 509 492 504Q512 499 522.5 488Q533 477 533 453V381Q533 364 522.5 360Q512 356 498 359Q485 362 464 365.5Q443 369 420 369Q391 369 372.5 357Q354 345 354 313Q354 281 372.5 269Q391 257 420 257Q443 257 464 260.5Q485 264 498 267Q512 270 522.5 266Q533 262 533 245V173Q533 149 522.5 138Q512 127 492 122Q475 117 452 114.5Q429 112 402 112Q288 112 237 163.5Q186 215 186 313ZM389 63Q441 63 487.5 76.5Q534 90 569 119.5Q604 149 624.5 196.5Q645 244 645 312Q645 380 624.5 427.5Q604 475 569 505Q534 535 487.5 548.5Q441 562 389 562Q336 562 289 548.5Q242 535 207 505Q172 475 151.5 427.5Q131 380 131 312Q131 244 151.5 196.5Q172 149 207 119.5Q242 90 289 76.5Q336 63 389 63ZM387 -14Q319 -14 258 3.5Q197 21 151 60Q105 99 78 161Q51 223 51 312Q51 402 78 464Q105 526 151 565Q197 604 258 621.5Q319 639 387 639Q456 639 517.5 621.5Q579 604 625 565Q671 526 698 464Q725 402 725 312Q725 223 698 161Q671 99 625 60Q579 21 517.5 3.5Q456 -14 387 -14Z" glyph-name="copyright" horiz-adv-x="776" unicode="&#169;" /><glyph d="M12 564Q12 663 60.5 715.5Q109 768 218 768Q238 768 257.5 766.5Q277 765 289 763Q304 760 314.5 750Q325 740 325 723V648Q325 631 316 621Q307 611 284 615Q280 616 272 616.5Q264 617 260 617Q227 617 210.5 606.5Q194 596 194 564Q194 532 210.5 521.5Q227 511 260 511Q264 511 272 511.5Q280 512 284 513Q307 517 316 507Q325 497 325 480V405Q325 388 314.5 378Q304 368 289 365Q277 363 257.5 361.5Q238 360 218 360Q109 360 60.5 412.5Q12 465 12 564Z" glyph-name="cordinal" horiz-adv-x="338" unicode="&#57729;" /><glyph d="M194 564Q194 532 213.5 521.5Q233 511 275 511Q291 511 302.5 512.5Q314 514 320 515Q343 519 352.5 508.5Q362 498 362 478V412Q362 392 355 381Q348 370 331 366Q320 364 295 362Q270 360 238 360Q176 360 133 373.5Q90 387 63 413Q36 439 24 477Q12 515 12 564Q12 613 24 651Q36 689 63 715Q90 741 133 754.5Q176 768 238 768Q270 768 295 766Q320 764 331 762Q348 758 355 747Q362 736 362 716V650Q362 630 352.5 619.5Q343 609 320 613Q314 614 302.5 615.5Q291 617 275 617Q233 617 213.5 606.5Q194 596 194 564Z" glyph-name="cordinal.smcp" horiz-adv-x="378" unicode="&#58195;" /><glyph d="M696 375Q696 287 662 222L723 161Q772 112 722 64L704 46Q656 -4 607 45L543 109Q509 93 477 85Q445 77 400 77Q355 77 323 85Q291 93 257 109L193 45Q144 -4 96 46L78 64Q28 112 77 161L138 222Q104 287 104 375Q104 463 138 528L77 589Q28 638 78 686L96 704Q144 754 193 705L257 641Q291 657 323 665Q355 673 400 673Q445 673 477 665Q509 657 543 641L607 705Q656 754 704 704L722 686Q772 638 723 589L662 528Q696 463 696 375ZM492 375Q492 429 468.5 451.5Q445 474 400 474Q355 474 331.5 451.5Q308 429 308 375Q308 321 331.5 298.5Q355 276 400 276Q445 276 468.5 298.5Q492 321 492 375Z" glyph-name="currency" horiz-adv-x="800" unicode="&#164;" /><glyph d="M235 250Q235 219 237 199.5Q239 180 244 168.5Q249 157 256.5 153Q264 149 275 149Q286 149 296 152Q306 155 311 158V342Q306 345 296 348Q286 351 275 351Q264 351 256.5 347Q249 343 244 331.5Q239 320 237 300.5Q235 281 235 250ZM311 690Q311 750 371 750H481Q541 750 541 690V60Q541 0 481 0H429Q399 0 385 11.5Q371 23 363 42Q327 10 289 -4Q251 -18 209 -18Q160 -18 123 -4.5Q86 9 60.5 40.5Q35 72 22 123.5Q9 175 9 250Q9 325 22 376Q35 427 60.5 458.5Q86 490 123 504Q160 518 209 518Q236 518 261.5 512.5Q287 507 311 498Z" glyph-name="d" horiz-adv-x="562" unicode="d" /><glyph d="M254 345V155H284Q315 155 326 178.5Q337 202 337 250Q337 298 326 321.5Q315 345 284 345ZM39 420Q39 500 119 500H306Q382 500 432 481Q482 462 511 428Q540 394 552 348.5Q564 303 564 250Q564 197 552 151.5Q540 106 511 72Q482 38 432 19Q382 0 306 0H119Q39 0 39 80Z" glyph-name="d.smcp" horiz-adv-x="586" unicode="&#57860;" /><glyph d="M129 465Q129 433 134.5 423.5Q140 414 151 414Q156 414 161.5 415.5Q167 417 170 419V511Q162 515 151 515Q140 515 134.5 505.5Q129 496 129 465ZM170 685Q170 715 200 715H260Q290 715 290 685V370Q290 340 260 340H229Q214 340 207 345.5Q200 351 196 361Q178 345 157 338Q136 331 116 331Q64 331 37.5 360.5Q11 390 11 465Q11 540 37.5 569.5Q64 599 116 599Q130 599 144 596.5Q158 594 170 589Z" glyph-name="d.superior" horiz-adv-x="313" unicode="&#58212;" /><glyph d="M344 310Q346 280 330 265Q314 250 284 250H168Q138 250 122 265Q106 280 108 310L125 451L70 443Q40 438 25 455.5Q10 473 10 503V594Q10 624 25 641.5Q40 659 70 654L125 646L118 690Q113 720 130.5 735Q148 750 178 750H274Q304 750 321.5 735Q339 720 334 690L327 646L382 654Q412 659 427 641.5Q442 624 442 594V503Q442 473 427 455.5Q412 438 382 443L327 451Z" glyph-name="dagger" horiz-adv-x="452" unicode="&#8224;" /><glyph d="M344 60Q346 30 330 15Q314 0 284 0H168Q138 0 122 15Q106 30 108 60L125 201L70 193Q40 188 25 205.5Q10 223 10 253V344Q10 374 25 391.5Q40 409 70 404L119 397L122 423L118 450L70 443Q40 438 25 455.5Q10 473 10 503V594Q10 624 25 641.5Q40 659 70 654L125 646L118 690Q113 720 130.5 735Q148 750 178 750H274Q304 750 321.5 735Q339 720 334 690L327 646L382 654Q412 659 427 641.5Q442 624 442 594V503Q442 473 427 455.5Q412 438 382 443L333 450L330 423L333 397L382 404Q412 409 427 391.5Q442 374 442 344V253Q442 223 427 205.5Q412 188 382 193L327 201Z" glyph-name="daggerdbl" horiz-adv-x="452" unicode="&#8225;" /><glyph d="M235 250Q235 219 237 199.5Q239 180 244 168.5Q249 157 256.5 153Q264 149 275 149Q286 149 296 152Q306 155 311 158V342Q306 345 296 348Q286 351 275 351Q264 351 256.5 347Q249 343 244 331.5Q239 320 237 300.5Q235 281 235 250ZM311 690Q311 750 371 750H481Q541 750 541 690V60Q541 0 481 0H429Q399 0 385 11.5Q371 23 363 42Q327 10 289 -4Q251 -18 209 -18Q160 -18 123 -4.5Q86 9 60.5 40.5Q35 72 22 123.5Q9 175 9 250Q9 325 22 376Q35 427 60.5 458.5Q86 490 123 504Q160 518 209 518Q236 518 261.5 512.5Q287 507 311 498ZM652 750Q663 750 673.5 746.5Q684 743 691 735Q698 727 700 714Q702 701 696 682L666 591Q660 573 649 561.5Q638 550 617 550H602Q581 550 571.5 562.5Q562 575 564 595L572 698Q574 721 584.5 735.5Q595 750 621 750Z" glyph-name="dcaron" horiz-adv-x="562" unicode="&#271;" /><glyph d="M254 345V155H284Q315 155 326 178.5Q337 202 337 250Q337 298 326 321.5Q315 345 284 345ZM219 550Q199 550 188.5 555.5Q178 561 162 578L67 677Q54 690 51.5 703Q49 716 53 726.5Q57 737 66 743.5Q75 750 87 750H170Q193 750 209 742Q225 734 242 717L269 689L296 717Q313 734 329 742Q345 750 368 750H451Q463 750 472 743.5Q481 737 485 726.5Q489 716 486.5 703Q484 690 471 677L376 578Q360 561 349.5 555.5Q339 550 319 550ZM39 420Q39 500 119 500H306Q382 500 432 481Q482 462 511 428Q540 394 552 348.5Q564 303 564 250Q564 197 552 151.5Q540 106 511 72Q482 38 432 19Q382 0 306 0H119Q39 0 39 80Z" glyph-name="dcaron.smcp" horiz-adv-x="596" unicode="&#57913;" /><glyph d="M235 250Q235 219 237 199.5Q239 180 244 168.5Q249 157 256.5 153Q264 149 275 149Q286 149 296 152Q306 155 311 158V342Q306 345 296 348Q286 351 275 351Q264 351 256.5 347Q249 343 244 331.5Q239 320 237 300.5Q235 281 235 250ZM311 676V690Q311 750 371 750H481Q541 750 541 690V676H552Q612 676 612 616V596Q612 536 552 536H541V60Q541 0 481 0H429Q399 0 385 11.5Q371 23 363 42Q327 10 289 -4Q251 -18 209 -18Q160 -18 123 -4.5Q86 9 60.5 40.5Q35 72 22 123.5Q9 175 9 250Q9 325 22 376Q35 427 60.5 458.5Q86 490 123 504Q160 518 209 518Q236 518 261.5 512.5Q287 507 311 498V536H272Q212 536 212 596V616Q212 676 272 676Z" glyph-name="dcroat" horiz-adv-x="562" unicode="&#273;" /><glyph d="M254 345V310H260Q315 310 315 255V250Q315 195 260 195H254V155H284Q315 155 326 178.5Q337 202 337 250Q337 298 326 321.5Q315 345 284 345ZM39 420Q39 500 119 500H306Q382 500 432 481Q482 462 511 428Q540 394 552 348.5Q564 303 564 250Q564 197 552 151.5Q540 106 511 72Q482 38 432 19Q382 0 306 0H119Q39 0 39 80V196Q0 202 0 250V255Q0 302 39 309Z" glyph-name="dcroat.smcp" horiz-adv-x="612" unicode="&#57916;" /><glyph d="M174 592Q174 577 182.5 567Q191 557 214 557Q237 557 245.5 567Q254 577 254 592Q254 607 245.5 617Q237 627 214 627Q191 627 182.5 617Q174 607 174 592ZM401 592Q401 416 214 416Q27 416 27 592Q27 768 214 768Q401 768 401 592Z" glyph-name="degree" horiz-adv-x="428" unicode="&#176;" /><glyph d="M432 -10Q412 -10 401 -0.5Q390 9 383 23Q339 108 268 186Q197 264 104 330Q93 338 86 348Q79 358 79 375Q79 392 86 402Q93 412 104 420Q197 486 268 564Q339 642 383 727Q390 741 401 750.5Q412 760 432 760Q452 760 463 750.5Q474 741 481 727Q525 642 596 564Q667 486 760 420Q771 412 778 402Q785 392 785 375Q785 358 778 348Q771 338 760 330Q667 264 596 186Q525 108 481 23Q474 9 463 -0.5Q452 -10 432 -10Z" glyph-name="diamond" horiz-adv-x="864" unicode="&#9830;" /><glyph d="M282 650Q282 674 291.5 695.5Q301 717 317 733Q333 749 354.5 758.5Q376 768 400 768Q424 768 445.5 758.5Q467 749 483 733Q499 717 508.5 695.5Q518 674 518 650Q518 626 508.5 604.5Q499 583 483 567Q467 551 445.5 541.5Q424 532 400 532Q376 532 354.5 541.5Q333 551 317 567Q301 583 291.5 604.5Q282 626 282 650ZM16 650Q16 674 25.5 695.5Q35 717 51 733Q67 749 88.5 758.5Q110 768 134 768Q158 768 179.5 758.5Q201 749 217 733Q233 717 242.5 695.5Q252 674 252 650Q252 626 242.5 604.5Q233 583 217 567Q201 551 179.5 541.5Q158 532 134 532Q110 532 88.5 541.5Q67 551 51 567Q35 583 25.5 604.5Q16 626 16 650Z" glyph-name="dieresis" horiz-adv-x="534" unicode="&#168;" /><glyph d="M282 845Q282 883 308.5 896.5Q335 910 400 910Q465 910 491.5 896.5Q518 883 518 845Q518 806 491.5 793Q465 780 400 780Q335 780 308.5 793Q282 806 282 845ZM16 845Q16 883 42.5 896.5Q69 910 134 910Q199 910 225.5 896.5Q252 883 252 845Q252 806 225.5 793Q199 780 134 780Q69 780 42.5 793Q16 806 16 845Z" glyph-name="dieresis.cap" horiz-adv-x="534" unicode="&#58409;" /><glyph d="M510 447Q570 447 570 387V295Q570 235 510 235H90Q30 235 30 295V387Q30 447 90 447ZM182 100Q182 124 191.5 145.5Q201 167 217 183Q233 199 254.5 208.5Q276 218 300 218Q324 218 345.5 208.5Q367 199 383 183Q399 167 408.5 145.5Q418 124 418 100Q418 76 408.5 54.5Q399 33 383 17Q367 1 345.5 -8.5Q324 -18 300 -18Q276 -18 254.5 -8.5Q233 1 217 17Q201 33 191.5 54.5Q182 76 182 100ZM182 582Q182 606 191.5 627.5Q201 649 217 665Q233 681 254.5 690.5Q276 700 300 700Q324 700 345.5 690.5Q367 681 383 665Q399 649 408.5 627.5Q418 606 418 582Q418 558 408.5 536.5Q399 515 383 499Q367 483 345.5 473.5Q324 464 300 464Q276 464 254.5 473.5Q233 483 217 499Q201 515 191.5 536.5Q182 558 182 582Z" glyph-name="divide" horiz-adv-x="600" unicode="&#247;" /><glyph d="M135 269Q75 269 75 329V421Q75 481 135 481H765Q825 481 825 421V329Q825 269 765 269ZM332 100Q332 124 341.5 145.5Q351 167 367 183Q383 199 404.5 208.5Q426 218 450 218Q474 218 495.5 208.5Q517 199 533 183Q549 167 558.5 145.5Q568 124 568 100Q568 76 558.5 54.5Q549 33 533 17Q517 1 495.5 -8.5Q474 -18 450 -18Q426 -18 404.5 -8.5Q383 1 367 17Q351 33 341.5 54.5Q332 76 332 100ZM332 650Q332 674 341.5 695.5Q351 717 367 733Q383 749 404.5 758.5Q426 768 450 768Q474 768 495.5 758.5Q517 749 533 733Q549 717 558.5 695.5Q568 674 568 650Q568 626 558.5 604.5Q549 583 533 567Q517 551 495.5 541.5Q474 532 450 532Q426 532 404.5 541.5Q383 551 367 567Q351 583 341.5 604.5Q332 626 332 650Z" glyph-name="divide.cap" horiz-adv-x="900" unicode="&#58772;" /><glyph d="M278 474Q243 474 243 458Q243 450 248 447Q253 444 261 443Q325 437 374 429.5Q423 422 456.5 406Q490 390 507 361.5Q524 333 524 285Q524 247 512.5 214Q501 181 473.5 157Q446 133 399 119.5Q352 106 282 106H279L256 42Q242 0 200 0H146Q117 0 104 19.5Q91 39 102 69L121 118Q113 119 98 121.5Q83 124 76 126Q42 134 31.5 149Q21 164 21 193V261Q21 291 38.5 300Q56 309 82 301Q94 298 115 293Q136 288 161.5 284Q187 280 214.5 277Q242 274 268 274Q285 274 294 277Q303 280 303 290Q303 299 298 301.5Q293 304 285 305Q219 311 170 319Q121 327 88 343.5Q55 360 38.5 388Q22 416 22 463Q22 503 34.5 536.5Q47 570 75.5 593Q104 616 148.5 629Q193 642 258 642H260L283 708Q297 750 339 750H394Q423 750 436 730.5Q449 711 438 681L419 631Q427 630 435 629Q442 628 449 626.5Q456 625 461 624Q492 616 501.5 601.5Q511 587 511 558V494Q511 464 494.5 456Q478 448 451 453Q438 456 417.5 459.5Q397 463 373 466Q349 469 324 471.5Q299 474 278 474Z" glyph-name="dollar" horiz-adv-x="546" unicode="$" /><glyph d="M278 474Q243 474 243 458Q243 450 248 447Q253 444 261 443Q325 437 374 429.5Q423 422 456.5 406Q490 390 507 361.5Q524 333 524 285Q524 247 512.5 214Q501 181 473.5 157Q446 133 399 119.5Q352 106 282 106H279L256 42Q242 0 200 0H146Q117 0 104 19.5Q91 39 102 69L121 118Q113 119 98 121.5Q83 124 76 126Q42 134 31.5 149Q21 164 21 193V261Q21 291 38.5 300Q56 309 82 301Q94 298 115 293Q136 288 161.5 284Q187 280 214.5 277Q242 274 268 274Q285 274 294 277Q303 280 303 290Q303 299 298 301.5Q293 304 285 305Q219 311 170 319Q121 327 88 343.5Q55 360 38.5 388Q22 416 22 463Q22 503 34.5 536.5Q47 570 75.5 593Q104 616 148.5 629Q193 642 258 642H260L283 708Q297 750 339 750H394Q423 750 436 730.5Q449 711 438 681L419 631Q427 630 435 629Q442 628 449 626.5Q456 625 461 624Q492 616 501.5 601.5Q511 587 511 558V494Q511 464 494.5 456Q478 448 451 453Q438 456 417.5 459.5Q397 463 373 466Q349 469 324 471.5Q299 474 278 474Z" glyph-name="dollar.LP" horiz-adv-x="546" unicode="&#58658;" /><glyph d="M278 349Q243 349 243 333Q243 325 248 322Q253 319 261 318Q325 312 374 304.5Q423 297 456.5 281Q490 265 507 236.5Q524 208 524 160Q524 122 512.5 89Q501 56 473.5 32Q446 8 399 -5.5Q352 -19 282 -19H279L256 -83Q242 -125 200 -125H146Q117 -125 104 -105.5Q91 -86 102 -56L121 -7Q113 -6 98 -3.5Q83 -1 76 1Q42 9 31.5 24Q21 39 21 68V136Q21 166 38.5 175Q56 184 82 176Q94 173 115 168Q136 163 161.5 159Q187 155 214.5 152Q242 149 268 149Q285 149 294 152Q303 155 303 165Q303 174 298 176.5Q293 179 285 180Q219 186 170 194Q121 202 88 218.5Q55 235 38.5 263Q22 291 22 338Q22 378 34.5 411.5Q47 445 75.5 468Q104 491 148.5 504Q193 517 258 517H260L283 583Q297 625 339 625H394Q423 625 436 605.5Q449 586 438 556L419 506Q427 505 435 504Q442 503 449 501.5Q456 500 461 499Q492 491 501.5 476.5Q511 462 511 433V369Q511 339 494.5 331Q478 323 451 328Q438 331 417.5 334.5Q397 338 373 341Q349 344 324 346.5Q299 349 278 349Z" glyph-name="dollar.OP" horiz-adv-x="546" /><glyph d="M270 212Q295 212 306 216Q317 220 317 233Q317 247 309 249.5Q301 252 290 253Q224 258 175.5 264Q127 270 95 285Q63 300 47.5 327Q32 354 32 401Q32 440 44.5 472Q57 504 84 527.5Q111 551 154 564.5Q197 578 259 580L283 645Q297 687 339 687H393Q422 687 435 667.5Q448 648 437 618L419 571L460 565Q494 558 505 542.5Q516 527 516 498V434Q516 404 499.5 396Q483 388 456 393Q443 396 425 399Q407 402 386.5 405Q366 408 343.5 410Q321 412 300 412Q271 412 260 407Q249 402 249 391Q249 378 257 375Q265 372 276 371Q340 366 388 360.5Q436 355 468.5 340Q501 325 517.5 298Q534 271 534 223Q534 185 522 152Q510 119 481 95Q452 71 403.5 57.5Q355 44 282 44H279L256 -20Q242 -62 200 -62H146Q117 -62 104 -42.5Q91 -23 102 7L121 57Q111 59 103.5 60.5Q96 62 89 64Q55 72 44.5 87Q34 102 34 131V196Q34 226 51.5 235Q69 244 95 236Q107 233 126.5 228.5Q146 224 169.5 220.5Q193 217 219 214.5Q245 212 270 212Z" glyph-name="dollar.hybrid" horiz-adv-x="560" /><glyph d="M149 650Q149 674 158.5 695.5Q168 717 184 733Q200 749 221.5 758.5Q243 768 267 768Q291 768 312.5 758.5Q334 749 350 733Q366 717 375.5 695.5Q385 674 385 650Q385 626 375.5 604.5Q366 583 350 567Q334 551 312.5 541.5Q291 532 267 532Q243 532 221.5 541.5Q200 551 184 567Q168 583 158.5 604.5Q149 626 149 650Z" glyph-name="dotaccent" horiz-adv-x="534" unicode="&#729;" /><glyph d="M149 845Q149 883 175.5 896.5Q202 910 267 910Q332 910 358.5 896.5Q385 883 385 845Q385 806 358.5 793Q332 780 267 780Q202 780 175.5 793Q149 806 149 845Z" glyph-name="dotaccent.cap" horiz-adv-x="534" unicode="&#58408;" /><glyph d="M188 -18Q111 -18 66 18.5Q21 55 21 134V440Q21 500 81 500H191Q251 500 251 440V199Q251 191 254 186Q257 181 268 177Q277 174 284 167.5Q291 161 291 142V41Q291 29 286 18.5Q281 8 269.5 0Q258 -8 238 -13Q218 -18 188 -18Z" glyph-name="dotlessi" horiz-adv-x="294" unicode="&#305;" /><glyph d="M34 -268Q-19 -268 -40.5 -253Q-62 -238 -62 -204V-120Q-62 -100 -50 -88Q-38 -76 -18 -76Q21 -76 21 -36V440Q21 500 81 500H191Q251 500 251 440V-53Q251 -162 196 -215Q141 -268 34 -268Z" glyph-name="dotlessj" horiz-adv-x="276" unicode="&#567;" /><glyph d="M544 -140Q544 -200 484 -200H372Q312 -200 312 -140V740Q312 800 372 800H484Q544 800 544 740ZM261 -140Q261 -200 201 -200H89Q29 -200 29 -140V740Q29 800 89 800H201Q261 800 261 740Z" glyph-name="doublebar" horiz-adv-x="573" unicode="&#8214;" /><glyph d="M127 750Q182 750 196 692L216 611Q223 583 209.5 566.5Q196 550 167 550H157Q128 550 112 559.5Q96 569 79 597L33 670Q14 700 24 725Q34 750 73 750ZM327 750Q382 750 396 692L416 611Q423 583 409.5 566.5Q396 550 367 550H357Q328 550 312 559.5Q296 569 279 597L233 670Q214 700 224 725Q234 750 273 750Z" glyph-name="doublegrave" horiz-adv-x="534" unicode="&#58386;" /><glyph d="M366 900Q394 900 409 891.5Q424 883 432 854L434 847Q441 822 431 806Q421 790 395 790H345Q318 790 305 793.5Q292 797 278 813L257 836Q245 849 242 861Q239 873 243 881.5Q247 890 256.5 895Q266 900 279 900ZM166 900Q194 900 209 891.5Q224 883 232 854L234 847Q241 822 231 806Q221 790 195 790H145Q118 790 105 793.5Q92 797 78 813L57 836Q45 849 42 861Q39 873 43 881.5Q47 890 56.5 895Q66 900 79 900Z" glyph-name="doublegrave.cap" horiz-adv-x="534" unicode="&#58412;" /><glyph d="M271 365Q242 365 229 349.5Q216 334 218 296H313Q315 330 306.5 347.5Q298 365 271 365ZM516 256Q516 196 456 196H218Q218 185 220.5 175Q223 165 232 157Q241 149 257.5 144.5Q274 140 300 140Q320 140 341 141.5Q362 143 381.5 145.5Q401 148 417.5 151Q434 154 446 157Q476 164 492 149Q508 134 508 110V64Q508 42 500.5 28Q493 14 470 6Q440 -4 389 -11Q338 -18 280 -18Q203 -18 151 -1.5Q99 15 67.5 48Q36 81 22.5 131.5Q9 182 9 250Q9 319 24 369.5Q39 420 71.5 453Q104 486 155 502Q206 518 277 518Q352 518 399 498.5Q446 479 472 445.5Q498 412 507 367.5Q516 323 516 273Z" glyph-name="e" horiz-adv-x="525" unicode="e" /><glyph d="M494 252Q494 206 447 206H259V163H442Q522 163 522 83V80Q522 0 442 0H117Q37 0 37 80V420Q37 500 117 500H442Q522 500 522 420V418Q522 338 442 338H259V299H447Q494 299 494 252Z" glyph-name="e.smcp" horiz-adv-x="555" unicode="&#57861;" /><glyph d="M149 520Q136 520 129.5 514Q123 508 121 488H170Q172 508 165.5 514Q159 520 149 520ZM154 331Q113 331 85.5 339Q58 347 41.5 363.5Q25 380 18 405.5Q11 431 11 465Q11 534 42 566.5Q73 599 148 599Q188 599 213 589Q238 579 252.5 562.5Q267 546 272.5 523.5Q278 501 278 476V467Q278 437 248 437H123Q123 426 131 421Q139 416 166 416Q186 416 206.5 419Q227 422 239 424Q254 428 262 420.5Q270 413 270 401V372Q270 361 266 354Q262 347 251 343Q236 338 209.5 334.5Q183 331 154 331Z" glyph-name="e.superior" horiz-adv-x="287" unicode="&#58213;" /><glyph d="M271 365Q242 365 229 349.5Q216 334 218 296H313Q315 330 306.5 347.5Q298 365 271 365ZM516 256Q516 196 456 196H218Q218 185 220.5 175Q223 165 232 157Q241 149 257.5 144.5Q274 140 300 140Q320 140 341 141.5Q362 143 381.5 145.5Q401 148 417.5 151Q434 154 446 157Q476 164 492 149Q508 134 508 110V64Q508 42 500.5 28Q493 14 470 6Q440 -4 389 -11Q338 -18 280 -18Q203 -18 151 -1.5Q99 15 67.5 48Q36 81 22.5 131.5Q9 182 9 250Q9 319 24 369.5Q39 420 71.5 453Q104 486 155 502Q206 518 277 518Q352 518 399 498.5Q446 479 472 445.5Q498 412 507 367.5Q516 323 516 273ZM369 750Q408 750 418 725Q428 700 409 670L363 597Q346 569 330 559.5Q314 550 285 550H255Q226 550 212.5 566.5Q199 583 206 611L226 692Q240 750 295 750Z" glyph-name="eacute" horiz-adv-x="525" unicode="&#233;" /><glyph d="M494 252Q494 206 447 206H259V163H442Q522 163 522 83V80Q522 0 442 0H117Q37 0 37 80V420Q37 500 117 500H442Q522 500 522 420V418Q522 338 442 338H259V299H447Q494 299 494 252ZM389 750Q428 750 438 725Q448 700 429 670L383 597Q366 569 350 559.5Q334 550 305 550H275Q246 550 232.5 566.5Q219 583 226 611L246 692Q260 750 315 750Z" glyph-name="eacute.smcp" horiz-adv-x="555" unicode="&#57917;" /><glyph d="M271 365Q242 365 229 349.5Q216 334 218 296H313Q315 330 306.5 347.5Q298 365 271 365ZM516 256Q516 196 456 196H218Q218 185 220.5 175Q223 165 232 157Q241 149 257.5 144.5Q274 140 300 140Q320 140 341 141.5Q362 143 381.5 145.5Q401 148 417.5 151Q434 154 446 157Q476 164 492 149Q508 134 508 110V64Q508 42 500.5 28Q493 14 470 6Q440 -4 389 -11Q338 -18 280 -18Q203 -18 151 -1.5Q99 15 67.5 48Q36 81 22.5 131.5Q9 182 9 250Q9 319 24 369.5Q39 420 71.5 453Q104 486 155 502Q206 518 277 518Q352 518 399 498.5Q446 479 472 445.5Q498 412 507 367.5Q516 323 516 273ZM265 550Q212 550 176 563Q140 576 117.5 597.5Q95 619 83.5 646.5Q72 674 69 704Q64 750 112 750H147Q167 750 177 743.5Q187 737 192 721Q198 702 214 691Q230 680 265 680Q300 680 316 691Q332 702 338 721Q343 737 353 743.5Q363 750 383 750H418Q466 750 461 704Q458 674 446.5 646.5Q435 619 412.5 597.5Q390 576 353.5 563Q317 550 265 550Z" glyph-name="ebreve" horiz-adv-x="525" unicode="&#277;" /><glyph d="M494 252Q494 206 447 206H259V163H442Q522 163 522 83V80Q522 0 442 0H117Q37 0 37 80V420Q37 500 117 500H442Q522 500 522 420V418Q522 338 442 338H259V299H447Q494 299 494 252ZM285 550Q232 550 196 563Q160 576 137.5 597.5Q115 619 103.5 646.5Q92 674 89 704Q84 750 132 750H167Q187 750 197 743.5Q207 737 212 721Q218 702 234 691Q250 680 285 680Q320 680 336 691Q352 702 358 721Q363 737 373 743.5Q383 750 403 750H438Q486 750 481 704Q478 674 466.5 646.5Q455 619 432.5 597.5Q410 576 373.5 563Q337 550 285 550Z" glyph-name="ebreve.smcp" horiz-adv-x="555" unicode="&#57923;" /><glyph d="M271 365Q242 365 229 349.5Q216 334 218 296H313Q315 330 306.5 347.5Q298 365 271 365ZM215 550Q195 550 184.5 555.5Q174 561 158 578L63 677Q50 690 47.5 703Q45 716 49 726.5Q53 737 62 743.5Q71 750 83 750H166Q189 750 205 742Q221 734 238 717L265 689L292 717Q309 734 325 742Q341 750 364 750H447Q459 750 468 743.5Q477 737 481 726.5Q485 716 482.5 703Q480 690 467 677L372 578Q356 561 345.5 555.5Q335 550 315 550ZM516 256Q516 196 456 196H218Q218 185 220.5 175Q223 165 232 157Q241 149 257.5 144.5Q274 140 300 140Q320 140 341 141.5Q362 143 381.5 145.5Q401 148 417.5 151Q434 154 446 157Q476 164 492 149Q508 134 508 110V64Q508 42 500.5 28Q493 14 470 6Q440 -4 389 -11Q338 -18 280 -18Q203 -18 151 -1.5Q99 15 67.5 48Q36 81 22.5 131.5Q9 182 9 250Q9 319 24 369.5Q39 420 71.5 453Q104 486 155 502Q206 518 277 518Q352 518 399 498.5Q446 479 472 445.5Q498 412 507 367.5Q516 323 516 273Z" glyph-name="ecaron" horiz-adv-x="525" unicode="&#283;" /><glyph d="M235 550Q215 550 204.5 555.5Q194 561 178 578L83 677Q70 690 67.5 703Q65 716 69 726.5Q73 737 82 743.5Q91 750 103 750H186Q209 750 225 742Q241 734 258 717L285 689L312 717Q329 734 345 742Q361 750 384 750H467Q479 750 488 743.5Q497 737 501 726.5Q505 716 502.5 703Q500 690 487 677L392 578Q376 561 365.5 555.5Q355 550 335 550ZM494 252Q494 206 447 206H259V163H442Q522 163 522 83V80Q522 0 442 0H117Q37 0 37 80V420Q37 500 117 500H442Q522 500 522 420V418Q522 338 442 338H259V299H447Q494 299 494 252Z" glyph-name="ecaron.smcp" horiz-adv-x="555" unicode="&#57921;" /><glyph d="M271 365Q242 365 229 349.5Q216 334 218 296H313Q315 330 306.5 347.5Q298 365 271 365ZM315 750Q335 750 345.5 744.5Q356 739 372 722L467 623Q480 610 482.5 597Q485 584 481 573.5Q477 563 468 556.5Q459 550 447 550H364Q341 550 325 558Q309 566 292 583L265 611L238 583Q221 566 205 558Q189 550 166 550H83Q71 550 62 556.5Q53 563 49 573.5Q45 584 47.5 597Q50 610 63 623L158 722Q174 739 184.5 744.5Q195 750 215 750ZM516 256Q516 196 456 196H218Q218 185 220.5 175Q223 165 232 157Q241 149 257.5 144.5Q274 140 300 140Q320 140 341 141.5Q362 143 381.5 145.5Q401 148 417.5 151Q434 154 446 157Q476 164 492 149Q508 134 508 110V64Q508 42 500.5 28Q493 14 470 6Q440 -4 389 -11Q338 -18 280 -18Q203 -18 151 -1.5Q99 15 67.5 48Q36 81 22.5 131.5Q9 182 9 250Q9 319 24 369.5Q39 420 71.5 453Q104 486 155 502Q206 518 277 518Q352 518 399 498.5Q446 479 472 445.5Q498 412 507 367.5Q516 323 516 273Z" glyph-name="ecircumflex" horiz-adv-x="525" unicode="&#234;" /><glyph d="M335 750Q355 750 365.5 744.5Q376 739 392 722L487 623Q500 610 502.5 597Q505 584 501 573.5Q497 563 488 556.5Q479 550 467 550H384Q361 550 345 558Q329 566 312 583L285 611L258 583Q241 566 225 558Q209 550 186 550H103Q91 550 82 556.5Q73 563 69 573.5Q65 584 67.5 597Q70 610 83 623L178 722Q194 739 204.5 744.5Q215 750 235 750ZM494 252Q494 206 447 206H259V163H442Q522 163 522 83V80Q522 0 442 0H117Q37 0 37 80V420Q37 500 117 500H442Q522 500 522 420V418Q522 338 442 338H259V299H447Q494 299 494 252Z" glyph-name="ecircumflex.smcp" horiz-adv-x="555" unicode="&#57919;" /><glyph d="M271 365Q242 365 229 349.5Q216 334 218 296H313Q315 330 306.5 347.5Q298 365 271 365ZM516 256Q516 196 456 196H218Q218 185 220.5 175Q223 165 232 157Q241 149 257.5 144.5Q274 140 300 140Q320 140 341 141.5Q362 143 381.5 145.5Q401 148 417.5 151Q434 154 446 157Q476 164 492 149Q508 134 508 110V64Q508 42 500.5 28Q493 14 470 6Q440 -4 389 -11Q338 -18 280 -18Q203 -18 151 -1.5Q99 15 67.5 48Q36 81 22.5 131.5Q9 182 9 250Q9 319 24 369.5Q39 420 71.5 453Q104 486 155 502Q206 518 277 518Q352 518 399 498.5Q446 479 472 445.5Q498 412 507 367.5Q516 323 516 273ZM280 650Q280 674 289.5 695.5Q299 717 315 733Q331 749 352.5 758.5Q374 768 398 768Q422 768 443.5 758.5Q465 749 481 733Q497 717 506.5 695.5Q516 674 516 650Q516 626 506.5 604.5Q497 583 481 567Q465 551 443.5 541.5Q422 532 398 532Q374 532 352.5 541.5Q331 551 315 567Q299 583 289.5 604.5Q280 626 280 650ZM14 650Q14 674 23.5 695.5Q33 717 49 733Q65 749 86.5 758.5Q108 768 132 768Q156 768 177.5 758.5Q199 749 215 733Q231 717 240.5 695.5Q250 674 250 650Q250 626 240.5 604.5Q231 583 215 567Q199 551 177.5 541.5Q156 532 132 532Q108 532 86.5 541.5Q65 551 49 567Q33 583 23.5 604.5Q14 626 14 650Z" glyph-name="edieresis" horiz-adv-x="525" unicode="&#235;" /><glyph d="M494 252Q494 206 447 206H259V163H442Q522 163 522 83V80Q522 0 442 0H117Q37 0 37 80V420Q37 500 117 500H442Q522 500 522 420V418Q522 338 442 338H259V299H447Q494 299 494 252ZM300 650Q300 674 309.5 695.5Q319 717 335 733Q351 749 372.5 758.5Q394 768 418 768Q442 768 463.5 758.5Q485 749 501 733Q517 717 526.5 695.5Q536 674 536 650Q536 626 526.5 604.5Q517 583 501 567Q485 551 463.5 541.5Q442 532 418 532Q394 532 372.5 541.5Q351 551 335 567Q319 583 309.5 604.5Q300 626 300 650ZM34 650Q34 674 43.5 695.5Q53 717 69 733Q85 749 106.5 758.5Q128 768 152 768Q176 768 197.5 758.5Q219 749 235 733Q251 717 260.5 695.5Q270 674 270 650Q270 626 260.5 604.5Q251 583 235 567Q219 551 197.5 541.5Q176 532 152 532Q128 532 106.5 541.5Q85 551 69 567Q53 583 43.5 604.5Q34 626 34 650Z" glyph-name="edieresis.smcp" horiz-adv-x="555" unicode="&#57904;" /><glyph d="M271 365Q242 365 229 349.5Q216 334 218 296H313Q315 330 306.5 347.5Q298 365 271 365ZM516 256Q516 196 456 196H218Q218 185 220.5 175Q223 165 232 157Q241 149 257.5 144.5Q274 140 300 140Q320 140 341 141.5Q362 143 381.5 145.5Q401 148 417.5 151Q434 154 446 157Q476 164 492 149Q508 134 508 110V64Q508 42 500.5 28Q493 14 470 6Q440 -4 389 -11Q338 -18 280 -18Q203 -18 151 -1.5Q99 15 67.5 48Q36 81 22.5 131.5Q9 182 9 250Q9 319 24 369.5Q39 420 71.5 453Q104 486 155 502Q206 518 277 518Q352 518 399 498.5Q446 479 472 445.5Q498 412 507 367.5Q516 323 516 273ZM147 650Q147 674 156.5 695.5Q166 717 182 733Q198 749 219.5 758.5Q241 768 265 768Q289 768 310.5 758.5Q332 749 348 733Q364 717 373.5 695.5Q383 674 383 650Q383 626 373.5 604.5Q364 583 348 567Q332 551 310.5 541.5Q289 532 265 532Q241 532 219.5 541.5Q198 551 182 567Q166 583 156.5 604.5Q147 626 147 650Z" glyph-name="edotaccent" horiz-adv-x="525" unicode="&#279;" /><glyph d="M494 252Q494 206 447 206H259V163H442Q522 163 522 83V80Q522 0 442 0H117Q37 0 37 80V420Q37 500 117 500H442Q522 500 522 420V418Q522 338 442 338H259V299H447Q494 299 494 252ZM167 650Q167 674 176.5 695.5Q186 717 202 733Q218 749 239.5 758.5Q261 768 285 768Q309 768 330.5 758.5Q352 749 368 733Q384 717 393.5 695.5Q403 674 403 650Q403 626 393.5 604.5Q384 583 368 567Q352 551 330.5 541.5Q309 532 285 532Q261 532 239.5 541.5Q218 551 202 567Q186 583 176.5 604.5Q167 626 167 650Z" glyph-name="edotaccent.smcp" horiz-adv-x="555" unicode="&#57926;" /><glyph d="M271 365Q242 365 229 349.5Q216 334 218 296H313Q315 330 306.5 347.5Q298 365 271 365ZM516 256Q516 196 456 196H218Q218 185 220.5 175Q223 165 232 157Q241 149 257.5 144.5Q274 140 300 140Q320 140 341 141.5Q362 143 381.5 145.5Q401 148 417.5 151Q434 154 446 157Q476 164 492 149Q508 134 508 110V64Q508 42 500.5 28Q493 14 470 6Q440 -4 389 -11Q338 -18 280 -18Q203 -18 151 -1.5Q99 15 67.5 48Q36 81 22.5 131.5Q9 182 9 250Q9 319 24 369.5Q39 420 71.5 453Q104 486 155 502Q206 518 277 518Q352 518 399 498.5Q446 479 472 445.5Q498 412 507 367.5Q516 323 516 273ZM236 750Q291 750 305 692L325 611Q332 583 318.5 566.5Q305 550 276 550H246Q217 550 201 559.5Q185 569 168 597L122 670Q103 700 113 725Q123 750 162 750Z" glyph-name="egrave" horiz-adv-x="525" unicode="&#232;" /><glyph d="M494 252Q494 206 447 206H259V163H442Q522 163 522 83V80Q522 0 442 0H117Q37 0 37 80V420Q37 500 117 500H442Q522 500 522 420V418Q522 338 442 338H259V299H447Q494 299 494 252ZM256 750Q311 750 325 692L345 611Q352 583 338.5 566.5Q325 550 296 550H266Q237 550 221 559.5Q205 569 188 597L142 670Q123 700 133 725Q143 750 182 750Z" glyph-name="egrave.smcp" horiz-adv-x="555" unicode="&#57918;" /><glyph d="M300 467Q361 467 361 522Q361 554 345 565.5Q329 577 300 577Q271 577 255 565.5Q239 554 239 522Q239 467 300 467ZM222 246Q222 212 240 193.5Q258 175 300 175Q342 175 360 193.5Q378 212 378 246Q378 280 360 298.5Q342 317 300 317Q258 317 240 298.5Q222 280 222 246ZM300 -18Q165 -18 88 42Q11 102 11 222Q11 284 38 327Q65 370 100 393Q74 416 53.5 454.5Q33 493 33 544Q33 650 97 709Q161 768 300 768Q439 768 503 709Q567 650 567 544Q567 493 546.5 454.5Q526 416 500 393Q535 370 562 327Q589 284 589 222Q589 102 512 42Q435 -18 300 -18Z" glyph-name="eight" horiz-adv-x="600" unicode="8" /><glyph d="M304 467Q365 467 365 522Q365 554 349 565.5Q333 577 304 577Q275 577 259 565.5Q243 554 243 522Q243 467 304 467ZM226 246Q226 212 244 193.5Q262 175 304 175Q346 175 364 193.5Q382 212 382 246Q382 280 364 298.5Q346 317 304 317Q262 317 244 298.5Q226 280 226 246ZM304 -18Q169 -18 92 42Q15 102 15 222Q15 284 42 327Q69 370 104 393Q78 416 57.5 454.5Q37 493 37 544Q37 650 101 709Q165 768 304 768Q443 768 507 709Q571 650 571 544Q571 493 550.5 454.5Q530 416 504 393Q539 370 566 327Q593 284 593 222Q593 102 516 42Q439 -18 304 -18Z" glyph-name="eight.LP" horiz-adv-x="608" unicode="&#58685;" /><glyph d="M300 467Q361 467 361 522Q361 554 345 565.5Q329 577 300 577Q271 577 255 565.5Q239 554 239 522Q239 467 300 467ZM222 246Q222 212 240 193.5Q258 175 300 175Q342 175 360 193.5Q378 212 378 246Q378 280 360 298.5Q342 317 300 317Q258 317 240 298.5Q222 280 222 246ZM300 -18Q165 -18 88 42Q11 102 11 222Q11 284 38 327Q65 370 100 393Q74 416 53.5 454.5Q33 493 33 544Q33 650 97 709Q161 768 300 768Q439 768 503 709Q567 650 567 544Q567 493 546.5 454.5Q526 416 500 393Q535 370 562 327Q589 284 589 222Q589 102 512 42Q435 -18 300 -18Z" glyph-name="eight.LT" horiz-adv-x="600" unicode="&#58696;" /><glyph d="M304 467Q365 467 365 522Q365 554 349 565.5Q333 577 304 577Q275 577 259 565.5Q243 554 243 522Q243 467 304 467ZM226 246Q226 212 244 193.5Q262 175 304 175Q346 175 364 193.5Q382 212 382 246Q382 280 364 298.5Q346 317 304 317Q262 317 244 298.5Q226 280 226 246ZM304 -18Q169 -18 92 42Q15 102 15 222Q15 284 42 327Q69 370 104 393Q78 416 57.5 454.5Q37 493 37 544Q37 650 101 709Q165 768 304 768Q443 768 507 709Q571 650 571 544Q571 493 550.5 454.5Q530 416 504 393Q539 370 566 327Q593 284 593 222Q593 102 516 42Q439 -18 304 -18Z" glyph-name="eight.OP" horiz-adv-x="608" unicode="&#58707;" /><glyph d="M300 467Q361 467 361 522Q361 554 345 565.5Q329 577 300 577Q271 577 255 565.5Q239 554 239 522Q239 467 300 467ZM222 246Q222 212 240 193.5Q258 175 300 175Q342 175 360 193.5Q378 212 378 246Q378 280 360 298.5Q342 317 300 317Q258 317 240 298.5Q222 280 222 246ZM300 -18Q165 -18 88 42Q11 102 11 222Q11 284 38 327Q65 370 100 393Q74 416 53.5 454.5Q33 493 33 544Q33 650 97 709Q161 768 300 768Q439 768 503 709Q567 650 567 544Q567 493 546.5 454.5Q526 416 500 393Q535 370 562 327Q589 284 589 222Q589 102 512 42Q435 -18 300 -18Z" glyph-name="eight.OT" horiz-adv-x="600" unicode="&#58718;" /><glyph d="M287 -18Q214 -18 162 -7.5Q110 3 77 24.5Q44 46 28.5 78Q13 110 13 152Q13 200 35.5 230.5Q58 261 87 274Q79 277 70 284.5Q61 292 52.5 304.5Q44 317 38.5 334.5Q33 352 33 376Q33 450 92 484Q151 518 287 518Q422 518 481.5 484Q541 450 541 376Q541 352 535.5 334.5Q530 317 521.5 304.5Q513 292 503.5 284.5Q494 277 487 274Q516 261 538.5 230.5Q561 200 561 152Q561 67 496.5 24.5Q432 -18 287 -18ZM287 302Q316 302 327.5 307.5Q339 313 339 324Q339 334 327.5 341Q316 348 287 348Q258 348 246.5 341Q235 334 235 324Q235 313 246.5 307.5Q258 302 287 302ZM287 150Q322 150 334 157Q346 164 346 176Q346 188 334 195Q322 202 287 202Q252 202 240 195Q228 188 228 176Q228 164 240 157Q252 150 287 150Z" glyph-name="eight.XP" horiz-adv-x="574" /><glyph d="M300 -18Q150 -18 80.5 24Q11 66 11 151Q11 199 33.5 230Q56 261 85 274Q77 277 68 285Q59 293 50.5 305.5Q42 318 36.5 336Q31 354 31 378Q31 453 95.5 485.5Q160 518 300 518Q439 518 504 485Q569 452 569 378Q569 354 563.5 336Q558 318 549.5 305.5Q541 293 531.5 285Q522 277 515 274Q544 261 566.5 230Q589 199 589 151Q589 66 519.5 24Q450 -18 300 -18ZM300 299Q337 299 352 305.5Q367 312 367 324Q367 335 352 344Q337 353 300 353Q263 353 248 344Q233 335 233 324Q233 312 248 305.5Q263 299 300 299ZM300 146Q344 146 359 154.5Q374 163 374 176Q374 189 359 197Q344 205 300 205Q256 205 241 197Q226 189 226 176Q226 163 241 154.5Q256 146 300 146Z" glyph-name="eight.XT" horiz-adv-x="600" /><glyph d="M304 467Q365 467 365 522Q365 554 349 565.5Q333 577 304 577Q275 577 259 565.5Q243 554 243 522Q243 467 304 467ZM226 246Q226 212 244 193.5Q262 175 304 175Q346 175 364 193.5Q382 212 382 246Q382 280 364 298.5Q346 317 304 317Q262 317 244 298.5Q226 280 226 246ZM304 -18Q169 -18 92 42Q15 102 15 222Q15 284 42 327Q69 370 104 393Q78 416 57.5 454.5Q37 493 37 544Q37 650 101 709Q165 768 304 768Q443 768 507 709Q571 650 571 544Q571 493 550.5 454.5Q530 416 504 393Q539 370 566 327Q593 284 593 222Q593 102 516 42Q439 -18 304 -18Z" glyph-name="eight.hybrid" horiz-adv-x="608" /><glyph d="M241 -268Q119 -268 66 -233Q13 -198 13 -127Q13 -87 31.5 -61.5Q50 -36 74 -25Q68 -22 60 -16Q52 -10 45.5 0.5Q39 11 34 25.5Q29 40 29 60Q29 121 78.5 149.5Q128 178 241 178Q353 178 402.5 150Q452 122 452 60Q452 20 436 0Q420 -20 407 -25Q432 -36 450.5 -61.5Q469 -87 469 -127Q469 -198 415 -233Q361 -268 241 -268ZM241 -2Q265 -2 274.5 2.5Q284 7 284 16Q284 24 274.5 30Q265 36 241 36Q216 36 206.5 30Q197 24 197 16Q197 7 206.5 2.5Q216 -2 241 -2ZM241 -128Q270 -128 280 -122.5Q290 -117 290 -107Q290 -96 280 -90.5Q270 -85 241 -85Q212 -85 202 -90.5Q192 -96 192 -107Q192 -117 202 -122.5Q212 -128 241 -128Z" glyph-name="eight.inf" horiz-adv-x="482" unicode="&#58745;" /><glyph d="M1074 100Q1074 124 1083.5 145.5Q1093 167 1109 183Q1125 199 1146.5 208.5Q1168 218 1192 218Q1216 218 1237.5 208.5Q1259 199 1275 183Q1291 167 1300.5 145.5Q1310 124 1310 100Q1310 76 1300.5 54.5Q1291 33 1275 17Q1259 1 1237.5 -8.5Q1216 -18 1192 -18Q1168 -18 1146.5 -8.5Q1125 1 1109 17Q1093 33 1083.5 54.5Q1074 76 1074 100ZM624 100Q624 124 633.5 145.5Q643 167 659 183Q675 199 696.5 208.5Q718 218 742 218Q766 218 787.5 208.5Q809 199 825 183Q841 167 850.5 145.5Q860 124 860 100Q860 76 850.5 54.5Q841 33 825 17Q809 1 787.5 -8.5Q766 -18 742 -18Q718 -18 696.5 -8.5Q675 1 659 17Q643 33 633.5 54.5Q624 76 624 100ZM174 100Q174 124 183.5 145.5Q193 167 209 183Q225 199 246.5 208.5Q268 218 292 218Q316 218 337.5 208.5Q359 199 375 183Q391 167 400.5 145.5Q410 124 410 100Q410 76 400.5 54.5Q391 33 375 17Q359 1 337.5 -8.5Q316 -18 292 -18Q268 -18 246.5 -8.5Q225 1 209 17Q193 33 183.5 54.5Q174 76 174 100Z" glyph-name="ellipsis" horiz-adv-x="1484" unicode="&#8230;" /><glyph d="M271 365Q242 365 229 349.5Q216 334 218 296H313Q315 330 306.5 347.5Q298 365 271 365ZM516 256Q516 196 456 196H218Q218 185 220.5 175Q223 165 232 157Q241 149 257.5 144.5Q274 140 300 140Q320 140 341 141.5Q362 143 381.5 145.5Q401 148 417.5 151Q434 154 446 157Q476 164 492 149Q508 134 508 110V64Q508 42 500.5 28Q493 14 470 6Q440 -4 389 -11Q338 -18 280 -18Q203 -18 151 -1.5Q99 15 67.5 48Q36 81 22.5 131.5Q9 182 9 250Q9 319 24 369.5Q39 420 71.5 453Q104 486 155 502Q206 518 277 518Q352 518 399 498.5Q446 479 472 445.5Q498 412 507 367.5Q516 323 516 273ZM362 720Q422 720 422 660V640Q422 580 362 580H168Q108 580 108 640V660Q108 720 168 720Z" glyph-name="emacron" horiz-adv-x="525" unicode="&#275;" /><glyph d="M494 252Q494 206 447 206H259V163H442Q522 163 522 83V80Q522 0 442 0H117Q37 0 37 80V420Q37 500 117 500H442Q522 500 522 420V418Q522 338 442 338H259V299H447Q494 299 494 252ZM382 720Q442 720 442 660V640Q442 580 382 580H188Q128 580 128 640V660Q128 720 188 720Z" glyph-name="emacron.smcp" horiz-adv-x="555" unicode="&#57922;" /><glyph d="M918 420Q978 420 978 360V310Q978 250 918 250H82Q22 250 22 310V360Q22 420 82 420Z" glyph-name="emdash" horiz-adv-x="1000" unicode="&#8212;" /><glyph d="M668 460Q728 460 728 400V350Q728 290 668 290H82Q22 290 22 350V400Q22 460 82 460Z" glyph-name="emdash.cap" horiz-adv-x="750" unicode="&#58502;" /><glyph glyph-name="emspace" horiz-adv-x="1000" unicode="&#8195;" /><glyph d="M418 420Q478 420 478 360V310Q478 250 418 250H82Q22 250 22 310V360Q22 420 82 420Z" glyph-name="endash" horiz-adv-x="500" unicode="&#8211;" /><glyph d="M251 460Q311 460 311 400V350Q311 290 251 290H82Q22 290 22 350V400Q22 460 82 460Z" glyph-name="endash.cap" horiz-adv-x="333" unicode="&#58500;" /><glyph d="M325 -268Q272 -268 250.5 -253Q229 -238 229 -204V-120Q229 -100 241 -88Q253 -76 273 -76Q312 -76 312 -36V325Q312 334 306 338.5Q300 343 292 343Q279 343 269 340Q259 337 251 332V60Q251 0 191 0H81Q21 0 21 60V440Q21 500 81 500H133Q163 500 177 488Q191 476 199 453Q211 468 228.5 480Q246 492 267.5 500.5Q289 509 313 513.5Q337 518 362 518Q420 518 455.5 504Q491 490 510.5 465Q530 440 536 407Q542 374 542 336V-53Q542 -162 487 -215Q432 -268 325 -268Z" glyph-name="eng" horiz-adv-x="561" unicode="&#331;" /><glyph d="M383 -268Q330 -268 309.5 -253Q289 -238 289 -204V-120Q289 -100 301 -88Q313 -76 333 -76Q372 -76 372 -36V56L242 211L249 80Q253 0 169 0H117Q37 0 37 80V420Q37 500 117 500H162Q192 500 214.5 487.5Q237 475 259 449L393 289L386 420Q382 500 466 500H518Q598 500 598 420V-53Q598 -268 383 -268Z" glyph-name="eng.smcp" horiz-adv-x="635" unicode="&#58155;" /><glyph glyph-name="enspace" horiz-adv-x="500" unicode="&#8194;" /><glyph d="M271 365Q242 365 229 349.5Q216 334 218 296H313Q315 330 306.5 347.5Q298 365 271 365ZM516 256Q516 196 456 196H218Q218 185 220.5 175Q223 165 232 157Q241 149 257.5 144.5Q274 140 300 140Q320 140 341 141.5Q362 143 381.5 145.5Q401 148 417.5 151Q434 154 446 157Q476 164 492 149Q508 134 508 110V64Q508 53 506.5 43.5Q505 34 498 25.5Q491 17 478 10.5Q465 4 441 -2Q388 -15 363.5 -42Q339 -69 339 -95Q339 -112 351 -124Q363 -136 399 -136Q408 -136 412.5 -135.5Q417 -135 424 -135Q442 -135 453 -149Q464 -163 464 -184V-190Q464 -209 454 -223.5Q444 -238 423 -243Q414 -245 397 -247.5Q380 -250 348 -250Q266 -250 222.5 -216Q179 -182 179 -127Q179 -95 191 -67Q203 -39 226 -16Q165 -10 123.5 9Q82 28 56.5 61Q31 94 20 141Q9 188 9 250Q9 319 24 369.5Q39 420 71.5 453Q104 486 155 502Q206 518 277 518Q352 518 399 498.5Q446 479 472 445.5Q498 412 507 367.5Q516 323 516 273Z" glyph-name="eogonek" horiz-adv-x="525" unicode="&#281;" /><glyph d="M475 -136Q484 -136 488.5 -135.5Q493 -135 500 -135Q518 -135 529 -149Q540 -163 540 -184V-190Q540 -209 530 -223.5Q520 -238 499 -243Q490 -245 473 -247.5Q456 -250 424 -250Q342 -250 298.5 -216Q255 -182 255 -127Q255 -87 271.5 -56.5Q288 -26 320 0H117Q37 0 37 80V420Q37 500 117 500H442Q522 500 522 420V418Q522 338 442 338H259V299H447Q494 299 494 252Q494 206 447 206H259V163H442Q522 163 522 83V80Q522 31 495 13Q452 -15 433.5 -42Q415 -69 415 -95Q415 -112 427 -124Q439 -136 475 -136Z" glyph-name="eogonek.smcp" horiz-adv-x="555" unicode="&#57929;" /><glyph d="M510 572Q570 572 570 512V420Q570 360 510 360H90Q30 360 30 420V512Q30 572 90 572ZM510 322Q570 322 570 262V170Q570 110 510 110H90Q30 110 30 170V262Q30 322 90 322Z" glyph-name="equal" horiz-adv-x="600" unicode="=" /><glyph d="M135 96Q75 96 75 156V248Q75 308 135 308H765Q825 308 825 248V156Q825 96 765 96ZM135 442Q75 442 75 502V594Q75 654 135 654H765Q825 654 825 594V502Q825 442 765 442Z" glyph-name="equal.cap" horiz-adv-x="900" unicode="&#58773;" /><glyph d="M340 135Q390 135 390 85V12Q390 -37 340 -37H80Q30 -37 30 12V85Q30 135 80 135ZM340 -53Q390 -53 390 -103V-176Q390 -225 340 -225H80Q30 -225 30 -176V-103Q30 -53 80 -53Z" glyph-name="equal.inf" horiz-adv-x="420" unicode="&#58749;" /><glyph d="M283 292V225Q306 202 337.5 194Q369 186 406 186Q443 186 475 195.5Q507 205 519 225Q535 251 569 251H701Q718 251 728 243.5Q738 236 742 225Q746 214 744.5 200Q743 186 737 173Q717 132 691 97Q665 62 626.5 36.5Q588 11 534.5 -3.5Q481 -18 406 -18Q308 -18 239.5 16Q171 50 128 105Q85 160 65.5 230.5Q46 301 46 375Q46 448 65.5 519Q85 590 128 645Q171 700 239.5 734Q308 768 406 768Q504 768 572.5 734Q641 700 684 645Q727 590 746.5 519Q766 448 766 375V352Q766 292 706 292ZM406 564Q369 564 337.5 556Q306 548 283 525V458H529V525Q505 548 474 556Q443 564 406 564Z" glyph-name="estimated" horiz-adv-x="812" unicode="&#8494;" /><glyph d="M230 250Q230 218 231.5 198.5Q233 179 237.5 168.5Q242 158 250 154Q258 150 270 150Q282 150 289.5 154Q297 158 301.5 168.5Q306 179 308 198.5Q310 218 310 250Q310 281 308 301Q306 321 301.5 331.5Q297 342 289.5 346Q282 350 270 350Q258 350 250 346Q242 342 237.5 331.5Q233 321 231.5 301Q230 281 230 250ZM298 511Q290 525 282 538Q274 551 266 563L104 519Q88 514 76.5 520Q65 526 65 543V602Q65 622 71 632Q77 642 92 646L147 661Q127 669 104.5 675.5Q82 682 56 687Q42 690 35 700Q28 710 28.5 721Q29 732 37.5 741Q46 750 62 750H252Q276 750 297 742Q318 734 338 719Q342 715 344 714L466 747Q482 752 493.5 746Q505 740 505 723V664Q505 644 499 634Q493 624 478 620L444 611Q484 552 507 465.5Q530 379 530 250V236Q529 168 514.5 120Q500 72 469 41.5Q438 11 389 -3.5Q340 -18 270 -18Q198 -18 148.5 -3Q99 12 68 44.5Q37 77 23.5 128Q10 179 10 250Q10 392 62 455Q114 518 224 518Q244 518 262.5 516Q281 514 298 511Z" glyph-name="eth" horiz-adv-x="540" unicode="&#240;" /><glyph d="M254 345V310H260Q315 310 315 255V250Q315 195 260 195H254V155H284Q315 155 326 178.5Q337 202 337 250Q337 298 326 321.5Q315 345 284 345ZM39 420Q39 500 119 500H306Q382 500 432 481Q482 462 511 428Q540 394 552 348.5Q564 303 564 250Q564 197 552 151.5Q540 106 511 72Q482 38 432 19Q382 0 306 0H119Q39 0 39 80V196Q0 202 0 250V255Q0 302 39 309Z" glyph-name="eth.smcp" horiz-adv-x="612" unicode="&#58156;" /><glyph d="M215 750Q244 750 260 735Q276 720 270 675L219 292Q213 250 171 250H113Q71 250 65 292L14 675Q8 720 24 735Q40 750 69 750ZM24 100Q24 124 33.5 145.5Q43 167 59 183Q75 199 96.5 208.5Q118 218 142 218Q166 218 187.5 208.5Q209 199 225 183Q241 167 250.5 145.5Q260 124 260 100Q260 76 250.5 54.5Q241 33 225 17Q209 1 187.5 -8.5Q166 -18 142 -18Q118 -18 96.5 -8.5Q75 1 59 17Q43 33 33.5 54.5Q24 76 24 100Z" glyph-name="exclam" horiz-adv-x="284" unicode="!" /><glyph d="M69 -250Q40 -250 24 -235Q8 -220 14 -175L65 208Q71 250 113 250H171Q213 250 219 208L270 -175Q276 -220 260 -235Q244 -250 215 -250ZM260 400Q260 376 250.5 354.5Q241 333 225 317Q209 301 187.5 291.5Q166 282 142 282Q118 282 96.5 291.5Q75 301 59 317Q43 333 33.5 354.5Q24 376 24 400Q24 424 33.5 445.5Q43 467 59 483Q75 499 96.5 508.5Q118 518 142 518Q166 518 187.5 508.5Q209 499 225 483Q241 467 250.5 445.5Q260 424 260 400Z" glyph-name="exclamdown" horiz-adv-x="284" unicode="&#161;" /><glyph d="M69 0Q40 0 24 15Q8 30 14 75L65 458Q71 500 113 500H171Q213 500 219 458L270 75Q276 30 260 15Q244 0 215 0ZM260 650Q260 626 250.5 604.5Q241 583 225 567Q209 551 187.5 541.5Q166 532 142 532Q118 532 96.5 541.5Q75 551 59 567Q43 583 33.5 604.5Q24 626 24 650Q24 674 33.5 695.5Q43 717 59 733Q75 749 96.5 758.5Q118 768 142 768Q166 768 187.5 758.5Q209 749 225 733Q241 717 250.5 695.5Q260 674 260 650Z" glyph-name="exclamdown.cap" horiz-adv-x="284" unicode="&#58433;" /><glyph d="M77 336H60Q0 336 0 396V423Q0 438 2.5 448.5Q5 459 12 466.5Q19 474 30.5 479.5Q42 485 59 490L77 495V579Q77 622 88 656.5Q99 691 123 716Q147 741 185 754.5Q223 768 277 768Q300 768 325.5 766.5Q351 765 368 761Q395 755 406 739.5Q417 724 417 701V631Q417 607 404 597Q391 587 371 587Q365 587 359.5 587.5Q354 588 349 588Q307 588 307 550V500H351Q411 500 411 440V396Q411 336 351 336H307V60Q307 0 247 0H137Q77 0 77 60Z" glyph-name="f" horiz-adv-x="417" unicode="f" /><glyph d="M469 198Q469 131 402 131H259V80Q259 0 179 0H117Q37 0 37 80V420Q37 500 117 500H417Q497 500 497 420V400Q497 320 417 320H259V265H402Q469 265 469 198Z" glyph-name="f.smcp" horiz-adv-x="518" unicode="&#57862;" /><glyph d="M38 505H27Q-3 505 -3 535V550Q-3 566 3 572.5Q9 579 26 584L38 587V629Q38 676 62.5 700Q87 724 144 724Q155 724 171 723Q187 722 195 720Q209 717 214 709Q219 701 219 690V655Q219 633 196 633Q193 633 187.5 633.5Q182 634 179 634Q158 634 158 615V590H185Q215 590 215 560V535Q215 505 185 505H158V370Q158 340 128 340H68Q38 340 38 370Z" glyph-name="f.superior" horiz-adv-x="221" unicode="&#58214;" /><glyph d="M605 -18Q528 -18 483 18.5Q438 55 438 134V440Q438 500 498 500H608Q668 500 668 440V199Q668 191 671 186Q674 181 685 177Q694 174 701 167.5Q708 161 708 142V41Q708 29 703 18.5Q698 8 686.5 0Q675 -8 655 -13Q635 -18 605 -18ZM77 336H60Q0 336 0 396V423Q0 438 2.5 448.5Q5 459 12 466.5Q19 474 30.5 479.5Q42 485 59 490L77 495V579Q77 622 88 656.5Q99 691 123 716Q147 741 185 754.5Q223 768 277 768Q300 768 325.5 766.5Q351 765 368 761Q395 755 406 739.5Q417 724 417 701V631Q417 607 404 597Q391 587 371 587Q365 587 359.5 587.5Q354 588 349 588Q307 588 307 550V500H351Q411 500 411 440V396Q411 336 351 336H307V60Q307 0 247 0H137Q77 0 77 60Z" glyph-name="f_dotlessi" horiz-adv-x="711" /><glyph d="M605 -18Q528 -18 483 18.5Q438 55 438 134V440Q438 500 498 500H608Q668 500 668 440V199Q668 191 671 186Q674 181 685 177Q694 174 701 167.5Q708 161 708 142V41Q708 29 703 18.5Q698 8 686.5 0Q675 -8 655 -13Q635 -18 605 -18ZM435 650Q435 674 444.5 695.5Q454 717 470 733Q486 749 507.5 758.5Q529 768 553 768Q577 768 598.5 758.5Q620 749 636 733Q652 717 661.5 695.5Q671 674 671 650Q671 626 661.5 604.5Q652 583 636 567Q620 551 598.5 541.5Q577 532 553 532Q529 532 507.5 541.5Q486 551 470 567Q454 583 444.5 604.5Q435 626 435 650ZM77 336H60Q0 336 0 396V423Q0 438 2.5 448.5Q5 459 12 466.5Q19 474 30.5 479.5Q42 485 59 490L77 495V579Q77 622 88 656.5Q99 691 123 716Q147 741 185 754.5Q223 768 277 768Q300 768 325.5 766.5Q351 765 368 761Q395 755 406 739.5Q417 724 417 701V631Q417 607 404 597Q391 587 371 587Q365 587 359.5 587.5Q354 588 349 588Q307 588 307 550V500H351Q411 500 411 440V396Q411 336 351 336H307V60Q307 0 247 0H137Q77 0 77 60Z" glyph-name="fi" horiz-adv-x="711" unicode="&#64257;" /><glyph d="M518 420Q578 420 578 360V310Q578 250 518 250H82Q22 250 22 310V360Q22 420 82 420Z" glyph-name="figuredash" horiz-adv-x="600" unicode="&#8210;" /><glyph d="M918 460Q978 460 978 400V350Q978 290 918 290H82Q22 290 22 350V400Q22 460 82 460Z" glyph-name="figuredash.cap" horiz-adv-x="1000" unicode="&#58503;" /><glyph glyph-name="figurespace" horiz-adv-x="554" unicode="&#8199;" /><glyph d="M271 -18Q246 -18 218 -16.5Q190 -15 162 -12.5Q134 -10 109 -6Q84 -2 65 4Q39 12 29 27Q19 42 19 64V150Q19 177 39 189Q59 201 86 193Q98 190 116 186Q134 182 156 179Q178 176 202.5 174Q227 172 252 172Q302 172 334.5 186.5Q367 201 367 243Q367 285 347 299Q327 313 285 313H97Q37 313 37 373V690Q37 750 97 750H496Q556 750 556 690V626Q556 566 496 566H252V475H313Q370 475 419 466Q468 457 504 431.5Q540 406 560.5 361.5Q581 317 581 245Q581 167 556 116Q531 65 488 35Q445 5 389 -6.5Q333 -18 271 -18Z" glyph-name="five" horiz-adv-x="600" unicode="5" /><glyph d="M211 181Q231 181 249 183.5Q267 186 281 193Q295 200 303 213Q311 226 311 247Q311 268 304 281Q297 294 286 301Q275 308 260 310.5Q245 313 229 313H91Q31 313 31 373V690Q31 750 91 750H445Q505 750 505 690V626Q505 566 445 566H246V475H262Q313 475 360 469.5Q407 464 444 441Q481 418 503 372Q525 326 525 245Q525 167 499.5 116Q474 65 432 35Q390 5 337 -6.5Q284 -18 230 -18Q180 -18 138.5 -13Q97 -8 59 3Q33 11 23 26Q13 41 13 63V154Q13 181 33 193Q53 205 80 197Q103 190 132 185.5Q161 181 211 181Z" glyph-name="five.LP" horiz-adv-x="538" unicode="&#58682;" /><glyph d="M271 -18Q246 -18 218 -16.5Q190 -15 162 -12.5Q134 -10 109 -6Q84 -2 65 4Q39 12 29 27Q19 42 19 64V150Q19 177 39 189Q59 201 86 193Q98 190 116 186Q134 182 156 179Q178 176 202.5 174Q227 172 252 172Q302 172 334.5 186.5Q367 201 367 243Q367 285 347 299Q327 313 285 313H97Q37 313 37 373V690Q37 750 97 750H496Q556 750 556 690V626Q556 566 496 566H252V475H313Q370 475 419 466Q468 457 504 431.5Q540 406 560.5 361.5Q581 317 581 245Q581 167 556 116Q531 65 488 35Q445 5 389 -6.5Q333 -18 271 -18Z" glyph-name="five.LT" horiz-adv-x="600" unicode="&#58693;" /><glyph d="M211 -69Q231 -69 249 -66.5Q267 -64 281 -57Q295 -50 303 -37Q311 -24 311 -3Q311 18 304 31Q297 44 286 51Q275 58 260 60.5Q245 63 229 63H91Q31 63 31 123V440Q31 500 91 500H445Q505 500 505 440V376Q505 316 445 316H246V225H262Q313 225 360 219.5Q407 214 444 191Q481 168 503 122Q525 76 525 -5Q525 -83 499.5 -134Q474 -185 432 -215Q390 -245 337 -256.5Q284 -268 230 -268Q180 -268 138.5 -263Q97 -258 59 -247Q33 -239 23 -224Q13 -209 13 -187V-96Q13 -69 33 -57Q53 -45 80 -53Q103 -60 132 -64.5Q161 -69 211 -69Z" glyph-name="five.OP" horiz-adv-x="538" unicode="&#58688;" /><glyph d="M271 -268Q246 -268 218 -266.5Q190 -265 162 -262.5Q134 -260 109 -256Q84 -252 65 -246Q39 -238 29 -223Q19 -208 19 -186V-100Q19 -73 39 -61Q59 -49 86 -57Q98 -60 116 -64Q134 -68 156 -71Q178 -74 202.5 -76Q227 -78 252 -78Q302 -78 334.5 -63.5Q367 -49 367 -7Q367 35 347 49Q327 63 285 63H97Q37 63 37 123V440Q37 500 97 500H496Q556 500 556 440V376Q556 316 496 316H252V225H313Q370 225 419 216Q468 207 504 181.5Q540 156 560.5 111.5Q581 67 581 -5Q581 -83 556 -134Q531 -185 488 -215Q445 -245 389 -256.5Q333 -268 271 -268Z" glyph-name="five.OT" horiz-adv-x="600" unicode="&#58715;" /><glyph d="M225 165Q272 165 291 171Q310 177 310 189Q310 200 299 203Q288 206 268 206H90Q30 206 30 266V440Q30 500 90 500H432Q492 500 492 440V381Q492 321 432 321H222V302H265Q334 302 380.5 296.5Q427 291 455.5 275Q484 259 496.5 229Q509 199 509 151Q509 62 440 22Q371 -18 231 -18Q136 -18 59 2Q33 9 23 24.5Q13 40 13 62V134Q13 161 32 174Q51 187 78 181Q104 175 143.5 170Q183 165 225 165Z" glyph-name="five.XP" horiz-adv-x="522" /><glyph d="M264 165Q328 165 353.5 171Q379 177 379 189Q379 200 368 203Q357 206 337 206H99Q39 206 39 266V440Q39 500 99 500H501Q561 500 561 440V381Q561 321 501 321H231V302H334Q403 302 449.5 296Q496 290 524.5 272.5Q553 255 565.5 224.5Q578 194 578 146Q578 102 557.5 70.5Q537 39 497.5 19.5Q458 0 400.5 -9Q343 -18 270 -18Q246 -18 218.5 -16.5Q191 -15 164 -12.5Q137 -10 112 -6.5Q87 -3 68 2Q42 9 32 24.5Q22 40 22 62V134Q22 161 41 174Q60 187 87 181Q100 178 121.5 175Q143 172 168 170Q193 168 218 166.5Q243 165 264 165Z" glyph-name="five.XT" horiz-adv-x="600" /><glyph d="M211 56Q231 56 249 58.5Q267 61 281 68Q295 75 303 88Q311 101 311 122Q311 143 304 156Q297 169 286 176Q275 183 260 185.5Q245 188 229 188H91Q31 188 31 248V565Q31 625 91 625H445Q505 625 505 565V501Q505 441 445 441H246V350H262Q313 350 360 344.5Q407 339 444 316Q481 293 503 247Q525 201 525 120Q525 42 499.5 -9Q474 -60 432 -90Q390 -120 337 -131.5Q284 -143 230 -143Q180 -143 138.5 -138Q97 -133 59 -122Q33 -114 23 -99Q13 -84 13 -62V29Q13 56 33 68Q53 80 80 72Q103 65 132 60.5Q161 56 211 56Z" glyph-name="five.hybrid" horiz-adv-x="538" /><glyph d="M189 -116Q228 -116 244 -111Q260 -106 260 -96Q260 -86 251 -84Q242 -82 225 -82H77Q27 -82 27 -32V110Q27 160 77 160H361Q411 160 411 110V62Q411 12 361 12L187 14V-5H222Q279 -5 318 -9Q357 -13 381 -26Q405 -39 415 -63Q425 -87 425 -127Q425 -202 368 -235Q311 -268 194 -268Q116 -268 51 -251Q29 -246 21 -233Q13 -220 13 -201V-142Q13 -119 28.5 -108Q44 -97 67 -102Q89 -107 121.5 -111.5Q154 -116 189 -116Z" glyph-name="five.inf" horiz-adv-x="438" unicode="&#58742;" /><glyph d="M605 -18Q528 -18 483 18.5Q438 55 438 134V690Q438 750 498 750H608Q668 750 668 690V199Q668 191 671 186Q674 181 685 177Q694 174 701 167.5Q708 161 708 142V41Q708 29 703 18.5Q698 8 686.5 0Q675 -8 655 -13Q635 -18 605 -18ZM77 336H60Q0 336 0 396V423Q0 438 2.5 448.5Q5 459 12 466.5Q19 474 30.5 479.5Q42 485 59 490L77 495V579Q77 622 88 656.5Q99 691 123 716Q147 741 185 754.5Q223 768 277 768Q300 768 325.5 766.5Q351 765 368 761Q395 755 406 739.5Q417 724 417 701V631Q417 607 404 597Q391 587 371 587Q365 587 359.5 587.5Q354 588 349 588Q307 588 307 550V500H351Q411 500 411 440V396Q411 336 351 336H307V60Q307 0 247 0H137Q77 0 77 60Z" glyph-name="fl" horiz-adv-x="711" unicode="&#64258;" /><glyph d="M113 375H65Q17 375 17 423V452Q17 500 65 500H113V514Q113 571 127 617.5Q141 664 173.5 697.5Q206 731 258 749.5Q310 768 385 768Q437 768 478 763Q519 758 551 748Q574 741 581.5 730Q589 719 589 700V604Q589 585 576.5 573Q564 561 536 569Q506 577 478.5 580.5Q451 584 425 584Q386 584 363 570Q340 556 340 516V500H481Q529 500 529 452V423Q529 375 481 375H340V48Q340 0 292 0H161Q113 0 113 48Z" glyph-name="florin" horiz-adv-x="584" unicode="&#402;" /><glyph d="M113 375H65Q17 375 17 423V452Q17 500 65 500H113V514Q113 571 127 617.5Q141 664 173.5 697.5Q206 731 258 749.5Q310 768 385 768Q437 768 478 763Q519 758 551 748Q574 741 581.5 730Q589 719 589 700V604Q589 585 576.5 573Q564 561 536 569Q506 577 478.5 580.5Q451 584 425 584Q386 584 363 570Q340 556 340 516V500H481Q529 500 529 452V423Q529 375 481 375H340V48Q340 0 292 0H161Q113 0 113 48Z" glyph-name="florin.LP" horiz-adv-x="584" unicode="&#58661;" /><glyph d="M320 -202Q320 -250 272 -250H141Q93 -250 93 -202V200H66Q18 200 18 248V255Q18 303 66 303H93Q94 349 104.5 388Q115 427 142.5 456Q170 485 217.5 501.5Q265 518 341 518Q401 518 443 512.5Q485 507 517 497Q540 490 547.5 479Q555 468 555 449V354Q555 335 542.5 323Q530 311 502 319Q472 327 447.5 330.5Q423 334 388 334Q357 334 342 326.5Q327 319 322 303H441Q489 303 489 255V248Q489 200 441 200H320Z" glyph-name="florin.OP" horiz-adv-x="584" /><glyph d="M320 -77Q320 -125 272 -125H141Q93 -125 93 -77V250H65Q17 250 17 298V327Q17 375 65 375H93V389Q93 446 107.5 493Q122 540 154 573.5Q186 607 238.5 625.5Q291 644 368 644Q424 644 462 638.5Q500 633 532 623Q555 616 562.5 605Q570 594 570 575V473Q570 457 561.5 446Q553 435 528 442Q498 450 470.5 455Q443 460 405 460Q366 460 343 445.5Q320 431 320 391V375H461Q509 375 509 327V298Q509 250 461 250H320Z" glyph-name="florin.hybrid" horiz-adv-x="584" /><glyph d="M293 309 295 452 211 307ZM293 129H64Q4 129 4 189V233Q4 259 7 273.5Q10 288 22 307L287 726Q300 746 316 757Q332 768 361 768H459Q519 768 519 708V309H536Q596 309 596 249V189Q596 129 536 129H519V60Q519 0 459 0H353Q293 0 293 60Z" glyph-name="four" horiz-adv-x="600" unicode="4" /><glyph d="M313 340 315 480 236 338ZM313 160H64Q4 160 4 220V256Q4 282 8 297Q12 312 24 331L273 726Q286 746 302 757Q318 768 347 768H479Q539 768 539 708V340H576Q636 340 636 280V220Q636 160 576 160H539V60Q539 0 479 0H373Q313 0 313 60Z" glyph-name="four.LP" horiz-adv-x="640" unicode="&#58681;" /><glyph d="M293 309 295 452 211 307ZM293 129H64Q4 129 4 189V233Q4 259 7 273.5Q10 288 22 307L287 726Q300 746 316 757Q332 768 361 768H459Q519 768 519 708V309H536Q596 309 596 249V189Q596 129 536 129H519V60Q519 0 459 0H353Q293 0 293 60Z" glyph-name="four.LT" horiz-adv-x="600" unicode="&#58692;" /><glyph d="M324 90 326 230 247 88ZM324 -90H75Q15 -90 15 -30V6Q15 32 19 47Q23 62 35 81L283 476Q296 496 312 507Q328 518 357 518H490Q550 518 550 458V90H587Q647 90 647 30V-30Q647 -90 587 -90H550V-190Q550 -250 490 -250H384Q324 -250 324 -190Z" glyph-name="four.OP" horiz-adv-x="662" unicode="&#58703;" /><glyph d="M293 90 295 213 231 88ZM293 -90H64Q4 -90 4 -30V6Q4 32 7.5 46Q11 60 22 80L253 475Q266 497 282.5 507.5Q299 518 328 518H459Q519 518 519 458V90H536Q596 90 596 30V-30Q596 -90 536 -90H519V-190Q519 -250 459 -250H353Q293 -250 293 -190Z" glyph-name="four.OT" horiz-adv-x="600" unicode="&#58714;" /><glyph d="M291 244 297 328 226 242ZM291 78H67Q7 78 7 138V178Q7 204 11.5 220Q16 236 27 249L229 476Q246 496 263 507Q280 518 309 518H453Q513 518 513 458V244H530Q590 244 590 184V138Q590 78 530 78H513V60Q513 0 453 0H351Q291 0 291 60Z" glyph-name="four.XP" horiz-adv-x="597" /><glyph d="M292 244 298 328 227 242ZM292 78H68Q8 78 8 138V178Q8 204 12.5 220Q17 236 28 249L230 476Q247 496 264 507Q281 518 310 518H454Q514 518 514 458V244H531Q591 244 591 184V138Q591 78 531 78H514V60Q514 0 454 0H352Q292 0 292 60Z" glyph-name="four.XT" horiz-adv-x="600" /><glyph d="M313 180 315 355 229 180ZM313 0H64Q4 0 4 60V96Q4 122 7.5 136Q11 150 22 170L275 601Q287 622 303.5 632.5Q320 643 349 643H479Q539 643 539 583V180H576Q636 180 636 120V60Q636 0 576 0H539V-65Q539 -125 479 -125H373Q313 -125 313 -65Z" glyph-name="four.hybrid" horiz-adv-x="640" /><glyph d="M243 -47 248 23 193 -49ZM243 -185H57Q7 -185 7 -135V-102Q7 -81 10.5 -67.5Q14 -54 23 -43L173 143Q187 160 201 169Q215 178 239 178H378Q428 178 428 128V-47H442Q492 -47 492 -97V-135Q492 -185 442 -185H428V-200Q428 -250 378 -250H293Q243 -250 243 -200Z" glyph-name="four.inf" horiz-adv-x="499" unicode="&#58741;" /><glyph glyph-name="fourperemspace" horiz-adv-x="250" unicode="&#8197;" /><glyph d="M-35 24Q-45 10 -56 5Q-67 0 -84 0H-155Q-172 0 -178.5 15Q-185 30 -173 47L320 726Q330 740 341 745Q352 750 369 750H440Q457 750 463.5 735Q470 720 458 703Z" glyph-name="fraction" horiz-adv-x="284" unicode="&#8260;" /><glyph d="M296 319Q296 351 287 366Q278 381 252 381Q226 381 217 366Q208 351 208 319Q208 287 217 272Q226 257 252 257Q278 257 287 272Q296 287 296 319ZM203 -46Q193 -51 185 -58.5Q177 -66 177 -81Q177 -89 179.5 -96.5Q182 -104 190 -110Q198 -116 212 -119.5Q226 -123 250 -123Q301 -123 325 -111.5Q349 -100 349 -81Q349 -73 345 -67.5Q341 -62 330 -60ZM501 500Q561 500 561 440V411Q561 381 549 365.5Q537 350 514 345L497 341Q498 336 498 332.5Q498 329 498 324Q498 271 484 234Q470 197 440 174Q410 151 363.5 140.5Q317 130 252 130Q238 130 225.5 130Q213 130 201 131Q198 126 198 120Q198 105 217 104L425 82Q467 77 494 63.5Q521 50 536 29.5Q551 9 556.5 -17.5Q562 -44 562 -74Q562 -125 537 -161.5Q512 -198 467.5 -221.5Q423 -245 362 -256.5Q301 -268 229 -268Q155 -268 105.5 -258Q56 -248 27 -230Q-2 -212 -14 -187Q-26 -162 -26 -132Q-26 -79 3.5 -52Q33 -25 76 -15V-14Q50 -6 35.5 19Q21 44 21 70Q21 103 37.5 126Q54 149 78 163Q41 186 23.5 225Q6 264 6 324Q6 377 20 414Q34 451 64 474Q94 497 140.5 507.5Q187 518 252 518Q336 518 390 500Z" glyph-name="g" horiz-adv-x="555" unicode="g" /><glyph d="M235 250Q235 219 237 199.5Q239 180 244 168.5Q249 157 256.5 153Q264 149 275 149Q286 149 296 152Q306 155 311 158V342Q306 345 296 348Q286 351 275 351Q264 351 256.5 347Q249 343 244 331.5Q239 320 237 300.5Q235 281 235 250ZM250 -268Q226 -268 201 -266.5Q176 -265 152 -262Q128 -259 107 -255Q86 -251 70 -246Q47 -238 38.5 -224.5Q30 -211 30 -188V-115Q30 -89 47 -74Q64 -59 96 -68Q111 -72 123.5 -75.5Q136 -79 148.5 -81.5Q161 -84 176 -85.5Q191 -87 212 -87Q270 -87 290.5 -67Q311 -47 311 -13V2Q286 -7 260.5 -12.5Q235 -18 209 -18Q160 -18 123 -4.5Q86 9 60.5 40.5Q35 72 22 123.5Q9 175 9 250Q9 325 22 376Q35 427 60.5 458.5Q86 490 123 504Q160 518 209 518Q251 518 289 504Q327 490 363 458Q371 477 385 488.5Q399 500 429 500H481Q541 500 541 440V27Q541 -23 532.5 -75.5Q524 -128 494.5 -170.5Q465 -213 407 -240.5Q349 -268 250 -268Z" glyph-name="g.school" horiz-adv-x="562" unicode="&#57697;" /><glyph d="M367 329Q329 329 305.5 323.5Q282 318 268.5 308Q255 298 250 283Q245 268 245 250Q245 212 266.5 189.5Q288 167 350 167V185Q350 265 430 265H462Q542 265 542 185V76Q542 44 528.5 26.5Q515 9 489 2Q457 -6 412 -12Q367 -18 310 -18Q234 -18 179.5 2Q125 22 90 57.5Q55 93 38.5 142Q22 191 22 250Q22 314 39 363.5Q56 413 93 447.5Q130 482 189 500Q248 518 332 518Q361 518 382.5 516.5Q404 515 421 512.5Q438 510 452.5 507Q467 504 482 501Q516 494 527 476.5Q538 459 538 430V367Q538 337 519.5 324Q501 311 467 318Q441 323 416.5 326Q392 329 367 329Z" glyph-name="g.smcp" horiz-adv-x="577" unicode="&#57863;" /><glyph d="M167 499Q167 513 162.5 520.5Q158 528 145 528Q133 528 128.5 520.5Q124 513 124 499Q124 486 128.5 478Q133 470 145 470Q158 470 162.5 478Q167 486 167 499ZM120 317Q108 312 108 301Q108 293 114.5 287.5Q121 282 144 282Q167 282 181.5 286.5Q196 291 196 300Q196 304 194.5 306.5Q193 309 187 310ZM276 502Q276 448 245 426.5Q214 405 145 405H119Q117 403 117 400Q117 393 127 393L237 383Q281 379 295.5 356Q310 333 310 303Q310 277 296.5 259Q283 241 259.5 229Q236 217 204 211.5Q172 206 134 206Q95 206 68.5 211Q42 216 26.5 225Q11 234 4.5 246.5Q-2 259 -2 274Q-2 300 13.5 314Q29 328 52 333Q38 337 30.5 349.5Q23 362 23 375Q23 392 31.5 403Q40 414 53 421H54Q15 443 15 502Q15 555 45.5 577Q76 599 145 599Q189 599 218 590H278Q308 590 308 560V545Q308 530 303 523Q298 516 287 513L276 510Z" glyph-name="g.superior" horiz-adv-x="303" unicode="&#58215;" /></font>
</defs>
</svg>
